<?xml version="1.0" encoding="utf-8"?>
<!-- Generator: Adobe Illustrator 26.0.1, SVG Export Plug-In . SVG Version: 6.00 Build 0)  -->
<svg version="1.1" id="Layer_1" xmlns="http://www.w3.org/2000/svg" xmlns:xlink="http://www.w3.org/1999/xlink" x="0px" y="0px"
	 viewBox="0 0 283.5 283.5" style="enable-background:new 0 0 283.5 283.5;" xml:space="preserve">
<style type="text/css">
	.st0{fill:#34646C;}
	.st1{fill:#F77E0B;}
	.st2{fill:#EC411B;}
	.st3{fill:#FFFFFF;}
	.st4{fill:#FFF0D6;}
	.st5{fill:#E7A166;}
	.st6{fill:#C58B59;}
	.st7{fill:#203040;}
</style>
<g id="Grupo_1065">
	<g id="Grupo_930">
		<path id="Trazado_597" class="st0" d="M9.7,251.8h32.1c2,0,3.7-1.6,3.7-3.7c0,0,0,0,0,0l0,0v-11l2.7-3.9v-79l-2.7-3.1v-11.7
			c0-2-1.7-3.7-3.7-3.7H9.7c-2,0-3.7,1.7-3.7,3.7l0,0v108.8C6,250.1,7.6,251.8,9.7,251.8C9.7,251.8,9.7,251.8,9.7,251.8L9.7,251.8
			L9.7,251.8z"/>
		<path id="Trazado_598" class="st1" d="M267.1,43.7l-48.7-20.3c-4.4-1.8-9.3-1.8-13.7,0l-48.7,20.3c-6.2,2.5-10.2,8.4-10.3,15.1
			V146v88.6l0,0c0.5,9,8.1,16,17.1,15.8h97.3c9.3,0.2,16.9-7.1,17.1-16.4V58.8C277.4,52.1,273.3,46.2,267.1,43.7L267.1,43.7z
			 M210.8,72.1c-6.4,0-11.5-5.2-11.5-11.5c0-6.4,5.2-11.5,11.5-11.5s11.5,5.2,11.5,11.5c0,0,0,0,0,0l0,0
			C222.3,66.9,217.2,72.1,210.8,72.1L210.8,72.1L210.8,72.1z"/>
		<path id="Trazado_599" class="st2" d="M184.2,234.6v-10.5c5-7.6,6.3-17,3.5-25.7c5.8-7.7,7.4-17.8,4.5-27c9.9-13.2,7.2-32-6-41.9
			c-0.7-0.5-1.4-1-2.1-1.4V58.8c0.1-6.7,4.1-12.6,10.3-15.1l36.3-15.1l-12.4-5.1c-4.4-1.8-9.3-1.8-13.6,0l-48.6,20.3
			c-6.2,2.5-10.2,8.4-10.3,15.1V146l0,0v88.6l0,0c0.5,9,8.1,16,17.1,15.8h38.4C192.4,250.6,184.8,243.6,184.2,234.6L184.2,234.6z"/>
		<path id="Trazado_600" class="st3" d="M228.5,163.7l-25.9-8.4c-2.3-0.7-3.8-2.8-3.8-5.2v-11.4c0-4.4,3.6-8,8-8h14c4.4,0,8,3.6,8,8
			c-0.1,3.2,2.5,5.8,5.6,5.9s5.8-2.5,5.9-5.6c0-0.1,0-0.2,0-0.2c0-10.8-8.7-19.5-19.5-19.5h-1.2v-12.7c0.1-3.2-2.5-5.8-5.6-5.9
			c-3.2-0.1-5.8,2.5-5.9,5.6v12.9h-1.2c-10.8,0-19.5,8.7-19.5,19.5v11.4c0,7.3,4.7,13.9,11.7,16.1l25.9,8.4c2.3,0.7,3.8,2.8,3.8,5.2
			v7.9c0,5.4-4.4,9.8-9.8,9.8h-10.3c-5.4,0-9.8-4.4-9.8-9.8c-0.1-3.2-2.8-5.7-6-5.5c-3,0.1-5.4,2.5-5.5,5.5l0,0
			c0,11.5,9.2,21,20.7,21.3v12.7c0.1,3.2,2.8,5.7,6,5.5c3-0.1,5.4-2.5,5.5-5.5v-12.7c11.5-0.3,20.7-9.8,20.7-21.3v-7.9
			C240.2,172.5,235.5,166,228.5,163.7z"/>
		<path id="Trazado_601" class="st4" d="M147,221.2h6.8c7.5,0.2,13.4,6.4,13.2,13.9c-0.2,7.2-6,13-13.2,13.2H81.2
			c-3.7,0-7.2-1.2-10.1-3.5c-7.7-5.9-15.7-7.1-25.6-7.7V151c23.1-26.4,52.5-28.9,50.4-68.4c-0.2-6.6,5.1-12.1,11.7-12.3
			c5.2-0.1,9.9,3.2,11.6,8.1c6.2,20.3,7.7,40.5-0.4,61.5h49.5c7.5,0,13.5,6.1,13.5,13.5c0,7.5-6.1,13.5-13.5,13.5h-4.6
			c7.5-0.5,13.9,5.1,14.4,12.6s-5.1,13.9-12.6,14.4c-0.6,0-1.2,0-1.8,0h-4.5c7.5,0,13.5,6.1,13.5,13.5c0,7.5-6.1,13.5-13.5,13.5
			L147,221.2z"/>
		<path id="Trazado_602" class="st5" d="M147,221.2h6.8c7.5,0.2,13.4,6.4,13.2,13.9c-0.2,7.2-6,13-13.2,13.2H81.2
			c-3.7,0-7.2-1.2-10.1-3.5c-7.7-5.9-15.7-7.1-25.6-7.7V151c23.1-26.4,52.5-28.9,50.4-68.4c-0.2-6.6,5.1-12.1,11.7-12.3
			c5.2-0.1,9.9,3.2,11.6,8.1c6.2,20.3,7.7,40.5-0.4,61.5h49.5c7.5,0,13.5,6.1,13.5,13.5c0,7.5-6.1,13.5-13.5,13.5h-4.6
			c7.5-0.5,13.9,5.1,14.4,12.6s-5.1,13.9-12.6,14.4c-0.6,0-1.2,0-1.8,0h-4.5c7.5,0,13.5,6.1,13.5,13.5c0,7.5-6.1,13.5-13.5,13.5
			L147,221.2z"/>
		<path id="Trazado_603" class="st6" d="M124.3,116c-9,10.5-22.7,17.4-35.4,29.8c-3.2,3.1-5,7.4-5,11.8v64.9
			c0,7.7,5.2,14.3,12.6,16.2c6.4,1.5,12.3,4.8,16.9,9.5H81.2c-3.7,0-7.2-1.2-10.1-3.5c-7.7-5.9-15.7-7.1-25.6-7.7V151
			c23.1-26.4,52.5-28.9,50.4-68.4c-0.2-6.6,5-12.2,11.6-12.4c2.7-0.1,5.3,0.7,7.4,2.3c2.1,1.5,3.6,3.6,4.3,6.1
			C123.2,90.6,124.9,103.3,124.3,116L124.3,116z"/>
		<path id="Shape" class="st7" d="M19.5,235.9v-6.3c0-3.5,2.8-6.3,6.3-6.3s6.3,2.8,6.3,6.3c0,0,0,0,0,0v6.3c0,3.5-2.8,6.3-6.3,6.3
			S19.5,239.4,19.5,235.9z"/>
	</g>
</g>
</svg>
