<svg id="Layer_1" data-name="Layer 1" xmlns="http://www.w3.org/2000/svg" viewBox="0 0 36 36"><defs><style>.cls-1{fill:#dd0063;}</style></defs><g id="Grupo_1310" data-name="Grupo 1310"><path id="plus-circle-fill" class="cls-1" d="M24.19,0a18,18,0,0,1-18,18,18,18,0,0,1-18-18,18,18,0,0,1,36,0ZM7.32-7.88A1.13,1.13,0,0,0,6.19-9,1.12,1.12,0,0,0,5.07-7.88v6.76H-1.68A1.12,1.12,0,0,0-2.81,0,1.12,1.12,0,0,0-1.68,1.12H5.07V7.88a1.13,1.13,0,0,0,2.25,0V1.12h6.75A1.12,1.12,0,0,0,15.19,0a1.12,1.12,0,0,0-1.12-1.12H7.32Z" transform="translate(11.81 18)"/></g></svg>