<svg id="Layer_1" data-name="Layer 1" xmlns="http://www.w3.org/2000/svg" width="28" height="28" viewBox="0 0 28 28"><defs><style>.cls-1{fill:#6ab335;}</style></defs><path id="Trazado_851" data-name="Trazado 851" class="cls-1" d="M24.5,1.75A1.75,1.75,0,0,1,26.25,3.5h0v21a1.75,1.75,0,0,1-1.75,1.75H3.5A1.75,1.75,0,0,1,1.75,24.5h0V3.5A1.75,1.75,0,0,1,3.5,1.75ZM3.5,0A3.5,3.5,0,0,0,0,3.5v21A3.5,3.5,0,0,0,3.5,28h21A3.5,3.5,0,0,0,28,24.5V3.5A3.5,3.5,0,0,0,24.5,0Z"/><path id="Trazado_852" data-name="Trazado 852" class="cls-1" d="M19.2,8.7a1.31,1.31,0,1,1,1.87,1.84l-7,8.73a1.32,1.32,0,0,1-1.86.07l0,0L7.57,14.67a1.31,1.31,0,0,1,1.86-1.85l3.65,3.66,6.08-7.74,0,0Z"/></svg>