<?xml version="1.0" encoding="utf-8"?>
<!-- Generator: Adobe Illustrator 26.0.1, SVG Export Plug-In . SVG Version: 6.00 Build 0)  -->
<svg version="1.1" id="Layer_1" xmlns="http://www.w3.org/2000/svg" xmlns:xlink="http://www.w3.org/1999/xlink" x="0px" y="0px"
	 viewBox="0 0 283.5 283.5" style="enable-background:new 0 0 283.5 283.5;" xml:space="preserve">
<style type="text/css">
	.st0{fill:#FFFFFF;}
	.st1{clip-path:url(#SVGID_00000142896336746365607150000006830274705323980475_);}
	.st2{fill:#6DA12F;}
	.st3{fill:#F2F3F4;}
	.st4{fill:#E93546;}
	.st5{fill:#FFC739;}
	.st6{fill:#35AE8A;}
	.st7{fill:#009CD5;}
	.st8{fill:#5F202A;}
	.st9{fill:#A7C84D;}
	.st10{fill:#73303F;}
	.st11{fill:#642C36;}
	.st12{fill:#FFD942;}
	.st13{fill:#FCA263;}
	.st14{fill:#883949;}
	.st15{opacity:0.5;fill:#FFFFFF;enable-background:new    ;}
	.st16{opacity:0.3;fill:#1A1818;enable-background:new    ;}
	.st17{fill:#FFA419;}
	.st18{fill:#F16322;}
	.st19{fill:#FE9D2B;}
	.st20{fill:#E50019;}
	.st21{fill:#1A1818;}
	.st22{fill:#00A1ED;}
	.st23{clip-path:url(#SVGID_00000176020023445330580350000014745170874211883165_);}
	.st24{fill:#22388B;}
	.st25{fill:#E7A166;}
	.st26{fill:#C58B59;}
	.st27{fill:#34646C;}
	.st28{fill:#203040;}
	.st29{fill:#E0007A;}
	.st30{fill:#313133;}
</style>
<g id="bcb117bc-949e-4485-9781-c522e59c3a46">
	<g>
		<path id="a5093475-a82b-43ca-ab50-30a5226d6f4b" class="st0" d="M64.1,21.6h155.2c26.7,0,48.3,21.6,48.3,48.3v143.6
			c0,26.7-21.6,48.3-48.3,48.3H64.1c-26.7,0-48.3-21.6-48.3-48.3V69.9C15.8,43.2,37.4,21.6,64.1,21.6z"/>
		<path id="ab4f3dd7-0a76-4e00-a283-a861cc145f16" class="st0" d="M64.4,22h154.8c26.6,0,48.2,21.6,48.2,48.2v143.2
			c0,26.6-21.6,48.2-48.2,48.2H64.4c-26.6,0-48.2-21.6-48.2-48.2V70.2C16.2,43.5,37.8,22,64.4,22z"/>
		<g>
			<g id="a1e27885-0899-4dcd-b81a-392a229243e5">
				<g id="b60e642c-d993-4b60-a89c-19a85c278b85">
					<g id="aa05ed0f-abb5-40ce-80f6-f6c48e0b6bff">
						<g>
							<g>
								<defs>
									<path id="SVGID_1_" d="M153.2,104.1h81.2c3.9,0,7,3.2,7,7.1V157c0,3.9-3.1,7-7,7.1h-81.2c-3.9,0-7.1-3.2-7.1-7.1v-45.9
										C146.1,107.2,149.3,104.1,153.2,104.1z"/>
								</defs>
								<clipPath id="SVGID_00000170276751129501662680000011775514100780956571_">
									<use xlink:href="#SVGID_1_"  style="overflow:visible;"/>
								</clipPath>
								<g style="clip-path:url(#SVGID_00000170276751129501662680000011775514100780956571_);">
									<g id="ba037054-172a-4f88-9ad3-f6c2257b4c4c">
										<g id="bd3a9df7-83a5-4836-a338-cfb613837475">
											<path id="b6ece375-70b7-455b-8ad3-a31b93d02600" class="st2" d="M178,165.1h-29.9c-0.9,0-1.6-0.7-1.6-1.6l0,0v-58.8
												c0-0.9,0.7-1.6,1.6-1.6l0,0H178V165.1z"/>
											<rect id="b68af471-ca7b-4941-9fb1-79b25e655617" x="178" y="103" class="st3" width="31.6" height="62.1"/>
											<path id="e9e8d34f-2f04-4e39-9599-cfa5c27b73f3" class="st4" d="M239.5,165.1h-29.9V103h29.9c0.9,0,1.6,0.7,1.6,1.6l0,0
												v58.8C241.1,164.3,240.4,165,239.5,165.1L239.5,165.1z"/>
											<g id="a20f0e3c-7034-461a-8b18-dac51f817c20">
												<path id="a8cc2041-79b1-4359-ae9a-bd2d8f34a9c8" class="st5" d="M196.6,135.5l-2.8,1.4v1.4h1.4L196.6,135.5z"/>
												<g id="bb70cfca-a48b-4283-a0bc-7868703b0d47">
													<path id="b60cbaa7-0519-4cfd-a92e-f0d4ac94397b" class="st6" d="M193.8,141.9c-0.4,0-0.7-0.3-0.7-0.7l0,0v-2.8
														c0-0.4,0.4-0.7,0.8-0.6c0.3,0,0.6,0.3,0.6,0.6v2.8C194.5,141.5,194.2,141.9,193.8,141.9z"/>
													<path id="ac12c3df-859e-44a8-9577-4a0bf923df9f" class="st6" d="M193.8,139.1c-2.8,0-5.5-1.1-7.5-3
														c-0.3-0.3-0.3-0.7,0-1l0,0l0,0c0.3-0.3,0.7-0.3,1,0l0,0c3.7,3.5,9.4,3.5,13.1,0c0.3-0.3,0.7-0.3,1,0l0,0l0,0
														c0.3,0.3,0.3,0.7,0,1l0,0C199.3,138,196.6,139.1,193.8,139.1z"/>
												</g>
												<path id="e45a85c0-7d4e-40a5-81e0-3b9e91ce0334" class="st7" d="M193.8,141.9c-1.8,0-3.6-0.5-5.1-1.5l0.8-1.2
													c2.6,1.7,5.9,1.7,8.6,0l0.8,1.2C197.3,141.3,195.6,141.9,193.8,141.9z"/>
												<path id="ee9151a5-7c3b-4137-9e64-94460582b961" class="st8" d="M192.7,132.4l-1.6,2.4l-0.3,0.8l4-0.9L192.7,132.4z"/>
												<path id="a554d4f9-f2ea-469f-ae4c-98f161fc1f41" class="st9" d="M189.5,136.3c-1.9,0-4.1-1.6-4.7-5.1l1.4-0.2
													c0.5,2.9,2.3,3.9,3.4,3.9c0.3,0,0.7-0.1,0.7-0.4s0-0.4-0.7-0.6c-0.4-0.1-0.8-0.3-1.2-0.7c-1.3-1.5,0.4-3,1.3-3.8
													c0.1-0.1,0.2-0.2,0.2-0.3c-0.1-0.2-0.4-0.3-0.6-0.3c-0.8,0-1.6-0.5-1.8-1.3s0.2-1.7,0.9-2.1l0.6,1.2
													c-0.2,0.1-0.2,0.3-0.2,0.5c0,0.1,0.1,0.2,0.4,0.2c0.9,0,1.6,0.4,2,1.2c0.2,0.7,0,1.4-0.6,1.8c-0.9,0.8-1.5,1.4-1.2,1.8
													c0.2,0.1,0.4,0.2,0.6,0.2c0.6,0.2,1.8,0.6,1.6,2.1c-0.2,1-1.1,1.7-2.1,1.6L189.5,136.3z"/>
												<path id="f11acf8d-283c-4455-8ddf-c28043328a21" class="st10" d="M195.2,128.5c0.8-1.5,0.2-3.4-1.3-4.2l0,0l-0.1-0.1
													c0,0,9.9-1.4,8.4,11.3l0,0c-1.1-0.9-2.1-1.9-2.8-3.2l-4.3-2.5L195.2,128.5L195.2,128.5z"/>
												<path id="f99e90b1-7397-43d9-9529-85ad85cda2ba" class="st8" d="M193.8,131.3l7,4.2l-2.8,1.4l-4.2-4.2V131.3z"/>
												<path id="adba04bd-85e4-401d-a535-d3c631845152" class="st11" d="M191,127.1L191,127.1c0.8,0,1.4,0.6,1.4,1.4l0,0
													c-0.8,0.8-1.1,2.1-0.5,3.2l0.3,0.6c0.1,0.3,0.3,0.5,0.5,0.7l3.9,3.9v-2c0-2.4-0.6-4.8-1.6-7l0,0
													c-0.7-1.4-2.2-2.3-3.8-2.3H191V127.1L191,127.1L191,127.1z"/>
												<path id="b9640bc4-85c3-4928-afe3-1c0fc6cdc2f6" class="st5" d="M191,125.7l-1.4,1.4v1.4c0,0,1.7-0.8,2.2-1.1
													c0.3-0.1,0.4-0.4,0.2-0.7c0-0.1-0.1-0.1-0.1-0.2C191.7,126.3,191,125.7,191,125.7z"/>
												<path id="acfdb585-79df-4cdf-98bb-074a56a20673" class="st9" d="M193.8,144.7c-6.6,0-12-5.4-12-12h1.4
													c0,5.8,4.7,10.6,10.6,10.6c5.8,0,10.5-4.7,10.6-10.6h1.4C205.7,139.3,200.4,144.6,193.8,144.7z"/>
												<g id="b918b41d-1164-41be-9a72-d9c9d62b9076">
													<circle id="a5272dff-4aad-4907-8884-d8b17b265742" class="st12" cx="183.3" cy="136.9" r="1"/>
													<circle id="b7d58b5a-84a2-4496-9270-695f46ef3efc" class="st12" cx="185.4" cy="140.3" r="1"/>
													<circle id="a035c194-2bc8-4497-beb9-072d40d31b85" class="st12" cx="188.8" cy="142.8" r="1"/>
													<circle id="abea8f28-7be7-4af2-8c51-2e9b00bbfb0d" class="st12" cx="204.4" cy="136.9" r="1"/>
													<circle id="ac914a3a-0dca-4ac7-9ae1-3e50ed268864" class="st12" cx="202.2" cy="140.3" r="1"/>
													<circle id="b25cd1b2-f110-4034-b91f-21ffa87836d8" class="st12" cx="198.8" cy="142.8" r="1"/>
												</g>
												<path id="a7f79024-cdbc-4564-bfd1-4aa13ad32d9b" class="st13" d="M194.5,142.6h-1.4c-0.8,0-1.4-0.6-1.4-1.4l0,0
													c0-0.8,0.6-1.4,1.4-1.4l0,0h1.4c0.8,0,1.4,0.6,1.4,1.4l0,0C195.9,141.9,195.3,142.6,194.5,142.6z"/>
												<path id="ba3266c8-3302-4339-b89a-5cebf172ee64" class="st14" d="M199.4,132.4c0.4,1.4,1.5,2.6,2.8,3.2l0,0
													c1.4-12.7-8.4-11.3-8.4-11.3C200.8,124.3,199.4,132.4,199.4,132.4z"/>
											</g>
										</g>
										<path id="afadf796-9475-4c7f-a8c6-461fae2a40e0" class="st15" d="M154.9,102.3h77.2c6,0,10.8,4.8,10.8,10.8v43.1
											c0,6-4.8,10.8-10.8,10.8h-77.2c-6,0-10.8-4.8-10.8-10.8v-43.1C144.1,107.1,148.9,102.3,154.9,102.3z"/>
									</g>
								</g>
							</g>
						</g>
					</g>
					<path id="fd3a4baa-6552-40bb-8a1b-bd80f7750a92" class="st16" d="M234.4,104.1H233c-16.6,29.6-47.8,49.8-66.8,60h68.2
						c3.9,0,7.1-3.2,7.1-7.1l0,0v-45.9C241.4,107.2,238.3,104.1,234.4,104.1z"/>
					<rect id="a39ebe88-745d-4632-91ac-3f88dea0cf36" x="152.3" y="111.6" class="st17" width="17.6" height="14.1"/>
					<g id="a6ec83a3-669d-490d-9ce0-09dd4d74399a">
						<rect id="f1fe611c-9dad-4c22-92d0-8457a1b86ca0" x="152.3" y="116.9" class="st18" width="5.3" height="3.5"/>
						<rect id="a8f6b1d4-9e4a-4c12-8f64-7ff399cc6403" x="164.6" y="116.9" class="st18" width="5.3" height="3.5"/>
					</g>
					<circle id="a29d2c92-414f-4f49-b883-148e96b9b920" class="st19" cx="229.6" cy="150.4" r="7.5"/>
					<circle id="b12374a8-8406-42c5-810b-e02a0254857d" class="st20" cx="220.6" cy="150.4" r="7.5"/>
					<g id="b01fe3bd-3fcc-411b-b7a9-fdccb2b3e735">
						<rect id="b60cc0ab-5776-4930-a9a8-db0de90f0f81" x="153.2" y="146.7" class="st21" width="10.6" height="3.5"/>
						<rect id="a87e99c2-6a3d-4f12-bc4e-d74e9466c5f7" x="170.8" y="146.7" class="st21" width="10.6" height="3.5"/>
						<rect id="ff7d954b-c0ee-49b4-8e2d-f7ed14f23b43" x="188.5" y="146.7" class="st21" width="10.6" height="3.5"/>
						<rect id="b0b25a03-6c18-4b92-8e93-1cdf01ce4a13" x="153.2" y="154.5" class="st21" width="45.9" height="3.5"/>
						<rect id="f5164cce-1eb5-45e9-9e15-50aed5935735" x="211.6" y="112" class="st21" width="3.5" height="7.1"/>
						<rect id="a7ea5823-78bf-498b-ac3f-80d2634a04c8" x="218.6" y="112" class="st21" width="3.5" height="7.1"/>
						<rect id="be9fb628-4a78-4892-804f-ce253ce103bd" x="225.7" y="112" class="st21" width="3.5" height="7.1"/>
						<rect id="ba3f07cd-955b-4c85-a9f6-c3d2504e484e" x="232.7" y="112" class="st21" width="3.5" height="7.1"/>
					</g>
				</g>
			</g>
			<path id="ad440269-32cb-40f5-aa2a-082ee837ebf6" class="st22" d="M84.8,64.8h47.9c2.6,0,4.7,2.1,4.7,4.7V162
				c0,2.6-2.1,4.7-4.7,4.7H84.8c-2.6,0-4.7-2.1-4.7-4.7V69.5C80.1,66.9,82.2,64.8,84.8,64.8z"/>
			<g id="fc24af67-4fa0-482d-adfe-eea536637fc9">
				<g>
					<g>
						<defs>
							<path id="SVGID_00000006706807876272143910000017151266918427949982_" d="M87.4,69.4H130c1.7,0,3.1,1.4,3.1,3.1V159
								c0,1.7-1.4,3.1-3.1,3.1H87.4c-1.7,0-3.1-1.4-3.1-3.1V72.5C84.3,70.8,85.7,69.4,87.4,69.4z"/>
						</defs>
						<clipPath id="SVGID_00000178189664112736382370000003804162211163986620_">
							<use xlink:href="#SVGID_00000006706807876272143910000017151266918427949982_"  style="overflow:visible;"/>
						</clipPath>
						<g style="clip-path:url(#SVGID_00000178189664112736382370000003804162211163986620_);">
							<g id="fd8bb837-966a-4180-bfc6-4b962e2f1e60">
								<g id="fe7b3f0a-41c7-40db-bbd9-f3485b5ec145">
									<path id="e0bbdc11-ddeb-4ed1-af0a-8cb1ffb8dac3" class="st3" d="M227.1,164H86.3c-1.4,0-2.5-1.1-2.5-2.5l0,0l0,0V71
										c0-1.4,1.1-2.5,2.5-2.5H227c1.4,0,2.5,1.1,2.5,2.5l0,0l0,0v90.5C229.6,162.9,228.4,164,227.1,164L227.1,164z"/>
									<g id="ac2218a1-814f-4492-9b14-fdfb48674b74">
										<path id="fbebbfcb-3dbf-465b-b0eb-2bba7cf46cdb" class="st4" d="M229.6,75.9H83.8V71c0-1.4,1.1-2.5,2.5-2.5l0,0H227
											c1.4,0,2.5,1.1,2.5,2.5l0,0v4.9H229.6z"/>
										<rect id="a5712550-c5e2-4a4f-9b89-f4ebc35e4966" x="83.8" y="97.9" class="st4" width="145.8" height="7.3"/>
										<rect id="f2146753-ac3a-4788-ad43-555622488c1a" x="83.8" y="83.2" class="st4" width="145.8" height="7.3"/>
										<path id="b4c4e0cb-9889-4f3c-a367-87b38855c470" class="st4" d="M229.6,119.9H86.3c-1.4,0-2.5-1.1-2.5-2.5l0,0v-4.8h145.8
											V119.9z"/>
										<rect id="e418de28-96ba-4da6-b249-0d6c5801e8c7" x="83.8" y="142" class="st4" width="145.8" height="7.4"/>
										<path id="abdb2c75-d1b1-4aed-a3e4-55a6324d8b89" class="st4" d="M227.1,164H86.3c-1.4,0-2.5-1.1-2.5-2.5l0,0l0,0v-4.8
											h145.8v4.8C229.6,162.9,228.4,164,227.1,164z"/>
										<rect id="fc34f31b-ebcc-42de-a807-e42160dfa8d7" x="83.8" y="127.3" class="st4" width="145.8" height="7.4"/>
									</g>
									<g id="a33ea1a6-c446-483b-ad75-26bd839169f8">
										<path id="f1d66166-b2c0-4236-9671-6a3f34174adf" class="st24" d="M132.2,68.5H85.7c-1,0-1.9,0.8-1.9,1.9l0,0v34.3
											c0,1,0.8,1.9,1.8,1.9l0,0h46.5c1,0,1.9-0.8,1.9-1.9l0,0V70.4C134.1,69.3,133.2,68.5,132.2,68.5z"/>
										<g id="be05d611-0c8e-4908-9149-c2fc0ddb6455">
											<path id="b4d41de0-af51-473e-9600-821872c186e4" class="st3" d="M89,72.8l0.4,1.2h1.3c0.1,0,0.2,0.1,0.2,0.2
												s0,0.1-0.1,0.1l-1,0.8l0.4,1.2c0,0.1,0,0.2-0.1,0.2c0,0-0.1,0-0.2,0l-1.1-0.8l-1.1,0.8c-0.1,0.1-0.2,0.1-0.2,0
												c0,0,0-0.1,0-0.2l0.4-1.2l-1-0.8c-0.1-0.1-0.1-0.2,0-0.2V74h1.3l0.4-1.2c0-0.1,0.1-0.1,0.2-0.1l0,0
												C89,72.7,89,72.7,89,72.8z"/>
											<path id="ecba9cf7-58bd-4c32-89ce-c88d9afaa362" class="st3" d="M89,79.2l0.4,1.2h1.3c0.1,0,0.2,0.1,0.2,0.2
												s0,0.1-0.1,0.1l-1,0.8l0.4,1.2c0,0.1,0,0.2-0.1,0.2c0,0-0.1,0-0.2,0l-1.1-0.8l-1,0.9c-0.1,0.1-0.2,0.1-0.2,0
												c0,0,0-0.1,0-0.2l0.4-1.2l-1-0.8c-0.1-0.1-0.1-0.2,0-0.2l0.1-0.1h1.3l0.4-1.2C88.8,79.2,88.9,79.1,89,79.2L89,79.2
												L89,79.2z"/>
											<path id="b2e54df0-1aeb-467b-9156-17838c284664" class="st3" d="M89,85.7l0.4,1.3h1.3c0.1,0,0.2,0.1,0.2,0.2
												c0,0,0,0.1-0.1,0.1l-1,0.8l0.4,1.2c0,0.1,0,0.2-0.1,0.2c0,0-0.1,0-0.2,0l-1.1-0.8l-1.1,0.8c-0.1,0.1-0.2,0.1-0.2,0
												c0,0,0-0.1,0-0.2l0.4-1.2l-1-0.8c-0.1-0.1-0.1-0.2,0-0.2V87h1.3l0.4-1.2C88.7,85.7,88.8,85.6,89,85.7L89,85.7z"/>
											<path id="bef902e9-d56b-4d5b-9da3-0189a2b877f8" class="st3" d="M89,92.2l0.4,1.2h1.3c0.1,0,0.2,0.1,0.2,0.2
												s0,0.1-0.1,0.1l-1,0.8l0.4,1.2c0,0.1,0,0.2-0.1,0.2c0,0-0.1,0-0.2,0l-1.1-0.8l-1,0.9c-0.1,0.1-0.2,0.1-0.2,0
												c0,0,0-0.1,0-0.2l0.4-1.2l-1-0.8c-0.1-0.1-0.1-0.2,0-0.2l0.1-0.1h1.3l0.4-1.2C88.8,92.1,88.9,92.1,89,92.2
												C89.1,92.2,89.1,92.2,89,92.2L89,92.2z"/>
											<path id="ad823233-7071-45d2-990f-3e53088d8b0f" class="st3" d="M89,98.6l0.4,1.2h1.3c0.1,0,0.2,0.1,0.2,0.2
												c0,0,0,0.1-0.1,0.1l-1,0.8l0.4,1.2c0,0.1,0,0.2-0.1,0.2c0,0-0.1,0-0.2,0l-1.1-0.8l-1.1,0.8c-0.1,0.1-0.2,0.1-0.2,0
												c0,0,0-0.1,0-0.2L88,101l-1-0.8c-0.1-0.1-0.1-0.2,0-0.2l0.1-0.1h1.3l0.4-1.2C88.8,98.6,88.9,98.6,89,98.6L89,98.6
												L89,98.6z"/>
											<path id="bd7e9dc0-75e3-4b76-89d8-f0c4ab4ac960" class="st3" d="M94,76l0.4,1.2h1.3c0.1,0,0.2,0.1,0.2,0.2l0,0
												c0,0.1,0,0.1-0.1,0.1l-1,0.8l0.4,1.2c0,0.1,0,0.2-0.1,0.2l0,0c-0.1,0-0.1,0-0.2,0l-1-0.7l-1.1,0.8
												c-0.1,0.1-0.2,0.1-0.2,0s0-0.1,0-0.2l0.4-1.2l-1-0.8c-0.1-0.1-0.1-0.2,0-0.2v-0.1h1.3l0.4-1.2C93.8,75.9,93.9,75.9,94,76
												L94,76z"/>
											<path id="efa8c139-be34-4ed7-9026-8d316745c837" class="st3" d="M94,82.4l0.4,1.2h1.3c0.1,0,0.2,0.1,0.2,0.2
												c0,0,0,0.1-0.1,0.1l-1,0.8l0.4,1.3c0,0.1,0,0.2-0.1,0.2s-0.1,0-0.2,0l-1.1-0.8l-1.1,0.8c-0.1,0.1-0.2,0.1-0.2,0
												c0,0,0-0.1,0-0.2l0.4-1.2L92,84c-0.1-0.1-0.1-0.2,0-0.2l0.1-0.1h1.2l0.4-1.2C93.7,82.4,93.8,82.4,94,82.4
												C93.9,82.4,93.9,82.4,94,82.4L94,82.4z"/>
											<path id="bab3fca2-34ba-4fd5-bb5c-82458c8eefbc" class="st3" d="M94,88.9l0.4,1.2h1.3c0.1,0,0.2,0.1,0.2,0.2
												c0,0,0,0.1-0.1,0.1l-1,0.8l0.4,1.2c0,0.1,0,0.2-0.1,0.2s-0.1,0-0.2,0l-1.1-0.8l-1.1,0.8c-0.1,0.1-0.2,0.1-0.2,0
												c0,0,0-0.1,0-0.2l0.4-1.2l-1-0.8c-0.1-0.1-0.1-0.2,0-0.3c0,0,0.1,0,0.1-0.1h1.2l0.4-1.2C93.7,88.9,93.8,88.8,94,88.9
												C94,88.8,94,88.9,94,88.9z"/>
											<path id="b59f74f9-5926-4c8d-b311-75f1f6a8cb7c" class="st3" d="M94,95.3l0.4,1.2h1.3c0.1,0,0.2,0.1,0.2,0.2l0,0
												c0,0.1,0,0.1-0.1,0.1l-1,0.8l0.4,1.2c0,0.1,0,0.2-0.1,0.2s-0.1,0-0.2,0l-1.1-0.8L92.7,99c-0.1,0.1-0.2,0-0.2-0.1
												c0,0,0-0.1,0-0.2l0.4-1.2l-1-0.8c-0.1-0.1-0.1-0.2,0-0.2l0.1-0.1h1.2l0.4-1.2C93.7,95.3,93.8,95.2,94,95.3
												C93.9,95.2,93.9,95.2,94,95.3L94,95.3z"/>
											<path id="f0954a6b-329a-4f8b-b3d0-6228d2839835" class="st3" d="M99.1,72.8l0.4,1.2h1.3c0.1,0,0.2,0.1,0.2,0.2l0,0
												c0,0,0,0.1-0.1,0.1l-1,0.8l0.4,1.2c0,0.1,0,0.2-0.1,0.2s-0.1,0-0.2,0l-1.1-0.8l-1,0.8c-0.1,0.1-0.2,0.1-0.2,0
												c0,0,0-0.1,0-0.2L98,75l-1-0.8c-0.1,0-0.1-0.1-0.1-0.2s0.1-0.1,0.1-0.1h1.3l0.4-1.2c0-0.1,0.1-0.1,0.2-0.1l0,0
												C99,72.7,99,72.7,99.1,72.8z"/>
											<path id="ffd5216b-266a-4b1f-96e3-d5140ee1ad25" class="st3" d="M99.1,79.2l0.4,1.2h1.3c0.1,0,0.2,0.1,0.2,0.2l0,0
												c0,0,0,0.1-0.1,0.1l-1,0.8l0.4,1.2c0,0.1,0,0.2-0.1,0.2l0,0c0,0-0.1,0-0.2,0l-1.1-0.8l-1,0.8c-0.1,0.1-0.2,0.1-0.2,0
												c0,0,0-0.1,0-0.2l0.3-1.3l-1-0.8c-0.1-0.1-0.1-0.2,0-0.2l0,0l0.1-0.1h1.3l0.4-1.2C98.9,79.2,99,79.1,99.1,79.2L99.1,79.2
												z"/>
											<path id="ab7b26a4-8931-495a-a089-108f5de0607a" class="st3" d="M99.1,85.7l0.4,1.3h1.3c0.1,0,0.2,0.1,0.2,0.2l0,0
												c0,0,0,0.1-0.1,0.1l-1,0.8l0.4,1.2c0,0.1,0,0.2-0.1,0.2s-0.1,0-0.2,0l-1.1-0.8l-1,0.8c-0.1,0.1-0.2,0.1-0.2,0
												c0,0,0-0.1,0-0.2L98,88l-1-0.8c-0.1-0.1-0.1-0.2,0-0.2l0,0h1.3l0.4-1.2c0-0.1,0.1-0.2,0.2-0.2L99.1,85.7
												C99,85.6,99.1,85.7,99.1,85.7z"/>
											<path id="a5a52712-b5cf-478d-8a7f-ceb591b50068" class="st3" d="M99.1,92.2l0.4,1.2h1.3c0.1,0,0.2,0.1,0.2,0.2l0,0
												c0,0,0,0.1-0.1,0.1l-1,0.8l0.4,1.2c0,0.1,0,0.2-0.1,0.2s-0.1,0-0.2,0l-1.1-0.8l-1,0.8c-0.1,0.1-0.2,0.1-0.2,0
												c0,0,0-0.1,0-0.2l0.3-1.3l-1-0.8c-0.1-0.1-0.1-0.2,0-0.2l0,0l0.1-0.1h1.3l0.4-1.2c0-0.1,0.1-0.1,0.2-0.1l0,0
												C99.1,92.1,99.1,92.1,99.1,92.2z"/>
											<path id="f7a2c249-a317-4486-98ad-fa4d29b196a3" class="st3" d="M99.1,98.6l0.4,1.2h1.3c0.1,0,0.2,0.1,0.2,0.2l0,0
												c0,0,0,0.1-0.1,0.1l-1,0.8l0.4,1.2c0,0.1,0,0.2-0.1,0.2s-0.1,0-0.2,0l-1.1-0.8l-1,0.8c-0.1,0.1-0.2,0.1-0.2,0
												c0,0,0-0.1,0-0.2L98,101l-1-0.8c-0.1-0.1-0.1-0.2,0-0.3l0.1-0.1h1.3l0.4-1.2C98.8,98.6,98.9,98.5,99.1,98.6
												C99,98.6,99,98.6,99.1,98.6L99.1,98.6z"/>
											<path id="fcf65e0e-3dfe-4fda-b383-f8a5a5036752" class="st3" d="M104.1,76l0.4,1.2h1.3c0.1,0,0.2,0.1,0.2,0.2
												s0,0.1-0.1,0.1l-1,0.8l0.4,1.2c0,0.1,0,0.2-0.1,0.2l0,0c0,0-0.1,0-0.2,0l-1.1-0.8l-1.1,0.8c-0.1,0.1-0.2,0.1-0.2,0l0,0
												c0-0.1,0-0.1,0-0.2l0.4-1.2l-1-0.8c-0.1-0.1-0.1-0.2,0-0.2l0.1-0.1h1.3l0.4-1.2C103.9,75.9,104,75.9,104.1,76
												C104.1,75.9,104.1,76,104.1,76z"/>
											<path id="b5c256a1-2a02-42be-8255-769006a1bfd8" class="st3" d="M104.1,82.4l0.4,1.2h1.3c0.1,0,0.2,0.1,0.2,0.2
												c0,0,0,0.1-0.1,0.1l-1,0.8l0.4,1.2c0,0.1,0,0.2-0.1,0.2l0,0c0,0-0.1,0-0.2,0l-1.1-0.8l-1.1,0.8c-0.1,0.1-0.2,0.1-0.2,0
												l0,0c0,0,0-0.1,0-0.2l0.4-1.2l-1-0.8c-0.1-0.1-0.1-0.2,0-0.2l0.1-0.1h1.3l0.4-1.2C103.9,82.4,104,82.3,104.1,82.4
												L104.1,82.4L104.1,82.4z"/>
											<path id="e61b6748-c55b-4e3a-ae89-89558baad9ed" class="st3" d="M104.1,88.9l0.4,1.2h1.3c0.1,0,0.2,0.1,0.2,0.2
												s0,0.1-0.1,0.1l-1,0.8l0.4,1.2c0,0.1,0,0.2-0.1,0.2l0,0c0,0-0.1,0-0.2,0l-1.1-0.8l-1.1,0.8c-0.1,0.1-0.2,0.1-0.2,0
												c0,0,0-0.1,0-0.2l0.4-1.2l-1-0.8c-0.1-0.1-0.1-0.2,0-0.2l0.1-0.1h1.3l0.4-1.2C103.9,88.9,104,88.8,104.1,88.9L104.1,88.9
												z"/>
											<path id="b0bb21f6-a607-4836-a8fe-698e0908c4e1" class="st3" d="M104.1,95.3l0.4,1.2h1.3c0.1,0,0.2,0.1,0.2,0.2
												s0,0.1-0.1,0.1l-1,0.8l0.4,1.2c0,0.1,0,0.2-0.1,0.2c0,0-0.1,0-0.2,0l-1.1-0.8l-1.1,0.8c-0.1,0-0.2,0-0.2-0.1
												c0,0,0-0.1,0-0.2l0.4-1.2l-1-0.8c-0.1-0.1-0.1-0.2,0-0.2l0.1-0.1h1.3l0.4-1.2C103.9,95.3,104,95.2,104.1,95.3L104.1,95.3
												z"/>
											<path id="b5f7e73a-ff63-4752-8bad-c9c542d99b27" class="st3" d="M109.1,72.8l0.4,1.2h1.3c0.1,0,0.2,0.1,0.2,0.2l0,0
												c0,0.1,0,0.1-0.1,0.1l-1,0.8l0.4,1.2c0,0.1,0,0.2-0.1,0.2s-0.1,0-0.2,0l-1-0.8l-1.1,0.8c-0.1,0.1-0.2,0.1-0.2,0
												c0,0,0-0.1,0-0.2l0.4-1.2l-1-0.8c-0.1-0.1-0.1-0.2,0-0.2c-0.1,0-0.1-0.1-0.1-0.1h1.3l0.4-1.2c0-0.1,0.1-0.1,0.2-0.1l0,0
												C109,72.7,109.1,72.7,109.1,72.8z"/>
											<path id="a67c60d3-23ed-4851-af90-8f3a6ebe1399" class="st3" d="M109.1,79.2l0.4,1.2h1.3c0.1,0,0.2,0.1,0.2,0.2
												c0,0,0,0.1-0.1,0.1l-1,0.8l0.4,1.2c0,0.1,0,0.2-0.1,0.2s-0.1,0-0.2,0l-1-0.8l-1,0.9c-0.1,0.1-0.2,0.1-0.2,0
												c0,0,0-0.1,0-0.2l0.4-1.2l-1-0.8c-0.1-0.1-0.1-0.2,0-0.2l0.1-0.1h1.3l0.4-1.2C109,79.2,109.1,79.2,109.1,79.2L109.1,79.2
												z"/>
											<path id="b7ff5006-48be-46cb-ae47-b3705c496fe9" class="st3" d="M109.1,85.7l0.4,1.3h1.3c0.1,0,0.2,0.1,0.2,0.2
												c0,0,0,0.1-0.1,0.1l-1,0.8l0.4,1.2c0,0.1,0,0.2-0.1,0.2s-0.1,0-0.2,0l-1-0.8l-1.1,0.8c-0.1,0.1-0.2,0.1-0.2,0
												c0,0,0-0.1,0-0.2L108,88l-1-0.8c-0.1-0.1-0.1-0.2,0-0.2h1.3l0.4-1.2c0-0.1,0.1-0.1,0.2-0.1
												C109,85.6,109.1,85.7,109.1,85.7z"/>
											<path id="ecdbebdf-68ad-4188-89a1-1ac60b902e42" class="st3" d="M109.1,92.2l0.4,1.2h1.3c0.1,0,0.2,0.1,0.2,0.2
												c0,0,0,0.1-0.1,0.1l-1,0.8l0.4,1.2c0,0.1,0,0.2-0.1,0.2s-0.1,0-0.2,0l-1-0.8l-1,0.9c-0.1,0.1-0.2,0.1-0.2,0
												c0,0,0-0.1,0-0.2l0.3-1.3l-1-0.8c-0.1-0.1-0.1-0.2,0-0.2l0.1-0.1h1.3l0.4-1.2C108.9,92.1,109,92.1,109.1,92.2
												C109.1,92.1,109.1,92.1,109.1,92.2z"/>
											<path id="a84464c2-45f7-4f5e-865d-2f0a93f95e25" class="st3" d="M109.1,98.6l0.4,1.2h1.3c0.1,0,0.2,0.1,0.2,0.2
												c0,0,0,0.1-0.1,0.1l-1,0.8l0.4,1.2c0,0.1,0,0.2-0.1,0.2s-0.1,0-0.2,0l-1-0.8l-1.1,0.8c-0.1,0.1-0.2,0.1-0.2,0
												c0,0,0-0.1,0-0.2l0.3-1.3l-1-0.8c-0.1-0.1-0.1-0.2,0-0.2l0.1-0.1h1.3l0.4-1.2C108.9,98.6,109,98.5,109.1,98.6L109.1,98.6
												L109.1,98.6z"/>
											<path id="f8721bc1-f6f8-4d37-98b3-9a6d1ef22d84" class="st3" d="M114.1,76l0.4,1.2h1.3c0.1,0,0.2,0.1,0.2,0.2l0,0
												c0,0.1,0,0.1-0.1,0.1l-1.1,0.8l0.4,1.2c0,0.1,0,0.2-0.1,0.2l0,0c0,0-0.1,0-0.2,0l-1-0.8l-1.1,0.8c-0.1,0.1-0.2,0.1-0.2,0
												s0-0.1,0-0.2l0.4-1.2l-1.1-0.8c-0.1-0.1-0.1-0.2,0-0.2l0.1-0.1h1.3l0.4-1.2c0-0.1,0.1-0.1,0.2-0.1
												C114.1,75.9,114.1,75.9,114.1,76z"/>
											<path id="a6951bbe-bdad-4147-8d73-6fd76ee72ea3" class="st3" d="M114.1,82.4l0.4,1.2h1.3c0.1,0,0.2,0.1,0.2,0.2
												c0,0,0,0.1-0.1,0.1l-1.1,0.8l0.4,1.2c0,0.1,0,0.2-0.1,0.2c0,0-0.1,0-0.2,0l-1-0.8l-1.1,0.8c-0.1,0.1-0.2,0.1-0.2,0
												c0,0,0-0.1,0-0.2l0.4-1.2l-1-0.7c-0.1-0.1-0.1-0.2,0-0.2l0.1-0.1h1.3l0.4-1.2C113.9,82.4,113.9,82.3,114.1,82.4
												C114,82.3,114.1,82.3,114.1,82.4L114.1,82.4z"/>
											<path id="bfc3a73b-599b-4372-b7ae-649746c9e6e1" class="st3" d="M114.1,88.9l0.4,1.2h1.3c0.1,0,0.2,0.1,0.2,0.2
												c0,0,0,0.1-0.1,0.1l-1.1,0.8l0.4,1.2c0,0.1,0,0.2-0.1,0.2c0,0-0.1,0-0.2,0l-1-0.8l-1.1,0.8c-0.1,0.1-0.2,0.1-0.2,0
												c0,0,0-0.1,0-0.2l0.4-1.2l-1.1-0.8c-0.1-0.1-0.1-0.2,0-0.2l0.1-0.1h1.3l0.4-1.2C113.9,88.8,114,88.8,114.1,88.9
												C114.1,88.8,114.1,88.8,114.1,88.9z"/>
											<path id="ae0e2140-8db7-4dc8-8844-3c19e780077e" class="st3" d="M114.1,95.3l0.4,1.2h1.3c0.1,0,0.2,0.1,0.2,0.2l0,0
												c0,0.1,0,0.1-0.1,0.1l-1.1,0.8l0.4,1.2c0,0.1,0,0.2-0.1,0.2l0,0c0,0-0.1,0-0.2,0l-1-0.8l-1.1,0.8c-0.1,0.1-0.2,0-0.2-0.1
												c0,0,0-0.1,0-0.2l0.4-1.2l-1.1-0.8c-0.1-0.1-0.1-0.2,0-0.2l0.1-0.1h1.3l0.4-1.2C113.9,95.3,114,95.2,114.1,95.3
												L114.1,95.3z"/>
											<path id="b10ebfdc-2587-4a72-b55f-480df9531ff5" class="st3" d="M119.1,72.8l0.4,1.2h1.3c0.1,0,0.2,0.1,0.2,0.2l0,0
												c0,0.1,0,0.1-0.1,0.1l-1,0.8l0.4,1.2c0,0.1,0,0.2-0.1,0.2c0,0-0.1,0-0.2,0l-1.1-0.8l-1.1,0.8c-0.1,0.1-0.2,0.1-0.2,0
												c0,0,0-0.1,0-0.2l0.4-1.2l-1-0.8c-0.1-0.1-0.1-0.2,0-0.2l0.1-0.1h1.3l0.4-1.2C118.9,72.7,119,72.7,119.1,72.8
												C119.1,72.7,119.1,72.7,119.1,72.8C119.1,72.7,119.1,72.8,119.1,72.8z"/>
											<path id="b3b9d415-a76b-4bee-9632-e7973a34e8a9" class="st3" d="M119.1,79.2l0.4,1.2h1.3c0.1,0,0.2,0.1,0.2,0.2
												c0,0,0,0.1-0.1,0.1l-1,0.8l0.4,1.2c0,0.1,0,0.2-0.1,0.2c0,0-0.1,0-0.2,0l-1.1-0.8l-1.1,0.7c-0.1,0.1-0.2,0.1-0.2,0
												c0,0,0-0.1,0-0.2l0.4-1.2l-1-0.8c-0.1-0.1-0.1-0.2,0-0.2l0.1-0.1h1.3l0.4-1.2C118.9,79.2,119,79.1,119.1,79.2L119.1,79.2
												z"/>
											<path id="a5f9a39b-2680-48ac-8360-73c360968287" class="st3" d="M119.1,85.7l0.4,1.2h1.3c0.1,0,0.2,0.1,0.2,0.2
												c0,0,0,0.1-0.1,0.1l-1,0.8l0.4,1.2c0,0.1,0,0.2-0.1,0.2c0,0-0.1,0-0.2,0l-1.1-0.8l-1.1,0.8c-0.1,0.1-0.2,0.1-0.2,0
												c0,0,0-0.1,0-0.2L118,88l-1-0.8c-0.1-0.1-0.1-0.2,0-0.2l0.1-0.1h1.3l0.4-1.2C118.8,85.6,118.9,85.6,119.1,85.7
												C119.1,85.6,119.1,85.7,119.1,85.7z"/>
											<path id="e74e60d5-8379-4a48-868c-7da53deb0999" class="st3" d="M119.1,92.2l0.4,1.2h1.3c0.1,0,0.2,0.1,0.2,0.2
												c0,0,0,0.1-0.1,0.1l-1,0.8l0.4,1.2c0,0.1,0,0.2-0.1,0.2c0,0-0.1,0-0.2,0l-1.1-0.8l-1.1,0.8c-0.1,0.1-0.2,0.1-0.2,0
												c0,0,0-0.1,0-0.2l0.3-1.3l-1-0.8c-0.1-0.1-0.1-0.2,0-0.2l0.1-0.1h1.3l0.4-1.2c0-0.1,0.1-0.1,0.2-0.1
												C119.1,92.1,119.1,92.1,119.1,92.2z"/>
											<path id="ba6328b0-44dd-4ffa-ae0c-2aac159382ed" class="st3" d="M119.1,98.6l0.4,1.2h1.3c0.1,0,0.2,0.1,0.2,0.2
												c0,0,0,0.1-0.1,0.1l-1,0.8l0.4,1.2c0,0.1,0,0.2-0.1,0.2c0,0-0.1,0-0.2,0l-1.1-0.8l-1.1,0.8c-0.1,0.1-0.2,0.1-0.2,0
												c0,0,0-0.1,0-0.2l0.3-1.3l-1-0.8c-0.1-0.1-0.1-0.2,0-0.2l0.1-0.1h1.3l0.4-1.2C118.9,98.6,119,98.5,119.1,98.6L119.1,98.6
												L119.1,98.6z"/>
											<path id="e5ae6cc2-4f9a-4230-af0b-ffc427870bee" class="st3" d="M124.1,76l0.4,1.2h1.3c0.1,0,0.2,0.1,0.2,0.2l0,0
												c0,0.1,0,0.1-0.1,0.1l-1,0.8l0.4,1.2c0,0.1,0,0.2-0.1,0.2l0,0c-0.1,0-0.1,0-0.2,0l-1-0.7l-1,0.8c-0.1,0.1-0.2,0.1-0.2,0
												s0-0.1,0-0.2l0.4-1.2l-1.1-0.8c-0.1-0.1-0.1-0.2,0-0.2l0,0l0.1-0.1h1.3l0.4-1.2C123.9,76,124,76,124.1,76
												C124.1,75.9,124.1,75.9,124.1,76z"/>
											<path id="eca47c58-d014-4184-870e-5e1c23e46901" class="st3" d="M124.1,82.4l0.4,1.2h1.3c0.1,0,0.2,0.1,0.2,0.2l0,0
												c0,0.1,0,0.1,0,0.2l-1,0.8l0.3,1.2c0,0.1,0,0.2-0.1,0.2s-0.1,0-0.2,0l-1-0.8l-1,0.8c-0.1,0.1-0.2,0.1-0.2,0
												c0,0,0-0.1,0-0.2l0.4-1.2L122,84c-0.1-0.1-0.1-0.2,0-0.3l0.1-0.1h1.3l0.4-1.2C123.8,82.3,123.9,82.3,124.1,82.4
												C124,82.3,124,82.3,124.1,82.4L124.1,82.4z"/>
											<path id="b4d902ec-4733-46e3-8455-d9bd901b9007" class="st3" d="M124.1,88.9l0.4,1.2h1.3c0.1,0,0.2,0.1,0.2,0.2l0,0
												c0,0,0,0.1-0.1,0.1l-1,0.8l0.4,1.2c0,0.1,0,0.2-0.1,0.2s-0.1,0-0.2,0l-1.1-0.8l-1,0.8c-0.1,0.1-0.2,0.1-0.2,0
												c0,0,0-0.1,0-0.2l0.4-1.2l-1.1-0.8c-0.1-0.1-0.1-0.2,0-0.2l0.1-0.1h1.3l0.4-1.2C123.8,88.8,123.9,88.8,124.1,88.9
												C124.1,88.8,124.1,88.8,124.1,88.9z"/>
											<path id="ed9acd28-3c59-4451-a948-336e35a42030" class="st3" d="M124.1,95.3l0.4,1.2h1.3c0.1,0,0.2,0.1,0.2,0.2l0,0
												c0,0.1,0,0.1-0.1,0.1l-1,0.8l0.4,1.2c0,0.1,0,0.2-0.1,0.2s-0.1,0-0.2,0l-1.1-0.8l-1,0.8c-0.1,0.1-0.2,0-0.2-0.1
												c0,0,0-0.1,0-0.2l0.4-1.2l-1.1-0.8c-0.1-0.1-0.1-0.2,0-0.2l0,0l0.1-0.1h1.3l0.4-1.2C123.9,95.3,124,95.2,124.1,95.3
												L124.1,95.3z"/>
											<path id="afa616d1-9cb4-4910-9974-f5bdd8b068af" class="st3" d="M129.2,72.8l0.4,1.2h1.3c0.1,0,0.2,0.1,0.2,0.2
												c0,0,0,0.1-0.1,0.1l-1,0.8l0.4,1.2c0,0.1,0,0.2-0.1,0.2l0,0h-0.1l-1.1-0.8l-1.1,0.8c-0.1,0.1-0.2,0.1-0.2,0l0,0
												c0,0,0-0.1,0-0.2l0.4-1.2l-1-0.8c-0.1-0.1-0.1-0.2,0-0.2l0.1-0.1h1.3l0.4-1.2C129,72.7,129,72.7,129.2,72.8
												C129.1,72.7,129.1,72.7,129.2,72.8C129.2,72.7,129.2,72.8,129.2,72.8z"/>
											<path id="fa949e45-39fe-4117-b0cb-11446facab12" class="st3" d="M129.2,79.2l0.4,1.2h1.3c0.1,0,0.2,0.1,0.2,0.2
												c0,0,0,0.1-0.1,0.1l-1,0.8l0.4,1.2c0,0.1,0,0.2-0.1,0.2h-0.1l-1.1-0.8l-1.1,0.8c-0.1,0.1-0.2,0.1-0.2,0l0,0
												c0,0,0-0.1,0-0.2l0.4-1.2l-1-0.8c-0.1-0.1-0.1-0.2,0-0.2l0.1-0.1h1.3l0.4-1.2C129,79.2,129.1,79.2,129.2,79.2L129.2,79.2
												z"/>
											<path id="b004188a-f04b-46d1-91f8-1049c42ba00c" class="st3" d="M129.2,85.7l0.4,1.2h1.3c0.1,0,0.2,0.1,0.2,0.2
												c0,0,0,0.1-0.1,0.1l-1,0.8l0.4,1.2c0,0.1,0,0.2-0.1,0.2l0,0h-0.1l-1.1-0.8l-1.1,0.8c-0.1,0.1-0.2,0.1-0.2,0
												c0,0,0-0.1,0-0.2l0.4-1.2l-1-0.8c-0.1-0.1-0.1-0.2,0-0.2l0.1-0.1h1.3l0.4-1.2C129,85.7,129.1,85.6,129.2,85.7L129.2,85.7
												z"/>
											<path id="ab3f1308-a33f-4853-b036-0affa31d52a3" class="st3" d="M129.2,92.2l0.4,1.2h1.3c0.1,0,0.2,0.1,0.2,0.2
												c0,0,0,0.1-0.1,0.1l-1,0.8l0.4,1.2c0,0.1,0,0.2-0.1,0.2l0,0h-0.1l-1.1-0.8l-1.1,0.8c-0.1,0.1-0.2,0.1-0.2,0l0,0
												c0,0,0-0.1,0-0.2l0.4-1.2l-1-0.8c-0.1-0.1-0.1-0.2,0-0.2l0.1-0.1h1.3l0.4-1.2C129,92.1,129.1,92.1,129.2,92.2
												c0.1,0,0.1,0,0.1,0.1L129.2,92.2z"/>
											<path id="a3c6f0d8-22d4-417d-9e52-3d6f2239be60" class="st3" d="M129.2,98.6l0.4,1.2h1.3c0.1,0,0.2,0.1,0.2,0.2
												c0,0,0,0.1-0.1,0.1l-1,0.8l0.4,1.2c0,0.1,0,0.2-0.1,0.2l0,0h-0.1l-1.1-0.8l-1.1,0.8c-0.1,0.1-0.2,0.1-0.2,0l0,0
												c0,0,0-0.1,0-0.2l0.4-1.2l-1-0.8c-0.1-0.1-0.1-0.2,0-0.2l0.1-0.1h1.3l0.4-1.2C129,98.6,129.1,98.6,129.2,98.6L129.2,98.6
												L129.2,98.6z"/>
										</g>
									</g>
									<path id="a5bb28bd-fce2-4a2f-947f-ca6010474945" class="st15" d="M84.7,67.9H132c1.7,0,3.1,1.4,3.1,3.1v90
										c0,1.7-1.4,3.1-3.1,3.1H84.7c-1.7,0-3.1-1.4-3.1-3.1V71C81.6,69.3,82.9,67.9,84.7,67.9z"/>
								</g>
							</g>
						</g>
					</g>
				</g>
			</g>
			<path id="bc8c13f7-82c3-4b1c-9153-27107bcedcee" class="st21" d="M119.6,123.5V123c0-4.5-2.9-8.5-7.2-9.9V109h-7.2v4.1
				c-5.4,1.7-8.5,7.5-6.8,12.9c0,0,0,0,0,0.1l0,0c0.8,2.7,2.7,4.9,5.2,6.1l7,3.5c1.5,0.8,2.2,2.6,1.4,4.1c-0.5,1.1-1.6,1.7-2.8,1.7
				h-1.1c-1.7,0-3.1-1.4-3.1-3.1V138h-7.2v0.5c0,4.5,2.9,8.5,7.2,9.9v4.1h7.2v-4.1c5.4-1.7,8.5-7.5,6.8-12.9l0,0l0,0
				c-0.8-2.7-2.7-4.9-5.2-6.2l-7-3.5c-1.5-0.8-2.1-2.6-1.4-4.1l0,0l0,0c0.5-1,1.6-1.7,2.8-1.7h1c1.7,0,3.1,1.4,3.1,3.1v0.5
				L119.6,123.5z"/>
			<path id="ae25ec81-e971-4a81-b51f-14f4f9f530d6" class="st25" d="M58.2,142.6l4.9-4.9v-22c0-4,3.3-7.3,7.3-7.3l0,0h9.8v9.8
				l6.1-6.1c2.1-1.9,5.4-1.8,7.3,0.3c1.8,2,1.8,5,0,7l-11,11c5.4,5.4,5.4,14.1,0,19.5l0,0l-12.2,12.2L58.2,142.6z"/>
			<path id="ac3d39a2-93e2-4f07-81c0-0ae9f9cede56" class="st26" d="M75.3,119.6l1.4-1.4c1-1,2.5-1,3.4,0l0,0c1,0.9,1,2.5,0,3.4l0,0
				l-1.4,1.4c-1,0.9-2.5,0.9-3.5,0l0,0C74.4,122.1,74.4,120.6,75.3,119.6z"/>
			<path id="e2283673-ec06-4803-ad1e-053dcebe36e2" class="st27" d="M33.8,150.2l19.7-12.5c0.7-0.5,1.7-0.2,2.2,0.5l16.8,26.4
				c0.5,0.7,0.2,1.7-0.5,2.2l-19.7,12.5c-0.7,0.5-1.7,0.2-2.2-0.5l-16.8-26.4C32.9,151.6,33.1,150.6,33.8,150.2z"/>
			<path id="fede1c09-8c63-4187-b2c5-4bed174cf12b" class="st28" d="M54.2,165.4l-1.4-2.2c-0.8-1.2-0.4-2.9,0.8-3.6l0,0l0,0
				c1.2-0.8,2.9-0.4,3.7,0.8l0,0l1.4,2.2c0.8,1.2,0.4,2.8-0.8,3.6l0,0l0,0C56.7,167,55,166.7,54.2,165.4
				C54.2,165.5,54.2,165.5,54.2,165.4L54.2,165.4z"/>
			<path id="edd52e26-9bbf-45ab-827c-50d731ae12ef" class="st29" d="M180.4,97.4l-7.6-28.7c-0.2-0.6-0.8-0.9-1.4-0.8l0,0
				c-0.2,0.1-0.4,0.2-0.6,0.3l-6.6,7.6c-13.4-10.7-31.7-4.1-39.9,5.1l0,0c-0.4,0.5-0.4,1.2,0.1,1.6l0,0c0.5,0.4,1.2,0.3,1.6-0.1l0,0
				c2.1-2.2,19.4-4.2,29.5,3.5l-6.5,7.6c-0.4,0.5-0.4,1.2,0.1,1.6c0.2,0.2,0.4,0.2,0.6,0.3l29.5,3.5c0.6,0.1,1.2-0.4,1.2-1l0,0l0,0
				C180.5,97.7,180.5,97.6,180.4,97.4z"/>
		</g>
		<g>
			<path class="st30" d="M88,205.6c2.1,0,4-0.9,5.3-2.6l2.8,2.9c-3.8,4.5-10.4,5-14.9,1.3c-0.1-0.1-0.3-0.2-0.4-0.4
				c-3.9-4-3.9-10.5,0.1-14.5c1.9-1.9,4.6-3,7.3-2.9c3.1,0,6.1,1.3,8.1,3.7l-2.7,3.1c-1.2-1.6-3.1-2.6-5.2-2.6
				c-1.6,0-3.1,0.5-4.2,1.6c-1.2,1.1-1.8,2.7-1.8,4.3c-0.1,1.6,0.5,3.2,1.7,4.4C85.1,205.1,86.5,205.7,88,205.6z"/>
			<path class="st30" d="M104.7,204.4c0.7,0.9,1.8,1.4,2.9,1.4s2.2-0.5,2.9-1.4c0.8-1.1,1.2-2.4,1.1-3.7v-10.8h4.4v11
				c0.2,2.4-0.7,4.8-2.3,6.5c-3.4,3.1-8.6,3.1-12.1,0c-1.7-1.8-2.5-4.1-2.4-6.5v-11h4.4v10.8C103.5,202.1,103.9,203.4,104.7,204.4z"
				/>
			<path class="st30" d="M134.6,189.9v3.9h-9.7v4h8.8v3.7h-8.8v4.1H135v3.9h-14.5V190L134.6,189.9L134.6,189.9z"/>
			<path class="st30" d="M152.5,189.9h4.4v19.6h-4.4l-9.3-12.3v12.3h-4.4v-19.6h4.1l9.6,12.6L152.5,189.9z"/>
			<path class="st30" d="M170,193.7v15.8h-4.4v-15.8h-5.5v-3.8h15.5v3.8H170z"/>
			<path class="st30" d="M191.3,209.5l-1.8-4.2h-8.2l-1.8,4.2h-4.6l8.5-19.6h4.2l8.4,19.6H191.3z M185.4,195.7l-2.5,5.7h4.9
				L185.4,195.7z"/>
			<path class="st30" d="M94,222.5c1.9,1.9,3,4.5,2.8,7.1c0.1,2.7-0.9,5.3-2.8,7.2c-1.8,1.8-4.6,2.7-8.3,2.7H79v-19.6h6.9
				C89.4,219.9,92.1,220.8,94,222.5z M90.8,234.1c1.1-1.2,1.7-2.8,1.6-4.4c0.1-1.6-0.5-3.2-1.6-4.4c-1.4-1.1-3.2-1.7-4.9-1.6h-2.5
				v11.9h2.8C87.8,235.7,89.5,235.2,90.8,234.1L90.8,234.1z"/>
			<path class="st30" d="M101.4,219.9h4.4v19.6h-4.4V219.9z"/>
			<path class="st30" d="M124.1,229.5h4.4v6.9c-2.1,2.2-5,3.4-8.1,3.2c-2.7,0.1-5.3-1-7.2-2.9c-3.9-4-3.9-10.5,0.1-14.5
				c1.9-1.9,4.5-3,7.2-2.9c2.7,0,5.3,1,7.3,2.8l-2.3,3.3c-0.7-0.7-1.5-1.2-2.4-1.6c-0.8-0.3-1.6-0.4-2.4-0.4c-1.6,0-3.1,0.6-4.2,1.7
				c-2.2,2.5-2.3,6.3-0.1,8.9c1,1.1,2.4,1.7,3.9,1.7c1.3,0,2.6-0.3,3.8-0.9L124.1,229.5z"/>
			<path class="st30" d="M133.2,219.9h4.4v19.6h-4.4V219.9z"/>
			<path class="st30" d="M151.6,223.7v15.8h-4.4v-15.8h-5.5v-3.8h15.4v3.8H151.6z"/>
			<path class="st30" d="M173.6,239.5l-1.8-4.2h-8.2l-1.8,4.2h-4.6l8.5-19.6h4.2l8.5,19.6H173.6z M167.7,225.7l-2.5,5.7h4.9
				L167.7,225.7z"/>
			<path class="st30" d="M181.4,239.5v-19.6h4.4v15.7h8.3v3.9L181.4,239.5L181.4,239.5z"/>
		</g>
	</g>
</g>
</svg>
