<?xml version="1.0" encoding="utf-8"?>
<!-- Generator: Adobe Illustrator 26.0.1, SVG Export Plug-In . SVG Version: 6.00 Build 0)  -->
<svg version="1.1" id="Layer_1" xmlns="http://www.w3.org/2000/svg" xmlns:xlink="http://www.w3.org/1999/xlink" x="0px" y="0px"
	 viewBox="0 0 283.5 283.5" style="enable-background:new 0 0 283.5 283.5;" xml:space="preserve">
<style type="text/css">
	.st0{clip-path:url(#SVGID_00000128472753135245178860000006483541657561507208_);fill:#6DA12F;}
	.st1{clip-path:url(#SVGID_00000128472753135245178860000006483541657561507208_);fill:#F2F3F4;}
	.st2{clip-path:url(#SVGID_00000128472753135245178860000006483541657561507208_);fill:#E93546;}
	.st3{clip-path:url(#SVGID_00000128472753135245178860000006483541657561507208_);fill:#FFC739;}
	.st4{clip-path:url(#SVGID_00000128472753135245178860000006483541657561507208_);fill:#35AE8A;}
	.st5{clip-path:url(#SVGID_00000128472753135245178860000006483541657561507208_);fill:#009CD5;}
	.st6{clip-path:url(#SVGID_00000128472753135245178860000006483541657561507208_);fill:#5F202A;}
	.st7{clip-path:url(#SVGID_00000128472753135245178860000006483541657561507208_);fill:#A7C84D;}
	.st8{clip-path:url(#SVGID_00000128472753135245178860000006483541657561507208_);fill:#73303F;}
	.st9{clip-path:url(#SVGID_00000128472753135245178860000006483541657561507208_);fill:#642C36;}
	.st10{clip-path:url(#SVGID_00000128472753135245178860000006483541657561507208_);fill:#FFD941;}
	.st11{clip-path:url(#SVGID_00000128472753135245178860000006483541657561507208_);fill:#FCA263;}
	.st12{clip-path:url(#SVGID_00000128472753135245178860000006483541657561507208_);fill:#883949;}
	.st13{opacity:0.5;clip-path:url(#SVGID_00000128472753135245178860000006483541657561507208_);}
	.st14{clip-path:url(#SVGID_00000123410432837696876640000008210310675769897917_);}
	.st15{fill:#FFFFFF;}
	.st16{opacity:0.3;}
	.st17{clip-path:url(#SVGID_00000005951009679575591930000013304388458336222895_);}
	.st18{fill:#1A1818;}
	.st19{fill:#FFA419;}
	.st20{fill:#F16322;}
	.st21{fill:#FE9D2B;}
	.st22{fill:#E50019;}
	.st23{fill:#00A1ED;}
	.st24{clip-path:url(#SVGID_00000067915748885801036230000004138706944501209779_);fill:#F2F3F4;}
	.st25{clip-path:url(#SVGID_00000067915748885801036230000004138706944501209779_);fill:#E93546;}
	.st26{clip-path:url(#SVGID_00000067915748885801036230000004138706944501209779_);fill:#22388B;}
	.st27{opacity:0.5;clip-path:url(#SVGID_00000067915748885801036230000004138706944501209779_);}
	.st28{clip-path:url(#SVGID_00000083771247612858779330000017564988517126347661_);}
	.st29{fill:#E7A166;}
	.st30{fill:#C58B59;}
	.st31{fill:#34646C;}
	.st32{fill:#20303F;}
	.st33{fill:#E0007A;}
</style>
<g>
	<g>
		<defs>
			<path id="SVGID_1_" d="M160.4,115.6h105.1c5,0,9.1,4.1,9.1,9.1c0,0,0,0,0,0v59.4c0,5-4.1,9.1-9.1,9.1H160.4c-5,0-9.1-4.1-9.1-9.1
				v-59.4C151.3,119.7,155.4,115.6,160.4,115.6C160.4,115.6,160.4,115.6,160.4,115.6z"/>
		</defs>
		<clipPath id="SVGID_00000158020934295545742660000000812315742566776496_">
			<use xlink:href="#SVGID_1_"  style="overflow:visible;"/>
		</clipPath>
		
			<path id="Path_575_00000062158956138132795950000016404153731577964700_" style="clip-path:url(#SVGID_00000158020934295545742660000000812315742566776496_);fill:#6DA12F;" d="
			M192.5,194.7h-38.8c-1.2,0-2.1-0.9-2.1-2.1l0,0v-76.1c0-1.2,0.9-2.1,2.1-2.1l0,0h38.8V194.7z"/>
		
			<rect id="Rectangle_61_00000130616310320656217480000010742182605488731277_" x="192.5" y="114.3" style="clip-path:url(#SVGID_00000158020934295545742660000000812315742566776496_);fill:#F2F3F4;" width="40.9" height="80.4"/>
		
			<path id="Path_576_00000001659146368550403540000001894214927809634230_" style="clip-path:url(#SVGID_00000158020934295545742660000000812315742566776496_);fill:#E93546;" d="
			M272.2,194.7h-38.8v-80.4h38.8c1.2,0,2.1,0.9,2.1,2.1v76.1C274.3,193.7,273.4,194.7,272.2,194.7L272.2,194.7"/>
		
			<path id="Path_577_00000058588563934566377930000015386687007555172758_" style="clip-path:url(#SVGID_00000158020934295545742660000000812315742566776496_);fill:#FFC739;" d="
			M216.6,156.4l-3.6,1.8v1.8h1.8L216.6,156.4z"/>
		
			<path id="Path_578_00000010300679554755043310000003274769266908146598_" style="clip-path:url(#SVGID_00000158020934295545742660000000812315742566776496_);fill:#35AE8A;" d="
			M213,164.6c-0.5,0-0.9-0.4-0.9-0.9c0,0,0,0,0,0V160c0-0.5,0.4-0.9,0.9-0.9s0.9,0.4,0.9,0.9v3.6C213.9,164.2,213.5,164.6,213,164.6
			C213,164.6,213,164.6,213,164.6"/>
		
			<path id="Path_579_00000156549724166842825550000008922498169217671552_" style="clip-path:url(#SVGID_00000158020934295545742660000000812315742566776496_);fill:#35AE8A;" d="
			M213,160.9c-3.6,0-7.1-1.4-9.7-3.9c-0.4-0.3-0.4-0.9,0-1.3c0.3-0.4,0.9-0.4,1.3,0c4.8,4.5,12.2,4.5,17,0c0.4-0.3,0.9-0.3,1.3,0
			c0.3,0.4,0.3,0.9,0,1.3l0,0C220.1,159.5,216.6,160.9,213,160.9"/>
		
			<path id="Path_580_00000010996832898502749880000015789154513651437726_" style="clip-path:url(#SVGID_00000158020934295545742660000000812315742566776496_);fill:#009CD5;" d="
			M213,164.6c-2.3,0-4.6-0.7-6.5-2l1-1.5c3.4,2.2,7.7,2.2,11.1,0l1,1.5C217.6,163.9,215.3,164.6,213,164.6"/>
		
			<path id="Path_581_00000114046682453505821940000013119059308195031188_" style="clip-path:url(#SVGID_00000158020934295545742660000000812315742566776496_);fill:#5F202A;" d="
			M211.5,152.3l-2,3.1l-0.3,1l5.2-1.2L211.5,152.3z"/>
		
			<path id="Path_582_00000156582886210108139390000017506235311716923560_" style="clip-path:url(#SVGID_00000158020934295545742660000000812315742566776496_);fill:#A7C84D;" d="
			M207.4,157.4c-2.4,0-5.3-2-6.1-6.5l1.8-0.3c0.6,3.8,3,5,4.3,5c0.4,0,0.9-0.2,0.9-0.5c0-0.4,0.1-0.4-0.9-0.8
			c-0.6-0.1-1.1-0.4-1.5-0.8c-1.7-1.9,0.6-3.9,1.7-4.9c0.2-0.2,0.3-0.3,0.3-0.4c-0.2-0.3-0.5-0.4-0.8-0.4c-1.1,0.1-2-0.7-2.3-1.7
			c-0.3-1.1,0.2-2.2,1.2-2.7l0.8,1.6c-0.2,0.2-0.3,0.4-0.3,0.7c0,0.1,0.1,0.3,0.5,0.3c1.1,0,2.1,0.6,2.5,1.6c0.3,0.9,0,1.8-0.7,2.4
			c-1.2,1.1-1.9,1.9-1.5,2.3c0.2,0.1,0.5,0.3,0.7,0.3c0.8,0.3,2.3,0.8,2.1,2.7c-0.1,1.2-1.2,2-2.7,2.1L207.4,157.4"/>
		
			<path id="Path_583_00000020398718454727361640000001413886901638372994_" style="clip-path:url(#SVGID_00000158020934295545742660000000812315742566776496_);fill:#73303F;" d="
			M214.8,147.3c0,0,1.8-3.6-1.8-5.5c0,0,12.8-1.8,10.9,14.6l0,0c-1.2-1-3-2.7-3.6-4.1l-5.5-3.2L214.8,147.3z"/>
		
			<path id="Path_584_00000111191706577425396270000012853139423235605691_" style="clip-path:url(#SVGID_00000158020934295545742660000000812315742566776496_);fill:#5F202A;" d="
			M213,150.9l9.1,5.5l-3.6,1.8l-5.5-5.5V150.9z"/>
		
			<path id="Path_585_00000045620244574426376060000007016477098046891429_" style="clip-path:url(#SVGID_00000158020934295545742660000000812315742566776496_);fill:#642C36;" d="
			M209.3,145.4L209.3,145.4c1,0,1.8,0.8,1.8,1.8v0l0,0c-1.1,1.1-1.4,2.8-0.7,4.1l0.4,0.8c0.2,0.3,0.4,0.7,0.7,0.9l5.1,5.1v-2.5
			c0-3.1-0.7-6.2-2.1-9c-0.9-1.9-2.8-3-4.9-3h-0.3L209.3,145.4L209.3,145.4z"/>
		
			<path id="Path_586_00000083782571940734430720000012759856614033459123_" style="clip-path:url(#SVGID_00000158020934295545742660000000812315742566776496_);fill:#FFC739;" d="
			M209.3,143.6l-1.8,1.8v1.8c0,0,2.2-1.1,2.9-1.5c0.3-0.2,0.5-0.6,0.3-0.9c0-0.1-0.1-0.2-0.2-0.2
			C210.3,144.5,209.3,143.6,209.3,143.6"/>
		
			<path id="Path_587_00000111884820633090147160000006688871243557104054_" style="clip-path:url(#SVGID_00000158020934295545742660000000812315742566776496_);fill:#A7C84D;" d="
			M213,168.2c-8.6,0-15.5-6.9-15.5-15.5h1.8c0,7.6,6.1,13.7,13.7,13.7c7.6,0,13.7-6.1,13.7-13.7l0,0h1.8
			C228.5,161.3,221.5,168.2,213,168.2"/>
		
			<path id="Path_588_00000183212483242997517630000007249580309495845039_" style="clip-path:url(#SVGID_00000158020934295545742660000000812315742566776496_);fill:#FFD941;" d="
			M199.4,156.9c0.7,0,1.2,0.6,1.2,1.2c0,0.7-0.6,1.2-1.2,1.2c-0.7,0-1.2-0.6-1.2-1.2C198.2,157.5,198.7,156.9,199.4,156.9"/>
		
			<path id="Path_589_00000122715205632936649050000013033497887348517782_" style="clip-path:url(#SVGID_00000158020934295545742660000000812315742566776496_);fill:#FFD941;" d="
			M202.1,161.3c0.7,0,1.2,0.6,1.2,1.2s-0.6,1.2-1.2,1.2c-0.7,0-1.2-0.6-1.2-1.2c0,0,0,0,0,0C200.9,161.8,201.5,161.3,202.1,161.3"/>
		
			<path id="Path_590_00000167389587004665368150000007378167882502886047_" style="clip-path:url(#SVGID_00000158020934295545742660000000812315742566776496_);fill:#FFD941;" d="
			M206.6,164.6c0.7,0,1.2,0.6,1.2,1.2c0,0.7-0.6,1.2-1.2,1.2c-0.7,0-1.2-0.6-1.2-1.2C205.3,165.1,205.9,164.6,206.6,164.6"/>
		
			<path id="Path_591_00000100368732251381423410000011883805356673325984_" style="clip-path:url(#SVGID_00000158020934295545742660000000812315742566776496_);fill:#FFD941;" d="
			M226.7,156.9c0.7,0,1.2,0.6,1.2,1.2c0,0.7-0.6,1.2-1.2,1.2c-0.7,0-1.2-0.6-1.2-1.2C225.5,157.5,226,156.9,226.7,156.9
			C226.7,156.9,226.7,156.9,226.7,156.9"/>
		
			<path id="Path_592_00000065040387624614439490000013671806482062122163_" style="clip-path:url(#SVGID_00000158020934295545742660000000812315742566776496_);fill:#FFD941;" d="
			M224,161.3c0.7,0,1.2,0.6,1.2,1.2s-0.6,1.2-1.2,1.2c-0.7,0-1.2-0.6-1.2-1.2c0,0,0,0,0,0C222.7,161.8,223.3,161.3,224,161.3"/>
		
			<path id="Path_593_00000111911108539176564030000004238801662575261832_" style="clip-path:url(#SVGID_00000158020934295545742660000000812315742566776496_);fill:#FFD941;" d="
			M219.5,164.6c0.7,0,1.2,0.6,1.2,1.2c0,0.7-0.6,1.2-1.2,1.2c-0.7,0-1.2-0.6-1.2-1.2C218.3,165.1,218.8,164.6,219.5,164.6"/>
		
			<path id="Path_594_00000016785624021246508790000018164304451275988874_" style="clip-path:url(#SVGID_00000158020934295545742660000000812315742566776496_);fill:#FCA263;" d="
			M213.9,165.5h-1.8c-1,0-1.8-0.8-1.8-1.8c0-1,0.8-1.8,1.8-1.8h1.8c1,0,1.8,0.8,1.8,1.8C215.7,164.7,214.9,165.5,213.9,165.5"/>
		
			<path id="Path_595_00000044880117984026306770000002525675116990620335_" style="clip-path:url(#SVGID_00000158020934295545742660000000812315742566776496_);fill:#883949;" d="
			M220.3,152.3c0.6,1.8,1.9,3.3,3.6,4.1l0,0c1.8-16.4-10.9-14.6-10.9-14.6C222.1,141.8,220.3,152.3,220.3,152.3"/>
		
			<g id="Group_97_00000057843916913333275500000014747005090939136651_" style="opacity:0.5;clip-path:url(#SVGID_00000158020934295545742660000000812315742566776496_);">
			<g id="Group_96_00000119111167946261156670000009214120935252463530_">
				<g>
					<defs>
						<rect id="SVGID_00000056404122976229574130000017713361521991850637_" x="148.6" y="113.3" width="128" height="83.8"/>
					</defs>
					<clipPath id="SVGID_00000071547107097219993080000010015477689106325679_">
						<use xlink:href="#SVGID_00000056404122976229574130000017713361521991850637_"  style="overflow:visible;"/>
					</clipPath>
					
						<g id="Group_95_00000044168603271427061350000003479040696437093047_" style="clip-path:url(#SVGID_00000071547107097219993080000010015477689106325679_);">
						<path id="Path_596_00000008846327528124892210000014288583946944610179_" class="st15" d="M272.3,197.1H152.9
							c-2.4,0-4.3-1.9-4.3-4.3v0v-75.3c0-2.4,1.9-4.3,4.3-4.3c0,0,0,0,0,0h119.4c2.4,0,4.3,1.9,4.3,4.3c0,0,0,0,0,0v75.3
							C276.5,195.2,274.6,197.1,272.3,197.1L272.3,197.1"/>
					</g>
				</g>
			</g>
		</g>
	</g>
	<g>
		<g id="Group_102_00000176020235322133537840000014093772331033793190_" class="st16">
			<g id="Group_101_00000000933740484815657270000007381970243838991802_">
				<g>
					<defs>
						<rect id="SVGID_00000113352640155329412190000000817963936207005070_" x="177.2" y="115.6" width="97.4" height="77.7"/>
					</defs>
					<clipPath id="SVGID_00000106862749310960180740000016655566385633288373_">
						<use xlink:href="#SVGID_00000113352640155329412190000000817963936207005070_"  style="overflow:visible;"/>
					</clipPath>
					
						<g id="Group_100_00000013897313634662866000000003081533721597008533_" style="clip-path:url(#SVGID_00000106862749310960180740000016655566385633288373_);">
						<path id="Path_597_00000145033238915140230830000006809296685942860477_" class="st18" d="M265.5,115.6h-1.8
							c-21.6,38.3-61.9,64.6-86.5,77.7h88.3c5,0,9.1-4.1,9.1-9.1v0v-59.4C274.7,119.7,270.6,115.6,265.5,115.6"/>
					</g>
				</g>
			</g>
		</g>
		
			<rect id="Rectangle_65_00000163794401564911171810000016899804780469168266_" x="159.2" y="125.4" class="st19" width="22.8" height="18.3"/>
		
			<rect id="Rectangle_66_00000089534890056360864300000000469978844405804438_" x="159.2" y="132.3" class="st20" width="6.9" height="4.6"/>
		
			<rect id="Rectangle_67_00000083791675467664371850000008714272646760096431_" x="175.2" y="132.3" class="st20" width="6.9" height="4.6"/>
		<path id="Path_598_00000152951216658652123070000014389953206487652513_" class="st21" d="M259.4,165.9c5.4,0,9.8,4.4,9.8,9.8
			c0,5.4-4.4,9.8-9.8,9.8c-5.4,0-9.8-4.4-9.8-9.8c0,0,0,0,0,0C249.6,170.3,254,165.9,259.4,165.9"/>
		<path id="Path_599_00000008119971404740744030000002843317682399302312_" class="st22" d="M247.7,165.9c5.4,0,9.8,4.4,9.8,9.8
			c0,5.4-4.4,9.8-9.8,9.8c-5.4,0-9.8-4.4-9.8-9.8c0,0,0,0,0,0C237.9,170.3,242.3,165.9,247.7,165.9"/>
		
			<rect id="Rectangle_68_00000000185082201991680120000017064307143919360413_" x="160.4" y="170.8" class="st18" width="13.7" height="4.6"/>
		
			<rect id="Rectangle_69_00000132775141898182861810000001736272687061281425_" x="183.3" y="170.8" class="st18" width="13.7" height="4.6"/>
		
			<rect id="Rectangle_70_00000137819761866871162210000015094790268041171106_" x="206.1" y="170.8" class="st18" width="13.7" height="4.6"/>
		
			<rect id="Rectangle_71_00000012450231109465244050000014730829790420167349_" x="160.4" y="181" class="st18" width="59.4" height="4.6"/>
		
			<rect id="Rectangle_72_00000084528268753950074150000010680712439451221419_" x="236" y="125.9" class="st18" width="4.6" height="9.1"/>
		
			<rect id="Rectangle_73_00000076586024773853351900000012193613287492695692_" x="245.1" y="125.9" class="st18" width="4.6" height="9.1"/>
		
			<rect id="Rectangle_74_00000158000606194037158580000008779649098620042426_" x="254.3" y="125.9" class="st18" width="4.6" height="9.1"/>
		
			<rect id="Rectangle_75_00000063592278320366866650000005317765589737552560_" x="263.4" y="125.9" class="st18" width="4.6" height="9.1"/>
		<path id="Path_600_00000177471846904623315490000007654351805251163806_" class="st23" d="M77.5,64.4h50.6c7,0,12.6,5.7,12.6,12.6
			c0,0,0,0,0,0v107.5c0,7-5.7,12.6-12.6,12.6l0,0H77.5c-7,0-12.6-5.7-12.6-12.6c0,0,0,0,0,0V77C64.9,70,70.5,64.4,77.5,64.4
			L77.5,64.4"/>
	</g>
	<g>
		<defs>
			<path id="SVGID_00000023969733395209045830000013274478327522697389_" d="M77.5,70.7h50.6c3.5,0,6.3,2.8,6.3,6.3c0,0,0,0,0,0
				v107.5c0,3.5-2.8,6.3-6.3,6.3H77.5c-3.5,0-6.3-2.8-6.3-6.3c0,0,0,0,0,0V77C71.2,73.5,74,70.7,77.5,70.7z"/>
		</defs>
		<clipPath id="SVGID_00000170993222037402600300000000920187709094584242_">
			<use xlink:href="#SVGID_00000023969733395209045830000013274478327522697389_"  style="overflow:visible;"/>
		</clipPath>
		
			<path id="Path_601_00000072992068682453956560000003600871345788670904_" style="clip-path:url(#SVGID_00000170993222037402600300000000920187709094584242_);fill:#F2F3F4;" d="
			M256.1,193.3H73.8c-1.8,0-3.3-1.5-3.3-3.3V72.8c0-1.8,1.5-3.3,3.3-3.3h182.3c1.8,0,3.3,1.5,3.3,3.3V190
			C259.3,191.8,257.9,193.3,256.1,193.3"/>
		
			<path id="Path_602_00000106139902101908487660000006077409405428808840_" style="clip-path:url(#SVGID_00000170993222037402600300000000920187709094584242_);fill:#E93546;" d="
			M259.3,79.1H70.6v-6.3c0-1.8,1.5-3.3,3.3-3.3h182.2c1.8,0,3.3,1.5,3.3,3.3L259.3,79.1z"/>
		
			<rect id="Rectangle_77_00000033336171133409678780000000431326382411199879_" x="70.6" y="107.6" style="clip-path:url(#SVGID_00000170993222037402600300000000920187709094584242_);fill:#E93546;" width="188.8" height="9.5"/>
		
			<rect id="Rectangle_78_00000183946282398160300230000004962447250928861113_" x="70.6" y="88.6" style="clip-path:url(#SVGID_00000170993222037402600300000000920187709094584242_);fill:#E93546;" width="188.8" height="9.5"/>
		
			<path id="Path_603_00000178921994311313721840000015893722578366705807_" style="clip-path:url(#SVGID_00000170993222037402600300000000920187709094584242_);fill:#E93546;" d="
			M259.3,136.2H73.8c-1.8,0-3.3-1.5-3.3-3.3v-6.3h188.8L259.3,136.2z"/>
		
			<rect id="Rectangle_79_00000108267104689441389940000013004370430535653766_" x="70.6" y="164.7" style="clip-path:url(#SVGID_00000170993222037402600300000000920187709094584242_);fill:#E93546;" width="188.8" height="9.5"/>
		
			<path id="Path_604_00000040537028713365288200000013170876363956906406_" style="clip-path:url(#SVGID_00000170993222037402600300000000920187709094584242_);fill:#E93546;" d="
			M256.1,193.3H73.8c-1.8,0-3.3-1.5-3.3-3.3v-6.3h188.8v6.3C259.3,191.8,257.9,193.3,256.1,193.3L256.1,193.3"/>
		
			<rect id="Rectangle_80_00000052795146564307920760000018343012045194795929_" x="70.6" y="145.7" style="clip-path:url(#SVGID_00000170993222037402600300000000920187709094584242_);fill:#E93546;" width="188.8" height="9.5"/>
		
			<path id="Path_605_00000044163758348698159730000005929625259028363161_" style="clip-path:url(#SVGID_00000170993222037402600300000000920187709094584242_);fill:#22388B;" d="
			M133.2,69.6H73c-1.3,0-2.4,1.1-2.4,2.4v44.5c0,1.3,1.1,2.4,2.4,2.4l0,0h60.3c1.3,0,2.4-1.1,2.4-2.4l0,0V72
			C135.6,70.7,134.6,69.6,133.2,69.6"/>
		
			<path id="Path_606_00000139253397703596135580000011912117309506316440_" style="clip-path:url(#SVGID_00000170993222037402600300000000920187709094584242_);fill:#F2F3F4;" d="
			M77.3,75.1l0.5,1.6l1.7,0c0.1,0,0.2,0.1,0.2,0.2c0,0.1,0,0.1-0.1,0.2l-1.4,1l0.5,1.6c0,0.1,0,0.2-0.1,0.3c-0.1,0-0.1,0-0.2,0
			l-1.4-1l-1.4,1c-0.1,0.1-0.2,0-0.3-0.1c0-0.1-0.1-0.1,0-0.2l0.5-1.6l-1.4-1c-0.1-0.1-0.1-0.2,0-0.3c0-0.1,0.1-0.1,0.2-0.1l1.7,0
			l0.5-1.6c0-0.1,0.2-0.2,0.3-0.1C77.3,75,77.3,75,77.3,75.1"/>
		
			<path id="Path_607_00000119115710793805504970000006359465379122753961_" style="clip-path:url(#SVGID_00000170993222037402600300000000920187709094584242_);fill:#F2F3F4;" d="
			M77.3,83.5l0.5,1.6l1.7,0c0.1,0,0.2,0.1,0.2,0.2c0,0.1,0,0.1-0.1,0.2l-1.4,1l0.5,1.6c0,0.1,0,0.2-0.1,0.3c-0.1,0-0.1,0-0.2,0
			l-1.4-1l-1.4,1c-0.1,0.1-0.2,0.1-0.3-0.1c0-0.1-0.1-0.1,0-0.2l0.5-1.6l-1.4-1c-0.1-0.1-0.1-0.2,0-0.3c0-0.1,0.1-0.1,0.2-0.1l1.7,0
			l0.5-1.6c0-0.1,0.2-0.2,0.3-0.1C77.3,83.4,77.3,83.4,77.3,83.5"/>
		
			<path id="Path_608_00000155131038905484935110000013606128973771861907_" style="clip-path:url(#SVGID_00000170993222037402600300000000920187709094584242_);fill:#F2F3F4;" d="
			M77.3,91.9l0.5,1.6l1.7,0c0.1,0,0.2,0.1,0.2,0.2c0,0.1,0,0.1-0.1,0.2l-1.4,1l0.5,1.6c0,0.1,0,0.2-0.1,0.3c-0.1,0-0.1,0-0.2,0
			l-1.4-1l-1.4,1c-0.1,0.1-0.2,0-0.3-0.1c0-0.1-0.1-0.1,0-0.2l0.5-1.6l-1.4-1c-0.1-0.1-0.1-0.2,0-0.3c0-0.1,0.1-0.1,0.2-0.1l1.7,0
			l0.5-1.6c0-0.1,0.2-0.2,0.3-0.1C77.3,91.7,77.3,91.8,77.3,91.9"/>
		
			<path id="Path_609_00000116949936550513337520000006929431387250779798_" style="clip-path:url(#SVGID_00000170993222037402600300000000920187709094584242_);fill:#F2F3F4;" d="
			M77.3,100.2l0.5,1.6l1.7,0c0.1,0,0.2,0.1,0.2,0.2c0,0.1,0,0.1-0.1,0.2l-1.4,1l0.5,1.6c0,0.1,0,0.2-0.1,0.3c-0.1,0-0.1,0-0.2,0
			l-1.4-1l-1.4,1c-0.1,0.1-0.2,0-0.3-0.1c0-0.1-0.1-0.1,0-0.2l0.5-1.6l-1.4-1c-0.1-0.1-0.1-0.2,0-0.3c0-0.1,0.1-0.1,0.2-0.1l1.7,0
			l0.5-1.6c0-0.1,0.2-0.2,0.3-0.1C77.3,100.1,77.3,100.2,77.3,100.2"/>
		
			<path id="Path_610_00000046335838379214282420000003900659629408702861_" style="clip-path:url(#SVGID_00000170993222037402600300000000920187709094584242_);fill:#F2F3F4;" d="
			M77.3,108.6l0.5,1.6l1.7,0c0.1,0,0.2,0.1,0.2,0.2c0,0.1,0,0.1-0.1,0.2l-1.4,1l0.5,1.6c0,0.1,0,0.2-0.1,0.3c-0.1,0-0.1,0-0.2,0
			l-1.4-1l-1.4,1c-0.1,0.1-0.2,0-0.3-0.1c0-0.1-0.1-0.1,0-0.2l0.5-1.6l-1.4-1c-0.1-0.1-0.1-0.2,0-0.3c0-0.1,0.1-0.1,0.2-0.1l1.7,0
			l0.5-1.6c0-0.1,0.2-0.2,0.3-0.1C77.3,108.5,77.3,108.5,77.3,108.6"/>
		
			<path id="Path_611_00000149384396681354910980000017264486838468394650_" style="clip-path:url(#SVGID_00000170993222037402600300000000920187709094584242_);fill:#F2F3F4;" d="
			M83.8,79.2l0.5,1.6l1.7,0c0.1,0,0.2,0.1,0.2,0.2c0,0.1,0,0.1-0.1,0.2l-1.4,1l0.5,1.6c0,0.1,0,0.2-0.1,0.3c-0.1,0-0.1,0-0.2,0
			l-1.4-1l-1.4,1c-0.1,0.1-0.2,0-0.3-0.1c0-0.1-0.1-0.1,0-0.2l0.5-1.6l-1.4-1c-0.1-0.1-0.1-0.2,0-0.3c0-0.1,0.1-0.1,0.2-0.1l1.7,0
			l0.5-1.6c0-0.1,0.2-0.2,0.3-0.1C83.8,79.1,83.8,79.2,83.8,79.2"/>
		
			<path id="Path_612_00000033367674932698302590000010098299010514080947_" style="clip-path:url(#SVGID_00000170993222037402600300000000920187709094584242_);fill:#F2F3F4;" d="
			M83.8,87.6l0.5,1.6l1.7,0c0.1,0,0.2,0.1,0.2,0.2c0,0.1,0,0.1-0.1,0.2l-1.4,1l0.5,1.6c0,0.1,0,0.2-0.2,0.3c-0.1,0-0.1,0-0.2,0
			l-1.4-1l-1.4,1c-0.1,0.1-0.2,0.1-0.3-0.1c0-0.1-0.1-0.1,0-0.2l0.5-1.6l-1.4-1c-0.1-0.1-0.1-0.2,0-0.3c0-0.1,0.1-0.1,0.2-0.1l1.7,0
			l0.5-1.6c0-0.1,0.2-0.2,0.3-0.1C83.8,87.5,83.8,87.5,83.8,87.6"/>
		
			<path id="Path_613_00000072983219126446126450000002386261354899655572_" style="clip-path:url(#SVGID_00000170993222037402600300000000920187709094584242_);fill:#F2F3F4;" d="
			M83.8,96l0.5,1.6l1.7,0c0.1,0,0.2,0.1,0.2,0.2c0,0.1,0,0.1-0.1,0.2l-1.4,1l0.5,1.6c0,0.1,0,0.2-0.1,0.3c-0.1,0-0.1,0-0.2,0l-1.4-1
			l-1.4,1c-0.1,0.1-0.2,0-0.3-0.1c0-0.1-0.1-0.1,0-0.2l0.5-1.6L81,98c-0.1-0.1-0.1-0.2,0-0.3c0-0.1,0.1-0.1,0.2-0.1l1.7,0l0.5-1.6
			c0-0.1,0.2-0.2,0.3-0.1C83.8,95.8,83.8,95.9,83.8,96"/>
		
			<path id="Path_614_00000096042500937554850350000001787077558486776495_" style="clip-path:url(#SVGID_00000170993222037402600300000000920187709094584242_);fill:#F2F3F4;" d="
			M83.8,104.3l0.5,1.6l1.7,0c0.1,0,0.2,0.1,0.2,0.2c0,0.1,0,0.1-0.1,0.2l-1.4,1l0.5,1.6c0,0.1,0,0.2-0.1,0.3c-0.1,0-0.1,0-0.2,0
			l-1.4-1l-1.4,1c-0.1,0.1-0.2,0-0.3-0.1c0-0.1-0.1-0.1,0-0.2l0.5-1.6l-1.4-1c-0.1-0.1-0.1-0.2,0-0.3c0-0.1,0.1-0.1,0.2-0.1l1.7,0
			l0.5-1.6c0-0.1,0.2-0.2,0.3-0.1C83.8,104.2,83.8,104.3,83.8,104.3"/>
		
			<path id="Path_615_00000104665906958859154830000001815692162919695027_" style="clip-path:url(#SVGID_00000170993222037402600300000000920187709094584242_);fill:#F2F3F4;" d="
			M90.3,75.1l0.5,1.6l1.7,0c0.1,0,0.2,0.1,0.2,0.2c0,0.1,0,0.1-0.1,0.2l-1.4,1l0.5,1.6c0,0.1,0,0.2-0.1,0.3c-0.1,0-0.1,0-0.2,0
			l-1.4-1l-1.4,1c-0.1,0.1-0.2,0-0.3-0.1c0-0.1-0.1-0.1,0-0.2l0.5-1.6l-1.4-1c-0.1-0.1-0.1-0.2,0-0.3c0-0.1,0.1-0.1,0.2-0.1l1.7,0
			l0.5-1.6c0-0.1,0.2-0.2,0.3-0.1C90.2,75,90.3,75.1,90.3,75.1"/>
		
			<path id="Path_616_00000183927497361536044210000004947401353261157309_" style="clip-path:url(#SVGID_00000170993222037402600300000000920187709094584242_);fill:#F2F3F4;" d="
			M90.3,83.5l0.5,1.6l1.7,0c0.1,0,0.2,0.1,0.2,0.2c0,0.1,0,0.1-0.1,0.2l-1.4,1l0.5,1.6c0,0.1,0,0.2-0.2,0.3c-0.1,0-0.1,0-0.2,0
			l-1.4-1l-1.4,1c-0.1,0.1-0.2,0-0.3-0.1c0-0.1-0.1-0.1,0-0.2l0.5-1.6l-1.4-1c-0.1-0.1-0.1-0.2,0-0.3c0-0.1,0.1-0.1,0.2-0.1l1.7,0
			l0.5-1.6c0-0.1,0.2-0.2,0.3-0.1C90.2,83.4,90.3,83.4,90.3,83.5"/>
		
			<path id="Path_617_00000104692912389931764340000017174996060407026070_" style="clip-path:url(#SVGID_00000170993222037402600300000000920187709094584242_);fill:#F2F3F4;" d="
			M90.3,91.9l0.5,1.6l1.7,0c0.1,0,0.2,0.1,0.2,0.2c0,0.1,0,0.1-0.1,0.2l-1.4,1l0.5,1.6c0,0.1,0,0.2-0.1,0.3c-0.1,0-0.1,0-0.2,0
			l-1.4-1l-1.4,1c-0.1,0.1-0.2,0-0.3-0.1c0-0.1-0.1-0.1,0-0.2l0.5-1.6l-1.4-1c-0.1-0.1-0.1-0.2,0-0.3c0-0.1,0.1-0.1,0.2-0.1l1.7,0
			l0.5-1.6c0-0.1,0.2-0.2,0.3-0.1C90.2,91.7,90.3,91.8,90.3,91.9"/>
		
			<path id="Path_618_00000005240969745363522200000001848610961117213592_" style="clip-path:url(#SVGID_00000170993222037402600300000000920187709094584242_);fill:#F2F3F4;" d="
			M90.3,100.2l0.5,1.6l1.7,0c0.1,0,0.2,0.1,0.2,0.2c0,0.1,0,0.1-0.1,0.2l-1.4,1l0.5,1.6c0,0.1,0,0.2-0.2,0.3c-0.1,0-0.1,0-0.2,0
			l-1.4-1l-1.4,1c-0.1,0.1-0.2,0-0.3-0.1c0-0.1-0.1-0.1,0-0.2l0.5-1.6l-1.4-1c-0.1-0.1-0.1-0.2,0-0.3c0-0.1,0.1-0.1,0.2-0.1l1.7,0
			l0.5-1.6c0-0.1,0.2-0.2,0.3-0.1C90.2,100.1,90.3,100.2,90.3,100.2"/>
		
			<path id="Path_619_00000047742878146118588260000012964215884276621976_" style="clip-path:url(#SVGID_00000170993222037402600300000000920187709094584242_);fill:#F2F3F4;" d="
			M90.3,108.6l0.5,1.6l1.7,0c0.1,0,0.2,0.1,0.2,0.2c0,0.1,0,0.1-0.1,0.2l-1.4,1l0.5,1.6c0,0.1,0,0.2-0.1,0.3c-0.1,0-0.1,0-0.2,0
			l-1.4-1l-1.4,1c-0.1,0.1-0.2,0-0.3-0.1c0-0.1-0.1-0.1,0-0.2l0.5-1.6l-1.4-1c-0.1-0.1-0.1-0.2,0-0.3c0-0.1,0.1-0.1,0.2-0.1l1.7,0
			l0.5-1.6c0-0.1,0.2-0.2,0.3-0.1C90.2,108.5,90.3,108.5,90.3,108.6"/>
		
			<path id="Path_620_00000182486474904864430260000003494735152521159329_" style="clip-path:url(#SVGID_00000170993222037402600300000000920187709094584242_);fill:#F2F3F4;" d="
			M96.8,79.2l0.5,1.6l1.7,0c0.1,0,0.2,0.1,0.2,0.2c0,0.1,0,0.1-0.1,0.2l-1.4,1l0.5,1.6c0,0.1,0,0.2-0.1,0.3c-0.1,0-0.1,0-0.2,0
			l-1.4-1l-1.4,1c-0.1,0.1-0.2,0-0.3-0.1c0-0.1-0.1-0.1,0-0.2l0.5-1.6l-1.4-1c-0.1-0.1-0.1-0.2,0-0.3c0-0.1,0.1-0.1,0.2-0.1l1.7,0
			l0.5-1.6c0-0.1,0.2-0.2,0.3-0.1C96.7,79.1,96.8,79.2,96.8,79.2"/>
		
			<path id="Path_621_00000168116694387263537900000011105495680444640700_" style="clip-path:url(#SVGID_00000170993222037402600300000000920187709094584242_);fill:#F2F3F4;" d="
			M96.8,87.6l0.5,1.6l1.7,0c0.1,0,0.2,0.1,0.2,0.2c0,0.1,0,0.1-0.1,0.2l-1.4,1l0.5,1.6c0,0.1,0,0.2-0.1,0.3c-0.1,0-0.1,0-0.2,0
			l-1.4-1l-1.4,1c-0.1,0.1-0.2,0-0.3-0.1c0-0.1-0.1-0.1,0-0.2l0.5-1.6l-1.4-1c-0.1-0.1-0.1-0.2,0-0.3c0-0.1,0.1-0.1,0.2-0.1l1.7,0
			l0.5-1.6c0-0.1,0.2-0.2,0.3-0.1C96.7,87.5,96.8,87.5,96.8,87.6"/>
		
			<path id="Path_622_00000009589179456750727100000004467843352296967854_" style="clip-path:url(#SVGID_00000170993222037402600300000000920187709094584242_);fill:#F2F3F4;" d="
			M96.8,96l0.5,1.6l1.7,0c0.1,0,0.2,0.1,0.2,0.2c0,0.1,0,0.1-0.1,0.2l-1.4,1l0.5,1.6c0,0.1,0,0.2-0.1,0.3c-0.1,0-0.1,0-0.2,0l-1.4-1
			l-1.4,1c-0.1,0.1-0.2,0-0.3-0.1c0-0.1-0.1-0.1,0-0.2l0.5-1.6L94,98c-0.1-0.1-0.1-0.2,0-0.3c0-0.1,0.1-0.1,0.2-0.1l1.7,0l0.5-1.6
			c0-0.1,0.2-0.2,0.3-0.1C96.7,95.8,96.8,95.9,96.8,96"/>
		
			<path id="Path_623_00000121254101640309952440000008552826737451552166_" style="clip-path:url(#SVGID_00000170993222037402600300000000920187709094584242_);fill:#F2F3F4;" d="
			M96.8,104.3l0.5,1.6l1.7,0c0.1,0,0.2,0.1,0.2,0.2c0,0.1,0,0.1-0.1,0.2l-1.4,1l0.5,1.6c0,0.1,0,0.2-0.1,0.3c-0.1,0-0.1,0-0.2,0
			l-1.4-1l-1.4,1c-0.1,0.1-0.2,0-0.3-0.1c0-0.1-0.1-0.1,0-0.2l0.5-1.6l-1.4-1c-0.1-0.1-0.1-0.2,0-0.3c0-0.1,0.1-0.1,0.2-0.1l1.7,0
			l0.5-1.6c0-0.1,0.2-0.2,0.3-0.1C96.7,104.2,96.8,104.3,96.8,104.3"/>
		
			<path id="Path_624_00000128483191599174620430000018413714950224867767_" style="clip-path:url(#SVGID_00000170993222037402600300000000920187709094584242_);fill:#F2F3F4;" d="
			M103.3,75.1l0.5,1.6l1.7,0c0.1,0,0.2,0.1,0.2,0.2c0,0.1,0,0.1-0.1,0.2l-1.4,1l0.5,1.6c0,0.1,0,0.2-0.1,0.3c-0.1,0-0.1,0-0.2,0
			l-1.4-1l-1.4,1c-0.1,0.1-0.2,0-0.3-0.1c0-0.1-0.1-0.1,0-0.2l0.5-1.6l-1.4-1c-0.1-0.1-0.1-0.2,0-0.3c0-0.1,0.1-0.1,0.2-0.1l1.7,0
			l0.5-1.6c0-0.1,0.2-0.2,0.3-0.1C103.2,75,103.3,75.1,103.3,75.1"/>
		
			<path id="Path_625_00000029728094024030842410000004865120049527035306_" style="clip-path:url(#SVGID_00000170993222037402600300000000920187709094584242_);fill:#F2F3F4;" d="
			M103.3,83.5l0.5,1.6l1.7,0c0.1,0,0.2,0.1,0.2,0.2c0,0.1,0,0.1-0.1,0.2l-1.4,1l0.5,1.6c0,0.1,0,0.2-0.1,0.3c-0.1,0-0.1,0-0.2,0
			l-1.4-1l-1.4,1c-0.1,0.1-0.2,0-0.3-0.1c0-0.1-0.1-0.1,0-0.2l0.5-1.6l-1.4-1c-0.1-0.1-0.1-0.2,0-0.3c0-0.1,0.1-0.1,0.2-0.1l1.7,0
			l0.5-1.6c0-0.1,0.2-0.2,0.3-0.1C103.2,83.4,103.3,83.4,103.3,83.5"/>
		
			<path id="Path_626_00000118390206574542548360000010176628955251823757_" style="clip-path:url(#SVGID_00000170993222037402600300000000920187709094584242_);fill:#F2F3F4;" d="
			M103.3,91.9l0.5,1.6l1.7,0c0.1,0,0.2,0.1,0.2,0.2c0,0.1,0,0.1-0.1,0.2l-1.4,1l0.5,1.6c0,0.1,0,0.2-0.1,0.3c-0.1,0-0.1,0-0.2,0
			l-1.4-1l-1.4,1c-0.1,0.1-0.2,0-0.3-0.1c0-0.1-0.1-0.1,0-0.2l0.5-1.6l-1.4-1c-0.1-0.1-0.1-0.2,0-0.3c0-0.1,0.1-0.1,0.2-0.1l1.7,0
			l0.5-1.6c0-0.1,0.2-0.2,0.3-0.1C103.2,91.7,103.3,91.8,103.3,91.9"/>
		
			<path id="Path_627_00000109023839532636654500000013555629823453990298_" style="clip-path:url(#SVGID_00000170993222037402600300000000920187709094584242_);fill:#F2F3F4;" d="
			M103.3,100.2l0.5,1.6l1.7,0c0.1,0,0.2,0.1,0.2,0.2c0,0.1,0,0.1-0.1,0.2l-1.4,1l0.5,1.6c0,0.1,0,0.2-0.1,0.3c-0.1,0-0.1,0-0.2,0
			l-1.4-1l-1.4,1c-0.1,0.1-0.2,0-0.3-0.1c0-0.1-0.1-0.1,0-0.2l0.5-1.6l-1.4-1c-0.1-0.1-0.1-0.2,0-0.3c0-0.1,0.1-0.1,0.2-0.1l1.7,0
			l0.5-1.6c0-0.1,0.2-0.2,0.3-0.1C103.2,100.1,103.3,100.2,103.3,100.2"/>
		
			<path id="Path_628_00000094597363362751691870000014757761958676431508_" style="clip-path:url(#SVGID_00000170993222037402600300000000920187709094584242_);fill:#F2F3F4;" d="
			M103.3,108.6l0.5,1.6l1.7,0c0.1,0,0.2,0.1,0.2,0.2c0,0.1,0,0.1-0.1,0.2l-1.4,1l0.5,1.6c0,0.1,0,0.2-0.1,0.3c-0.1,0-0.1,0-0.2,0
			l-1.4-1l-1.4,1c-0.1,0.1-0.2,0-0.3-0.1c0-0.1-0.1-0.1,0-0.2l0.5-1.6l-1.4-1c-0.1-0.1-0.1-0.2,0-0.3c0-0.1,0.1-0.1,0.2-0.1l1.7,0
			l0.5-1.6c0-0.1,0.2-0.2,0.3-0.1C103.2,108.5,103.3,108.5,103.3,108.6"/>
		
			<path id="Path_629_00000021117508919661638190000014110943321324603318_" style="clip-path:url(#SVGID_00000170993222037402600300000000920187709094584242_);fill:#F2F3F4;" d="
			M109.8,79.2l0.5,1.6l1.7,0c0.1,0,0.2,0.1,0.2,0.2c0,0.1,0,0.1-0.1,0.2l-1.4,1l0.5,1.6c0,0.1,0,0.2-0.1,0.3c-0.1,0-0.1,0-0.2,0
			l-1.4-1l-1.4,1c-0.1,0.1-0.2,0-0.3-0.1c0-0.1-0.1-0.1,0-0.2l0.5-1.6l-1.4-1c-0.1-0.1-0.1-0.2,0-0.3c0-0.1,0.1-0.1,0.2-0.1l1.7,0
			l0.5-1.6c0-0.1,0.2-0.2,0.3-0.1C109.7,79.1,109.8,79.2,109.8,79.2"/>
		
			<path id="Path_630_00000001665558475218122120000009505085906840549548_" style="clip-path:url(#SVGID_00000170993222037402600300000000920187709094584242_);fill:#F2F3F4;" d="
			M109.8,87.6l0.5,1.6l1.7,0c0.1,0,0.2,0.1,0.2,0.2c0,0.1,0,0.1-0.1,0.2l-1.4,1l0.5,1.6c0,0.1,0,0.2-0.1,0.3c-0.1,0-0.1,0-0.2,0
			l-1.4-1l-1.4,1c-0.1,0.1-0.2,0.1-0.3-0.1c0-0.1-0.1-0.1,0-0.2l0.5-1.6l-1.4-1c-0.1-0.1-0.1-0.2,0-0.3c0-0.1,0.1-0.1,0.2-0.1l1.7,0
			l0.5-1.6c0-0.1,0.2-0.2,0.3-0.1C109.7,87.5,109.8,87.5,109.8,87.6"/>
		
			<path id="Path_631_00000002346731921572356600000010548672593277874314_" style="clip-path:url(#SVGID_00000170993222037402600300000000920187709094584242_);fill:#F2F3F4;" d="
			M109.8,96l0.5,1.6l1.7,0c0.1,0,0.2,0.1,0.2,0.2c0,0.1,0,0.1-0.1,0.2l-1.4,1l0.5,1.6c0,0.1,0,0.2-0.1,0.3c-0.1,0-0.1,0-0.2,0
			l-1.4-1l-1.4,1c-0.1,0.1-0.2,0-0.3-0.1c0-0.1-0.1-0.1,0-0.2l0.5-1.6l-1.4-1c-0.1-0.1-0.1-0.2,0-0.3c0-0.1,0.1-0.1,0.2-0.1l1.7,0
			l0.5-1.6c0-0.1,0.2-0.2,0.3-0.1C109.7,95.8,109.8,95.9,109.8,96"/>
		
			<path id="Path_632_00000135682575900401367760000011200081851625570971_" style="clip-path:url(#SVGID_00000170993222037402600300000000920187709094584242_);fill:#F2F3F4;" d="
			M109.8,104.3l0.5,1.6l1.7,0c0.1,0,0.2,0.1,0.2,0.2c0,0.1,0,0.1-0.1,0.2l-1.4,1l0.5,1.6c0,0.1,0,0.2-0.1,0.3c-0.1,0-0.1,0-0.2,0
			l-1.4-1l-1.4,1c-0.1,0.1-0.2,0-0.3-0.1c0-0.1-0.1-0.1,0-0.2l0.5-1.6l-1.4-1c-0.1-0.1-0.1-0.2,0-0.3c0-0.1,0.1-0.1,0.2-0.1l1.7,0
			l0.5-1.6c0-0.1,0.2-0.2,0.3-0.1C109.7,104.2,109.8,104.3,109.8,104.3"/>
		
			<path id="Path_633_00000047745760160821800250000001459759632883888014_" style="clip-path:url(#SVGID_00000170993222037402600300000000920187709094584242_);fill:#F2F3F4;" d="
			M116.3,75.1l0.5,1.6l1.7,0c0.1,0,0.2,0.1,0.2,0.2c0,0.1,0,0.1-0.1,0.2l-1.4,1l0.5,1.6c0,0.1,0,0.2-0.1,0.3c-0.1,0-0.1,0-0.2,0
			l-1.4-1l-1.4,1c-0.1,0.1-0.2,0-0.3-0.1c0-0.1-0.1-0.1,0-0.2l0.5-1.6l-1.4-1c-0.1-0.1-0.1-0.2,0-0.3c0-0.1,0.1-0.1,0.2-0.1l1.7,0
			l0.5-1.6c0-0.1,0.2-0.2,0.3-0.1C116.2,75,116.3,75.1,116.3,75.1"/>
		
			<path id="Path_634_00000055679768826781990920000012108274831799639436_" style="clip-path:url(#SVGID_00000170993222037402600300000000920187709094584242_);fill:#F2F3F4;" d="
			M116.3,83.5l0.5,1.6l1.7,0c0.1,0,0.2,0.1,0.2,0.2c0,0.1,0,0.1-0.1,0.2l-1.4,1l0.5,1.6c0,0.1,0,0.2-0.2,0.3c-0.1,0-0.1,0-0.2,0
			l-1.4-1l-1.4,1c-0.1,0.1-0.2,0-0.3-0.1c0-0.1-0.1-0.1,0-0.2l0.5-1.6l-1.4-1c-0.1-0.1-0.1-0.2,0-0.3c0-0.1,0.1-0.1,0.2-0.1l1.7,0
			l0.5-1.6c0-0.1,0.2-0.2,0.3-0.1C116.2,83.4,116.3,83.4,116.3,83.5"/>
		
			<path id="Path_635_00000052063870681811706190000012613295363297822360_" style="clip-path:url(#SVGID_00000170993222037402600300000000920187709094584242_);fill:#F2F3F4;" d="
			M116.3,91.9l0.5,1.6l1.7,0c0.1,0,0.2,0.1,0.2,0.2c0,0.1,0,0.1-0.1,0.2l-1.4,1l0.5,1.6c0,0.1,0,0.2-0.1,0.3c-0.1,0-0.1,0-0.2,0
			l-1.4-1l-1.4,1c-0.1,0.1-0.2,0-0.3-0.1c0-0.1-0.1-0.1,0-0.2l0.5-1.6l-1.4-1c-0.1-0.1-0.1-0.2,0-0.3c0-0.1,0.1-0.1,0.2-0.1l1.7,0
			l0.5-1.6c0-0.1,0.2-0.2,0.3-0.1C116.2,91.7,116.3,91.8,116.3,91.9"/>
		
			<path id="Path_636_00000014608458312465181700000001310514213367492015_" style="clip-path:url(#SVGID_00000170993222037402600300000000920187709094584242_);fill:#F2F3F4;" d="
			M116.3,100.2l0.5,1.6l1.7,0c0.1,0,0.2,0.1,0.2,0.2c0,0.1,0,0.1-0.1,0.2l-1.4,1l0.5,1.6c0,0.1,0,0.2-0.2,0.3c-0.1,0-0.1,0-0.2,0
			l-1.4-1l-1.4,1c-0.1,0.1-0.2,0-0.3-0.1c0-0.1-0.1-0.1,0-0.2l0.5-1.6l-1.4-1c-0.1-0.1-0.1-0.2,0-0.3c0-0.1,0.1-0.1,0.2-0.1l1.7,0
			l0.5-1.6c0-0.1,0.2-0.2,0.3-0.1C116.2,100.1,116.3,100.2,116.3,100.2"/>
		
			<path id="Path_637_00000163067366603366934020000006393110575762325681_" style="clip-path:url(#SVGID_00000170993222037402600300000000920187709094584242_);fill:#F2F3F4;" d="
			M116.3,108.6l0.5,1.6l1.7,0c0.1,0,0.2,0.1,0.2,0.2c0,0.1,0,0.1-0.1,0.2l-1.4,1l0.5,1.6c0,0.1,0,0.2-0.1,0.3c-0.1,0-0.1,0-0.2,0
			l-1.4-1l-1.4,1c-0.1,0.1-0.2,0-0.3-0.1c0-0.1-0.1-0.1,0-0.2l0.5-1.6l-1.4-1c-0.1-0.1-0.1-0.2,0-0.3c0-0.1,0.1-0.1,0.2-0.1l1.7,0
			l0.5-1.6c0-0.1,0.2-0.2,0.3-0.1C116.2,108.5,116.3,108.5,116.3,108.6"/>
		
			<path id="Path_638_00000088131254056251501270000005858249939000791702_" style="clip-path:url(#SVGID_00000170993222037402600300000000920187709094584242_);fill:#F2F3F4;" d="
			M122.8,79.2l0.5,1.6l1.7,0c0.1,0,0.2,0.1,0.2,0.2c0,0.1,0,0.1-0.1,0.2l-1.4,1l0.5,1.6c0,0.1,0,0.2-0.1,0.3c-0.1,0-0.1,0-0.2,0
			l-1.4-1l-1.4,1c-0.1,0.1-0.2,0-0.3-0.1c0-0.1-0.1-0.1,0-0.2l0.5-1.6l-1.4-1c-0.1-0.1-0.1-0.2,0-0.3c0-0.1,0.1-0.1,0.2-0.1l1.7,0
			l0.5-1.6c0-0.1,0.2-0.2,0.3-0.1C122.7,79.1,122.8,79.2,122.8,79.2"/>
		
			<path id="Path_639_00000019648913756808387160000016571186062688788915_" style="clip-path:url(#SVGID_00000170993222037402600300000000920187709094584242_);fill:#F2F3F4;" d="
			M122.8,87.6l0.5,1.6l1.7,0c0.1,0,0.2,0.1,0.2,0.2c0,0.1,0,0.1-0.1,0.2l-1.4,1l0.5,1.6c0,0.1,0,0.2-0.2,0.3c-0.1,0-0.1,0-0.2,0
			l-1.4-1l-1.4,1c-0.1,0.1-0.2,0.1-0.3-0.1c0-0.1-0.1-0.1,0-0.2l0.5-1.6l-1.4-1c-0.1-0.1-0.1-0.2,0-0.3c0-0.1,0.1-0.1,0.2-0.1l1.7,0
			l0.5-1.6c0-0.1,0.2-0.2,0.3-0.1C122.7,87.5,122.8,87.5,122.8,87.6"/>
		
			<path id="Path_640_00000155848470959653938170000000253526368418877879_" style="clip-path:url(#SVGID_00000170993222037402600300000000920187709094584242_);fill:#F2F3F4;" d="
			M122.8,96l0.5,1.6l1.7,0c0.1,0,0.2,0.1,0.2,0.2c0,0.1,0,0.1-0.1,0.2l-1.4,1l0.5,1.6c0,0.1,0,0.2-0.1,0.3c-0.1,0-0.1,0-0.2,0
			l-1.4-1l-1.4,1c-0.1,0.1-0.2,0-0.3-0.1c0-0.1-0.1-0.1,0-0.2l0.5-1.6l-1.4-1c-0.1-0.1-0.1-0.2,0-0.3c0-0.1,0.1-0.1,0.2-0.1l1.7,0
			l0.5-1.6c0-0.1,0.2-0.2,0.3-0.1C122.7,95.8,122.8,95.9,122.8,96"/>
		
			<path id="Path_641_00000181799612269822815820000016961800232626267837_" style="clip-path:url(#SVGID_00000170993222037402600300000000920187709094584242_);fill:#F2F3F4;" d="
			M122.8,104.3l0.5,1.6l1.7,0c0.1,0,0.2,0.1,0.2,0.2c0,0.1,0,0.1-0.1,0.2l-1.4,1l0.5,1.6c0,0.1,0,0.2-0.1,0.3c-0.1,0-0.1,0-0.2,0
			l-1.4-1l-1.4,1c-0.1,0.1-0.2,0-0.3-0.1c0-0.1-0.1-0.1,0-0.2l0.5-1.6l-1.4-1c-0.1-0.1-0.1-0.2,0-0.3c0-0.1,0.1-0.1,0.2-0.1l1.7,0
			l0.5-1.6c0-0.1,0.2-0.2,0.3-0.1C122.7,104.2,122.8,104.3,122.8,104.3"/>
		
			<path id="Path_642_00000109708107125013651530000012687165829620039352_" style="clip-path:url(#SVGID_00000170993222037402600300000000920187709094584242_);fill:#F2F3F4;" d="
			M129.3,75.1l0.5,1.6l1.7,0c0.1,0,0.2,0.1,0.2,0.2c0,0.1,0,0.1-0.1,0.2l-1.4,1l0.5,1.6c0,0.1,0,0.2-0.1,0.3c-0.1,0-0.1,0-0.2,0
			l-1.4-1l-1.4,1c-0.1,0.1-0.2,0-0.3-0.1c0-0.1-0.1-0.1,0-0.2l0.5-1.6l-1.4-1c-0.1-0.1-0.1-0.2,0-0.3c0-0.1,0.1-0.1,0.2-0.1l1.7,0
			l0.5-1.6c0-0.1,0.2-0.2,0.3-0.1C129.2,75,129.3,75.1,129.3,75.1"/>
		
			<path id="Path_643_00000087374966554040652200000001428155099062459288_" style="clip-path:url(#SVGID_00000170993222037402600300000000920187709094584242_);fill:#F2F3F4;" d="
			M129.3,83.5l0.5,1.6l1.7,0c0.1,0,0.2,0.1,0.2,0.2c0,0.1,0,0.1-0.1,0.2l-1.4,1l0.5,1.6c0,0.1,0,0.2-0.1,0.3c-0.1,0-0.1,0-0.2,0
			l-1.4-1l-1.4,1c-0.1,0.1-0.2,0-0.3-0.1c0-0.1-0.1-0.1,0-0.2l0.5-1.6l-1.4-1c-0.1-0.1-0.1-0.2,0-0.3c0-0.1,0.1-0.1,0.2-0.1l1.7,0
			l0.5-1.6c0-0.1,0.2-0.2,0.3-0.1C129.2,83.4,129.3,83.4,129.3,83.5"/>
		
			<path id="Path_644_00000110450519957036486940000016113830837648551827_" style="clip-path:url(#SVGID_00000170993222037402600300000000920187709094584242_);fill:#F2F3F4;" d="
			M129.3,91.9l0.5,1.6l1.7,0c0.1,0,0.2,0.1,0.2,0.2c0,0.1,0,0.1-0.1,0.2l-1.4,1l0.5,1.6c0,0.1,0,0.2-0.1,0.3c-0.1,0-0.1,0-0.2,0
			l-1.4-1l-1.4,1c-0.1,0.1-0.2,0-0.3-0.1c0-0.1-0.1-0.1,0-0.2l0.5-1.6l-1.4-1c-0.1-0.1-0.1-0.2,0-0.3c0-0.1,0.1-0.1,0.2-0.1l1.7,0
			l0.5-1.6c0-0.1,0.2-0.2,0.3-0.1C129.2,91.7,129.3,91.8,129.3,91.9"/>
		
			<path id="Path_645_00000082359946474664104110000018387774168282531209_" style="clip-path:url(#SVGID_00000170993222037402600300000000920187709094584242_);fill:#F2F3F4;" d="
			M129.3,100.2l0.5,1.6l1.7,0c0.1,0,0.2,0.1,0.2,0.2c0,0.1,0,0.1-0.1,0.2l-1.4,1l0.5,1.6c0,0.1,0,0.2-0.1,0.3c-0.1,0-0.1,0-0.2,0
			l-1.4-1l-1.4,1c-0.1,0.1-0.2,0-0.3-0.1c0-0.1-0.1-0.1,0-0.2l0.5-1.6l-1.4-1c-0.1-0.1-0.1-0.2,0-0.3c0-0.1,0.1-0.1,0.2-0.1l1.7,0
			l0.5-1.6c0-0.1,0.2-0.2,0.3-0.1C129.2,100.1,129.3,100.2,129.3,100.2"/>
		
			<path id="Path_646_00000147188679816598724870000014523355829058051499_" style="clip-path:url(#SVGID_00000170993222037402600300000000920187709094584242_);fill:#F2F3F4;" d="
			M129.3,108.6l0.5,1.6l1.7,0c0.1,0,0.2,0.1,0.2,0.2c0,0.1,0,0.1-0.1,0.2l-1.4,1l0.5,1.6c0,0.1,0,0.2-0.1,0.3c-0.1,0-0.1,0-0.2,0
			l-1.4-1l-1.4,1c-0.1,0.1-0.2,0-0.3-0.1c0-0.1-0.1-0.1,0-0.2l0.5-1.6l-1.4-1c-0.1-0.1-0.1-0.2,0-0.3c0-0.1,0.1-0.1,0.2-0.1l1.7,0
			l0.5-1.6c0-0.1,0.2-0.2,0.3-0.1C129.2,108.5,129.3,108.5,129.3,108.6"/>
		
			<g id="Group_107_00000167370161890549713570000007603245514400499616_" style="opacity:0.5;clip-path:url(#SVGID_00000170993222037402600300000000920187709094584242_);">
			<g id="Group_106_00000067207937255819255470000008713913919206035899_">
				<g>
					<defs>
						<rect id="SVGID_00000047774802024984227260000009764668640118907299_" x="67.6" y="68.7" width="69.4" height="124.6"/>
					</defs>
					<clipPath id="SVGID_00000059277059521832229850000003381987154304041900_">
						<use xlink:href="#SVGID_00000047774802024984227260000009764668640118907299_"  style="overflow:visible;"/>
					</clipPath>
					
						<g id="Group_105_00000032606298449139109650000002983019635081056142_" style="clip-path:url(#SVGID_00000059277059521832229850000003381987154304041900_);">
						<path id="Path_647_00000058588057969409904290000013752360356686797717_" class="st15" d="M132.8,193.3H71.9
							c-2.4,0-4.3-1.9-4.3-4.3v0V73c0-2.4,1.9-4.3,4.3-4.3l0,0h60.8c2.4,0,4.3,1.9,4.3,4.3v0v116C137,191.4,135.1,193.3,132.8,193.3
							L132.8,193.3"/>
					</g>
				</g>
			</g>
		</g>
	</g>
	<g>
		<path id="Path_648_00000073685666128607860400000000750273610941930902_" class="st18" d="M116.9,140.8v-0.7
			c0-5.8-3.8-11-9.4-12.8v-5.3h-9.4v5.3c-7,2.2-11,9.7-8.8,16.8c1.1,3.5,3.5,6.3,6.8,8l9.1,4.6c2,1,2.8,3.4,1.8,5.4
			c-0.7,1.4-2.1,2.2-3.6,2.2h-1.4c-2.2,0-4-1.8-4-4v-0.7h-9.4v0.7c0,5.8,3.8,11,9.4,12.8v5.3h9.4V173c7-2.2,11-9.7,8.8-16.8
			c-1.1-3.5-3.5-6.3-6.8-8l-9.1-4.6c-2-1-2.8-3.4-1.8-5.4c0.7-1.4,2.1-2.2,3.6-2.2h1.4c2.2,0,4,1.8,4,4v0.7L116.9,140.8z"/>
		<path id="Path_649_00000013883853008240271150000003404687537301004446_" class="st29" d="M36.4,165.5l6.3-6.3v-28.5
			c0-5.2,4.2-9.5,9.5-9.5h12.6v12.6l7.9-7.9c2.6-2.6,6.9-2.6,9.5,0.1c2.6,2.6,2.6,6.8,0,9.4L68,149.7c7,7,7,18.3,0,25.3c0,0,0,0,0,0
			l-15.8,15.8L36.4,165.5z"/>
		<path id="Path_650_00000129190608794773009740000014420805123682241725_" class="st30" d="M58.5,135.8l1.9-1.9
			c1.2-1.2,3.2-1.2,4.5,0c1.2,1.2,1.2,3.2,0,4.5l0,0l-1.9,1.9c-1.2,1.2-3.2,1.2-4.5,0C57.3,139,57.3,137,58.5,135.8"/>
		<path id="Path_651_00000013905445931604091300000003602477472602015896_" class="st31" d="M33.9,160.9l20.3,31.8
			c1,1.6,0.5,3.7-1,4.7c0,0,0,0,0,0l-23.1,14.7c-1.6,1-3.7,0.5-4.7-1c0,0,0,0,0,0L4.9,179.3c-1-1.6-0.5-3.7,1-4.7c0,0,0,0,0,0
			l23.1-14.7C30.7,158.8,32.8,159.3,33.9,160.9"/>
		<path id="Path_652_00000151521582318246835840000009092365085396679841_" class="st32" d="M31.3,195.1l-1.8-2.9
			c-1-1.6-0.6-3.7,1-4.7c1.6-1,3.7-0.6,4.7,1c0,0,0,0,0,0l1.8,2.9c1,1.6,0.6,3.7-1,4.7C34.5,197.2,32.3,196.8,31.3,195.1
			C31.3,195.1,31.3,195.1,31.3,195.1"/>
		<path id="Path_653_00000165947669690820903230000006865002079691820677_" class="st33" d="M195.7,107l-9.8-37.2
			c-0.2-0.8-1-1.2-1.8-1c-0.3,0.1-0.5,0.2-0.7,0.4l-8.6,9.8c-17.4-13.9-41-5.3-51.7,6.6l0,0.1c-0.5,0.6-0.4,1.5,0.2,2
			c0.6,0.5,1.5,0.4,2-0.1l0.1-0.1c2.7-2.8,25.1-5.5,38.2,4.6L155,102c-0.5,0.6-0.5,1.5,0.1,2c0.2,0.2,0.5,0.3,0.8,0.3l38.2,4.5
			c0.8,0.1,1.5-0.5,1.6-1.3C195.8,107.4,195.7,107.2,195.7,107"/>
	</g>
</g>
</svg>
