<?xml version="1.0" encoding="utf-8"?>
<!-- Generator: Adobe Illustrator 26.0.1, SVG Export Plug-In . SVG Version: 6.00 Build 0)  -->
<svg version="1.1" id="Layer_1" xmlns="http://www.w3.org/2000/svg" xmlns:xlink="http://www.w3.org/1999/xlink" x="0px" y="0px"
	 viewBox="0 0 283.5 283.5" style="enable-background:new 0 0 283.5 283.5;" xml:space="preserve">
<style type="text/css">
	.st0{fill:#FFFFFF;}
	.st1{clip-path:url(#SVGID_00000136398095012503937150000013236903552532171657_);}
	.st2{fill:#6DA12F;}
	.st3{fill:#F2F3F4;}
	.st4{fill:#E93546;}
	.st5{fill:#FFC739;}
	.st6{fill:#35AE8A;}
	.st7{fill:#009CD5;}
	.st8{fill:#5F202A;}
	.st9{fill:#A7C84D;}
	.st10{fill:#73303F;}
	.st11{fill:#642C36;}
	.st12{fill:#FFD942;}
	.st13{fill:#FCA263;}
	.st14{fill:#883949;}
	.st15{opacity:0.5;fill:#FFFFFF;enable-background:new    ;}
	.st16{opacity:0.3;fill:#1A1818;enable-background:new    ;}
	.st17{fill:#FFA419;}
	.st18{fill:#F16322;}
	.st19{fill:#FE9D2B;}
	.st20{fill:#E50019;}
	.st21{fill:#1A1818;}
	.st22{fill:#00A1ED;}
	.st23{clip-path:url(#SVGID_00000036950621776756466060000011617193445582016183_);}
	.st24{fill:#22388B;}
	.st25{fill:#E7A166;}
	.st26{fill:#C58B59;}
	.st27{fill:#34646C;}
	.st28{fill:#203040;}
	.st29{fill:#E0007A;}
</style>
<g id="a6228d9d-8e31-4a1d-a172-f434c5af13ea">
	<path id="a458b093-475f-4185-8246-a544aeba1f1b" class="st0" d="M64.1,21.6h155.2c26.7,0,48.3,21.6,48.3,48.3v143.6
		c0,26.7-21.6,48.3-48.3,48.3H64.1c-26.7,0-48.3-21.6-48.3-48.3V69.9C15.8,43.2,37.4,21.6,64.1,21.6z"/>
	<path id="e368308e-799a-40ad-9527-d8e2f6f27895" class="st0" d="M64.4,22h154.8c26.6,0,48.2,21.6,48.2,48.2v143.2
		c0,26.6-21.6,48.2-48.2,48.2H64.4c-26.6,0-48.2-21.6-48.2-48.2V70.2C16.2,43.5,37.8,22,64.4,22z"/>
	<g>
		<g id="b8beea91-4947-40d2-a0a1-d2d7591323f4">
			<g id="e029ed94-53be-43cc-b9f8-f0891d1d4154">
				<g id="af156821-49b8-4656-9e20-6d2b35d19a86">
					<g>
						<defs>
							<path id="SVGID_1_" d="M153.2,104.1h81.2c3.9,0,7,3.2,7,7.1V157c0,3.9-3.1,7-7,7.1h-81.2c-3.9,0-7.1-3.2-7.1-7.1v-45.9
								C146.1,107.2,149.3,104.1,153.2,104.1z"/>
						</defs>
						<clipPath id="SVGID_00000130639330606279797560000004623127001474952883_">
							<use xlink:href="#SVGID_1_"  style="overflow:visible;"/>
						</clipPath>
						<g style="clip-path:url(#SVGID_00000130639330606279797560000004623127001474952883_);">
							<g id="b34549e1-c901-40db-ad41-7debb979ce79">
								<g id="ee1eb472-2fda-42bd-8a88-dbb45810e589">
									<path id="bb51bff6-261e-42f5-9f7c-c3a8c9a6cae7" class="st2" d="M178,165.1h-29.9c-0.9,0-1.6-0.7-1.6-1.6l0,0v-58.8
										c0-0.9,0.7-1.6,1.6-1.6l0,0H178V165.1z"/>
									<rect id="b686a84e-c5b6-4f76-93ae-0328a59aa4c0" x="178" y="103" class="st3" width="31.6" height="62.1"/>
									<path id="a4f5ee31-7c50-44d8-a252-410e1e572933" class="st4" d="M239.5,165.1h-29.9V103h29.9c0.9,0,1.6,0.7,1.6,1.6l0,0
										v58.8C241.1,164.3,240.4,165,239.5,165.1L239.5,165.1z"/>
									<g id="fa0e505e-f3d9-4ca9-b51d-f8d8567610c3">
										<path id="b4e7c86b-b334-47e4-a9fd-9ca16006f87d" class="st5" d="M196.6,135.5l-2.8,1.4v1.4h1.4L196.6,135.5z"/>
										<g id="fc8dace0-84fd-4517-aa37-d1a94c0af07e">
											<path id="a5d1aac5-ba85-4390-863a-9c683d36dcbb" class="st6" d="M193.8,141.9c-0.4,0-0.7-0.3-0.7-0.7v0v-2.8
												c0-0.4,0.4-0.7,0.8-0.6c0.3,0,0.6,0.3,0.6,0.6v2.8C194.5,141.5,194.2,141.9,193.8,141.9z"/>
											<path id="a00fc9f0-7dce-459e-9d65-bf7703372cae" class="st6" d="M193.8,139.1c-2.8,0-5.5-1.1-7.5-3c-0.3-0.3-0.3-0.7,0-1
												c0,0,0,0,0,0l0,0c0.3-0.3,0.7-0.3,1,0c0,0,0,0,0,0c3.7,3.5,9.4,3.5,13.1,0c0.3-0.3,0.7-0.3,1,0c0,0,0,0,0,0l0,0
												c0.3,0.3,0.3,0.7,0,1l0,0C199.3,138,196.6,139.1,193.8,139.1z"/>
										</g>
										<path id="b915eda3-2861-4d23-924b-2a2a712bb23d" class="st7" d="M193.8,141.9c-1.8,0-3.6-0.5-5.1-1.5l0.8-1.2
											c2.6,1.7,5.9,1.7,8.6,0l0.8,1.2C197.3,141.3,195.6,141.9,193.8,141.9z"/>
										<path id="e529fdbb-9dee-4b5c-aa5f-2318e96599b2" class="st8" d="M192.7,132.4l-1.6,2.4l-0.3,0.8l4-0.9L192.7,132.4z"/>
										<path id="f7d015fb-f1d9-489d-bf1e-c4e17fb0b034" class="st9" d="M189.5,136.3c-1.9,0-4.1-1.6-4.7-5.1l1.4-0.2
											c0.5,2.9,2.3,3.9,3.4,3.9c0.3,0,0.7-0.1,0.7-0.4s0-0.4-0.7-0.6c-0.4-0.1-0.8-0.3-1.2-0.7c-1.3-1.5,0.4-3,1.3-3.8
											c0.1-0.1,0.2-0.2,0.2-0.3c-0.1-0.2-0.4-0.3-0.6-0.3c-0.8,0-1.6-0.5-1.8-1.3c-0.2-0.8,0.2-1.7,0.9-2.1l0.6,1.2
											c-0.2,0.1-0.2,0.3-0.2,0.5c0,0.1,0.1,0.2,0.4,0.2c0.9,0,1.6,0.4,2,1.2c0.2,0.7,0,1.4-0.6,1.8c-0.9,0.8-1.5,1.4-1.2,1.8
											c0.2,0.1,0.4,0.2,0.6,0.2c0.6,0.2,1.8,0.6,1.6,2.1c-0.2,1-1.1,1.7-2.1,1.6L189.5,136.3z"/>
										<path id="ba2ab255-2a9e-43a3-af2b-dd6d9bf33232" class="st10" d="M195.2,128.5c0.8-1.5,0.2-3.4-1.3-4.2c0,0,0,0,0,0
											l-0.1-0.1c0,0,9.9-1.4,8.4,11.3l0,0c-1.1-0.9-2.1-1.9-2.8-3.2l-4.3-2.5L195.2,128.5L195.2,128.5z"/>
										<path id="a7e4a0cc-368a-46dc-a9f0-9ea59a754e54" class="st8" d="M193.8,131.3l7,4.2l-2.8,1.4l-4.2-4.2L193.8,131.3z"/>
										<path id="b05b7ae2-eebf-46a9-a0dc-221a3df14206" class="st11" d="M191,127.1L191,127.1c0.8,0,1.4,0.6,1.4,1.4l0,0
											c-0.8,0.8-1.1,2.1-0.5,3.2l0.3,0.6c0.1,0.3,0.3,0.5,0.5,0.7l3.9,3.9v-2c0-2.4-0.6-4.8-1.6-7l0,0c-0.7-1.4-2.2-2.3-3.8-2.3
											H191V127.1L191,127.1L191,127.1z"/>
										<path id="abc009b6-9df2-48cf-9d3d-95a18f4cd0e3" class="st5" d="M191,125.7l-1.4,1.4v1.4c0,0,1.7-0.8,2.2-1.1
											c0.3-0.1,0.4-0.4,0.2-0.7c0-0.1-0.1-0.1-0.1-0.2C191.7,126.3,191,125.7,191,125.7z"/>
										<path id="f36d9458-e032-4180-b835-276dbdb2bac7" class="st9" d="M193.8,144.7c-6.6,0-12-5.4-12-12h1.4
											c0,5.8,4.7,10.6,10.6,10.6c5.8,0,10.5-4.7,10.6-10.6h1.4C205.7,139.3,200.4,144.6,193.8,144.7z"/>
										<g id="a3b79a61-511e-4061-a77d-48480e37b02c">
											<circle id="bafeb9a1-4dc7-4517-86dc-0f7f75340eab" class="st12" cx="183.3" cy="136.9" r="1"/>
											<circle id="af545e40-587b-4369-819f-968a589b48d4" class="st12" cx="185.4" cy="140.3" r="1"/>
											<circle id="bfc1247e-2076-49c3-a67e-826e62ec1d3d" class="st12" cx="188.8" cy="142.8" r="1"/>
											<circle id="b9fb3fa0-ec69-4ff7-840d-4b1274b0399e" class="st12" cx="204.4" cy="136.9" r="1"/>
											<circle id="e58d6f01-0ce8-4c04-b857-48216027af7f" class="st12" cx="202.2" cy="140.3" r="1"/>
											<circle id="ffd85488-0223-4bb7-a217-b59b36cf7d6b" class="st12" cx="198.8" cy="142.8" r="1"/>
										</g>
										<path id="a09b49e8-c9dd-4ffd-a6ca-3860b208db2b" class="st13" d="M194.5,142.6h-1.4c-0.8,0-1.4-0.6-1.4-1.4l0,0
											c0-0.8,0.6-1.4,1.4-1.4c0,0,0,0,0,0h1.4c0.8,0,1.4,0.6,1.4,1.4l0,0C195.9,141.9,195.3,142.6,194.5,142.6z"/>
										<path id="a95f48d6-5889-4faa-b272-a6b288bbe3c9" class="st14" d="M199.4,132.4c0.4,1.4,1.5,2.6,2.8,3.2l0,0
											c1.4-12.7-8.4-11.3-8.4-11.3C200.8,124.3,199.4,132.4,199.4,132.4z"/>
									</g>
								</g>
								<path id="bb3ba0aa-11cd-49ae-a009-a378fdef4a3c" class="st15" d="M154.9,102.3h77.2c6,0,10.8,4.8,10.8,10.8v43.1
									c0,6-4.8,10.8-10.8,10.8h-77.2c-6,0-10.8-4.8-10.8-10.8v-43.1C144.1,107.1,148.9,102.3,154.9,102.3z"/>
							</g>
						</g>
					</g>
				</g>
				<path id="fdbcc3c3-7131-41b8-a5a3-55c565d92212" class="st16" d="M234.4,104.1h-1.4c-16.6,29.6-47.8,49.8-66.8,60h68.2
					c3.9,0,7.1-3.2,7.1-7.1l0,0v-45.9C241.4,107.2,238.3,104.1,234.4,104.1z"/>
				<rect id="a2832a81-bd36-49bd-9394-1a3ba058927d" x="152.3" y="111.6" class="st17" width="17.6" height="14.1"/>
				<g id="a0940c25-a9ec-463a-88ef-d1dd65e0b09e">
					<rect id="b9a74db3-c9e3-46ab-94a5-1474ba07d082" x="152.3" y="116.9" class="st18" width="5.3" height="3.5"/>
					<rect id="b72f4918-8923-442c-bcde-76c6c64a4719" x="164.6" y="116.9" class="st18" width="5.3" height="3.5"/>
				</g>
				<circle id="be94c16e-73b9-4102-b7cb-549c9312f014" class="st19" cx="229.6" cy="150.4" r="7.5"/>
				<circle id="a2768402-7492-4ec5-bf1f-6006d881293a" class="st20" cx="220.6" cy="150.4" r="7.5"/>
				<g id="b7075866-5caf-46d7-8544-400a38a1aab1">
					<rect id="b69ebb15-04cd-4abc-96c3-2c58f05c5586" x="153.2" y="146.7" class="st21" width="10.6" height="3.5"/>
					<rect id="b3551b6d-644d-45d0-b91e-51420b0eee4f" x="170.8" y="146.7" class="st21" width="10.6" height="3.5"/>
					<rect id="fc8b71e2-1781-4c5a-8be4-54db873f1df6" x="188.5" y="146.7" class="st21" width="10.6" height="3.5"/>
					<rect id="f017127d-f1a1-497b-b7dc-0f793f7b019a" x="153.2" y="154.5" class="st21" width="45.9" height="3.5"/>
					<rect id="a3eba037-6d7d-492e-a0e1-b884a3348202" x="211.6" y="112" class="st21" width="3.5" height="7.1"/>
					<rect id="b354b62a-0a52-45bc-a0e2-d13863cacfaa" x="218.6" y="112" class="st21" width="3.5" height="7.1"/>
					<rect id="a861c475-222e-4f70-acda-9a0e0e15747b" x="225.7" y="112" class="st21" width="3.5" height="7.1"/>
					<rect id="eda34b91-7f07-4801-ac65-6235efeb7cb4" x="232.7" y="112" class="st21" width="3.5" height="7.1"/>
				</g>
			</g>
		</g>
		<path id="f6c50750-3c68-4dfb-b1ab-5556de3de4cd" class="st22" d="M84.8,64.8h47.9c2.6,0,4.7,2.1,4.7,4.7V162
			c0,2.6-2.1,4.7-4.7,4.7H84.8c-2.6,0-4.7-2.1-4.7-4.7V69.5C80.1,66.9,82.2,64.8,84.8,64.8z"/>
		<g id="bb210c42-ed94-4de0-8d77-0c1b7b3c0a8f">
			<g>
				<defs>
					<path id="SVGID_00000097487251973672855500000014859260532127332756_" d="M87.4,69.4H130c1.7,0,3.1,1.4,3.1,3.1V159
						c0,1.7-1.4,3.1-3.1,3.1H87.4c-1.7,0-3.1-1.4-3.1-3.1V72.5C84.3,70.8,85.7,69.4,87.4,69.4z"/>
				</defs>
				<clipPath id="SVGID_00000042728655641546052290000010141943641767778459_">
					<use xlink:href="#SVGID_00000097487251973672855500000014859260532127332756_"  style="overflow:visible;"/>
				</clipPath>
				<g style="clip-path:url(#SVGID_00000042728655641546052290000010141943641767778459_);">
					<g id="af9e417e-90c1-4857-9ef1-c67cc43a6ea3">
						<g id="a0f5dcbf-b3f6-43b6-bba6-24838c25a0e7">
							<path id="f404d75b-fe80-4ff7-801c-c44982144ea8" class="st3" d="M227.1,164H86.3c-1.4,0-2.5-1.1-2.5-2.5c0,0,0,0,0,0l0,0V71
								c0-1.4,1.1-2.5,2.5-2.5h140.7c1.4,0,2.5,1.1,2.5,2.5c0,0,0,0,0,0l0,0v90.5C229.6,162.9,228.4,164,227.1,164L227.1,164z"/>
							<g id="f1003e48-4c10-478e-98d2-6bc4f8560e8b">
								<path id="a58f8d67-27b0-4b75-883a-fec10742c2e9" class="st4" d="M229.6,75.9H83.8V71c0-1.4,1.1-2.5,2.5-2.5c0,0,0,0,0,0
									h140.7c1.4,0,2.5,1.1,2.5,2.5l0,0V75.9L229.6,75.9z"/>
								<rect id="b469cafc-4073-488b-872c-4551b5c87f27" x="83.8" y="97.9" class="st4" width="145.8" height="7.3"/>
								<rect id="bedfc31a-2ee9-4329-9381-5b283b996186" x="83.8" y="83.2" class="st4" width="145.8" height="7.3"/>
								<path id="be2d77e0-8f44-40eb-86be-484eb0fa2d48" class="st4" d="M229.6,119.9H86.3c-1.4,0-2.5-1.1-2.5-2.5l0,0v-4.8h145.8
									V119.9z"/>
								<rect id="be7862c6-a208-44e5-b869-2c6632a35fc8" x="83.8" y="142" class="st4" width="145.8" height="7.4"/>
								<path id="f6a9d5d4-1c43-470f-af85-2aaa7cccc78d" class="st4" d="M227.1,164H86.3c-1.4,0-2.5-1.1-2.5-2.5c0,0,0,0,0,0l0,0
									v-4.8h145.8v4.8C229.6,162.9,228.4,164,227.1,164z"/>
								<rect id="be45c034-b33e-4137-a0d7-88de1837628d" x="83.8" y="127.3" class="st4" width="145.8" height="7.4"/>
							</g>
							<g id="f2be4d21-a42b-44b0-8966-912634f7f433">
								<path id="b34383cf-6d31-4881-a407-987c99483b3b" class="st24" d="M132.2,68.5H85.7c-1,0-1.9,0.8-1.9,1.9l0,0v34.3
									c0,1,0.8,1.9,1.8,1.9c0,0,0,0,0,0h46.5c1,0,1.9-0.8,1.9-1.9l0,0V70.4C134.1,69.3,133.2,68.5,132.2,68.5z"/>
								<g id="e832d030-0450-424b-a5ed-af204e3195bd">
									<path id="ab5a8b51-4f3c-43c0-80a2-530fe71cf8fb" class="st3" d="M89,72.8l0.4,1.2h1.3c0.1,0,0.2,0.1,0.2,0.2
										c0,0.1,0,0.1-0.1,0.1l-1,0.8l0.4,1.2c0,0.1,0,0.2-0.1,0.2c0,0-0.1,0-0.2,0l-1.1-0.8l-1.1,0.8c-0.1,0.1-0.2,0.1-0.2,0
										c0,0,0-0.1,0-0.2l0.4-1.2l-1-0.8c-0.1-0.1-0.1-0.2,0-0.2c0,0,0-0.1,0-0.1h1.3l0.4-1.2c0-0.1,0.1-0.1,0.2-0.1c0,0,0,0,0,0
										C89,72.7,89,72.7,89,72.8z"/>
									<path id="b39b3dd4-a150-4955-a623-05114ac5c982" class="st3" d="M89,79.2l0.4,1.2h1.3c0.1,0,0.2,0.1,0.2,0.2
										c0,0.1,0,0.1-0.1,0.1l-1,0.8l0.4,1.2c0,0.1,0,0.2-0.1,0.2c0,0-0.1,0-0.2,0l-1.1-0.8L87.8,83c-0.1,0.1-0.2,0.1-0.2,0
										c0,0,0-0.1,0-0.2l0.4-1.2l-1-0.8c-0.1-0.1-0.1-0.2,0-0.2c0,0,0.1-0.1,0.1-0.1h1.3l0.4-1.2C88.8,79.2,88.9,79.1,89,79.2
										C89,79.2,89,79.2,89,79.2C89,79.2,89,79.2,89,79.2z"/>
									<path id="ef55ee8a-da50-4fe7-a126-b83eed3c4c1b" class="st3" d="M89,85.7l0.4,1.3h1.3c0.1,0,0.2,0.1,0.2,0.2
										c0,0,0,0.1-0.1,0.1l-1,0.8l0.4,1.2c0,0.1,0,0.2-0.1,0.2c0,0-0.1,0-0.2,0l-1.1-0.8l-1.1,0.8c-0.1,0.1-0.2,0.1-0.2,0
										c0,0,0-0.1,0-0.2l0.4-1.2l-1-0.8c-0.1-0.1-0.1-0.2,0-0.2c0,0,0-0.1,0-0.1h1.3l0.4-1.2C88.7,85.7,88.8,85.6,89,85.7
										C89,85.7,89,85.7,89,85.7z"/>
									<path id="a8dedda3-6415-4697-b078-a3d650484435" class="st3" d="M89,92.2l0.4,1.2h1.3c0.1,0,0.2,0.1,0.2,0.2
										c0,0.1,0,0.1-0.1,0.1l-1,0.8l0.4,1.2c0,0.1,0,0.2-0.1,0.2c0,0-0.1,0-0.2,0l-1.1-0.8L87.8,96c-0.1,0.1-0.2,0.1-0.2,0
										c0,0,0-0.1,0-0.2l0.4-1.2l-1-0.8c-0.1-0.1-0.1-0.2,0-0.2c0,0,0.1-0.1,0.1-0.1h1.3l0.4-1.2C88.8,92.1,88.9,92.1,89,92.2
										c0.1,0,0.1,0,0.1,0.1L89,92.2z"/>
									<path id="f30cba4e-e12f-441e-ba68-2a4f98fb4124" class="st3" d="M89,98.6l0.4,1.2h1.3c0.1,0,0.2,0.1,0.2,0.2
										c0,0,0,0.1-0.1,0.1l-1,0.8l0.4,1.2c0,0.1,0,0.2-0.1,0.2c0,0-0.1,0-0.2,0l-1.1-0.8l-1.1,0.8c-0.1,0.1-0.2,0.1-0.2,0
										c0,0,0-0.1,0-0.2L88,101l-1-0.8c-0.1-0.1-0.1-0.2,0-0.2c0,0,0.1-0.1,0.1-0.1h1.3l0.4-1.2C88.8,98.6,88.9,98.6,89,98.6
										C89,98.6,89,98.6,89,98.6C89,98.6,89,98.6,89,98.6z"/>
									<path id="e78b1aa3-c675-47eb-947f-3d2ea4e3c069" class="st3" d="M94,76l0.4,1.2h1.3c0.1,0,0.2,0.1,0.2,0.2c0,0,0,0,0,0
										c0,0.1,0,0.1-0.1,0.1l-1,0.8l0.4,1.2c0,0.1,0,0.2-0.1,0.2c0,0,0,0,0,0c-0.1,0-0.1,0-0.2,0L93.9,79l-1.1,0.8
										c-0.1,0.1-0.2,0.1-0.2,0c0-0.1,0-0.1,0-0.2l0.4-1.2l-1-0.8c-0.1-0.1-0.1-0.2,0-0.2c0,0,0-0.1,0-0.1h1.3l0.4-1.2
										C93.8,75.9,93.9,75.9,94,76C94,76,94,76,94,76z"/>
									<path id="af1f9c7a-09dd-45df-a460-4d41af54f813" class="st3" d="M94,82.4l0.4,1.2h1.3c0.1,0,0.2,0.1,0.2,0.2
										c0,0,0,0.1-0.1,0.1l-1,0.8l0.4,1.3c0,0.1,0,0.2-0.1,0.2c-0.1,0-0.1,0-0.2,0l-1.1-0.8l-1.1,0.8c-0.1,0.1-0.2,0.1-0.2,0
										c0,0,0-0.1,0-0.2l0.4-1.2L92,84c-0.1-0.1-0.1-0.2,0-0.2c0,0,0.1-0.1,0.1-0.1h1.2l0.4-1.2C93.7,82.4,93.8,82.4,94,82.4
										C93.9,82.4,93.9,82.4,94,82.4C94,82.4,94,82.4,94,82.4z"/>
									<path id="e0bdfa45-5426-4349-8295-664c0235fe07" class="st3" d="M94,88.9l0.4,1.2h1.3c0.1,0,0.2,0.1,0.2,0.2
										c0,0,0,0.1-0.1,0.1l-1,0.8l0.4,1.2c0,0.1,0,0.2-0.1,0.2c-0.1,0-0.1,0-0.2,0l-1.1-0.8l-1.1,0.8c-0.1,0.1-0.2,0.1-0.2,0
										c0,0,0-0.1,0-0.2l0.4-1.2l-1-0.8c-0.1-0.1-0.1-0.2,0-0.3c0,0,0.1,0,0.1-0.1h1.2l0.4-1.2C93.7,88.9,93.8,88.8,94,88.9
										C94,88.8,94,88.9,94,88.9z"/>
									<path id="b87eb204-a4ba-41e7-94ff-9ac181688f51" class="st3" d="M94,95.3l0.4,1.2h1.3c0.1,0,0.2,0.1,0.2,0.2c0,0,0,0,0,0
										c0,0.1,0,0.1-0.1,0.1l-1,0.8l0.4,1.2c0,0.1,0,0.2-0.1,0.2c-0.1,0-0.1,0-0.2,0l-1.1-0.8l-1.1,0.8c-0.1,0.1-0.2,0-0.2-0.1
										c0,0,0-0.1,0-0.2l0.4-1.2l-1-0.8c-0.1-0.1-0.1-0.2,0-0.2c0,0,0.1-0.1,0.1-0.1h1.2l0.4-1.2C93.7,95.3,93.8,95.2,94,95.3
										C93.9,95.2,93.9,95.2,94,95.3C94,95.3,94,95.3,94,95.3z"/>
									<path id="f712bc78-208c-442b-9ed8-448640982d12" class="st3" d="M99.1,72.8l0.4,1.2h1.3c0.1,0,0.2,0.1,0.2,0.2c0,0,0,0,0,0
										c0,0,0,0.1-0.1,0.1l-1,0.8l0.4,1.2c0,0.1,0,0.2-0.1,0.2c-0.1,0-0.1,0-0.2,0l-1.1-0.8l-1,0.8c-0.1,0.1-0.2,0.1-0.2,0
										c0,0,0-0.1,0-0.2l0.3-1.3l-1-0.8c-0.1,0-0.1-0.1-0.1-0.2c0-0.1,0.1-0.1,0.1-0.1h1.3l0.4-1.2c0-0.1,0.1-0.1,0.2-0.1
										c0,0,0,0,0,0C99,72.7,99,72.7,99.1,72.8z"/>
									<path id="ebeada3f-54a7-4c70-ba64-4ccc58fc7924" class="st3" d="M99.1,79.2l0.4,1.2h1.3c0.1,0,0.2,0.1,0.2,0.2c0,0,0,0,0,0
										c0,0,0,0.1-0.1,0.1l-1,0.8l0.4,1.2c0,0.1,0,0.2-0.1,0.2c0,0,0,0,0,0c0,0-0.1,0-0.2,0l-1.1-0.8l-1,0.8
										c-0.1,0.1-0.2,0.1-0.2,0c0,0,0-0.1,0-0.2l0.3-1.3l-1-0.8c-0.1-0.1-0.1-0.2,0-0.2c0,0,0,0,0,0c0,0,0.1-0.1,0.1-0.1h1.3
										l0.4-1.2C98.9,79.2,99,79.1,99.1,79.2C99.1,79.2,99.1,79.2,99.1,79.2z"/>
									<path id="ad8ddc3b-5826-4010-9dfa-fa63d89e6fb1" class="st3" d="M99.1,85.7l0.4,1.3h1.3c0.1,0,0.2,0.1,0.2,0.2c0,0,0,0,0,0
										c0,0,0,0.1-0.1,0.1l-1,0.8l0.4,1.2c0,0.1,0,0.2-0.1,0.2c-0.1,0-0.1,0-0.2,0l-1.1-0.8l-1,0.8c-0.1,0.1-0.2,0.1-0.2,0
										c0,0,0-0.1,0-0.2L98,88l-1-0.8c-0.1-0.1-0.1-0.2,0-0.2c0,0,0,0,0,0h1.3l0.4-1.2c0-0.1,0.1-0.2,0.2-0.2c0,0,0.1,0,0.1,0
										C99,85.6,99.1,85.7,99.1,85.7z"/>
									<path id="a0beeba1-8f83-4cf0-8f96-ef48ad0c7341" class="st3" d="M99.1,92.2l0.4,1.2h1.3c0.1,0,0.2,0.1,0.2,0.2c0,0,0,0,0,0
										c0,0,0,0.1-0.1,0.1l-1,0.8l0.4,1.2c0,0.1,0,0.2-0.1,0.2c-0.1,0-0.1,0-0.2,0l-1.1-0.8l-1,0.8c-0.1,0.1-0.2,0.1-0.2,0
										c0,0,0-0.1,0-0.2l0.3-1.3l-1-0.8c-0.1-0.1-0.1-0.2,0-0.2c0,0,0,0,0,0c0,0,0.1-0.1,0.1-0.1h1.3l0.4-1.2
										c0-0.1,0.1-0.1,0.2-0.1c0,0,0,0,0,0C99.1,92.1,99.1,92.1,99.1,92.2z"/>
									<path id="a1998fde-ab65-49e6-917b-b69402cd4bd7" class="st3" d="M99.1,98.6l0.4,1.2h1.3c0.1,0,0.2,0.1,0.2,0.2c0,0,0,0,0,0
										c0,0,0,0.1-0.1,0.1l-1,0.8l0.4,1.2c0,0.1,0,0.2-0.1,0.2c-0.1,0-0.1,0-0.2,0l-1.1-0.8l-1,0.8c-0.1,0.1-0.2,0.1-0.2,0
										c0,0,0-0.1,0-0.2L98,101l-1-0.8c-0.1-0.1-0.1-0.2,0-0.3c0,0,0.1-0.1,0.1-0.1h1.3l0.4-1.2C98.8,98.6,98.9,98.5,99.1,98.6
										C99,98.6,99,98.6,99.1,98.6C99.1,98.6,99.1,98.6,99.1,98.6z"/>
									<path id="a639b847-81ea-4970-acbb-c1e3fe234400" class="st3" d="M104.1,76l0.4,1.2h1.3c0.1,0,0.2,0.1,0.2,0.2
										c0,0.1,0,0.1-0.1,0.1l-1,0.8l0.4,1.2c0,0.1,0,0.2-0.1,0.2c0,0,0,0,0,0c0,0-0.1,0-0.2,0l-1.1-0.8l-1.1,0.8
										c-0.1,0.1-0.2,0.1-0.2,0c0,0,0,0,0,0c0-0.1,0-0.1,0-0.2l0.4-1.2l-1-0.8c-0.1-0.1-0.1-0.2,0-0.2c0,0,0.1-0.1,0.1-0.1h1.3
										l0.4-1.2C103.9,75.9,104,75.9,104.1,76C104.1,75.9,104.1,76,104.1,76z"/>
									<path id="bf4d2b73-8f89-4445-8275-542b3bfa8dce" class="st3" d="M104.1,82.4l0.4,1.2h1.3c0.1,0,0.2,0.1,0.2,0.2
										c0,0,0,0.1-0.1,0.1l-1,0.8l0.4,1.2c0,0.1,0,0.2-0.1,0.2c0,0,0,0,0,0c0,0-0.1,0-0.2,0l-1.1-0.8l-1.1,0.8
										c-0.1,0.1-0.2,0.1-0.2,0c0,0,0,0,0,0c0,0,0-0.1,0-0.2l0.4-1.2l-1-0.8c-0.1-0.1-0.1-0.2,0-0.2c0,0,0.1-0.1,0.1-0.1h1.3
										l0.4-1.2C103.9,82.4,104,82.3,104.1,82.4C104.1,82.4,104.1,82.4,104.1,82.4C104.1,82.4,104.1,82.4,104.1,82.4z"/>
									<path id="a9cc8989-f96f-401d-aa28-5137c9d8366a" class="st3" d="M104.1,88.9l0.4,1.2h1.3c0.1,0,0.2,0.1,0.2,0.2
										c0,0.1,0,0.1-0.1,0.1l-1,0.8l0.4,1.2c0,0.1,0,0.2-0.1,0.2c0,0,0,0,0,0c0,0-0.1,0-0.2,0l-1.1-0.8l-1.1,0.8
										c-0.1,0.1-0.2,0.1-0.2,0c0,0,0-0.1,0-0.2l0.4-1.2l-1-0.8c-0.1-0.1-0.1-0.2,0-0.2c0,0,0.1-0.1,0.1-0.1h1.3l0.4-1.2
										C103.9,88.9,104,88.8,104.1,88.9C104.1,88.9,104.1,88.9,104.1,88.9z"/>
									<path id="bdc73e7e-fc39-499b-a69b-58225784ecec" class="st3" d="M104.1,95.3l0.4,1.2h1.3c0.1,0,0.2,0.1,0.2,0.2
										c0,0.1,0,0.1-0.1,0.1l-1,0.8l0.4,1.2c0,0.1,0,0.2-0.1,0.2c0,0-0.1,0-0.2,0l-1.1-0.8l-1.1,0.8c-0.1,0-0.2,0-0.2-0.1
										c0,0,0-0.1,0-0.2l0.4-1.2l-1-0.8c-0.1-0.1-0.1-0.2,0-0.2c0,0,0.1-0.1,0.1-0.1h1.3l0.4-1.2C103.9,95.3,104,95.2,104.1,95.3
										C104.1,95.3,104.1,95.3,104.1,95.3z"/>
									<path id="abc7bd6a-1d68-420f-bf7f-687c0fd83e34" class="st3" d="M109.1,72.8l0.4,1.2h1.3c0.1,0,0.2,0.1,0.2,0.2
										c0,0,0,0,0,0c0,0.1,0,0.1-0.1,0.1l-1,0.8l0.4,1.2c0,0.1,0,0.2-0.1,0.2c-0.1,0-0.1,0-0.2,0l-1-0.8l-1.1,0.8
										c-0.1,0.1-0.2,0.1-0.2,0c0,0,0-0.1,0-0.2l0.4-1.2l-1-0.8c-0.1-0.1-0.1-0.2,0-0.2c-0.1,0-0.1-0.1-0.1-0.1h1.3l0.4-1.2
										c0-0.1,0.1-0.1,0.2-0.1c0,0,0,0,0,0C109,72.7,109.1,72.7,109.1,72.8z"/>
									<path id="fbea6519-9fd1-4fda-9a0e-269297086636" class="st3" d="M109.1,79.2l0.4,1.2h1.3c0.1,0,0.2,0.1,0.2,0.2
										c0,0,0,0.1-0.1,0.1l-1,0.8l0.4,1.2c0,0.1,0,0.2-0.1,0.2c-0.1,0-0.1,0-0.2,0l-1-0.8L108,83c-0.1,0.1-0.2,0.1-0.2,0
										c0,0,0-0.1,0-0.2l0.4-1.2l-1-0.8c-0.1-0.1-0.1-0.2,0-0.2c0,0,0.1-0.1,0.1-0.1h1.3l0.4-1.2C109,79.2,109.1,79.2,109.1,79.2
										C109.1,79.2,109.1,79.2,109.1,79.2z"/>
									<path id="fbb91a8f-147b-4c52-ba57-e27cf8d5105a" class="st3" d="M109.1,85.7l0.4,1.3h1.3c0.1,0,0.2,0.1,0.2,0.2
										c0,0,0,0.1-0.1,0.1l-1,0.8l0.4,1.2c0,0.1,0,0.2-0.1,0.2c-0.1,0-0.1,0-0.2,0l-1-0.8l-1.1,0.8c-0.1,0.1-0.2,0.1-0.2,0
										c0,0,0-0.1,0-0.2L108,88l-1-0.8c-0.1-0.1-0.1-0.2,0-0.2h1.3l0.4-1.2c0-0.1,0.1-0.1,0.2-0.1C109,85.6,109.1,85.7,109.1,85.7
										z"/>
									<path id="be452cd6-d25e-4461-afe7-42577e897aa5" class="st3" d="M109.1,92.2l0.4,1.2h1.3c0.1,0,0.2,0.1,0.2,0.2
										c0,0,0,0.1-0.1,0.1l-1,0.8l0.4,1.2c0,0.1,0,0.2-0.1,0.2c-0.1,0-0.1,0-0.2,0l-1-0.8L108,96c-0.1,0.1-0.2,0.1-0.2,0
										c0,0,0-0.1,0-0.2l0.3-1.3l-1-0.8c-0.1-0.1-0.1-0.2,0-0.2c0,0,0.1-0.1,0.1-0.1h1.3l0.4-1.2c0-0.1,0.1-0.1,0.2-0.1
										C109.1,92.1,109.1,92.1,109.1,92.2z"/>
									<path id="bbc6200b-ed9d-4d65-ac36-5d2443c45203" class="st3" d="M109.1,98.6l0.4,1.2h1.3c0.1,0,0.2,0.1,0.2,0.2
										c0,0,0,0.1-0.1,0.1l-1,0.8l0.4,1.2c0,0.1,0,0.2-0.1,0.2c-0.1,0-0.1,0-0.2,0l-1-0.8l-1.1,0.8c-0.1,0.1-0.2,0.1-0.2,0
										c0,0,0-0.1,0-0.2l0.3-1.3l-1-0.8c-0.1-0.1-0.1-0.2,0-0.2c0,0,0.1-0.1,0.1-0.1h1.3l0.4-1.2C108.9,98.6,109,98.5,109.1,98.6
										C109.1,98.6,109.1,98.6,109.1,98.6C109.1,98.6,109.1,98.6,109.1,98.6z"/>
									<path id="b70891c5-27ab-483d-badc-142ce099965e" class="st3" d="M114.1,76l0.4,1.2h1.3c0.1,0,0.2,0.1,0.2,0.2c0,0,0,0,0,0
										c0,0.1,0,0.1-0.1,0.1l-1.1,0.8l0.4,1.2c0,0.1,0,0.2-0.1,0.2c0,0,0,0,0,0c0,0-0.1,0-0.2,0l-1-0.8l-1.1,0.8
										c-0.1,0.1-0.2,0.1-0.2,0c0-0.1,0-0.1,0-0.2l0.4-1.2l-1.1-0.8c-0.1-0.1-0.1-0.2,0-0.2c0,0,0.1-0.1,0.1-0.1h1.3l0.4-1.2
										c0-0.1,0.1-0.1,0.2-0.1C114.1,75.9,114.1,75.9,114.1,76z"/>
									<path id="ae7b7232-c89d-4abe-b828-97e28546a8b0" class="st3" d="M114.1,82.4l0.4,1.2h1.3c0.1,0,0.2,0.1,0.2,0.2
										c0,0,0,0.1-0.1,0.1l-1.1,0.8l0.4,1.2c0,0.1,0,0.2-0.1,0.2c0,0-0.1,0-0.2,0l-1-0.8l-1.1,0.8c-0.1,0.1-0.2,0.1-0.2,0
										c0,0,0-0.1,0-0.2l0.4-1.2L112,84c-0.1-0.1-0.1-0.2,0-0.2c0,0,0.1-0.1,0.1-0.1h1.3l0.4-1.2
										C113.9,82.4,113.9,82.3,114.1,82.4C114,82.3,114.1,82.3,114.1,82.4C114.1,82.4,114.1,82.4,114.1,82.4z"/>
									<path id="f0398785-7a36-44a9-a72a-592172bf5c68" class="st3" d="M114.1,88.9l0.4,1.2h1.3c0.1,0,0.2,0.1,0.2,0.2
										c0,0,0,0.1-0.1,0.1l-1.1,0.8l0.4,1.2c0,0.1,0,0.2-0.1,0.2c0,0-0.1,0-0.2,0l-1-0.8l-1.1,0.8c-0.1,0.1-0.2,0.1-0.2,0
										c0,0,0-0.1,0-0.2l0.4-1.2l-1.1-0.8c-0.1-0.1-0.1-0.2,0-0.2c0,0,0.1-0.1,0.1-0.1h1.3l0.4-1.2
										C113.9,88.8,114,88.8,114.1,88.9C114.1,88.8,114.1,88.8,114.1,88.9z"/>
									<path id="acd16dff-c264-4c76-8f9b-fba864ffdc5a" class="st3" d="M114.1,95.3l0.4,1.2h1.3c0.1,0,0.2,0.1,0.2,0.2
										c0,0,0,0,0,0c0,0.1,0,0.1-0.1,0.1l-1.1,0.8l0.4,1.2c0,0.1,0,0.2-0.1,0.2c0,0,0,0,0,0c0,0-0.1,0-0.2,0l-1-0.8l-1.1,0.8
										c-0.1,0.1-0.2,0-0.2-0.1c0,0,0-0.1,0-0.2l0.4-1.2l-1.1-0.8c-0.1-0.1-0.1-0.2,0-0.2c0,0,0.1-0.1,0.1-0.1h1.3l0.4-1.2
										C113.9,95.3,114,95.2,114.1,95.3C114.1,95.3,114.1,95.3,114.1,95.3z"/>
									<path id="ab521f07-1aab-4756-ab0a-6340310b67c8" class="st3" d="M119.1,72.8l0.4,1.2h1.3c0.1,0,0.2,0.1,0.2,0.2
										c0,0,0,0,0,0c0,0.1,0,0.1-0.1,0.1l-1,0.8l0.4,1.2c0,0.1,0,0.2-0.1,0.2c0,0-0.1,0-0.2,0l-1.1-0.8l-1.1,0.8
										c-0.1,0.1-0.2,0.1-0.2,0c0,0,0-0.1,0-0.2l0.4-1.2l-1-0.8c-0.1-0.1-0.1-0.2,0-0.2c0,0,0.1-0.1,0.1-0.1h1.3l0.4-1.2
										C118.9,72.7,119,72.7,119.1,72.8C119.1,72.7,119.1,72.7,119.1,72.8C119.1,72.7,119.1,72.8,119.1,72.8z"/>
									<path id="beb8bb06-8de7-4d18-822d-bb2da08d3ce6" class="st3" d="M119.1,79.2l0.4,1.2h1.3c0.1,0,0.2,0.1,0.2,0.2
										c0,0,0,0.1-0.1,0.1l-1,0.8l0.4,1.2c0,0.1,0,0.2-0.1,0.2c0,0-0.1,0-0.2,0l-1.1-0.8l-1.1,0.7c-0.1,0.1-0.2,0.1-0.2,0
										c0,0,0-0.1,0-0.2l0.4-1.2l-1-0.8c-0.1-0.1-0.1-0.2,0-0.2c0,0,0.1-0.1,0.1-0.1h1.3l0.4-1.2C118.9,79.2,119,79.1,119.1,79.2
										C119.1,79.2,119.1,79.2,119.1,79.2z"/>
									<path id="e00e1bdd-8f31-44ec-ac2f-16ac4c9865dd" class="st3" d="M119.1,85.7l0.4,1.2h1.3c0.1,0,0.2,0.1,0.2,0.2
										c0,0,0,0.1-0.1,0.1l-1,0.8l0.4,1.2c0,0.1,0,0.2-0.1,0.2c0,0-0.1,0-0.2,0l-1.1-0.8l-1.1,0.8c-0.1,0.1-0.2,0.1-0.2,0
										c0,0,0-0.1,0-0.2L118,88l-1-0.8c-0.1-0.1-0.1-0.2,0-0.2c0,0,0.1-0.1,0.1-0.1h1.3l0.4-1.2c0-0.1,0.1-0.1,0.2-0.1
										C119.1,85.6,119.1,85.7,119.1,85.7z"/>
									<path id="e28ec97a-9639-4b04-ad52-c530a9abc86a" class="st3" d="M119.1,92.2l0.4,1.2h1.3c0.1,0,0.2,0.1,0.2,0.2
										c0,0,0,0.1-0.1,0.1l-1,0.8l0.4,1.2c0,0.1,0,0.2-0.1,0.2c0,0-0.1,0-0.2,0l-1.1-0.8l-1.1,0.8c-0.1,0.1-0.2,0.1-0.2,0
										c0,0,0-0.1,0-0.2l0.3-1.3l-1-0.8c-0.1-0.1-0.1-0.2,0-0.2c0,0,0.1-0.1,0.1-0.1h1.3l0.4-1.2c0-0.1,0.1-0.1,0.2-0.1
										C119.1,92.1,119.1,92.1,119.1,92.2z"/>
									<path id="f420e1cc-2659-483a-bb79-60673d303610" class="st3" d="M119.1,98.6l0.4,1.2h1.3c0.1,0,0.2,0.1,0.2,0.2
										c0,0,0,0.1-0.1,0.1l-1,0.8l0.4,1.2c0,0.1,0,0.2-0.1,0.2c0,0-0.1,0-0.2,0l-1.1-0.8l-1.1,0.8c-0.1,0.1-0.2,0.1-0.2,0
										c0,0,0-0.1,0-0.2l0.3-1.3l-1-0.8c-0.1-0.1-0.1-0.2,0-0.2c0,0,0.1-0.1,0.1-0.1h1.3l0.4-1.2C118.9,98.6,119,98.5,119.1,98.6
										C119.1,98.6,119.1,98.6,119.1,98.6C119.1,98.6,119.1,98.6,119.1,98.6z"/>
									<path id="e1df58c9-bdfe-45c9-8904-2aaea8bc5ce9" class="st3" d="M124.1,76l0.4,1.2h1.3c0.1,0,0.2,0.1,0.2,0.2c0,0,0,0,0,0
										c0,0.1,0,0.1-0.1,0.1l-1,0.8l0.4,1.2c0,0.1,0,0.2-0.1,0.2c0,0,0,0,0,0c-0.1,0-0.1,0-0.2,0L124,79l-1,0.8
										c-0.1,0.1-0.2,0.1-0.2,0c0-0.1,0-0.1,0-0.2l0.4-1.2l-1.1-0.8c-0.1-0.1-0.1-0.2,0-0.2c0,0,0,0,0,0c0,0,0.1-0.1,0.1-0.1h1.3
										l0.4-1.2c0-0.1,0.1-0.1,0.2-0.1C124.1,75.9,124.1,75.9,124.1,76z"/>
									<path id="b8e4be96-364d-4677-b778-c75ea3c8a016" class="st3" d="M124.1,82.4l0.4,1.2h1.3c0.1,0,0.2,0.1,0.2,0.2
										c0,0,0,0,0,0c0,0.1,0,0.1,0,0.2l-1,0.8l0.3,1.2c0,0.1,0,0.2-0.1,0.2c-0.1,0-0.1,0-0.2,0l-1-0.8l-1,0.8
										c-0.1,0.1-0.2,0.1-0.2,0c0,0,0-0.1,0-0.2l0.4-1.2L122,84c-0.1-0.1-0.1-0.2,0-0.3c0,0,0.1-0.1,0.1-0.1h1.3l0.4-1.2
										c0-0.1,0.1-0.1,0.2-0.1C124,82.3,124,82.3,124.1,82.4C124.1,82.4,124.1,82.4,124.1,82.4z"/>
									<path id="bd80db3a-cb6e-4d5b-9aa9-dc7553314040" class="st3" d="M124.1,88.9l0.4,1.2h1.3c0.1,0,0.2,0.1,0.2,0.2
										c0,0,0,0,0,0c0,0,0,0.1-0.1,0.1l-1,0.8l0.4,1.2c0,0.1,0,0.2-0.1,0.2c-0.1,0-0.1,0-0.2,0l-1.1-0.8l-1,0.8
										c-0.1,0.1-0.2,0.1-0.2,0c0,0,0-0.1,0-0.2l0.4-1.2l-1.1-0.8c-0.1-0.1-0.1-0.2,0-0.2c0,0,0.1-0.1,0.1-0.1h1.3l0.4-1.2
										c0-0.1,0.1-0.1,0.2-0.1C124.1,88.8,124.1,88.8,124.1,88.9z"/>
									<path id="ba11a24c-71e7-4e20-a283-2d063ecdfc80" class="st3" d="M124.1,95.3l0.4,1.2h1.3c0.1,0,0.2,0.1,0.2,0.2
										c0,0,0,0,0,0c0,0.1,0,0.1-0.1,0.1l-1,0.8l0.4,1.2c0,0.1,0,0.2-0.1,0.2c-0.1,0-0.1,0-0.2,0l-1.1-0.8l-1,0.8
										c-0.1,0.1-0.2,0-0.2-0.1c0,0,0-0.1,0-0.2l0.4-1.2l-1.1-0.8c-0.1-0.1-0.1-0.2,0-0.2c0,0,0,0,0,0c0,0,0.1-0.1,0.1-0.1h1.3
										l0.4-1.2C123.9,95.3,124,95.2,124.1,95.3C124.1,95.3,124.1,95.3,124.1,95.3z"/>
									<path id="e0a5b682-40c0-4e2b-82d7-b3c1e98d2db3" class="st3" d="M129.2,72.8l0.4,1.2h1.3c0.1,0,0.2,0.1,0.2,0.2
										c0,0,0,0.1-0.1,0.1l-1,0.8l0.4,1.2c0,0.1,0,0.2-0.1,0.2c0,0,0,0,0,0c0,0-0.1,0-0.1,0l-1.1-0.8l-1.1,0.8
										c-0.1,0.1-0.2,0.1-0.2,0c0,0,0,0,0,0c0,0,0-0.1,0-0.2l0.4-1.2l-1-0.8c-0.1-0.1-0.1-0.2,0-0.2c0,0,0.1-0.1,0.1-0.1h1.3
										l0.4-1.2C129,72.7,129,72.7,129.2,72.8C129.1,72.7,129.1,72.7,129.2,72.8C129.2,72.7,129.2,72.8,129.2,72.8z"/>
									<path id="b437bf2b-5542-4794-9a56-b7c2f486033d" class="st3" d="M129.2,79.2l0.4,1.2h1.3c0.1,0,0.2,0.1,0.2,0.2
										c0,0,0,0.1-0.1,0.1l-1,0.8l0.4,1.2c0,0.1,0,0.2-0.1,0.2c0,0-0.1,0-0.1,0l-1.1-0.8l-1.1,0.8c-0.1,0.1-0.2,0.1-0.2,0
										c0,0,0,0,0,0c0,0,0-0.1,0-0.2l0.4-1.2l-1-0.8c-0.1-0.1-0.1-0.2,0-0.2c0,0,0.1-0.1,0.1-0.1h1.3l0.4-1.2
										C129,79.2,129.1,79.2,129.2,79.2C129.2,79.2,129.2,79.2,129.2,79.2z"/>
									<path id="fc67a9a7-ba74-45cd-9d8f-aeccf3102443" class="st3" d="M129.2,85.7l0.4,1.2h1.3c0.1,0,0.2,0.1,0.2,0.2
										c0,0,0,0.1-0.1,0.1l-1,0.8l0.4,1.2c0,0.1,0,0.2-0.1,0.2c0,0,0,0,0,0c0,0-0.1,0-0.1,0l-1.1-0.8l-1.1,0.8
										c-0.1,0.1-0.2,0.1-0.2,0c0,0,0-0.1,0-0.2l0.4-1.2l-1-0.8c-0.1-0.1-0.1-0.2,0-0.2c0,0,0.1-0.1,0.1-0.1h1.3l0.4-1.2
										C129,85.7,129.1,85.6,129.2,85.7C129.2,85.7,129.2,85.7,129.2,85.7z"/>
									<path id="aaf6b0ea-2244-4307-b7e0-204eac7ee188" class="st3" d="M129.2,92.2l0.4,1.2h1.3c0.1,0,0.2,0.1,0.2,0.2
										c0,0,0,0.1-0.1,0.1l-1,0.8l0.4,1.2c0,0.1,0,0.2-0.1,0.2c0,0,0,0,0,0c0,0-0.1,0-0.1,0l-1.1-0.8l-1.1,0.8
										c-0.1,0.1-0.2,0.1-0.2,0c0,0,0,0,0,0c0,0,0-0.1,0-0.2l0.4-1.2l-1-0.8c-0.1-0.1-0.1-0.2,0-0.2c0,0,0.1-0.1,0.1-0.1h1.3
										l0.4-1.2C129,92.1,129.1,92.1,129.2,92.2c0.1,0,0.1,0,0.1,0.1L129.2,92.2z"/>
									<path id="fc609025-bcb6-4ff3-a939-9b1b8dcb67e6" class="st3" d="M129.2,98.6l0.4,1.2h1.3c0.1,0,0.2,0.1,0.2,0.2
										c0,0,0,0.1-0.1,0.1l-1,0.8l0.4,1.2c0,0.1,0,0.2-0.1,0.2c0,0,0,0,0,0c0,0-0.1,0-0.1,0l-1.1-0.8l-1.1,0.8
										c-0.1,0.1-0.2,0.1-0.2,0c0,0,0,0,0,0c0,0,0-0.1,0-0.2l0.4-1.2l-1-0.8c-0.1-0.1-0.1-0.2,0-0.2c0,0,0.1-0.1,0.1-0.1h1.3
										l0.4-1.2C129,98.6,129.1,98.6,129.2,98.6C129.2,98.6,129.2,98.6,129.2,98.6C129.2,98.6,129.2,98.6,129.2,98.6z"/>
								</g>
							</g>
							<path id="e7b8f722-6a7a-447b-9a85-24a880497deb" class="st15" d="M84.7,67.9H132c1.7,0,3.1,1.4,3.1,3.1v90
								c0,1.7-1.4,3.1-3.1,3.1H84.7c-1.7,0-3.1-1.4-3.1-3.1V71C81.6,69.3,82.9,67.9,84.7,67.9z"/>
						</g>
					</g>
				</g>
			</g>
		</g>
		<path id="b7cd4bce-9d3a-458f-ae92-36b5f7aef914" class="st21" d="M119.6,123.5V123c0-4.5-2.9-8.5-7.2-9.9v-4.1h-7.2v4.1
			c-5.4,1.7-8.5,7.5-6.8,12.9c0,0,0,0,0,0.1l0,0c0.8,2.7,2.7,4.9,5.2,6.1l7,3.5c1.5,0.8,2.2,2.6,1.4,4.1c-0.5,1.1-1.6,1.7-2.8,1.7
			h-1.1c-1.7,0-3.1-1.4-3.1-3.1V138h-7.2v0.5c0,4.5,2.9,8.5,7.2,9.9v4.1h7.2v-4.1c5.4-1.7,8.5-7.5,6.8-12.9c0,0,0,0,0,0l0,0
			c-0.8-2.7-2.7-4.9-5.2-6.2l-7-3.5c-1.5-0.8-2.1-2.6-1.4-4.1c0,0,0,0,0,0l0,0c0.5-1,1.6-1.7,2.8-1.7h1c1.7,0,3.1,1.4,3.1,3.1v0.5
			L119.6,123.5z"/>
		<path id="bd613b89-d1cf-4d7b-ab96-4f04ad60e07c" class="st25" d="M58.4,142.6l4.9-4.9v-22c0-4,3.3-7.3,7.3-7.3l0,0h9.8v9.8
			l6.1-6.1c2.1-1.9,5.4-1.8,7.3,0.3c1.8,2,1.8,5,0,7l-11,11c5.4,5.4,5.4,14.1,0,19.5l0,0l-12.2,12.2L58.4,142.6z"/>
		<path id="effbb97a-4e16-45ab-9274-15b55630f8f4" class="st26" d="M75.5,119.6l1.4-1.4c1-1,2.5-1,3.4,0l0,0c1,0.9,1,2.5,0,3.4
			c0,0,0,0,0,0l-1.4,1.4c-1,0.9-2.5,0.9-3.5,0l0,0C74.6,122.1,74.6,120.6,75.5,119.6z"/>
		<path id="f166cdd4-2307-405d-949b-fa1c5f7c2c92" class="st27" d="M34,150.2l19.7-12.5c0.7-0.5,1.7-0.2,2.2,0.5l16.8,26.4
			c0.5,0.7,0.2,1.7-0.5,2.2l-19.7,12.5c-0.7,0.5-1.7,0.2-2.2-0.5l-16.8-26.4C33.1,151.6,33.3,150.6,34,150.2z"/>
		<path id="ee4a481d-0f07-4e54-acec-19b246e26cff" class="st28" d="M54.4,165.4l-1.4-2.2c-0.8-1.2-0.4-2.9,0.8-3.6c0,0,0,0,0,0l0,0
			c1.2-0.8,2.9-0.4,3.7,0.8l0,0l1.4,2.2c0.8,1.2,0.4,2.8-0.8,3.6c0,0,0,0,0,0l0,0C56.9,167,55.2,166.7,54.4,165.4
			C54.4,165.5,54.4,165.5,54.4,165.4L54.4,165.4z"/>
		<path id="eb23d81d-2bc8-4ef8-9a9b-e9999244339b" class="st29" d="M180.4,97.4l-7.6-28.7c-0.2-0.6-0.8-0.9-1.4-0.8c0,0,0,0,0,0
			c-0.2,0.1-0.4,0.2-0.6,0.3l-6.6,7.6c-13.4-10.7-31.7-4.1-39.9,5.1l0,0c-0.4,0.5-0.4,1.2,0.1,1.6l0,0c0.5,0.4,1.2,0.3,1.6-0.1l0,0
			c2.1-2.2,19.4-4.2,29.5,3.5l-6.5,7.6c-0.4,0.5-0.4,1.2,0.1,1.6c0.2,0.2,0.4,0.2,0.6,0.3l29.5,3.5c0.6,0.1,1.2-0.4,1.2-1
			c0,0,0,0,0,0l0,0C180.5,97.7,180.5,97.6,180.4,97.4z"/>
	</g>
</g>
</svg>
