<?xml version="1.0" encoding="utf-8"?>
<!-- Generator: Adobe Illustrator 26.0.1, SVG Export Plug-In . SVG Version: 6.00 Build 0)  -->
<svg version="1.1" id="f254ae95-0176-4faf-9f7f-7a324ae4214a"
	 xmlns="http://www.w3.org/2000/svg" xmlns:xlink="http://www.w3.org/1999/xlink" x="0px" y="0px" viewBox="0 0 283.5 283.5"
	 style="enable-background:new 0 0 283.5 283.5;" xml:space="preserve">
<style type="text/css">
	.st0{clip-path:url(#SVGID_00000139985927050208038960000013453667207137198251_);}
	.st1{fill:#6DA12F;}
	.st2{fill:#F2F3F4;}
	.st3{fill:#E93546;}
	.st4{fill:#FFC739;}
	.st5{fill:#35AE8A;}
	.st6{fill:#009CD5;}
	.st7{fill:#5F202A;}
	.st8{fill:#A7C84D;}
	.st9{fill:#73303F;}
	.st10{fill:#642C36;}
	.st11{fill:#FFD942;}
	.st12{fill:#FCA263;}
	.st13{fill:#883949;}
	.st14{opacity:0.5;fill:#FFFFFF;enable-background:new    ;}
	.st15{opacity:0.3;fill:#1A1818;enable-background:new    ;}
	.st16{fill:#FFA419;}
	.st17{fill:#F16322;}
	.st18{fill:#FE9D2B;}
	.st19{fill:#E50019;}
	.st20{fill:#1A1818;}
	.st21{fill:#00A1ED;}
	.st22{clip-path:url(#SVGID_00000035516382952317976740000010163270415938628768_);}
	.st23{fill:#22388B;}
	.st24{fill:#E7A166;}
	.st25{fill:#C58B59;}
	.st26{fill:#34646C;}
	.st27{fill:#203040;}
	.st28{fill:#E0007A;}
	.st29{fill:#313133;}
</style>
<g>
	<g id="bd214e3f-0e29-4499-8e10-6e594aea8c2b">
		<g id="bbfe6222-7f9e-4ac6-b5a6-af8d76479e3b">
			<g id="e833a82c-7aa1-49e7-b626-ed4e9f750f08">
				<g>
					<defs>
						<path id="SVGID_1_" d="M161.2,82.2H258c4.6,0,8.4,3.8,8.4,8.4l0,0v54.7c0,4.6-3.8,8.4-8.4,8.4h-96.8c-4.6,0-8.4-3.8-8.4-8.4
							V90.6C152.8,86,156.6,82.2,161.2,82.2z"/>
					</defs>
					<clipPath id="SVGID_00000078749252676542219620000013473570564490151305_">
						<use xlink:href="#SVGID_1_"  style="overflow:visible;"/>
					</clipPath>
					<g style="clip-path:url(#SVGID_00000078749252676542219620000013473570564490151305_);">
						<g id="b58837b7-42db-43ef-82d9-016bcc1a22f5">
							<g id="eecb8fae-08c4-499f-a2e4-290f0f43f523">
								<path id="b3920c8f-3252-4665-9f75-7ee23212fd8a" class="st1" d="M190.8,155h-35.7c-1.1,0-1.9-0.9-1.9-2l0,0V82.9
									c0-1.1,0.8-2,1.9-2c0,0,0,0,0,0h35.8L190.8,155z"/>
								<rect id="e1eba225-d125-4ca3-84a9-d3fb64a9be66" x="190.8" y="80.9" class="st2" width="37.7" height="74"/>
								<path id="b817adff-b461-45e2-85e8-97fc21600aae" class="st3" d="M264.1,155h-35.7V81h35.7c1.1,0,2,0.9,2,2v70
									C266.1,154.1,265.3,155,264.1,155z"/>
								<g id="bc784eca-b26b-4c39-a992-8abde8c0e1b6">
									<path id="a2486f7b-6e61-4ce8-8cf6-c3df520bccd8" class="st4" d="M213,119.7l-3.4,1.7v1.6h1.7L213,119.7z"/>
									<g id="beb63c2c-e1c3-43bd-b1f8-82d205cbc6f3">
										<path id="a085ae13-ae62-4c1d-b451-70e5cf6dfe3e" class="st5" d="M209.6,127.2c-0.5,0-0.8-0.4-0.8-0.8v-3.4
											c0-0.5,0.4-0.8,0.8-0.8c0.5,0,0.8,0.4,0.8,0.8v3.4C210.5,126.9,210.1,127.2,209.6,127.2
											C209.6,127.2,209.6,127.2,209.6,127.2L209.6,127.2z"/>
										<path id="a4dfb74b-dbbe-4071-869a-a5213c6f0b59" class="st5" d="M209.6,123.9c-3.3,0-6.6-1.3-9-3.6
											c-0.3-0.3-0.4-0.8-0.1-1.2l0,0c0.3-0.3,0.9-0.3,1.2,0c0,0,0,0,0,0l0,0c4.4,4.2,11.3,4.2,15.6,0c0.3-0.3,0.9-0.3,1.2,0
											c0,0,0,0,0,0l0,0c0.3,0.3,0.3,0.9,0,1.2l0,0C216.2,122.6,213,123.9,209.6,123.9z"/>
									</g>
									<path id="fe54a21c-f06c-49bb-9eff-a27588a44324" class="st6" d="M209.6,127.2c-2.1,0-4.2-0.6-6-1.8l0.9-1.4
										c3.1,2,7.1,2,10.2,0l0.9,1.4C213.9,126.6,211.8,127.3,209.6,127.2z"/>
									<path id="bafd503b-34de-49e5-9c43-0c1a7e97046f" class="st7" d="M208.3,115.9l-1.9,2.9l-0.3,1l4.8-1.1L208.3,115.9z"/>
									<path id="b545fa43-000c-49e2-8201-4e08e9a309db" class="st8" d="M204.5,120.7c-2.2,0-4.9-1.9-5.6-6l1.7-0.3
										c0.6,3.5,2.7,4.7,4,4.6c0.4,0,0.8-0.1,0.8-0.4s0-0.4-0.8-0.7c-0.5-0.1-1-0.4-1.4-0.8c-1.5-1.8,0.5-3.6,1.5-4.5
										c0.2-0.2,0.2-0.3,0.2-0.3c-0.2-0.2-0.5-0.4-0.8-0.4c-1,0.1-1.9-0.6-2.1-1.6c-0.3-1,0.2-2,1.1-2.5l0.8,1.5
										c-0.2,0.1-0.3,0.4-0.2,0.6c0,0.1,0.1,0.3,0.5,0.3c1,0,1.9,0.5,2.3,1.4c0.3,0.8,0,1.7-0.7,2.2c-1.1,1-1.8,1.7-1.4,2.1
										c0.2,0.1,0.4,0.2,0.7,0.3c0.8,0.3,2.2,0.7,2,2.5c-0.2,1.2-1.3,2-2.5,1.9L204.5,120.7z"/>
									<path id="b30c8d43-9545-49d6-99e0-836d2ab5cef5" class="st9" d="M211.3,111.3c1-1.8,0.3-4-1.5-5c0,0,0,0,0,0l0,0l-0.1-0.1
										c0,0,11.8-1.7,10.1,13.4l0,0c-1.3-1-2.5-2.3-3.3-3.8l-5.1-2.9L211.3,111.3L211.3,111.3z"/>
									<path id="b206c90a-ab18-4501-88cf-ba42bc61373f" class="st7" d="M209.6,114.7l8.4,5l-3.4,1.7l-5-5L209.6,114.7z"/>
									<path id="bde986d9-7f2d-449b-a533-b4259641c4fc" class="st10" d="M206.3,109.6L206.3,109.6c0.9,0,1.7,0.7,1.7,1.7l0,0
										c-1,1-1.3,2.5-0.6,3.8l0.4,0.8c0.2,0.3,0.4,0.6,0.6,0.8l4.7,4.7V119c0-2.9-0.7-5.7-2-8.3l0,0c-0.8-1.7-2.6-2.8-4.5-2.8
										h-0.2L206.3,109.6L206.3,109.6L206.3,109.6z"/>
									<path id="a0fccb4c-787a-426d-b0bf-46da6441cd19" class="st4" d="M206.3,107.9l-1.7,1.7v1.7l2.7-1.3
										c0.3-0.1,0.4-0.5,0.3-0.8c0,0,0,0,0,0l0,0c0-0.1-0.1-0.1-0.2-0.2L206.3,107.9z"/>
									<path id="adbcfa07-cb54-49f7-be97-6a481f78ba28" class="st8" d="M209.6,130.6c-7.9,0-14.3-6.4-14.3-14.3h1.7
										c0.2,7,6,12.4,12.9,12.2c6.7-0.2,12.1-5.6,12.2-12.2h1.7C223.8,124.2,217.5,130.6,209.6,130.6z"/>
									<g id="b8ddf4f8-8a8e-49e2-b5ec-178241775f28">
										<circle id="bc22a866-aed5-41d3-977b-22d15392f781" class="st11" cx="197.1" cy="121.3" r="1.1"/>
										<circle id="f6b4bd5a-7af3-4c5d-a75f-fefffac6b182" class="st11" cx="199.6" cy="125.3" r="1.1"/>
										<circle id="f6de6bdd-3e74-4f43-a42c-c37ed07e98bd" class="st11" cx="203.7" cy="128.4" r="1.1"/>
										<circle id="a259428c-de9f-4297-ac3b-b7cceb5cac41" class="st11" cx="222.2" cy="121.3" r="1.1"/>
										<circle id="b2d199d8-ddc0-4096-8a6f-99d31b09a4d7" class="st11" cx="219.7" cy="125.3" r="1.1"/>
										<circle id="b66e8a19-7c5e-432b-9a77-fded3b5d7748" class="st11" cx="215.6" cy="128.4" r="1.1"/>
									</g>
									<path id="a3732c4e-e00b-4aed-9fbc-aace46338016" class="st12" d="M210.4,128.1h-1.7c-0.9,0-1.7-0.7-1.7-1.7l0,0
										c0-0.9,0.7-1.7,1.7-1.7h1.7c0.9,0,1.7,0.7,1.7,1.7l0,0C212.1,127.3,211.4,128.1,210.4,128.1z"/>
									<path id="b332f8df-81b9-4099-9cb4-9a046088d0f1" class="st13" d="M216.4,115.9c0.5,1.7,1.7,3,3.3,3.8l0,0
										c1.7-15.1-10.1-13.4-10.1-13.4C218,106.3,216.4,115.9,216.4,115.9z"/>
								</g>
							</g>
							<path id="ec0a278f-aa12-426e-93cf-c7a94681f24f" class="st14" d="M163.2,80h92.1c7.1,0,12.9,5.8,12.9,12.9v51.4
								c0,7.1-5.8,12.9-12.9,12.9h-92.1c-7.1,0-12.9-5.8-12.9-12.9V92.9C150.3,85.8,156.1,80,163.2,80z"/>
						</g>
					</g>
				</g>
			</g>
			<path id="aae63049-eaef-4ba3-9b70-5d65f313e78f" class="st15" d="M258,82.2h-1.7c-19.9,35.3-57,59.5-79.6,71.5H258
				c4.6,0,8.4-3.8,8.4-8.4l0,0V90.6C266.4,86,262.6,82.2,258,82.2z"/>
			<rect id="e46daaee-42be-4bd1-8f43-53bf08f9e403" x="160.1" y="91.2" class="st16" width="21" height="16.8"/>
			<g id="a667f6b9-b2a2-4035-9501-d9ebdc1b024b">
				<rect id="aea7cefc-f0f8-403a-89ca-6939f8a19c53" x="160.1" y="97.5" class="st17" width="6.3" height="4.2"/>
				<rect id="b867ca21-841d-4af1-b134-80b24497eebc" x="174.9" y="97.5" class="st17" width="6.3" height="4.2"/>
			</g>
			
				<ellipse id="ab3e6bc9-5f3c-4515-b02e-478a7ee4ef9c" transform="matrix(0.3163 -0.9487 0.9487 0.3163 42.121 333.419)" class="st18" cx="252.4" cy="137.5" rx="9" ry="9"/>
			<circle id="abdfe0dd-99ae-41bb-af08-6f9f47ffc0cf" class="st19" cx="241.6" cy="137.5" r="9"/>
			<g id="a5a861ac-636c-42d0-aba2-8db90577c096">
				<rect id="f60ee1db-34e3-406a-8a9a-420e4432c2b4" x="161.2" y="133" class="st20" width="12.6" height="4.2"/>
				<rect id="f7764e12-04d8-4ca8-91ec-84aeaf5bd8c2" x="182.3" y="133" class="st20" width="12.6" height="4.2"/>
				<rect id="ed57abb4-4a07-4cd6-be6c-187e5711ea1c" x="203.3" y="133" class="st20" width="12.6" height="4.2"/>
				<rect id="b4adc3ab-0651-4577-9292-6ead0faa5884" x="161.2" y="142.3" class="st20" width="54.7" height="4.2"/>
				<rect id="ee5c22e9-efc7-4005-8e50-d0c2a69fdbba" x="230.8" y="91.6" class="st20" width="4.2" height="8.4"/>
				<rect id="f0dec0c3-40e8-4a26-8f94-854b93902582" x="239.2" y="91.6" class="st20" width="4.2" height="8.4"/>
				<rect id="a04cf7a7-7ff7-4820-ad93-b3b0c58a636c" x="247.6" y="91.6" class="st20" width="4.2" height="8.4"/>
				<rect id="f1f5380e-25aa-45d5-861c-cdb327aecb27" x="256.1" y="91.6" class="st20" width="4.2" height="8.4"/>
			</g>
		</g>
	</g>
	<path id="be0927c9-f5e4-4617-86e1-5bccdf120527" class="st21" d="M79.6,35.4h57.1c3.1,0,5.6,2.5,5.6,5.6v110.3
		c0,3.1-2.5,5.6-5.6,5.6H79.6c-3.1,0-5.6-2.5-5.6-5.6V41C74.1,37.9,76.5,35.4,79.6,35.4z"/>
	<g id="bf97312a-be67-4d93-97f2-8cd6a702e9e1">
		<g>
			<defs>
				<path id="SVGID_00000057852593832016958910000017204823630539848873_" d="M82.8,40.8h50.8c2,0,3.7,1.7,3.7,3.7v103.2
					c0,2-1.7,3.7-3.7,3.7H82.8c-2,0-3.7-1.7-3.7-3.7V44.5C79,42.4,80.7,40.8,82.8,40.8z"/>
			</defs>
			<clipPath id="SVGID_00000177460552962727076830000006675672476230335136_">
				<use xlink:href="#SVGID_00000057852593832016958910000017204823630539848873_"  style="overflow:visible;"/>
			</clipPath>
			<g style="clip-path:url(#SVGID_00000177460552962727076830000006675672476230335136_);">
				<g id="fc10cb2f-7a28-4cf5-9d53-4175f25afd60">
					<g id="a3876fa9-c9b4-4725-b418-06a9a1294817">
						<path id="a3cd45c5-9232-44ce-9783-c679256edde7" class="st2" d="M249.3,153.7H81.5c-1.7,0-3-1.3-3-3l0,0V42.8c0-1.7,1.3-3,3-3
							h167.8c1.7,0,3,1.3,3,3l0,0v107.9C252.3,152.3,251,153.7,249.3,153.7L249.3,153.7z"/>
						<g id="f36ed38c-a891-49b8-b1ca-d0cb539167c4">
							<path id="f2ae775c-1295-420e-9d0c-61d7822b5933" class="st3" d="M252.3,48.5H78.5v-5.8c0-1.7,1.3-3,3-3h167.8
								c1.7,0,3,1.3,3,3l0,0L252.3,48.5L252.3,48.5z"/>
							<rect id="bc84ad8c-7f57-4e23-8bff-aa3583beb403" x="78.5" y="74.8" class="st3" width="173.8" height="8.8"/>
							<rect id="baf4cd42-cef4-4196-b0d7-555194e49841" x="78.5" y="57.3" class="st3" width="173.8" height="8.8"/>
							<path id="f5d8beb6-6afd-4a41-8706-fe3c8bf711bc" class="st3" d="M252.3,101.1H81.5c-1.7,0-3-1.3-3-3l0,0v-5.8h173.8V101.1z"
								/>
							<rect id="f989c822-e748-4632-bb82-2078e4be3448" x="78.5" y="127.4" class="st3" width="173.8" height="8.8"/>
							<path id="a93d8f39-3858-4757-afd0-346dda073d44" class="st3" d="M249.3,153.7H81.5c-1.7,0-3-1.3-3-3l0,0v-5.8h173.8v5.8
								C252.3,152.3,251,153.7,249.3,153.7z"/>
							<rect id="b266d35f-290d-4d67-9c33-31c23e31e3da" x="78.5" y="109.9" class="st3" width="173.8" height="8.8"/>
						</g>
						<g id="febd4cd2-5def-41d1-8de7-e6279eac1d75">
							<path id="a8dddb77-14f4-4d79-be12-a1283ae54558" class="st23" d="M136.2,39.8H80.7c-1.2,0-2.2,1-2.2,2.2c0,0,0,0,0,0l0,0v41
								c0,1.2,1,2.2,2.2,2.2c0,0,0,0,0,0h55.5c1.2,0,2.2-1,2.2-2.2l0,0V42C138.4,40.8,137.4,39.8,136.2,39.8z"/>
							<g id="b6f1e502-8fb3-49bd-81fa-1b2f46d68874">
								<path id="bc57b924-9cdd-4eda-949b-ceaa602b03d1" class="st2" d="M84.7,44.9l0.5,1.5h1.6c0.1,0,0.2,0.1,0.2,0.2
									c0,0.1,0,0.1-0.1,0.2l-1.2,0.9l0.5,1.5c0,0.1,0,0.2-0.1,0.3c-0.1,0-0.1,0-0.2,0l-1.3-0.9l-1.3,0.9c-0.1,0.1-0.2,0.1-0.3,0
									l0,0c0-0.1,0-0.1,0-0.2l0.5-1.5l-1.2-0.9c-0.1-0.1-0.1-0.2,0-0.3c0,0,0.1-0.1,0.2-0.1h1.5l0.5-1.5c0-0.1,0.2-0.2,0.3-0.1
									C84.6,44.8,84.7,44.8,84.7,44.9z"/>
								<path id="bd745df3-f437-4fc3-b9db-a4931a9240d2" class="st2" d="M84.7,52.6l0.5,1.5h1.6c0.1,0,0.2,0.1,0.2,0.2
									c0,0.1,0,0.1-0.1,0.2l-1.2,0.9l0.5,1.5c0,0.1,0,0.2-0.1,0.3c-0.1,0-0.1,0-0.2,0l-1.3-0.9l-1.3,0.9c-0.1,0.1-0.2,0.1-0.3,0
									c0-0.1,0-0.1,0-0.2l0.5-1.5l-1.2-0.9c-0.1-0.1-0.1-0.2,0-0.3c0-0.1,0.1-0.1,0.2-0.1h1.5l0.5-1.5c0-0.1,0.2-0.2,0.3-0.1
									C84.6,52.5,84.7,52.5,84.7,52.6z"/>
								<path id="ada69542-ba75-499c-8bb5-a43908c29df8" class="st2" d="M84.7,60.3l0.5,1.5h1.6c0.1,0,0.2,0.1,0.2,0.2c0,0,0,0,0,0
									l0,0c0,0.1,0,0.1-0.1,0.2l-1.2,0.9l0.5,1.5c0,0.1,0,0.2-0.1,0.3c-0.1,0-0.1,0-0.2,0l-1.3-0.9l-1.3,0.9
									c-0.1,0.1-0.2,0.1-0.3,0c0-0.1,0-0.1,0-0.2l0.5-1.5l-1.2-0.9c-0.1-0.1-0.1-0.2,0-0.3c0-0.1,0.1-0.1,0.2-0.1h1.5l0.5-1.5
									c0-0.1,0.1-0.2,0.2-0.1c0,0,0,0,0,0l0,0C84.6,60.2,84.7,60.2,84.7,60.3z"/>
								<path id="b2163988-785a-4e59-bccd-7af6a375256e" class="st2" d="M84.7,68l0.5,1.5h1.6c0.1,0,0.2,0.1,0.2,0.2c0,0,0,0,0,0
									l0,0c0,0.1,0,0.1-0.1,0.2l-1.2,0.9l0.5,1.5c0,0.1,0,0.2-0.1,0.3c-0.1,0-0.1,0-0.2,0l-1.3-0.9l-1.3,0.9
									c-0.1,0.1-0.2,0.1-0.3,0c0-0.1,0-0.1,0-0.2l0.5-1.5l-1.2-0.9c-0.1-0.1-0.1-0.2,0-0.3c0-0.1,0.1-0.1,0.2-0.1h1.5l0.5-1.5
									c0-0.1,0.1-0.2,0.2-0.1c0,0,0,0,0,0l0,0C84.6,67.9,84.7,68,84.7,68z"/>
								<path id="a1784296-7f4e-4af6-ba26-d44412d79879" class="st2" d="M84.7,75.7l0.5,1.5h1.6c0.1,0,0.2,0.1,0.2,0.2
									c0,0.1,0,0.1-0.1,0.2l-1.2,0.9l0.5,1.5c0,0.1,0,0.2-0.1,0.3c-0.1,0-0.1,0-0.2,0l-1.3-0.9l-1.3,0.9c-0.1,0.1-0.2,0.1-0.3,0
									l0,0c0-0.1,0-0.1,0-0.2l0.5-1.5l-1.2-0.9c-0.1-0.1-0.1-0.2,0-0.3c0,0,0.1-0.1,0.2-0.1h1.5l0.5-1.5c0-0.1,0.2-0.2,0.3-0.1
									C84.6,75.7,84.7,75.7,84.7,75.7z"/>
								<path id="f01c7670-9cb4-47bd-adc5-a2c0863808e5" class="st2" d="M90.7,48.7l0.5,1.5h1.6c0.1,0,0.2,0.1,0.2,0.2c0,0,0,0,0,0
									c0,0.1,0,0.1-0.1,0.2l-1.2,0.9l0.5,1.5c0,0.1,0,0.2-0.1,0.3c-0.1,0-0.1,0-0.2,0l-1.3-0.9l-1.3,0.9c-0.1,0.1-0.2,0.1-0.3,0
									l0,0c0-0.1,0-0.1,0-0.2l0.5-1.5l-1.2-0.9c-0.1-0.1-0.1-0.2,0-0.3c0,0,0.1-0.1,0.2-0.1h1.6l0.5-1.5c0-0.1,0.1-0.2,0.2-0.2
									C90.6,48.6,90.7,48.6,90.7,48.7L90.7,48.7z"/>
								<path id="a0169922-863f-48f2-b456-203210f1eadd" class="st2" d="M90.7,56.4l0.5,1.5h1.6c0.1,0,0.2,0.1,0.2,0.2
									c0,0.1,0,0.1-0.1,0.2l-1.2,0.9l0.5,1.5c0,0.1,0,0.2-0.1,0.3c-0.1,0-0.1,0-0.2,0L90.5,60l-1.3,0.9c-0.1,0.1-0.2,0.1-0.3,0
									c0-0.1,0-0.1,0-0.2l0.5-1.5l-1.2-0.9c-0.1-0.1-0.1-0.2,0-0.3c0-0.1,0.1-0.1,0.2-0.1h1.6l0.5-1.5
									C90.4,56.4,90.5,56.3,90.7,56.4L90.7,56.4L90.7,56.4z"/>
								<path id="e5b12de1-b30f-4791-acb4-f937a0cbe6f4" class="st2" d="M90.7,64.1l0.5,1.5h1.6c0.1,0,0.2,0.1,0.2,0.2c0,0,0,0,0,0
									l0,0c0,0.1,0,0.1-0.1,0.2l-1.2,0.9l0.5,1.5c0,0.1,0,0.2-0.1,0.3c-0.1,0-0.1,0-0.2,0l-1.3-0.9l-1.3,0.9
									c-0.1,0.1-0.2,0.1-0.3,0c0-0.1,0-0.1,0-0.2l0.5-1.5L88.1,66c-0.1-0.1-0.1-0.2,0-0.3c0,0,0.1-0.1,0.2-0.1h1.6l0.5-1.5
									c0-0.1,0.1-0.2,0.2-0.1C90.6,64,90.6,64,90.7,64.1L90.7,64.1L90.7,64.1z"/>
								<path id="bba45d80-7f75-4c38-80c6-b37c2e20f6a3" class="st2" d="M90.7,71.8l0.5,1.5h1.6c0.1,0,0.2,0.1,0.2,0.2c0,0,0,0,0,0
									l0,0c0,0.1,0,0.1-0.1,0.2l-1.2,0.9l0.5,1.5c0,0.1,0,0.2-0.1,0.3l0,0c-0.1,0-0.1,0-0.2,0l-1.3-0.9l-1.3,0.9
									c-0.1,0.1-0.2,0.1-0.3,0l0,0c0-0.1,0-0.1,0-0.2l0.5-1.5l-1.2-0.9c-0.1-0.1-0.1-0.2,0-0.3c0,0,0.1-0.1,0.2-0.1h1.6l0.5-1.5
									C90.4,71.7,90.5,71.7,90.7,71.8C90.6,71.7,90.7,71.7,90.7,71.8z"/>
								<path id="f897789e-8dab-4555-9606-42f0bf6fc981" class="st2" d="M96.7,44.9l0.5,1.5h1.5c0.1,0,0.2,0.1,0.2,0.2c0,0,0,0,0,0
									l0,0c0,0.1,0,0.1-0.1,0.2l-1.2,0.9l0.5,1.5c0,0.1,0,0.2-0.1,0.3c-0.1,0-0.1,0-0.2,0l-1.3-0.9l-1.3,0.9
									c-0.1,0.1-0.2,0.1-0.3,0l0,0c0-0.1,0-0.1,0-0.2l0.5-1.5l-1.2-0.9c-0.1-0.1-0.1-0.2,0-0.3l0,0c0,0,0.1-0.1,0.2-0.1h1.6
									l0.5-1.5C96.4,44.8,96.5,44.8,96.7,44.9C96.7,44.8,96.7,44.9,96.7,44.9L96.7,44.9z"/>
								<path id="a037a55f-4281-42ac-b31f-e14dc24002ba" class="st2" d="M96.7,52.6l0.5,1.5h1.5c0.1,0,0.2,0.1,0.2,0.2c0,0,0,0,0,0
									l0,0c0,0.1,0,0.1-0.1,0.2l-1.2,0.9l0.5,1.5c0,0.1,0,0.2-0.1,0.3c-0.1,0-0.1,0-0.2,0l-1.3-0.9l-1.3,0.9
									c-0.1,0.1-0.2,0.1-0.3,0c0-0.1,0-0.1,0-0.2l0.5-1.5l-1.2-0.9c-0.1-0.1-0.1-0.2,0-0.3l0,0c0,0,0.1-0.1,0.2-0.1h1.6l0.5-1.5
									C96.4,52.6,96.5,52.5,96.7,52.6C96.6,52.5,96.6,52.6,96.7,52.6z"/>
								<path id="b46a7cb0-932f-4532-b687-85a82d8e8bae" class="st2" d="M96.7,60.3l0.5,1.5h1.5c0.1,0,0.2,0.1,0.2,0.2l0,0
									c0,0.1,0,0.1-0.1,0.2L97.6,63l0.5,1.5c0,0.1,0,0.2-0.1,0.3c-0.1,0-0.1,0-0.2,0l-1.3-0.9l-1.3,0.9c-0.1,0.1-0.2,0.1-0.3,0
									c0-0.1,0-0.1,0-0.2l0.5-1.5l-1.2-0.9c-0.1-0.1-0.1-0.2,0-0.3l0,0c0,0,0.1-0.1,0.2-0.1h1.6l0.5-1.5
									C96.4,60.2,96.5,60.2,96.7,60.3C96.6,60.2,96.7,60.3,96.7,60.3L96.7,60.3z"/>
								<path id="bae0f481-1739-4437-b3b2-ceb8363b1313" class="st2" d="M96.7,68l0.5,1.5h1.5c0.1,0,0.2,0.1,0.2,0.2l0,0
									c0,0.1,0,0.1-0.1,0.2l-1.2,0.9l0.5,1.5c0,0.1,0,0.2-0.1,0.3c-0.1,0-0.1,0-0.2,0l-1.3-0.9l-1.3,0.9c-0.1,0.1-0.2,0.1-0.3,0
									c0-0.1,0-0.1,0-0.2l0.5-1.5l-1.2-0.9c-0.1-0.1-0.1-0.2,0-0.3l0,0c0,0,0.1-0.1,0.2-0.1h1.6l0.5-1.5
									C96.4,67.9,96.5,67.9,96.7,68C96.6,67.9,96.7,68,96.7,68L96.7,68z"/>
								<path id="a83c0477-115a-4b11-8f19-ef024267d4ca" class="st2" d="M96.7,75.7l0.5,1.5h1.5c0.1,0,0.2,0.1,0.2,0.2c0,0,0,0,0,0
									l0,0c0,0.1,0,0.1-0.1,0.2l-1.2,0.9l0.5,1.5c0,0.1,0,0.2-0.1,0.3c-0.1,0-0.1,0-0.2,0l-1.3-0.9l-1.3,0.9
									c-0.1,0.1-0.2,0.1-0.3,0l0,0c0-0.1,0-0.1,0-0.2l0.5-1.5l-1.2-0.9c-0.1-0.1-0.1-0.2,0-0.3l0,0c0,0,0.1-0.1,0.2-0.1h1.6
									l0.5-1.5C96.4,75.7,96.5,75.6,96.7,75.7c0,0,0,0.1,0.1,0.1L96.7,75.7z"/>
								<path id="edfaf2b0-491e-4038-9b04-ab750d03270b" class="st2" d="M102.6,48.7l0.5,1.5h1.6c0.1,0,0.2,0.1,0.2,0.2
									c0,0.1,0,0.1-0.1,0.2l-1.2,0.9l0.5,1.5c0,0.1,0,0.2-0.1,0.3c-0.1,0-0.1,0-0.2,0l-1.3-0.9l-1.3,0.9c-0.1,0.1-0.2,0.1-0.3,0
									l0,0c0-0.1,0-0.1,0-0.2l0.5-1.5l-1.2-0.9c-0.1-0.1-0.1-0.2,0-0.3c0,0,0.1-0.1,0.2-0.1h1.6l0.5-1.5
									C102.4,48.6,102.5,48.6,102.6,48.7C102.6,48.6,102.6,48.6,102.6,48.7L102.6,48.7C102.6,48.6,102.6,48.6,102.6,48.7z"/>
								<path id="a511932e-7f04-490c-a75b-222376f1b877" class="st2" d="M102.6,56.4l0.5,1.5h1.6c0.1,0,0.2,0.1,0.2,0.2c0,0,0,0,0,0
									c0,0.1,0,0.1-0.1,0.2l-1.2,0.9l0.5,1.5c0,0.1,0,0.2-0.1,0.3c-0.1,0-0.1,0-0.2,0l-1.3-0.9l-1.3,0.9c-0.1,0.1-0.2,0.1-0.3,0
									c0-0.1,0-0.1,0-0.2l0.5-1.5l-1.2-0.9c-0.1-0.1-0.1-0.2,0-0.3c0,0,0.1-0.1,0.2-0.1h1.6l0.5-1.5
									C102.3,56.3,102.4,56.3,102.6,56.4C102.5,56.3,102.6,56.3,102.6,56.4L102.6,56.4C102.6,56.3,102.6,56.3,102.6,56.4z"/>
								<path id="ea1d9480-fa04-4e85-9ccc-4f76f7c08502" class="st2" d="M102.6,64.1l0.5,1.5h1.6c0.1,0,0.2,0.1,0.2,0.2c0,0,0,0,0,0
									l0,0c0,0.1,0,0.1-0.1,0.2l-1.2,0.9l0.5,1.5c0,0.1,0,0.2-0.1,0.3c-0.1,0-0.1,0-0.2,0l-1.3-0.9l-1.3,0.9
									c-0.1,0.1-0.2,0.1-0.3,0c0-0.1,0-0.1,0-0.2l0.5-1.5l-1.2-0.9c-0.1-0.1-0.1-0.2,0-0.3c0,0,0.1-0.1,0.2-0.1h1.6l0.5-1.5
									C102.3,64,102.5,64,102.6,64.1C102.6,64,102.6,64,102.6,64.1z"/>
								<path id="ff1fb043-bb0c-4806-9036-028d70751b01" class="st2" d="M102.6,71.8l0.5,1.5h1.6c0.1,0,0.2,0.1,0.2,0.2c0,0,0,0,0,0
									l0,0c0,0.1,0,0.1-0.1,0.2l-1.2,0.9L104,76c0,0.1,0,0.2-0.1,0.3c-0.1,0-0.1,0-0.2,0l-1.3-0.9l-1.3,0.9
									c-0.1,0.1-0.2,0.1-0.3,0l0,0c0-0.1,0-0.1,0-0.2l0.5-1.5l-1.2-0.9c-0.1-0.1-0.1-0.2,0-0.3c0,0,0.1-0.1,0.2-0.1h1.6l0.5-1.5
									c0-0.1,0.1-0.2,0.2-0.1C102.5,71.7,102.5,71.7,102.6,71.8L102.6,71.8C102.6,71.7,102.6,71.7,102.6,71.8z"/>
								<path id="ba993ab9-94c1-46a7-9f3e-6665e8266d2f" class="st2" d="M108.6,44.9l0.5,1.5h1.6c0.1,0,0.2,0.1,0.2,0.2
									c0,0.1,0,0.1-0.1,0.2l-1.2,0.9l0.5,1.5c0,0.1,0,0.2-0.1,0.3c-0.1,0-0.1,0-0.2,0l-1.3-0.9l-1.3,0.9c-0.1,0.1-0.2,0.1-0.3,0
									l0,0c0-0.1,0-0.1,0-0.2l0.5-1.5l-1.2-0.9c-0.1-0.1-0.1-0.2,0-0.3c0,0,0.1-0.1,0.2-0.1h1.6l0.5-1.5
									C108.3,44.8,108.4,44.8,108.6,44.9C108.6,44.8,108.6,44.8,108.6,44.9z"/>
								<path id="a7171160-c3c4-4b07-b677-3f53bcf2a0ca" class="st2" d="M108.6,52.6l0.5,1.5h1.6c0.1,0,0.2,0.1,0.2,0.2
									c0,0.1,0,0.1-0.1,0.2l-1.2,0.9l0.5,1.5c0,0.1,0,0.2-0.1,0.3c-0.1,0-0.1,0-0.2,0l-1.3-0.9l-1.3,0.9c-0.1,0.1-0.2,0.1-0.3,0
									c0-0.1,0-0.1,0-0.2l0.5-1.5l-1.2-0.9c-0.1-0.1-0.1-0.2,0-0.3c0,0,0.1-0.1,0.2-0.1h1.6l0.5-1.5
									C108.3,52.6,108.4,52.5,108.6,52.6C108.5,52.5,108.5,52.5,108.6,52.6L108.6,52.6C108.6,52.5,108.6,52.6,108.6,52.6z"/>
								<path id="bb4c5807-ec45-400b-8d1d-c6caf7d3c9fb" class="st2" d="M108.6,60.3l0.5,1.5h1.6c0.1,0,0.2,0.1,0.2,0.2c0,0,0,0,0,0
									l0,0c0,0.1,0,0.1-0.1,0.2l-1.2,0.9l0.5,1.5c0,0.1,0,0.2-0.1,0.3c-0.1,0-0.1,0-0.2,0l-1.3-0.9l-1.3,0.9
									c-0.1,0.1-0.2,0.1-0.3,0c0-0.1,0-0.1,0-0.2l0.5-1.5l-1.2-0.9c-0.1-0.1-0.1-0.2,0-0.3c0,0,0.1-0.1,0.2-0.1h1.6l0.5-1.5
									C108.3,60.3,108.4,60.2,108.6,60.3C108.5,60.2,108.5,60.2,108.6,60.3L108.6,60.3C108.6,60.2,108.6,60.3,108.6,60.3z"/>
								<path id="bcc12e01-0eca-4930-aa59-0d238e056b71" class="st2" d="M108.6,68l0.5,1.5h1.6c0.1,0,0.2,0.1,0.2,0.2c0,0,0,0,0,0
									l0,0c0,0.1,0,0.1-0.1,0.2l-1.2,0.9l0.5,1.5c0,0.1,0,0.2-0.1,0.3c-0.1,0-0.1,0-0.2,0l-1.3-0.9l-1.3,0.9
									c-0.1,0.1-0.2,0.1-0.3,0c0-0.1,0-0.1,0-0.2l0.5-1.5l-1.2-0.9c-0.1-0.1-0.1-0.2,0-0.3c0,0,0.1-0.1,0.2-0.1h1.6l0.5-1.5
									C108.3,68,108.4,67.9,108.6,68C108.6,68,108.6,68,108.6,68z"/>
								<path id="e80d1427-6d25-4efd-b1c3-2b6bfa8d5d01" class="st2" d="M108.6,75.7l0.5,1.5h1.6c0.1,0,0.2,0.1,0.2,0.2
									c0,0.1,0,0.1-0.1,0.2l-1.2,0.9L110,80c0,0.1,0,0.2-0.1,0.3c-0.1,0-0.1,0-0.2,0l-1.3-0.9l-1.3,0.9c-0.1,0.1-0.2,0.1-0.3,0
									l0,0c0-0.1,0-0.1,0-0.2l0.5-1.5l-1.2-0.9c-0.1-0.1-0.1-0.2,0-0.3c0,0,0.1-0.1,0.2-0.1h1.6l0.5-1.5
									C108.3,75.7,108.4,75.6,108.6,75.7L108.6,75.7z"/>
								<path id="ae20d787-d73d-4048-9315-78aedfac74a8" class="st2" d="M114.6,48.7l0.5,1.5h1.6c0.1,0,0.2,0.1,0.2,0.2c0,0,0,0,0,0
									l0,0c0,0.1,0,0.1-0.1,0.2l-1.2,0.9l0.5,1.5c0,0.1,0,0.2-0.1,0.3c-0.1,0-0.1,0-0.2,0l-1.3-0.9l-1.3,0.9
									c-0.1,0.1-0.2,0.1-0.3,0l0,0c0-0.1,0-0.1,0-0.2l0.5-1.5l-1.2-0.9c-0.1-0.1-0.1-0.2,0-0.3c0,0,0.1-0.1,0.2-0.1h1.6l0.5-1.5
									C114.3,48.6,114.4,48.6,114.6,48.7C114.6,48.6,114.7,48.7,114.6,48.7L114.6,48.7z"/>
								<path id="abb4745d-95d6-45b4-9548-e71e210d8ae3" class="st2" d="M114.6,56.4l0.5,1.5h1.6c0.1,0,0.2,0.1,0.2,0.2
									c0,0.1,0,0.1-0.1,0.2l-1.2,0.9l0.5,1.5c0,0.1,0,0.2-0.1,0.3c-0.1,0-0.1,0-0.2,0l-1.3-0.9l-1.3,0.9c-0.1,0.1-0.2,0.1-0.3,0
									c0-0.1,0-0.1,0-0.2l0.5-1.5l-1.2-0.9c-0.1-0.1-0.1-0.2,0-0.3c0-0.1,0.1-0.1,0.2-0.1h1.6l0.5-1.5
									C114.3,56.3,114.4,56.3,114.6,56.4C114.5,56.3,114.5,56.3,114.6,56.4L114.6,56.4C114.6,56.3,114.6,56.3,114.6,56.4z"/>
								<path id="ed4b15e6-c970-4a17-ae20-12f5743f2aec" class="st2" d="M114.6,64.1l0.5,1.5h1.6c0.1,0,0.2,0.1,0.2,0.2c0,0,0,0,0,0
									l0,0c0,0.1,0,0.1-0.1,0.2l-1.2,0.9l0.5,1.5c0,0.1,0,0.2-0.1,0.3c-0.1,0-0.1,0-0.2,0l-1.3-0.9l-1.3,0.9
									c-0.1,0.1-0.2,0.1-0.3,0c0-0.1,0-0.1,0-0.2l0.5-1.5l-1.2-0.9c-0.1-0.1-0.1-0.2,0-0.3c0,0,0.1-0.1,0.2-0.1h1.6l0.5-1.5
									C114.3,64,114.4,64,114.6,64.1C114.6,64,114.6,64,114.6,64.1z"/>
								<path id="b452aed9-e413-41ac-8168-ee5db305a999" class="st2" d="M114.6,71.8l0.5,1.5h1.6c0.1,0,0.2,0.1,0.2,0.2c0,0,0,0,0,0
									l0,0c0,0.1,0,0.1-0.1,0.2l-1.2,0.9L116,76c0,0.1,0,0.2-0.1,0.3c-0.1,0-0.1,0-0.2,0l-1.3-0.9l-1.3,0.9
									c-0.1,0.1-0.2,0.1-0.3,0l0,0c0-0.1,0-0.1,0-0.2l0.5-1.5l-1.2-0.9c-0.1-0.1-0.1-0.2,0-0.3c0,0,0.1-0.1,0.2-0.1h1.6l0.5-1.5
									C114.3,71.7,114.4,71.7,114.6,71.8C114.6,71.7,114.7,71.8,114.6,71.8L114.6,71.8z"/>
								<path id="bf76a716-4678-4423-b542-9435e678909d" class="st2" d="M120.6,44.9l0.5,1.5h1.6c0.1,0,0.2,0.1,0.2,0.2c0,0,0,0,0,0
									l0,0c0,0.1,0,0.1-0.1,0.2l-1.2,0.9l0.5,1.5c0,0.1,0,0.2-0.1,0.3l0,0c-0.1,0-0.1,0-0.2,0l-1.3-0.9l-1.3,0.9
									c-0.1,0.1-0.2,0.1-0.3,0l0,0c0-0.1,0-0.1,0-0.2l0.5-1.5l-1.3-1c-0.1-0.1-0.1-0.2,0-0.3l0,0c0,0,0.1-0.1,0.2-0.1h1.6l0.5-1.5
									c0-0.1,0.1-0.2,0.3-0.1C120.5,44.8,120.6,44.8,120.6,44.9z"/>
								<path id="fe95cd3f-83bb-4e1f-ab30-cc8fc799c8b4" class="st2" d="M120.6,52.6l0.5,1.5h1.6c0.1,0,0.2,0.1,0.2,0.2c0,0,0,0,0,0
									l0,0c0,0.1,0,0.1-0.1,0.2l-1.2,0.9l0.5,1.5c0,0.1,0,0.2-0.1,0.2c0,0,0,0,0,0l0,0c-0.1,0-0.1,0-0.2,0l-1.3-0.9l-1.3,0.9
									c-0.1,0.1-0.2,0.1-0.3,0c0-0.1,0-0.1,0-0.2l0.5-1.5l-1.3-1c-0.1-0.1-0.1-0.2,0-0.3l0,0c0,0,0.1-0.1,0.2-0.1h1.6l0.5-1.5
									c0-0.1,0.2-0.2,0.3-0.1C120.5,52.5,120.6,52.5,120.6,52.6L120.6,52.6z"/>
								<path id="a0211dc5-e1bb-4b46-96cd-7d331ac9539f" class="st2" d="M120.6,60.3l0.5,1.5h1.6c0.1,0,0.2,0.1,0.2,0.2l0,0
									c0,0.1,0,0.1-0.1,0.2l-1.2,0.9l0.5,1.5c0,0.1,0,0.2-0.1,0.3c0,0,0,0,0,0l0,0c-0.1,0-0.1,0-0.2,0l-1.3-0.9l-1.3,0.9
									c-0.1,0.1-0.2,0.1-0.3,0c0-0.1,0-0.1,0-0.2l0.5-1.5l-1.3-1c-0.1-0.1-0.1-0.2,0-0.3l0,0c0,0,0.1-0.1,0.2-0.1h1.6l0.5-1.5
									c0-0.1,0.1-0.2,0.2-0.1c0,0,0,0,0,0l0,0C120.5,60.2,120.6,60.2,120.6,60.3z"/>
								<path id="b3362b21-50c0-4ce6-8f78-ed37ca5a92ab" class="st2" d="M120.6,68l0.5,1.5h1.6c0.1,0,0.2,0.1,0.2,0.2l0,0
									c0,0.1,0,0.1-0.1,0.2l-1.2,0.9l0.5,1.5c0,0.1,0,0.2-0.1,0.3c0,0,0,0,0,0l0,0c-0.1,0-0.1,0-0.2,0l-1.3-0.9l-1.3,0.9
									c-0.1,0.1-0.2,0.1-0.3,0c0-0.1,0-0.1,0-0.2l0.5-1.5l-1.3-0.9c-0.1-0.1-0.1-0.2,0-0.3l0,0c0,0,0.1-0.1,0.2-0.1h1.6l0.5-1.5
									c0-0.1,0.2-0.2,0.3-0.1C120.5,68,120.6,68,120.6,68L120.6,68z"/>
								<path id="a605c17c-f1de-4fab-bf30-ca7cd97ea8e4" class="st2" d="M120.6,75.7l0.5,1.5h1.6c0.1,0,0.2,0.1,0.2,0.2
									c0,0.1,0,0.1-0.1,0.2l-1.2,0.9L122,80c0,0.1,0,0.2-0.1,0.3l0,0c-0.1,0-0.1,0-0.2,0l-1.3-0.9l-1.3,0.9
									c-0.1,0.1-0.2,0.1-0.3,0l0,0c0-0.1,0-0.1,0-0.2l0.5-1.5l-1.2-0.9c-0.1-0.1-0.1-0.2,0-0.3l0,0c0,0,0.1-0.1,0.2-0.1h1.6
									l0.5-1.5C120.3,75.7,120.4,75.6,120.6,75.7L120.6,75.7z"/>
								<path id="b499ea6b-b840-424f-93b3-d301ee8a8264" class="st2" d="M126.6,48.7l0.5,1.5h1.6c0.1,0,0.2,0.1,0.2,0.2c0,0,0,0,0,0
									l0,0c0,0.1,0,0.1-0.1,0.2l-1.2,0.9l0.5,1.5c0,0.1-0.1,0.3-0.2,0.3c0,0-0.1,0-0.1,0l-1.3-0.9l-1.3,0.9
									c-0.1,0.1-0.2,0.1-0.3,0l0,0c0-0.1,0-0.1,0-0.2l0.5-1.5l-1.3-1c-0.1-0.1-0.1-0.2,0-0.3l0,0c0,0,0.1-0.1,0.2-0.1h1.6l0.5-1.5
									c0-0.1,0.2-0.2,0.3-0.1C126.5,48.5,126.6,48.6,126.6,48.7L126.6,48.7z"/>
								<path id="fb9074ac-78ba-410e-bc42-8c5b5f15704d" class="st2" d="M126.6,56.4l0.5,1.5h1.6c0.1,0,0.2,0.1,0.2,0.2c0,0,0,0,0,0
									c0,0.1,0,0.1-0.1,0.2l-1.2,0.9l0.5,1.5c0,0.1,0,0.2-0.1,0.3c-0.1,0-0.1,0-0.2,0l-1.3-0.9l-1.3,0.9c-0.1,0.1-0.2,0.1-0.3,0
									c0-0.1,0-0.1,0-0.2l0.5-1.5l-1.3-1c-0.1-0.1-0.1-0.2,0-0.3l0,0c0-0.1,0.1-0.1,0.2-0.1h1.6l0.5-1.5c0-0.1,0.2-0.2,0.3-0.1
									C126.5,56.3,126.5,56.3,126.6,56.4z"/>
								<path id="a35e882f-4f77-48da-bd61-bf93e85541f2" class="st2" d="M126.6,64.1l0.5,1.5h1.6c0.1,0,0.2,0.1,0.2,0.2l0,0
									c0,0.1,0,0.1-0.1,0.2l-1.2,0.9l0.5,1.5c0,0.1,0,0.2-0.1,0.3c-0.1,0-0.1,0-0.2,0l-1.3-0.9l-1.3,0.9c-0.1,0.1-0.2,0.1-0.3,0
									c0-0.1,0-0.1,0-0.2l0.5-1.5l-1.3-1c-0.1-0.1-0.1-0.2,0-0.3l0,0c0,0,0.1-0.1,0.2-0.1h1.6l0.5-1.5c0-0.1,0.1-0.2,0.2-0.1
									c0,0,0,0,0,0l0,0C126.5,64,126.5,64,126.6,64.1z"/>
								<path id="a39aa1dc-735d-4beb-b295-239e6deafa83" class="st2" d="M126.6,71.8l0.5,1.5h1.6c0.1,0,0.2,0.1,0.2,0.2l0,0
									c0,0.1,0,0.1-0.1,0.2l-1.2,0.9L128,76c0,0.1-0.1,0.3-0.2,0.3c0,0-0.1,0-0.1,0l-1.3-0.9l-1.3,0.9c-0.1,0.1-0.2,0.1-0.3,0l0,0
									c0-0.1,0-0.1,0-0.2l0.5-1.5l-1.2-0.9c-0.1-0.1-0.1-0.2,0-0.3l0,0c0,0,0.1-0.1,0.2-0.1h1.6l0.5-1.5
									C126.3,71.7,126.4,71.7,126.6,71.8c0-0.1,0.1,0,0.1,0.1L126.6,71.8z"/>
								<path id="b2e993e4-4757-4f0f-9c5f-f4138cd2de02" class="st2" d="M132.6,44.9l0.5,1.5h1.6c0.1,0,0.2,0.1,0.2,0.2
									c0,0.1,0,0.1-0.1,0.2l-1.2,0.9l0.5,1.5c0,0.1,0,0.2-0.1,0.3c-0.1,0-0.1,0-0.2,0l-1.3-0.9l-1.3,0.9c-0.1,0.1-0.2,0.1-0.3,0
									l0,0c0-0.1,0-0.1,0-0.2l0.5-1.5l-1.3-1c-0.1-0.1-0.1-0.2,0-0.3c0,0,0.1-0.1,0.1-0.1h1.6l0.5-1.5c0-0.1,0.1-0.2,0.3-0.1
									C132.5,44.8,132.5,44.8,132.6,44.9z"/>
								<path id="bdcb1955-624c-487e-a56a-1a705fd890aa" class="st2" d="M132.6,52.6l0.5,1.5h1.6c0.1,0,0.2,0.1,0.2,0.2
									c0,0.1,0,0.1-0.1,0.2l-1.2,0.9l0.5,1.5c0,0.1,0,0.2-0.1,0.3c-0.1,0-0.1,0-0.2,0l-1.3-0.9l-1.3,0.9c-0.1,0.1-0.2,0.1-0.3,0
									c0-0.1,0-0.1,0-0.2l0.5-1.5l-1.3-1c-0.1-0.1-0.1-0.2,0-0.3c0,0,0.1-0.1,0.1-0.1h1.6l0.5-1.5c0-0.1,0.1-0.2,0.2-0.1
									c0,0,0,0,0,0l0,0C132.5,52.5,132.5,52.5,132.6,52.6z"/>
								<path id="a63d8203-5bdd-40af-a4f2-78dd2dfb1cb6" class="st2" d="M132.6,60.3l0.5,1.5h1.6c0.1,0,0.2,0.1,0.2,0.2c0,0,0,0,0,0
									l0,0c0,0.1,0,0.1-0.1,0.2l-1.2,0.9l0.5,1.5c0,0.1,0,0.2-0.1,0.3c-0.1,0-0.1,0-0.2,0l-1.3-0.9l-1.3,0.9
									c-0.1,0.1-0.2,0.1-0.3,0c0-0.1,0-0.1,0-0.2l0.5-1.5l-1.3-1c-0.1-0.1-0.1-0.2,0-0.3c0,0,0.1-0.1,0.1-0.1h1.6l0.5-1.5
									c0-0.1,0.1-0.2,0.2-0.1c0,0,0,0,0,0l0,0C132.5,60.2,132.5,60.2,132.6,60.3z"/>
								<path id="edeeb5f0-def8-43b8-a1d3-ff600101533c" class="st2" d="M132.6,68l0.5,1.5h1.6c0.1,0,0.2,0.1,0.2,0.2c0,0,0,0,0,0
									l0,0c0,0.1,0,0.1-0.1,0.2l-1.2,0.9l0.5,1.5c0,0.1,0,0.2-0.1,0.3c-0.1,0-0.1,0-0.2,0l-1.3-0.9l-1.3,0.9
									c-0.1,0.1-0.2,0.1-0.3,0c0-0.1,0-0.1,0-0.2l0.5-1.5l-1.3-0.9c-0.1-0.1-0.1-0.2,0-0.3c0,0,0.1-0.1,0.1-0.1h1.6l0.5-1.5
									C132.2,68,132.4,67.9,132.6,68C132.5,68,132.5,68,132.6,68z"/>
								<path id="b907ee1d-09e3-4b5d-b25a-d751f40fd373" class="st2" d="M132.6,75.7l0.5,1.5h1.6c0.1,0,0.2,0.1,0.2,0.2
									c0,0.1,0,0.1-0.1,0.2l-1.2,0.9l0.5,1.5c0,0.1,0,0.2-0.1,0.3c-0.1,0-0.1,0-0.2,0l-1.3-0.9l-1.3,0.9c-0.1,0.1-0.2,0.1-0.3,0
									l0,0c0-0.1,0-0.1,0-0.2l0.5-1.5l-1.3-0.9c-0.1-0.1-0.1-0.2,0-0.3c0,0,0.1-0.1,0.1-0.1h1.6l0.5-1.5
									C132.2,75.7,132.3,75.6,132.6,75.7C132.5,75.6,132.5,75.7,132.6,75.7z"/>
							</g>
						</g>
						<path id="aa7a57c8-e270-4c58-9ec4-82b255a4afd1" class="st14" d="M79.5,39H136c2,0,3.7,1.7,3.7,3.7V150c0,2-1.7,3.7-3.7,3.7
							H79.5c-2,0-3.7-1.7-3.7-3.7V42.7C75.8,40.7,77.4,39,79.5,39z"/>
					</g>
				</g>
			</g>
		</g>
	</g>
	<path id="a71d65a8-7cb4-49d3-a764-de7ee64e6716" class="st20" d="M121.1,105.4v-0.6c0-5.4-3.5-10.1-8.6-11.8v-4.9h-8.6V93
		c-6.5,2-10.1,8.9-8.1,15.4c0,0,0,0,0,0l0,0c1,3.2,3.2,5.8,6.2,7.3l8.4,4.2c1.8,0.9,2.6,3.1,1.7,4.9c-0.6,1.3-1.9,2.1-3.4,2.1h-1.3
		c-2,0-3.7-1.6-3.7-3.7v-0.6h-8.6v0.6c0,5.4,3.5,10.1,8.6,11.7v4.9h8.6V135c6.5-2,10.1-8.9,8.1-15.4l0,0c-1-3.2-3.3-5.8-6.2-7.3
		l-8.4-4.2c-1.8-0.9-2.6-3.1-1.7-4.9V103l0,0c0.6-1.2,1.9-2,3.3-2h1.3c2,0,3.7,1.6,3.7,3.7l0,0v0.6L121.1,105.4z"/>
	<path id="e173ae43-5004-4e91-accf-f2d6ad94972c" class="st24" d="M48,128.1l5.8-5.8V96.1c0-4.8,3.9-8.7,8.7-8.7h0h11.7V99l7.3-7.3
		c2.4-2.4,6.3-2.4,8.7,0c2.4,2.4,2.4,6.3,0,8.7l-13.1,13.1c6.4,6.4,6.4,16.9,0,23.3l0,0l-14.6,14.6L48,128.1z"/>
	<path id="ab851832-3745-49d6-8af5-beb0ac1c3a79" class="st25" d="M68.4,100.7l1.7-1.7c1.1-1.1,3-1.1,4.1,0l0,0c1.1,1.1,1.1,3,0,4.1
		l-1.7,1.7c-1.1,1.1-3,1.1-4.1,0l0,0C67.2,103.7,67.2,101.8,68.4,100.7z"/>
	<path id="f85bbd36-38ef-4e05-981a-a02e7d6bd029" class="st26" d="M19.2,136.7l23.4-15c0.9-0.6,2-0.3,2.6,0.6l20.2,31.3
		c0.6,0.9,0.3,2-0.6,2.6l-23.4,15c-0.9,0.6-2,0.3-2.6-0.6l-20.2-31.3C18,138.4,18.3,137.2,19.2,136.7z"/>
	<path id="ab235930-cc88-4894-aac4-cdb059fafdde" class="st27" d="M43.3,155.4l-1.7-2.7c-0.9-1.5-0.5-3.4,1-4.4l0,0
		c1.5-0.9,3.4-0.5,4.4,1l0,0l1.7,2.7c0.9,1.5,0.5,3.4-1,4.4l0,0C46.1,157.3,44.2,156.8,43.3,155.4L43.3,155.4z"/>
	<path id="eb563d2d-e367-44c2-837a-bd4864d9a50e" class="st28" d="M193.7,74.3l-9-34.3c-0.2-0.7-0.9-1.1-1.6-0.9c0,0,0,0,0,0l0,0
		c-0.3,0.1-0.5,0.2-0.7,0.4l-7.9,9.1c-16-12.8-37.8-4.8-47.6,6.1l0,0c-0.5,0.6-0.4,1.4,0.1,1.9c0,0,0,0,0,0l0,0
		c0.5,0.5,1.4,0.4,1.9-0.1v-0.1c2.4-2.6,23.1-5.1,35.1,4.2l-7.8,9c-0.5,0.6-0.4,1.4,0.1,1.9c0,0,0,0,0,0l0,0
		c0.2,0.2,0.4,0.3,0.7,0.3l35.2,4.1c0.7,0.1,1.4-0.4,1.5-1.1l0,0C193.8,74.6,193.8,74.4,193.7,74.3z"/>
</g>
<g>
	<path class="st29" d="M89.2,201.6c2.1,0,4-0.9,5.3-2.6l2.8,2.9c-3.7,4.5-10.4,5-14.9,1.3c-0.1-0.1-0.3-0.3-0.4-0.4
		c-3.9-4-3.9-10.5,0-14.5c1.9-1.9,4.6-3,7.3-2.9c3.1-0.1,6.1,1.3,8.1,3.7l-2.7,3.1c-1.2-1.6-3.1-2.6-5.2-2.6c-1.6,0-3.1,0.5-4.2,1.6
		c-1.2,1.1-1.8,2.7-1.8,4.3c-0.1,1.6,0.5,3.2,1.7,4.4C86.2,201,87.7,201.6,89.2,201.6z"/>
	<path class="st29" d="M105.9,200.4c1.4,1.6,3.8,1.8,5.4,0.4c0.2-0.1,0.3-0.3,0.4-0.4c0.8-1.1,1.2-2.4,1.1-3.7v-10.8h4.4v10.9
		c0.2,2.4-0.7,4.8-2.3,6.5c-3.4,3-8.6,3-12,0c-1.7-1.7-2.5-4.1-2.4-6.5v-11h4.4v10.8C104.8,198,105.1,199.3,105.9,200.4z"/>
	<path class="st29" d="M135.9,185.9v3.9h-9.7v4h8.8v3.7h-8.8v4.1h10v3.9h-14.4v-19.5H135.9z"/>
	<path class="st29" d="M153.7,185.9h4.4v19.6h-4.4l-9.3-12.3v12.3h-4.4v-19.6h4.1l9.6,12.6L153.7,185.9z"/>
	<path class="st29" d="M171.2,189.6v15.8h-4.4v-15.8h-5.6v-3.8h15.5v3.8H171.2z"/>
	<path class="st29" d="M192.5,205.4l-1.8-4.2h-8.2l-1.8,4.2H176l8.4-19.6h4.2l8.5,19.6H192.5z M186.6,191.7l-2.5,5.7h4.9
		L186.6,191.7z"/>
	<path class="st29" d="M95.2,218.4c1.9,1.9,3,4.5,2.8,7.1c0.1,2.7-0.9,5.3-2.7,7.2c-1.8,1.8-4.6,2.7-8.3,2.7h-6.7v-19.6h6.9
		C90.6,215.9,93.3,216.7,95.2,218.4z M92,230.1c1.1-1.2,1.7-2.8,1.6-4.4c0.1-1.6-0.5-3.3-1.6-4.4c-1.4-1.2-3.2-1.7-5-1.6h-2.4v11.9
		h2.8C89,231.7,90.7,231.2,92,230.1z"/>
	<path class="st29" d="M102.6,215.9h4.4v19.6h-4.4L102.6,215.9z"/>
	<path class="st29" d="M125.3,225.5h4.4v6.9c-2.1,2.2-5,3.4-8.1,3.2c-2.7,0.1-5.3-1-7.2-2.9c-1.9-1.9-3-4.5-2.9-7.2
		c-0.1-2.7,1-5.4,3-7.3c1.9-1.9,4.5-3,7.2-2.9c2.7,0,5.3,0.9,7.3,2.8l-2.3,3.3c-0.7-0.7-1.5-1.2-2.4-1.6c-0.8-0.3-1.6-0.4-2.4-0.4
		c-1.6,0-3.1,0.6-4.2,1.7c-1.2,1.2-1.8,2.8-1.7,4.5c-0.1,1.6,0.5,3.2,1.6,4.4c1,1.1,2.4,1.7,3.9,1.7c1.3,0,2.6-0.3,3.8-0.9
		L125.3,225.5z"/>
	<path class="st29" d="M134.4,215.9h4.4v19.6h-4.4V215.9z"/>
	<path class="st29" d="M152.8,219.6v15.8h-4.4v-15.8h-5.6v-3.8h15.5v3.8H152.8z"/>
	<path class="st29" d="M174.9,235.4l-1.9-4.2h-8.2l-1.8,4.2h-4.6l8.5-19.6h4.2l8.4,19.6H174.9z M169,221.7l-2.5,5.7h4.9L169,221.7z"
		/>
	<path class="st29" d="M182.6,235.4v-19.6h4.4v15.7h8.3v3.9L182.6,235.4z"/>
</g>
</svg>
