<?xml version="1.0" encoding="utf-8"?>
<!-- Generator: Adobe Illustrator 26.0.1, SVG Export Plug-In . SVG Version: 6.00 Build 0)  -->
<svg version="1.1" id="a5c78296-f179-4658-82df-2a9a248fddbb"
	 xmlns="http://www.w3.org/2000/svg" xmlns:xlink="http://www.w3.org/1999/xlink" x="0px" y="0px" viewBox="0 0 283.5 283.5"
	 style="enable-background:new 0 0 283.5 283.5;" xml:space="preserve">
<style type="text/css">
	.st0{clip-path:url(#SVGID_00000111870129959217011590000011328586186431516572_);}
	.st1{fill:#6DA12F;}
	.st2{fill:#F2F3F4;}
	.st3{fill:#E93546;}
	.st4{fill:#FFC739;}
	.st5{fill:#35AE8A;}
	.st6{fill:#009CD5;}
	.st7{fill:#5F202A;}
	.st8{fill:#A7C84D;}
	.st9{fill:#73303F;}
	.st10{fill:#642C36;}
	.st11{fill:#FFD942;}
	.st12{fill:#FCA263;}
	.st13{fill:#883949;}
	.st14{opacity:0.5;fill:#FFFFFF;enable-background:new    ;}
	.st15{opacity:0.3;fill:#1A1818;enable-background:new    ;}
	.st16{fill:#FFA419;}
	.st17{fill:#F16322;}
	.st18{fill:#FE9D2B;}
	.st19{fill:#E50019;}
	.st20{fill:#1A1818;}
	.st21{fill:#00A1ED;}
	.st22{clip-path:url(#SVGID_00000033326903299912456150000005558186551933843096_);}
	.st23{fill:#22388B;}
	.st24{fill:#E7A166;}
	.st25{fill:#C58B59;}
	.st26{fill:#34646C;}
	.st27{fill:#203040;}
	.st28{fill:#E0007A;}
</style>
<g>
	<g id="eb06238e-7927-4bc5-89ea-2a993a757ede">
		<g id="f5e63497-a80d-48b5-b1fb-3d355119c08a">
			<g id="b227b798-877a-44da-8740-343734718cad">
				<g>
					<defs>
						<path id="SVGID_1_" d="M161.2,120.2H258c4.6,0,8.4,3.8,8.4,8.4c0,0,0,0,0,0v54.7c0,4.6-3.8,8.4-8.4,8.4c0,0,0,0,0,0h-96.8
							c-4.6,0-8.4-3.8-8.4-8.4v-54.7C152.8,124,156.6,120.2,161.2,120.2z"/>
					</defs>
					<clipPath id="SVGID_00000146457520784540913970000015728594655678024353_">
						<use xlink:href="#SVGID_1_"  style="overflow:visible;"/>
					</clipPath>
					<g style="clip-path:url(#SVGID_00000146457520784540913970000015728594655678024353_);">
						<g id="f09f78a4-4afb-4a72-9932-1105e3315be2">
							<g id="e7fff544-54fc-4849-886b-8b8bba6535a5">
								<path id="a2ed980a-404e-4c1e-8da0-2700497362f9" class="st1" d="M190.8,193h-35.7c-1.1,0-1.9-0.9-1.9-2l0,0v-70.1
									c0-1.1,0.8-2,1.9-2c0,0,0,0,0.1,0h35.7L190.8,193z"/>
								<rect id="f2e24654-4608-448a-a983-53114f12733f" x="190.8" y="118.9" class="st2" width="37.7" height="74"/>
								<path id="a714183e-547c-40d7-8a39-380cd8cf61a7" class="st3" d="M264.1,193h-35.7v-74h35.7c1.1,0,2,0.9,2,2v70
									C266.1,192.1,265.3,193,264.1,193z"/>
								<g id="ee924a50-2108-4e76-af58-5c2099e886dd">
									<path id="accecc41-406b-448f-9a53-5ed51fffc58e" class="st4" d="M213,157.7l-3.4,1.7v1.6h1.7L213,157.7z"/>
									<g id="b15d5e6e-665f-43bc-a8ce-69b0bed2fd49">
										<path id="af68ea48-7c51-4ab3-b8e9-1bcbeff3bc20" class="st5" d="M209.6,165.2c-0.5,0-0.8-0.4-0.8-0.8v-3.4
											c0-0.5,0.4-0.8,0.8-0.8c0.5,0,0.8,0.4,0.8,0.8v3.4C210.5,164.9,210.1,165.2,209.6,165.2
											C209.6,165.3,209.6,165.3,209.6,165.2z"/>
										<path id="f4bad4d1-84c0-47e9-b48f-ce20aa9c1bd6" class="st5" d="M209.6,161.9c-3.3,0-6.6-1.3-9-3.6
											c-0.3-0.3-0.4-0.8-0.1-1.2l0,0c0.3-0.3,0.9-0.3,1.2,0c0,0,0,0,0,0c4.4,4.2,11.3,4.2,15.6,0c0.3-0.3,0.9-0.3,1.2,0
											c0,0,0,0,0,0l0,0c0.3,0.3,0.3,0.9,0,1.2l0,0C216.2,160.6,213,161.9,209.6,161.9z"/>
									</g>
									<path id="f954e73d-087f-4f69-8276-0713f6372f2a" class="st6" d="M209.6,165.2c-2.1,0-4.2-0.6-6-1.8l0.9-1.4
										c3.1,2,7.1,2,10.2,0l0.9,1.4C213.9,164.6,211.8,165.3,209.6,165.2z"/>
									<path id="be1df2e2-54e1-4abf-b52d-2e3e4dee4903" class="st7" d="M208.3,153.9l-1.9,2.9l-0.3,0.9l4.8-1.1L208.3,153.9z"/>
									<path id="e85e755a-fcbc-4407-bc10-31aca7d91f83" class="st8" d="M204.5,158.6c-2.2,0-4.9-1.9-5.6-6l1.7-0.3
										c0.6,3.5,2.7,4.6,4,4.6c0.4,0,0.8-0.1,0.8-0.4s0-0.4-0.8-0.7c-0.5-0.1-1-0.4-1.4-0.8c-1.5-1.8,0.5-3.6,1.5-4.5
										c0.2-0.1,0.2-0.3,0.2-0.3c-0.2-0.2-0.5-0.4-0.8-0.4c-1,0.1-1.9-0.6-2.1-1.6c-0.3-1,0.2-2,1.1-2.5l0.8,1.5
										c-0.2,0.1-0.3,0.4-0.2,0.6c0,0.1,0.1,0.3,0.5,0.3c1,0,1.9,0.5,2.3,1.4c0.3,0.8,0,1.7-0.7,2.2c-1.1,1-1.8,1.7-1.4,2.1
										c0.2,0.1,0.4,0.2,0.7,0.3c0.8,0.3,2.2,0.7,2,2.5c-0.2,1.2-1.3,2-2.5,1.9L204.5,158.6z"/>
									<path id="b712c53a-ff1f-4af4-8801-bdb81bb9045d" class="st9" d="M211.3,149.3c1-1.8,0.3-4-1.5-5c0,0,0,0,0,0l-0.1-0.1
										c0,0,11.8-1.7,10.1,13.4l0,0c-1.3-1-2.5-2.3-3.3-3.8l-5.1-2.9L211.3,149.3L211.3,149.3z"/>
									<path id="af4ecaf9-4f83-4da9-88fd-f5a2c570eab9" class="st7" d="M209.6,152.6l8.4,5l-3.4,1.7l-5-5L209.6,152.6z"/>
									<path id="bcaf388a-508a-41cf-b331-263d88b3b55f" class="st10" d="M206.3,147.6L206.3,147.6c0.9,0,1.7,0.7,1.7,1.7l0,0
										c-1,1-1.3,2.5-0.6,3.8l0.4,0.8c0.2,0.3,0.4,0.6,0.6,0.9l4.7,4.7V157c0-2.9-0.7-5.7-2-8.3l0,0c-0.8-1.7-2.6-2.8-4.5-2.8
										h-0.2L206.3,147.6L206.3,147.6L206.3,147.6z"/>
									<path id="b764e24c-c20d-4859-aa73-94cc9783d8a2" class="st4" d="M206.3,145.9l-1.7,1.7v1.7l2.7-1.3
										c0.3-0.1,0.4-0.5,0.3-0.8c0,0,0,0,0,0c0-0.1-0.1-0.1-0.2-0.2L206.3,145.9z"/>
									<path id="b0da011b-52bf-492c-9601-df5c9561be98" class="st8" d="M209.6,168.6c-7.9,0-14.3-6.4-14.3-14.3h1.7
										c0.2,7,6,12.4,12.9,12.2c6.7-0.2,12.1-5.6,12.2-12.2h1.7C223.8,162.2,217.5,168.6,209.6,168.6z"/>
									<g id="efa90619-c4ed-4523-a737-8ac9f5c26cdb">
										<circle id="a21fd3da-aff3-439d-87d3-2b697298c2be" class="st11" cx="197.1" cy="159.3" r="1.1"/>
										<circle id="fbdc3cd7-2862-498c-b524-0acef6eb4cf8" class="st11" cx="199.6" cy="163.3" r="1.1"/>
										<circle id="e6b68ec0-bd33-4028-8255-4cc6c0c75642" class="st11" cx="203.7" cy="166.4" r="1.1"/>
										<circle id="e8dc1cf5-4da7-4643-b5e2-69f3cd41959f" class="st11" cx="222.2" cy="159.3" r="1.1"/>
										<circle id="a580861f-f255-44cf-880d-80aec13fbe72" class="st11" cx="219.7" cy="163.3" r="1.1"/>
										<circle id="e9fa89e2-f950-481b-8f57-df5760e06dce" class="st11" cx="215.6" cy="166.4" r="1.1"/>
									</g>
									<path id="e306a8a9-16cc-4b8e-94fb-492eb70d81ba" class="st12" d="M210.4,166.1h-1.7c-0.9,0-1.7-0.7-1.7-1.7l0,0
										c0-0.9,0.7-1.7,1.7-1.7h1.7c0.9,0,1.7,0.7,1.7,1.7l0,0C212.1,165.3,211.4,166.1,210.4,166.1z"/>
									<path id="be925364-9823-401a-843a-a2d44dc10e25" class="st13" d="M216.4,153.9c0.5,1.7,1.7,3,3.3,3.8l0,0
										c1.7-15.1-10.1-13.4-10.1-13.4C218,144.3,216.4,153.9,216.4,153.9z"/>
								</g>
							</g>
							<path id="b1e1889c-7652-423e-867f-cc9d58584641" class="st14" d="M163.2,118h92.1c7.1,0,12.9,5.8,12.9,12.9v51.4
								c0,7.1-5.8,12.9-12.9,12.9h-92.1c-7.1,0-12.9-5.8-12.9-12.9v-51.4C150.3,123.8,156.1,118,163.2,118z"/>
						</g>
					</g>
				</g>
			</g>
			<path id="bc69878a-578e-40e6-b64a-b76c096ac9de" class="st15" d="M258,120.2h-1.7c-19.9,35.3-57,59.5-79.6,71.5H258
				c4.6,0,8.4-3.8,8.4-8.4l0,0v-54.7C266.4,124,262.6,120.2,258,120.2z"/>
			<rect id="e5883465-62a8-4d0d-9673-a3ed110d952a" x="160.1" y="129.2" class="st16" width="21" height="16.8"/>
			<g id="f21b8fec-a3bb-45ca-a557-2c2c7bad186d">
				<rect id="a071bb87-a620-4f04-aa3c-ff93da345213" x="160.1" y="135.5" class="st17" width="6.3" height="4.2"/>
				<rect id="f9325f10-61c7-439a-a71e-5ec2eff1a205" x="174.9" y="135.5" class="st17" width="6.3" height="4.2"/>
			</g>
			
				<ellipse id="e0f23a6d-6c70-4b02-bd41-9fbfb52ef467" transform="matrix(0.1602 -0.9871 0.9871 0.1602 38.7223 396.4726)" class="st18" cx="252.4" cy="175.5" rx="9" ry="9"/>
			<circle id="e1f9f806-22d6-4627-80e1-4cf8774d9e42" class="st19" cx="241.6" cy="175.5" r="9"/>
			<g id="fc3a1e94-2b7d-42ae-b797-e4d180780322">
				<rect id="a897b07d-bdad-4c72-8d7c-c1e44d59607f" x="161.2" y="171" class="st20" width="12.6" height="4.2"/>
				<rect id="ee00ddad-1740-4ab9-b35d-eb4a9e23a2b2" x="182.3" y="171" class="st20" width="12.6" height="4.2"/>
				<rect id="a32bea27-1b4e-4260-ab77-2d40b95e8bca" x="203.3" y="171" class="st20" width="12.6" height="4.2"/>
				<rect id="fdfead7a-f6b2-4480-8f58-c23993d5cf5b" x="161.2" y="180.3" class="st20" width="54.7" height="4.2"/>
				<rect id="eebc528a-3c98-4e95-8724-7f21cbd23beb" x="230.8" y="129.6" class="st20" width="4.2" height="8.4"/>
				<rect id="b8329f0b-07c2-4299-b3a9-edd836b13afb" x="239.2" y="129.6" class="st20" width="4.2" height="8.4"/>
				<rect id="f1d1d2fe-8ab7-4aa2-9907-69bec9488c20" x="247.6" y="129.6" class="st20" width="4.2" height="8.4"/>
				<rect id="bafbc51c-c321-4882-ae42-999eb019d489" x="256.1" y="129.6" class="st20" width="4.2" height="8.4"/>
			</g>
		</g>
	</g>
	<path id="aa0019ae-1497-4f87-a32a-9314fe87969b" class="st21" d="M79.6,73.4h57.1c3.1,0,5.6,2.5,5.6,5.6v110.3
		c0,3.1-2.5,5.6-5.6,5.6H79.6c-3.1,0-5.6-2.5-5.6-5.6V78.9C74.1,75.9,76.5,73.4,79.6,73.4z"/>
	<g id="a7bc40d8-a4ac-4576-82c3-b70fcc83bf1a">
		<g>
			<defs>
				<path id="SVGID_00000178181769761207770550000016984469993675450812_" d="M82.8,78.8h50.8c2,0,3.7,1.7,3.7,3.7v103.2
					c0,2-1.7,3.7-3.7,3.7H82.8c-2,0-3.7-1.7-3.7-3.7V82.5C79,80.4,80.7,78.8,82.8,78.8z"/>
			</defs>
			<clipPath id="SVGID_00000134244761583080934420000017933828853441313209_">
				<use xlink:href="#SVGID_00000178181769761207770550000016984469993675450812_"  style="overflow:visible;"/>
			</clipPath>
			<g style="clip-path:url(#SVGID_00000134244761583080934420000017933828853441313209_);">
				<g id="a0046958-80ac-475f-bcbf-611850a3c169">
					<g id="ad8df7df-3c8f-4cf8-9015-be752f882fa5">
						<path id="eceac130-bfca-42aa-9c8f-202a1aecfc37" class="st2" d="M249.3,191.7H81.5c-1.7,0-3-1.3-3-3l0,0V80.8c0-1.7,1.3-3,3-3
							h167.8c1.7,0,3,1.3,3,3l0,0v107.9C252.3,190.3,251,191.7,249.3,191.7L249.3,191.7z"/>
						<g id="f78110b9-519a-4cb6-902b-1ee08ab5b9d2">
							<path id="bbe4c08b-777c-47b2-8ac4-578025a40c66" class="st3" d="M252.3,86.5H78.5v-5.8c0-1.7,1.3-3,3-3h167.8
								c1.7,0,3,1.3,3,3l0,0L252.3,86.5L252.3,86.5z"/>
							<rect id="fca15ae9-6c56-458f-bebf-62eb1cd98a21" x="78.5" y="112.8" class="st3" width="173.8" height="8.8"/>
							<rect id="b10cff09-b3c9-4965-9d02-db83a0e60cc8" x="78.5" y="95.3" class="st3" width="173.8" height="8.8"/>
							<path id="eaa18150-7556-4178-989b-26e8d336b3c0" class="st3" d="M252.3,139.1H81.5c-1.7,0-3-1.3-3-3l0,0v-5.8h173.8V139.1z"
								/>
							<rect id="a9b49ce9-3ab0-4ad8-a521-97f00caac8b1" x="78.5" y="165.4" class="st3" width="173.8" height="8.8"/>
							<path id="a83e9e9d-06dc-4349-a300-3bff75086300" class="st3" d="M249.3,191.7H81.5c-1.7,0-3-1.3-3-3l0,0v-5.8h173.8v5.8
								C252.3,190.3,251,191.7,249.3,191.7z"/>
							<rect id="fc9523b7-1dca-4d46-b18e-44bbee239ece" x="78.5" y="147.9" class="st3" width="173.8" height="8.8"/>
						</g>
						<g id="a7c73c28-2665-4768-b4c4-400f945dc4c4">
							<path id="f851b296-8a71-49fe-9f2f-6ea5b3ebc988" class="st23" d="M136.2,77.8H80.7c-1.2,0-2.2,1-2.2,2.2l0,0l0,0v41
								c0,1.2,1,2.2,2.2,2.2c0,0,0,0,0,0h55.5c1.2,0,2.2-1,2.2-2.2l0,0V80C138.4,78.8,137.4,77.8,136.2,77.8z"/>
							<g id="e14b2527-4640-4c8c-940f-f9d4f2ce62e7">
								<path id="a548b9be-1beb-4555-9551-ae63dff07e29" class="st2" d="M84.7,82.9l0.5,1.5h1.6c0.1,0,0.2,0.1,0.2,0.2
									c0,0.1,0,0.1-0.1,0.2l-1.2,0.9l0.5,1.5c0,0.1,0,0.2-0.1,0.3c-0.1,0-0.1,0-0.2,0l-1.3-0.9l-1.3,0.9c-0.1,0.1-0.2,0.1-0.3,0
									c0,0,0,0,0,0c0-0.1,0-0.1,0-0.2l0.5-1.5l-1.2-0.9c-0.1-0.1-0.1-0.2,0-0.3c0,0,0.1-0.1,0.2-0.1h1.5l0.5-1.5
									c0-0.1,0.2-0.2,0.3-0.1C84.6,82.8,84.7,82.8,84.7,82.9z"/>
								<path id="e1ddde97-cb6f-48f2-8dfc-516380a7346f" class="st2" d="M84.7,90.6l0.5,1.5h1.6c0.1,0,0.2,0.1,0.2,0.2
									c0,0.1,0,0.1-0.1,0.2l-1.2,0.9l0.5,1.5c0,0.1,0,0.2-0.1,0.3c-0.1,0-0.1,0-0.2,0l-1.3-0.9l-1.3,0.9c-0.1,0.1-0.2,0.1-0.3,0
									c0-0.1,0-0.1,0-0.2l0.5-1.5l-1.2-0.9c-0.1-0.1-0.1-0.2,0-0.3c0,0,0.1-0.1,0.2-0.1h1.5l0.5-1.5c0-0.1,0.2-0.2,0.3-0.1
									C84.6,90.5,84.7,90.5,84.7,90.6z"/>
								<path id="f202ff84-2c65-4ae1-869a-504f284064b0" class="st2" d="M84.7,98.3l0.5,1.5h1.6c0.1,0,0.2,0.1,0.2,0.2c0,0,0,0,0,0
									c0,0.1,0,0.1-0.1,0.2l-1.2,0.9l0.5,1.5c0,0.1,0,0.2-0.1,0.3c-0.1,0-0.1,0-0.2,0l-1.3-0.9l-1.3,0.9c-0.1,0.1-0.2,0-0.3-0.1
									c0-0.1,0-0.1,0-0.2l0.5-1.5l-1.2-0.9c-0.1-0.1-0.1-0.2,0-0.3c0,0,0.1-0.1,0.2-0.1h1.5l0.5-1.5c0-0.1,0.1-0.2,0.3-0.1
									c0,0,0,0,0,0C84.6,98.2,84.7,98.2,84.7,98.3z"/>
								<path id="ac4c2fe3-3eec-4615-8182-d4ba52c3c1e2" class="st2" d="M84.7,106l0.5,1.5h1.6c0.1,0,0.2,0.1,0.2,0.2c0,0,0,0,0,0
									c0,0.1,0,0.1-0.1,0.2l-1.2,0.9l0.5,1.5c0,0.1,0,0.2-0.1,0.3c-0.1,0-0.1,0-0.2,0l-1.3-0.9l-1.3,0.9c-0.1,0.1-0.2,0.1-0.3,0
									c0-0.1,0-0.1,0-0.2l0.5-1.5l-1.2-0.9c-0.1-0.1-0.1-0.2,0-0.3c0,0,0.1-0.1,0.2-0.1h1.5l0.5-1.5c0-0.1,0.1-0.2,0.3-0.1
									c0,0,0,0,0,0C84.6,106,84.7,106,84.7,106z"/>
								<path id="b9a5c0f2-9358-4a8f-a763-74317487e44d" class="st2" d="M84.7,113.7l0.5,1.5h1.6c0.1,0,0.2,0.1,0.2,0.2
									c0,0.1,0,0.1-0.1,0.2l-1.2,0.9l0.5,1.5c0,0.1,0,0.2-0.1,0.3c-0.1,0-0.1,0-0.2,0l-1.3-0.9l-1.3,0.9c-0.1,0.1-0.2,0.1-0.3,0
									c0,0,0,0,0,0c0-0.1,0-0.1,0-0.2l0.5-1.5l-1.2-0.9c-0.1-0.1-0.1-0.2,0-0.3c0,0,0.1-0.1,0.2-0.1h1.5l0.5-1.5
									c0-0.1,0.2-0.2,0.3-0.1C84.6,113.6,84.7,113.7,84.7,113.7z"/>
								<path id="b5dce4ae-f14c-46fd-a961-b10699a1fa06" class="st2" d="M90.7,86.7l0.5,1.5h1.6c0.1,0,0.2,0.1,0.2,0.2
									c0,0.1,0,0.1-0.1,0.2l-1.2,0.9l0.5,1.5c0,0.1,0,0.2-0.1,0.3c-0.1,0-0.1,0-0.2,0l-1.3-0.9l-1.3,0.9c-0.1,0.1-0.2,0.1-0.3,0
									c0,0,0,0,0,0c0-0.1,0-0.1,0-0.2l0.5-1.5l-1.2-0.9c-0.1-0.1-0.1-0.2,0-0.3c0,0,0.1-0.1,0.2-0.1h1.6l0.5-1.5
									c0-0.1,0.1-0.2,0.3-0.1C90.6,86.6,90.7,86.6,90.7,86.7z"/>
								<path id="b05ddbc2-79f8-4e51-9c51-59ae832b0c8d" class="st2" d="M90.7,94.4l0.5,1.5h1.6c0.1,0,0.2,0.1,0.2,0.2
									c0,0.1,0,0.1-0.1,0.2l-1.2,0.9l0.5,1.5c0,0.1,0,0.2-0.1,0.3c-0.1,0-0.1,0-0.2,0L90.5,98l-1.3,0.9c-0.1,0.1-0.2,0.1-0.3,0
									c0-0.1,0-0.1,0-0.2l0.5-1.5l-1.2-0.9c-0.1-0.1-0.1-0.2,0-0.3c0,0,0.1-0.1,0.2-0.1h1.6l0.5-1.5
									C90.4,94.4,90.5,94.3,90.7,94.4C90.6,94.3,90.6,94.3,90.7,94.4C90.6,94.3,90.7,94.3,90.7,94.4z"/>
								<path id="eef785e0-db47-4db9-9504-aca4498e2926" class="st2" d="M90.7,102.1l0.5,1.5h1.6c0.1,0,0.2,0.1,0.2,0.2c0,0,0,0,0,0
									c0,0.1,0,0.1-0.1,0.2l-1.2,0.9l0.5,1.5c0,0.1,0,0.2-0.1,0.3c-0.1,0-0.1,0-0.2,0l-1.3-0.9l-1.3,0.9c-0.1,0.1-0.2,0.1-0.3,0
									c0-0.1,0-0.1,0-0.2l0.5-1.5l-1.2-0.9c-0.1-0.1-0.1-0.2,0-0.3c0,0,0.1-0.1,0.2-0.1h1.6l0.5-1.5C90.4,102,90.5,102,90.7,102.1
									C90.6,102,90.6,102,90.7,102.1C90.6,102,90.7,102,90.7,102.1z"/>
								<path id="b172c7ff-96b0-4f40-bdeb-e779ead7e86b" class="st2" d="M90.7,109.8l0.5,1.5h1.6c0.1,0,0.2,0.1,0.2,0.2c0,0,0,0,0,0
									c0,0.1,0,0.1-0.1,0.2l-1.2,0.9l0.5,1.5c0,0.1,0,0.2-0.1,0.3c0,0,0,0,0,0c-0.1,0-0.1,0-0.2,0l-1.3-0.9l-1.3,0.9
									c-0.1,0.1-0.2,0.1-0.3,0c0,0,0,0,0,0c0-0.1,0-0.1,0-0.2l0.5-1.5l-1.2-0.9c-0.1-0.1-0.1-0.2,0-0.3c0,0,0.1-0.1,0.2-0.1h1.6
									l0.5-1.5C90.4,109.7,90.5,109.7,90.7,109.8C90.6,109.7,90.7,109.7,90.7,109.8z"/>
								<path id="ab05fd99-bd60-4f9a-94cf-f74637b04141" class="st2" d="M96.7,82.9l0.5,1.5h1.5c0.1,0,0.2,0.1,0.2,0.2c0,0,0,0,0,0
									c0,0.1,0,0.1-0.1,0.2l-1.2,0.9l0.5,1.5c0,0.1,0,0.2-0.1,0.3c-0.1,0-0.1,0-0.2,0l-1.3-0.9l-1.3,0.9c-0.1,0.1-0.2,0.1-0.3,0
									c0,0,0,0,0,0c0-0.1,0-0.1,0-0.2l0.5-1.5l-1.2-0.9c-0.1-0.1-0.1-0.2,0-0.3c0,0,0,0,0,0c0,0,0.1-0.1,0.2-0.1h1.6l0.5-1.5
									c0-0.1,0.2-0.2,0.3-0.1C96.6,82.8,96.7,82.8,96.7,82.9L96.7,82.9z"/>
								<path id="b7aceae1-4e26-4819-88de-a99630f58ce4" class="st2" d="M96.7,90.6l0.5,1.5h1.5c0.1,0,0.2,0.1,0.2,0.2c0,0,0,0,0,0
									c0,0.1,0,0.1-0.1,0.2l-1.2,0.9l0.5,1.5c0,0.1,0,0.2-0.1,0.3c-0.1,0-0.1,0-0.2,0l-1.3-0.9l-1.3,0.9c-0.1,0.1-0.2,0.1-0.3,0
									c0-0.1,0-0.1,0-0.2l0.5-1.5l-1.2-0.9c-0.1-0.1-0.1-0.2,0-0.3c0,0,0,0,0,0c0,0,0.1-0.1,0.2-0.1h1.6l0.5-1.5
									C96.4,90.6,96.5,90.5,96.7,90.6C96.6,90.5,96.6,90.6,96.7,90.6z"/>
								<path id="e91a006f-b75a-40ab-b10b-68776e0c3842" class="st2" d="M96.7,98.3l0.5,1.5h1.5c0.1,0,0.2,0.1,0.2,0.2c0,0,0,0,0,0
									c0,0.1,0,0.1-0.1,0.2l-1.2,0.9l0.5,1.5c0,0.1,0,0.2-0.1,0.3c-0.1,0-0.1,0-0.2,0l-1.3-0.9l-1.3,0.9c-0.1,0.1-0.2,0-0.3-0.1
									c0-0.1,0-0.1,0-0.2l0.5-1.5l-1.2-0.9c-0.1-0.1-0.1-0.2,0-0.3c0,0,0,0,0,0c0,0,0.1-0.1,0.2-0.1h1.6l0.5-1.5
									c0-0.1,0.2-0.2,0.3-0.1C96.6,98.2,96.7,98.2,96.7,98.3L96.7,98.3z"/>
								<path id="b9601883-09fe-4da3-8eed-d0b107a38f75" class="st2" d="M96.7,106l0.5,1.5h1.5c0.1,0,0.2,0.1,0.2,0.2c0,0,0,0,0,0
									c0,0.1,0,0.1-0.1,0.2l-1.2,0.9l0.5,1.5c0,0.1,0,0.2-0.1,0.3c-0.1,0-0.1,0-0.2,0l-1.3-0.9l-1.3,0.9c-0.1,0.1-0.2,0.1-0.3,0
									c0-0.1,0-0.1,0-0.2l0.5-1.5l-1.2-0.9c-0.1-0.1-0.1-0.2,0-0.3c0,0,0,0,0,0c0,0,0.1-0.1,0.2-0.1h1.6l0.5-1.5
									C96.4,106,96.5,105.9,96.7,106C96.6,106,96.7,106,96.7,106L96.7,106z"/>
								<path id="a1b67ffe-d832-4738-a456-b9a9d2a03194" class="st2" d="M96.7,113.7l0.5,1.5h1.5c0.1,0,0.2,0.1,0.2,0.2c0,0,0,0,0,0
									c0,0.1,0,0.1-0.1,0.2l-1.2,0.9L98,118c0,0.1,0,0.2-0.1,0.3c-0.1,0-0.1,0-0.2,0l-1.3-0.9l-1.3,0.9c-0.1,0.1-0.2,0.1-0.3,0
									c0,0,0,0,0,0c0-0.1,0-0.1,0-0.2l0.5-1.5l-1.2-0.9c-0.1-0.1-0.1-0.2,0-0.3c0,0,0,0,0,0c0,0,0.1-0.1,0.2-0.1h1.6l0.5-1.5
									C96.4,113.7,96.5,113.6,96.7,113.7C96.6,113.7,96.7,113.7,96.7,113.7L96.7,113.7z"/>
								<path id="feff616f-4294-4656-9313-dd1c1d7a7a2c" class="st2" d="M102.6,86.7l0.5,1.5h1.6c0.1,0,0.2,0.1,0.2,0.2
									c0,0.1,0,0.1-0.1,0.2l-1.2,0.9l0.5,1.5c0,0.1,0,0.2-0.1,0.3c-0.1,0-0.1,0-0.2,0l-1.3-0.9l-1.3,0.9c-0.1,0.1-0.2,0.1-0.3,0
									c0,0,0,0,0,0c0-0.1,0-0.1,0-0.2l0.5-1.5l-1.2-0.9c-0.1-0.1-0.1-0.2,0-0.3c0,0,0.1-0.1,0.2-0.1h1.6l0.5-1.5
									c0-0.1,0.1-0.2,0.2-0.1C102.6,86.5,102.6,86.5,102.6,86.7C102.6,86.6,102.6,86.6,102.6,86.7z"/>
								<path id="b8dd800f-aae4-4463-a147-473b7116442e" class="st2" d="M102.6,94.4l0.5,1.5h1.6c0.1,0,0.2,0.1,0.2,0.2
									c0,0.1,0,0.1-0.1,0.1l-1.2,0.9l0.5,1.5c0,0.1,0,0.2-0.1,0.3c-0.1,0-0.1,0-0.2,0l-1.3-0.9l-1.3,0.9c-0.1,0.1-0.2,0.1-0.3,0
									c0-0.1,0-0.1,0-0.2l0.5-1.5l-1.2-0.9c-0.1-0.1-0.1-0.2,0-0.3c0,0,0.1-0.1,0.1-0.1h1.6l0.5-1.5c0-0.1,0.1-0.2,0.2-0.1
									C102.5,94.3,102.5,94.3,102.6,94.4C102.6,94.3,102.6,94.3,102.6,94.4z"/>
								<path id="ae37579c-9048-4222-bac2-953b851d4d40" class="st2" d="M102.6,102.1l0.5,1.5h1.6c0.1,0,0.2,0.1,0.2,0.2
									c0,0,0,0,0,0c0,0.1,0,0.1-0.1,0.2l-1.2,0.9l0.5,1.5c0,0.1,0,0.2-0.1,0.3c-0.1,0-0.1,0-0.2,0l-1.3-0.9l-1.3,0.9
									c-0.1,0.1-0.2,0.1-0.3,0c0-0.1,0-0.1,0-0.2l0.5-1.5l-1.2-0.9c-0.1-0.1-0.1-0.2,0-0.3c0,0,0.1-0.1,0.2-0.1h1.6l0.5-1.5
									C102.3,102,102.5,102,102.6,102.1C102.6,102,102.6,102,102.6,102.1z"/>
								<path id="a4383fe2-b948-4fd8-a363-b1b925a148c5" class="st2" d="M102.6,109.8l0.5,1.5h1.6c0.1,0,0.2,0.1,0.2,0.2
									c0,0,0,0,0,0c0,0.1,0,0.1-0.1,0.2l-1.2,0.9l0.4,1.5c0,0.1,0,0.2-0.1,0.3c-0.1,0-0.1,0-0.2,0l-1.3-0.9l-1.3,0.9
									c-0.1,0.1-0.2,0.1-0.3,0c0,0,0,0,0,0c0-0.1,0-0.1,0-0.2l0.5-1.5l-1.2-0.9c-0.1-0.1-0.1-0.2,0-0.3c0,0,0.1-0.1,0.1-0.1h1.6
									l0.5-1.5c0-0.1,0.1-0.2,0.2-0.1c0,0,0,0,0,0C102.6,109.7,102.6,109.7,102.6,109.8z"/>
								<path id="a1f8b95e-c62e-4724-a9e5-d70972c3755d" class="st2" d="M108.6,82.9l0.5,1.5h1.6c0.1,0,0.2,0.1,0.2,0.2
									c0,0.1,0,0.1-0.1,0.2l-1.2,0.9l0.5,1.5c0,0.1,0,0.2-0.1,0.3c-0.1,0-0.1,0-0.2,0l-1.3-0.9l-1.3,0.9c-0.1,0.1-0.2,0.1-0.3,0
									c0,0,0,0,0,0c0-0.1,0-0.1,0-0.2l0.5-1.5l-1.2-0.9c-0.1-0.1-0.1-0.2,0-0.3c0,0,0.1-0.1,0.2-0.1h1.6l0.5-1.5
									c0-0.1,0.1-0.2,0.3-0.1C108.6,82.8,108.6,82.8,108.6,82.9z"/>
								<path id="bfc30dc4-b85f-42ae-9d6f-ef4ef143bca4" class="st2" d="M108.6,90.6l0.5,1.5h1.6c0.1,0,0.2,0.1,0.2,0.2
									c0,0.1,0,0.1-0.1,0.2l-1.2,0.9l0.5,1.5c0,0.1,0,0.2-0.1,0.3c-0.1,0-0.1,0-0.2,0l-1.3-0.9l-1.3,0.9c-0.1,0.1-0.2,0.1-0.3,0
									c0-0.1,0-0.1,0-0.2l0.5-1.5l-1.2-0.9c-0.1-0.1-0.1-0.2,0-0.3c0,0,0.1-0.1,0.2-0.1h1.6l0.5-1.5
									C108.3,90.6,108.4,90.5,108.6,90.6C108.5,90.5,108.5,90.5,108.6,90.6C108.6,90.5,108.6,90.6,108.6,90.6z"/>
								<path id="b5e0f17d-1ee1-4f23-8d34-30025fc1454c" class="st2" d="M108.6,98.3l0.5,1.5h1.6c0.1,0,0.2,0.1,0.2,0.2c0,0,0,0,0,0
									c0,0.1,0,0.1-0.1,0.2l-1.2,0.9l0.5,1.5c0,0.1,0,0.2-0.1,0.3c-0.1,0-0.1,0-0.2,0l-1.3-0.9l-1.3,0.9c-0.1,0.1-0.2,0-0.3-0.1
									c0-0.1,0-0.1,0-0.2l0.5-1.5l-1.2-0.9c-0.1-0.1-0.1-0.2,0-0.3c0,0,0.1-0.1,0.2-0.1h1.6l0.5-1.5c0-0.1,0.1-0.2,0.2-0.1
									c0,0,0,0,0,0C108.6,98.2,108.6,98.2,108.6,98.3z"/>
								<path id="b2247cf3-4e36-4239-afc8-ec121052f070" class="st2" d="M108.6,106l0.5,1.5h1.6c0.1,0,0.2,0.1,0.2,0.2c0,0,0,0,0,0
									c0,0.1,0,0.1-0.1,0.2l-1.2,0.9l0.5,1.5c0,0.1,0,0.2-0.1,0.3c-0.1,0-0.1,0-0.2,0l-1.3-0.9l-1.3,0.9c-0.1,0.1-0.2,0.1-0.3,0
									c0-0.1,0-0.1,0-0.2l0.5-1.5l-1.2-0.9c-0.1-0.1-0.1-0.2,0-0.3c0,0,0.1-0.1,0.2-0.1h1.6l0.5-1.5
									C108.3,106,108.4,105.9,108.6,106C108.6,106,108.6,106,108.6,106z"/>
								<path id="e8fb7a56-6cbc-4ada-8067-c722270c3679" class="st2" d="M108.6,113.7l0.5,1.5h1.6c0.1,0,0.2,0.1,0.2,0.2
									c0,0.1,0,0.1-0.1,0.2l-1.2,0.9l0.5,1.5c0,0.1,0,0.2-0.1,0.3c-0.1,0-0.1,0-0.2,0l-1.3-0.9l-1.3,0.9c-0.1,0.1-0.2,0.1-0.3,0
									c0,0,0,0,0,0c0-0.1,0-0.1,0-0.2l0.5-1.5l-1.2-0.9c-0.1-0.1-0.1-0.2,0-0.3c0,0,0.1-0.1,0.2-0.1h1.6l0.5-1.5
									C108.3,113.7,108.4,113.6,108.6,113.7C108.6,113.7,108.6,113.7,108.6,113.7z"/>
								<path id="a8ba6d27-1567-4072-a94c-160ce669a035" class="st2" d="M114.6,86.7l0.5,1.5h1.6c0.1,0,0.2,0.1,0.2,0.2c0,0,0,0,0,0
									c0,0.1,0,0.1-0.1,0.2l-1.2,0.9l0.5,1.5c0,0.1,0,0.2-0.1,0.3c-0.1,0-0.1,0-0.2,0l-1.3-0.9l-1.3,0.9c-0.1,0.1-0.2,0.1-0.3,0
									c0,0,0,0,0,0c0-0.1,0-0.1,0-0.2l0.5-1.5l-1.2-0.9c-0.1-0.1-0.1-0.2,0-0.3c0,0,0.1-0.1,0.2-0.1h1.6l0.5-1.5
									c0-0.1,0.2-0.2,0.3-0.1C114.6,86.6,114.6,86.6,114.6,86.7L114.6,86.7z"/>
								<path id="a90f1734-5ad4-466f-8e07-c85dbf450b78" class="st2" d="M114.6,94.4l0.5,1.5h1.6c0.1,0,0.2,0.1,0.2,0.2
									c0,0.1,0,0.1-0.1,0.2l-1.2,0.9l0.5,1.5c0,0.1,0,0.2-0.1,0.3c-0.1,0-0.1,0-0.2,0l-1.3-0.9l-1.3,0.9c-0.1,0.1-0.2,0.1-0.3,0
									c0-0.1,0-0.1,0-0.2l0.5-1.5l-1.2-0.9c-0.1-0.1-0.1-0.2,0-0.3c0,0,0.1-0.1,0.2-0.1h1.6l0.5-1.5
									C114.3,94.3,114.4,94.3,114.6,94.4C114.5,94.3,114.5,94.3,114.6,94.4C114.6,94.3,114.6,94.3,114.6,94.4z"/>
								<path id="b998deaf-76fd-4d60-9a25-5e231af6b3e0" class="st2" d="M114.6,102.1l0.5,1.5h1.6c0.1,0,0.2,0.1,0.2,0.2
									c0,0,0,0,0,0c0,0.1,0,0.1-0.1,0.2l-1.2,0.9l0.5,1.5c0,0.1,0,0.2-0.1,0.3c-0.1,0-0.1,0-0.2,0l-1.3-0.9l-1.3,0.9
									c-0.1,0.1-0.2,0.1-0.3,0c0-0.1,0-0.1,0-0.2l0.5-1.5l-1.2-0.9c-0.1-0.1-0.1-0.2,0-0.3c0,0,0.1-0.1,0.2-0.1h1.6l0.5-1.5
									C114.3,102,114.4,102,114.6,102.1C114.6,102,114.6,102,114.6,102.1z"/>
								<path id="b8a40c45-3456-4865-aca1-d0c1a8a0c7cb" class="st2" d="M114.6,109.8l0.5,1.5h1.6c0.1,0,0.2,0.1,0.2,0.2
									c0,0,0,0,0,0c0,0.1,0,0.1-0.1,0.2l-1.2,0.9l0.5,1.5c0,0.1,0,0.2-0.1,0.3c-0.1,0-0.1,0-0.2,0l-1.3-0.9l-1.3,0.9
									c-0.1,0.1-0.2,0.1-0.3,0c0,0,0,0,0,0c0-0.1,0-0.1,0-0.2l0.5-1.5l-1.2-0.9c-0.1-0.1-0.1-0.2,0-0.3c0,0,0.1-0.1,0.2-0.1h1.6
									l0.5-1.5C114.3,109.7,114.4,109.7,114.6,109.8C114.6,109.7,114.6,109.8,114.6,109.8L114.6,109.8z"/>
								<path id="a0d0b708-5c4a-4a3b-b2e7-1caa8ad369bd" class="st2" d="M120.6,82.9l0.5,1.5h1.6c0.1,0,0.2,0.1,0.2,0.2c0,0,0,0,0,0
									c0,0.1,0,0.1-0.1,0.2l-1.2,0.9l0.5,1.5c0,0.1,0,0.2-0.1,0.3c0,0,0,0,0,0c-0.1,0-0.1,0-0.2,0l-1.3-0.9l-1.3,0.9
									c-0.1,0.1-0.2,0.1-0.3,0c0,0,0,0,0,0c0-0.1,0-0.1,0-0.2l0.5-1.5l-1.3-1c-0.1-0.1-0.1-0.2,0-0.3c0,0,0,0,0,0
									c0,0,0.1-0.1,0.2-0.1h1.6l0.5-1.5c0-0.1,0.1-0.2,0.3-0.1C120.5,82.8,120.6,82.8,120.6,82.9z"/>
								<path id="f7005cda-faac-4320-bd33-4d63e98824cb" class="st2" d="M120.6,90.6l0.5,1.5h1.6c0.1,0,0.2,0.1,0.2,0.2c0,0,0,0,0,0
									c0,0.1,0,0.1-0.1,0.2l-1.2,0.9l0.5,1.5c0,0.1,0,0.2-0.1,0.3c0,0,0,0,0,0c-0.1,0-0.1,0-0.2,0l-1.3-0.9l-1.3,0.9
									c-0.1,0.1-0.2,0.1-0.3,0c0-0.1,0-0.1,0-0.2l0.5-1.5l-1.3-1c-0.1-0.1-0.1-0.2,0-0.3c0,0,0,0,0,0c0,0,0.1-0.1,0.2-0.1h1.6
									l0.5-1.5c0-0.1,0.2-0.2,0.3-0.1C120.5,90.5,120.6,90.5,120.6,90.6L120.6,90.6z"/>
								<path id="a325edc8-57bc-4a64-8ffb-56892b1f1130" class="st2" d="M120.6,98.3l0.5,1.5h1.6c0.1,0,0.2,0.1,0.2,0.2c0,0,0,0,0,0
									c0,0.1,0,0.1-0.1,0.2l-1.2,0.9l0.5,1.5c0,0.1,0,0.2-0.1,0.3c0,0,0,0,0,0c-0.1,0-0.1,0-0.2,0l-1.3-0.9l-1.3,0.9
									c-0.1,0.1-0.2,0-0.3-0.1c0-0.1,0-0.1,0-0.2l0.5-1.5l-1.2-0.9c-0.1-0.1-0.1-0.2,0-0.3c0,0,0,0,0,0c0,0,0.1-0.1,0.2-0.1h1.6
									l0.5-1.5c0-0.1,0.1-0.2,0.2-0.1c0,0,0,0,0,0C120.5,98.2,120.6,98.2,120.6,98.3z"/>
								<path id="bdf4dc84-8c01-4077-a918-21c8bf49415a" class="st2" d="M120.6,106l0.5,1.5h1.6c0.1,0,0.2,0.1,0.2,0.2c0,0,0,0,0,0
									c0,0.1,0,0.1-0.1,0.2l-1.2,0.9l0.5,1.5c0,0.1,0,0.2-0.1,0.3c0,0,0,0,0,0c-0.1,0-0.1,0-0.2,0l-1.3-0.9l-1.3,0.9
									c-0.1,0.1-0.2,0.1-0.3,0c0-0.1,0-0.1,0-0.2l0.5-1.5l-1.2-0.9c-0.1-0.1-0.1-0.2,0-0.3c0,0,0,0,0,0c0,0,0.1-0.1,0.2-0.1h1.6
									l0.5-1.5C120.3,106,120.4,105.9,120.6,106C120.6,106,120.6,106,120.6,106L120.6,106z"/>
								<path id="e8eb3614-dcdd-4303-ab61-2b76cfcb4715" class="st2" d="M120.6,113.7l0.5,1.5h1.6c0.1,0,0.2,0.1,0.2,0.2
									c0,0.1,0,0.1-0.1,0.2l-1.2,0.9l0.5,1.5c0,0.1,0,0.2-0.1,0.3c0,0,0,0,0,0c-0.1,0-0.1,0-0.2,0l-1.3-0.9l-1.3,0.9
									c-0.1,0.1-0.2,0.1-0.3,0c0,0,0,0,0,0c0-0.1,0-0.1,0-0.2l0.5-1.5l-1.2-0.9c-0.1-0.1-0.1-0.2,0-0.3c0,0,0,0,0,0
									c0,0,0.1-0.1,0.2-0.1h1.6l0.5-1.5C120.3,113.7,120.4,113.6,120.6,113.7C120.5,113.7,120.6,113.7,120.6,113.7z"/>
								<path id="ae1344ae-f9d0-4e61-8a0c-1bd3f8f1cc33" class="st2" d="M126.6,86.7l0.5,1.5h1.6c0.1,0,0.2,0.1,0.2,0.2c0,0,0,0,0,0
									c0,0.1,0,0.1-0.1,0.2l-1.2,0.9l0.5,1.5c0,0.1,0,0.2-0.1,0.3c-0.1,0-0.1,0-0.2,0l-1.3-0.9l-1.3,0.9c-0.1,0.1-0.2,0.1-0.3,0
									c0,0,0,0,0,0c0-0.1,0-0.1,0-0.2l0.5-1.5l-1.3-0.9c-0.1-0.1-0.1-0.2,0-0.3c0,0,0,0,0,0c0,0,0.1-0.1,0.2-0.1h1.6l0.5-1.5
									c0-0.1,0.2-0.2,0.3-0.1C126.5,86.5,126.6,86.6,126.6,86.7L126.6,86.7z"/>
								<path id="b9ba97cd-85f1-4ee8-a4ca-a00a43656465" class="st2" d="M126.6,94.4l0.5,1.5h1.6c0.1,0,0.2,0.1,0.2,0.2
									c0,0.1,0,0.1-0.1,0.2l-1.2,0.9l0.5,1.5c0,0.1,0,0.2-0.1,0.3c-0.1,0-0.1,0-0.2,0l-1.3-0.9l-1.3,0.9c-0.1,0.1-0.2,0.1-0.3,0
									c0-0.1,0-0.1,0-0.2l0.5-1.5l-1.3-1c-0.1-0.1-0.1-0.2,0-0.3c0,0,0,0,0,0c0-0.1,0.1-0.1,0.2-0.1h1.6l0.5-1.5
									c0-0.1,0.2-0.2,0.3-0.1C126.5,94.3,126.6,94.3,126.6,94.4z"/>
								<path id="ba7299b9-9cee-4ce9-9b2d-5e046b9114b6" class="st2" d="M126.6,102.1l0.5,1.5h1.6c0.1,0,0.2,0.1,0.2,0.2
									c0,0,0,0,0,0c0,0.1,0,0.1-0.1,0.2l-1.2,0.9l0.5,1.5c0,0.1,0,0.2-0.1,0.3c-0.1,0-0.1,0-0.2,0l-1.3-0.9l-1.3,0.9
									c-0.1,0.1-0.2,0-0.3,0c0-0.1,0-0.1,0-0.2l0.5-1.5l-1.2-0.9c-0.1-0.1-0.1-0.2,0-0.3c0,0,0,0,0,0c0,0,0.1-0.1,0.2-0.1h1.6
									l0.5-1.5c0-0.1,0.1-0.2,0.2-0.1c0,0,0,0,0,0C126.5,102,126.5,102,126.6,102.1z"/>
								<path id="b4f26952-9a69-46f1-80fc-248a9ff93879" class="st2" d="M126.6,109.8l0.5,1.5h1.6c0.1,0,0.2,0.1,0.2,0.2
									c0,0,0,0,0,0c0,0.1,0,0.1-0.1,0.2l-1.2,0.9l0.5,1.5c0,0.1,0,0.2-0.1,0.3c-0.1,0-0.1,0-0.2,0l-1.3-0.9l-1.3,0.9
									c-0.1,0.1-0.2,0.1-0.3,0c0,0,0,0,0,0c0-0.1,0-0.1,0-0.2l0.5-1.5l-1.2-0.9c-0.1-0.1-0.1-0.2,0-0.3c0,0,0,0,0,0
									c0,0,0.1-0.1,0.2-0.1h1.6l0.5-1.5C126.3,109.7,126.4,109.7,126.6,109.8C126.6,109.7,126.6,109.8,126.6,109.8L126.6,109.8z"
									/>
								<path id="a12404ae-4ffe-4465-b15d-4dce1169c504" class="st2" d="M132.6,82.9l0.5,1.5h1.6c0.1,0,0.2,0.1,0.2,0.2
									c0,0.1,0,0.1-0.1,0.2l-1.2,0.9l0.5,1.5c0,0.1,0,0.2-0.1,0.3c-0.1,0-0.1,0-0.2,0l-1.3-0.9l-1.3,0.9c-0.1,0.1-0.2,0.1-0.3,0
									c0,0,0,0,0,0c0-0.1,0-0.1,0-0.2l0.5-1.5l-1.3-1c-0.1-0.1-0.1-0.2,0-0.3c0,0,0.1-0.1,0.1-0.1h1.6l0.5-1.5
									c0-0.1,0.1-0.2,0.3-0.1C132.5,82.8,132.5,82.8,132.6,82.9z"/>
								<path id="af05372c-7030-419e-a5ed-24bed453f059" class="st2" d="M132.6,90.6l0.5,1.5h1.6c0.1,0,0.2,0.1,0.2,0.2
									c0,0.1,0,0.1-0.1,0.2l-1.2,0.9l0.5,1.5c0,0.1,0,0.2-0.1,0.3c-0.1,0-0.1,0-0.2,0l-1.3-0.9l-1.3,0.9c-0.1,0.1-0.2,0.1-0.3,0
									c0-0.1,0-0.1,0-0.2l0.5-1.5l-1.3-1c-0.1-0.1-0.1-0.2,0-0.3c0,0,0.1-0.1,0.1-0.1h1.6l0.5-1.5c0-0.1,0.1-0.2,0.2-0.1
									c0,0,0,0,0,0C132.5,90.5,132.5,90.5,132.6,90.6z"/>
								<path id="fbe8afcd-c56b-4d54-b4e4-bd6fe4158848" class="st2" d="M132.6,98.3l0.5,1.5h1.6c0.1,0,0.2,0.1,0.2,0.2c0,0,0,0,0,0
									c0,0.1,0,0.1-0.1,0.2l-1.2,0.9l0.5,1.5c0,0.1,0,0.2-0.1,0.3c-0.1,0-0.1,0-0.2,0l-1.3-0.9l-1.3,0.9c-0.1,0.1-0.2,0-0.3-0.1
									c0-0.1,0-0.1,0-0.2l0.5-1.5l-1.2-0.9c-0.1-0.1-0.1-0.2,0-0.3c0,0,0.1-0.1,0.1-0.1h1.6l0.5-1.5c0-0.1,0.1-0.2,0.2-0.1
									c0,0,0,0,0,0C132.5,98.2,132.5,98.2,132.6,98.3z"/>
								<path id="bb1b7420-fe2b-4906-8e07-384f86f90bff" class="st2" d="M132.6,106l0.5,1.5h1.6c0.1,0,0.2,0.1,0.2,0.2c0,0,0,0,0,0
									c0,0.1,0,0.1-0.1,0.2l-1.2,0.9l0.5,1.5c0,0.1,0,0.2-0.1,0.3c-0.1,0-0.1,0-0.2,0l-1.3-0.9l-1.3,0.9c-0.1,0.1-0.2,0.1-0.3,0
									c0-0.1,0-0.1,0-0.2l0.5-1.5l-1.2-0.9c-0.1-0.1-0.1-0.2,0-0.3c0,0,0.1-0.1,0.1-0.1h1.6l0.5-1.5
									C132.3,106,132.4,105.9,132.6,106C132.5,106,132.5,106,132.6,106z"/>
								<path id="efa86681-e514-42a1-a4a2-e280da7a33e6" class="st2" d="M132.6,113.7l0.5,1.5h1.6c0.1,0,0.2,0.1,0.2,0.2
									c0,0.1,0,0.1-0.1,0.2l-1.2,0.9l0.5,1.5c0,0.1,0,0.2-0.1,0.3c-0.1,0-0.1,0-0.2,0l-1.3-0.9l-1.3,0.9c-0.1,0.1-0.2,0.1-0.3,0
									c0,0,0,0,0,0c0-0.1,0-0.1,0-0.2l0.5-1.5l-1.2-0.9c-0.1-0.1-0.1-0.2,0-0.3c0,0,0.1-0.1,0.1-0.1h1.6l0.5-1.5
									C132.3,113.7,132.4,113.6,132.6,113.7C132.5,113.7,132.5,113.7,132.6,113.7z"/>
							</g>
						</g>
						<path id="b09f68c5-24bd-446a-ac97-1f8915798137" class="st14" d="M79.5,77H136c2,0,3.7,1.7,3.7,3.7V188c0,2-1.7,3.7-3.7,3.7
							H79.5c-2,0-3.7-1.7-3.7-3.7V80.7C75.8,78.7,77.4,77,79.5,77z"/>
					</g>
				</g>
			</g>
		</g>
	</g>
	<path id="b3354408-e651-4767-8354-f139664dee3b" class="st20" d="M121.1,143.4v-0.6c0-5.4-3.5-10.1-8.6-11.8v-4.9h-8.6v4.9
		c-6.5,2-10.1,8.9-8.1,15.4c0,0,0,0,0,0l0,0c1,3.2,3.2,5.8,6.2,7.3l8.4,4.2c1.8,0.9,2.6,3.1,1.7,4.9c-0.6,1.3-1.9,2.1-3.4,2.1h-1.3
		c-2,0-3.7-1.6-3.7-3.7v-0.6h-8.6v0.6c0,5.4,3.5,10.1,8.6,11.7v4.9h8.6V173c6.5-2,10.1-8.9,8.1-15.4l0,0c-1-3.2-3.3-5.8-6.2-7.4
		l-8.4-4.2c-1.8-0.9-2.6-3.1-1.7-4.9c0,0,0,0,0-0.1l0,0c0.6-1.2,1.9-2,3.3-2h1.3c2,0,3.7,1.6,3.7,3.7v0.6L121.1,143.4z"/>
	<path id="ab73d5b0-22d6-421e-8df6-fac7f6b36f0b" class="st24" d="M47.8,166.1l5.8-5.8v-26.2c0-4.8,3.9-8.7,8.7-8.7H74V137l7.3-7.3
		c2.4-2.4,6.3-2.4,8.7,0c2.4,2.4,2.4,6.3,0,8.7l-13.1,13.1c6.4,6.4,6.4,16.9,0,23.3l0,0l-14.6,14.6L47.8,166.1z"/>
	<path id="e35ec208-e69c-42f5-81be-89241fbaaa25" class="st25" d="M68.1,138.7l1.7-1.7c1.1-1.1,3-1.1,4.1,0c0,0,0,0,0,0l0,0
		c1.1,1.1,1.1,3,0,4.1l-1.7,1.7c-1.1,1.1-3,1.1-4.1,0l0,0C67,141.7,67,139.8,68.1,138.7z"/>
	<path id="b74f8071-ee62-4cbc-a208-c74c3603b475" class="st26" d="M18.7,175.2l23.5-15c0.9-0.6,2-0.3,2.6,0.6l20.1,31.5
		c0.6,0.9,0.3,2-0.6,2.6l-23.5,15c-0.9,0.6-2,0.3-2.6-0.6l-20.1-31.5C17.5,176.9,17.8,175.7,18.7,175.2z"/>
	<path id="e6613c2c-e175-45fd-8c9c-069a31757224" class="st27" d="M43,193.4l-1.7-2.7c-0.9-1.5-0.5-3.4,1-4.4c0,0,0,0,0,0l0,0
		c1.5-0.9,3.4-0.5,4.4,1c0,0,0,0,0,0l0,0l1.7,2.7c0.9,1.5,0.5,3.4-1,4.4c0,0,0,0,0,0l0,0C45.9,195.3,44,194.8,43,193.4L43,193.4z"/>
	<path id="ae226424-5030-4c3c-a990-2523908a730a" class="st28" d="M193.7,112.3l-9-34.3c-0.2-0.7-0.9-1.1-1.6-0.9c0,0,0,0,0,0
		c-0.3,0.1-0.5,0.2-0.7,0.4l-7.9,9.1c-16-12.8-37.8-4.8-47.6,6.1v0.1c-0.5,0.6-0.4,1.4,0.1,1.9c0,0,0,0,0,0l0,0
		c0.5,0.5,1.4,0.4,1.9-0.1v-0.1c2.4-2.6,23.1-5.1,35.1,4.2l-7.8,9c-0.5,0.6-0.4,1.4,0.1,1.9c0,0,0,0,0,0c0.2,0.2,0.4,0.3,0.7,0.3
		l35.2,4.1c0.7,0.1,1.4-0.4,1.5-1.1c0,0,0,0,0,0l0,0C193.8,112.6,193.8,112.4,193.7,112.3z"/>
</g>
</svg>
