<svg id="Layer_1" data-name="Layer 1" xmlns="http://www.w3.org/2000/svg" width="100" height="100" viewBox="0 0 100 100"><defs><style>.cls-1{fill:#fff;}.cls-2{isolation:isolate;}.cls-3{fill:#313133;}.cls-4{fill:#002b7f;}.cls-5{fill:#5a5b5e;}.cls-6{fill:#464749;}.cls-7{fill:#edeeef;}.cls-8{fill:#e0007a;}.cls-9{fill:#8b004e;}.cls-10{fill:#fe9d2b;}.cls-11{fill:#c57c22;}.cls-12{fill:#009cdc;}.cls-13{fill:#006790;}.cls-14{fill:#8abb2a;}.cls-15{fill:#5a7f1c;}</style></defs><rect id="Rectángulo_296-2" data-name="Rectángulo 296-2" class="cls-1" x="2.5" y="2.5" width="95" height="95" rx="15.73"/><g id="Grupo_1568" data-name="Grupo 1568"><g id="_EDUCACIÓN_FINANCIERA" data-name=" EDUCACIÓN FINANCIERA" class="cls-2"><g class="cls-2"><path class="cls-3" d="M26,68.73V70H22.83v1.31h2.86v1.22H22.83v1.32h3.28v1.26h-4.7V68.73Z"/><path class="cls-3" d="M32.25,69.57a3,3,0,0,1,.91,2.32,3.14,3.14,0,0,1-.89,2.35,3.74,3.74,0,0,1-2.71.87H27.38V68.73h2.25A3.73,3.73,0,0,1,32.25,69.57ZM31.2,73.36a1.88,1.88,0,0,0,.53-1.43,1.93,1.93,0,0,0-.53-1.45A2.22,2.22,0,0,0,29.59,70H28.8v3.88h.9A2.1,2.1,0,0,0,31.2,73.36Z"/><path class="cls-3" d="M36.08,73.46a1.16,1.16,0,0,0,1,.44,1.13,1.13,0,0,0,1-.44,1.91,1.91,0,0,0,.35-1.21V68.73h1.42V72.3A2.85,2.85,0,0,1,39,74.43a3,3,0,0,1-3.93,0,2.81,2.81,0,0,1-.77-2.12V68.73h1.42v3.52A1.86,1.86,0,0,0,36.08,73.46Z"/><path class="cls-3" d="M44.17,73.85A2.13,2.13,0,0,0,45.89,73l.91.94a3.45,3.45,0,0,1-5,.29,3.37,3.37,0,0,1,0-4.71,3.25,3.25,0,0,1,2.38-1,3.34,3.34,0,0,1,2.62,1.19l-.88,1A2.09,2.09,0,0,0,44.27,70a2,2,0,0,0-1.37.52,1.82,1.82,0,0,0-.57,1.41,1.92,1.92,0,0,0,.54,1.43A1.77,1.77,0,0,0,44.17,73.85Z"/><path class="cls-3" d="M52.42,75.11l-.6-1.38H49.15l-.59,1.38H47l2.76-6.38h1.38l2.75,6.38Zm-1.93-4.48-.8,1.85h1.6Z"/><path class="cls-3" d="M57.6,73.85A2.09,2.09,0,0,0,59.31,73l.92.94a3.45,3.45,0,0,1-5,.29,3.37,3.37,0,0,1,0-4.71,3.25,3.25,0,0,1,2.38-1,3.34,3.34,0,0,1,2.62,1.19l-.88,1A2.09,2.09,0,0,0,57.7,70a1.94,1.94,0,0,0-1.37.52,1.82,1.82,0,0,0-.57,1.41,2,2,0,0,0,.53,1.43A1.79,1.79,0,0,0,57.6,73.85Z"/><path class="cls-3" d="M61.35,68.73h1.42v6.38H61.35Z"/><path class="cls-3" d="M69.7,74.23a3.48,3.48,0,0,1-4.76,0,3.36,3.36,0,0,1,0-4.7,3.48,3.48,0,0,1,4.76,0,3.33,3.33,0,0,1,0,4.7Zm-.48-2.35a2.07,2.07,0,0,0-.55-1.45,1.73,1.73,0,0,0-1.34-.6,1.77,1.77,0,0,0-1.35.6,2.1,2.1,0,0,0-.54,1.45A2.07,2.07,0,0,0,66,73.33a1.77,1.77,0,0,0,1.35.6,1.73,1.73,0,0,0,1.34-.6A2,2,0,0,0,69.22,71.88ZM68,68.08h-1.3l1.15-1.62,1.42.59Z"/><path class="cls-3" d="M76.34,68.73h1.42v6.38H76.34l-3-4v4H71.88V68.73h1.33l3.13,4.11Z"/></g><g class="cls-2"><path class="cls-3" d="M25.08,78.8v1.25h-3v1.38h2.81v1.25H22.12v2.5H20.7V78.8Z"/><path class="cls-3" d="M26.28,78.8H27.7v6.38H26.28Z"/><path class="cls-3" d="M33.73,78.8h1.43v6.38H33.73l-3-4v4H29.27V78.8h1.34l3.12,4.1Z"/><path class="cls-3" d="M41.27,85.18l-.59-1.38H38l-.59,1.38H35.9l2.75-6.38H40l2.75,6.38ZM39.35,80.7l-.81,1.85h1.6Z"/><path class="cls-3" d="M48,78.8h1.43v6.38H48l-3-4v4H43.52V78.8h1.33L48,82.9Z"/><path class="cls-3" d="M53.9,83.92a2.11,2.11,0,0,0,1.72-.83l.91.94a3.44,3.44,0,0,1-5,.29,3.14,3.14,0,0,1-1-2.35,3.2,3.2,0,0,1,1-2.37,3.29,3.29,0,0,1,2.38-.95,3.37,3.37,0,0,1,2.63,1.2l-.89,1A2.07,2.07,0,0,0,54,80a2,2,0,0,0-1.37.53A1.82,1.82,0,0,0,52.06,82a1.94,1.94,0,0,0,.54,1.43A1.77,1.77,0,0,0,53.9,83.92Z"/><path class="cls-3" d="M57.65,78.8h1.43v6.38H57.65Z"/><path class="cls-3" d="M65.24,78.8v1.27H62.07v1.31h2.85v1.21H62.07v1.33h3.27v1.26H60.65V78.8Z"/><path class="cls-3" d="M71.78,80.91a1.86,1.86,0,0,1-1.21,2l1.62,2.29H70.43l-1.41-2H68v2H66.61V78.8H69a3.49,3.49,0,0,1,2.12.5A1.93,1.93,0,0,1,71.78,80.91Zm-1.71.76a1,1,0,0,0,.26-.75.83.83,0,0,0-.27-.71,1.73,1.73,0,0,0-1-.19H68v1.89h1A1.54,1.54,0,0,0,70.07,81.67Z"/><path class="cls-3" d="M77.79,85.18l-.6-1.38H74.52l-.59,1.38H72.41l2.76-6.38h1.38l2.75,6.38ZM75.86,80.7l-.8,1.85h1.6Z"/></g></g><g id="_Group_" data-name=" Group "><path id="Trazado_1204" data-name="Trazado 1204" class="cls-4" d="M60.54,18l-16.66-.35.71-1.08c0-.52-.28-1.85.24-1.85H60a1,1,0,0,1,.94.95v.56Z"/><path id="Trazado_1205" data-name="Trazado 1205" class="cls-5" d="M61,16.26v1.42l-7.82,1.25-9.25-1.25v-2a1,1,0,0,1,.95-.95h.47v1.13a.38.38,0,0,0,.38.38Z"/><path id="Trazado_1206" data-name="Trazado 1206" class="cls-4" d="M37.21,61.62H35.33c-.26,0,.36-5.35.36-5.61l-.83-4.83h2.83v10A.48.48,0,0,1,37.21,61.62Z"/><path id="Trazado_1207" data-name="Trazado 1207" class="cls-4" d="M69.5,61.62H67.62c-.26,0,.34-5.35.34-5.61l-.81-4.83H70v10A.48.48,0,0,1,69.5,61.62Z"/><g id="Grupo_1541" data-name="Grupo 1541"><path id="Trazado_1208" data-name="Trazado 1208" class="cls-5" d="M34.86,51.18v10a.47.47,0,0,0,.47.47h1.51a.47.47,0,0,1-.47-.47v-7a.47.47,0,0,1,.47-.47h.85V51.18Z"/><path id="Trazado_1209" data-name="Trazado 1209" class="cls-5" d="M70,53.64V51.18H67.15v10a.47.47,0,0,0,.47.47h1.51a.47.47,0,0,1-.47-.47v-7a.47.47,0,0,1,.47-.47Z"/></g><path id="Trazado_1210" data-name="Trazado 1210" class="cls-5" d="M71.64,51.18l-37.91.15a1.43,1.43,0,0,1-1.42-1.42h0l-.1-30.67c0-.78.23-1.56,1-1.56h1.62l17.75,2.18L70,17.68h1.62A1.42,1.42,0,0,1,73,19.09V50.34C73,51.12,72.42,51.18,71.64,51.18Z"/><path id="Trazado_1211" data-name="Trazado 1211" class="cls-6" d="M73,50.15v.19a1.42,1.42,0,0,1-1.42,1.41H33.22a1.41,1.41,0,0,1-1.41-1.41V19.09a1.41,1.41,0,0,1,1.41-1.41h.19v32a.47.47,0,0,0,.48.47Z"/><path id="Trazado_1212" data-name="Trazado 1212" class="cls-7" d="M68.56,48.31,35.92,48a.48.48,0,0,1-.48-.47L35.32,18l1.13-.31H70v29.4l-1,.76a.47.47,0,0,1-.47.47Z"/><path id="Trazado_1213" data-name="Trazado 1213" class="cls-4" d="M70,47.08v1.14a.47.47,0,0,1-.47.47H35.32a.47.47,0,0,1-.48-.47V17.68h1.61V46.61a.47.47,0,0,0,.47.47Z"/><g id="Grupo_1542" data-name="Grupo 1542"><path id="Trazado_1214" data-name="Trazado 1214" class="cls-4" d="M53.13,48.74v6.71a.71.71,0,0,1-.71.71h0a.71.71,0,0,1-.71-.71h0V47.84h1.41S53.13,48.72,53.13,48.74Z"/></g><path id="Trazado_1215" data-name="Trazado 1215" class="cls-8" d="M53.91,56a1.49,1.49,0,0,0-1.49-1.49h0l-.25,0c-.7.12-.77.74-.77,1.48s.19,1.08,1,1.08,1.35-.14,1.47-.84a2.11,2.11,0,0,0,0-.25Z"/><path id="Trazado_1216" data-name="Trazado 1216" class="cls-9" d="M53.89,56.25a1.49,1.49,0,0,1-3-.25h0a1.49,1.49,0,0,1,1.24-1.47,2.11,2.11,0,0,0,0,.25,1.49,1.49,0,0,0,1.49,1.49h0Z"/><path id="Trazado_1217" data-name="Trazado 1217" class="cls-10" d="M52.6,37.76A7.3,7.3,0,0,1,51,42.37,8,8,0,0,1,49,43.86l-1.5-1.26L47.41,41a3.84,3.84,0,0,0,1.69-3.22c0-.11,0-.23,0-.34a.32.32,0,0,1,.27-.36l2.78-.51a.34.34,0,0,1,.39.27h0a7.73,7.73,0,0,1,.06,1Z"/><path id="Trazado_1218" data-name="Trazado 1218" class="cls-8" d="M41.42,37.84a5.41,5.41,0,0,0,.07.68l-1.42,1.39-1.62-.52a7,7,0,0,1-.32-1.63,6.85,6.85,0,0,1,1.21-4l1.59.37,1,1.69a3.83,3.83,0,0,0-.53,2Z"/><path id="Trazado_1219" data-name="Trazado 1219" class="cls-11" d="M51.17,42.09a7.2,7.2,0,0,1-2,1.86l-.8-.22.4-.47a7.18,7.18,0,0,0,2-.88h0Z"/><path id="Trazado_1220" data-name="Trazado 1220" class="cls-9" d="M40.05,38.93l-.74.82-1.18-.27a7.52,7.52,0,0,1-.2-1.7,7.22,7.22,0,0,1,1.28-4.12l.39-.14.21.62a7.18,7.18,0,0,0-.3,2.06,7.52,7.52,0,0,0,.2,1.7A7.76,7.76,0,0,0,40.05,38.93Z"/><g id="Grupo_1543" data-name="Grupo 1543"><path id="Trazado_1221" data-name="Trazado 1221" class="cls-10" d="M43.81,23.68h-5.3A.71.71,0,0,1,37.8,23h0a.7.7,0,0,1,.71-.7h5.3a.7.7,0,0,1,.71.7.71.71,0,0,1-.71.71Z"/></g><g id="Grupo_1544" data-name="Grupo 1544"><path id="Trazado_1222" data-name="Trazado 1222" class="cls-10" d="M43.88,27h-5.3a.71.71,0,0,1-.71-.71h0a.7.7,0,0,1,.71-.7h5.3a.7.7,0,0,1,.71.7h0a.71.71,0,0,1-.71.71Z"/></g><g id="Grupo_1545" data-name="Grupo 1545"><path id="Trazado_1223" data-name="Trazado 1223" class="cls-4" d="M66,35.08H56.7a.71.71,0,0,1-.71-.71h0a.7.7,0,0,1,.71-.7H66a.7.7,0,0,1,.7.7h0a.7.7,0,0,1-.7.71Z"/></g><g id="Grupo_1546" data-name="Grupo 1546"><path id="Trazado_1224" data-name="Trazado 1224" class="cls-4" d="M66,38.62H60a.7.7,0,0,1-.71-.7.71.71,0,0,1,.71-.71H66a.7.7,0,0,1,.7.71h0a.7.7,0,0,1-.7.7Z"/></g><g id="Grupo_1547" data-name="Grupo 1547"><path id="Trazado_1225" data-name="Trazado 1225" class="cls-4" d="M66,41.9H60a.7.7,0,0,1-.71-.7h0a.71.71,0,0,1,.71-.71H66a.7.7,0,0,1,.7.71h0a.7.7,0,0,1-.7.7Z"/></g><g id="Grupo_1548" data-name="Grupo 1548"><path id="Trazado_1226" data-name="Trazado 1226" class="cls-4" d="M66,45.1H60a.7.7,0,0,1-.71-.7.71.71,0,0,1,.71-.71H66a.7.7,0,0,1,.7.71h0a.7.7,0,0,1-.7.7Z"/></g><g id="Grupo_1549" data-name="Grupo 1549"><path id="Trazado_1227" data-name="Trazado 1227" class="cls-12" d="M57.09,38.62H56.7a.7.7,0,0,1-.71-.7h0a.71.71,0,0,1,.71-.71h.39a.7.7,0,0,1,.7.71h0A.7.7,0,0,1,57.09,38.62Z"/></g><g id="Grupo_1550" data-name="Grupo 1550"><path id="Trazado_1228" data-name="Trazado 1228" class="cls-12" d="M57.09,41.9H56.7a.7.7,0,0,1-.71-.7h0a.71.71,0,0,1,.71-.71h.39a.7.7,0,0,1,.7.71A.7.7,0,0,1,57.09,41.9Z"/></g><g id="Grupo_1551" data-name="Grupo 1551"><path id="Trazado_1229" data-name="Trazado 1229" class="cls-12" d="M57.09,45.1H56.7a.7.7,0,0,1-.71-.7h0a.71.71,0,0,1,.71-.71h.39a.7.7,0,0,1,.7.71A.7.7,0,0,1,57.09,45.1Z"/></g><g id="Grupo_1552" data-name="Grupo 1552"><path id="Trazado_1230" data-name="Trazado 1230" class="cls-12" d="M50,26.26l15.26.24a.47.47,0,0,0,.47-.47l.2-.48V24.14a.47.47,0,0,0-.47-.47h-15l-.66.46a.47.47,0,0,0-.47.47l.22,1.19a.47.47,0,0,0,.47.47Z"/><path id="Trazado_1231" data-name="Trazado 1231" class="cls-13" d="M66,25.56v.94a.47.47,0,0,1-.47.47h-16A.48.48,0,0,1,49,26.5V24.14a.48.48,0,0,1,.48-.47h.94v1.61a.29.29,0,0,0,.28.28H66Z"/></g><g id="Grupo_1553" data-name="Grupo 1553"><path id="Trazado_1232" data-name="Trazado 1232" class="cls-4" d="M66,31.85H56.7a.7.7,0,0,1-.71-.7h0a.71.71,0,0,1,.71-.71H66a.7.7,0,0,1,.7.71h0a.7.7,0,0,1-.7.7Z"/></g><path id="Trazado_1233" data-name="Trazado 1233" class="cls-14" d="M47.7,31.22l-1,2.65a.34.34,0,0,1-.4.21,3.63,3.63,0,0,0-1.09-.15A3.85,3.85,0,0,0,42,35.83l-2.14-1.7-.27-.47c.26-.37.2-.71.51-1a7.27,7.27,0,0,1,5.2-2.19,7.42,7.42,0,0,1,2.24.34.34.34,0,0,1,.21.42v0Z"/><path id="Trazado_1234" data-name="Trazado 1234" class="cls-15" d="M40.94,31.87l-.16.21a7.07,7.07,0,0,0-1,2.06l-.6-.48A7.18,7.18,0,0,1,40.94,31.87Z"/><path id="Trazado_1235" data-name="Trazado 1235" class="cls-12" d="M49.18,44,49,43.86a6.38,6.38,0,0,1-3.68,1,6.88,6.88,0,0,1-7-5.28l.87,0,.77-.58,1.44-.41a3.84,3.84,0,0,0,3.81,3.09A3.71,3.71,0,0,0,47.41,41l1.36,2.31-.9.5Z"/><path id="Trazado_1236" data-name="Trazado 1236" class="cls-13" d="M49.18,44h0a7.21,7.21,0,0,1-3.91,1.15,7.38,7.38,0,0,1-7.14-5.63l1.92-.54a7.33,7.33,0,0,0,8.73,4.33Z"/><path id="Trazado_1237" data-name="Trazado 1237" class="cls-4" d="M47.06,36.85v-.08A1.52,1.52,0,0,0,46,35.32v-.61H44.93v.61a1.52,1.52,0,0,0-1,1.91h0a1.49,1.49,0,0,0,.77.9l1,.52a.46.46,0,0,1,.21.61.46.46,0,0,1-.41.26h-.16a.46.46,0,0,1-.45-.46V39H43.86v.08a1.51,1.51,0,0,0,1.07,1.45v.61H46v-.61a1.51,1.51,0,0,0,1-1.9h0a1.49,1.49,0,0,0-.77-.9l-1-.52a.46.46,0,0,1-.21-.61h0a.46.46,0,0,1,.41-.26h.16a.46.46,0,0,1,.45.46v.08Z"/><g id="Grupo_1554" data-name="Grupo 1554"><path id="Trazado_1238" data-name="Trazado 1238" class="cls-4" d="M54.26,21.06v0a.75.75,0,0,0-.53-.73V20h-.54v.3a.77.77,0,0,0-.5,1h0a.82.82,0,0,0,.39.45l.52.26a.23.23,0,0,1,.1.31.23.23,0,0,1-.2.12h-.08a.23.23,0,0,1-.23-.23v0h-.53v0a.77.77,0,0,0,.53.73v.3h.54v-.3a.77.77,0,0,0,.5-.95h0a.74.74,0,0,0-.39-.46l-.52-.26a.22.22,0,0,1-.1-.3.23.23,0,0,1,.2-.13h.08a.23.23,0,0,1,.23.23v0Z"/><path id="Trazado_1239" data-name="Trazado 1239" class="cls-4" d="M51.63,21.06v0a.77.77,0,0,0-.54-.73V20h-.53v.3a.76.76,0,0,0-.5,1,.75.75,0,0,0,.39.45L51,22a.24.24,0,0,1,.1.31.24.24,0,0,1-.21.12h-.07a.23.23,0,0,1-.23-.23v0H50v0a.76.76,0,0,0,.54.73v.3h.53v-.3a.77.77,0,0,0,.12-1.41l-.52-.26a.22.22,0,0,1-.11-.3.23.23,0,0,1,.21-.13h.08a.22.22,0,0,1,.22.23v0Z"/><path id="Trazado_1240" data-name="Trazado 1240" class="cls-4" d="M59.53,21.06v0a.76.76,0,0,0-.53-.73V20h-.54v.3a.77.77,0,0,0-.5,1,.79.79,0,0,0,.39.45l.52.26a.23.23,0,0,1,.1.31.24.24,0,0,1-.2.12h-.08a.23.23,0,0,1-.23-.23v0h-.53v0a.75.75,0,0,0,.53.73v.3H59v-.3a.77.77,0,0,0,.5-.95.78.78,0,0,0-.39-.46l-.52-.26a.22.22,0,0,1-.1-.3.23.23,0,0,1,.2-.13h.08A.23.23,0,0,1,59,21v0Z"/><path id="Trazado_1241" data-name="Trazado 1241" class="cls-4" d="M56.9,21.06v0a.76.76,0,0,0-.54-.73V20h-.53v.3a.76.76,0,0,0-.5,1h0a.75.75,0,0,0,.39.45l.52.26a.24.24,0,0,1,.1.31.24.24,0,0,1-.21.12h-.07a.23.23,0,0,1-.23-.23v0h-.54v0a.76.76,0,0,0,.54.73v.3h.53v-.3a.76.76,0,0,0,.5-.95h0a.76.76,0,0,0-.38-.46L56,21.22a.23.23,0,0,1-.1-.3.23.23,0,0,1,.21-.13h.07a.23.23,0,0,1,.23.23v0Z"/><path id="Trazado_1242" data-name="Trazado 1242" class="cls-4" d="M64.8,21.06v0a.75.75,0,0,0-.53-.73V20h-.54v.3a.77.77,0,0,0-.5,1,.79.79,0,0,0,.39.45l.52.26a.23.23,0,0,1,.1.31.24.24,0,0,1-.2.12H64a.23.23,0,0,1-.23-.23v0H63.2v0a.75.75,0,0,0,.53.73v.3h.54v-.3a.77.77,0,0,0,.5-.95h0a.78.78,0,0,0-.39-.46l-.52-.26a.22.22,0,0,1-.1-.3.23.23,0,0,1,.2-.13H64a.23.23,0,0,1,.23.23v0Z"/><path id="Trazado_1243" data-name="Trazado 1243" class="cls-4" d="M62.17,21.06v0a.77.77,0,0,0-.54-.73V20H61.1v.3A.76.76,0,0,0,61,21.7l.52.26a.23.23,0,0,1,.11.3h0a.24.24,0,0,1-.21.12h-.08a.22.22,0,0,1-.22-.23v0h-.54v0a.76.76,0,0,0,.54.73v.3h.53v-.3a.76.76,0,0,0,.5-.95.74.74,0,0,0-.39-.46l-.52-.26a.23.23,0,0,1-.1-.3.23.23,0,0,1,.21-.13h.07a.23.23,0,0,1,.23.23v0Z"/></g></g></g></svg>