<?xml version="1.0" encoding="utf-8"?>
<!-- Generator: Adobe Illustrator 26.0.1, SVG Export Plug-In . SVG Version: 6.00 Build 0)  -->
<svg version="1.1" id="Layer_1" xmlns="http://www.w3.org/2000/svg" xmlns:xlink="http://www.w3.org/1999/xlink" x="0px" y="0px"
	 viewBox="0 0 283.5 283.5" style="enable-background:new 0 0 283.5 283.5;" xml:space="preserve">
<style type="text/css">
	.st0{clip-path:url(#SVGID_00000129895636121340815940000008172631285380419500_);}
	.st1{fill:#6DA12F;}
	.st2{fill:#F2F3F4;}
	.st3{fill:#E93546;}
	.st4{fill:#FFC739;}
	.st5{fill:#35AE8A;}
	.st6{fill:#009CD5;}
	.st7{fill:#5F202A;}
	.st8{fill:#A7C84D;}
	.st9{fill:#73303F;}
	.st10{fill:#642C36;}
	.st11{fill:#FFD942;}
	.st12{fill:#FCA263;}
	.st13{fill:#883949;}
	.st14{opacity:0.5;fill:#FFFFFF;enable-background:new    ;}
	.st15{opacity:0.3;fill:#1A1818;enable-background:new    ;}
	.st16{fill:#FFA419;}
	.st17{fill:#F16322;}
	.st18{fill:#FE9D2B;}
	.st19{fill:#E50019;}
	.st20{fill:#1A1818;}
	.st21{fill:#00A1ED;}
	.st22{clip-path:url(#SVGID_00000159454239952770182750000008566476263915935662_);}
	.st23{fill:#22388B;}
	.st24{fill:#E7A166;}
	.st25{fill:#C58B59;}
	.st26{fill:#34646C;}
	.st27{fill:#203040;}
	.st28{fill:#E0007A;}
</style>
<g id="Grupo_1597">
	<g id="Grupo_1561">
		<g id="Grupo_1466">
			<g id="Grupo_1459">
				<g id="Grupo_1458">
					<g id="Grupo_1455">
						<g>
							<g>
								<defs>
									<path id="SVGID_1_" d="M160.8,121h106.9c5.3,0,9.1,4.2,9.1,9.1v60.3c0,5.3-4.2,9.5-9.1,9.5H160.8c-5.3,0-9.5-4.2-9.5-9.5
										v-60.3C151.4,125.2,155.5,121,160.8,121z"/>
								</defs>
								<clipPath id="SVGID_00000101782290187652771300000000072070766015347110_">
									<use xlink:href="#SVGID_1_"  style="overflow:visible;"/>
								</clipPath>
								<g style="clip-path:url(#SVGID_00000101782290187652771300000000072070766015347110_);">
									<g id="Grupo_1454">
										<g id="Grupo_1453">
											<path id="Trazado_960" class="st1" d="M193.4,201.3H154c-1.1,0-2.3-1.1-2.3-2.3v-77.3c0-1.1,1.1-2.3,2.3-2.3h39.4V201.3z
												"/>
											<rect id="Rectángulo_261" x="193.4" y="119.5" class="st2" width="41.7" height="81.5"/>
											<path id="Trazado_961" class="st3" d="M274.2,201.3h-39.4v-81.9h39.4c1.1,0,2.3,0.8,2.3,2.3l0,0v77.3
												C276.5,200.2,275.3,201.3,274.2,201.3L274.2,201.3z"/>
											<g id="Grupo_1452">
												<path id="Trazado_962" class="st4" d="M217.7,162.3l-3.8,1.9v1.9h1.9L217.7,162.3z"/>
												<g id="Grupo_1450">
													<path id="Trazado_963" class="st5" d="M213.9,170.6c-0.4,0-0.8-0.4-0.8-0.8l0,0v-3.8c0-0.4,0.4-0.8,0.8-0.8l0,0l0,0
														c0.4,0,0.8,0.4,0.8,0.8l0,0v3.8C215,170.3,214.7,170.6,213.9,170.6z"/>
													<path id="Trazado_964" class="st5" d="M213.9,166.8c-3.8,0-7.2-1.5-9.9-3.8c-0.4-0.4-0.4-0.8,0-1.1l0,0l0,0
														c0.4-0.4,0.8-0.4,1.1,0l0,0c4.9,4.5,12.5,4.5,17.4,0c0.4-0.4,1.1-0.4,1.1,0l0,0c0.4,0.4,0.4,1.1,0,1.1l0,0
														C221.5,165.7,217.7,166.8,213.9,166.8z"/>
												</g>
												<path id="Trazado_965" class="st6" d="M213.9,170.6c-2.3,0-4.5-0.8-6.8-1.9l1.1-1.5c3.4,2.3,8,2.3,11.4,0l1.1,1.5
													C218.8,169.9,216.6,170.6,213.9,170.6z"/>
												<path id="Trazado_966" class="st7" d="M212.8,158.1l-2.3,3l-0.4,1.1l5.3-1.1L212.8,158.1z"/>
												<path id="Trazado_967" class="st8" d="M208.2,163.4c-2.3,0-5.3-1.9-6.1-6.8l1.9-0.4c0.8,3.8,3,4.9,4.5,4.9
													c0.4,0,0.8,0,0.8-0.4c0-0.4,0-0.4-0.8-0.8c-0.8,0-1.1-0.4-1.5-0.8c-1.5-1.9,0.8-3.8,1.5-4.9c0.4,0,0.4-0.4,0.4-0.4
													c0-0.4-0.4-0.4-0.4-0.4c-1.1,0-1.9-0.8-2.3-1.9c-0.4-1.1,0.4-2.3,1.1-2.7l0.8,1.5c-0.4,0-0.4,0.4-0.4,0.8
													c0,0,0,0.4,0.4,0.4c1.1,0,2.3,0.8,2.7,1.5c0.4,0.8,0,1.9-0.8,2.3c-1.1,1.1-1.9,1.9-1.5,2.3c0.4,0,0.4,0.4,0.8,0.4
													c0.8,0.4,2.3,0.8,2.3,2.7c-0.4,1.1-1.5,2.3-2.7,2.3L208.2,163.4z"/>
												<path id="Trazado_968" class="st9" d="M215.8,152.8c1.1-1.9,0.4-4.5-1.5-5.3l0,0l0,0c0,0,12.9-1.9,11,14.8l0,0
													c-1.5-1.1-2.7-2.7-3.8-4.2l-5.7-3.4V152.8z"/>
												<path id="Trazado_969" class="st7" d="M213.9,156.6l9.5,5.7l-3.8,1.9l-5.7-5.7V156.6z"/>
												<path id="Trazado_970" class="st10" d="M210.5,151.3L210.5,151.3c1.1,0,1.9,0.8,1.9,1.9l0,0c-1.1,1.1-1.5,3-0.8,4.2
													l0.4,0.8c0,0.4,0.4,0.8,0.8,0.8l5.3,5.3v-2.7c0-3-0.8-6.4-1.9-9.5l0,0c-0.8-1.9-3-3-4.9-3h-0.4L210.5,151.3L210.5,151.3
													z"/>
												<path id="Trazado_971" class="st4" d="M210.5,149.4l-1.9,1.9v1.9l3-1.5c0.4,0,0.4-0.4,0.4-0.8l0,0c0,0,0,0-0.4-0.4
													L210.5,149.4z"/>
												<path id="Trazado_972" class="st8" d="M213.9,174.4c-8.7,0-15.9-7.2-15.9-15.9h1.9c0,7.6,6.1,14,14,14
													c7.6,0,14-6.1,14-14h1.9C229.8,167.2,222.6,174.4,213.9,174.4L213.9,174.4z"/>
												<g id="Grupo_1451">
													<circle id="Elipse_97" class="st11" cx="200.3" cy="164.2" r="1.1"/>
													<circle id="Elipse_98" class="st11" cx="202.9" cy="168.4" r="1.1"/>
													<circle id="Elipse_99" class="st11" cx="207.5" cy="171.8" r="1.1"/>
													<circle id="Elipse_100" class="st11" cx="227.9" cy="164.2" r="1.1"/>
													<circle id="Elipse_101" class="st11" cx="225.3" cy="168.4" r="1.1"/>
													<circle id="Elipse_102" class="st11" cx="220.7" cy="171.8" r="1.1"/>
												</g>
												<path id="Trazado_973" class="st12" d="M215,171.4h-1.9c-1.1,0-1.9-0.8-1.9-1.9l0,0l0,0c0-1.1,0.8-1.9,1.9-1.9l0,0h1.9
													c1.1,0,1.9,0.8,1.9,1.9l0,0C216.9,170.6,216.2,171.4,215,171.4L215,171.4z"/>
												<path id="Trazado_974" class="st13" d="M221.5,158.1c0.8,1.9,1.9,3.4,3.8,4.2l0,0c1.9-16.7-11-14.8-11-14.8
													C223.4,147.5,221.5,158.1,221.5,158.1z"/>
											</g>
										</g>
										<path id="Rectángulo_262" class="st14" d="M157.1,118.7h113.7c4.5,0,8.3,3.8,8.3,8.3v68.6c0,4.5-3.8,8.3-8.3,8.3H157.1
											c-4.5,0-8.3-3.8-8.3-8.3v-69C148.7,122.1,152.1,118.7,157.1,118.7z"/>
									</g>
								</g>
							</g>
						</g>
					</g>
					<path id="Trazado_976" class="st15" d="M267.4,121h-1.9c-21.6,38.7-62.5,65.6-87.6,78.8h89.5c5.3,0,9.1-4.2,9.1-9.5v-60.3
						C276.8,125.2,272.7,121,267.4,121L267.4,121z"/>
					<rect id="Rectángulo_263" x="159.3" y="130.8" class="st16" width="23.1" height="18.6"/>
					<g id="Grupo_1456">
						<rect id="Rectángulo_264" x="159.3" y="137.7" class="st17" width="6.8" height="4.5"/>
						<rect id="Rectángulo_265" x="175.6" y="137.7" class="st17" width="6.8" height="4.5"/>
					</g>
					<circle id="Elipse_103" class="st18" cx="261.3" cy="182" r="9.9"/>
					<circle id="Elipse_104" class="st19" cx="249.2" cy="182" r="9.9"/>
					<g id="Grupo_1457">
						<rect id="Rectángulo_266" x="160.8" y="177.1" class="st20" width="14" height="4.5"/>
						<rect id="Rectángulo_267" x="184" y="177.1" class="st20" width="14" height="4.5"/>
						<rect id="Rectángulo_268" x="207.1" y="177.1" class="st20" width="14" height="4.5"/>
						<rect id="Rectángulo_269" x="160.8" y="187.3" class="st20" width="60.3" height="4.5"/>
						<rect id="Rectángulo_270" x="237.4" y="131.2" class="st20" width="4.5" height="9.5"/>
						<rect id="Rectángulo_271" x="246.9" y="131.2" class="st20" width="4.5" height="9.5"/>
						<rect id="Rectángulo_272" x="256" y="131.2" class="st20" width="4.5" height="9.5"/>
						<rect id="Rectángulo_273" x="265.5" y="131.2" class="st20" width="4.5" height="9.5"/>
					</g>
				</g>
			</g>
			<path id="Rectángulo_274" class="st21" d="M88.1,68.7h28c13.6,0,24.6,11,24.6,24.3v86c0,13.6-11,24.6-24.6,24.6h-28
				c-13.6,0-24.6-11-24.6-24.6V93.3C63.4,79.7,74.4,68.7,88.1,68.7z"/>
			<g id="Grupo_1465">
				<g>
					<g>
						<defs>
							<path id="SVGID_00000173867789977361471360000012701826909433309829_" d="M82,75.1h39.8c6.8,0,12.1,5.3,12.1,12.1V185
								c0,6.8-5.3,12.1-12.1,12.1H82c-6.8,0-12.1-5.3-12.1-12.1V87.2C69.9,80.8,75.6,75.1,82,75.1z"/>
						</defs>
						<clipPath id="SVGID_00000169555617157546311320000004538012757351019150_">
							<use xlink:href="#SVGID_00000173867789977361471360000012701826909433309829_"  style="overflow:visible;"/>
						</clipPath>
						<g style="clip-path:url(#SVGID_00000169555617157546311320000004538012757351019150_);">
							<g id="Grupo_1464">
								<g id="Grupo_1463">
									<path id="Trazado_977" class="st2" d="M257.9,199.8H72.5c-1.9,0-3.4-1.5-3.4-3.4l0,0v-119c0-1.9,1.5-3.4,3.4-3.4h185.3
										c1.9,0,3.4,1.5,3.4,3.4l0,0l0,0v119C261.3,198.3,259.8,199.8,257.9,199.8z"/>
									<g id="Grupo_1460">
										<path id="Trazado_978" class="st3" d="M261.3,83.8H69.5v-6.4c0-1.9,1.5-3.4,3.4-3.4l0,0h185.3c1.9,0,3.4,1.5,3.4,3.4l0,0
											l0,0L261.3,83.8L261.3,83.8z"/>
										<rect id="Rectángulo_275" x="69.5" y="112.6" class="st3" width="191.8" height="9.5"/>
										<rect id="Rectángulo_276" x="69.5" y="93.3" class="st3" width="191.8" height="9.5"/>
										<path id="Trazado_979" class="st3" d="M261.3,141.8H72.5c-1.9,0-3.4-1.5-3.4-3.4l0,0V132h192.2V141.8z"/>
										<rect id="Rectángulo_277" x="69.5" y="170.6" class="st3" width="191.8" height="9.5"/>
										<path id="Trazado_980" class="st3" d="M257.9,199.8H72.5c-1.9,0-3.4-1.5-3.4-3.4l0,0V190h192.2v6.4
											C261.3,198.3,259.8,199.8,257.9,199.8L257.9,199.8z"/>
										<rect id="Rectángulo_278" x="69.5" y="151.3" class="st3" width="191.8" height="9.5"/>
									</g>
									<g id="Grupo_1462">
										<path id="Trazado_981" class="st23" d="M133.2,74H71.8c-1.1,0-2.3,1.1-2.3,2.3l0,0v45.5c0,1.5,1.1,2.3,2.3,2.3l0,0h61.4
											c1.5,0,2.7-1.1,2.7-2.3l0,0V76.6C135.5,75.1,134.3,74,133.2,74L133.2,74z"/>
										<g id="Grupo_1461">
											<path id="Trazado_982" class="st2" d="M76.3,79.7l0.4,1.5h1.9c0,0,0.4,0,0.4,0.4l0,0l0,0l-1.5,1.1l0.4,1.5v0.4l0,0
												l-1.5-1.1l-1.5,1.1h-0.4c0,0,0,0,0-0.4l0.4-1.5l-1.5-1.1v-0.4l0,0h2.3L76.3,79.7L76.3,79.7C76.3,80,76.3,79.7,76.3,79.7z
												"/>
											<path id="Trazado_983" class="st2" d="M76.3,88.4l0.4,1.5h1.9c0,0,0.4,0,0.4,0.4l0,0l0,0l-1.5,1.1l0.4,1.5v0.4l0,0
												l-1.5-1.1l-1.5,1.1c0,0,0,0-0.4,0l0,0l0,0l0.4-1.5l-1.5-1.1v-0.4l0,0h2.3L76.3,88.4L76.3,88.4L76.3,88.4z"/>
											<path id="Trazado_984" class="st2" d="M76.3,96.7l0.4,1.5h1.9c0,0,0.4,0,0.4,0.4l0,0l0,0l-1.5,1.1l0.4,1.5v0.4l0,0
												l-1.5-1.1l-1.5,1.1h-0.4c0,0,0,0,0-0.4l0.4-1.5l-1.5-1.1v-0.4l0,0h2.3v-1.9C75.6,96.7,75.9,96.7,76.3,96.7
												C75.9,96.7,75.9,96.7,76.3,96.7z"/>
											<path id="Trazado_985" class="st2" d="M76.3,105.1l0.4,1.5h1.9c0,0,0.4,0,0.4,0.4l0,0l0,0l-1.5,1.1l0.4,1.5v0.4l0,0
												l-1.5-1.1l-1.5,1.1c0,0,0,0-0.4,0l0,0l0,0l0.4-1.5l-1.5-1.1V107l0,0h2.3L76.3,105.1C76.3,105.4,76.3,105.4,76.3,105.1
												C76.3,105.4,76.3,105.4,76.3,105.1z"/>
											<path id="Trazado_986" class="st2" d="M76.3,113.8l0.4,1.5h1.9c0,0,0.4,0,0.4,0.4l0,0l0,0l-1.5,1.1l0.4,1.5v0.4l0,0
												l-1.5-1.1l-1.5,1.1h-0.4 M74.4,118.7l0.4-1.5l-1.5-1.5v-0.4l0,0h1.9l0.4-1.5h0.4l0,0L74.4,118.7z"/>
											<path id="Trazado_987" class="st2" d="M82.8,83.8l0.8,1.5h1.9c0,0,0.4,0,0.4,0.4l0,0l0,0l-1.5,1.1l0.4,1.5v0.4h-0.4
												l-1.5-1.1l-1.5,1.1h-0.4c0,0,0,0,0-0.4l0.4-1.5l-1.5-1.1v-0.4l0,0h1.9L82.8,83.8L82.8,83.8L82.8,83.8z"/>
											<path id="Trazado_988" class="st2" d="M82.8,92.6l0.8,1.5h1.9c0,0,0.4,0,0.4,0.4l0,0l0,0l-1.5,1.1l0.4,1.5c0,0,0,0,0,0.4
												 M84.3,97.1L82.8,96l-1.5,1.1h-0.4l0,0l0,0l0.4-1.5l-1.5-1.1v-0.4l0,0h1.9l0.8-1.5c0,0,0,0,0.4,0c0,0,0-0.4,0,0
												L84.3,97.1z"/>
											<path id="Trazado_989" class="st2" d="M82.8,100.9l0.8,1.5h1.9c0,0,0.4,0,0.4,0.4l0,0l0,0l-1.5,1.1l0.4,1.5v0.4h-0.4
												l-1.5-1.1l-1.5,1.1h-0.4c0,0,0,0,0-0.4l0.4-1.5l-1.5-1.1v-0.4l0,0h1.9L82.8,100.9L82.8,100.9L82.8,100.9z"/>
											<path id="Trazado_990" class="st2" d="M82.8,109.2l0.8,1.5h1.9c0,0,0.4,0,0.4,0.4l0,0l0,0l-1.5,1.1l0.4,1.5
												c0,0,0,0,0,0.4 M84.3,114.2l-1.5-1.1l-1.5,1.1h-0.4l0,0l0,0l0.4-1.5l-1.5-1.1v-0.4l0,0h1.9l0.8-1.5c0,0,0,0,0.4,0
												c0,0,0-0.4,0,0L84.3,114.2z"/>
											<path id="Trazado_991" class="st2" d="M89.2,79.7l0.8,1.5h1.9c0,0,0.4,0,0.4,0.4l0,0l0,0l-1.5,1.1l0.4,1.5v0.4h-0.4
												l-1.5-1.1l-1.5,1.1h-0.4c0,0,0,0,0-0.4l0.4-1.5l-0.8-0.8v-0.4l0,0h1.9L89.2,79.7L89.2,79.7L89.2,79.7z"/>
											<path id="Trazado_992" class="st2" d="M89.2,88.4l0.8,1.5h1.9c0,0,0.4,0,0.4,0.4l0,0l0,0l-1.5,1.1l0.4,1.5c0,0,0,0,0,0.4
												 M90.7,93.3l-1.5-1.1l-1.5,1.1h-0.4l0,0l0,0l0.4-1.5l-0.8-1.5v-0.4l0,0h1.9l0.4-1.5c0,0,0,0,0.4,0c0,0,0-0.4,0,0
												L90.7,93.3z"/>
											<path id="Trazado_993" class="st2" d="M89.2,96.7l0.8,1.5h1.9c0,0,0.4,0,0.4,0.4l0,0l0,0l-1.5,1.1l0.4,1.5v0.4h-0.4
												l-1.5-1.1l-1.5,1.1h-0.4c0,0,0,0,0-0.4l0.4-1.5L86.9,99v-0.4l0,0h1.9L89.2,96.7L89.2,96.7L89.2,96.7z"/>
											<path id="Trazado_994" class="st2" d="M89.2,105.1l0.8,1.5h1.9c0,0,0.4,0,0.4,0.4l0,0l0,0l-1.9,1.1l0.4,1.5
												c0,0,0,0,0,0.4c0,0,0,0-0.4,0l-1.5-1.1l-1.5,1.1h-0.4l0,0l0,0l0.4-1.5l-0.4-1.1V107l0,0h1.9L89.2,105.1
												C89.2,105.4,89.2,105.4,89.2,105.1C89.2,105.4,89.2,105.1,89.2,105.1z"/>
											<path id="Trazado_995" class="st2" d="M89.2,113.8l0.8,1.5h1.9c0,0,0.4,0,0.4,0.4l0,0l0,0l-1.5,1.1l0.4,1.5v0.4h-0.4
												l-1.5-1.1l-1.5,1.1h-0.4l0,0l0.4-1.5l-1.1-1.5v-0.4l0,0h1.9l0.4-1.5H89.2L89.2,113.8z"/>
											<path id="Trazado_996" class="st2" d="M96,83.8l0.4,1.5h1.9c0,0,0.4,0,0.4,0.4l0,0l0,0l-1.5,1.1l0.4,1.5v0.4l0,0L96,87.6
												l-1.5,1.1h-0.4 M94.5,88.4l0.4-1.5l-1.5-1.1c0,0,0,0,0-0.4l0,0l0,0h1.9l0.4-1.5H96c0,0,0,0-0.4,0L94.5,88.4z"/>
											<path id="Trazado_997" class="st2" d="M96,92.6l0.4,1.5h1.9h0.4l0,0l0,0l-1.5,1.1l0.4,1.5c0,0,0,0,0,0.4l0,0L96,96
												l-1.5,1.1c0,0,0,0-0.4,0l0,0l0,0l0.4-1.5L93,94.4v-0.4l0,0l0,0h1.9L96,92.6L96,92.6L96,92.6z"/>
											<path id="Trazado_998" class="st2" d="M96,100.9l0.4,1.5h1.9c0,0,0.4,0,0.4,0.4l0,0l0,0l-1.5,1.1l0.4,1.5v0.4l0,0
												l-1.5-1.1l-1.5,1.1h-0.4 M94.5,105.8l0.4-1.5l-1.5-1.1c0,0,0,0,0-0.4l0,0l0,0h1.9l0.4-1.5H96c0,0-0.4-0.4-0.4,0
												L94.5,105.8z"/>
											<path id="Trazado_999" class="st2" d="M96,109.2l0.4,1.5h1.9h0.4l0,0l0,0l-1.5,1.1l0.4,1.5c0,0,0,0,0,0.4l0,0l-1.5-1.1
												l-1.5,1.1c0,0,0,0-0.4,0l0,0l0,0l0.4-1.5l-1.5-1.1v-0.4l0,0l0,0h1.9L96,109.2C96,109.6,96,109.6,96,109.2
												C96,109.6,96,109.6,96,109.2z"/>
											<path id="Trazado_1000" class="st2" d="M102.5,79.7l0.4,1.5h1.9c0,0,0.4,0,0.4,0.4l0,0l0,0l-1.5,1.1l0.4,1.5v0.4h-0.4
												l-1.5-1.1l-1.5,1.1h-0.4c0,0,0,0,0-0.4l0.4-1.5l-1.5-1.1v-0.4l0,0h3L102.5,79.7L102.5,79.7
												C102.9,80,102.5,79.7,102.5,79.7z"/>
											<path id="Trazado_1001" class="st2" d="M102.5,88.4l0.4,1.5h1.9c0,0,0.4,0,0.4,0.4l0,0l0,0l-1.5,1.1l0.4,1.5v0.4
												 M104,93.3l-1.5-1.1l-1.5,1.1c0,0,0,0-0.4,0l0,0l0,0l0.4-1.5l-1.5-1.1v-0.4l0,0h2.7l0.4-1.5h0.4L104,93.3z"/>
											<path id="Trazado_1002" class="st2" d="M102.5,96.7l0.4,1.5h1.9c0,0,0.4,0,0.4,0.4l0,0l0,0l-1.5,1.1l0.4,1.5v0.4h-0.4
												l-1.5-1.1l-1.5,1.1h-0.4c0,0,0,0,0-0.4l0.4-1.5l-1.5-1.1v-0.4l0,0h3v-1.9C102.1,96.7,102.5,96.7,102.5,96.7L102.5,96.7z"
												/>
											<path id="Trazado_1003" class="st2" d="M102.5,105.1l0.4,1.5h1.9c0,0,0.4,0,0.4,0.4l0,0l0,0l-1.5,1.1l0.4,1.5v0.4
												c0,0,0,0-0.4,0l-1.5-1.1l-1.5,1.1c0,0,0,0-0.4,0l0,0l0,0l0.4-1.5l-1.5-1.1V107l0,0h3L102.5,105.1
												C102.5,105.4,102.5,105.4,102.5,105.1L102.5,105.1z"/>
											<path id="Trazado_1004" class="st2" d="M102.5,113.8l0.4,1.5h1.9c0,0,0.4,0,0.4,0.4l0,0l0,0l-1.5,1.1l0.4,1.5v0.4h-0.4
												l-1.5-1.1l-1.5,1.1h-0.4 M101,118.7l0.4-1.5l-1.5-1.5v-0.4l0,0h1.9l0.4-1.5h0.4l0,0L101,118.7z"/>
											<path id="Trazado_1005" class="st2" d="M109.3,83.8l0.4,1.5h1.9c0,0,0.4,0,0.4,0.4l0,0l0,0l-1.5,1.1l0.4,1.5v0.4h-0.4
												l-1.5-1.1l-1.5,1.1H107c0,0,0,0,0-0.4l0.4-1.5l-1.5-1.1v-0.4l0,0h1.9L109.3,83.8C108.9,83.8,108.9,83.8,109.3,83.8
												L109.3,83.8z"/>
											<path id="Trazado_1006" class="st2" d="M109.3,92.6l0.4,1.5h1.9c0,0,0.4,0,0.4,0.4l0,0l0,0l-1.5,1.1l0.4,1.5
												c0,0,0,0,0,0.4 M110.4,97.1l-1.5-1.1l-1.5,1.1c0,0,0,0-0.4,0l0,0l0,0l0.4-1.5l-1.5-1.1v-0.4l0,0h1.9l0.4-1.5h0.4
												c0,0,0-0.4,0,0L110.4,97.1z"/>
											<path id="Trazado_1007" class="st2" d="M109.3,100.9l0.4,1.5h1.9c0,0,0.4,0,0.4,0.4l0,0l0,0l-1.5,1.1l0.4,1.5v0.4h-0.4
												l-1.5-1.1l-1.5,1.1H107c0,0,0,0,0-0.4l0.4-1.5l-1.5-1.1v-0.4l0,0h1.9L109.3,100.9C108.9,100.9,108.9,100.9,109.3,100.9
												L109.3,100.9z"/>
											<path id="Trazado_1008" class="st2" d="M109.3,109.2l0.4,1.5h1.9c0,0,0.4,0,0.4,0.4l0,0l0,0l-1.5,1.1l0.4,1.5
												c0,0,0,0,0,0.4c0,0,0,0-0.4,0l-1.5-1.1l-1.5,1.1c0,0,0,0-0.4,0l0,0l0,0l0.4-1.5l-1.5-1.1v-0.4l0,0h1.9L109.3,109.2
												C108.9,109.6,108.9,109.6,109.3,109.2C109.3,109.6,109.3,109.2,109.3,109.2z"/>
											<path id="Trazado_1009" class="st2" d="M115.7,79.7l0.8,1.5h1.9c0,0,0.4,0,0.4,0.4l0,0l0,0l-1.5,1.1l0.4,1.5v0.4h-0.4
												l-1.5-1.1l-1.5,1.1h-0.4c0,0,0,0,0-0.4l0.4-1.5l-1.5-1.1v-0.4l0,0h1.9L115.7,79.7C115.4,80,115.4,79.7,115.7,79.7
												L115.7,79.7z"/>
											<path id="Trazado_1010" class="st2" d="M115.7,88.4l0.8,1.5h1.9c0,0,0.4,0,0.4,0.4l0,0l0,0l-1.5,1.1l0,1.5c0,0,0,0,0,0.4
												 M116.9,93.3l-1.5-1.1l-1.5,1.1h-0.4l0,0l0,0l0.4-1.5l-1.5-1.1v-0.4l0,0h1.9l0.8-1.5c0,0,0,0,0.4,0c0,0,0-0.4,0,0
												L116.9,93.3z"/>
											<path id="Trazado_1011" class="st2" d="M115.7,96.7l0.8,1.5h1.9c0,0,0.4,0,0.4,0.4l0,0l0,0l-1.5,1.1l0.4,1.5v0.4h-0.4
												l-1.5-1.1l-1.5,1.1h-0.4c0,0,0,0,0-0.4l0.4-1.5l-0.8-0.8c0,0,0,0,0-0.4l0,0h1.9l0.4-1.5
												C115.4,96.7,115.4,96.7,115.7,96.7L115.7,96.7z"/>
											<path id="Trazado_1012" class="st2" d="M115.7,105.1l0.8,1.5h1.9c0,0,0.4,0,0.4,0.4l0,0l0,0l-1.9,1.1l0.4,1.5
												c0,0,0,0,0,0.4c0,0,0,0-0.4,0l-1.5-1.1l-1.5,1.1h-0.4l0,0l0,0l0.4-1.5l-0.4-1.1V107l0,0h1.9L115.7,105.1
												C115.7,105.4,115.7,105.4,115.7,105.1C115.7,105.4,115.7,105.1,115.7,105.1z"/>
											<path id="Trazado_1013" class="st2" d="M115.7,113.8l0.8,1.5h1.9c0,0,0.4,0,0.4,0.4l0,0l0,0l-1.5,1.1l0.4,1.5v0.4h-0.4
												l-1.5-1.1l-1.5,1.1h-0.4l0,0l0.4-1.5l-1.1-1.5v-0.4l0,0h1.9L115.7,113.8C115.4,113.8,115.4,113.8,115.7,113.8
												L115.7,113.8z"/>
											<path id="Trazado_1014" class="st2" d="M122.6,83.8l0.4,1.5h1.9c0,0,0.4,0,0.4,0.4l0,0l0,0l-1.5,1.1l0.4,1.5v0.4l0,0
												l-1.5-1.1l-1.5,1.1h-0.4c0,0,0,0,0-0.4l0.4-1.5l-1.5-1.1c0,0,0,0,0-0.4l0,0l0,0h1.9L122.6,83.8L122.6,83.8
												C122.9,83.8,122.2,83.8,122.6,83.8z"/>
											<path id="Trazado_1015" class="st2" d="M122.6,92.6l0.4,1.5h1.9c0,0,0.4,0,0.4,0.4l0,0l0,0l-1.5,1.1l0.4,1.5
												c0,0,0,0,0,0.4l0,0l-1.5-1.1l-1.5,1.1h-0.4l0,0l0,0L121,96l-1.5-1.1v-0.4l0,0l0,0h1.9L122.6,92.6L122.6,92.6L122.6,92.6z
												"/>
											<path id="Trazado_1016" class="st2" d="M122.6,100.9l0.4,1.5h1.9c0,0,0.4,0,0.4,0.4l0,0l0,0l-1.5,1.1l0.4,1.5v0.4l0,0
												l-1.5-1.1l-1.5,1.1h-0.4c0,0,0,0,0-0.4l0.4-1.5l-1.5-1.1v-0.4l0,0h1.9L122.6,100.9L122.6,100.9
												C122.6,101.3,122.6,100.9,122.6,100.9z"/>
											<path id="Trazado_1017" class="st2" d="M122.6,109.2l0.4,1.5h1.9c0,0,0.4,0,0.4,0.4l0,0l0,0l-1.5,1.1l0.4,1.5
												c0,0,0,0,0,0.4l0,0l-1.5-1.1l-1.5,1.1h-0.4l0,0 M121,114.2l0.4-1.5l-1.5-1.1v-0.4l0,0l0,0h1.9l0.4-1.5h0.4
												c0,0-0.4-0.4-0.4,0L121,114.2z"/>
											<path id="Trazado_1018" class="st2" d="M129,79.7l0.4,1.5h1.9c0,0,0.4,0,0.4,0.4l0,0l0,0l-1.5,1.1l0.4,1.5v0.4l0,0
												l-1.9-0.8l-1.5,1.1h-0.4c0,0,0,0,0-0.4l0.4-1.5l-1.5-1.1c0,0,0,0,0-0.4l0,0l0,0h1.9l0.4-1.5h0.4
												C128.6,79.7,129,79.7,129,79.7z"/>
											<path id="Trazado_1019" class="st2" d="M129,88.4l0.4,1.5h1.9h0.4l0,0l0,0l-1.5,1.1l0.4,1.5c0,0,0,0,0,0.4l0,0l-1.9-0.8
												l-1.5,1.1h-0.4l0,0 M126.7,92.9l0.4-1.5l-1.5-1.1v-0.4l0,0l0,0h1.9l0.4-1.5h0.4L126.7,92.9z"/>
											<path id="Trazado_1020" class="st2" d="M129,96.7l0.4,1.5h1.9c0,0,0.4,0,0.4,0.4l0,0l0,0l-1.5,1.1l0.4,1.5v0.4l0,0
												l-1.9-1.1l-1.5,1.1h-0.4c0,0,0,0,0-0.4l0.4-1.5l-1.5-1.1c0,0,0,0,0-0.4l0,0l0,0h1.9L129,96.7
												C128.6,96.7,129,96.7,129,96.7L129,96.7z"/>
											<path id="Trazado_1021" class="st2" d="M129,105.1l0.4,1.5h1.9h0.4l0,0l0,0l-1.5,1.5l0.4,1.5c0,0,0,0,0,0.4 M130.5,110
												l-1.9-0.8l-1.5,1.1h-0.4l0,0 M126.7,110l0.4-1.5l-1.5-1.1V107l0,0l0,0h1.9l0.4-1.5h0.4c0,0,0.4-0.4,0.4,0l0,0L126.7,110z
												"/>
											<path id="Trazado_1022" class="st2" d="M129,113.8l0.4,1.5h1.9c0,0,0.4,0,0.4,0.4l0,0l0,0l-1.5,1.1l0.4,1.5v0.4l0,0
												l-1.9-1.1l-1.5,1.1h-0.4 M126.7,118.7l0.4-1.5l-1.1-1.5v-0.4l0,0l0,0h1.9l0.4-1.5h0.4h0.4L126.7,118.7z"/>
										</g>
									</g>
									<path id="Rectángulo_279" class="st14" d="M74.4,73.2h54.2c4.5,0,8.3,3.8,8.3,8.3v109.9c0,4.5-3.8,8.3-8.3,8.3H74.4
										c-4.5,0-8.3-3.8-8.3-8.3V81.6C66.5,77,69.9,73.2,74.4,73.2z"/>
								</g>
							</g>
						</g>
					</g>
				</g>
			</g>
			<path id="Trazado_1023" class="st20" d="M116.5,146.4V146c0-6.1-3.8-11-9.5-12.9v-5.7h-9.5v5.3c-7.2,2.3-11,9.9-8.7,17.1l0,0
				c1.1,3.4,3.4,6.4,6.8,8l9.5,4.5c1.9,1.1,2.7,3.4,1.9,5.3l0,0c-0.8,1.5-2.3,2.3-3.8,2.3h-1.5c-2.3,0-4.2-1.9-4.2-4.2v-0.8h-9.5
				v0.8c0,6.1,3.8,11.4,9.5,12.9v5.3h9.5v-5.3c7.2-2.3,11-9.9,9.1-17.1l0,0l0,0c-1.1-3.4-3.4-6.4-6.8-8l-9.5-4.5
				c-1.9-1.1-2.7-3.8-1.5-5.7c0.8-1.1,1.9-1.9,3-1.9h1.5c2.3,0,4.2,1.9,4.2,4.2l0,0v0.8H116.5z"/>
			<path id="Trazado_1024" class="st24" d="M34.6,171.8l6.4-6.4v-28.8c0-5.3,4.2-9.5,9.5-9.5h12.9v12.9l8-8c2.7-2.7,6.8-3,9.5-0.8
				c2.7,2.3,3,6.8,0.8,9.5c-0.4,0.4-0.4,0.4-0.8,0.8l-14.4,14.4c7.2,7.2,7.2,18.6,0,25.8l0,0l0,0l-15.9,15.9L34.6,171.8z"/>
			<path id="Trazado_1025" class="st25" d="M57,141.4l1.9-1.9c1.1-1.1,3.4-1.1,4.5,0l0,0c1.1,1.1,1.1,3.4,0,4.5l0,0l-1.9,1.9
				c-1.1,1.1-3.4,1.1-4.5,0l0,0C55.9,144.5,55.9,142.6,57,141.4z"/>
			<path id="Rectangle-path" class="st26" d="M6.2,179l18.2-11.7c3-1.9,7.2-1.1,9.1,1.9L50.6,196c1.9,3,1.1,7.2-1.9,9.1l-18.2,11.7
				c-3,1.9-7.2,1.1-9.1-1.9L4.3,188.1C2.4,185,3.2,181.2,6.2,179z"/>
			<path id="Shape" class="st27" d="M29.3,201.7l-1.9-3c-1.1-1.5-0.8-3.8,1.1-4.9c1.5-1.1,3.8-0.8,4.9,1.1l1.9,3
				c1.1,1.5,0.8,3.8-0.8,4.9c0,0,0,0-0.4,0C32.4,204,30.5,203.2,29.3,201.7L29.3,201.7z"/>
			<path id="Trazado_1026" class="st28" d="M196.5,112.3l-9.9-37.9c-0.4-0.8-1.1-1.1-1.9-1.1l0,0c-0.4,0-0.4,0.4-0.8,0.4l-8.7,9.9
				c-17.8-14-41.7-5.3-52.7,6.8l0,0c-0.4,0.4-0.8,1.5,0,1.9l0,0l0,0c0.8,0.8,1.5,0.8,1.9,0l0,0c2.7-3,25.4-5.7,38.7,4.5l-8,10.2
				c-0.8,0.8-0.8,1.5,0,1.9c0.4,0,0.4,0.4,0.8,0.4l38.7,4.5c0.8,0,1.5-0.4,1.5-1.1l0,0C196.5,112.6,196.5,112.3,196.5,112.3z"/>
		</g>
	</g>
</g>
</svg>
