<?xml version="1.0" encoding="utf-8"?>
<!-- Generator: Adobe Illustrator 26.0.1, SVG Export Plug-In . SVG Version: 6.00 Build 0)  -->
<svg version="1.1" id="Layer_1" xmlns="http://www.w3.org/2000/svg" xmlns:xlink="http://www.w3.org/1999/xlink" x="0px" y="0px"
	 viewBox="0 0 100 100" style="enable-background:new 0 0 100 100;" xml:space="preserve">
<style type="text/css">
	.st0{fill:#FFFFFF;}
	.st1{fill:#313133;}
	.st2{clip-path:url(#SVGID_00000045611112924552333170000004418163593733677197_);}
	.st3{fill:#6DA12F;}
	.st4{fill:#F2F3F4;}
	.st5{fill:#E93546;}
	.st6{fill:#FFC739;}
	.st7{fill:#35AE8A;}
	.st8{fill:#009CD5;}
	.st9{fill:#5F202A;}
	.st10{fill:#A7C84D;}
	.st11{fill:#73303F;}
	.st12{fill:#642C36;}
	.st13{fill:#FFD942;}
	.st14{fill:#FCA263;}
	.st15{fill:#883949;}
	.st16{opacity:0.5;fill:#FFFFFF;enable-background:new    ;}
	.st17{opacity:0.3;fill:#1A1818;enable-background:new    ;}
	.st18{fill:#FFA419;}
	.st19{fill:#F16322;}
	.st20{fill:#FE9D2B;}
	.st21{fill:#E50019;}
	.st22{fill:#1A1818;}
	.st23{fill:#00A1ED;}
	.st24{clip-path:url(#SVGID_00000074430851813464485730000012559220868283389587_);}
	.st25{fill:#22388B;}
	.st26{fill:#E7A166;}
	.st27{fill:#C58B59;}
	.st28{fill:#34646C;}
	.st29{fill:#203040;}
	.st30{fill:#E0007A;}
</style>
<path id="Rectángulo_292-2" class="st0" d="M18.2,2.5h63.5c8.7,0,15.7,7,15.7,15.7v63.5c0,8.7-7,15.7-15.7,15.7H18.2
	c-8.7,0-15.7-7-15.7-15.7V18.2C2.5,9.5,9.5,2.5,18.2,2.5z"/>
<g id="Grupo_1597">
	<g id="Grupo_1561">
		<g id="_ENVÍO_DE_DINERO">
			<g>
				<path class="st1" d="M38.5,66.9v1.3h-3.2v1.3h2.8v1.2h-2.8V72h3.3v1.3h-4.7v-6.4H38.5z"/>
				<path class="st1" d="M44.3,66.9h1.4v6.4h-1.4l-3-4v4h-1.5v-6.4h1.3l3.1,4.1V66.9z"/>
				<path class="st1" d="M49.7,70.9l1.6-4.1h1.5l-2.6,6.4h-1.2l-2.6-6.4h1.5L49.7,70.9z"/>
				<path class="st1" d="M53.6,66.9H55v6.4h-1.4V66.9z M55,66.2h-1.3l1.2-1.6l1.4,0.6L55,66.2z"/>
				<path class="st1" d="M62,72.4c-1.3,1.3-3.4,1.3-4.8,0c-1.3-1.3-1.3-3.4,0-4.7c1.3-1.3,3.4-1.3,4.8,0C63.3,69,63.3,71.1,62,72.4z
					 M61.5,70c0-0.5-0.2-1.1-0.5-1.4c-0.7-0.7-1.8-0.8-2.6-0.1c0,0-0.1,0.1-0.1,0.1c-0.7,0.8-0.7,2.1,0,2.9c0.7,0.7,1.8,0.8,2.6,0.1
					c0,0,0.1-0.1,0.1-0.1C61.3,71.1,61.5,70.5,61.5,70z"/>
			</g>
			<g>
				<path class="st1" d="M25.8,77.8c0.6,0.6,1,1.5,0.9,2.3c0,0.9-0.3,1.7-0.9,2.4c-0.8,0.6-1.7,0.9-2.7,0.9h-2.2v-6.4h2.3
					C24.1,76.9,25,77.2,25.8,77.8z M24.7,81.6c0.4-0.4,0.6-0.9,0.5-1.4c0-0.5-0.2-1.1-0.5-1.4c-0.5-0.4-1-0.5-1.6-0.5h-0.8v3.9h0.9
					C23.7,82.1,24.3,81.9,24.7,81.6z"/>
				<path class="st1" d="M32.5,76.9v1.3h-3.2v1.3h2.9v1.2h-2.9V82h3.3v1.3h-4.7v-6.4H32.5z"/>
				<path class="st1" d="M41.1,77.8c0.6,0.6,1,1.5,0.9,2.3c0,0.9-0.3,1.7-0.9,2.4c-0.8,0.6-1.7,0.9-2.7,0.9h-2.2v-6.4h2.3
					C39.5,76.9,40.4,77.2,41.1,77.8z M40.1,81.6c0.4-0.4,0.6-0.9,0.5-1.4c0-0.5-0.2-1.1-0.5-1.4c-0.5-0.4-1-0.5-1.6-0.5h-0.8v3.9
					h0.9C39.2,82.1,39.7,81.9,40.1,81.6L40.1,81.6z"/>
				<path class="st1" d="M43.3,76.9h1.4v6.4h-1.4V76.9z"/>
				<path class="st1" d="M50.7,76.9h1.4v6.4h-1.4l-3-4v4h-1.5v-6.4h1.3l3.1,4.1V76.9z"/>
				<path class="st1" d="M58.3,76.9v1.3h-3.2v1.3H58v1.2h-2.8V82h3.3v1.3h-4.7v-6.4H58.3z"/>
				<path class="st1" d="M64.9,79.1c0.1,0.9-0.4,1.7-1.2,2l1.6,2.3h-1.8l-1.4-2h-1v2h-1.4v-6.4h2.4c0.7-0.1,1.5,0.1,2.1,0.5
					C64.7,77.8,64.9,78.4,64.9,79.1z M63.2,79.8c0.2-0.2,0.3-0.5,0.3-0.8c0-0.3-0.1-0.5-0.3-0.7c-0.3-0.2-0.7-0.2-1-0.2h-1v1.9h1
					C62.5,80.1,62.8,80,63.2,79.8z"/>
				<path class="st1" d="M71.6,82.4c-1.3,1.3-3.4,1.3-4.8,0c-1.3-1.3-1.3-3.4,0-4.7c1.3-1.3,3.4-1.3,4.8,0
					C72.9,79,72.9,81.1,71.6,82.4z M71.1,80.1c0-0.5-0.2-1.1-0.6-1.5c-0.3-0.4-0.8-0.6-1.3-0.6c-0.5,0-1,0.2-1.3,0.6
					c-0.4,0.4-0.6,0.9-0.6,1.5c0,0.5,0.2,1.1,0.6,1.4c0.3,0.4,0.8,0.6,1.3,0.6c0.5,0,1-0.2,1.3-0.6C71,81.2,71.2,80.6,71.1,80.1z"/>
			</g>
		</g>
		<g id="Grupo_1466">
			<g id="Grupo_1459">
				<g id="Grupo_1458">
					<g id="Grupo_1455">
						<g>
							<defs>
								<path id="SVGID_1_" d="M55.5,30.4h28.2c1.4,0,2.4,1.1,2.4,2.4v15.9c0,1.4-1.1,2.5-2.4,2.5H55.5c-1.4,0-2.5-1.1-2.5-2.5V32.8
									C53,31.5,54.1,30.4,55.5,30.4z"/>
							</defs>
							<clipPath id="SVGID_00000095318863365032658030000010940359606222572931_">
								<use xlink:href="#SVGID_1_"  style="overflow:visible;"/>
							</clipPath>
							<g style="clip-path:url(#SVGID_00000095318863365032658030000010940359606222572931_);">
								<g id="Grupo_1454">
									<g id="Grupo_1453">
										<path id="Trazado_960" class="st3" d="M64.1,51.6H53.7c-0.3,0-0.6-0.3-0.6-0.6V30.6c0-0.3,0.3-0.6,0.6-0.6h10.4V51.6z"/>
										<rect id="Rectángulo_261" x="64.1" y="30" class="st4" width="11" height="21.5"/>
										<path id="Trazado_961" class="st5" d="M85.4,51.6H75V30h10.4c0.3,0,0.6,0.2,0.6,0.6l0,0V51C86,51.3,85.7,51.6,85.4,51.6
											L85.4,51.6z"/>
										<g id="Grupo_1452">
											<path id="Trazado_962" class="st6" d="M70.5,41.3l-1,0.5v0.5H70L70.5,41.3z"/>
											<g id="Grupo_1450">
												<path id="Trazado_963" class="st7" d="M69.5,43.5c-0.1,0-0.2-0.1-0.2-0.2l0,0v-1c0-0.1,0.1-0.2,0.2-0.2c0,0,0,0,0,0l0,0
													c0.1,0,0.2,0.1,0.2,0.2l0,0v1C69.8,43.4,69.7,43.5,69.5,43.5z"/>
												<path id="Trazado_964" class="st7" d="M69.5,42.5c-1,0-1.9-0.4-2.6-1c-0.1-0.1-0.1-0.2,0-0.3c0,0,0,0,0,0l0,0
													c0.1-0.1,0.2-0.1,0.3,0c0,0,0,0,0,0c1.3,1.2,3.3,1.2,4.6,0c0.1-0.1,0.3-0.1,0.3,0l0,0c0.1,0.1,0.1,0.3,0,0.3l0,0
													C71.5,42.2,70.5,42.5,69.5,42.5z"/>
											</g>
											<path id="Trazado_965" class="st8" d="M69.5,43.5c-0.6,0-1.2-0.2-1.8-0.5l0.3-0.4c0.9,0.6,2.1,0.6,3,0l0.3,0.4
												C70.8,43.3,70.2,43.5,69.5,43.5z"/>
											<path id="Trazado_966" class="st9" d="M69.2,40.2L68.6,41l-0.1,0.3l1.4-0.3L69.2,40.2z"/>
											<path id="Trazado_967" class="st10" d="M68,41.6c-0.6,0-1.4-0.5-1.6-1.8l0.5-0.1c0.2,1,0.8,1.3,1.2,1.3
												c0.1,0,0.2,0,0.2-0.1s0-0.1-0.2-0.2c-0.2,0-0.3-0.1-0.4-0.2c-0.4-0.5,0.2-1,0.4-1.3c0.1,0,0.1-0.1,0.1-0.1
												c0-0.1-0.1-0.1-0.1-0.1c-0.3,0-0.5-0.2-0.6-0.5c-0.1-0.3,0.1-0.6,0.3-0.7l0.2,0.4c-0.1,0-0.1,0.1-0.1,0.2
												c0,0,0,0.1,0.1,0.1c0.3,0,0.6,0.2,0.7,0.4c0.1,0.2,0,0.5-0.2,0.6c-0.3,0.3-0.5,0.5-0.4,0.6c0.1,0,0.1,0.1,0.2,0.1
												c0.2,0.1,0.6,0.2,0.6,0.7c-0.1,0.3-0.4,0.6-0.7,0.6L68,41.6z"/>
											<path id="Trazado_968" class="st11" d="M70,38.8c0.3-0.5,0.1-1.2-0.4-1.4c0,0,0,0,0,0l0,0c0,0,3.4-0.5,2.9,3.9l0,0
												c-0.4-0.3-0.7-0.7-1-1.1L70,39.3V38.8z"/>
											<path id="Trazado_969" class="st9" d="M69.5,39.8l2.5,1.5l-1,0.5l-1.5-1.5L69.5,39.8z"/>
											<path id="Trazado_970" class="st12" d="M68.6,38.4L68.6,38.4c0.3,0,0.5,0.2,0.5,0.5l0,0c-0.3,0.3-0.4,0.8-0.2,1.1
												l0.1,0.2c0,0.1,0.1,0.2,0.2,0.2l1.4,1.4v-0.7c0-0.8-0.2-1.7-0.5-2.5l0,0c-0.2-0.5-0.8-0.8-1.3-0.8h-0.1L68.6,38.4
												L68.6,38.4z"/>
											<path id="Trazado_971" class="st6" d="M68.6,37.9l-0.5,0.5v0.5l0.8-0.4c0.1,0,0.1-0.1,0.1-0.2c0,0,0,0,0,0
												c0,0,0,0-0.1-0.1L68.6,37.9z"/>
											<path id="Trazado_972" class="st10" d="M69.5,44.5c-2.3,0-4.2-1.9-4.2-4.2h0.5c0,2,1.6,3.7,3.7,3.7c2,0,3.7-1.6,3.7-3.7
												h0.5C73.7,42.6,71.8,44.5,69.5,44.5L69.5,44.5z"/>
											<g id="Grupo_1451">
												<circle id="Elipse_97" class="st13" cx="65.9" cy="41.8" r="0.3"/>
												<circle id="Elipse_98" class="st13" cx="66.6" cy="42.9" r="0.3"/>
												<circle id="Elipse_99" class="st13" cx="67.8" cy="43.8" r="0.3"/>
												<circle id="Elipse_100" class="st13" cx="73.2" cy="41.8" r="0.3"/>
												<circle id="Elipse_101" class="st13" cx="72.5" cy="42.9" r="0.3"/>
												<circle id="Elipse_102" class="st13" cx="71.3" cy="43.8" r="0.3"/>
											</g>
											<path id="Trazado_973" class="st14" d="M69.8,43.7h-0.5c-0.3,0-0.5-0.2-0.5-0.5c0,0,0,0,0,0l0,0c0-0.3,0.2-0.5,0.5-0.5
												c0,0,0,0,0,0h0.5c0.3,0,0.5,0.2,0.5,0.5l0,0C70.3,43.5,70.1,43.7,69.8,43.7C69.8,43.7,69.8,43.7,69.8,43.7z"/>
											<path id="Trazado_974" class="st15" d="M71.5,40.2c0.2,0.5,0.5,0.9,1,1.1l0,0c0.5-4.4-2.9-3.9-2.9-3.9
												C72,37.4,71.5,40.2,71.5,40.2z"/>
										</g>
									</g>
									<path id="Rectángulo_262" class="st16" d="M54.5,29.8h30c1.2,0,2.2,1,2.2,2.2v18.1c0,1.2-1,2.2-2.2,2.2h-30
										c-1.2,0-2.2-1-2.2-2.2V31.9C52.3,30.7,53.2,29.8,54.5,29.8z"/>
								</g>
							</g>
						</g>
					</g>
					<path id="Trazado_976" class="st17" d="M83.6,30.4h-0.5C77.4,40.6,66.6,47.7,60,51.2h23.6c1.4,0,2.4-1.1,2.4-2.5V32.8
						C86.1,31.5,85,30.4,83.6,30.4C83.6,30.4,83.6,30.4,83.6,30.4z"/>
					<rect id="Rectángulo_263" x="55.1" y="33" class="st18" width="6.1" height="4.9"/>
					<g id="Grupo_1456">
						<rect id="Rectángulo_264" x="55.1" y="34.8" class="st19" width="1.8" height="1.2"/>
						<rect id="Rectángulo_265" x="59.4" y="34.8" class="st19" width="1.8" height="1.2"/>
					</g>
					<circle id="Elipse_103" class="st20" cx="82" cy="46.5" r="2.6"/>
					<circle id="Elipse_104" class="st21" cx="78.8" cy="46.5" r="2.6"/>
					<g id="Grupo_1457">
						<rect id="Rectángulo_266" x="55.5" y="45.2" class="st22" width="3.7" height="1.2"/>
						<rect id="Rectángulo_267" x="61.6" y="45.2" class="st22" width="3.7" height="1.2"/>
						<rect id="Rectángulo_268" x="67.7" y="45.2" class="st22" width="3.7" height="1.2"/>
						<rect id="Rectángulo_269" x="55.5" y="47.9" class="st22" width="15.9" height="1.2"/>
						<rect id="Rectángulo_270" x="75.7" y="33.1" class="st22" width="1.2" height="2.5"/>
						<rect id="Rectángulo_271" x="78.2" y="33.1" class="st22" width="1.2" height="2.5"/>
						<rect id="Rectángulo_272" x="80.6" y="33.1" class="st22" width="1.2" height="2.5"/>
						<rect id="Rectángulo_273" x="83.1" y="33.1" class="st22" width="1.2" height="2.5"/>
					</g>
				</g>
			</g>
			<path id="Rectángulo_274" class="st23" d="M36.3,16.6h7.4c3.6,0,6.5,2.9,6.5,6.4v22.7c0,3.6-2.9,6.5-6.5,6.5h-7.4
				c-3.6,0-6.5-2.9-6.5-6.5V23.1C29.8,19.5,32.7,16.6,36.3,16.6z"/>
			<g id="Grupo_1465">
				<g>
					<defs>
						<path id="SVGID_00000036972087728110061990000013736509030935763118_" d="M34.7,18.3h10.5c1.8,0,3.2,1.4,3.2,3.2v25.8
							c0,1.8-1.4,3.2-3.2,3.2H34.7c-1.8,0-3.2-1.4-3.2-3.2V21.5C31.5,19.8,33,18.3,34.7,18.3z"/>
					</defs>
					<clipPath id="SVGID_00000089570928926268007940000004670059718596640185_">
						<use xlink:href="#SVGID_00000036972087728110061990000013736509030935763118_"  style="overflow:visible;"/>
					</clipPath>
					<g style="clip-path:url(#SVGID_00000089570928926268007940000004670059718596640185_);">
						<g id="Grupo_1464">
							<g id="Grupo_1463">
								<path id="Trazado_977" class="st4" d="M81.1,51.2H32.2c-0.5,0-0.9-0.4-0.9-0.9c0,0,0,0,0,0V18.9c0-0.5,0.4-0.9,0.9-0.9h48.9
									c0.5,0,0.9,0.4,0.9,0.9c0,0,0,0,0,0l0,0v31.4C82,50.8,81.6,51.2,81.1,51.2z"/>
								<g id="Grupo_1460">
									<path id="Trazado_978" class="st5" d="M82,20.6H31.4v-1.7c0-0.5,0.4-0.9,0.9-0.9l0,0h48.9c0.5,0,0.9,0.4,0.9,0.9
										c0,0,0,0,0,0l0,0L82,20.6L82,20.6z"/>
									<rect id="Rectángulo_275" x="31.4" y="28.2" class="st5" width="50.6" height="2.5"/>
									<rect id="Rectángulo_276" x="31.4" y="23.1" class="st5" width="50.6" height="2.5"/>
									<path id="Trazado_979" class="st5" d="M82,35.9H32.2c-0.5,0-0.9-0.4-0.9-0.9c0,0,0,0,0,0v-1.7H82V35.9z"/>
									<rect id="Rectángulo_277" x="31.4" y="43.5" class="st5" width="50.6" height="2.5"/>
									<path id="Trazado_980" class="st5" d="M81.1,51.2H32.2c-0.5,0-0.9-0.4-0.9-0.9c0,0,0,0,0,0v-1.7H82v1.7
										C82,50.8,81.6,51.2,81.1,51.2C81.1,51.2,81.1,51.2,81.1,51.2z"/>
									<rect id="Rectángulo_278" x="31.4" y="38.4" class="st5" width="50.6" height="2.5"/>
								</g>
								<g id="Grupo_1462">
									<path id="Trazado_981" class="st25" d="M48.2,18H32c-0.3,0-0.6,0.3-0.6,0.6c0,0,0,0,0,0v12c0,0.4,0.3,0.6,0.6,0.6
										c0,0,0,0,0,0h16.2c0.4,0,0.7-0.3,0.7-0.6c0,0,0,0,0,0V18.7C48.8,18.3,48.5,18,48.2,18C48.2,18,48.2,18,48.2,18z"/>
									<g id="Grupo_1461">
										<path id="Trazado_982" class="st4" d="M33.2,19.5l0.1,0.4h0.5c0,0,0.1,0,0.1,0.1l0,0c0,0,0,0,0,0l-0.4,0.3l0.1,0.4
											c0,0,0,0.1,0,0.1h0l-0.4-0.3l-0.4,0.3c0,0-0.1,0-0.1,0c0,0,0,0,0-0.1l0.1-0.4l-0.4-0.3c0,0,0-0.1,0-0.1c0,0,0,0,0,0H33
											L33.2,19.5C33.2,19.5,33.2,19.5,33.2,19.5C33.2,19.6,33.2,19.5,33.2,19.5z"/>
										<path id="Trazado_983" class="st4" d="M33.2,21.8l0.1,0.4h0.5c0,0,0.1,0,0.1,0.1l0,0c0,0,0,0,0,0l-0.4,0.3l0.1,0.4
											c0,0,0,0.1,0,0.1c0,0,0,0,0,0l-0.4-0.3l-0.4,0.3c0,0,0,0-0.1,0c0,0,0,0,0,0c0,0,0,0,0,0l0.1-0.4l-0.4-0.3c0,0,0-0.1,0-0.1
											c0,0,0,0,0,0H33L33.2,21.8C33.2,21.8,33.2,21.8,33.2,21.8C33.2,21.8,33.2,21.8,33.2,21.8z"/>
										<path id="Trazado_984" class="st4" d="M33.2,24l0.1,0.4h0.5c0,0,0.1,0,0.1,0.1l0,0c0,0,0,0,0,0l-0.4,0.3l0.1,0.4
											c0,0,0,0.1,0,0.1h0l-0.4-0.3l-0.4,0.3c0,0-0.1,0-0.1,0c0,0,0,0,0-0.1l0.1-0.4l-0.4-0.3c0,0,0-0.1,0-0.1c0,0,0,0,0,0H33
											l0-0.5C33,24,33.1,24,33.2,24C33.1,24,33.1,24,33.2,24z"/>
										<path id="Trazado_985" class="st4" d="M33.2,26.2l0.1,0.4h0.5c0,0,0.1,0,0.1,0.1l0,0c0,0,0,0,0,0L33.5,27l0.1,0.4
											c0,0,0,0.1,0,0.1c0,0,0,0,0,0l-0.4-0.3l-0.4,0.3c0,0,0,0-0.1,0c0,0,0,0,0,0c0,0,0,0,0,0l0.1-0.4l-0.4-0.3c0,0,0-0.1,0-0.1
											c0,0,0,0,0,0H33L33.2,26.2C33.2,26.3,33.2,26.3,33.2,26.2C33.2,26.3,33.2,26.3,33.2,26.2z"/>
										<path id="Trazado_986" class="st4" d="M33.2,28.5l0.1,0.4h0.5c0,0,0.1,0,0.1,0.1l0,0c0,0,0,0,0,0l-0.4,0.3l0.1,0.4
											c0,0,0,0.1,0,0.1h0l-0.4-0.3l-0.4,0.3c0,0-0.1,0-0.1,0 M32.7,29.8l0.1-0.4L32.4,29c0,0,0-0.1,0-0.1h0h0.5l0.1-0.4
											c0,0,0.1,0,0.1,0c0,0,0,0,0,0L32.7,29.8z"/>
										<path id="Trazado_987" class="st4" d="M34.9,20.6l0.2,0.4h0.5c0,0,0.1,0,0.1,0.1l0,0l0,0l-0.4,0.3l0.1,0.4
											c0,0,0,0.1,0,0.1h-0.1l-0.4-0.3l-0.4,0.3c0,0-0.1,0-0.1,0c0,0,0,0,0-0.1l0.1-0.4l-0.4-0.3c0,0,0-0.1,0-0.1l0,0h0.5
											L34.9,20.6C34.9,20.6,34.9,20.6,34.9,20.6C34.9,20.6,34.9,20.6,34.9,20.6z"/>
										<path id="Trazado_988" class="st4" d="M34.9,22.9l0.2,0.4h0.5c0,0,0.1,0,0.1,0.1l0,0l0,0l-0.4,0.3l0.1,0.4c0,0,0,0,0,0.1
											 M35.3,24.1l-0.4-0.3l-0.4,0.3c0,0-0.1,0-0.1,0c0,0,0,0,0,0l0,0l0.1-0.4l-0.4-0.3c0,0,0-0.1,0-0.1l0,0h0.5l0.2-0.4
											c0,0,0,0,0.1,0c0,0,0-0.1,0,0L35.3,24.1z"/>
										<path id="Trazado_989" class="st4" d="M34.9,25.1l0.2,0.4h0.5c0,0,0.1,0,0.1,0.1l0,0c0,0,0,0,0,0l-0.4,0.3l0.1,0.4
											c0,0,0,0.1,0,0.1h-0.1l-0.4-0.3l-0.4,0.3c0,0-0.1,0-0.1,0c0,0,0,0,0-0.1l0.1-0.4l-0.4-0.3c0,0,0-0.1,0-0.1l0,0h0.5
											L34.9,25.1C34.9,25.1,34.9,25.1,34.9,25.1L34.9,25.1z"/>
										<path id="Trazado_990" class="st4" d="M34.9,27.3l0.2,0.4h0.5c0,0,0.1,0,0.1,0.1l0,0c0,0,0,0,0,0l-0.4,0.3l0.1,0.4
											c0,0,0,0,0,0.1 M35.3,28.6l-0.4-0.3l-0.4,0.3c0,0-0.1,0-0.1,0c0,0,0,0,0,0c0,0,0,0,0,0l0.1-0.4l-0.4-0.3c0,0,0-0.1,0-0.1
											l0,0h0.5l0.2-0.4c0,0,0,0,0.1,0c0,0,0-0.1,0,0L35.3,28.6z"/>
										<path id="Trazado_991" class="st4" d="M36.6,19.5l0.2,0.4h0.5c0,0,0.1,0,0.1,0.1l0,0c0,0,0,0,0,0l-0.4,0.3l0.1,0.4
											c0,0,0,0.1,0,0.1H37l-0.4-0.3l-0.4,0.3c0,0-0.1,0-0.1,0c0,0,0,0,0-0.1l0.1-0.4L36,20.1c0,0,0-0.1,0-0.1l0,0h0.5L36.6,19.5
											C36.6,19.5,36.6,19.5,36.6,19.5L36.6,19.5z"/>
										<path id="Trazado_992" class="st4" d="M36.6,21.8l0.2,0.4h0.5c0,0,0.1,0,0.1,0.1l0,0c0,0,0,0,0,0l-0.4,0.3l0.1,0.4
											c0,0,0,0,0,0.1 M37,23.1l-0.4-0.3l-0.4,0.3c0,0-0.1,0-0.1,0c0,0,0,0,0,0c0,0,0,0,0,0l0.1-0.4L36,22.3c0,0,0-0.1,0-0.1l0,0
											h0.5l0.1-0.4c0,0,0,0,0.1,0c0,0,0-0.1,0,0L37,23.1z"/>
										<path id="Trazado_993" class="st4" d="M36.6,24l0.2,0.4h0.5c0,0,0.1,0,0.1,0.1l0,0c0,0,0,0,0,0l-0.4,0.3l0.1,0.4
											c0,0,0,0.1,0,0.1H37l-0.4-0.3l-0.4,0.3c0,0-0.1,0-0.1,0c0,0,0,0,0-0.1l0.1-0.4L36,24.6c0,0,0-0.1,0-0.1l0,0h0.5L36.6,24
											C36.6,24,36.6,24,36.6,24L36.6,24z"/>
										<path id="Trazado_994" class="st4" d="M36.6,26.2l0.2,0.4h0.5c0,0,0.1,0,0.1,0.1l0,0c0,0,0,0,0,0L36.9,27l0.1,0.4
											c0,0,0,0,0,0.1c0,0,0,0-0.1,0l-0.4-0.3l-0.4,0.3c0,0-0.1,0-0.1,0c0,0,0,0,0,0c0,0,0,0,0,0l0.1-0.4L36,26.8
											c0,0,0-0.1,0-0.1l0,0h0.5L36.6,26.2C36.6,26.3,36.6,26.3,36.6,26.2C36.6,26.3,36.6,26.2,36.6,26.2z"/>
										<path id="Trazado_995" class="st4" d="M36.6,28.5l0.2,0.4h0.5c0,0,0.1,0,0.1,0.1l0,0c0,0,0,0,0,0l-0.4,0.3l0.1,0.4
											c0,0,0,0.1,0,0.1H37l-0.4-0.3l-0.4,0.3c0,0-0.1,0-0.1,0c0,0,0,0,0,0l0.1-0.4L35.9,29c0,0,0-0.1,0-0.1l0,0h0.5l0.1-0.4
											C36.5,28.5,36.6,28.5,36.6,28.5L36.6,28.5z"/>
										<path id="Trazado_996" class="st4" d="M38.4,20.6l0.1,0.4H39c0,0,0.1,0,0.1,0.1l0,0l0,0l-0.4,0.3l0.1,0.4c0,0,0,0.1,0,0.1
											l0,0l-0.4-0.3l-0.4,0.3c0,0-0.1,0-0.1,0 M38,21.8l0.1-0.4l-0.4-0.3c0,0,0,0,0-0.1c0,0,0,0,0,0l0,0h0.5l0.1-0.4
											c0,0,0.1,0,0.1,0c0,0,0,0-0.1,0L38,21.8z"/>
										<path id="Trazado_997" class="st4" d="M38.4,22.9l0.1,0.4H39c0,0,0.1,0,0.1,0c0,0,0,0,0,0l0,0l-0.4,0.3l0.1,0.4
											c0,0,0,0,0,0.1l0,0l-0.4-0.3l-0.4,0.3c0,0,0,0-0.1,0c0,0,0,0,0,0l0,0l0.1-0.4l-0.4-0.3c0,0,0-0.1,0-0.1c0,0,0,0,0,0l0,0
											h0.5L38.4,22.9C38.4,22.9,38.4,22.9,38.4,22.9C38.4,22.9,38.4,22.9,38.4,22.9z"/>
										<path id="Trazado_998" class="st4" d="M38.4,25.1l0.1,0.4H39c0,0,0.1,0,0.1,0.1l0,0c0,0,0,0,0,0l-0.4,0.3l0.1,0.4
											c0,0,0,0.1,0,0.1l0,0l-0.4-0.3l-0.4,0.3c0,0-0.1,0-0.1,0 M38,26.4l0.1-0.4l-0.4-0.3c0,0,0,0,0-0.1c0,0,0,0,0,0l0,0h0.5
											l0.1-0.4c0,0,0.1,0,0.1,0c0,0-0.1-0.1-0.1,0L38,26.4z"/>
										<path id="Trazado_999" class="st4" d="M38.4,27.3l0.1,0.4H39c0,0,0.1,0,0.1,0c0,0,0,0,0,0c0,0,0,0,0,0l-0.4,0.3l0.1,0.4
											c0,0,0,0,0,0.1l0,0l-0.4-0.3l-0.4,0.3c0,0,0,0-0.1,0c0,0,0,0,0,0c0,0,0,0,0,0l0.1-0.4l-0.4-0.3c0,0,0-0.1,0-0.1
											c0,0,0,0,0,0l0,0h0.5L38.4,27.3C38.4,27.4,38.4,27.4,38.4,27.3C38.4,27.4,38.4,27.4,38.4,27.3z"/>
										<path id="Trazado_1000" class="st4" d="M40.1,19.5l0.1,0.4h0.5c0,0,0.1,0,0.1,0.1l0,0c0,0,0,0,0,0l-0.4,0.3l0.1,0.4
											c0,0,0,0.1,0,0.1h-0.1l-0.4-0.3l-0.4,0.3c0,0-0.1,0-0.1,0c0,0,0,0,0-0.1l0.1-0.4l-0.4-0.3c0,0,0-0.1,0-0.1c0,0,0,0,0,0H40
											L40.1,19.5C40.1,19.5,40.1,19.5,40.1,19.5C40.2,19.6,40.1,19.5,40.1,19.5z"/>
										<path id="Trazado_1001" class="st4" d="M40.1,21.8l0.1,0.4h0.5c0,0,0.1,0,0.1,0.1l0,0c0,0,0,0,0,0l-0.4,0.3l0.1,0.4
											c0,0,0,0.1,0,0.1 M40.5,23.1l-0.4-0.3l-0.4,0.3c0,0,0,0-0.1,0c0,0,0,0,0,0c0,0,0,0,0,0l0.1-0.4l-0.4-0.3c0,0,0-0.1,0-0.1
											h0H40l0.1-0.4c0,0,0.1,0,0.1,0L40.5,23.1z"/>
										<path id="Trazado_1002" class="st4" d="M40.1,24l0.1,0.4h0.5c0,0,0.1,0,0.1,0.1l0,0c0,0,0,0,0,0l-0.4,0.3l0.1,0.4
											c0,0,0,0.1,0,0.1h-0.1l-0.4-0.3l-0.4,0.3c0,0-0.1,0-0.1,0c0,0,0,0,0-0.1l0.1-0.4l-0.4-0.3c0,0,0-0.1,0-0.1c0,0,0,0,0,0H40
											l0-0.5C40,24,40.1,24,40.1,24C40.1,24,40.1,24,40.1,24z"/>
										<path id="Trazado_1003" class="st4" d="M40.1,26.2l0.1,0.4h0.5c0,0,0.1,0,0.1,0.1l0,0c0,0,0,0,0,0L40.4,27l0.1,0.4
											c0,0,0,0.1,0,0.1c0,0,0,0-0.1,0l-0.4-0.3l-0.4,0.3c0,0,0,0-0.1,0c0,0,0,0,0,0c0,0,0,0,0,0l0.1-0.4l-0.4-0.3
											c0,0,0-0.1,0-0.1c0,0,0,0,0,0H40L40.1,26.2C40.1,26.3,40.1,26.3,40.1,26.2L40.1,26.2z"/>
										<path id="Trazado_1004" class="st4" d="M40.1,28.5l0.1,0.4h0.5c0,0,0.1,0,0.1,0.1l0,0c0,0,0,0,0,0l-0.4,0.3l0.1,0.4
											c0,0,0,0.1,0,0.1h-0.1l-0.4-0.3l-0.4,0.3c0,0-0.1,0-0.1,0 M39.7,29.8l0.1-0.4L39.4,29c0,0,0-0.1,0-0.1h0h0.5l0.1-0.4
											c0,0,0.1,0,0.1,0c0,0,0,0,0,0L39.7,29.8z"/>
										<path id="Trazado_1005" class="st4" d="M41.9,20.6L42,21h0.5c0,0,0.1,0,0.1,0.1l0,0l0,0l-0.4,0.3l0.1,0.4c0,0,0,0.1,0,0.1
											h-0.1l-0.4-0.3l-0.4,0.3c0,0-0.1,0-0.1,0c0,0,0,0,0-0.1l0.1-0.4l-0.4-0.3c0,0,0-0.1,0-0.1l0,0h0.5L41.9,20.6
											C41.8,20.6,41.8,20.6,41.9,20.6C41.9,20.6,41.9,20.6,41.9,20.6z"/>
										<path id="Trazado_1006" class="st4" d="M41.9,22.9l0.1,0.4h0.5c0,0,0.1,0,0.1,0.1l0,0l0,0l-0.4,0.3l0.1,0.4c0,0,0,0,0,0.1
											 M42.2,24.1l-0.4-0.3l-0.4,0.3c0,0,0,0-0.1,0c0,0,0,0,0,0l0,0l0.1-0.4l-0.4-0.3c0,0,0-0.1,0-0.1l0,0h0.5l0.1-0.4
											c0,0,0.1,0,0.1,0c0,0,0-0.1,0,0L42.2,24.1z"/>
										<path id="Trazado_1007" class="st4" d="M41.9,25.1l0.1,0.4h0.5c0,0,0.1,0,0.1,0.1l0,0c0,0,0,0,0,0l-0.4,0.3l0.1,0.4
											c0,0,0,0.1,0,0.1h-0.1l-0.4-0.3l-0.4,0.3c0,0-0.1,0-0.1,0c0,0,0,0,0-0.1l0.1-0.4l-0.4-0.3c0,0,0-0.1,0-0.1l0,0h0.5
											L41.9,25.1C41.8,25.1,41.8,25.1,41.9,25.1L41.9,25.1z"/>
										<path id="Trazado_1008" class="st4" d="M41.9,27.3l0.1,0.4h0.5c0,0,0.1,0,0.1,0.1l0,0c0,0,0,0,0,0l-0.4,0.3l0.1,0.4
											c0,0,0,0,0,0.1c0,0,0,0-0.1,0l-0.4-0.3l-0.4,0.3c0,0,0,0-0.1,0c0,0,0,0,0,0c0,0,0,0,0,0l0.1-0.4l-0.4-0.3c0,0,0-0.1,0-0.1
											l0,0h0.5L41.9,27.3C41.8,27.4,41.8,27.4,41.9,27.3C41.9,27.4,41.9,27.3,41.9,27.3z"/>
										<path id="Trazado_1009" class="st4" d="M43.6,19.5l0.2,0.4h0.5c0,0,0.1,0,0.1,0.1l0,0c0,0,0,0,0,0l-0.4,0.3l0.1,0.4
											c0,0,0,0.1,0,0.1H44l-0.4-0.3l-0.4,0.3c0,0-0.1,0-0.1,0c0,0,0,0,0-0.1l0.1-0.4l-0.4-0.3c0,0,0-0.1,0-0.1l0,0h0.5
											L43.6,19.5C43.5,19.6,43.5,19.5,43.6,19.5L43.6,19.5z"/>
										<path id="Trazado_1010" class="st4" d="M43.6,21.8l0.2,0.4h0.5c0,0,0.1,0,0.1,0.1l0,0c0,0,0,0,0,0l-0.4,0.3L44,23
											c0,0,0,0,0,0.1 M43.9,23.1l-0.4-0.3l-0.4,0.3c0,0-0.1,0-0.1,0c0,0,0,0,0,0c0,0,0,0,0,0l0.1-0.4l-0.4-0.3c0,0,0-0.1,0-0.1
											l0,0h0.5l0.2-0.4c0,0,0,0,0.1,0c0,0,0-0.1,0,0L43.9,23.1z"/>
										<path id="Trazado_1011" class="st4" d="M43.6,24l0.2,0.4h0.5c0,0,0.1,0,0.1,0.1l0,0c0,0,0,0,0,0l-0.4,0.3l0.1,0.4
											c0,0,0,0.1,0,0.1H44l-0.4-0.3l-0.4,0.3c0,0-0.1,0-0.1,0c0,0,0,0,0-0.1l0.1-0.4L43,24.6c0,0,0,0,0-0.1c0,0,0,0,0,0h0.5
											l0.1-0.4C43.5,24,43.5,24,43.6,24L43.6,24z"/>
										<path id="Trazado_1012" class="st4" d="M43.6,26.2l0.2,0.4h0.5c0,0,0.1,0,0.1,0.1l0,0c0,0,0,0,0,0L43.9,27l0.1,0.4
											c0,0,0,0,0,0.1c0,0,0,0-0.1,0l-0.4-0.3l-0.4,0.3c0,0-0.1,0-0.1,0c0,0,0,0,0,0c0,0,0,0,0,0l0.1-0.4L43,26.8
											c0,0,0-0.1,0-0.1l0,0h0.5L43.6,26.2C43.6,26.3,43.6,26.3,43.6,26.2C43.6,26.3,43.6,26.2,43.6,26.2z"/>
										<path id="Trazado_1013" class="st4" d="M43.6,28.5l0.2,0.4h0.5c0,0,0.1,0,0.1,0.1l0,0c0,0,0,0,0,0l-0.4,0.3l0.1,0.4
											c0,0,0,0.1,0,0.1H44l-0.4-0.3l-0.4,0.3c0,0-0.1,0-0.1,0c0,0,0,0,0,0l0.1-0.4L42.9,29c0,0,0-0.1,0-0.1l0,0h0.5l0.2-0.4
											C43.5,28.5,43.5,28.5,43.6,28.5C43.6,28.5,43.6,28.5,43.6,28.5z"/>
										<path id="Trazado_1014" class="st4" d="M45.4,20.6l0.1,0.4H46c0,0,0.1,0,0.1,0.1l0,0l0,0l-0.4,0.3l0.1,0.4
											c0,0,0,0.1,0,0.1l0,0l-0.4-0.3l-0.4,0.3c0,0-0.1,0-0.1,0c0,0,0,0,0-0.1l0.1-0.4l-0.4-0.3c0,0,0,0,0-0.1c0,0,0,0,0,0l0,0
											h0.5L45.4,20.6C45.4,20.6,45.4,20.6,45.4,20.6C45.5,20.6,45.3,20.6,45.4,20.6z"/>
										<path id="Trazado_1015" class="st4" d="M45.4,22.9l0.1,0.4H46c0,0,0.1,0,0.1,0.1l0,0l0,0l-0.4,0.3l0.1,0.4c0,0,0,0,0,0.1
											l0,0l-0.4-0.3l-0.4,0.3c0,0-0.1,0-0.1,0c0,0,0,0,0,0l0,0l0.1-0.4l-0.4-0.3c0,0,0-0.1,0-0.1c0,0,0,0,0,0l0,0h0.5L45.4,22.9
											C45.4,22.9,45.4,22.9,45.4,22.9C45.4,22.9,45.4,22.9,45.4,22.9z"/>
										<path id="Trazado_1016" class="st4" d="M45.4,25.1l0.1,0.4H46c0,0,0.1,0,0.1,0.1l0,0c0,0,0,0,0,0l-0.4,0.3l0.1,0.4
											c0,0,0,0.1,0,0.1l0,0l-0.4-0.3l-0.4,0.3c0,0-0.1,0-0.1,0c0,0,0,0,0-0.1l0.1-0.4l-0.4-0.3c0,0,0-0.1,0-0.1l0,0h0.5
											L45.4,25.1C45.4,25.1,45.4,25.1,45.4,25.1C45.4,25.2,45.4,25.1,45.4,25.1z"/>
										<path id="Trazado_1017" class="st4" d="M45.4,27.3l0.1,0.4H46c0,0,0.1,0,0.1,0.1l0,0c0,0,0,0,0,0l-0.4,0.3l0.1,0.4
											c0,0,0,0,0,0.1l0,0l-0.4-0.3l-0.4,0.3c0,0-0.1,0-0.1,0c0,0,0,0,0,0 M45,28.6l0.1-0.4l-0.4-0.3c0,0,0-0.1,0-0.1
											c0,0,0,0,0,0l0,0h0.5l0.1-0.4c0,0,0.1,0,0.1,0c0,0-0.1-0.1-0.1,0L45,28.6z"/>
										<path id="Trazado_1018" class="st4" d="M47.1,19.5l0.1,0.4h0.5c0,0,0.1,0,0.1,0.1l0,0c0,0,0,0,0,0l-0.4,0.3l0.1,0.4
											c0,0,0,0.1,0,0.1h0L47,20.6l-0.4,0.3c0,0-0.1,0-0.1,0c0,0,0,0,0-0.1l0.1-0.4l-0.4-0.3c0,0,0,0,0-0.1c0,0,0,0,0,0l0,0h0.5
											l0.1-0.4c0,0,0.1,0,0.1,0C47,19.5,47.1,19.5,47.1,19.5z"/>
										<path id="Trazado_1019" class="st4" d="M47.1,21.8l0.1,0.4h0.5c0,0,0.1,0,0.1,0c0,0,0,0,0,0c0,0,0,0,0,0l-0.4,0.3l0.1,0.4
											c0,0,0,0,0,0.1c0,0,0,0,0,0L47,22.8l-0.4,0.3c0,0-0.1,0-0.1,0c0,0,0,0,0,0 M46.5,23l0.1-0.4l-0.4-0.3c0,0,0-0.1,0-0.1
											c0,0,0,0,0,0l0,0h0.5l0.1-0.4c0,0,0.1,0,0.1,0L46.5,23z"/>
										<path id="Trazado_1020" class="st4" d="M47.1,24l0.1,0.4h0.5c0,0,0.1,0,0.1,0.1l0,0c0,0,0,0,0,0l-0.4,0.3l0.1,0.4
											c0,0,0,0.1,0,0.1h0L47,25l-0.4,0.3c0,0-0.1,0-0.1,0c0,0,0,0,0-0.1l0.1-0.4l-0.4-0.3c0,0,0,0,0-0.1c0,0,0,0,0,0l0,0h0.5
											L47.1,24C47,24,47.1,24,47.1,24C47.1,24,47.1,24,47.1,24z"/>
										<path id="Trazado_1021" class="st4" d="M47.1,26.2l0.1,0.4h0.5c0,0,0.1,0,0.1,0c0,0,0,0,0,0c0,0,0,0,0,0L47.4,27l0.1,0.4
											c0,0,0,0,0,0.1 M47.5,27.5L47,27.3l-0.4,0.3c0,0-0.1,0-0.1,0c0,0,0,0,0,0 M46.5,27.5l0.1-0.4l-0.4-0.3c0,0,0-0.1,0-0.1
											c0,0,0,0,0,0l0,0h0.5l0.1-0.4c0,0,0.1,0,0.1,0c0,0,0.1-0.1,0.1,0c0,0,0,0,0,0L46.5,27.5z"/>
										<path id="Trazado_1022" class="st4" d="M47.1,28.5l0.1,0.4h0.5c0,0,0.1,0,0.1,0.1l0,0c0,0,0,0,0,0l-0.4,0.3l0.1,0.4
											c0,0,0,0.1,0,0.1h0L47,29.5l-0.4,0.3c0,0-0.1,0-0.1,0 M46.5,29.8l0.1-0.4L46.3,29c0,0,0-0.1,0-0.1c0,0,0,0,0,0l0,0h0.5
											l0.1-0.4c0,0,0.1,0,0.1,0c0,0,0.1,0,0.1,0L46.5,29.8z"/>
									</g>
								</g>
								<path id="Rectángulo_279" class="st16" d="M32.7,17.8H47c1.2,0,2.2,1,2.2,2.2v29c0,1.2-1,2.2-2.2,2.2H32.7
									c-1.2,0-2.2-1-2.2-2.2V20C30.6,18.8,31.5,17.8,32.7,17.8z"/>
							</g>
						</g>
					</g>
				</g>
			</g>
			<path id="Trazado_1023" class="st22" d="M43.8,37.1V37c0-1.6-1-2.9-2.5-3.4v-1.5h-2.5v1.4c-1.9,0.6-2.9,2.6-2.3,4.5l0,0
				c0.3,0.9,0.9,1.7,1.8,2.1l2.5,1.2c0.5,0.3,0.7,0.9,0.5,1.4l0,0c-0.2,0.4-0.6,0.6-1,0.6h-0.4c-0.6,0-1.1-0.5-1.1-1.1v-0.2h-2.5
				v0.2c0,1.6,1,3,2.5,3.4v1.4h2.5v-1.4c1.9-0.6,2.9-2.6,2.4-4.5c0,0,0,0,0,0l0,0c-0.3-0.9-0.9-1.7-1.8-2.1l-2.5-1.2
				c-0.5-0.3-0.7-1-0.4-1.5c0.2-0.3,0.5-0.5,0.8-0.5h0.4c0.6,0,1.1,0.5,1.1,1.1c0,0,0,0,0,0v0.2L43.8,37.1z"/>
			<path id="Trazado_1024" class="st26" d="M22.2,43.8l1.7-1.7v-7.6c0-1.4,1.1-2.5,2.5-2.5h3.4v3.4l2.1-2.1c0.7-0.7,1.8-0.8,2.5-0.2
				s0.8,1.8,0.2,2.5c-0.1,0.1-0.1,0.1-0.2,0.2l-3.8,3.8c1.9,1.9,1.9,4.9,0,6.8c0,0,0,0,0,0l0,0l-4.2,4.2L22.2,43.8z"/>
			<path id="Trazado_1025" class="st27" d="M28.1,35.8l0.5-0.5c0.3-0.3,0.9-0.3,1.2,0l0,0c0.3,0.3,0.3,0.9,0,1.2c0,0,0,0,0,0
				L29.3,37c-0.3,0.3-0.9,0.3-1.2,0l0,0C27.8,36.6,27.8,36.1,28.1,35.8z"/>
			<path id="Rectangle-path" class="st28" d="M14.7,45.7l4.8-3.1c0.8-0.5,1.9-0.3,2.4,0.5l4.5,7.1c0.5,0.8,0.3,1.9-0.5,2.4l-4.8,3.1
				c-0.8,0.5-1.9,0.3-2.4-0.5l-4.5-7.1C13.7,47.3,13.9,46.3,14.7,45.7z"/>
			<path id="Shape" class="st29" d="M20.8,51.7l-0.5-0.8c-0.3-0.4-0.2-1,0.3-1.3c0.4-0.3,1-0.2,1.3,0.3l0.5,0.8
				c0.3,0.4,0.2,1-0.2,1.3c0,0,0,0-0.1,0C21.6,52.3,21.1,52.1,20.8,51.7C20.8,51.7,20.8,51.7,20.8,51.7z"/>
			<path id="Trazado_1026" class="st30" d="M64.9,28.1l-2.6-10c-0.1-0.2-0.3-0.3-0.5-0.3l0,0c-0.1,0-0.1,0.1-0.2,0.1l-2.3,2.6
				c-4.7-3.7-11-1.4-13.9,1.8l0,0c-0.1,0.1-0.2,0.4,0,0.5c0,0,0,0,0,0l0,0c0.2,0.2,0.4,0.2,0.5,0l0,0c0.7-0.8,6.7-1.5,10.2,1.2
				L54,26.7c-0.2,0.2-0.2,0.4,0,0.5c0.1,0,0.1,0.1,0.2,0.1l10.2,1.2c0.2,0,0.4-0.1,0.4-0.3c0,0,0,0,0,0
				C64.9,28.2,64.9,28.1,64.9,28.1z"/>
		</g>
	</g>
</g>
</svg>
