<?xml version="1.0" encoding="utf-8"?>
<!-- Generator: Adobe Illustrator 26.0.1, SVG Export Plug-In . SVG Version: 6.00 Build 0)  -->
<svg version="1.1" id="Layer_1" xmlns="http://www.w3.org/2000/svg" xmlns:xlink="http://www.w3.org/1999/xlink" x="0px" y="0px"
	 viewBox="0 0 152.3 155.8" style="enable-background:new 0 0 152.3 155.8;" xml:space="preserve">
<style type="text/css">
	.st0{fill:#FFFFFF;}
	.st1{fill:#E7A166;}
	.st2{fill:#C58B59;}
	.st3{fill:#33A9E3;}
	.st4{fill:#E0007A;}
	.st5{fill:#7E4631;}
	.st6{fill:#452919;}
	.st7{fill:#706E6E;}
	.st8{fill:#4FBFD7;}
</style>
<path id="Rectángulo_260" class="st0" d="M30,0h92.2c16.6,0,30,14.4,30,32.3v91.3c0,17.8-13.4,32.3-30,32.3H30
	c-16.6,0-30-14.4-30-32.3V32.3C0,14.4,13.4,0,30,0z"/>
<g id="Group_30" transform="translate(0 0)">
	<g id="Group_21" transform="translate(0 0)">
		<g id="Group_30-2">
			<g id="Group_31">
				<path id="Path_134" class="st1" d="M81.6,74.2v-6.5H69.3v6.5c0,0.5-0.5,1-1,0.9l0,0h-8.5v22.4h31.4V75.1h-8.5
					C82.1,75.1,81.6,74.7,81.6,74.2L81.6,74.2L81.6,74.2"/>
				<path id="Path_135" class="st2" d="M91.2,75.1h-8.5c-0.5,0-1-0.4-1-0.9v-6.5h-6.5v29.8h16V75.1z"/>
				<path id="Path_136" class="st1" d="M54.9,49.4c2.6,0.1,4.6,2.3,4.4,4.9c-0.1,2.6-2.3,4.6-4.9,4.4s-4.6-2.3-4.4-4.9
					c0.1-2.4,2-4.3,4.4-4.4C54.5,49.4,54.7,49.4,54.9,49.4"/>
				<path id="Path_137" class="st1" d="M95,49.4c2.6,0.1,4.6,2.3,4.4,4.9c-0.1,2.6-2.3,4.6-4.9,4.4C92,58.6,90,56.6,90,54.1
					C90.1,51.4,92.3,49.3,95,49.4"/>
				<path id="Path_138" class="st1" d="M75.5,73.6h-1.1C64.4,73.9,56,66,55.7,56V39.8c0.3-10,8.6-17.9,18.7-17.6h1.1
					c10-0.3,18.4,7.6,18.7,17.6v16.1C93.8,65.9,85.5,73.8,75.5,73.6"/>
				<path id="Path_139" class="st2" d="M75.5,22.1h-0.3v51.4h0.3c10,0.3,18.4-7.6,18.7-17.6V39.8C93.8,29.8,85.5,21.9,75.5,22.1"/>
				<path id="Path_140" class="st3" d="M92.5,75.1h-6.6c0,5.5,0.1,10.7-10.7,10.7S65,80.6,65,75.1h-6.6C50.7,74.9,44.2,81,44,88.7
					v38.5c20.2,8,42.7,8,62.9,0V88.7C106.6,81,100.2,74.9,92.5,75.1"/>
				<path id="Path_141" class="st4" d="M92.5,75.1h-6.6c0,5.5,0.1,10.7-10.7,10.7v47.4h0.2c10.8,0,21.4-2,31.4-6V88.7
					C106.6,81,100.2,74.9,92.5,75.1"/>
				<path id="Path_142" class="st5" d="M93.5,25.7c-4.2-5.6-10.8-8.8-17.8-8.8h-1.3C62.8,16.6,53,25.8,52.7,37.5v1.6l-0.3,6.1h3.2
					l0.3-0.1c9.5-0.6,18.8-2.9,27.6-6.7c3,3.3,6.5,6.2,10.3,8.5h0.6h3.7l-0.6-4.2v-5.2C97.5,33.3,96.1,29.1,93.5,25.7"/>
				<path id="Path_143" class="st6" d="M93.5,25.7c-4.2-5.6-10.8-8.8-17.8-8.8h-0.2v24.5c2.7-0.8,5.3-1.8,7.9-3
					c3,3.3,6.5,6.2,10.3,8.5h0.6H98l-0.6-4.2v-5.2C97.5,33.3,96.1,29.1,93.5,25.7"/>
				<path id="Path_164" class="st6" d="M78.1,30.4c0,0,5.8-13.4,22.3-13.4s10,25.8,6.9,32.3c0,0,2.1-21.9-6.5-21.5s-16.9,8-16.9,8
					L78.1,30.4z"/>
				<path id="Path_165" class="st4" d="M94.5,29.5l-7-7.7c-0.7-0.7-0.6-1.8,0.1-2.5l0.2-0.2c0.7-0.7,1.8-0.6,2.5,0.1l7,7.7
					c0.7,0.7,0.6,1.8-0.1,2.5L97,29.6C96.3,30.3,95.2,30.2,94.5,29.5"/>
			</g>
		</g>
	</g>
</g>
<g id="Grupo_1288">
	<path id="Rectángulo_124-4" class="st7" d="M120.9,17.3h12.8c4.6,0,8.4,3.7,8.4,8.4l0,0c0,4.6-3.7,8.4-8.4,8.4h-12.8
		c-4.6,0-8.3-3.7-8.3-8.4l0,0C112.6,21.1,116.3,17.3,120.9,17.3z"/>
	<circle id="Elipse_54-12" class="st0" cx="120.9" cy="25.7" r="4.5"/>
</g>
<path class="st8" d="M52.4,138h3.1v14h-3.1v-5.5h-5.6v5.5h-3.1v-14h3.1v5.8h5.6V138z"/>
<path class="st8" d="M59,138h3.1v14H59V138z"/>
<path class="st8" d="M66.1,140.7V138h7.3v9.1c0.1,1.4-0.4,2.7-1.3,3.7c-0.9,0.8-2.1,1.3-3.3,1.2c-1.7,0-3.3-0.7-4.4-1.9l1.6-2.2
	c0.6,0.8,1.6,1.3,2.6,1.4c0.4,0,0.8-0.2,1.1-0.5c0.4-0.4,0.5-1,0.5-1.5v-6.6H66.1z"/>
<path class="st8" d="M88.4,150c-2.9,2.8-7.5,2.8-10.4,0c-2.8-2.9-2.8-7.4,0-10.3c2.9-2.8,7.5-2.8,10.4,0
	C91.2,142.6,91.2,147.2,88.4,150z M87.4,144.9c0-1.2-0.4-2.3-1.2-3.2c-1.5-1.6-4-1.7-5.7-0.2c-0.1,0.1-0.2,0.2-0.2,0.2
	c-1.6,1.8-1.6,4.5,0,6.4c1.5,1.6,4,1.7,5.7,0.2c0.1-0.1,0.2-0.2,0.2-0.2C87,147.2,87.4,146.1,87.4,144.9L87.4,144.9z"/>
<path class="st8" d="M98.2,140.6V138h8.6v2.2l-2.9,3.3c1,0.1,1.9,0.6,2.6,1.4c0.6,0.7,0.9,1.7,0.9,2.6c0.1,1.3-0.5,2.6-1.5,3.4
	c-1.1,0.9-2.4,1.3-3.8,1.2c-1.7-0.1-3.3-0.6-4.7-1.6l1.3-2.5c1,0.8,2.2,1.3,3.5,1.4c0.6,0,1.1-0.1,1.6-0.5c0.4-0.3,0.6-0.8,0.6-1.3
	s-0.2-1.1-0.7-1.4c-0.6-0.4-1.3-0.5-1.9-0.5s-1.3,0.2-1.9,0.4v-2.3l2.7-3.2L98.2,140.6z"/>
</svg>
