<?xml version="1.0" encoding="utf-8"?>
<!-- Generator: Adobe Illustrator 26.0.1, SVG Export Plug-In . SVG Version: 6.00 Build 0)  -->
<svg version="1.1" id="Layer_1" xmlns="http://www.w3.org/2000/svg" xmlns:xlink="http://www.w3.org/1999/xlink" x="0px" y="0px"
	 viewBox="0 0 118.5 152.2" style="enable-background:new 0 0 118.5 152.2;" xml:space="preserve">
<style type="text/css">
	.st0{fill:#6F6E6E;}
	.st1{fill:#FFFFFF;}
	.st2{fill:#FFCEA2;}
	.st3{fill:#E6AE82;}
	.st4{fill:#F9C388;}
	.st5{fill:#33A9E3;}
	.st6{fill:#E0007A;}
	.st7{fill:#7E4631;}
	.st8{fill:#452919;}
</style>
<g id="Componente_42_13">
	<path id="Rectángulo_124" class="st0" d="M80.4,0h22.9c8.4,0,15.2,6.8,15.2,15.2v0c0,8.4-6.8,15.2-15.2,15.2H80.4
		c-8.4,0-15.2-6.8-15.2-15.2v0C65.1,6.8,71.9,0,80.4,0z"/>
	<circle id="Elipse_54-9" class="st1" cx="80.3" cy="15.2" r="7.6"/>
</g>
<g id="Group_30" transform="translate(0 0)">
	<g id="Group_21" transform="translate(0 0)">
		<g id="Group_30-2">
			<g id="Group_31">
				<path id="Path_134" class="st2" d="M44.6,89.3v-6.9H31.4v6.9c0,0.6-0.5,1-1.1,1c0,0,0,0,0,0h-9.1v23.8h33.4V90.3h-9.1
					C45.1,90.3,44.6,89.8,44.6,89.3C44.6,89.3,44.6,89.3,44.6,89.3L44.6,89.3"/>
				<path id="Path_135" class="st3" d="M54.8,90.3h-9.1c-0.6,0-1-0.4-1.1-1v-6.9h-6.9v31.7h17V90.3z"/>
				<path id="Path_136" class="st2" d="M16.1,62.9c2.7,0.1,4.9,2.5,4.7,5.2c-0.1,2.7-2.5,4.9-5.2,4.7c-2.7-0.1-4.9-2.5-4.7-5.2
					c0.1-2.5,2.2-4.6,4.7-4.7C15.8,62.9,15.9,62.9,16.1,62.9"/>
				<path id="Path_137" class="st3" d="M58.8,62.9c2.7,0.1,4.9,2.5,4.7,5.2c-0.1,2.7-2.5,4.9-5.2,4.7c-2.6-0.1-4.7-2.3-4.7-5
					C53.6,65.1,55.9,62.9,58.8,62.9"/>
				<path id="Path_138" class="st2" d="M38,88.6h-1.2C26.2,88.9,17.3,80.5,17,69.9V52.7c0.3-10.7,9.2-19.1,19.9-18.8H38
					c10.7-0.3,19.5,8.1,19.9,18.8v17.1C57.6,80.5,48.7,88.9,38,88.6"/>
				<path id="Path_139" class="st4" d="M38,34h-0.3v54.7H38c10.7,0.3,19.5-8.1,19.9-18.8V52.7C57.6,42.1,48.7,33.7,38,34"/>
				<path id="Path_140" class="st5" d="M56.1,90.3h-7c0,5.8,0.2,11.4-11.3,11.4s-11-5.5-11-11.4h-7c-8.2-0.2-15,6.2-15.3,14.4v41
					c21.5,8.5,45.4,8.5,66.8,0v-41C71.2,96.5,64.3,90,56.1,90.3"/>
				<path id="Path_141" class="st6" d="M56.1,90.3h-7c0,5.8,0.1,11.4-11.3,11.4V152H38c11.4,0,22.8-2.1,33.4-6.3v-41
					C71.2,96.5,64.3,90,56.1,90.3"/>
				<path id="Path_142" class="st7" d="M57.2,37.8c-4.5-5.9-11.5-9.4-18.9-9.3h-1.4c-12.4-0.3-22.8,9.4-23.1,21.9V52l-0.3,6.5h3.4
					l0.3-0.1c10.1-0.7,20-3.1,29.3-7.1c3.2,3.5,6.9,6.6,11,9.1l0.7,0h4l-0.7-4.5v-5.6C61.4,45.8,60,41.4,57.2,37.8"/>
				<path id="Path_143" class="st8" d="M57.2,37.8c-4.5-5.9-11.5-9.4-18.9-9.3h-0.2v26c2.9-0.9,5.7-1.9,8.4-3.2
					c3.2,3.5,6.9,6.6,11,9.1l0.7,0h4l-0.7-4.5v-5.6C61.4,45.8,60,41.4,57.2,37.8"/>
				<path id="Path_164" class="st8" d="M40.8,42.7c0,0,6.1-14.3,23.7-14.3s10.6,27.4,7.4,34.3c0,0,2.3-23.3-6.9-22.9s-18,8.5-18,8.5
					L40.8,42.7z"/>
				<path id="Path_165" class="st6" d="M58.3,41.8l-7.5-8.2c-0.7-0.8-0.7-2,0.1-2.7l0.3-0.2c0.8-0.7,2-0.7,2.7,0.1l7.5,8.2
					c0.7,0.8,0.7,2-0.1,2.7L61,41.9C60.2,42.6,59,42.6,58.3,41.8"/>
			</g>
		</g>
	</g>
</g>
</svg>
