<?xml version="1.0" encoding="utf-8"?>
<!-- Generator: Adobe Illustrator 26.0.1, SVG Export Plug-In . SVG Version: 6.00 Build 0)  -->
<svg version="1.1" id="Layer_1" xmlns="http://www.w3.org/2000/svg" xmlns:xlink="http://www.w3.org/1999/xlink" x="0px" y="0px"
	 viewBox="0 0 152.3 155.8" style="enable-background:new 0 0 152.3 155.8;" xml:space="preserve">
<style type="text/css">
	.st0{fill:#FFFFFF;}
	.st1{fill:#D80361;}
	.st2{fill:#4FBFD7;}
	.st3{fill:#E7A166;}
	.st4{fill:#C58B59;}
	.st5{fill:#33A9E3;}
	.st6{fill:#E0007A;}
	.st7{fill:#7E4631;}
	.st8{fill:#452919;}
</style>
<path id="Rectángulo_260" class="st0" d="M30,0h92.2c16.6,0,30,14.4,30,32.3v91.3c0,17.8-13.4,32.3-30,32.3H30
	c-16.6,0-30-14.4-30-32.3V32.3C0,14.4,13.4,0,30,0z"/>
<g id="Grupo_1288">
	<path id="Rectángulo_124-4" class="st1" d="M120.9,17.3h12.8c4.6,0,8.4,3.7,8.4,8.4l0,0c0,4.6-3.7,8.4-8.4,8.4h-12.8
		c-4.6,0-8.3-3.7-8.3-8.4l0,0C112.6,21.1,116.3,17.3,120.9,17.3z"/>
	<circle id="Elipse_54-12" class="st0" cx="133.8" cy="25.7" r="4.5"/>
</g>
<path class="st2" d="M52.2,138h3.1v14h-3.1v-5.5h-5.5v5.5h-3.1v-14h3.1v5.8h5.5V138z"/>
<path class="st2" d="M58.8,138H62v14h-3.1v-14H58.8z"/>
<path class="st2" d="M65.9,140.7V138h7.3v9.1c0.1,1.4-0.4,2.7-1.3,3.7c-0.9,0.8-2.1,1.3-3.3,1.2c-1.7,0-3.3-0.7-4.4-1.9l1.6-2.2
	c0.6,0.8,1.6,1.3,2.6,1.4c0.4,0,0.8-0.2,1.1-0.5c0.3-0.4,0.5-1,0.5-1.5v-6.6H65.9z"/>
<path class="st2" d="M88.2,150c-2.9,2.8-7.5,2.8-10.4,0c-2.8-2.9-2.8-7.4,0-10.3c2.9-2.8,7.5-2.8,10.4,0
	C91.1,142.6,91.1,147.2,88.2,150z M87.2,144.9c0-1.2-0.4-2.3-1.2-3.2c-1.5-1.6-4-1.7-5.7-0.2c-0.1,0.1-0.2,0.2-0.2,0.2
	c-1.6,1.8-1.6,4.5,0,6.4c1.5,1.6,4,1.7,5.7,0.2c0.1-0.1,0.2-0.2,0.2-0.2C86.8,147.2,87.3,146.1,87.2,144.9z"/>
<path class="st2" d="M103.6,143.4c0.3-0.4,0.5-0.9,0.5-1.4c0-0.9-0.7-1.6-1.5-1.6h-0.1c-0.9,0-1.7,0.6-2.5,1.9l-2.5-1.5
	c0.6-0.9,1.3-1.7,2.2-2.3c0.9-0.6,1.9-0.8,3-0.8c1.2,0,2.3,0.4,3.2,1.1c0.9,0.8,1.4,1.9,1.4,3.1c0,0.7-0.2,1.4-0.6,2.1
	c-0.6,0.9-1.2,1.8-2,2.5l-2.6,2.7h5.5v2.8h-9.9v-2.3l4.1-4.2C102.5,144.9,103.1,144.2,103.6,143.4z"/>
<g id="Group_30" transform="translate(0 0)">
	<g id="Group_21" transform="translate(0 0)">
		<g id="Group_30-2">
			<g id="Group_31">
				<path id="Path_134" class="st3" d="M79.9,77.9v-6.1H68.3v6.1c0,0.5-0.4,0.9-0.9,0.9l0,0h-8v21h29.4v-21h-8
					C80.4,78.8,79.9,78.4,79.9,77.9L79.9,77.9L79.9,77.9"/>
				<path id="Path_135" class="st4" d="M88.9,78.8h-8c-0.5,0-0.9-0.4-0.9-0.9v-6.1h-6v27.9h15L88.9,78.8L88.9,78.8z"/>
				<path id="Path_136" class="st3" d="M54.9,54.7c2.4,0.1,4.3,2.2,4.1,4.6c-0.1,2.4-2.2,4.3-4.6,4.1c-2.4-0.1-4.3-2.2-4.1-4.6
					c0.1-2.2,1.9-4,4.1-4.1C54.6,54.7,54.7,54.7,54.9,54.7"/>
				<path id="Path_137" class="st3" d="M92.4,54.7c2.4,0.1,4.3,2.2,4.1,4.6c-0.1,2.4-2.2,4.3-4.6,4.1c-2.3-0.1-4.1-2-4.1-4.4
					C87.9,56.6,89.9,54.7,92.4,54.7"/>
				<path id="Path_138" class="st3" d="M74.2,77.3h-1c-9.4,0.3-17.2-7.1-17.5-16.5V45.7c0.3-9.4,8.1-16.8,17.5-16.5h1
					c9.4-0.3,17.2,7.1,17.5,16.5v15.1C91.4,70.2,83.5,77.6,74.2,77.3"/>
				<path id="Path_139" class="st4" d="M74.2,29.2h-0.3v48.1h0.3c9.4,0.3,17.2-7.1,17.5-16.5V45.7C91.4,36.3,83.5,28.9,74.2,29.2"/>
				<path id="Path_140" class="st5" d="M90.1,78.8h-6.2c0,5.1,0.1,10-10,10s-9.6-4.9-9.6-10h-6.2c-7.2-0.2-13.2,5.5-13.4,12.7v36.1
					c18.9,7.4,39.9,7.4,58.8,0V91.5C103.3,84.3,97.3,78.6,90.1,78.8"/>
				<path id="Path_141" class="st6" d="M90.1,78.8h-6.2c0,5.1,0.1,10-10,10v44.4h0.2c10.1,0,20.1-1.9,29.4-5.6V91.5
					C103.3,84.3,97.3,78.6,90.1,78.8"/>
				<path id="Path_142" class="st7" d="M91.1,32.6c-4-5.2-10.1-8.3-16.7-8.2h-1.2c-11-0.4-20.1,8.3-20.4,19.2v1.5l-0.3,5.7h3
					l0.3-0.1c8.9-0.6,17.6-2.7,25.8-6.3c2.8,3.1,6.1,5.8,9.7,8h0.6h3.5l-0.6-4v-4.9C94.8,39.6,93.5,35.7,91.1,32.6"/>
				<path id="Path_143" class="st8" d="M91.1,32.6c-3.9-5.2-10.1-8.3-16.7-8.2h-0.1v22.9c2.5-0.8,5-1.7,7.4-2.8
					c2.8,3.1,6.1,5.8,9.6,8h0.6h3.5l-0.6-4v-4.9C94.8,39.6,93.5,35.7,91.1,32.6"/>
				<path id="Path_164" class="st8" d="M76.6,36.9c0,0,5.4-12.6,20.9-12.6s9.4,24.1,6.5,30.2c0,0,2-20.5-6.1-20.2
					C89.7,34.8,82,41.9,82,41.9L76.6,36.9z"/>
				<path id="Path_165" class="st6" d="M92,36.1l-6.6-7.2c-0.6-0.7-0.6-1.7,0.1-2.4l0.2-0.2c0.7-0.6,1.7-0.6,2.4,0.1l6.6,7.2
					c0.6,0.7,0.6,1.7-0.1,2.4l-0.2,0.2C93.7,36.8,92.6,36.8,92,36.1"/>
			</g>
		</g>
	</g>
</g>
</svg>
