<?xml version="1.0" encoding="utf-8"?>
<!-- Generator: Adobe Illustrator 26.0.1, SVG Export Plug-In . SVG Version: 6.00 Build 0)  -->
<svg version="1.1" id="Layer_1" xmlns="http://www.w3.org/2000/svg" xmlns:xlink="http://www.w3.org/1999/xlink" x="0px" y="0px"
	 viewBox="0 0 152.3 155.8" style="enable-background:new 0 0 152.3 155.8;" xml:space="preserve">
<style type="text/css">
	.st0{fill:#FFFFFF;}
	.st1{fill:#E7A166;}
	.st2{fill:#C58B59;}
	.st3{fill:#33A9E3;}
	.st4{fill:#E0007A;}
	.st5{fill:#7E4631;}
	.st6{fill:#452919;}
	.st7{fill:#706E6E;}
	.st8{fill:#4FBFD7;}
</style>
<path id="Rectángulo_260" class="st0" d="M30,0h92.2c16.6,0,30,14.4,30,32.3v91.3c0,17.8-13.4,32.3-30,32.3H30
	c-16.6,0-30-14.4-30-32.3V32.3C0,14.4,13.4,0,30,0z"/>
<g id="Group_30" transform="translate(0 0)">
	<g id="Group_21" transform="translate(0 0)">
		<g id="Group_30-2">
			<g id="Group_31">
				<path id="Path_134" class="st1" d="M81.5,74.2v-6.5H69.1v6.5c0,0.5-0.5,1-1,0.9l0,0h-8.5v22.4H91V75.1h-8.5
					C81.9,75.1,81.5,74.7,81.5,74.2L81.5,74.2L81.5,74.2"/>
				<path id="Path_135" class="st2" d="M91.1,75.1h-8.5c-0.5,0-1-0.4-1-0.9v-6.5h-6.5v29.8h16V75.1z"/>
				<path id="Path_136" class="st1" d="M54.7,49.4c2.6,0.1,4.6,2.3,4.4,4.9c-0.1,2.6-2.3,4.6-4.9,4.4s-4.6-2.3-4.4-4.9
					c0.1-2.4,2-4.3,4.4-4.4C54.4,49.4,54.5,49.4,54.7,49.4"/>
				<path id="Path_137" class="st1" d="M94.8,49.4c2.6,0.1,4.6,2.3,4.4,4.9c-0.1,2.6-2.3,4.6-4.9,4.4c-2.5-0.1-4.4-2.2-4.4-4.7
					C89.9,51.4,92.1,49.3,94.8,49.4"/>
				<path id="Path_138" class="st1" d="M75.3,73.6h-1.1C64.2,73.9,55.8,66,55.5,56V39.8c0.3-10,8.6-17.9,18.7-17.6h1.1
					c10-0.3,18.4,7.6,18.7,17.6v16.1C93.7,65.9,85.3,73.8,75.3,73.6"/>
				<path id="Path_139" class="st2" d="M75.3,22.1H75v51.4h0.3c10,0.3,18.4-7.6,18.7-17.6V39.8C93.7,29.8,85.3,21.9,75.3,22.1"/>
				<path id="Path_140" class="st3" d="M92.3,75.1h-6.6c0,5.5,0.1,10.7-10.7,10.7s-10.3-5.2-10.3-10.7h-6.6
					C50.4,74.9,44,81,43.7,88.7v38.5c20.2,8,42.7,8,62.9,0V88.7C106.5,81,100,74.9,92.3,75.1"/>
				<path id="Path_141" class="st4" d="M92.3,75.1h-6.6c0,5.5,0.1,10.7-10.7,10.7v47.4h0.2c10.8,0,21.4-2,31.4-6V88.7
					C106.5,81,100,74.9,92.3,75.1"/>
				<path id="Path_142" class="st5" d="M93.4,25.7c-4.2-5.6-10.8-8.8-17.8-8.8h-1.3c-11.7-0.3-21.4,8.9-21.8,20.6v1.6l-0.3,6.1h3.2
					l0.3-0.1c9.5-0.6,18.8-2.9,27.6-6.7c3,3.3,6.5,6.2,10.3,8.5h0.6H98l-0.6-4.2v-5.2C97.3,33.3,95.9,29.1,93.4,25.7"/>
				<path id="Path_143" class="st6" d="M93.4,25.7c-4.2-5.6-10.8-8.8-17.8-8.8h-0.2v24.5c2.7-0.8,5.3-1.8,7.9-3
					c3,3.3,6.5,6.2,10.3,8.5h0.6H98l-0.6-4.2v-5.2C97.3,33.3,95.9,29.1,93.4,25.7"/>
				<path id="Path_164" class="st6" d="M77.9,30.4c0,0,5.8-13.4,22.3-13.4s10,25.8,6.9,32.3c0,0,2.1-21.9-6.5-21.5s-16.9,8-16.9,8
					L77.9,30.4z"/>
				<path id="Path_165" class="st4" d="M94.4,29.5l-7-7.7c-0.7-0.7-0.6-1.8,0.1-2.5l0.2-0.2c0.7-0.7,1.8-0.6,2.5,0.1l7,7.7
					c0.7,0.7,0.6,1.8-0.1,2.5l-0.2,0.2C96.1,30.3,95,30.2,94.4,29.5"/>
			</g>
		</g>
	</g>
</g>
<g id="Grupo_1288">
	<path id="Rectángulo_124-4" class="st7" d="M120.9,17.3h12.8c4.6,0,8.4,3.7,8.4,8.4l0,0c0,4.6-3.7,8.4-8.4,8.4h-12.8
		c-4.6,0-8.3-3.7-8.3-8.4l0,0C112.6,21.1,116.3,17.3,120.9,17.3z"/>
	<circle id="Elipse_54-12" class="st0" cx="120.9" cy="25.7" r="4.5"/>
</g>
<path class="st8" d="M54.3,138h3.1v14h-3.1v-5.5h-5.6v5.5h-3.1v-14h3.1v5.8h5.6V138z"/>
<path class="st8" d="M60.9,138H64v14h-3.1V138z"/>
<path class="st8" d="M67.9,140.7V138h7.3v9.1c0.1,1.4-0.4,2.7-1.3,3.7c-0.9,0.8-2.1,1.3-3.3,1.2c-1.7,0-3.3-0.7-4.4-1.9l1.6-2.2
	c0.6,0.8,1.6,1.3,2.6,1.4c0.4,0,0.8-0.2,1.1-0.5c0.3-0.4,0.5-1,0.5-1.5v-6.6H67.9z"/>
<path class="st8" d="M90.3,150c-2.9,2.8-7.5,2.8-10.4,0c-2.8-2.9-2.8-7.4,0-10.3c2.9-2.8,7.5-2.8,10.4,0
	C93.1,142.6,93.1,147.2,90.3,150z M89.2,144.9c0-1.2-0.4-2.3-1.2-3.2c-1.5-1.6-4-1.7-5.7-0.2c-0.1,0.1-0.2,0.2-0.2,0.2
	c-1.6,1.8-1.6,4.5,0,6.4c1.5,1.6,4,1.7,5.7,0.2c0.1-0.1,0.2-0.2,0.2-0.2C88.8,147.2,89.3,146.1,89.2,144.9z"/>
<path class="st8" d="M99.2,138h5.7v14h-3v-11.3h-2.7V138z"/>
</svg>
