<svg id="Layer_1" data-name="Layer 1" xmlns="http://www.w3.org/2000/svg" viewBox="0 0 28 20.13"><defs><style>.cls-1{fill:#fff;}</style></defs><g id="Grupo_1148-2" data-name="Grupo 1148-2"><path id="Trazado_833" data-name="Trazado 833" class="cls-1" d="M4.07,25.06A3.07,3.07,0,0,1,1,22V8A3.07,3.07,0,0,1,4.07,4.94H25.93A3.07,3.07,0,0,1,29,8V22a3.07,3.07,0,0,1-3.07,3.07ZM23.8,22l-4.91-4.89-.62.62a4.64,4.64,0,0,1-6.54,0l-.62-.61L6.2,22ZM26,19.9V10.11L21,15ZM4,19.9,9,15,4,10.11Zm9.83-4.29a1.58,1.58,0,0,0,2.25,0h0L23.8,8H6.19Z" transform="translate(-1 -4.94)"/></g></svg>