<svg id="Layer_1" data-name="Layer 1" xmlns="http://www.w3.org/2000/svg" viewBox="0 0 28 28.01"><defs><style>.cls-1{fill:#fff;}</style></defs><path id="path-3" class="cls-1" d="M15,15a7,7,0,1,1,7-7h0A7,7,0,0,1,15,15Zm0-2.55A4.46,4.46,0,1,0,10.55,8h0A4.45,4.45,0,0,0,15,12.45Zm13.25,9a8.15,8.15,0,0,1,.52,2.11c.09.65.16,1.3.22,2v.28A3.18,3.18,0,0,1,25.83,29H4.18A3.18,3.18,0,0,1,1,25.82v-.28c.06-.66.13-1.31.22-2a8.17,8.17,0,0,1,.53-2.11c1-2.12,8.17-5.2,13.24-5.2S27.27,19.35,28.25,21.47Zm-2.44,1a8,8,0,0,0-.75-.55,17.69,17.69,0,0,0-2.67-1.37A19.65,19.65,0,0,0,15,18.82a19.65,19.65,0,0,0-7.39,1.7,17.69,17.69,0,0,0-2.67,1.37,6.76,6.76,0,0,0-.74.55,1.14,1.14,0,0,0-.16.15A7.82,7.82,0,0,0,3.76,24c-.07.43-.12.89-.16,1.35,0,.24,0,.43-.05.56a.63.63,0,0,0,.63.6H25.83a.64.64,0,0,0,.63-.6c0-.13,0-.32-.05-.56,0-.45-.1-.9-.16-1.35A7.84,7.84,0,0,0,26,22.59l-.15-.15Z" transform="translate(-1 -1)"/></svg>