<svg id="Layer_1" data-name="Layer 1" xmlns="http://www.w3.org/2000/svg" viewBox="0 0 28 26.24"><defs><style>.cls-1{fill:#f7f7fa;}</style></defs><path id="star-fill" class="cls-1" d="M7.32,28a.94.94,0,0,1-1.24-.44A1,1,0,0,1,6,27l1.46-8.27L1.3,12.84a1,1,0,0,1,0-1.37,1,1,0,0,1,.53-.29L10.36,10l3.83-7.57A.91.91,0,0,1,15.39,2a1,1,0,0,1,.42.42L19.63,10l8.57,1.22A1,1,0,0,1,29,12.31a.89.89,0,0,1-.28.53l-6.16,5.88L24,27a.94.94,0,0,1-.71,1.11,1,1,0,0,1-.6-.07l-7.68-4L7.32,28Z" transform="translate(-1 -1.88)"/></svg>