<svg id="Layer_1" data-name="Layer 1" xmlns="http://www.w3.org/2000/svg" viewBox="0 0 27.99 28"><defs><style>.cls-1{fill:#dd0063;}</style></defs><path id="path-3" class="cls-1" d="M14,14a7,7,0,1,1,7-7h0A7,7,0,0,1,14,14Zm0-2.55A4.46,4.46,0,1,0,9.55,7V7h0A4.45,4.45,0,0,0,14,11.45Zm13.25,9a8.15,8.15,0,0,1,.52,2.11c.09.65.16,1.3.22,2v.28A3.18,3.18,0,0,1,24.83,28H3.18A3.18,3.18,0,0,1,0,24.82H0v-.28c.06-.66.13-1.31.22-2a8.17,8.17,0,0,1,.53-2.11c1-2.12,8.17-5.2,13.24-5.2s12.28,3.12,13.26,5.24Zm-2.44,1a8,8,0,0,0-.75-.55,17.69,17.69,0,0,0-2.67-1.37A19.66,19.66,0,0,0,14,17.82a19.65,19.65,0,0,0-7.39,1.7,17.69,17.69,0,0,0-2.67,1.37,6.76,6.76,0,0,0-.74.55.75.75,0,0,0-.16.15A7.49,7.49,0,0,0,2.76,23c-.07.43-.12.89-.16,1.35a1.75,1.75,0,0,1-.05.56.63.63,0,0,0,.63.6H24.83a.64.64,0,0,0,.63-.6,2.58,2.58,0,0,0-.05-.56A10.35,10.35,0,0,0,25.25,23,7.44,7.44,0,0,0,25,21.59l-.15-.15Z" transform="translate(0)"/></svg>