<svg id="Layer_1" data-name="Layer 1" xmlns="http://www.w3.org/2000/svg" viewBox="0 0 28 19.1"><defs><style>.cls-1{fill:#dd0063;}</style></defs><path id="path-4" class="cls-1" d="M25.45,11.55v-4a6.37,6.37,0,0,1-5-5h-13a6.37,6.37,0,0,1-5,5v4a6.37,6.37,0,0,1,5,5h13A6.37,6.37,0,0,1,25.45,11.55Zm0,2.63a3.84,3.84,0,0,0-2.32,2.37h1.69a.64.64,0,0,0,.64-.64h0V14.18Zm-22.9,0v1.69a.63.63,0,0,0,.62.64h1.7A3.83,3.83,0,0,0,2.55,14.18ZM23.13,2.55a3.83,3.83,0,0,0,2.32,2.33V3.19a.63.63,0,0,0-.62-.64h-1.7Zm-18.26,0H3.19a.63.63,0,0,0-.64.62v0h0V4.88A3.83,3.83,0,0,0,4.87,2.55ZM0,3.19A3.19,3.19,0,0,1,3.18,0H24.81A3.19,3.19,0,0,1,28,3.19h0V15.91a3.19,3.19,0,0,1-3.18,3.19H3.19A3.19,3.19,0,0,1,0,15.91H0ZM14,14.64a5.09,5.09,0,1,1,5.09-5.09h0A5.09,5.09,0,0,1,14,14.64Zm0-2.54a2.55,2.55,0,1,0-2.55-2.55h0A2.55,2.55,0,0,0,14,12.1Z"/></svg>