<svg id="Layer_1" data-name="Layer 1" xmlns="http://www.w3.org/2000/svg" viewBox="0 0 24.19 28"><defs><style>.cls-1{fill:#b4b4b4;}</style></defs><path id="path" class="cls-1" d="M27.09,6.18V18.6A5.54,5.54,0,0,1,25,22.72l-7.7,5.57a4.1,4.1,0,0,1-4.62,0L5,22.72A5.54,5.54,0,0,1,2.91,18.6V6.18A4,4,0,0,1,5.59,2.45,21,21,0,0,1,8.2,1.72a32.47,32.47,0,0,1,13.6,0,19.44,19.44,0,0,1,2.61.74A4.06,4.06,0,0,1,27.09,6.18Zm-21.64,0V18.6a3.07,3.07,0,0,0,1,2l7.69,5.57a1.56,1.56,0,0,0,1.64,0l7.69-5.57a3,3,0,0,0,1-2V6.18a1.54,1.54,0,0,0-.94-1.31l-.08,0L23,4.65c-.57-.17-1.14-.32-1.72-.45a30,30,0,0,0-12.51,0c-.58.13-1.15.28-1.72.45l-.56.19-.09,0a1.53,1.53,0,0,0-.92,1.31Zm5.36,7.28,2.28,2.28,6.1-6.1a1.27,1.27,0,1,1,1.8,1.8l-7,7a1.27,1.27,0,0,1-1.8,0h0L9,15.26a1.27,1.27,0,1,1,1.8-1.8Z" transform="translate(-2.91 -1)"/></svg>