<svg id="Layer_1" data-name="Layer 1" xmlns="http://www.w3.org/2000/svg" viewBox="0 0 27.98 26.21"><defs><style>.cls-1{fill:#dd0063;}</style></defs><path id="star-fill" class="cls-1" d="M6.32,26.12a.94.94,0,0,1-1.24-.44A1,1,0,0,1,5,25.12l1.46-8.27L.3,11a1,1,0,0,1,0-1.37A1,1,0,0,1,.83,9.3L9.36,8.12,13.19.55a.91.91,0,0,1,1.2-.43,1,1,0,0,1,.42.42l3.82,7.58L27.2,9.34a1,1,0,0,1,.8,1.09.92.92,0,0,1-.28.53l-6.16,5.88L23,25.12a.94.94,0,0,1-.71,1.11,1,1,0,0,1-.6-.07l-7.68-4Z" transform="translate(-0.03 -0.04)"/></svg>