<svg id="Layer_1" data-name="Layer 1" xmlns="http://www.w3.org/2000/svg" viewBox="0 0 28 28"><defs><style>.cls-1{fill:#dd0063;}</style></defs><path id="path-5" class="cls-1" d="M22.91,2.55h1.9A3.18,3.18,0,0,1,28,5.72h0V24.81A3.18,3.18,0,0,1,24.83,28H3.19A3.19,3.19,0,0,1,0,24.81H0V5.73A3.18,3.18,0,0,1,3.18,2.55H5.09V1.27A1.28,1.28,0,0,1,6.48.11,1.26,1.26,0,0,1,7.64,1.27V2.55h2.55V1.27a1.27,1.27,0,0,1,2.54,0V2.55h2.55V1.27a1.27,1.27,0,0,1,2.54,0V2.55h2.55V1.27A1.28,1.28,0,0,1,21.76.11a1.26,1.26,0,0,1,1.16,1.16V2.55Zm0,2.54V6.37a1.28,1.28,0,0,1-1.39,1.16,1.26,1.26,0,0,1-1.16-1.16V5.09H17.82V6.37a1.28,1.28,0,0,1-1.39,1.16,1.26,1.26,0,0,1-1.16-1.16V5.09H12.72V6.37a1.27,1.27,0,0,1-2.54,0h0V5.09H7.64V6.37A1.28,1.28,0,0,1,6.25,7.53,1.26,1.26,0,0,1,5.09,6.37h0V5.09H3.19a.64.64,0,0,0-.64.64h0V24.81a.63.63,0,0,0,.62.64H24.81a.62.62,0,0,0,.64-.6v0h0V5.73a.64.64,0,0,0-.64-.64ZM6.36,13.36a1.27,1.27,0,0,1,0-2.54H19.73a1.27,1.27,0,0,1,0,2.54Zm0,4.46A1.28,1.28,0,0,1,5.2,16.43a1.26,1.26,0,0,1,1.16-1.16H21.64a1.28,1.28,0,0,1,1.16,1.39,1.26,1.26,0,0,1-1.16,1.16Zm0,4.45a1.27,1.27,0,0,1,0-2.54h8.91a1.27,1.27,0,1,1,0,2.54Z"/></svg>