<svg id="Layer_1" data-name="Layer 1" xmlns="http://www.w3.org/2000/svg" viewBox="0 0 28 28"><defs><style>.cls-1{fill:#fff;}</style></defs><path id="path-5" class="cls-1" d="M23.91,3.55h1.9A3.18,3.18,0,0,1,29,6.73h0V25.81A3.18,3.18,0,0,1,25.82,29H4.19A3.19,3.19,0,0,1,1,25.81H1V6.73A3.18,3.18,0,0,1,4.18,3.55H6.09V2.27a1.28,1.28,0,0,1,2.55,0V3.55h2.55V2.27a1.27,1.27,0,0,1,2.54,0V3.55h2.55V2.27a1.27,1.27,0,0,1,2.54,0V3.55h2.55V2.27a1.28,1.28,0,0,1,2.55,0V3.55Zm0,2.54V7.37a1.28,1.28,0,0,1-2.55,0V6.09H18.82V7.37a1.28,1.28,0,0,1-2.55,0V6.09H13.72V7.37a1.27,1.27,0,0,1-2.54,0h0V6.09H8.64V7.37a1.28,1.28,0,0,1-2.55,0h0V6.09H4.19a.64.64,0,0,0-.64.64h0V25.81a.63.63,0,0,0,.64.64H25.81a.62.62,0,0,0,.64-.63h0V6.73a.64.64,0,0,0-.64-.64h-1.9ZM7.36,14.36a1.27,1.27,0,1,1,0-2.54H20.73a1.27,1.27,0,0,1,0,2.54Zm0,4.46a1.28,1.28,0,0,1,0-2.55H22.64a1.28,1.28,0,0,1,0,2.55Zm0,4.45a1.27,1.27,0,0,1,0-2.54h8.91a1.27,1.27,0,1,1,0,2.54Z" transform="translate(-1 -1)"/></svg>