<svg id="Layer_1" data-name="Layer 1" xmlns="http://www.w3.org/2000/svg" viewBox="0 0 29 29"><defs><style>.cls-1{fill:none;}.cls-2{fill:#78849e;}</style></defs><g id="Grupo_1160" data-name="Grupo 1160"><g id="Grupo_1166" data-name="Grupo 1166"><g id="icon"><rect id="bg" class="cls-1" width="29" height="29"/><path id="path" class="cls-2" d="M10.76,13.26l3.9-3.9a1,1,0,0,0-1.45-1.45h0L7.55,13.57a1,1,0,0,0,0,1.45h0l5.66,5.67a1,1,0,1,0,1.46-1.46l-3.9-3.9H22.18a1,1,0,0,0,0-2.06ZM12.91,5a1,1,0,0,0,0-2.06H3.14A2.57,2.57,0,0,0,.56,5.54h0V23a2.58,2.58,0,0,0,2.57,2.58h9.78a1,1,0,0,0,0-2.06H3.14A.52.52,0,0,1,2.62,23h0V5.55A.51.51,0,0,1,3.13,5h9.78Z" transform="translate(2.4 0)"/></g></g></g></svg>