<svg id="Layer_1" data-name="Layer 1" xmlns="http://www.w3.org/2000/svg" viewBox="0 0 28 19.09"><defs><style>.cls-1{fill:#fff;}</style></defs><path id="path-4" class="cls-1" d="M26.45,17V13a6.37,6.37,0,0,1-5-5h-13a6.37,6.37,0,0,1-5,5V17a6.37,6.37,0,0,1,5,5h13A6.37,6.37,0,0,1,26.45,17Zm0,2.63A3.83,3.83,0,0,0,24.13,22h1.69a.64.64,0,0,0,.64-.64h0V19.67Zm-22.9,0v1.69a.63.63,0,0,0,.63.64H5.87a3.83,3.83,0,0,0-2.32-2.33ZM24.13,8a3.83,3.83,0,0,0,2.32,2.33V8.64A.63.63,0,0,0,25.82,8H24.13ZM5.87,8H4.19a.63.63,0,0,0-.64.64h0v1.69A3.83,3.83,0,0,0,5.87,8ZM1,8.64A3.19,3.19,0,0,1,4.18,5.45H25.81A3.19,3.19,0,0,1,29,8.64h0V21.36a3.19,3.19,0,0,1-3.18,3.19H4.19A3.19,3.19,0,0,1,1,21.36H1ZM15,20.09A5.09,5.09,0,1,1,20.09,15,5.09,5.09,0,0,1,15,20.09Zm0-2.54A2.55,2.55,0,1,0,12.45,15h0A2.55,2.55,0,0,0,15,17.55Z" transform="translate(-1 -5.45)"/></svg>