<svg id="Layer_1" data-name="Layer 1" xmlns="http://www.w3.org/2000/svg" viewBox="0 0 28 20.13"><defs><style>.cls-1{fill:#dd0063;}</style></defs><g id="Grupo_1148-2" data-name="Grupo 1148-2"><path id="Trazado_833" data-name="Trazado 833" class="cls-1" d="M3.07,20.12A3.07,3.07,0,0,1,0,17.06v-14A3.07,3.07,0,0,1,3.07,0H24.93A3.07,3.07,0,0,1,28,3.06v14a3.06,3.06,0,0,1-3.07,3.07ZM22.8,17.06l-4.91-4.89-.62.62a4.64,4.64,0,0,1-6.54,0l-.62-.61L5.2,17.06ZM25,15V5.17l-5,4.89ZM3,15l5-4.9L3,5.17Zm9.83-4.29a1.58,1.58,0,0,0,2.23,0l0,0h0L22.8,3.06H5.19Z"/></g></svg>