<?xml version="1.0" encoding="utf-8"?>
<!-- Generator: Adobe Illustrator 26.0.1, SVG Export Plug-In . SVG Version: 6.00 Build 0)  -->
<svg version="1.1" id="Layer_1" xmlns="http://www.w3.org/2000/svg" xmlns:xlink="http://www.w3.org/1999/xlink" x="0px" y="0px"
	 viewBox="0 0 105 105" style="enable-background:new 0 0 105 105;" xml:space="preserve">
<style type="text/css">
	.st0{fill:#E7A166;}
	.st1{fill:#062C59;}
	.st2{fill:#001A2D;}
	.st3{fill:#83D0DE;}
	.st4{fill:#40BBCD;}
	.st5{fill:#F8F4F5;}
	.st6{fill:#E50019;}
	.st7{clip-path:url(#SVGID_00000059995772277453836600000013035720619424171189_);}
	.st8{fill:#8ABB2A;}
	.st9{fill:#F2F3F4;}
	.st10{fill:#FFC739;}
	.st11{fill:#35AE8A;}
	.st12{fill:#009CD5;}
	.st13{fill:#5F202A;}
	.st14{fill:#A7C84D;}
	.st15{fill:#73303F;}
	.st16{fill:#642C36;}
	.st17{fill:#FFD942;}
	.st18{fill:#FCA263;}
	.st19{fill:#883949;}
	.st20{fill:#009CDC;}
	.st21{fill:#006790;}
	.st22{fill:#5A7F1C;}
	.st23{fill:#E0007A;}
	.st24{fill:#FFFFFF;}
</style>
<g id="Grupo_1598">
	<g id="Grupo_1563">
		<g id="Grupo_1501">
			<g id="Grupo_1500">
				<g id="Grupo_1479">
					<path id="Trazado_1060" class="st0" d="M65.2,49.2v-5.6c0-2.3-1.9-4.2-4.2-4.2H50.7c-0.6,0-1,0.4-1,1l0,0
						c0,0.6,0.1,1.2,0.3,1.8H30.1c-1.6,0-2.9,1.3-2.9,2.8c0,0,0,0,0,0l0,0c0,1.5,1.3,2.8,2.8,2.8h2.8v16.8h28c2.3,0,4.2-1.9,4.2-4.2
						h3c0.7,0,1.2-0.6,1.2-1.2v-8.8c0-0.7-0.6-1.2-1.2-1.2l0,0H65.2z"/>
					<path id="Trazado_1061" class="st1" d="M54.4,28.2H36.6c-2.1,0-3.7,1.7-3.7,3.7l0,0v34.6c0,2.1,1.7,3.7,3.7,3.7h17.8
						c2.1,0,3.7-1.7,3.7-3.7V31.9C58.1,29.9,56.5,28.2,54.4,28.2z"/>
					<path id="Trazado_1062" class="st2" d="M58.1,66.5V31.9c0-2.1-1.7-3.7-3.7-3.7h-8.9v42.1h8.9C56.5,70.3,58.1,68.6,58.1,66.5z"
						/>
					<path id="Trazado_1063" class="st3" d="M54.3,30.7h-1.4v1.4c0,2.1-1.7,3.9-3.8,3.9c0,0,0,0,0,0h-7c-2.1,0-3.9-1.7-3.9-3.9l0,0
						v-1.5h-1.4c-0.8,0-1.4,0.6-1.4,1.4l0,0v34.3c0,0.8,0.6,1.4,1.4,1.4h0h17.5c0.8,0,1.4-0.6,1.4-1.4V32.1
						C55.7,31.3,55,30.7,54.3,30.7z"/>
					<circle id="Elipse_106" class="st0" cx="32.9" cy="61.9" r="2.8"/>
					<path id="Trazado_1064" class="st0" d="M36.4,53.4c1.5,0,2.8-1.3,2.8-2.8s-1.3-2.8-2.8-2.8c0,0,0,0,0,0h-5.6
						c-1.5,0-2.8,1.3-2.8,2.8c0,1.5,1.3,2.8,2.8,2.8h1.4c-1.5,0.1-2.7,1.4-2.6,3c0.1,1.4,1.2,2.6,2.6,2.6h4.2c1.5,0.1,2.9-1.1,3-2.6
						c0.1-1.5-1.1-2.9-2.6-3C36.6,53.4,36.5,53.4,36.4,53.4z"/>
					<path id="Trazado_1065" class="st4" d="M48.2,66.3h-5.3c-0.7,0-1.2-0.5-1.2-1.2c0-0.7,0.5-1.2,1.2-1.2c0,0,0,0,0,0h5.3
						c0.7,0,1.2,0.6,1.2,1.2C49.4,65.7,48.8,66.3,48.2,66.3z"/>
					<path id="Trazado_1066" class="st0" d="M65.8,47.4v-3.8c0-2.3-1.9-4.2-4.2-4.2c0,0,0,0,0,0H51.4c-0.6,0-1,0.4-1,1
						c0,3.3,2.7,6,6.1,6h2.3v18.2h2.8c2.3,0,4.2-1.9,4.2-4.2c0,0,0,0,0,0h3c0.7,0,1.2-0.6,1.2-1.2v0V48.7c0-0.7-0.6-1.2-1.2-1.2l0,0
						H65.8z"/>
					<g id="Grupo_1478">
						<path id="Trazado_1067" class="st0" d="M36.4,53.4h-4.2c-1.5,0.1-2.7,1.4-2.6,3c0.1,1.4,1.2,2.6,2.6,2.6h4.2
							c1.5,0.1,2.9-1.1,3-2.6c0.1-1.5-1.1-2.9-2.6-3C36.6,53.4,36.5,53.4,36.4,53.4z"/>
					</g>
				</g>
				<g id="Grupo_1486">
					<g id="Grupo_1485">
						<g id="Grupo_1482">
							<g id="Grupo_1481">
								<g id="Grupo_1480">
									<path id="Trazado_1068" class="st5" d="M52.6,52.6c0,1.1-0.3,2.1-0.9,3c-1.7,2.5-5,3.1-7.5,1.5L44,57
										c-0.1-0.1-0.1-0.2-0.1-0.3c0,0,0,0,0,0l0,0l7.2-7.2c0.1-0.1,0.2-0.1,0.3,0l0,0l0.1,0.2C52.3,50.5,52.6,51.5,52.6,52.6
										L52.6,52.6z"/>
								</g>
							</g>
						</g>
						<path id="Trazado_1069" class="st5" d="M47.2,47.2c1.2,0,2.3,0.4,3.3,1.1c0.1,0.1,0.1,0.2,0,0.3l0,0l-7.2,7.2
							c-0.1,0.1-0.2,0.1-0.3,0l0,0c0-0.1-0.1-0.1-0.2-0.2l0,0c-1.4-2.1-1.2-4.9,0.6-6.8l0,0c0,0,0.1-0.1,0.1-0.1
							C44.5,47.8,45.8,47.2,47.2,47.2L47.2,47.2z"/>
						<g id="Grupo_1483">
							<path id="Trazado_1070" class="st6" d="M51.7,48.1c-2.5-2.5-6.6-2.5-9.1,0c-2.5,2.5-2.5,6.6,0,9.1c2.5,2.5,6.6,2.5,9.1,0
								c1.2-1.2,1.9-2.8,1.9-4.5C53.6,50.9,52.9,49.3,51.7,48.1z M43.2,55.9c-0.1,0.1-0.2,0.1-0.3,0l0,0l-0.2-0.2l0,0
								c-1.5-2.2-1.1-5.1,0.8-6.9l0,0c1.9-1.8,4.8-2,7-0.4c0.1,0.1,0.1,0.2,0,0.3l0,0l-0.1,0.1l0.8,0.7v0c0.1-0.1,0.2-0.1,0.3,0l0,0
								l0.1,0.2c0.6,0.9,0.9,1.9,0.9,3c0,1.1-0.3,2.1-0.9,3c-1.7,2.5-5,3.1-7.5,1.5L44,57c-0.1-0.1-0.1-0.2-0.1-0.3c0,0,0,0,0,0l0,0
								l0.2-0.2l-0.8-0.7"/>
						</g>
						<g id="HFG3sk">
							<g id="Grupo_1484">
								<path id="Trazado_1071" class="st2" d="M51.4,52.2c-0.1-0.1-0.2-0.1-0.3-0.2c-1.8-2.1-5.1-2.4-7.2-0.5c0,0,0,0,0,0
									c-0.2,0.2-0.4,0.3-0.5,0.5c-0.1,0.2-0.4,0.3-0.6,0.1c-0.1,0-0.1-0.1-0.1-0.1c-0.1-0.2,0-0.4,0.1-0.6
									c2.2-2.5,5.9-2.7,8.4-0.6c0.2,0.2,0.4,0.4,0.6,0.6c0.2,0.1,0.2,0.3,0.2,0.5C51.8,52.2,51.7,52.2,51.4,52.2z"/>
								<path id="Trazado_1072" class="st2" d="M47.2,51.1c1.2,0,2.3,0.5,3.2,1.4c0.1,0.1,0.1,0.2,0.2,0.3c0.1,0.2,0,0.4-0.2,0.5
									c-0.2,0.1-0.4,0-0.5-0.1c-0.3-0.3-0.6-0.6-1-0.8c-1.4-0.8-3.1-0.5-4.2,0.7c-0.1,0.1-0.2,0.2-0.3,0.2c-0.2,0.1-0.4,0-0.5-0.2
									c-0.1-0.2-0.1-0.4,0-0.5c0.6-0.7,1.3-1.1,2.2-1.3C46.5,51.2,46.9,51.2,47.2,51.1z"/>
								<path id="Trazado_1073" class="st2" d="M47.2,52.8c0.7,0,1.4,0.3,1.9,0.8c0.2,0.1,0.3,0.4,0.1,0.6c-0.1,0.2-0.4,0.3-0.6,0.1
									c0,0-0.1,0-0.1-0.1c0,0-0.1-0.1-0.1-0.1c-0.6-0.7-1.7-0.8-2.4-0.2c0,0,0,0,0,0c-0.1,0.1-0.1,0.1-0.2,0.2
									c-0.1,0.2-0.4,0.2-0.6,0.1c0,0,0,0,0,0c-0.2-0.1-0.2-0.4-0.1-0.6l0.1-0.1C45.8,53.1,46.5,52.8,47.2,52.8z"/>
								<path id="Trazado_1074" class="st2" d="M47.2,56.2c-0.5,0-0.9-0.4-0.9-0.8c0-0.5,0.4-0.8,0.8-0.8c0.5,0,0.8,0.4,0.8,0.8l0,0
									C48.1,55.9,47.7,56.2,47.2,56.2z"/>
							</g>
						</g>
						<path id="Trazado_1075" class="st6" d="M50.4,48.7l-7.1,7l0.8,0.7l7-7L50.4,48.7z"/>
					</g>
				</g>
				<g id="Grupo_1492">
					<g>
						<defs>
							<path id="SVGID_1_" d="M38.3,60.4h21.4c1,0,1.9,0.8,1.9,1.8c0,0,0,0,0,0l0,0v12.1c0,1-0.8,1.9-1.9,1.9l0,0H38.3
								c-1,0-1.9-0.8-1.9-1.9l0,0V62.2C36.4,61.2,37.3,60.4,38.3,60.4C38.3,60.4,38.3,60.4,38.3,60.4z"/>
						</defs>
						<clipPath id="SVGID_00000143578045056593871830000010302475681921800120_">
							<use xlink:href="#SVGID_1_"  style="overflow:visible;"/>
						</clipPath>
						<g style="clip-path:url(#SVGID_00000143578045056593871830000010302475681921800120_);">
							<g id="Grupo_1491">
								<g id="Grupo_1490">
									<path id="Trazado_1076" class="st8" d="M44.8,76.4h-7.9c-0.2,0-0.4-0.2-0.4-0.4c0,0,0,0,0,0V60.5c0-0.2,0.2-0.4,0.4-0.4
										h7.9V76.4z"/>
									<rect id="Rectángulo_281" x="44.8" y="60.1" class="st9" width="8.3" height="16.3"/>
									<path id="Trazado_1077" class="st6" d="M61,76.4h-7.9V60.1H61c0.2,0,0.4,0.2,0.4,0.4V76C61.4,76.2,61.3,76.4,61,76.4
										C61,76.4,61,76.5,61,76.4z"/>
									<g id="Grupo_1489">
										<path id="Trazado_1078" class="st10" d="M49.7,68.7L49,69v0.4h0.4L49.7,68.7z"/>
										<g id="Grupo_1487">
											<path id="Trazado_1079" class="st11" d="M49,70.3c-0.1,0-0.2-0.1-0.2-0.2l0,0v-0.7c0-0.1,0.1-0.2,0.2-0.2
												c0.1,0,0.2,0.1,0.2,0.2v0.8C49.2,70.2,49.1,70.3,49,70.3C49,70.3,49,70.3,49,70.3z"/>
											<path id="Trazado_1080" class="st11" d="M49,69.6c-0.7,0-1.5-0.3-2-0.8c-0.1-0.1-0.1-0.2,0-0.3c0,0,0,0,0,0
												c0.1-0.1,0.2-0.1,0.3,0l0,0c1,0.9,2.5,0.9,3.5,0c0.1-0.1,0.2-0.1,0.3,0c0.1,0.1,0.1,0.2,0,0.3c0,0,0,0,0,0l0,0
												C50.4,69.3,49.7,69.6,49,69.6z"/>
										</g>
										<path id="Trazado_1081" class="st12" d="M49,70.3c-0.5,0-0.9-0.1-1.3-0.4l0.2-0.3c0.7,0.5,1.6,0.5,2.2,0l0.2,0.3
											C49.9,70.2,49.5,70.3,49,70.3z"/>
										<path id="Trazado_1082" class="st13" d="M48.7,67.8l-0.4,0.6l-0.1,0.2l1.1-0.2L48.7,67.8z"/>
										<path id="Trazado_1083" class="st14" d="M47.8,68.9c-0.5,0-1.1-0.4-1.2-1.3l0.4-0.1c0.1,0.8,0.6,1,0.9,1
											c0.1,0,0.2,0,0.2-0.1s0-0.1-0.2-0.2c-0.1,0-0.2-0.1-0.3-0.2c-0.3-0.4,0.1-0.8,0.3-1c0,0,0.1-0.1,0-0.1
											c0-0.1-0.1-0.1-0.2-0.1c-0.2,0-0.4-0.1-0.5-0.3c-0.1-0.2,0-0.5,0.2-0.6l0.2,0.3c0,0-0.1,0.1,0,0.1c0,0,0,0.1,0.1,0.1
											c0.2,0,0.4,0.1,0.5,0.3c0.1,0.2,0,0.4-0.2,0.5c-0.2,0.2-0.4,0.4-0.3,0.5c0,0,0.1,0.1,0.2,0.1c0.2,0.1,0.5,0.2,0.4,0.6
											C48.3,68.7,48.1,68.8,47.8,68.9L47.8,68.9z"/>
										<path id="Trazado_1084" class="st15" d="M49.3,66.8c0.2-0.4,0.1-0.9-0.3-1.1c0,0,0,0,0,0l0,0c0,0,2.6-0.4,2.2,3l0,0
											c-0.3-0.2-0.5-0.5-0.7-0.8l-1.1-0.7L49.3,66.8L49.3,66.8z"/>
										<path id="Trazado_1085" class="st13" d="M49,67.6l1.8,1.1L50.1,69L49,67.9V67.6z"/>
										<path id="Trazado_1086" class="st16" d="M48.2,66.4L48.2,66.4c0.2,0,0.4,0.2,0.4,0.4l0,0c-0.2,0.2-0.3,0.6-0.1,0.8
											l0.1,0.2c0,0.1,0.1,0.1,0.1,0.2l1,1v-0.5c0-0.6-0.1-1.3-0.4-1.8l0,0c-0.2-0.4-0.6-0.6-1-0.6h0L48.2,66.4L48.2,66.4z"/>
										<path id="Trazado_1087" class="st10" d="M48.2,66.1l-0.4,0.4v0.4l0.6-0.3c0.1,0,0.1-0.1,0.1-0.2l0,0L48.2,66.1z"/>
										<path id="Trazado_1088" class="st14" d="M49,71.1c-1.7,0-3.2-1.4-3.2-3.2h0.4c0,1.5,1.2,2.8,2.8,2.8
											c1.5,0,2.8-1.2,2.8-2.8h0.4C52.2,69.7,50.7,71.1,49,71.1z"/>
										<g id="Grupo_1488">
											<circle id="Elipse_107" class="st17" cx="46.2" cy="69" r="0.2"/>
											<circle id="Elipse_108" class="st17" cx="46.8" cy="69.9" r="0.2"/>
											<circle id="Elipse_109" class="st17" cx="47.7" cy="70.6" r="0.2"/>
											<circle id="Elipse_110" class="st17" cx="51.8" cy="69" r="0.2"/>
											<circle id="Elipse_111" class="st17" cx="51.2" cy="69.9" r="0.2"/>
											<circle id="Elipse_112" class="st17" cx="50.3" cy="70.6" r="0.2"/>
										</g>
										<path id="Trazado_1089" class="st18" d="M49.2,70.5h-0.4c-0.2,0-0.4-0.2-0.4-0.4l0,0c0-0.2,0.2-0.4,0.4-0.4l0,0h0.4
											c0.2,0,0.4,0.2,0.4,0.4c0,0,0,0,0,0l0,0C49.5,70.4,49.4,70.5,49.2,70.5L49.2,70.5z"/>
										<path id="Trazado_1090" class="st19" d="M50.5,67.8c0.1,0.4,0.4,0.7,0.7,0.8l0,0c0.4-3.3-2.2-3-2.2-3
											C50.8,65.7,50.5,67.8,50.5,67.8z"/>
									</g>
								</g>
							</g>
						</g>
					</g>
				</g>
				<g id="Grupo_1493">
					<path id="Trazado_1092" class="st20" d="M69.2,55.2c-5.9-1.3-11.7,2.3-13.1,8.2s2.3,11.7,8.2,13.1c5.9,1.3,11.7-2.3,13.1-8.2
						C78.8,62.5,75.1,56.6,69.2,55.2z"/>
					<path id="Trazado_1093" class="st21" d="M69.2,55.2c-1.5-0.3-3-0.4-4.5-0.1l0.4,0.1c5.9,1.4,9.5,7.2,8.2,13.1
						c-1,4.2-4.3,7.4-8.5,8.2c5.9,1.3,11.7-2.5,12.9-8.4C78.9,62.3,75.1,56.5,69.2,55.2z"/>
					<path id="Trazado_1094" class="st8" d="M67.5,69.4c-1.3-0.3-2.1-4.4-4.9-3.7c-0.9,0.2-3.3-1.8-3-2.3c0.6-1.4-0.6-1.9,0-2.7
						c0.3-0.5,0.8-0.9,1.4-0.5s0.4,1.5,0.9,1.6s0.9-1.1,1.2-1.8c1.1-2.4,4.2-1.6,5.2-2.6c0.7-0.5,1.1-1.4,1-2.3
						c-5.8-1.3-11.6,2.2-13,8c1,1.6,3.2,3,4,3.5c0.2,0.2,0.3,0.5,0.2,0.7c-0.8,1-0.6,2.4,0.3,3.2c1.8,1.5,1.8,2.1,1,3.7
						c-0.2,0.4-0.3,0.7-0.4,1c0.8,0.5,1.7,0.8,2.5,1.1c0.7-0.9,1.5-1.6,2.5-2.2c1.1-0.5,3.2-0.3,3.7-2.6
						C70.3,70.6,68.8,69.8,67.5,69.4z"/>
					<path id="Trazado_1095" class="st22" d="M65.1,55.2c1.3,0.3,2.6,0.9,3.7,1.6c0.3-0.5,0.5-1.1,0.4-1.6c-1.5-0.3-3-0.4-4.5-0.1
						L65.1,55.2z"/>
					<path id="Trazado_1096" class="st8" d="M77.4,68.3c1.1-4.7-1-9.5-5.2-11.9c-0.7,1.7,1.4,2.4,1.2,3c-0.1,0.3-0.1,0.5,0.1,0.8
						c0.1,0.4,0,0.8-0.3,1.1c-0.7,0.5-1.2,1.2-1.5,2c-0.4,1.2,0,2.5,1,3.3c1.1,0.9,1.9,0.6,2.3,1.2c1,1.4-3.5,5.2-2,7
						C75.3,73.3,76.8,71,77.4,68.3z"/>
					<path id="Trazado_1097" class="st22" d="M77.4,68.3c1.1-4.7-1-9.5-5.2-11.9c-0.7,1.7,1.4,2.4,1.2,3c-0.1,0.3-0.1,0.5,0.1,0.8
						c0.1,0.4,0,0.8-0.3,1.1c-0.2,0.1-0.3,0.3-0.5,0.4c0.7,1.7,0.9,3.4,0.7,5.2c0.7,0.3,1.3,0.3,1.6,0.8c1,1.4-3.5,5.2-2,7
						C75.3,73.2,76.8,70.9,77.4,68.3z"/>
				</g>
				<g id="Trazado_1098-2">
					<path class="st23" d="M56.8,65.6L56.8,65.6c-0.1,0-0.3,0-0.4-0.1l0,0c-0.2-0.1-0.4-0.3-0.5-0.5c-0.1-0.2-0.1-0.5,0-0.7l0.8-1.6
						c-0.5-0.1-1-0.2-1.5-0.2c-1,0-2,0.2-3,0.5c-0.5,0.2-1.1,0.4-1.5,0.8c-0.2,0.3-0.5,0.5-0.8,0.5c-0.1,0-0.3,0-0.4-0.1
						c-0.5-0.2-0.7-0.8-0.4-1.3l0,0c0.3-0.7,0.7-1.3,1.2-1.9c0.5-0.6,1.1-1.1,1.8-1.5c1.3-1,3-1.5,4.6-1.6c0.7,0,1.5,0.1,2.2,0.3
						l0.8-1.8c0.1-0.2,0.2-0.3,0.4-0.5c0.2-0.1,0.3-0.1,0.5-0.1c0.3,0,0.6,0.2,0.8,0.5l3.9,6.7c0.1,0.1,0.1,0.2,0.1,0.3l0,0
						c0,0.3,0,0.5-0.2,0.7c-0.2,0.2-0.4,0.3-0.6,0.4L57,65.6L56.8,65.6z"/>
					<path class="st24" d="M56.8,64.9L56.8,64.9l7.5-1.2c0.2,0,0.3-0.2,0.2-0.3c0,0,0,0,0,0c0,0,0-0.1,0-0.1l-3.9-6.6
						c-0.1-0.1-0.2-0.2-0.4-0.1c0,0,0,0,0,0c0,0-0.1,0.1-0.1,0.1l-1.1,2.3c-4.1-1.7-8.1,1.2-9.5,4l0,0c-0.1,0.1,0,0.3,0.1,0.4
						c0.1,0.1,0.3,0,0.4-0.1l0,0c0.3-0.7,4.5-2.4,7.5-1.2l-1.1,2.3c-0.1,0.1,0,0.3,0.1,0.4C56.7,64.9,56.8,64.9,56.8,64.9
						 M56.8,66.2c-0.2,0-0.5,0-0.7-0.2c-0.8-0.4-1.1-1.3-0.8-2.1l0.4-0.8h-0.5c-0.9,0-1.8,0.2-2.7,0.4c-0.5,0.1-0.9,0.3-1.4,0.6
						c-0.1,0.2-0.3,0.4-0.5,0.5c-0.3,0.2-0.5,0.2-0.8,0.2c-0.2,0-0.5-0.1-0.7-0.2c-0.8-0.4-1.2-1.4-0.8-2.2l0,0
						c0.7-1.5,1.8-2.7,3.2-3.6c1.5-1.1,3.2-1.6,5-1.7c0.6,0,1.2,0.1,1.8,0.2l0.6-1.3c0.1-0.3,0.4-0.5,0.6-0.7l0,0
						c0.3-0.2,0.5-0.2,0.8-0.2c0.6,0,1.1,0.3,1.4,0.8l0,0l3.9,6.6c0.1,0.2,0.2,0.4,0.2,0.6l0,0c0.1,0.4,0,0.9-0.3,1.2
						c-0.3,0.3-0.6,0.6-1.1,0.7L57,66.3C57,66.3,56.9,66.3,56.8,66.2L56.8,66.2z"/>
				</g>
				<g id="Grupo_1499">
					<g id="Grupo_1498">
						<g id="Grupo_1496">
							<g id="Grupo_1495">
								<g id="Grupo_1494">
									<path id="Trazado_1099" class="st5" d="M48.5,43.2c0,1.1-0.3,2.1-0.9,3c-1.7,2.5-5,3.2-7.5,1.5l-0.2-0.2
										c-0.1-0.1-0.1-0.2,0-0.3c0,0,0,0,0,0l0,0l7.2-7.2c0.1-0.1,0.2-0.1,0.3,0l0,0l0.1,0.2C48.2,41,48.6,42.1,48.5,43.2
										L48.5,43.2z"/>
								</g>
							</g>
						</g>
						<path id="Trazado_1100" class="st5" d="M43.1,37.8c1.2,0,2.3,0.4,3.3,1.1c0.1,0.1,0.1,0.2,0,0.3c0,0,0,0,0,0l0,0l-7.2,7.2
							c-0.1,0.1-0.2,0.1-0.3,0l0,0l-0.2-0.2l0,0c-1.4-2.1-1.2-4.9,0.6-6.8l0,0l0.1-0.1C40.4,38.3,41.7,37.8,43.1,37.8L43.1,37.8z"/>
						<g id="_">
							<g>
								<path class="st2" d="M42.6,46.9v-0.8c-1-0.1-1.9-0.5-2.6-1.1l0.8-0.9c0.5,0.5,1.2,0.8,1.8,0.9v-2.1
									c-0.6-0.1-1.2-0.4-1.8-0.8c-0.4-0.4-0.6-0.9-0.6-1.4c0-0.6,0.2-1.1,0.7-1.5c0.5-0.4,1.1-0.6,1.7-0.6v-0.5h0.7v0.5
									c0.8,0.1,1.6,0.3,2.2,0.8l-0.7,1c-0.4-0.3-1-0.5-1.5-0.6v2l0,0c0.7,0.1,1.3,0.4,1.8,0.8c0.4,0.4,0.6,0.9,0.6,1.4
									c0,0.6-0.3,1.1-0.7,1.5c-0.5,0.4-1.1,0.6-1.8,0.6v0.8H42.6z M41.9,40c-0.2,0.1-0.3,0.4-0.3,0.6c0,0.2,0.1,0.4,0.2,0.6
									c0.2,0.2,0.5,0.3,0.8,0.4v-1.8C42.3,39.7,42.1,39.8,41.9,40z M44.1,44.7c0.2-0.1,0.3-0.4,0.3-0.6c0-0.2-0.1-0.4-0.2-0.6
									c-0.3-0.2-0.6-0.3-0.9-0.4V45C43.6,45,43.9,44.9,44.1,44.7z"/>
							</g>
						</g>
						<g id="Grupo_1497">
							<path id="Trazado_1101" class="st6" d="M47.7,38.6c-2.5-2.5-6.6-2.5-9.1,0s-2.5,6.6,0,9.1s6.6,2.5,9.1,0
								c1.2-1.2,1.9-2.8,1.9-4.5C49.6,41.5,48.9,39.8,47.7,38.6z M39.2,46.4c-0.1,0.1-0.2,0.1-0.3,0c0,0,0,0,0,0l0,0l-0.2-0.2l0,0
								c-1.5-2.2-1.1-5.1,0.8-6.9l0,0c1.9-1.8,4.8-2,7-0.4c0.1,0.1,0.1,0.2,0.1,0.3c0,0,0,0,0,0l0,0l-0.1,0.1l0.8,0.7l0,0
								c0.1-0.1,0.2-0.1,0.3,0l0,0l0.1,0.2c0.6,0.9,0.9,1.9,0.9,3c0,1.1-0.3,2.1-0.9,3c-1.6,2.5-5,3.2-7.5,1.5L40,47.5
								c-0.1-0.1-0.1-0.2,0-0.3c0,0,0,0,0,0l0,0l0.2-0.2l-0.8-0.7"/>
						</g>
						<path id="Trazado_1102" class="st6" d="M46.3,39.3l-7,7l0.8,0.7l7-7L46.3,39.3z"/>
					</g>
				</g>
			</g>
		</g>
	</g>
</g>
</svg>
