<?xml version="1.0" encoding="utf-8"?>
<!-- Generator: Adobe Illustrator 26.0.1, SVG Export Plug-In . SVG Version: 6.00 Build 0)  -->
<svg version="1.1" id="Layer_1" xmlns="http://www.w3.org/2000/svg" xmlns:xlink="http://www.w3.org/1999/xlink" x="0px" y="0px"
	 viewBox="0 0 100 100" style="enable-background:new 0 0 100 100;" xml:space="preserve">
<style type="text/css">
	.st0{fill:#FFFFFF;}
	.st1{fill:#313133;}
	.st2{fill:#E7A166;}
	.st3{fill:#062C59;}
	.st4{fill:#001A2D;}
	.st5{fill:#83D0DE;}
	.st6{fill:#40BBCD;}
	.st7{fill:#F8F4F5;}
	.st8{fill:#E50019;}
	.st9{clip-path:url(#SVGID_00000175319598581405552170000006863208887210386609_);}
	.st10{fill:#8ABB2A;}
	.st11{fill:#F2F3F4;}
	.st12{fill:#FFC739;}
	.st13{fill:#35AE8A;}
	.st14{fill:#009CD5;}
	.st15{fill:#5F202A;}
	.st16{fill:#A7C84D;}
	.st17{fill:#73303F;}
	.st18{fill:#642C36;}
	.st19{fill:#FFD942;}
	.st20{fill:#FCA263;}
	.st21{fill:#883949;}
	.st22{fill:#009CDC;}
	.st23{fill:#006790;}
	.st24{fill:#5A7F1C;}
	.st25{fill:#E0007A;}
</style>
<path id="Rectángulo_295-2" class="st0" d="M18.2,2.5h63.5c8.7,0,15.7,7,15.7,15.7v63.5c0,8.7-7,15.7-15.7,15.7H18.2
	c-8.7,0-15.7-7-15.7-15.7V18.2C2.5,9.5,9.5,2.5,18.2,2.5z"/>
<g id="Grupo_1563">
	<g id="LLAMADAS_ILIMITADAS">
		<g>
			<path class="st1" d="M24.1,75.4V69h1.4v5.1h2.7v1.3H24.1z"/>
			<path class="st1" d="M29.3,75.4V69h1.4v5.1h2.7v1.3H29.3z"/>
			<path class="st1" d="M39,75.4L38.5,74h-2.7l-0.6,1.4h-1.5l2.8-6.4h1.4l2.8,6.4H39z M37.1,70.9l-0.8,1.8h1.6L37.1,70.9z"/>
			<path class="st1" d="M47,71.4l-1.7,3.5h-0.8l-1.7-3.5v4h-1.4V69h1.9l1.6,3.5l1.7-3.5h1.9v6.4H47V71.4z"/>
			<path class="st1" d="M54.5,75.4L54,74h-2.7l-0.6,1.4h-1.5l2.8-6.4h1.4l2.8,6.4H54.5z M52.6,70.9l-0.8,1.8h1.6L52.6,70.9z"/>
			<path class="st1" d="M61.7,69.8c0.6,0.6,1,1.4,0.9,2.3c0,0.9-0.3,1.7-0.9,2.3c-0.8,0.6-1.7,0.9-2.7,0.9h-2.2V69h2.3
				C60,68.9,60.9,69.2,61.7,69.8z M60.7,73.6c0.4-0.4,0.6-0.9,0.5-1.4c0-0.5-0.2-1.1-0.5-1.4c-0.5-0.4-1.1-0.6-1.7-0.5h-0.8v3.9h0.9
				C59.7,74.2,60.2,74,60.7,73.6L60.7,73.6z"/>
			<path class="st1" d="M68.2,75.4L67.6,74h-2.7l-0.6,1.4h-1.5l2.7-6.4h1.4l2.8,6.4H68.2z M66.2,70.9l-0.8,1.8H67L66.2,70.9z"/>
			<path class="st1" d="M71.9,70.3c-0.1,0.1-0.2,0.3-0.2,0.4c0,0.2,0.1,0.3,0.2,0.4c0.4,0.2,0.8,0.3,1.2,0.4c0.5,0.1,1,0.3,1.4,0.7
				c0.4,0.3,0.5,0.8,0.5,1.3c0,0.5-0.2,1.1-0.6,1.4c-0.5,0.4-1.1,0.6-1.7,0.5c-1,0-2-0.4-2.7-1.1l0.8-1c0.5,0.5,1.2,0.8,1.9,0.9
				c0.2,0,0.4-0.1,0.6-0.2c0.3-0.2,0.3-0.5,0.1-0.8c0,0-0.1-0.1-0.1-0.1c-0.3-0.2-0.6-0.3-0.9-0.3c-0.6-0.1-1.1-0.3-1.6-0.7
				c-0.7-0.8-0.7-1.9,0.1-2.7c0,0,0.1,0,0.1-0.1c0.5-0.3,1-0.5,1.6-0.5c0.4,0,0.9,0.1,1.3,0.2c0.4,0.1,0.8,0.3,1.1,0.6l-0.7,1
				c-0.5-0.4-1.1-0.6-1.7-0.6C72.2,70,72,70.1,71.9,70.3z"/>
		</g>
		<g>
			<path class="st1" d="M23.1,79.1h1.4v6.4h-1.4V79.1z"/>
			<path class="st1" d="M26.1,85.4v-6.4h1.4v5.1h2.7v1.3H26.1z"/>
			<path class="st1" d="M31.3,79.1h1.4v6.4h-1.4V79.1z"/>
			<path class="st1" d="M40,81.4l-1.7,3.5h-0.8l-1.7-3.5v4h-1.4v-6.4h1.9l1.7,3.5l1.7-3.5h1.9v6.4H40V81.4z"/>
			<path class="st1" d="M43,79.1h1.4v6.4H43V79.1z"/>
			<path class="st1" d="M48.7,80.3v5.1h-1.4v-5.1h-1.8v-1.2h5v1.2H48.7z"/>
			<path class="st1" d="M55.6,85.4L55,84.1h-2.7l-0.6,1.4h-1.5l2.8-6.4h1.4l2.8,6.4H55.6z M53.7,81l-0.8,1.9h1.6L53.7,81z"/>
			<path class="st1" d="M62.7,79.9c0.6,0.6,1,1.4,0.9,2.3c0,0.9-0.3,1.7-0.9,2.4C62,85.2,61,85.5,60,85.4h-2.2v-6.4h2.3
				C61,79,62,79.3,62.7,79.9z M61.7,83.7c0.4-0.4,0.6-0.9,0.5-1.4c0-0.5-0.2-1.1-0.5-1.4c-0.5-0.4-1-0.5-1.6-0.5h-0.8v3.9h0.9
				C60.7,84.2,61.3,84,61.7,83.7L61.7,83.7z"/>
			<path class="st1" d="M69.2,85.4l-0.6-1.4H66l-0.6,1.4h-1.6l2.8-6.4H68l2.8,6.4H69.2z M67.3,81l-0.8,1.9h1.6L67.3,81z"/>
			<path class="st1" d="M72.9,80.3c-0.1,0.1-0.2,0.3-0.2,0.4c0,0.2,0.1,0.3,0.2,0.4c0.4,0.2,0.8,0.3,1.2,0.4c0.5,0.1,1,0.3,1.4,0.7
				c0.3,0.3,0.5,0.8,0.5,1.3c0,0.5-0.2,1.1-0.6,1.4c-0.5,0.4-1.1,0.6-1.7,0.5c-1,0-2-0.4-2.7-1.2l0.8-1c0.5,0.5,1.2,0.8,1.9,0.9
				c0.2,0,0.4,0,0.6-0.2c0.1-0.1,0.2-0.3,0.2-0.5c0-0.2-0.1-0.3-0.2-0.4c-0.3-0.2-0.6-0.3-0.9-0.3c-0.6-0.1-1.1-0.3-1.6-0.7
				c-0.4-0.3-0.6-0.8-0.5-1.3c0-0.5,0.2-1.1,0.7-1.4c0.5-0.3,1-0.5,1.6-0.5c0.4,0,0.9,0.1,1.3,0.2c0.4,0.1,0.8,0.3,1.1,0.6l-0.7,1
				c-0.5-0.4-1.1-0.6-1.7-0.6C73.3,80.2,73.1,80.2,72.9,80.3z"/>
		</g>
	</g>
	<g id="Grupo_1501">
		<g id="Grupo_1500">
			<g id="Grupo_1479">
				<path id="Trazado_1060" class="st2" d="M64.3,35.5v-5.6c0-2.3-1.9-4.2-4.2-4.2H49.8c-0.5,0-1,0.5-1,1l0,0c0,0.6,0.1,1.3,0.3,1.9
					H29.3c-1.6,0-2.9,1.3-2.9,2.8l0,0c0,1.5,1.3,2.8,2.8,2.8H32V51h28.1c2.3,0,4.2-1.9,4.2-4.2h3c0.7,0,1.2-0.6,1.2-1.2v-8.8
					c0-0.7-0.6-1.2-1.2-1.2l0,0H64.3z"/>
				<path id="Trazado_1061" class="st3" d="M53.6,14.5H35.8c-2.1,0-3.8,1.6-3.8,3.7c0,0,0,0,0,0v34.7c0,2.1,1.7,3.7,3.7,3.7h17.8
					c2.1,0,3.7-1.7,3.7-3.7V18.2C57.3,16.2,55.6,14.5,53.6,14.5z"/>
				<path id="Trazado_1062" class="st4" d="M57.3,52.9V18.2c0-2.1-1.7-3.7-3.7-3.7h-8.9v42.1h8.9C55.6,56.6,57.3,54.9,57.3,52.9z"/>
				<path id="Trazado_1063" class="st5" d="M53.4,17H52v1.4c0,2.1-1.7,3.9-3.9,3.9c0,0,0,0,0,0h-6.9c-2.1,0-3.9-1.7-3.9-3.9v0l0,0
					V17h-1.4c-0.8,0-1.4,0.6-1.4,1.4v34.3c0,0.8,0.6,1.4,1.4,1.4h17.5c0.8,0,1.4-0.6,1.4-1.4v0V18.4C54.8,17.6,54.2,17,53.4,17z"/>
				<circle id="Elipse_106" class="st2" cx="32" cy="48.2" r="2.8"/>
				<path id="Trazado_1064" class="st2" d="M35.5,39.8c1.6,0,2.8-1.3,2.8-2.8c0-1.6-1.3-2.8-2.8-2.8h-5.6c-1.6,0-2.8,1.3-2.8,2.8
					c0,1.6,1.3,2.8,2.8,2.8h1.4c-1.5,0.1-2.7,1.4-2.6,3c0.1,1.4,1.2,2.6,2.6,2.6h4.2c1.5,0.1,2.9-1.1,3-2.6c0.1-1.5-1.1-2.9-2.6-3
					C35.8,39.7,35.7,39.7,35.5,39.8L35.5,39.8z"/>
				<path id="Trazado_1065" class="st6" d="M47.3,52.6H42c-0.7,0-1.2-0.5-1.2-1.2c0-0.7,0.5-1.2,1.2-1.2c0,0,0,0,0,0h5.3
					c0.7,0,1.2,0.6,1.2,1.2C48.5,52.1,48,52.6,47.3,52.6L47.3,52.6z"/>
				<path id="Trazado_1066" class="st2" d="M65,33.7v-3.8c0-2.3-1.9-4.2-4.2-4.2l0,0H50.5c-0.6,0-1,0.4-1,1c0,3.3,2.7,6.1,6.1,6.1
					H58V51h2.8c2.3,0,4.2-1.9,4.2-4.2c0,0,0,0,0,0h3c0.7,0,1.2-0.6,1.2-1.2V35c0-0.7-0.5-1.3-1.2-1.3c0,0,0,0,0,0H65z"/>
				<g id="Grupo_1478">
					<path id="Trazado_1067" class="st2" d="M35.5,39.8h-4.2c-1.5,0.1-2.7,1.4-2.6,3c0.1,1.4,1.2,2.6,2.6,2.6h4.2
						c1.5,0.1,2.9-1.1,3-2.6c0.1-1.5-1.1-2.9-2.6-3C35.8,39.7,35.7,39.7,35.5,39.8L35.5,39.8z"/>
				</g>
			</g>
			<g id="Grupo_1486">
				<g id="Grupo_1485">
					<g id="Grupo_1482">
						<g id="Grupo_1481">
							<g id="Grupo_1480">
								<path id="Trazado_1068" class="st7" d="M51.7,38.9c0,1.1-0.3,2.1-0.9,3c-1.6,2.5-5,3.2-7.5,1.5c0,0,0,0,0,0l-0.2-0.2
									c-0.1-0.1-0.1-0.2,0-0.3c0,0,0,0,0,0l0,0l7.2-7.2c0.1-0.1,0.2-0.1,0.3,0l0,0l0.1,0.2C51.4,36.8,51.7,37.8,51.7,38.9
									L51.7,38.9z"/>
							</g>
						</g>
					</g>
					<path id="Trazado_1069" class="st7" d="M46.3,33.5c1.2,0,2.3,0.4,3.3,1.1c0.1,0.1,0.1,0.2,0,0.3l0,0l-7.2,7.2
						c-0.1,0.1-0.2,0.1-0.3,0l0,0c0-0.1-0.1-0.1-0.2-0.2l0,0c-1.4-2.1-1.2-4.9,0.6-6.8l0,0l0.1-0.1C43.6,34.1,44.9,33.5,46.3,33.5
						L46.3,33.5z"/>
					<g id="Grupo_1483">
						<path id="Trazado_1070" class="st8" d="M50.9,34.4c-2.5-2.5-6.6-2.5-9.1,0c-2.5,2.5-2.5,6.6,0,9.1c2.5,2.5,6.6,2.5,9.1,0
							c1.2-1.2,1.9-2.8,1.9-4.5C52.8,37.2,52.1,35.6,50.9,34.4z M42.4,42.2c-0.1,0.1-0.2,0.1-0.3,0l0,0L41.9,42l0,0
							c-1.5-2.2-1.2-5.1,0.8-7l0,0c1.9-1.8,4.9-2,7-0.4c0.1,0.1,0.1,0.2,0,0.3l0,0L49.5,35l0.8,0.7l0,0c0.1-0.1,0.2-0.1,0.3,0l0,0
							l0.1,0.2c0.6,0.9,0.9,1.9,0.9,3c0,1.1-0.3,2.1-0.9,3c-1.6,2.5-5,3.2-7.5,1.5c0,0,0,0,0,0l-0.2-0.2c-0.1-0.1-0.1-0.2,0-0.3
							c0,0,0,0,0,0l0,0l0.2-0.2L42.4,42"/>
					</g>
					<g id="HFG3sk">
						<g id="Grupo_1484">
							<path id="Trazado_1071" class="st4" d="M50.6,38.5c-0.1-0.1-0.2-0.1-0.3-0.2c-1.9-2.1-5.1-2.4-7.2-0.5
								c-0.2,0.2-0.4,0.3-0.5,0.5c-0.1,0.2-0.4,0.3-0.6,0.1c-0.1,0-0.1-0.1-0.1-0.1c-0.1-0.2,0-0.4,0.1-0.6c2.2-2.5,5.9-2.7,8.4-0.6
								c0.2,0.2,0.4,0.4,0.6,0.6c0.1,0.1,0.2,0.3,0.2,0.5C51,38.5,50.8,38.5,50.6,38.5z"/>
							<path id="Trazado_1072" class="st4" d="M46.4,37.4c1.2,0,2.4,0.6,3.2,1.5c0.1,0.1,0.1,0.2,0.2,0.3c0.1,0.2,0,0.4-0.2,0.5
								c-0.2,0.1-0.4,0.1-0.5-0.1c-0.3-0.3-0.6-0.6-1-0.8c-1.4-0.8-3.1-0.5-4.2,0.7c-0.1,0.1-0.2,0.2-0.3,0.2
								c-0.2,0.1-0.4,0-0.5-0.2c-0.1-0.2-0.1-0.4,0-0.5c0.6-0.7,1.3-1.1,2.2-1.4C45.7,37.5,46,37.5,46.4,37.4z"/>
							<path id="Trazado_1073" class="st4" d="M46.4,39.2c0.7,0,1.4,0.3,1.9,0.8c0.2,0.1,0.2,0.4,0.1,0.6c0,0,0,0,0,0
								c-0.1,0.2-0.4,0.2-0.6,0.1l-0.1-0.1c-0.6-0.7-1.7-0.8-2.4-0.2c0,0,0,0,0,0l-0.2,0.2c-0.1,0.2-0.4,0.3-0.6,0.1
								s-0.3-0.4-0.1-0.6c0,0,0,0,0,0c0,0,0-0.1,0.1-0.1C45,39.5,45.7,39.1,46.4,39.2z"/>
							<path id="Trazado_1074" class="st4" d="M46.4,42.5c-0.5,0-0.9-0.4-0.9-0.8c0-0.5,0.4-0.9,0.8-0.9s0.9,0.4,0.9,0.8
								c0,0,0,0,0,0l0,0C47.2,42.2,46.9,42.5,46.4,42.5z"/>
						</g>
					</g>
					<path id="Trazado_1075" class="st8" d="M49.5,35l-7.1,7.1l0.8,0.7l7-7L49.5,35z"/>
				</g>
			</g>
			<g id="Grupo_1492">
				<g>
					<defs>
						<path id="SVGID_1_" d="M37.4,46.7h21.4c1,0,1.9,0.8,1.9,1.9l0,0l0,0v12.1c0,1-0.8,1.9-1.9,1.9l0,0H37.4c-1,0-1.9-0.8-1.9-1.9
							l0,0V48.6C35.6,47.5,36.4,46.7,37.4,46.7L37.4,46.7z"/>
					</defs>
					<clipPath id="SVGID_00000145036314143101397100000010150355010849775518_">
						<use xlink:href="#SVGID_1_"  style="overflow:visible;"/>
					</clipPath>
					<g style="clip-path:url(#SVGID_00000145036314143101397100000010150355010849775518_);">
						<g id="Grupo_1491">
							<g id="Grupo_1490">
								<path id="Trazado_1076" class="st10" d="M44,62.8h-7.9c-0.2,0-0.4-0.2-0.4-0.4l0,0V46.9c0-0.2,0.2-0.4,0.4-0.4l0,0H44V62.8z
									"/>
								<rect id="Rectángulo_281" x="44" y="46.4" class="st11" width="8.3" height="16.3"/>
								<path id="Trazado_1077" class="st8" d="M60.2,62.8h-7.9V46.4h7.9c0.2,0,0.4,0.2,0.4,0.4l0,0v15.5
									C60.6,62.6,60.4,62.8,60.2,62.8L60.2,62.8z"/>
								<g id="Grupo_1489">
									<path id="Trazado_1078" class="st12" d="M48.9,55l-0.8,0.4v0.4h0.4L48.9,55z"/>
									<g id="Grupo_1487">
										<path id="Trazado_1079" class="st13" d="M48.1,56.7c-0.1,0-0.2-0.1-0.2-0.2l0,0v-0.7c0-0.1,0.1-0.2,0.2-0.2c0,0,0,0,0,0
											c0.1,0,0.2,0.1,0.2,0.1c0,0,0,0,0,0v0.8C48.3,56.6,48.2,56.7,48.1,56.7L48.1,56.7z"/>
										<path id="Trazado_1080" class="st13" d="M48.1,55.9c-0.7,0-1.5-0.3-2-0.8c-0.1-0.1-0.1-0.2,0-0.3c0.1-0.1,0.2-0.1,0.2,0
											l0,0c1,0.9,2.5,0.9,3.5,0c0.1-0.1,0.2-0.1,0.3,0c0.1,0.1,0.1,0.2,0,0.3c0,0,0,0,0,0l0,0C49.6,55.6,48.9,55.9,48.1,55.9z"
											/>
									</g>
									<path id="Trazado_1081" class="st14" d="M48.1,56.7c-0.5,0-0.9-0.1-1.3-0.4l0.2-0.3c0.7,0.5,1.6,0.5,2.2,0l0.2,0.3
										C49.1,56.5,48.6,56.7,48.1,56.7z"/>
									<path id="Trazado_1082" class="st15" d="M47.8,54.2l-0.4,0.6L47.4,55l1.1-0.2L47.8,54.2z"/>
									<path id="Trazado_1083" class="st16" d="M47,55.2c-0.5,0-1.1-0.4-1.2-1.3l0.4-0.1c0.1,0.8,0.6,1,0.9,1c0.1,0,0.2,0,0.2-0.1
										s0-0.1-0.2-0.2c-0.1,0-0.2-0.1-0.3-0.2c-0.3-0.4,0.1-0.8,0.3-1c0,0,0-0.1,0-0.1c0,0-0.1-0.1-0.2-0.1
										c-0.2,0-0.4-0.1-0.5-0.3c0-0.2,0-0.4,0.2-0.6l0.2,0.3c0,0-0.1,0.1-0.1,0.1c0,0,0,0.1,0.1,0.1c0.2,0,0.4,0.1,0.5,0.3
										c0.1,0.2,0,0.4-0.2,0.5C47,53.9,46.9,54,47,54.1c0,0,0.1,0,0.2,0.1c0.2,0.1,0.5,0.2,0.4,0.5C47.5,55,47.3,55.2,47,55.2
										L47,55.2z"/>
									<path id="Trazado_1084" class="st17" d="M48.5,53.1c0.2-0.4,0.1-0.9-0.3-1.1l0,0c0,0,2.6-0.4,2.2,3l0,0
										c-0.3-0.2-0.5-0.5-0.7-0.8l-1.2-0.7V53.1z"/>
									<path id="Trazado_1085" class="st15" d="M48.1,53.9L50,55l-0.7,0.4l-1.1-1.1L48.1,53.9z"/>
									<path id="Trazado_1086" class="st18" d="M47.4,52.8L47.4,52.8c0.2,0,0.4,0.2,0.4,0.4l0,0c-0.2,0.2-0.3,0.6-0.1,0.8l0.1,0.2
										c0,0.1,0.1,0.1,0.1,0.2l1,1v-0.5c0-0.6-0.1-1.2-0.4-1.8l0,0c-0.2-0.4-0.6-0.6-1-0.6h-0.1L47.4,52.8L47.4,52.8z"/>
									<path id="Trazado_1087" class="st12" d="M47.4,52.4L47,52.8v0.4l0.6-0.3c0.1,0,0.1-0.1,0.1-0.2c0,0,0,0,0,0l0,0L47.4,52.4z
										"/>
									<path id="Trazado_1088" class="st16" d="M48.1,57.4c-1.7,0-3.1-1.4-3.1-3.2h0.4c-0.1,1.5,1.1,2.9,2.6,3s2.9-1.1,3-2.6
										c0-0.1,0-0.2,0-0.3h0.4C51.3,56,49.9,57.4,48.1,57.4C48.1,57.4,48.1,57.4,48.1,57.4z"/>
									<g id="Grupo_1488">
										<circle id="Elipse_107" class="st19" cx="45.4" cy="55.3" r="0.2"/>
										<circle id="Elipse_108" class="st19" cx="45.9" cy="56.2" r="0.2"/>
										<circle id="Elipse_109" class="st19" cx="46.8" cy="56.9" r="0.2"/>
										<circle id="Elipse_110" class="st19" cx="50.9" cy="55.3" r="0.2"/>
										<circle id="Elipse_111" class="st19" cx="50.4" cy="56.2" r="0.2"/>
										<circle id="Elipse_112" class="st19" cx="49.5" cy="56.9" r="0.2"/>
									</g>
									<path id="Trazado_1089" class="st20" d="M48.3,56.8h-0.4c-0.2,0-0.4-0.2-0.4-0.3c0,0,0,0,0,0l0,0c0-0.2,0.2-0.4,0.4-0.4
										h0.4c0.2,0,0.4,0.2,0.4,0.4l0,0C48.7,56.7,48.5,56.8,48.3,56.8C48.3,56.8,48.3,56.8,48.3,56.8z"/>
									<path id="Trazado_1090" class="st21" d="M49.6,54.2c0.1,0.4,0.4,0.7,0.7,0.8l0,0c0.4-3.3-2.2-3-2.2-3
										C50,52,49.6,54.2,49.6,54.2z"/>
								</g>
							</g>
						</g>
					</g>
				</g>
			</g>
			<g id="Grupo_1493">
				<path id="Trazado_1092" class="st22" d="M68.4,41.5c-5.9-1.4-11.7,2.3-13.1,8.2s2.3,11.7,8.2,13.1c5.9,1.4,11.7-2.3,13.1-8.2
					C78,48.8,74.3,42.9,68.4,41.5z"/>
				<path id="Trazado_1093" class="st23" d="M68.4,41.5c-1.5-0.3-3-0.4-4.5-0.1l0.4,0.1c5.9,1.4,9.5,7.2,8.2,13.1
					c-1,4.2-4.3,7.4-8.5,8.2c5.9,1,11.6-2.9,12.7-8.9C77.5,48.4,74,42.9,68.4,41.5z"/>
				<path id="Trazado_1094" class="st10" d="M66.7,55.8c-1.3-0.3-2.1-4.4-4.9-3.7c-0.9,0.2-3.3-1.8-3-2.3c0.6-1.4-0.7-1.9,0-2.7
					c0.3-0.5,0.8-0.9,1.4-0.5s0.4,1.5,0.9,1.6s0.9-1.1,1.2-1.8c1.1-2.4,4.2-1.6,5.2-2.6c0.7-0.6,1.1-1.4,1-2.3
					c-5.8-1.3-11.6,2.3-13,8c1,1.6,3.2,3,4,3.5c0.2,0.2,0.3,0.5,0.2,0.7c-0.8,1-0.7,2.4,0.2,3.2c1.8,1.5,1.8,2.1,1,3.7
					c-0.2,0.4-0.3,0.7-0.4,1c0.8,0.5,1.7,0.8,2.6,1c0.7-0.9,1.5-1.6,2.5-2.2c1.1-0.5,3.2-0.3,3.7-2.6C69.4,56.9,67.9,56.1,66.7,55.8
					z"/>
				<path id="Trazado_1095" class="st24" d="M64.2,41.5c1.3,0.3,2.6,0.9,3.8,1.6c0.3-0.5,0.5-1.1,0.4-1.6c-1.5-0.3-3-0.4-4.5-0.1
					L64.2,41.5z"/>
				<path id="Trazado_1096" class="st10" d="M76.6,54.7c1.1-4.7-1-9.5-5.2-11.9c-0.7,1.7,1.4,2.4,1.2,3c-0.1,0.3-0.1,0.5,0.1,0.8
					c0.1,0.4,0,0.8-0.3,1.1c-0.7,0.5-1.2,1.2-1.5,2c-0.4,1.9,0.3,2.7,1,3.3c1.1,0.9,1.9,0.6,2.3,1.2c1,1.4-3.5,5.2-2,7
					C74.5,59.6,76,57.3,76.6,54.7z"/>
				<path id="Trazado_1097" class="st24" d="M76.6,54.7c1.1-4.7-1-9.5-5.2-11.9c-0.7,1.7,1.4,2.4,1.2,3c-0.1,0.3-0.1,0.5,0.1,0.8
					c0.1,0.4,0,0.8-0.3,1.1c-0.2,0.1-0.3,0.3-0.5,0.4c0.7,1.7,0.9,3.5,0.7,5.2c0.7,0.3,1.3,0.3,1.6,0.8c1,1.4-3.5,5.2-2,7
					C74.5,59.6,76,57.3,76.6,54.7z"/>
			</g>
			<g id="Trazado_1098-2">
				<path class="st25" d="M56,51.9L56,51.9c-0.1,0-0.3,0-0.4-0.1l0,0c-0.5-0.2-0.7-0.8-0.5-1.3l0.8-1.6c-0.5-0.1-1-0.2-1.5-0.2
					c-1,0-2,0.2-3,0.5c-0.5,0.2-1.1,0.4-1.5,0.8c-0.2,0.3-0.5,0.5-0.8,0.5c-0.6,0-1-0.5-0.9-1.1c0-0.1,0-0.2,0.1-0.3l0,0
					c0.3-0.7,0.7-1.3,1.2-1.8c0.5-0.6,1.1-1.1,1.8-1.6c1.4-1,3-1.5,4.7-1.6c0.7,0,1.4,0.1,2.1,0.3l0.8-1.8c0.1-0.2,0.2-0.3,0.4-0.4
					c0.5-0.2,1-0.1,1.3,0.3l3.9,6.6c0.1,0.1,0.1,0.2,0.1,0.3l0,0c0,0.2,0,0.5-0.2,0.7c-0.1,0.2-0.4,0.3-0.6,0.4l-7.5,1.2L56,51.9z"
					/>
				<path class="st0" d="M56,51.2L56,51.2l7.6-1.2c0.2,0,0.3-0.2,0.2-0.3v-0.1L59.9,43c-0.1-0.1-0.3-0.2-0.4-0.1c0,0,0,0,0,0
					c0,0-0.1,0.1-0.1,0.1l-1.1,2.3c-4.1-1.7-8.1,1.2-9.5,4.1l0,0c-0.1,0.1,0,0.3,0.1,0.4c0,0,0,0,0,0c0.1,0.1,0.3,0,0.4-0.1
					c0,0,0,0,0,0l0,0c0.4-0.7,4.5-2.4,7.5-1.2l-1.1,2.3c-0.1,0.1,0,0.3,0.1,0.4C55.9,51.2,56,51.2,56,51.2 M56,52.6
					c-0.2,0-0.5-0.1-0.7-0.2c-0.4-0.2-0.7-0.5-0.8-0.9c-0.2-0.4-0.2-0.8,0-1.2l0.4-0.8h-0.5c-0.9,0-1.8,0.2-2.7,0.4
					c-0.5,0.1-0.9,0.3-1.4,0.6c-0.1,0.2-0.3,0.4-0.5,0.5c-0.3,0.2-0.6,0.2-0.8,0.2c-0.9,0-1.6-0.8-1.6-1.7c0-0.2,0.1-0.5,0.1-0.7
					l0,0c0.8-1.5,1.8-2.7,3.2-3.6c1.5-1.1,3.2-1.6,5-1.7c0.6,0,1.2,0.1,1.8,0.2l0.6-1.3c0.1-0.3,0.4-0.5,0.6-0.7l0,0
					c0.3-0.1,0.5-0.2,0.8-0.2c0.6,0,1.1,0.3,1.4,0.8l0,0l3.9,6.6c0.1,0.2,0.2,0.4,0.2,0.6l0,0c0.1,0.9-0.5,1.7-1.3,1.9l-7.5,1.2
					L56,52.6z"/>
			</g>
			<g id="Grupo_1499">
				<g id="Grupo_1498">
					<g id="Grupo_1496">
						<g id="Grupo_1495">
							<g id="Grupo_1494">
								<path id="Trazado_1099" class="st7" d="M47.7,29.5c0,1.1-0.3,2.1-0.9,3c-1.6,2.5-5,3.2-7.5,1.5c0,0,0,0,0,0l-0.2-0.2
									c-0.1-0.1-0.1-0.2,0-0.3l0,0l7.2-7.2c0.1-0.1,0.2-0.1,0.3,0l0,0l0.1,0.2C47.4,27.3,47.7,28.4,47.7,29.5L47.7,29.5z"/>
							</g>
						</g>
					</g>
					<path id="Trazado_1100" class="st7" d="M42.3,24.1c1.2,0,2.3,0.4,3.3,1.1c0.1,0.1,0.1,0.2,0,0.3l0,0l-7.2,7.2
						c-0.1,0.1-0.2,0.1-0.3,0l0,0l-0.2-0.2l0,0c-1.4-2.1-1.2-4.9,0.6-6.8l0,0c0,0,0.1-0.1,0.1-0.1C39.6,24.7,40.9,24.1,42.3,24.1
						L42.3,24.1z"/>
					<g id="_">
						<g>
							<path class="st4" d="M41.8,33.2v-0.8c-1-0.1-1.9-0.5-2.6-1.2l0.8-0.9c0.5,0.5,1.2,0.8,1.8,0.9v-2.1c-0.6-0.1-1.2-0.4-1.8-0.8
								c-0.4-0.4-0.6-0.9-0.6-1.4c0-0.6,0.2-1.1,0.6-1.5c0.5-0.4,1.1-0.6,1.7-0.6v-0.5h0.7v0.5c0.8,0.1,1.6,0.3,2.2,0.8l-0.7,1
								c-0.4-0.3-1-0.5-1.5-0.6v2l0,0c0.7,0.1,1.3,0.4,1.8,0.8c0.4,0.4,0.6,0.9,0.6,1.4c0,0.6-0.2,1.1-0.7,1.5
								c-0.5,0.4-1.1,0.6-1.8,0.6v0.8L41.8,33.2z M41,26.3c-0.2,0.1-0.3,0.4-0.3,0.6c0,0.2,0.1,0.4,0.2,0.6c0.2,0.2,0.5,0.3,0.8,0.4
								V26C41.5,26,41.2,26.1,41,26.3z M43.2,31c0.4-0.3,0.4-0.8,0.1-1.2c0,0,0,0,0,0c-0.3-0.2-0.6-0.3-0.9-0.4v1.9
								C42.7,31.3,43,31.2,43.2,31z"/>
						</g>
					</g>
					<g id="Grupo_1497">
						<path id="Trazado_1101" class="st8" d="M46.8,24.9c-2.5-2.5-6.6-2.5-9.1,0s-2.5,6.6,0,9.1c2.5,2.5,6.6,2.5,9.1,0
							c1.2-1.2,1.9-2.9,1.9-4.6C48.7,27.8,48.1,26.1,46.8,24.9z M38.3,32.7c-0.1,0.1-0.2,0.1-0.3,0l0,0c0,0-0.1-0.2-0.2-0.2l0,0
							c-1.5-2.2-1.1-5.1,0.8-6.9l0,0c1.9-1.8,4.9-2,7-0.4c0.1,0.1,0.1,0.2,0,0.3l0,0l-0.1,0.1l0.8,0.7l0,0c0.1-0.1,0.2-0.1,0.3,0
							l0,0l0.1,0.2c0.6,0.9,0.9,1.9,0.9,3c0,1.1-0.3,2.1-0.9,3c-1.6,2.5-5,3.2-7.5,1.6c0,0,0,0,0,0l-0.2-0.2c-0.1-0.1-0.1-0.2,0-0.3
							l0,0l0.2-0.2l-0.8-0.7"/>
					</g>
					<path id="Trazado_1102" class="st8" d="M45.5,25.6l-7.1,7.1l0.8,0.7l7-7L45.5,25.6z"/>
				</g>
			</g>
		</g>
	</g>
</g>
</svg>
