<svg id="Layer_1" data-name="Layer 1" xmlns="http://www.w3.org/2000/svg" xmlns:xlink="http://www.w3.org/1999/xlink" viewBox="0 0 137.77 139.83"><defs><style>.cls-1{fill:none;}.cls-2{fill:#dd0063;}.cls-3{clip-path:url(#clip-path);}.cls-4,.cls-6{fill:#fff;}.cls-4{fill-rule:evenodd;}.cls-5{isolation:isolate;}</style><clipPath id="clip-path" transform="translate(68.89 28.1)"><rect class="cls-1" x="-29.27" y="-4.12" width="46.92" height="47.99"/></clipPath></defs><g id="Grupo_1208" data-name="Grupo 1208"><g id="Grupo_1296" data-name="Grupo 1296"><g id="Llamada_Emergencia" data-name="Llamada Emergencia"><ellipse id="Elipse_55" data-name="Elipse 55" class="cls-2" cx="68.89" cy="69.92" rx="68.89" ry="69.92"/><g id="Grupo_764" data-name="Grupo 764"><g id="Grupo_762" data-name="Grupo 762"><g class="cls-3"><g id="Grupo_761" data-name="Grupo 761"><path id="Trazado_213" data-name="Trazado 213" class="cls-4" d="M17.48,34c.08.77.42,1.3-.16,1.86l-6.64,6.61a3.75,3.75,0,0,1-1.2.85,5.42,5.42,0,0,1-1.41.46l-.32,0a3.43,3.43,0,0,1-.64,0A24.55,24.55,0,0,1,4,43.55a24.39,24.39,0,0,1-5.21-1.62,43.52,43.52,0,0,1-7-3.83,51.58,51.58,0,0,1-8.31-7,57.11,57.11,0,0,1-5.82-6.61A46.44,46.44,0,0,1-26,18.65a33.3,33.3,0,0,1-2.13-4.86A27.43,27.43,0,0,1-29,10a11.35,11.35,0,0,1-.21-2.47c0-.61.05-.93.05-1a4.35,4.35,0,0,1,.46-1.4,3.75,3.75,0,0,1,.85-1.2c15.86-15.86,16.79,5.72,15,7.47l-2.47,2.47a.65.65,0,0,0-.16.32,1.53,1.53,0,0,0-.08.37,8.42,8.42,0,0,0,.9,2.39,22.39,22.39,0,0,0,1.84,2.95,37.33,37.33,0,0,0,3.56,4,36.66,36.66,0,0,0,4,3.57,25.6,25.6,0,0,0,2.93,1.88,8.26,8.26,0,0,0,1.8.72l.64.13a1.16,1.16,0,0,0,.32-.08A.89.89,0,0,0,.73,30c6.49-9.52,16.08-.59,16.74,4.09M5.39-4.12C-1.12-4.12-6.38.05-6.38,5.21c0,3.05,1.88,5.76,4.75,7.46A9.07,9.07,0,0,1-4.07,17.3c3.08-.24,5.79-1.12,7.54-2.92a17.69,17.69,0,0,0,1.92.13c6.51,0,11.77-4.17,11.77-9.3S11.9-4.12,5.39-4.12M-.14,7A1.84,1.84,0,0,1-2,5.21,1.84,1.84,0,0,1-.17,3.35,1.84,1.84,0,0,1,1.69,5.18v0A1.83,1.83,0,0,1-.14,7M5.39,7A1.85,1.85,0,1,1,7.22,5.18v0A1.83,1.83,0,0,1,5.39,7m5.5,0a1.85,1.85,0,1,1,1.86-1.83A1.84,1.84,0,0,1,10.89,7h0" transform="translate(68.89 28.1)"/></g></g></g><g id="LLEGO_EL_MOMENTO" data-name="LLEGO EL MOMENTO" class="cls-5"><g class="cls-5"><path class="cls-6" d="M-36.54,63V51.86H-34v9h4.76V63Z" transform="translate(68.89 28.1)"/><path class="cls-6" d="M-27.45,63V51.86h2.5v9h4.76V63Z" transform="translate(68.89 28.1)"/><path class="cls-6" d="M-10.3,51.86v2.22h-5.57v2.31h5v2.12h-5v2.32h5.75V63h-8.24V51.86Z" transform="translate(68.89 28.1)"/><path class="cls-6" d="M-.64,57.35H1.88v4a5.9,5.9,0,0,1-4.61,1.85,5.7,5.7,0,0,1-4.14-1.63,5.53,5.53,0,0,1-1.67-4.12,5.58,5.58,0,0,1,1.7-4.15A5.69,5.69,0,0,1-2.72,51.6a6.06,6.06,0,0,1,4.18,1.59L.16,55.06a5,5,0,0,0-1.38-.91,3.83,3.83,0,0,0-1.37-.24,3.29,3.29,0,0,0-2.4,1,3.45,3.45,0,0,0-1,2.56A3.46,3.46,0,0,0-5,60a3,3,0,0,0,2.23.95,4.26,4.26,0,0,0,2.16-.49Z" transform="translate(68.89 28.1)"/><path class="cls-6" d="M13.51,61.5a5.76,5.76,0,0,1-4.18,1.65A5.75,5.75,0,0,1,5.16,61.5a5.84,5.84,0,0,1,0-8.24A5.72,5.72,0,0,1,9.33,51.6a5.72,5.72,0,0,1,4.18,1.66,5.87,5.87,0,0,1,0,8.24Zm-.85-4.11a3.69,3.69,0,0,0-1-2.56,3.18,3.18,0,0,0-4.72,0,3.69,3.69,0,0,0-1,2.56,3.64,3.64,0,0,0,1,2.54,3.18,3.18,0,0,0,4.72,0A3.64,3.64,0,0,0,12.66,57.39Z" transform="translate(68.89 28.1)"/><path class="cls-6" d="M29.6,51.86v2.22H24v2.31h5v2.12H24v2.32h5.74V63H21.54V51.86Z" transform="translate(68.89 28.1)"/><path class="cls-6" d="M32,63V51.86h2.5v9h4.77V63Z" transform="translate(68.89 28.1)"/></g><g class="cls-5"><path class="cls-6" d="M-32.67,75l-3,6.11h-1.49l-3-6.11v7h-2.49V70.86h3.37L-36.43,77l2.9-6.14h3.36V82h-2.5Z" transform="translate(68.89 28.1)"/><path class="cls-6" d="M-18,80.5a5.76,5.76,0,0,1-4.18,1.65,5.75,5.75,0,0,1-4.17-1.65,5.54,5.54,0,0,1-1.7-4.12,5.53,5.53,0,0,1,1.7-4.12,5.72,5.72,0,0,1,4.17-1.66A5.72,5.72,0,0,1-18,72.26a5.52,5.52,0,0,1,1.69,4.12A5.54,5.54,0,0,1-18,80.5Zm-.85-4.11a3.69,3.69,0,0,0-1-2.56,3.08,3.08,0,0,0-2.36-1,3.08,3.08,0,0,0-2.36,1,3.69,3.69,0,0,0-1,2.56,3.64,3.64,0,0,0,1,2.54,3.08,3.08,0,0,0,2.36,1,3.08,3.08,0,0,0,2.36-1A3.64,3.64,0,0,0-18.86,76.39Z" transform="translate(68.89 28.1)"/><path class="cls-6" d="M-4.19,75l-3,6.11H-8.7l-3-6.11v7H-14.2V70.86h3.37L-7.95,77-5,70.86h3.36V82h-2.5Z" transform="translate(68.89 28.1)"/><path class="cls-6" d="M9.12,70.86v2.22H3.56v2.31h5v2.12h-5v2.32H9.3V82H1.06V70.86Z" transform="translate(68.89 28.1)"/><path class="cls-6" d="M19.35,70.86h2.49V82H19.35L14,75v7h-2.5V70.86h2.34l5.49,7.2Z" transform="translate(68.89 28.1)"/><path class="cls-6" d="M29.33,73v9H26.84V73H23.67V70.86H32.5V73Z" transform="translate(68.89 28.1)"/><path class="cls-6" d="M43.43,80.5a6.11,6.11,0,0,1-8.35,0,5.84,5.84,0,0,1,0-8.24,6.08,6.08,0,0,1,8.35,0,5.87,5.87,0,0,1,0,8.24Zm-.85-4.11a3.69,3.69,0,0,0-1-2.56,3.18,3.18,0,0,0-4.72,0,3.69,3.69,0,0,0-1,2.56,3.64,3.64,0,0,0,1,2.54,3.18,3.18,0,0,0,4.72,0A3.64,3.64,0,0,0,42.58,76.39Z" transform="translate(68.89 28.1)"/></g></g></g></g></g></g></svg>