<?xml version="1.0" encoding="utf-8"?>
<!-- Generator: Adobe Illustrator 26.0.1, SVG Export Plug-In . SVG Version: 6.00 Build 0)  -->
<svg version="1.1" id="Layer_1" xmlns="http://www.w3.org/2000/svg" xmlns:xlink="http://www.w3.org/1999/xlink" x="0px" y="0px"
	 viewBox="0 0 152.3 155.8" style="enable-background:new 0 0 152.3 155.8;" xml:space="preserve">
<style type="text/css">
	.st0{fill:#FFFFFF;}
	.st1{fill:#D80361;}
	.st2{fill:#4FBFD7;}
	.st3{clip-path:url(#SVGID_00000101816386534524176820000001412820503975223429_);}
	.st4{fill:#E7A166;}
	.st5{fill:#C58B59;}
	.st6{fill:#F3E3C2;}
	.st7{fill:#FCD6B1;}
	.st8{fill:#B37AAC;}
	.st9{fill:#734B6F;}
	.st10{fill:#F0E6F2;}
	.st11{fill:#B0B3B4;}
	.st12{fill:#EABE95;}
	.st13{fill:#CFDAE5;}
	.st14{fill:#F9B54B;}
</style>
<g id="tiutlar_copy">
	<path id="Rectángulo_260" class="st0" d="M30,0h92.2c16.6,0,30,14.4,30,32.3v91.3c0,17.8-13.4,32.3-30,32.3H30
		c-16.6,0-30-14.4-30-32.3V32.3C0,14.4,13.4,0,30,0z"/>
	<g id="Grupo_1288">
		<path id="Rectángulo_124-4" class="st1" d="M120.9,17.3h12.8c4.6,0,8.4,3.7,8.4,8.4l0,0c0,4.6-3.7,8.4-8.4,8.4h-12.8
			c-4.6,0-8.3-3.7-8.3-8.4l0,0C112.6,21.1,116.3,17.3,120.9,17.3z"/>
		<circle id="Elipse_54-12" class="st0" cx="133.8" cy="25.7" r="4.5"/>
	</g>
	<path class="st2" d="M51,143.2l-3.8,7.6h-1.8l-3.8-7.6v8.8h-3.1v-14h4.2l3.6,7.7L50,138h4.2v14H51V143.2z"/>
	<path class="st2" d="M67.6,152l-1.3-3h-5.9l-1.3,3h-3.3l6-14h3l6,14H67.6z M63.3,142.1l-1.8,4.1h3.5L63.3,142.1z"/>
	<path class="st2" d="M83.2,139.8c1.4,1.3,2.1,3.2,2,5.1c0.1,1.9-0.6,3.8-2,5.2c-1.3,1.3-3.3,1.9-6,1.9h-4.7v-14h4.9
		C79.5,137.8,81.6,138.5,83.2,139.8z M80.9,148.1c0.8-0.8,1.2-2,1.2-3.1c0.1-1.2-0.3-2.3-1.2-3.2c-1-0.8-2.3-1.2-3.5-1.1h-1.7v8.5h2
		C78.8,149.3,80,148.9,80.9,148.1z"/>
	<path class="st2" d="M99.2,142.6c0,2.2-0.9,3.7-2.7,4.3l3.5,5h-3.9l-3.1-4.5H91v4.5h-3.1v-14h5.3c2.2,0,3.7,0.4,4.7,1.1
		C98.8,140,99.4,141.3,99.2,142.6z M95.5,144.3c0.4-0.4,0.6-1,0.6-1.6c0.1-0.6-0.2-1.2-0.6-1.6c-0.6-0.3-1.4-0.5-2.1-0.4H91v4.1h2.2
		C94,144.9,94.8,144.7,95.5,144.3L95.5,144.3z"/>
	<path class="st2" d="M112.5,138v2.8h-7v2.9h6.3v2.7h-6.3v2.9h7.2v2.8h-10.3v-14L112.5,138z"/>
	<g>
		<defs>
			<rect id="SVGID_1_" x="42.1" y="17.1" width="66.4" height="116.1"/>
		</defs>
		<clipPath id="SVGID_00000048501143278317011000000017464336040056602014_">
			<use xlink:href="#SVGID_1_"  style="overflow:visible;"/>
		</clipPath>
		<g style="clip-path:url(#SVGID_00000048501143278317011000000017464336040056602014_);">
			<g id="Grupo_726-2">
				<path id="Trazado_171" class="st4" d="M82.4,68.5v-6.8H69.3v6.8c0,0.6-0.4,1-1,1h-9.1v23.7h33.2V69.5h-9
					C82.9,69.5,82.4,69.1,82.4,68.5C82.4,68.6,82.4,68.5,82.4,68.5"/>
				<path id="Trazado_172" class="st5" d="M92.4,69.5h-9c-0.6,0-1-0.4-1-0.9c0,0,0,0,0-0.1v-6.8h-7.1v31.5h17.2V69.5z"/>
				<path id="Trazado_173" class="st6" d="M64.2,69.5h-2.5l9.6,32.4h3.9V77.1C69.4,77,64.2,75.1,64.2,69.5"/>
				<path id="Trazado_174" class="st7" d="M89.9,69.5h-3.5c0,5.8-4.4,7.6-10.5,7.6h-0.6v24.8h5.1L89.9,69.5z"/>
				<path id="Trazado_175" class="st8" d="M64.2,69.5h-7c-8.4,0-15.2,6.4-15.2,14.3V127c9.7,5.4,21,6.1,33.1,6.2V77.1
					C69.4,77,64.2,75.1,64.2,69.5"/>
				<path id="Trazado_176" class="st9" d="M93.3,69.5h-7c0,5.8-4.4,7.6-10.5,7.6h-0.5v56.1h0.6c11.9,0,23-0.5,32.6-5.6V83.9
					C108.5,75.9,101.7,69.5,93.3,69.5"/>
				<path id="Trazado_177" class="st10" d="M53.6,85.6c-5.3-0.1-9.7,4-9.9,9.3h4.9c0.4-2.7,3-4.6,5.7-4.2c2.2,0.3,3.9,2,4.2,4.2
					v37.3c1.6,0.3,3.3,0.5,4.9,0.6V94.9C63.3,89.6,58.9,85.4,53.6,85.6"/>
				<path id="Trazado_178" class="st11" d="M53.6,35.9l-5,25.7c-0.8,4.5,2.2,8.8,6.7,9.5c0.5,0.1,1.1,0.1,1.6,0.1H76V36L53.6,35.9z"
					/>
				<path id="Trazado_179" class="st11" d="M103,61.4l-5.9-25.2L76,36v35.2h18.7c4.5,0.1,8.3-3.5,8.5-8
					C103.2,62.6,103.1,62,103,61.4"/>
				<path id="Trazado_180" class="st4" d="M54.2,48.4c2.7,0.1,4.9,2.4,4.8,5.1c-0.1,2.4-1.9,4.4-4.3,4.8c-0.2,0-0.4,0-0.5,0
					c-2.7,0.2-5.1-1.8-5.4-4.5c-0.2-2.7,1.8-5.1,4.5-5.4c0.1,0,0.2,0,0.3,0L54.2,48.4"/>
				<path id="Trazado_181" class="st5" d="M96.5,48.4c2.7,0.2,4.8,2.5,4.6,5.2c-0.2,2.7-2.5,4.8-5.2,4.6c-2.6-0.2-4.7-2.3-4.7-4.9
					C91.3,50.5,93.7,48.3,96.5,48.4C96.5,48.4,96.5,48.4,96.5,48.4"/>
				<path id="Trazado_182" class="st4" d="M75.9,73.9h-1.2C63.8,73.9,55,65.5,55,55.2v-17c0-10.3,8.8-18.6,19.7-18.6h1.2
					c10.9,0,19.7,8.3,19.7,18.6v17C95.6,65.5,86.8,73.8,75.9,73.9"/>
				<path id="Trazado_183" class="st5" d="M75.9,19.6h-0.7v54.3h0.6c10.9,0,19.7-8.3,19.7-18.6v-17C95.6,27.9,86.8,19.6,75.9,19.6"
					/>
				<path id="Trazado_184" class="st7" d="M85.3,38.6c-0.3,0-0.5-0.1-0.7-0.2c-5.2-3.9-12.3-3.9-17.4,0c-0.5,0.4-1.2,0.3-1.6-0.1
					c-0.4-0.4-0.3-1,0.1-1.4c0,0,0,0,0,0h0.1c6-4.5,14.3-4.5,20.3,0c0.4,0.3,0.5,0.9,0.2,1.4v0.1C86,38.4,85.7,38.6,85.3,38.6"/>
				<path id="Trazado_185" class="st7" d="M87.3,34.2c-0.3,0-0.5-0.1-0.7-0.2c-6.4-4.8-15.1-4.8-21.5,0c-0.5,0.4-1.2,0.3-1.6-0.2
					c-0.4-0.4-0.3-1,0.1-1.4c0,0,0,0,0,0h0.1c7.2-5.4,17.1-5.4,24.3,0c0.4,0.3,0.5,1,0.2,1.4c0,0,0,0,0,0l-0.1,0.1
					C88,34.1,87.7,34.2,87.3,34.2"/>
				<path id="Trazado_186" class="st12" d="M86,36.7c-2.9-2.2-6.5-3.4-10.1-3.4h-0.6v2.1h0.6c3.1,0,6.2,1,8.7,2.9
					c0.5,0.4,1.2,0.3,1.6-0.2c0.4-0.4,0.3-1-0.1-1.4C86.1,36.8,86.1,36.8,86,36.7L86,36.7"/>
				<path id="Trazado_187" class="st12" d="M88.1,32.4c-3.5-2.6-7.8-4.1-12.2-4.1h-0.6v2.1h0.6c3.9,0,7.7,1.2,10.7,3.6
					c0.2,0.2,0.5,0.2,0.7,0.2c0.3,0,0.7-0.1,0.9-0.4C88.5,33.4,88.5,32.8,88.1,32.4C88.1,32.4,88.1,32.4,88.1,32.4L88.1,32.4"/>
				<path id="Trazado_188" class="st13" d="M93.5,25.7C89.3,20.2,82.8,17,76,17.1h-0.7v29.5h18.4v6.5h3.7V37.3
					C97.3,33.1,96,29.1,93.5,25.7"/>
				<path id="Trazado_189" class="st11" d="M56.4,53.1h-3.2V37.3c0-11.2,9.6-20.2,21.4-20.2h1.3c6.9-0.1,13.4,3.1,17.5,8.6
					c2.5,3.4,3.9,7.4,3.9,11.6v15.8h-3.7v-6.5H56.4C56.4,46.6,56.4,53.1,56.4,53.1z"/>
				<path id="Trazado_190" class="st14" d="M85.5,48.5c-3.5-0.1-6.5,2.5-6.9,5.9h-5.3c-0.5-3.5-3.4-6-6.9-5.9
					c-3.6-0.2-6.8,2.6-7,6.2c-0.2,3.6,2.6,6.8,6.2,7l0,0c0.2,0,0.5,0,0.8,0c3.3,0.1,6.2-2.3,6.9-5.5h5.4c0.6,3.3,3.5,5.6,6.9,5.5
					c3.6,0.2,6.8-2.6,7-6.2c0.2-3.6-2.6-6.8-6.2-7C86,48.4,85.7,48.4,85.5,48.5 M66.3,59.9c-2.7-0.1-4.8-2.5-4.6-5.2
					s2.5-4.8,5.2-4.6c2.6,0.1,4.6,2.3,4.6,4.9C71.4,57.8,69.1,60,66.3,59.9C66.3,59.9,66.3,59.9,66.3,59.9 M85.5,59.9
					c-2.7-0.1-4.8-2.5-4.6-5.2c0.1-2.7,2.5-4.8,5.2-4.6c2.6,0.1,4.6,2.3,4.6,4.9C90.6,57.8,88.3,60,85.5,59.9
					C85.5,59.9,85.5,59.9,85.5,59.9"/>
				<path id="Trazado_191" class="st14" d="M85.5,48.5c-3.5-0.1-6.5,2.5-6.9,5.9h-3v1.7h3.1c0.6,3.3,3.5,5.6,6.9,5.5
					c3.6,0.2,6.8-2.6,7-6.2c0.2-3.6-2.6-6.8-6.2-7l0,0C86,48.4,85.7,48.4,85.5,48.5 M85.5,59.9c-2.7-0.1-4.8-2.5-4.6-5.2
					s2.5-4.8,5.2-4.6c2.6,0.1,4.6,2.3,4.6,4.9C90.6,57.8,88.3,60,85.5,59.9C85.5,59.9,85.5,59.9,85.5,59.9"/>
			</g>
		</g>
	</g>
</g>
</svg>
