<?xml version="1.0" encoding="utf-8"?>
<!-- Generator: Adobe Illustrator 26.0.1, SVG Export Plug-In . SVG Version: 6.00 Build 0)  -->
<svg version="1.1" id="Layer_1" xmlns="http://www.w3.org/2000/svg" xmlns:xlink="http://www.w3.org/1999/xlink" x="0px" y="0px"
	 viewBox="0 0 120.2 154.2" style="enable-background:new 0 0 120.2 154.2;" xml:space="preserve">
<style type="text/css">
	.st0{fill:#D80361;}
	.st1{fill:#FFFFFF;}
	.st2{clip-path:url(#SVGID_00000067934719217785084500000013677206868794270887_);}
	.st3{fill:#E7A166;}
	.st4{fill:#C58B59;}
	.st5{fill:#F4E3C3;}
	.st6{fill:#FDD7B2;}
	.st7{fill:#B37AAD;}
	.st8{fill:#734B6F;}
	.st9{fill:#F0E6F3;}
	.st10{fill:#B0B3B4;}
	.st11{fill:#EABE96;}
	.st12{fill:#CFDBE6;}
	.st13{fill:#FAB64B;}
	.st14{fill:#6E6E6D;}
</style>
<g id="Componente_43_12">
	<g id="Componente_42_7">
		<path id="Rectángulo_124-5" class="st0" d="M75.3,0h27.2c9.8,0,17.7,7.9,17.7,17.7l0,0c0,9.8-7.9,17.7-17.7,17.7H75.3
			c-9.8,0-17.7-7.9-17.7-17.7c0,0,0,0,0,0l0,0C57.6,7.9,65.6,0,75.3,0C75.3,0,75.3,0,75.3,0z"/>
		<circle id="Elipse_54-13" class="st1" cx="102.5" cy="17.7" r="9.5"/>
	</g>
	<g id="Grupo_812">
		<g id="Secure-5">
			<g id="Grupo_726">
				<g>
					<defs>
						<rect id="SVGID_1_" y="24" width="74.4" height="130.1"/>
					</defs>
					<clipPath id="SVGID_00000118360201006346222540000000567448766744624818_">
						<use xlink:href="#SVGID_1_"  style="overflow:visible;"/>
					</clipPath>
					<g style="clip-path:url(#SVGID_00000118360201006346222540000000567448766744624818_);">
						<g id="Grupo_726-2">
							<path id="Trazado_171" class="st3" d="M45.2,81.7v-7.7H30.5v7.7c0,0.6-0.5,1.1-1.2,1.1H19.2v26.5h37.2V82.8H46.3
								C45.7,82.9,45.2,82.4,45.2,81.7L45.2,81.7"/>
							<path id="Trazado_172" class="st4" d="M56.4,82.8H46.3c-0.6,0-1.2-0.5-1.2-1.1c0,0,0,0,0,0v-7.7h-8v35.3h19.3V82.8z"/>
							<path id="Trazado_173" class="st5" d="M24.8,82.8h-2.7l10.7,36.3h4.3V91.3C30.6,91.2,24.8,89.1,24.8,82.8"/>
							<path id="Trazado_174" class="st6" d="M53.6,82.8h-4c0,6.5-4.9,8.5-11.8,8.5h-0.7v27.8h5.7L53.6,82.8z"/>
							<path id="Trazado_175" class="st7" d="M24.8,82.8H17C7.9,82.6,0.3,89.8,0,98.9v48.3c10.9,6.1,23.6,6.8,37.2,6.9V91.3
								C30.6,91.2,24.8,89.1,24.8,82.8"/>
							<path id="Trazado_176" class="st8" d="M57.4,82.8h-7.8c0,6.5-4.9,8.5-11.8,8.5h-0.7v62.9h0.7c13.3,0,25.8-0.5,36.6-6.2v-49
								C74.1,89.8,66.5,82.6,57.4,82.8"/>
							<path id="Trazado_177" class="st9" d="M12.9,100.8C7,100.7,2,105.4,1.8,111.3h5.5c0.2-3.1,2.8-5.4,5.9-5.2
								c2.8,0.2,5,2.4,5.2,5.2v41.7c1.6,0.2,3.7,0.5,5.5,0.6v-42.4C23.8,105.4,18.8,100.7,12.9,100.8"/>
							<path id="Trazado_178" class="st10" d="M12.9,45.1L7.2,73.9c-0.9,5,2.5,9.8,7.5,10.7c0.6,0.1,1.2,0.2,1.8,0.1h21.5V45.3
								L12.9,45.1z"/>
							<path id="Trazado_179" class="st10" d="M68.3,73.8l-6.6-28.3l-23.6-0.2v39.5H59c5.1,0.1,9.4-3.9,9.5-9c0,0,0,0,0,0
								C68.5,75.1,68.4,74.4,68.3,73.8"/>
							<path id="Trazado_180" class="st3" d="M13.5,59.1c3.1-0.2,5.7,2.2,5.8,5.2c0.2,3.1-2.2,5.7-5.2,5.8c-0.2,0-0.4,0-0.6,0
								C10.5,70.4,7.8,68,7.7,65c-0.2-3.1,2.2-5.7,5.2-5.8C13.1,59.1,13.3,59.1,13.5,59.1"/>
							<path id="Trazado_181" class="st4" d="M61,59.1c3.1,0.2,5.4,2.8,5.2,5.9c-0.2,3.1-2.8,5.4-5.9,5.2c-2.9-0.2-5.2-2.6-5.2-5.5
								C55.2,61.5,57.8,59,61,59.1"/>
							<path id="Trazado_182" class="st3" d="M37.9,87.7h-1.3c-11.9,0.3-21.8-9-22.1-20.9V47.8c0.3-11.9,10.2-21.2,22.1-20.9h1.3
								c11.9-0.3,21.8,9,22.2,20.9v19.1C59.7,78.7,49.8,88.1,37.9,87.7C37.9,87.7,37.9,87.7,37.9,87.7"/>
							<path id="Trazado_183" class="st4" d="M37.9,26.9h-0.7v60.9h0.7c11.9,0.4,21.8-9,22.2-20.9c0,0,0,0,0,0V47.8
								C59.7,35.9,49.8,26.5,37.9,26.9"/>
							<path id="Trazado_184" class="st6" d="M48.4,48.2c-0.3,0-0.6-0.1-0.8-0.3c-5.8-4.4-13.8-4.4-19.6,0c-0.5,0.4-1.3,0.3-1.8-0.2
								c-0.4-0.5-0.4-1.2,0.1-1.6c0,0,0,0,0,0l0.1-0.1c6.7-5.1,16-5.1,22.7,0c0.5,0.4,0.6,1.1,0.2,1.6c0,0,0,0,0,0l-0.1,0.1
								C49.2,48,48.8,48.1,48.4,48.2"/>
							<path id="Trazado_185" class="st6" d="M50.7,43.3c-0.3,0-0.6-0.1-0.8-0.3c-7.1-5.4-17-5.4-24.1,0c-0.5,0.4-1.3,0.3-1.8-0.2
								c-0.4-0.5-0.4-1.2,0.1-1.6l0.1-0.1c8.1-6.1,19.2-6.1,27.3,0c0.5,0.4,0.6,1.1,0.2,1.6l-0.1,0.1C51.5,43.1,51.1,43.3,50.7,43.3
								"/>
							<path id="Trazado_186" class="st11" d="M49.2,46.1c-3.3-2.5-7.3-3.8-11.4-3.8h-0.7v2.4c0.2,0,0.5,0,0.7,0
								c3.5,0,7,1.1,9.8,3.3c0.5,0.4,1.3,0.3,1.8-0.2c0.4-0.5,0.4-1.2-0.1-1.6C49.4,46.1,49.3,46.1,49.2,46.1L49.2,46.1"/>
							<path id="Trazado_187" class="st11" d="M51.5,41.2c-3.9-3-8.7-4.6-13.6-4.6h-0.7V39h0.7c4.3,0,8.5,1.4,12,4
								c0.2,0.2,0.5,0.3,0.8,0.3c0.4,0,0.8-0.1,1-0.4C52.1,42.4,52,41.6,51.5,41.2C51.6,41.2,51.6,41.2,51.5,41.2L51.5,41.2"/>
							<path id="Trazado_188" class="st12" d="M57.6,33.7C53,27.6,45.7,24,38,24.1h-0.8v33.1h20.6v7.3H62V46.7
								C62,42.1,60.4,37.5,57.6,33.7"/>
							<path id="Trazado_189" class="st10" d="M16.1,64.5h-3.5V46.7c0.4-12.9,11.1-23,24-22.7H38c7.7-0.1,15,3.5,19.7,9.7
								c2.8,3.8,4.3,8.3,4.3,13v17.7h-4.1v-7.3H16.1V64.5z"/>
							<path id="Trazado_190" class="st13" d="M48.6,59.2c-3.9-0.1-7.3,2.8-7.8,6.7h-5.9c-0.4-4.1-4-7.1-8.1-6.7s-7.1,4-6.7,8.1
								s4,7.1,8.1,6.7c3.4-0.3,6.1-2.8,6.7-6.2h6.1c0.7,3.7,4,6.3,7.7,6.2c4.1,0.2,7.6-2.9,7.8-7s-2.9-7.6-7-7.8
								C49.2,59.2,48.9,59.2,48.6,59.2 M27.2,72.1c-3-0.2-5.3-2.8-5.2-5.8c0.2-3,2.8-5.3,5.8-5.2c2.9,0.2,5.2,2.6,5.2,5.5
								C32.9,69.7,30.3,72.1,27.2,72.1C27.2,72.1,27.2,72.1,27.2,72.1 M48.6,72.1c-3-0.2-5.3-2.8-5.2-5.8c0.2-3,2.8-5.3,5.8-5.2
								c2.9,0.2,5.2,2.6,5.2,5.5C54.3,69.7,51.7,72.1,48.6,72.1"/>
							<path id="Trazado_191" class="st13" d="M48.6,59.2c-3.9-0.1-7.2,2.8-7.8,6.7h-3.4v1.9h3.5c0.7,3.7,4,6.3,7.7,6.2
								c4.1,0.2,7.6-2.9,7.8-7c0.2-4.1-2.9-7.6-6.9-7.8C49.2,59.2,48.9,59.2,48.6,59.2 M48.6,72.1c-3-0.2-5.3-2.8-5.2-5.8
								c0.2-3,2.8-5.3,5.8-5.2c2.9,0.2,5.2,2.6,5.2,5.5C54.3,69.7,51.7,72.1,48.6,72.1"/>
						</g>
					</g>
				</g>
			</g>
		</g>
		<g id="Componente_42_9">
			<path id="Rectángulo_124-6" class="st14" d="M102.5,0H75.3c-9.8,0-17.7,7.9-17.7,17.7c0,0,0,0,0,0l0,0c0,9.8,7.9,17.7,17.7,17.7
				c0,0,0,0,0,0h27.2c9.8,0,17.7-7.9,17.7-17.7l0,0C120.2,7.9,112.3,0,102.5,0z"/>
			<circle id="Elipse_54-14" class="st1" cx="75.3" cy="17.7" r="9.5"/>
		</g>
	</g>
</g>
</svg>
