<svg id="Layer_1" data-name="Layer 1" xmlns="http://www.w3.org/2000/svg" viewBox="0 0 328.57 169.29"><defs><style>.cls-1{fill:#fff;}</style></defs><g id="Grupo_900" data-name="Grupo 900"><path id="Trazado_401" data-name="Trazado 401" class="cls-1" d="M27.49,163.6l-.4,1.43-.39.08-.16,1-.32,1.19-.52.07-.08.92a1.12,1.12,0,0,0-.63,0l-.2.44a56.06,56.06,0,0,1-4.46-17.06c-1.35,4.25-3.38,10-4.65,13.4-.28.83-4,2.19-4.37-1.39-1-2.19-2.51-6.13-4.18-10.1-.64,6-1.39,10.49-1.39,10.49L5.22,164l-1.51,2.66-1,.32-.32.64s-.64-.52-1-.36-.55,1-.79,1a228.17,228.17,0,0,0,.75-26.92l-.07-.12h.07A7.9,7.9,0,0,0,1.2,140a6.39,6.39,0,0,1,3.22-.16c2.13-.43,4.49-.08,5,1.75,1.59,5.49,3,10.62,3.85,13.84,2.19-5.93,5-11.81,6.09-14a6.46,6.46,0,0,1,0-.88c1.59-1,5.56-1.55,6.48.28a18.08,18.08,0,0,1,.4,6.09A138.44,138.44,0,0,0,27.49,163.6Z" transform="translate(0 0)"/><path id="Trazado_402" data-name="Trazado 402" class="cls-1" d="M50.16,157.84c0,.27-.76,1-.76,1l-.2.48-1.51.71,1.12.12a8.19,8.19,0,0,0-1.75.94c-.68.52-.88,1.08-1.39,1.28a75.17,75.17,0,0,0-16.88,5.78c-1.23.59-3.5-4.62-1.51-5.65a4.14,4.14,0,0,1,.88-.35c0-6.8.2-18.77-.52-21.32a7.46,7.46,0,0,1,3.14-.47A148.12,148.12,0,0,1,46.69,140a5.57,5.57,0,0,0,0,1,4.1,4.1,0,0,0-1.23.87l-.92.68h.8l-1.31.67-.05.48s-1.58.67-1.82.75-4.26.68-7.76,1.24v.94c0,1-.12,2-.2,3a85.79,85.79,0,0,1,10-.64,2.86,2.86,0,0,1-.32.84l-.16,1-1.23.67H43l-1.31.84v.39l-1.54.48-.27.48s-1.43.67-2,.87c-.24,0-2.43.63-4.42,1.11-.2,2.11-.43,3.74-.59,4.75C38.26,158.59,45.54,157,50.16,157.84Zm-8.75-21.48A20.22,20.22,0,0,0,36,138.75c-2.43.95-2.62-1.31-2.27-3.06,1.36-3.55,4.3-5,5.09-4.78a3.75,3.75,0,0,1,2.93,4.42,3.28,3.28,0,0,1-.38,1Z" transform="translate(0 0)"/><path id="Trazado_403" data-name="Trazado 403" class="cls-1" d="M69.4,141.61C69.33,143,65,146.51,60,152.67a41,41,0,0,0,8.39,10.9,4.63,4.63,0,0,1-.12.91l.24.64-.64-.2.12.39-.56.24a4.66,4.66,0,0,1-4.73.44,31,31,0,0,1-6.84-7.87,72,72,0,0,0-5.41,9.26l-.12-.32-.64.67-.16-.28c-.23,0-.55-.31-.55-.31a.84.84,0,0,1-.88-.28,3.85,3.85,0,0,1-.27-1.87,39.48,39.48,0,0,1,5.4-11.09A92.82,92.82,0,0,1,47,141.25a8,8,0,0,1,4.81-2.55c2.63,0,3.62,3.82,5.89,9.11a78.54,78.54,0,0,1,8.47-9.3S69.56,139.15,69.4,141.61Z" transform="translate(0 0)"/><path id="Trazado_404" data-name="Trazado 404" class="cls-1" d="M75.76,146.27c-.32,8.23-1.15,17.89-1.15,17.89l-.28-.36-.2,1-.48.12-.51,1.47-1.16.67-.67.92L71,167.7l-.32,1.07-.52.44c-.28-1.66-.16-24.06-1.07-28.79a.67.67,0,0,1,.55-.59C71.38,139.39,76,138.91,75.76,146.27Z" transform="translate(0 0)"/><path id="Trazado_405" data-name="Trazado 405" class="cls-1" d="M85.94,167.34c-5.37,0-11-4-10.7-12.68.52-15.23,17.26-17.06,17.14-12,0,1.75-1,4.49-2.23,5-6.32-3.22-11.57,2.62-11.72,7.55a7,7,0,0,0,7.23,6,9.9,9.9,0,0,0,9-7.08c0-1.47.88,0,.88,0a10.19,10.19,0,0,1-9.6,13.21Z" transform="translate(0 0)"/><path id="Trazado_406" data-name="Trazado 406" class="cls-1" d="M97.55,140.62c1.66-.76,3.86,1.11,4,1.9.08.28,0,.87-.39.95a9.69,9.69,0,0,0-1.63,5.37c0,4.49,2.3,6,2.74,6,.76.08,2.94-2,2.94-6.6,0-5.84-3.61-5.61-3.61-5.61h-.16l.32-.28-.28-.27a.83.83,0,0,1,.47-.56c2-.91,8,.8,8,8.06,0,5.89-3,10.86-7.63,10.78-5.22-.08-8.19-6.88-8.19-10.34A13.37,13.37,0,0,1,97.55,140.62Zm0,27.56a28.17,28.17,0,0,1,12.1-1.63l.35.2s.36-1.35.44-1.63-.55-1.15-.55-1.15l.32-.08-.52-.64h.2c-1.24-2.15-10.58-3-14.76-.55-1.16,2.58-.37,6.39,2.42,5.48Z" transform="translate(0 0)"/><path id="Trazado_407" data-name="Trazado 407" class="cls-1" d="M137.87,159.87l-.56,1.11.24.12a2.83,2.83,0,0,1-.71.47A66.12,66.12,0,0,0,124,169.21c-1.19.87-5.61-5.49-3.14-6.8a2.33,2.33,0,0,1,.55-.32c.56-7.16,1.59-20,.24-22.71,0,0,7.08-3.38,7.08,4.85a84.47,84.47,0,0,1-1.87,15.12,25.13,25.13,0,0,1,11-2.87l-.79.52c.07.16,1.15.28,1.18.47s-.44.92-.44.92Z" transform="translate(0 0)"/><path id="Trazado_408" data-name="Trazado 408" class="cls-1" d="M143.79,146.27c-.32,8.23-1.15,17.89-1.15,17.89l-.28-.36-.2,1-.48.12-.51,1.47-1.16.67-.67.92-.32-.28-.32,1.07-.51.44c-.28-1.66-.16-24.06-1.08-28.79a.67.67,0,0,1,.56-.59C139.41,139.39,144,138.91,143.79,146.27Z" transform="translate(0 0)"/><path id="Trazado_409" data-name="Trazado 409" class="cls-1" d="M164.86,166.55a3.16,3.16,0,0,1-6-1.07,169.19,169.19,0,0,1-8-15.16c-.47,6.84-1.18,13.29-1.18,13.29l-.24-.12-1,2.1-.6.32-.47,1.39-.48-.43-.56,1.47a2.16,2.16,0,0,0-.71.12,1.32,1.32,0,0,0-.47.47c-.28-1.71.23-25.65-.71-29.15a6,6,0,0,1,1.63-.35,4.35,4.35,0,0,1,6,1.42l0,0a2.71,2.71,0,0,1,.21.37c1.95,5.57,4.85,12.17,6.6,16.11a164.14,164.14,0,0,1,2.28-19.77l.27,1,.32-.48c.12.12.4,1.47.52,1.66s.71.08.71.08a26.73,26.73,0,0,1,1.63,3.86l.12.4A121,121,0,0,0,164.86,166.55Z" transform="translate(0 0)"/><path id="Trazado_410" data-name="Trazado 410" class="cls-1" d="M187.25,155.15c0,10.3-11.69,11.86-15.39,11.86a5.38,5.38,0,0,1-1.11-.08l-.24.52h-.71l-.44,1.07-.44-.11-.36.47c0-.28-.07-1.19-.11-2.46-2.67-1-5.61-3.47-5.61-9.39,0,0,.67-1.39.67,0,0,1.07,2,2.63,4.77,3.38-.11-4.61-.27-10.1-.55-13.88a25.67,25.67,0,0,0-3,.72c-1.31-.6-2.67-4.74-1.15-6.29S187.37,136.24,187.25,155.15ZM172,160.84v-5l-.36,5Zm1.18-14.25c-.07,4.69-.31,11-.47,14.23,5-.39,11-4,11.21-7,.17-2.54-4.6-6.24-10.73-7.21Z" transform="translate(0 0)"/><path id="Trazado_411" data-name="Trazado 411" class="cls-1" d="M189,140.62c1.66-.76,3.85,1.11,4,1.9.08.28,0,.87-.39.95a9.69,9.69,0,0,0-1.63,5.37c0,4.49,2.3,6,2.74,6,.76.08,2.94-2,2.94-6.6,0-5.84-3.61-5.61-3.61-5.61h-.16l.32-.28-.28-.27a.83.83,0,0,1,.47-.56c2-.91,8,.8,8,8.06,0,5.89-3,10.86-7.64,10.78-5.22-.08-8.19-6.88-8.19-10.34A13.34,13.34,0,0,1,189,140.62Zm0,27.56a28.11,28.11,0,0,1,12.09-1.63l.36.2s.36-1.35.44-1.63-.56-1.15-.56-1.15l.32-.08-.51-.64h.2c-1.24-2.15-10.58-3-14.76-.55-1.17,2.58-.37,6.39,2.42,5.48Z" transform="translate(0 0)"/><path id="Trazado_412" data-name="Trazado 412" class="cls-1" d="M222.76,167.34c-5.37,0-11-4-10.7-12.68.52-15.23,17.26-17.06,17.14-12,0,1.75-1,4.49-2.23,5-6.32-3.22-11.57,2.62-11.73,7.55a7,7,0,0,0,7.24,6,9.9,9.9,0,0,0,9-7.08c0-1.47.87,0,.87,0a9.87,9.87,0,0,1-6.11,12.55h0A9.86,9.86,0,0,1,222.76,167.34Z" transform="translate(0 0)"/><path id="Trazado_413" data-name="Trazado 413" class="cls-1" d="M234.37,140.62c1.66-.76,3.85,1.11,4,1.9.08.28,0,.87-.4.95a9.76,9.76,0,0,0-1.62,5.37c0,4.49,2.3,6,2.74,6,.76.08,2.94-2,2.94-6.6,0-5.84-3.62-5.61-3.62-5.61h-.16l.32-.28-.28-.27a.84.84,0,0,1,.48-.56c2-.91,8,.8,8,8.06,0,5.89-3,10.86-7.63,10.78-5.22-.08-8.19-6.88-8.19-10.34A13.37,13.37,0,0,1,234.37,140.62Zm0,27.56a28.11,28.11,0,0,1,12.09-1.63l.36.2s.36-1.35.44-1.63-.56-1.15-.56-1.15l.32-.08-.52-.64h.2c-1.23-2.15-10.57-3-14.75-.55-1.16,2.58-.37,6.39,2.41,5.48Z" transform="translate(0 0)"/><path id="Trazado_414" data-name="Trazado 414" class="cls-1" d="M267.37,166.55a3.17,3.17,0,0,1-6-1.07c-2.74-4.3-5.52-10.15-8-15.16-.51,6.83-1.21,13.29-1.21,13.29l-.24-.12-1,2.11-.59.32-.48,1.39-.47-.44-.56,1.48a1.92,1.92,0,0,0-.71.11,1.35,1.35,0,0,0-.47.48c-.28-1.71.23-25.65-.71-29.15a6.51,6.51,0,0,1,1.63-.36,4.37,4.37,0,0,1,6,1.46c.07.12.14.24.2.37,1.95,5.57,4.85,12.17,6.6,16.11a164.28,164.28,0,0,1,2.35-19.77l.27,1,.32-.48c.12.12.4,1.47.52,1.66s.71.08.71.08a25.66,25.66,0,0,1,1.63,3.86l.12.39A121.89,121.89,0,0,0,267.37,166.55Z" transform="translate(0 0)"/><path id="Trazado_415" data-name="Trazado 415" class="cls-1" d="M290.83,140.66a6.71,6.71,0,0,1-4.89,5.25c-2,.07-3.9.2-5.57.28-.24,8-1.35,17.17-1.35,17.17l-.87,2h-.32l-.64,1.42a.27.27,0,0,0-.47,0l-.37.84H276l-.52.8-.36-1-.52,1.4c-.2-1.24-.16-13.92-.51-22.27l-6.29.35c-3.34.08-3.42-6.44-1.27-6.76a54.59,54.59,0,0,1,7.12-.35,1.13,1.13,0,0,1,.43-.32,5.14,5.14,0,0,1,4.26.44C282.32,140,286.58,140.34,290.83,140.66Z" transform="translate(0 0)"/><path id="Trazado_416" data-name="Trazado 416" class="cls-1" d="M292.66,146.27c-.32,8.23-1.16,17.89-1.16,17.89l-.27-.36-.2,1-.48.12-.52,1.47-1.15.67-.67.92-.32-.28-.32,1.07-.52.44c-.28-1.66-.16-24.06-1.07-28.79a.67.67,0,0,1,.55-.59C288.28,139.39,292.9,138.91,292.66,146.27Z" transform="translate(0 0)"/><path id="Trazado_417" data-name="Trazado 417" class="cls-1" d="M303.63,167.26c-5.37,0-11-4-10.69-12.68.51-15.23,17.25-17.06,17.13-12,0,1.74-.95,4.49-2.22,5-6.33-3.22-11.57,2.62-11.73,7.55a7,7,0,0,0,7.23,6.05,10.15,10.15,0,0,0,7.72-4.26c-2.9-.2-7.79-.71-8.07-.71a9.29,9.29,0,0,1-4.05-3.34,24.46,24.46,0,0,1,5.29-1,39.48,39.48,0,0,0-5.85.4c-.27-.08-.44-.16-.47-.32a73.36,73.36,0,0,1,13.64-1.11c1.63.2,2.31,3.66,2,5.29a9.71,9.71,0,0,1-8.22,11,10.62,10.62,0,0,1-1.78.09Z" transform="translate(0 0)"/><path id="Trazado_418" data-name="Trazado 418" class="cls-1" d="M315.68,140.62c1.66-.76,3.86,1.11,4,1.9.08.28,0,.87-.39.95a9.69,9.69,0,0,0-1.63,5.37c0,4.49,2.3,6,2.74,6,.76.08,3-2,3-6.6,0-5.84-3.62-5.61-3.62-5.61h-.16l.32-.28-.28-.27a.82.82,0,0,1,.48-.56c2-.91,8,.8,8,8.06,0,5.89-3,10.86-7.64,10.78-5.21-.08-8.19-6.88-8.19-10.34A13.36,13.36,0,0,1,315.68,140.62Zm0,27.56a28.17,28.17,0,0,1,12.1-1.63l.36.2s.36-1.35.43-1.63S328,164,328,164l.32-.08-.52-.64h.2c-1.24-2.15-10.58-3-14.75-.55-1.17,2.58-.37,6.39,2.41,5.48Z" transform="translate(0 0)"/><path id="Trazado_419" data-name="Trazado 419" class="cls-1" d="M.05,44v-.66A1.23,1.23,0,0,0,.05,44Z" transform="translate(0 0)"/><path id="Trazado_420" data-name="Trazado 420" class="cls-1" d="M85.58,49.15c-.17,1.22-.22,2.46-.47,3.68s-.71,2.61-1,3.91c-.23.94.07,1.15,1.17,1s2.07-.19,3.1-.31a8.37,8.37,0,0,0,1-.18c-2-2.87-1.49-6.25-3.36-9.37A7.07,7.07,0,0,0,85.58,49.15Z" transform="translate(0 0)"/><path id="Trazado_421" data-name="Trazado 421" class="cls-1" d="M89.71,1.89,66.94,46l-20-44.09H.65L.16,39.7C2,41.39,5.54,43.14,7.33,44.84s3.25,3.32,5.11,4.79c1.08.85,2.93,1,3.66,2.3,3.08,1.13,6.13,2.29,9.22,3.4.93.33,1.33,0,1.39-.79a13.81,13.81,0,0,1,.23-2.8,7,7,0,0,1,3.85-4.64,1.44,1.44,0,0,1,1.93.34,6.09,6.09,0,0,0,2.7,1.72c1,.21,2-.07,2.32,1.13,0,.16.53.26.82.36,1.62.57,2.13,1.38,1.68,2.8a1,1,0,0,0,.44,1.33,1,1,0,0,0,.37.1,6.38,6.38,0,0,0,2.21.33c1.53-.17,3-.54,4.54-.82A15.36,15.36,0,0,1,54.09,54c2.47.55,4.91,1.21,7.35,1.83,1.07.27,2.14.59,3.23.78,1.38.23,2.8.36,4.2.49A2,2,0,0,0,70,57a13,13,0,0,0,2.77-2.35c1.19-1.66,2-3.48,3.13-5.19,1.87-2.91,3.74-5.82,5.79-8.65a6.06,6.06,0,0,1,2.87-2.3A4.92,4.92,0,0,1,90.75,41c.61,1.59,1.16,3.2,1.89,4.75,1.19,2.55,2.42,5.09,3.79,7.59.54,1,.27,1.51-.65,2.09a1,1,0,0,0-.43,1c.05.21.71.44,1.06.41a32.36,32.36,0,0,0,10.49-2.35,2.92,2.92,0,0,0,1.92-3.32,16.06,16.06,0,0,1,.22-3.39c.11-.71.78-1.77,1.68-1.4s1,1.89,1.14,3a17.16,17.16,0,0,0,.75,3.32c.24.79,1,.86,1.68.42,1.15-.72,2.23-1.49,3.36-2.22.31-.2.7-.33,1-.5a7.92,7.92,0,0,0,1.94-1c3.55-3.5,7.07-7,10.5-10.59.86-.89,3.82-3.28,3.82-3.28V1.89ZM32.58,7.09c2.69-1,4.41,3.32,5.05,5.56a10,10,0,0,0-3-2.44c-1.09-.51-5.26-1.94-2.05-3.12Zm-11.27,7c2.11,1.93-.91,5.46-2.59,7.05a9.64,9.64,0,0,0,.77-3.78c-.06-1.21-.72-5.53,1.82-3.21ZM17.14,13c2,.39,1.46,3.63,1,5.22a6.83,6.83,0,0,0-.92-2.58c-.45-.66-2.45-3.07-.06-2.6Zm11.15,3.83c.47-1,2.07-.86,2.72-.08,1.8,2.24-4.08,3.08-2.72.12Zm4.54-1.31c.37-.78,1.57-.65,2.06,0,1.36,1.65-3.08,2.29-2,0Zm3.25,2.07c.29-.62,1.24-.52,1.64,0C38.8,18.9,35.26,19.41,36.08,17.58Zm5.07,8.27a5.43,5.43,0,0,1-1,2.71c-.14,0,.2-1,.33-2.8a15.26,15.26,0,0,0-.1-3.24,14.85,14.85,0,0,0-1.13-4.07,9.14,9.14,0,0,0-3-3.87,6.7,6.7,0,0,0-5.18-1.21,9.9,9.9,0,0,0-4.91,3.78c-1.47,1.76-2.82,3.8-4.45,5.76A21.33,21.33,0,0,1,19,25.68a10.11,10.11,0,0,1-3.4,1.91,7.74,7.74,0,0,1-3.85.2,7.28,7.28,0,0,1-3.3-1.69,6.34,6.34,0,0,1-1.89-3,5.73,5.73,0,0,1,.07-3.38,6.55,6.55,0,0,1,1.72-2.58l.54-.47a4.14,4.14,0,0,1,.61-.42,4.87,4.87,0,0,1,1.32-.53,6.14,6.14,0,0,1,2.56-.09,6.82,6.82,0,0,1,2.14.75A4.31,4.31,0,0,1,17,17.75a2.43,2.43,0,0,1,.36,1.72,2.57,2.57,0,0,1-.63,1.21,3.48,3.48,0,0,1-.71.62c-.41.27-.67.35-.7.31s.15-.24.48-.58a4.81,4.81,0,0,0,.52-.67,2,2,0,0,0,.36-1,1.68,1.68,0,0,0-.37-1.16,3.79,3.79,0,0,0-1.25-1,5.53,5.53,0,0,0-3.9-.33,3.75,3.75,0,0,0-1,.45l-.44.33-.44.42A5.23,5.23,0,0,0,8,20.12a4.23,4.23,0,0,0,0,2.49,5,5,0,0,0,1.49,2.24,5.94,5.94,0,0,0,2.58,1.26,6.23,6.23,0,0,0,3-.2,12.2,12.2,0,0,0,5.26-4.16c1.55-1.88,2.91-3.9,4.47-5.75a17.77,17.77,0,0,1,2.58-2.55,8.1,8.1,0,0,1,3.29-1.61A7,7,0,0,1,34.2,12c.27.08.52.19.78.28a5.4,5.4,0,0,1,.74.33c.24.13.48.24.71.38l.65.46.32.24.28.26.55.53a11.18,11.18,0,0,1,.92,1.14,11,11,0,0,1,.71,1.19A9.18,9.18,0,0,1,40.4,18a15,15,0,0,1,1,4.47,14,14,0,0,1-.22,3.42ZM11.09,19.38c.47-1,2-.85,2.68-.07,1.77,2.2-4,3-2.68.11Zm31.55,1.55a15,15,0,0,0-1.76-5.69c-1-1.59-5.1-7,0-5.76,4.3,1,2.82,8,1.74,11.44Zm80.52-7.78c2.78.69,1.79,5.21,1.07,7.42a9.59,9.59,0,0,0-1.12-3.69c-.61-1-3.26-4.56.06-3.74Zm-13.28-.48c.67,2.78-3.8,4-6.09,4.39a9.43,9.43,0,0,0,2.75-2.7c.64-1,2.53-5,3.35-1.7Zm-2.82-3.26c1.43,1.44-.83,3.84-2.08,4.91a7,7,0,0,0,.68-2.65c0-.86-.36-4,1.36-2.26Zm7.09,9.42c1-.59,2.2.45,2.29,1.46C116.7,23.12,111.35,20.52,114.15,18.83Zm7.67,12a14.11,14.11,0,0,1-2.08,2.72c-1.33,1.33-2.31,1.76-2.36,1.67s.74-.72,1.85-2.13A15.62,15.62,0,0,0,121,30.35a14.51,14.51,0,0,0,1.34-4,9,9,0,0,0-.35-4.9,6.66,6.66,0,0,0-3.61-3.91,9.92,9.92,0,0,0-6.14.31c-2.19.64-4.45,1.56-6.9,2.28a21.16,21.16,0,0,1-3.78.79,10,10,0,0,1-3.89-.33,7.86,7.86,0,0,1-3.3-2,7.46,7.46,0,0,1-1.78-3.26,6.4,6.4,0,0,1,.1-3.55,5.71,5.71,0,0,1,2-2.76,6.37,6.37,0,0,1,2.86-1.17l.72-.09a4.57,4.57,0,0,1,.74,0,4.73,4.73,0,0,1,1.39.3,6.22,6.22,0,0,1,2.17,1.36,6.5,6.5,0,0,1,1.34,1.82,4.11,4.11,0,0,1,.46,2,2.31,2.31,0,0,1-.67,1.63,2.55,2.55,0,0,1-1.18.65,3.73,3.73,0,0,1-.94.12c-.5,0-.75-.08-.75-.13s.25-.11.71-.22a4.67,4.67,0,0,0,.8-.26,2.11,2.11,0,0,0,.86-.62,1.75,1.75,0,0,0,.34-1.17,3.51,3.51,0,0,0-.5-1.5,5.61,5.61,0,0,0-3-2.46,3.93,3.93,0,0,0-1.07-.18h-.55l-.6.1a5.17,5.17,0,0,0-2.21,1,4.23,4.23,0,0,0-1.38,2.07,4.92,4.92,0,0,0,0,2.69,5.74,5.74,0,0,0,1.43,2.48A6.06,6.06,0,0,0,98.21,19a12.17,12.17,0,0,0,6.68-.5c2.33-.68,4.6-1.6,6.93-2.25a17.21,17.21,0,0,1,3.56-.67A8.11,8.11,0,0,1,119,16a7,7,0,0,1,2.81,2.1c.19.22.33.45.49.67a4.17,4.17,0,0,1,.43.69c.13.24.27.48.39.72l.27.74.14.37.08.38c.06.23.11.5.17.74a14.13,14.13,0,0,1,.11,1.46,9.26,9.26,0,0,1-.08,1.39,8.21,8.21,0,0,1-.22,1.3,14.84,14.84,0,0,1-1.7,4.26Zm-3.18-10.5c.74-.45,1.66.34,1.74,1.1.2,2.14-3.84.17-1.74-1.11Zm2.91,4.41c.16,1.7-3.06.14-1.38-.88.55-.39,1.29.29,1.34.85ZM98.46,11.35c1-.59,2.17.44,2.26,1.44C101,15.58,95.72,13,98.46,11.35Zm25.27,19a15,15,0,0,0,1.73-5.69c.09-1.87-.3-8.66,3.26-4.76,3,3.27-2.17,8.23-5,10.45Z" transform="translate(0 0)"/><path id="Trazado_422" data-name="Trazado 422" class="cls-1" d="M.28,42.86l-.22.48V44c.53,1.95,6.07,2.86,6.76,3.29L7,47C5.16,45.41.72,41.43.28,42.86Z" transform="translate(0 0)"/><path id="Trazado_423" data-name="Trazado 423" class="cls-1" d="M126.05,46.47l7.74-4.39V38.87l-8,7.37Z" transform="translate(0 0)"/><path id="Trazado_424" data-name="Trazado 424" class="cls-1" d="M277.72,26.72c-.86.14-1.69,1.25-1.12,2.06C278.21,31.07,280.16,26.33,277.72,26.72Z" transform="translate(0 0)"/><path id="Trazado_425" data-name="Trazado 425" class="cls-1" d="M271.83,12.7c-.86.14-1.68,1.25-1.12,2.06C272.33,17.06,274.24,12.31,271.83,12.7Z" transform="translate(0 0)"/><path id="Trazado_426" data-name="Trazado 426" class="cls-1" d="M271.88,19.51c1.62,2.3,3.53-2.45,1.12-2.05C272.16,17.6,271.32,18.71,271.88,19.51Z" transform="translate(0 0)"/><path id="Trazado_427" data-name="Trazado 427" class="cls-1" d="M274.08,24.36c1.61,2.3,3.53-2.45,1.11-2.06C274.31,22.44,273.5,23.55,274.08,24.36Z" transform="translate(0 0)"/><path id="Trazado_428" data-name="Trazado 428" class="cls-1" d="M293.37,89.65a75.72,75.72,0,0,1-10.91-1.5,26,26,0,0,1-8.82-4.27,20.6,20.6,0,0,1-5.9-7.14A23,23,0,0,1,265.5,66a29.38,29.38,0,0,1,2.37-12.55A22.63,22.63,0,0,1,274,45.38a25,25,0,0,1,8.8-4.67,46.43,46.43,0,0,1,10.93-1.56c22.36-1.27,33.79,5,33.79,5V9.46l-3.84-1.84a76.2,76.2,0,0,0-16.92-5.73A86.62,86.62,0,0,0,288.62,0a79.44,79.44,0,0,0-24,3.71A61.88,61.88,0,0,0,243.06,15.6,59.06,59.06,0,0,0,227.7,36.36,71.08,71.08,0,0,0,222,66.05a63.89,63.89,0,0,0,5.91,28.45,57.5,57.5,0,0,0,15.49,19.65A62.81,62.81,0,0,0,265,125.41a85.24,85.24,0,0,0,24.22,3.52,81.58,81.58,0,0,0,35.15-7.64l3.87-1.83V82.66S316.05,90.69,293.37,89.65ZM314.3,19a14.13,14.13,0,0,1,3.29,2.56,10.53,10.53,0,0,1,1.33,1.72,7.64,7.64,0,0,1,.89,2,6,6,0,0,1-.27,4.18,4.12,4.12,0,0,1-1.32,1.63,2.85,2.85,0,0,1-2,.52,3.12,3.12,0,0,1-1.73-.8,3.6,3.6,0,0,1-.95-1.36l-.14-.35-.09-.36-.07-.36v-1a3.42,3.42,0,0,1,.09-.63,3.37,3.37,0,0,1,.46-1c.16-.27.32-.5.47-.72.6-.79.87-1.23,1-1.2s0,.64-.37,1.55a6.5,6.5,0,0,0-.55,1.55,3.66,3.66,0,0,0,.4,2,2.14,2.14,0,0,0,1.68,1.22c.68.07,1.33-.48,1.7-1.36a3.66,3.66,0,0,0,.31-1.42,4.83,4.83,0,0,0-.22-1.56,7.89,7.89,0,0,0-1.84-3,12.88,12.88,0,0,0-2.87-2.27A21.85,21.85,0,0,0,310.35,19a19.11,19.11,0,0,0-5.77-1.35,10.42,10.42,0,0,0-3.92.45c-.22.08-.44.12-.6.2l-.43.18c-.24.09-.4.12-.44.07s0-.17.24-.37l.37-.34a4.45,4.45,0,0,1,.58-.38,8.87,8.87,0,0,1,4.22-1.09,17.79,17.79,0,0,1,6.34,1.07A21.75,21.75,0,0,1,314.3,19ZM305,12.19c3.16,2.17-1.76,2.56-3.08,2.81A10.94,10.94,0,0,0,298,16.8C299.32,14.57,302.38,10.38,305,12.19Zm-6.36-3.34c3.81-.41.33,3.08-.52,4.15a10.69,10.69,0,0,0-1.8,3.92c-.46-2.56-.86-7.77,2.32-8.07Zm-12.33,12.3a10.68,10.68,0,0,1-1.82,5.05,33.28,33.28,0,0,1-2.74-5.47,65.9,65.9,0,0,1-3.12-8.85l-.27-1.12A9.66,9.66,0,0,1,286.31,21.15ZM275.16,10.68c.17,1,.41,1.91.63,2.85a64.54,64.54,0,0,0,3.12,8.85,32.06,32.06,0,0,0,3.25,6.26,14.49,14.49,0,0,0,1.42-1.29,16,16,0,0,1-2.94,2.44,14.79,14.79,0,0,1-4.37,1.85,33.26,33.26,0,0,1-4.87-8.35,65.9,65.9,0,0,1-3.12-8.85c-.11-.44-.22-.89-.32-1.34A18.46,18.46,0,0,1,275.16,10.68ZM264.23,24.15a17.07,17.07,0,0,1-.25-5.79,6.59,6.59,0,0,1,2.59-4.27,8.44,8.44,0,0,0-1.29,1.38l.15.61a66.53,66.53,0,0,0,3.12,8.86,35.3,35.3,0,0,0,4,7.18,7.41,7.41,0,0,1-3-.63,9,9,0,0,1-4.21-4.27c-.95.61-1.79,1.08-2.13,1.3-.56.34-1.09.71-1.61,1.06-.44-1.13-1-2.81-1.37-3.89l-2.29.89c2.06-.87,4.18-1.65,6.3-2.43Zm-7.59,3,.57-.26c.5,1.36,1.14,3.36,1.67,4.7-1.32,1-2.63,2.05-4.07,3l-.48.29-.15-.35c-.65-1.66-1.57-3.53-2.19-5.22,1.58-.89,3.34-1.6,4.63-2.18Zm-8.71,5.94a5.07,5.07,0,0,1,1.32-1.85c.59,1.56,1.44,3.3,2,4.83-2.4.54-4.57.07-3.39-3Zm-.77,14.58c3.29-.67,4.53,4.63,4.89,7.34A11.35,11.35,0,0,0,249,51.66c-1.2-.79-5.79-3.18-1.86-4Zm-7.35.11c2.94-1.61,5.69,3.09,6.84,5.56a11.4,11.4,0,0,0-3.9-2.3c-1.4-.39-6.49-1.32-3-3.25Zm-7.48,3c2-2.7,6.47.41,8.54,2.18a11.47,11.47,0,0,0-4.51-.45c-1.43.21-6.45,1.5-4.06-1.73ZM228,58.15c.07-3.36,5.52-3.4,8.23-3.15a11.33,11.33,0,0,0-3.94,2.23c-1.06,1-4.41,4.94-4.32.92ZM233,65.5a9.06,9.06,0,0,1,.08-4.36,9.4,9.4,0,0,1,2-3.7,11.27,11.27,0,0,1,6.85-3.51,13.8,13.8,0,0,1,1.82-.13,6.61,6.61,0,0,1,.89,0l.88.08a14,14,0,0,1,3.24.87,17.93,17.93,0,0,1,5,3.08A20.76,20.76,0,0,1,257,61.39a13,13,0,0,1,1,1.68c.14.27.29.52.41.77s.22.49.32.71a6.51,6.51,0,0,1,.76,3,20.62,20.62,0,0,1-1.43-2.66l-.37-.65c-.14-.22-.31-.45-.47-.69A17.12,17.12,0,0,0,256.13,62a20.81,20.81,0,0,0-3.3-3.13,17,17,0,0,0-4.74-2.65,13.76,13.76,0,0,0-2.9-.69h-.76a5,5,0,0,0-.77,0,10.69,10.69,0,0,0-1.59.15,9.54,9.54,0,0,0-5.71,3,7.21,7.21,0,0,0-1.64,6.4,8.07,8.07,0,0,0,1.55,3.13,10.94,10.94,0,0,0,2.61,2.33,9.81,9.81,0,0,0,6.3,1.57,6.16,6.16,0,0,0,4.89-2.67l.19-.27.14-.31a4,4,0,0,0,.25-.6A8.23,8.23,0,0,0,251,67a8.45,8.45,0,0,0-.07-2.51,9.13,9.13,0,0,0-1.63-4A3.42,3.42,0,0,0,246.64,59a4.38,4.38,0,0,0-2,.52c-.45.22-.7.35-.74.29s.12-.27.53-.61a4.05,4.05,0,0,1,2.19-1,3.4,3.4,0,0,1,1.78.31,5.05,5.05,0,0,1,1.69,1.28,9.83,9.83,0,0,1,2.13,4.47,9.62,9.62,0,0,1,.21,2.93,10.4,10.4,0,0,1-.32,1.57,6.58,6.58,0,0,1-.29.78l-.17.4-.22.37a7.15,7.15,0,0,1-.49.73l-.59.67-.69.58a7.66,7.66,0,0,1-.76.5,9.3,9.3,0,0,1-3.52,1.11,11.62,11.62,0,0,1-3.81-.21,12.7,12.7,0,0,1-1.9-.6,10.85,10.85,0,0,1-1.78-1,12.73,12.73,0,0,1-3.09-2.72,9.8,9.8,0,0,1-1.91-3.88Zm22.93,1.76c-1.09.55-2.31-.65-2.33-1.74-.08-3,5.41.17,2.3,1.75Zm-13.72,2.89c-.56.28-1.19-.34-1.19-.89-.06-1.54,2.75.09,1.16.89Zm-3.19-7c.38,1.25,2.24,5.66-1,3.91-2.73-1.46-.49-6,.85-8.09a10.51,10.51,0,0,0,.16,4.18Zm8.87,2.19c-1.62.82-3.42-1-3.45-2.58-.1-4.49,8,.24,3.42,2.58Zm.66,3.79c-.95.48-2-.56-2-1.5C246.43,65,251.18,67.76,248.5,69.13Zm-2.7,2c-.68.34-1.44-.41-1.45-1.09-.06-1.89,3.34.1,1.42,1.08Zm-10.33,3.72c-.79-3.62,2.94-.64,4.05.07a10.34,10.34,0,0,0,4,1.33c-2.44.7-7.39,1.63-8-1.4Zm9.8,23.25A10.56,10.56,0,0,1,252.86,86a11.56,11.56,0,0,1,5.87-.08,36.48,36.48,0,0,1-4.55,4.91,71.13,71.13,0,0,1-7.91,6.58Zm6.39,9.77a20.21,20.21,0,0,1-5.25-6.44c.92-.54,1.8-1.15,2.67-1.73A71,71,0,0,0,257,93.09a36.54,36.54,0,0,0,5.17-5.73,13.43,13.43,0,0,0-1.87-1,17,17,0,0,1,3.63,2.08,16.3,16.3,0,0,1,3.57,3.75,37.16,37.16,0,0,1-6.67,8.21,75.13,75.13,0,0,1-7.87,6.6c-.45.26-.86.54-1.29.82Zm12.73-.41a18.8,18.8,0,0,1-5.83,2.48,7.32,7.32,0,0,1-5.36-1,9.26,9.26,0,0,0,1.9.78l.57-.38a72,72,0,0,0,7.87-6.6,38.87,38.87,0,0,0,5.82-6.85,8,8,0,0,1,.52,3.32,10,10,0,0,1-2.75,5.94c.57.43,1.08.84,1.48,1.16-1,.89-1.94,1.78-2.94,2.64-.45-.5-.88-1-1.31-1.49Zm6,6.62c-.82-.81-1.6-1.66-2.37-2.49,1.18-1,2.35-2.09,3.51-3.14,2.37,1.58,4.79,2.91,7.2,4.63l.47.37-.3.29c-1.45,1.31-3,3-4.51,4.26-1.54-1.32-2.94-2.83-4-3.93Zm9.44,6.64a5.66,5.66,0,0,1-2.41-.64c1.38-1.2,2.83-2.75,4.16-4,1.44,2.22,1.79,4.62-1.78,4.59Zm25.93-9.62a21,21,0,0,1-3.63,1.16,14.19,14.19,0,0,1-4.16.31,11.19,11.19,0,0,1-2.14-.39,7.27,7.27,0,0,1-2-.87,5.91,5.91,0,0,1-2.61-3.28,4.11,4.11,0,0,1-.12-2.09,2.89,2.89,0,0,1,1.16-1.79,3.11,3.11,0,0,1,1.82-.56,3.65,3.65,0,0,1,1.62.36l.35.17.3.21.29.21.25.24.24.23.2.26a3.64,3.64,0,0,1,.35.52,3.55,3.55,0,0,1,.34,1.06,5.72,5.72,0,0,1,.12.83c.09,1,.19,1.49.07,1.55s-.46-.44-.76-1.39a6.51,6.51,0,0,0-.63-1.52,3.88,3.88,0,0,0-1.61-1.19,2.16,2.16,0,0,0-2.06.22,1.86,1.86,0,0,0-.36,2.16,3.74,3.74,0,0,0,.74,1.26,4.6,4.6,0,0,0,1.2,1,7.9,7.9,0,0,0,3.35,1,13.16,13.16,0,0,0,3.65-.24,20.71,20.71,0,0,0,3.37-1,19.19,19.19,0,0,0,5.18-2.87,10.28,10.28,0,0,0,2.61-3c.11-.2.24-.38.31-.55l.2-.43c.12-.23.22-.35.28-.34s.08.16.07.43a4.17,4.17,0,0,1,0,.5,5.06,5.06,0,0,1-.17.67,9,9,0,0,1-2.41,3.64,17.87,17.87,0,0,1-5.43,3.44Zm7.84,0c-3.8.51-.42-3.08.41-4.16a10.84,10.84,0,0,0,1.7-4c.49,2.54,1,7.7-2.14,8.12Zm7-1.79c-2.55,2.85-2.31-2.08-2.39-3.43a10.85,10.85,0,0,0-1.29-4.12c2,1.57,5.79,5.15,3.65,7.54Z" transform="translate(0 0)"/><path id="Trazado_429" data-name="Trazado 429" class="cls-1" d="M258.22,96.89c.48.83,1.93,1.25,2.54.36C262.49,94.7,256.89,94.57,258.22,96.89Z" transform="translate(0 0)"/><path id="Trazado_430" data-name="Trazado 430" class="cls-1" d="M264.31,93c1.73-2.53-3.86-2.67-2.53-.35C262.25,93.43,263.7,93.84,264.31,93Z" transform="translate(0 0)"/><path id="Trazado_431" data-name="Trazado 431" class="cls-1" d="M254.1,101c.47.83,1.92,1.24,2.53.35C258.36,98.81,252.77,98.68,254.1,101Z" transform="translate(0 0)"/><path id="Trazado_432" data-name="Trazado 432" class="cls-1" d="M249.68,104c.47.83,1.93,1.25,2.54.36C254,101.84,248.35,101.7,249.68,104Z" transform="translate(0 0)"/><path id="Trazado_433" data-name="Trazado 433" class="cls-1" d="M187.31,84.75V1.83H144.93l.35,124.61H220l-.36-41.68Zm4.85,15.78h0a26.62,26.62,0,0,1-16,1.62c-1.52-.24-3-.57-4.54-.91l-.12.31.12-.31c.1-.27.2-.54.31-.82a16.29,16.29,0,0,0,4,1,43.62,43.62,0,0,0,6.56.41,18.52,18.52,0,0,0,9.38-2.09c.12.3.23.58.33.87Zm-18.9-1.11a.33.33,0,0,1,.31.36v0a.35.35,0,0,1-.33.31.36.36,0,0,1-.31-.39.35.35,0,0,1,.37-.31Zm1.62.43a.35.35,0,1,1,0,.7.35.35,0,0,1-.37-.33v-.06a.35.35,0,0,1,.37-.31Zm1.84.27a.36.36,0,0,1,.38.32.36.36,0,0,1-.33.38.35.35,0,0,1-.37-.32v-.08A.37.37,0,0,1,176.72,100.12Zm1.81.19a.35.35,0,1,1-.35.35.35.35,0,0,1,.35-.35Zm1.95.15a.32.32,0,0,1,.3.35v0a.34.34,0,0,1-.33.31.34.34,0,0,1-.29-.38h0A.33.33,0,0,1,180.48,100.46Zm1.84,0a.36.36,0,0,1,.31.39.35.35,0,0,1-.33.31.35.35,0,0,1,0-.7Zm1.9-.07a.35.35,0,0,1,.31.38.31.31,0,0,1-.37.23.3.3,0,0,1-.23-.37.31.31,0,0,1,.3-.24Zm1.75-.18a.32.32,0,0,1,.3.35v0a.34.34,0,0,1-.33.31.35.35,0,0,1-.29-.4A.34.34,0,0,1,186,100.21Zm1.85-.32a.35.35,0,0,1,.31.38.35.35,0,0,1-.33.32.35.35,0,0,1,0-.7Zm1.54-.41a.36.36,0,0,1,.31.39.35.35,0,0,1-.34.31.35.35,0,0,1,0-.69Zm1.49-.67a.35.35,0,0,1,.31.38.34.34,0,0,1-.31.37.35.35,0,0,1-.37-.32.34.34,0,0,1,0-.1.36.36,0,0,1,.36-.34Zm.76.33c-.16-.4-.33-.79-.51-1.18a16.5,16.5,0,0,1-9,2,43.9,43.9,0,0,1-5.25-.31,15.41,15.41,0,0,1-4.14-.91l-.26.56.26-.56.24-.47a30.81,30.81,0,0,0,15.29.29,15.93,15.93,0,0,0,2.65-1.06l.24.5c.18.4.35.79.51,1.19Zm-1.44-3c.13.23.26.47.38.71l.16.31-.16-.31a22.71,22.71,0,0,1-13.66,1.42c-1.22-.18-2.42-.42-3.62-.67a6,6,0,0,0-.3.56,6,6,0,0,1,.3-.56c.12-.23.25-.45.39-.67s.31-.5.47-.74c-.16.24-.33.49-.47.74,2.13.57,11,2.65,16.51-.78l-.19-.33Zm-3.73-4.36a11.67,11.67,0,0,1,3.38,3.75l-1-.41-.24,1-1.19-.48L187,96.73,185.79,96l-.53,1.06-1-.76-.83,1-.93-1-.84,1-.85-.85-.91.77-.87-.82-.92.71-.71-1-1,.74-.75-.93-1,.77-.42-.66a11.59,11.59,0,0,1,7.59-5.24,6.15,6.15,0,0,1,4.6,1ZM151.16,70.62a26.26,26.26,0,0,1,4.51-10.39,6.48,6.48,0,0,0,1.51-4.9,11.24,11.24,0,0,1-1-4.78c.72-4.83,6-6.66,10.59-6.54l2.8-28.26h-.3l-.06-1.14-.82.06V15c.05.34-.49.44-.54.1s-.12-.89-.17-1.34a.28.28,0,1,1,.55-.09l.05.45.86-.07,0-1.93h-.89v.28c0,.33-.51.43-.54.09s-.07-.84-.09-1.25.54-.29.56,0v.31h.9L169,9.89h-.94V10c0,.34-.52.43-.55.09l-.08-.87c0-.34.51-.43.54-.09v.21h1l-.1-1.89,6.72-.2-.43,2.19a5.37,5.37,0,0,1,1,.17l.09-.33c.1-.33.62-.14.52.19a7.36,7.36,0,0,0-.21.93c-.06.33-.61.29-.56,0l.05-.24c-.32-.06-.63-.11-.95-.15l-.33,1.68.78.15.07-.27c.11-.33.63-.14.52.19a5.54,5.54,0,0,0-.19.9c0,.34-.59.29-.55,0v-.25l-.77-.16L174.29,14l.64.07.06-.32c.06-.33.62-.28.56,0s-.14.74-.22,1.11-.61.28-.55,0l.05-.27-.64-.07-.32,1.6-.48,0-2.8,28.3c4.5.71,9.35,3.43,9.21,8.3A11.42,11.42,0,0,1,178,57.13a6.44,6.44,0,0,0,.62,5.09,25.92,25.92,0,0,1,2.61,11,10.11,10.11,0,0,1-4.2,7.2A16.34,16.34,0,0,1,168.44,83,20.19,20.19,0,0,1,166,83h0l-.76-.06-.75-.07h0a19.73,19.73,0,0,1-2.41-.47,16.43,16.43,0,0,1-8-4,10.17,10.17,0,0,1-2.87-7.83Zm55.1,45.14-.2.07a33.46,33.46,0,0,1-5.66-.21l-1-.13a69.41,69.41,0,0,1-9-2.07c1.91-.42,3.57-.71,5.16-1a41.9,41.9,0,0,1,6.33-.42H202a22.93,22.93,0,0,1,3.31.24c.82.15,2.23.56,2.37,1.69v.49h0v.11h0l-.07.13h0l-.11.15h0l-.14.13h0l-.14.13h0l-.21.15h0l-.52.26Zm5.21-1.36-.16.24-.07.07-.12.14-.08.08-.11.12-.09.08-.12.1-.1.07-.11.09-.11.07-.12.08-.12.07-.12.06-.12.07-.12.06-.13,0-.12.05-.14,0h-.11l-.15.06h-.1l-.17,0h-.06c-.33.08-.66.15-1,.2h-1.37l.31-.11h0a4.37,4.37,0,0,0,.61-.31h0l.29-.2h0l.21-.17v0l.18-.19h0l.16-.22h0l.1-.2h0l.06-.17v-.48h0v-.26c-.18-1.42-1.66-2-2.89-2.23a22.53,22.53,0,0,0-3.48-.24,40.83,40.83,0,0,0-6.44.42c-2.15.3-4.27.73-6.39,1.22l-1.14.27h0l-1.33.33h0l-3.89,1c-2.12.54-4.24,1.08-6.37,1.54a63.51,63.51,0,0,1-6.41,1.08,38.25,38.25,0,0,1-6.42.19,13.47,13.47,0,0,1-8.23-2.81,4.72,4.72,0,0,1-1.63-5.17,3.32,3.32,0,0,1,.91-1.19,5.1,5.1,0,0,0,.81,3.72,7.67,7.67,0,0,0,5.28,3,28.56,28.56,0,0,0,6.91.24,53.26,53.26,0,0,0,7-.94c4.7-.91,9.3-2.27,13.94-3.42a61.84,61.84,0,0,1,14.11-2.21,10.64,10.64,0,0,1,6.5,1.6,5.45,5.45,0,0,1,2.18,3.87Zm.5-.93a5.79,5.79,0,0,0-.75-1.88,7.32,7.32,0,0,0-5.1-3.12,24.63,24.63,0,0,0-6.86,0,63.88,63.88,0,0,0-7,1.17c-4.69,1-9.29,2.4-14,3.5a54,54,0,0,1-14.1,1.74,12.6,12.6,0,0,1-6.5-1.55,5,5,0,0,1-2.3-5l.14-.45a7.17,7.17,0,0,1,2-.78l-2.05,1.3,1.26.95-.39,2,1.82.06.79,1.85,1.9-.61,1.78,1.29,1.74-1.1,1.79,1.08,1.59-1.34,2.19,1,1.66-1.6L174,113.1l1.15-1.83,2.83,1,1.29-2,2.64,1.24,1.22-2.36,3.08,1.39,1.55-2.5,2.89,1.65,1.59-2.76,3,1.75,2.18-2.76,2.43,1.74,2.29-2.23,2.07,2.23,2.94-1.75,1,2.66,3.45-.21a8,8,0,0,0-3.73-3.14,16,16,0,0,0-7-.85,51.45,51.45,0,0,0-7.3,1c-7.83,1.6-15.44,4.61-23.31,6.09l-1,.17c-1.23.21-2.49.39-3.74.51a8.76,8.76,0,0,1-7.46-1.86,3,3,0,0,1-.82-1.71,1.63,1.63,0,0,1,.8-1.58h0a19.37,19.37,0,0,1,11.48,2.35,41.52,41.52,0,0,1,1.77-7.46,35.22,35.22,0,0,0,18.2.45,19,19,0,0,0,2.82-1.11l-.1-.29.1.29a33,33,0,0,1,1,3.45h.19a50,50,0,0,1,7.3-1,15.72,15.72,0,0,1,7,.85,7.14,7.14,0,0,1,4.47,5.12,8.72,8.72,0,0,1-.46,3.89Z" transform="translate(0 0)"/><path id="Trazado_434" data-name="Trazado 434" class="cls-1" d="M169.64,111c-.2,1.41-.26,2.29-.26,2.29a8.64,8.64,0,0,1,.14-1.31C169.55,111.69,169.58,111.36,169.64,111Z" transform="translate(0 0)"/><path id="Trazado_435" data-name="Trazado 435" class="cls-1" d="M211.33,109.24a.49.49,0,0,0-.59.34.49.49,0,0,0,.34.59.49.49,0,0,0,.59-.34.5.5,0,0,0,0-.21A.47.47,0,0,0,211.33,109.24Z" transform="translate(0 0)"/><path id="Trazado_436" data-name="Trazado 436" class="cls-1" d="M206.55,106.94a.45.45,0,0,0-.38.52v0a.5.5,0,0,0,.35.38.46.46,0,0,0,.38-.54h0A.46.46,0,0,0,206.55,106.94Z" transform="translate(0 0)"/><path id="Trazado_437" data-name="Trazado 437" class="cls-1" d="M202.16,106.72a.45.45,0,0,0-.38.52v0a.5.5,0,0,0,.35.38.48.48,0,0,0,.38-.56A.46.46,0,0,0,202.16,106.72Z" transform="translate(0 0)"/><path id="Trazado_438" data-name="Trazado 438" class="cls-1" d="M197.71,107.05a.49.49,0,0,0-.59.34.49.49,0,0,0,.35.59.47.47,0,0,0,.58-.35.5.5,0,0,0,0-.21A.49.49,0,0,0,197.71,107.05Z" transform="translate(0 0)"/><path id="Trazado_439" data-name="Trazado 439" class="cls-1" d="M192.59,107.92a.46.46,0,0,0-.38.54h0a.46.46,0,0,0,.35.38.49.49,0,0,0,.35-.58.5.5,0,0,0-.35-.35Z" transform="translate(0 0)"/><path id="Trazado_440" data-name="Trazado 440" class="cls-1" d="M188.16,109a.46.46,0,0,0-.36.56.46.46,0,0,0,.36.36.46.46,0,0,0,.36-.56A.46.46,0,0,0,188.16,109Z" transform="translate(0 0)"/><path id="Trazado_441" data-name="Trazado 441" class="cls-1" d="M183.69,110.15a.48.48,0,0,0-.38.56.49.49,0,0,0,.35.37.48.48,0,0,0,.38-.56A.49.49,0,0,0,183.69,110.15Z" transform="translate(0 0)"/><path id="Trazado_442" data-name="Trazado 442" class="cls-1" d="M179.76,111a.49.49,0,0,0-.59.34.49.49,0,0,0,.34.59.49.49,0,0,0,.59-.34.5.5,0,0,0,0-.21A.47.47,0,0,0,179.76,111Z" transform="translate(0 0)"/><path id="Trazado_443" data-name="Trazado 443" class="cls-1" d="M175.67,112.07a.49.49,0,0,0-.35.58.5.5,0,0,0,.35.35.48.48,0,0,0,.4-.53A.47.47,0,0,0,175.67,112.07Z" transform="translate(0 0)"/><path id="Trazado_444" data-name="Trazado 444" class="cls-1" d="M171.91,112.74a.45.45,0,0,0-.38.52v0a.5.5,0,0,0,.35.38.49.49,0,0,0,.39-.56A.49.49,0,0,0,171.91,112.74Z" transform="translate(0 0)"/><path id="Trazado_445" data-name="Trazado 445" class="cls-1" d="M168.07,113.26a.49.49,0,0,0-.35.58.5.5,0,0,0,.35.35.49.49,0,0,0,.35-.58A.5.5,0,0,0,168.07,113.26Z" transform="translate(0 0)"/><path id="Trazado_446" data-name="Trazado 446" class="cls-1" d="M164.25,113.46a.46.46,0,0,0-.38.54h0a.46.46,0,0,0,.35.37.47.47,0,0,0,.37-.55A.45.45,0,0,0,164.25,113.46Z" transform="translate(0 0)"/><path id="Trazado_447" data-name="Trazado 447" class="cls-1" d="M160.68,113.15a.48.48,0,0,0-.4.53.47.47,0,0,0,.4.4.48.48,0,0,0,.38-.55A.49.49,0,0,0,160.68,113.15Z" transform="translate(0 0)"/><path id="Trazado_448" data-name="Trazado 448" class="cls-1" d="M157.62,111.73a.48.48,0,0,0-.4.53.47.47,0,0,0,.4.4.49.49,0,0,0,.35-.58A.5.5,0,0,0,157.62,111.73Z" transform="translate(0 0)"/><path id="Trazado_449" data-name="Trazado 449" class="cls-1" d="M155.86,109.39a.35.35,0,0,0-.33.37h0a.32.32,0,1,0,.64,0A.35.35,0,0,0,155.86,109.39Z" transform="translate(0 0)"/><path id="Trazado_450" data-name="Trazado 450" class="cls-1" d="M174.93,95.66a.23.23,0,0,0-.24.22h0a.23.23,0,0,0,.22.24h0a.24.24,0,0,0,0-.47Z" transform="translate(0 0)"/><path id="Trazado_451" data-name="Trazado 451" class="cls-1" d="M176.5,96.25a.23.23,0,0,0,.24-.22h0a.24.24,0,0,0-.23-.25h0a.23.23,0,0,0-.24.22h0A.25.25,0,0,0,176.5,96.25Z" transform="translate(0 0)"/><path id="Trazado_452" data-name="Trazado 452" class="cls-1" d="M178.24,96.44a.24.24,0,0,0,0-.47.24.24,0,0,0-.1.47A.17.17,0,0,0,178.24,96.44Z" transform="translate(0 0)"/><path id="Trazado_453" data-name="Trazado 453" class="cls-1" d="M179.86,96.55a.23.23,0,0,0,.24-.22h0a.23.23,0,0,0-.22-.24h0a.23.23,0,0,0-.24.22h0a.23.23,0,0,0,.22.24Z" transform="translate(0 0)"/><path id="Trazado_454" data-name="Trazado 454" class="cls-1" d="M181.6,96.59a.24.24,0,1,0,0-.48h0a.24.24,0,1,0,0,.48Z" transform="translate(0 0)"/><path id="Trazado_455" data-name="Trazado 455" class="cls-1" d="M183.32,96.54a.23.23,0,0,0,.24-.22h0a.24.24,0,0,0-.23-.25h0a.23.23,0,0,0-.24.22h0a.24.24,0,0,0,.23.25Z" transform="translate(0 0)"/><path id="Trazado_456" data-name="Trazado 456" class="cls-1" d="M185,96.31a.23.23,0,0,0,.24-.22h0a.25.25,0,0,0-.23-.25.23.23,0,0,0-.24.22h0a.24.24,0,0,0,.23.25Z" transform="translate(0 0)"/><path id="Trazado_457" data-name="Trazado 457" class="cls-1" d="M186.69,96a.23.23,0,0,0,.24-.22h0a.24.24,0,0,0-.23-.25h0a.24.24,0,1,0,0,.48Z" transform="translate(0 0)"/><path id="Trazado_458" data-name="Trazado 458" class="cls-1" d="M188.26,95.43a.23.23,0,0,0,.24-.22h0a.24.24,0,1,0-.24.23Z" transform="translate(0 0)"/><path id="Trazado_459" data-name="Trazado 459" class="cls-1" d="M173.26,13.54a22.7,22.7,0,0,0,.33-2.61,1.66,1.66,0,0,0-.23-1.21l-.1-.07-.16,0a.86.86,0,0,0-.23.59c-.16,1.15-.3,2.3-.42,3.46-.06.58-.12,1.17-.16,1.75l.62.08C173.05,14.92,173.16,14.21,173.26,13.54Z" transform="translate(0 0)"/><path id="Trazado_460" data-name="Trazado 460" class="cls-1" d="M171,15.4c.06-.59.11-1.17.15-1.76.09-1.15.15-2.31.19-3.47a.88.88,0,0,0-.13-.63l-.15-.08-.11.06a1.68,1.68,0,0,0-.45,1.15,25.34,25.34,0,0,0-.13,2.61v2.08Z" transform="translate(0 0)"/><path id="Trazado_461" data-name="Trazado 461" class="cls-1" d="M164.39,55a1.46,1.46,0,0,0-.54,1.78,1.42,1.42,0,0,0-2-.15,1.48,1.48,0,0,0-.31.39,1.45,1.45,0,0,0,.36,1.83c-.92-.2-1.87.11-1.92,1.28a1.43,1.43,0,0,0,1.17,1.44c-.9.26-1.6,1-1.1,2a1.46,1.46,0,0,0,1.71.73,1.39,1.39,0,0,0-.4,1.94l0,.06a1.33,1.33,0,0,0,.35.36,1.45,1.45,0,0,0,1.85-.16c-.29.89-.08,1.87,1.07,2a1.44,1.44,0,0,0,1.56-1c.16.93.81,1.7,1.9,1.31a1.45,1.45,0,0,0,.9-1.62,1.41,1.41,0,0,0,1.91.57,1.3,1.3,0,0,0,.39-.31,1.45,1.45,0,0,0,0-1.86c.86.39,1.86.28,2.15-.84a1.46,1.46,0,0,0-.84-1.66c1-.06,1.77-.63,1.51-1.76a1.44,1.44,0,0,0-1.53-1.06,1.43,1.43,0,0,0,.52-2.27,1.46,1.46,0,0,0-1.85-.23,1.41,1.41,0,0,0-.18-2,1.64,1.64,0,0,0-.43-.24,1.28,1.28,0,0,0-1.24.15,2,2,0,0,0-.5.5c0-1-.43-1.82-1.59-1.68a1.3,1.3,0,0,0-1.1.92,1.64,1.64,0,0,0-.55-.53A1.31,1.31,0,0,0,164.39,55Zm7.78,7.39,0,.27a4.94,4.94,0,0,1-5.13,4,5.26,5.26,0,0,1-4.81-3.32A5.15,5.15,0,0,1,172,60.11a5.31,5.31,0,0,1,.22,2.31Z" transform="translate(0 0)"/><path id="Trazado_462" data-name="Trazado 462" class="cls-1" d="M177.16,72.86c0-.3.35-1.26-.32-.94a3.87,3.87,0,0,0-1.56,1.67,21.56,21.56,0,0,0-1.12,2.56h0a4.46,4.46,0,0,1-.41.56l.11-.21.13-.29.11-.3a8.06,8.06,0,0,0,.27-1.18c.06-.39.1-.77.13-1.13.06-.71.11-1.35.21-1.88h0a2.35,2.35,0,0,0,1.14-.71l.17-.45-.19-.24a4.94,4.94,0,0,1,1.31-.58,2.66,2.66,0,0,0,1.53-1v-.07c0-.26-1,0-1.1,0a3.91,3.91,0,0,0-.67.27,14,14,0,0,0,1.3-1,1.7,1.7,0,0,0,.47-.68v-.15H178a2.09,2.09,0,0,0-.74.2,3.59,3.59,0,0,0-.79.49l.14-.4a3.16,3.16,0,0,0,0-1.67l-.21-.24-.15.06a2.46,2.46,0,0,0-.63.8,6.51,6.51,0,0,0-.55,1.43,3.25,3.25,0,0,0-.55-1.1,2.35,2.35,0,0,0-.55-.54l-.56-.34-.08.13a1.75,1.75,0,0,0,.08.82,12.48,12.48,0,0,0,.61,1.46l-.43-.47c-.1-.09-.8-.76-1-.55v.09a2.69,2.69,0,0,0,.86,1.6,5.6,5.6,0,0,1,.82,1h-.13l-.07.11a1.36,1.36,0,0,0,0,.89,4.09,4.09,0,0,0,.36.83h0c-.11.61-.19,1.21-.24,1.83a11.66,11.66,0,0,1-.41,2.26l-.11.28-.12.28-.27.5a5.2,5.2,0,0,1-.69.86l-.34.29a5,5,0,0,0,.26-.52l.15-.41a7.78,7.78,0,0,0,.81-4.62,2.24,2.24,0,0,0-.14-.61c-.06-.2-.26-1.1-.68-1.07s-.44.54-.47.76a5,5,0,0,0,.21,2.71c-.09-.19-.5-.47-.71-.3v.64a9.58,9.58,0,0,0,.45,1.27,5.18,5.18,0,0,1,.3,1.66h0a5.89,5.89,0,0,1-.24.58l-.33.24a5.57,5.57,0,0,1-.76.41,5.66,5.66,0,0,1-1.22.34h0a4.65,4.65,0,0,0,1.27-.27,5.08,5.08,0,0,0,.81-.4,4.63,4.63,0,0,0,.82-.64,4.74,4.74,0,0,0,.73-.88l.12-.19a3.1,3.1,0,0,0,.58-.62c.13-.19.28-.41.45-.64l.34-.28a24,24,0,0,1,2.49-1.23A14.35,14.35,0,0,1,179,73.3a3.08,3.08,0,0,0,.81-.51l.19-.3-.15-.3-.33-.13A3.11,3.11,0,0,0,177.16,72.86Z" transform="translate(0 0)"/><path id="Trazado_463" data-name="Trazado 463" class="cls-1" d="M174.49,52.87a5.55,5.55,0,0,0-3,2.43,3.68,3.68,0,0,1,1.54-.53,4.14,4.14,0,0,1,1.68.1,3,3,0,0,0,1.79-.2A2.44,2.44,0,0,0,178,53.18,3.86,3.86,0,0,0,174.49,52.87Z" transform="translate(0 0)"/><path id="Trazado_464" data-name="Trazado 464" class="cls-1" d="M170.52,54.35a2,2,0,0,0,1.41-.8,6.72,6.72,0,0,0,1.81-4.08,4.47,4.47,0,0,0-.13-1.5,2.24,2.24,0,0,0-.94-1.33l-.17,0-.1.11a6.5,6.5,0,0,0-.31,3,9.14,9.14,0,0,1-.39,2.75A4,4,0,0,1,170.52,54.35Z" transform="translate(0 0)"/><path id="Trazado_465" data-name="Trazado 465" class="cls-1" d="M173.7,52.35l.8-.41a4.2,4.2,0,0,1,.92-.26,3.11,3.11,0,0,0,1.63-.59,1.35,1.35,0,0,0,.54-1.38A5,5,0,0,0,173.7,52.35Z" transform="translate(0 0)"/><path id="Trazado_466" data-name="Trazado 466" class="cls-1" d="M175.56,49a2,2,0,0,0,.06-1.54v-.06h-.07c-1,.75-.66,2-1.1,3A4.71,4.71,0,0,0,175.56,49Z" transform="translate(0 0)"/><path id="Trazado_467" data-name="Trazado 467" class="cls-1" d="M175.78,57.8a.56.56,0,0,0,.55-.21.59.59,0,0,0-.14-.62,4,4,0,0,0-3.87-1.11A6.39,6.39,0,0,1,174,57,3.31,3.31,0,0,0,175.78,57.8Z" transform="translate(0 0)"/><path id="Trazado_468" data-name="Trazado 468" class="cls-1" d="M161.16,73a.91.91,0,0,0,.79,1h0l7.89.7a.89.89,0,1,0,.15-1.78h0l-7.85-.73a.91.91,0,0,0-1,.79Z" transform="translate(0 0)"/><path id="Trazado_469" data-name="Trazado 469" class="cls-1" d="M171.74,69.42c-.08-.38-.51-.31-.81-.24a4.74,4.74,0,0,0-1.86,1,7.14,7.14,0,0,1-2.27,1.58c1.23.34,3.66.32,4.47-.91A2.3,2.3,0,0,0,171.74,69.42Z" transform="translate(0 0)"/><path id="Trazado_470" data-name="Trazado 470" class="cls-1" d="M169.24,80.31a4,4,0,0,0-1.42,1.26,2,2,0,0,1,1-.42,29.91,29.91,0,0,1,3.28.18,3.82,3.82,0,0,0,1.82-.4,1.75,1.75,0,0,0,1-1.52,22.49,22.49,0,0,1-3.75.47A10,10,0,0,0,169.24,80.31Z" transform="translate(0 0)"/><path id="Trazado_471" data-name="Trazado 471" class="cls-1" d="M174.78,76.8c-.39.47-.63,1-1,1.49a1.09,1.09,0,0,1-.58.43,2.75,2.75,0,0,0,1.62-.26,7,7,0,0,0,1.58-1,2.51,2.51,0,0,0,.9-1.78A3.33,3.33,0,0,0,174.78,76.8Z" transform="translate(0 0)"/><path id="Trazado_472" data-name="Trazado 472" class="cls-1" d="M179.08,74.81H179c-.2.08-.22.35-.16.52l.47.22.24-.48A.42.42,0,0,0,179.08,74.81Z" transform="translate(0 0)"/><path id="Trazado_473" data-name="Trazado 473" class="cls-1" d="M178.31,76.54h-.08l-.13.42.38.17.18-.37Z" transform="translate(0 0)"/><path id="Trazado_474" data-name="Trazado 474" class="cls-1" d="M177.52,77.72h-.07l-.1.34.3.13.16-.3Z" transform="translate(0 0)"/><path id="Trazado_475" data-name="Trazado 475" class="cls-1" d="M176.16,78.75h-.07l-.1.34.3.13.15-.3Z" transform="translate(0 0)"/><path id="Trazado_476" data-name="Trazado 476" class="cls-1" d="M178.3,70.35a3.77,3.77,0,0,0-.5,1.25l.07-.07a3.78,3.78,0,0,1,.81-.62,2.89,2.89,0,0,0,.79-.64,1.1,1.1,0,0,0,.24-1,1.36,1.36,0,0,0-.84.33A3,3,0,0,0,178.3,70.35Z" transform="translate(0 0)"/><path id="Trazado_477" data-name="Trazado 477" class="cls-1" d="M175.46,62.4a5,5,0,0,0-.68,3.45l.13-.21c.58-1.16,3-2.78,1.73-4.3A3.17,3.17,0,0,0,175.46,62.4Z" transform="translate(0 0)"/><path id="Trazado_478" data-name="Trazado 478" class="cls-1" d="M176.16,65c.51-.21,1.26.42,1.56.76a2.86,2.86,0,0,0,.79.76h.11l.08-.09a.86.86,0,0,0-.11-1,1.92,1.92,0,0,0-1-.65A2.18,2.18,0,0,0,176.16,65Z" transform="translate(0 0)"/><path id="Trazado_479" data-name="Trazado 479" class="cls-1" d="M170.38,78.61a1.89,1.89,0,0,0,1-.71,2.14,2.14,0,0,0,.3-1.16c0-.32-.05-.85-.45-.44s-.64.77-1,1.15a2.83,2.83,0,0,1-1.51,1l-.39.08A3.34,3.34,0,0,0,170.38,78.61Z" transform="translate(0 0)"/><path id="Trazado_480" data-name="Trazado 480" class="cls-1" d="M169,77.74a2.36,2.36,0,0,0,1-.85,2.18,2.18,0,0,0,.24-1.52,2.55,2.55,0,0,0-.73.43c-.57.54-.59,1.42-1,2.06Z" transform="translate(0 0)"/><path id="Trazado_481" data-name="Trazado 481" class="cls-1" d="M167.89,75.8l.21.34.41-.11V75.6C168.33,75.39,167.87,75.4,167.89,75.8Z" transform="translate(0 0)"/><path id="Trazado_482" data-name="Trazado 482" class="cls-1" d="M166.7,75.65l.14.22.26-.07v-.28C167,75.39,166.69,75.39,166.7,75.65Z" transform="translate(0 0)"/><path id="Trazado_483" data-name="Trazado 483" class="cls-1" d="M177.66,64.15c.43.15.63-.41.22-.54S177.24,64,177.66,64.15Z" transform="translate(0 0)"/><path id="Trazado_484" data-name="Trazado 484" class="cls-1" d="M177.53,55.82v-.19c-.07-.5-1-.44-.93.12a.47.47,0,0,0,.42.38A.51.51,0,0,0,177.53,55.82Z" transform="translate(0 0)"/><path id="Trazado_485" data-name="Trazado 485" class="cls-1" d="M170.48,50.75a.49.49,0,0,0,.43.38.53.53,0,0,0,.47-.3v-.2C171.35,50.15,170.38,50.15,170.48,50.75Z" transform="translate(0 0)"/><path id="Trazado_486" data-name="Trazado 486" class="cls-1" d="M177.41,51.85l.28.26.33-.19v-.13C178,51.45,177.36,51.47,177.41,51.85Z" transform="translate(0 0)"/><path id="Trazado_487" data-name="Trazado 487" class="cls-1" d="M172.22,56.84l.28.27.33-.2v-.12C172.82,56.45,172.16,56.46,172.22,56.84Z" transform="translate(0 0)"/><path id="Trazado_488" data-name="Trazado 488" class="cls-1" d="M174,47.42l.34-.2V47.1c0-.34-.68-.33-.63,0Z" transform="translate(0 0)"/><path id="Trazado_489" data-name="Trazado 489" class="cls-1" d="M176.62,49l.33-.19v-.13c0-.34-.68-.32-.63.06Z" transform="translate(0 0)"/><path id="Trazado_490" data-name="Trazado 490" class="cls-1" d="M176.67,60.67a.8.8,0,0,0-.23-.8c-.67-.77-1.86-1.07-2.28-2a3.54,3.54,0,0,0,.56,2A2,2,0,0,0,176.67,60.67Z" transform="translate(0 0)"/><path id="Trazado_491" data-name="Trazado 491" class="cls-1" d="M168.23,80c.13-.66-.33-1-.87-1.09h.09a1.12,1.12,0,0,0,.54-.49.87.87,0,0,0-.15-.91.91.91,0,0,0-1.27-.13l-.13.13v-.09a1,1,0,0,0,0-.73.88.88,0,0,0-.8-.45c-.71,0-.93.61-.86,1.19l-.12-.17a1.09,1.09,0,0,0-.6-.41.87.87,0,0,0-.85.37.91.91,0,0,0,.19,1.26.6.6,0,0,0,.15.09h-.1a1.07,1.07,0,0,0-.69.22.85.85,0,0,0-.24.88.9.9,0,0,0,1.09.66h0l.17-.07-.07.08a1,1,0,0,0-.27.67.88.88,0,0,0,.53.75.89.89,0,0,0,1.19-.44h0l.06-.17v.1a1,1,0,0,0,.36.63.85.85,0,0,0,.92,0,.9.9,0,0,0,.39-1.21.46.46,0,0,0-.09-.15l.08,0a1,1,0,0,0,.71.11A.85.85,0,0,0,168.23,80Z" transform="translate(0 0)"/><path id="Trazado_492" data-name="Trazado 492" class="cls-1" d="M153.21,71.15a10.62,10.62,0,0,1,1.24.87,21.14,21.14,0,0,1,2.23,1.66l.3.33c.12.26.22.51.32.71a2.61,2.61,0,0,0,.48.71l.08.21a5.45,5.45,0,0,0,.56,1,5.12,5.12,0,0,0,.7.77,4.68,4.68,0,0,0,.73.53,4.33,4.33,0,0,0,1.2.49l.35.06h.12l-.11,0-.33-.1a5.44,5.44,0,0,1-1.14-.55,5.89,5.89,0,0,1-.68-.53L159,77c0-.12-.08-.34-.13-.62h0a5.84,5.84,0,0,1,.59-1.57,8.38,8.38,0,0,0,.66-1.17l.08-.63c-.18-.22-.64,0-.76.17a5.18,5.18,0,0,0,.69-2.64c0-.22-.09-.76-.35-.83s-.74.68-.86.93a5.89,5.89,0,0,0-.24.58,8,8,0,0,0,0,4.69l.08.43a5,5,0,0,0,.17.55l-.28-.35a4.63,4.63,0,0,1-.53-1,3.54,3.54,0,0,1-.18-.55l-.08-.28v-.3a11.05,11.05,0,0,1,0-2.3,16.26,16.26,0,0,0,.08-1.85h0a3.44,3.44,0,0,0,.5-.76,1.34,1.34,0,0,0,.13-.88l0-.11-.12-.06a5.89,5.89,0,0,1,1-.86,2.69,2.69,0,0,0,1.13-1.42v0c-.11-.24-.92.29-1,.36l-.51.4a11.53,11.53,0,0,0,.85-1.33,1.59,1.59,0,0,0,.24-.79l-.06-.14-.61.24a2.32,2.32,0,0,0-.64.43,3.31,3.31,0,0,0-.73,1,6.78,6.78,0,0,0-.29-1.49,2.38,2.38,0,0,0-.48-.9l-.13-.08-.24.19a3.06,3.06,0,0,0-.26,1.66l.06.42a3.13,3.13,0,0,0-.69-.62,2,2,0,0,0-.69-.33l-.64-.15v.15a1.76,1.76,0,0,0,.34.75,13.11,13.11,0,0,0,1.1,1.25,4.9,4.9,0,0,0-.62-.38c-.12,0-1-.46-1.07-.21v.08a2.67,2.67,0,0,0,1.32,1.25,5.28,5.28,0,0,1,1.19.8l-.24.21.09.48a2.18,2.18,0,0,0,1,.9c0,.54-.06,1.18-.13,1.89,0,.36-.06.74-.07,1.13a8.45,8.45,0,0,0,.06,1.23l.06.31.07.3.07.24a5.12,5.12,0,0,1-.31-.62h0a19.3,19.3,0,0,0-.61-2.71,3.85,3.85,0,0,0-1.24-1.92c-.6-.43-.44.57-.47.87a3.07,3.07,0,0,0-2.16-1l-.34.07-.21.27.13.33A3.46,3.46,0,0,0,153.21,71.15Z" transform="translate(0 0)"/><path id="Trazado_493" data-name="Trazado 493" class="cls-1" d="M158.87,53.15a3,3,0,0,0,1.73.52,4.26,4.26,0,0,1,1.66.19,3.62,3.62,0,0,1,1.43.8,5.56,5.56,0,0,0-2.5-2.92,3.89,3.89,0,0,0-3.51-.31A2.42,2.42,0,0,0,158.87,53.15Z" transform="translate(0 0)"/><path id="Trazado_494" data-name="Trazado 494" class="cls-1" d="M162.52,48.47a6.71,6.71,0,0,0,1.06,4.34,2.08,2.08,0,0,0,1.25,1,4,4,0,0,1-.84-2,9.26,9.26,0,0,1,.09-2.78,6.64,6.64,0,0,0,.24-3l-.08-.12h-.16a2.34,2.34,0,0,0-1.17,1.15A4.93,4.93,0,0,0,162.52,48.47Z" transform="translate(0 0)"/><path id="Trazado_495" data-name="Trazado 495" class="cls-1" d="M160.48,50.36a4,4,0,0,1,.86.41c.17.11.65.35.71.55A5,5,0,0,0,158.69,48a1.32,1.32,0,0,0,.28,1.45A3.34,3.34,0,0,0,160.48,50.36Z" transform="translate(0 0)"/><path id="Trazado_496" data-name="Trazado 496" class="cls-1" d="M161.69,49.31c-.26-1.07.28-2.22-.56-3.13H161a1.94,1.94,0,0,0-.21,1.54A4.87,4.87,0,0,0,161.69,49.31Z" transform="translate(0 0)"/><path id="Trazado_497" data-name="Trazado 497" class="cls-1" d="M158.78,55.43c-.16.16-.32.38-.23.59a.58.58,0,0,0,.51.31,3.36,3.36,0,0,0,1.9-.51,6.55,6.55,0,0,1,1.84-.8A4.06,4.06,0,0,0,158.78,55.43Z" transform="translate(0 0)"/><path id="Trazado_498" data-name="Trazado 498" class="cls-1" d="M163.49,69.65a4.78,4.78,0,0,0-1.66-1.3c-.28-.1-.69-.23-.84.11a2.28,2.28,0,0,0,.21,1.45c.58,1.36,3,1.81,4.25,1.68C164.57,71.15,164.16,70.34,163.49,69.65Z" transform="translate(0 0)"/><path id="Trazado_499" data-name="Trazado 499" class="cls-1" d="M161.53,79.63a10.5,10.5,0,0,0-1.79-.77,22.7,22.7,0,0,1-3.6-1.11,1.72,1.72,0,0,0,.65,1.66,3.78,3.78,0,0,0,1.72.71,29.79,29.79,0,0,1,3.27.4,1.89,1.89,0,0,1,.94.6A3.94,3.94,0,0,0,161.53,79.63Z" transform="translate(0 0)"/><path id="Trazado_500" data-name="Trazado 500" class="cls-1" d="M157.93,77.37a1.06,1.06,0,0,1-.49-.53c-.3-.53-.44-1.11-.75-1.64a3.29,3.29,0,0,0-2.26-1.57,2.5,2.5,0,0,0,.58,1.91,7.28,7.28,0,0,0,1.37,1.29A2.65,2.65,0,0,0,157.93,77.37Z" transform="translate(0 0)"/><path id="Trazado_501" data-name="Trazado 501" class="cls-1" d="M153,73.07l-.07-.55h-.1l-.47.21.15.5Z" transform="translate(0 0)"/><path id="Trazado_502" data-name="Trazado 502" class="cls-1" d="M153.34,74.35h-.08l-.38.17.11.39.4-.1Z" transform="translate(0 0)"/><path id="Trazado_503" data-name="Trazado 503" class="cls-1" d="M153.84,75.63l-.31.14.1.32L154,76v-.35Z" transform="translate(0 0)"/><path id="Trazado_504" data-name="Trazado 504" class="cls-1" d="M155,76.88l-.31.14.1.32.32-.08v-.35Z" transform="translate(0 0)"/><path id="Trazado_505" data-name="Trazado 505" class="cls-1" d="M153.89,68.72a4.1,4.1,0,0,1,.69.75l.06.08a4,4,0,0,0-.28-1.32,2.72,2.72,0,0,0-.44-.8,1.3,1.3,0,0,0-.76-.47,1.1,1.1,0,0,0,.06,1A3.24,3.24,0,0,0,153.89,68.72Z" transform="translate(0 0)"/><path id="Trazado_506" data-name="Trazado 506" class="cls-1" d="M158.61,64.42a4.94,4.94,0,0,0-.06-3.51,3.09,3.09,0,0,0-1-1.26c-1.51,1.28.58,3.3.95,4.54Z" transform="translate(0 0)"/><path id="Trazado_507" data-name="Trazado 507" class="cls-1" d="M154.7,64.46h.12a3.08,3.08,0,0,0,.9-.62c.36-.28,1.21-.77,1.66-.48a2.16,2.16,0,0,0-1.43-.43,1.91,1.91,0,0,0-1,.48.84.84,0,0,0-.28,1Z" transform="translate(0 0)"/><path id="Trazado_508" data-name="Trazado 508" class="cls-1" d="M159.74,75.68a2.19,2.19,0,0,0,.09,1.19,1.79,1.79,0,0,0,.88.88,3.43,3.43,0,0,0,2,.24l-.38-.15A2.77,2.77,0,0,1,161,76.62c-.26-.43-.47-.89-.75-1.31S159.79,75.36,159.74,75.68Z" transform="translate(0 0)"/><path id="Trazado_509" data-name="Trazado 509" class="cls-1" d="M161.5,74.61a2.24,2.24,0,0,0,0,1.53,2.42,2.42,0,0,0,.82,1l.5.22c-.31-.7-.17-1.58-.63-2.21A2.43,2.43,0,0,0,161.5,74.61Z" transform="translate(0 0)"/><path id="Trazado_510" data-name="Trazado 510" class="cls-1" d="M163.07,75.15a.31.31,0,0,0-.06.43l.38.18.27-.3C163.75,75,163.29,75,163.07,75.15Z" transform="translate(0 0)"/><path id="Trazado_511" data-name="Trazado 511" class="cls-1" d="M164.47,75.28v.28l.23.12.18-.2A.24.24,0,0,0,164.47,75.28Z" transform="translate(0 0)"/><path id="Trazado_512" data-name="Trazado 512" class="cls-1" d="M156.08,62.23c.44-.06.29-.63-.12-.57S155.63,62.29,156.08,62.23Z" transform="translate(0 0)"/><path id="Trazado_513" data-name="Trazado 513" class="cls-1" d="M158.1,54.45a.46.46,0,0,0,.47-.29c.2-.54-.74-.77-.9-.29v.2A.51.51,0,0,0,158.1,54.45Z" transform="translate(0 0)"/><path id="Trazado_514" data-name="Trazado 514" class="cls-1" d="M165,50.61a.49.49,0,0,0,.47-.3c.19-.54-.74-.76-.9-.28v.19A.51.51,0,0,0,165,50.61Z" transform="translate(0 0)"/><path id="Trazado_515" data-name="Trazado 515" class="cls-1" d="M158.16,50.38l.32-.21c.11-.36-.52-.49-.62-.16v.14Z" transform="translate(0 0)"/><path id="Trazado_516" data-name="Trazado 516" class="cls-1" d="M162.1,55.83V56l.3.24.32-.21C162.83,55.64,162.16,55.51,162.1,55.83Z" transform="translate(0 0)"/><path id="Trazado_517" data-name="Trazado 517" class="cls-1" d="M162.62,46.41l.32-.21c.11-.37-.52-.49-.62-.17v.12Z" transform="translate(0 0)"/><path id="Trazado_518" data-name="Trazado 518" class="cls-1" d="M159.77,47.47l.32-.21c.12-.37-.52-.5-.61-.17v.13Z" transform="translate(0 0)"/><path id="Trazado_519" data-name="Trazado 519" class="cls-1" d="M159.72,58.51a3.64,3.64,0,0,0,.91-1.89c-.58.89-1.81,1-2.61,1.61a.8.8,0,0,0-.37.76A2,2,0,0,0,159.72,58.51Z" transform="translate(0 0)"/><path id="Trazado_520" data-name="Trazado 520" class="cls-1" d="M74.53,71.87c-4.73.11-9.49.06-14.2-.25A83.71,83.71,0,0,1,43.1,68.9c-.72-.21-1.44-.42-2.15-.65L56.5,126.44H72.33l14.59-56.5c-1.22.34-2.46.65-3.71.91A47,47,0,0,1,74.53,71.87Z" transform="translate(0 0)"/><path id="Trazado_521" data-name="Trazado 521" class="cls-1" d="M132.88,44.27c-3.59,1.9-7.17,3.79-10.77,5.67a3.34,3.34,0,0,0-1.82,1.87c-.19.51-1,.89-1.51,1.25s-1.29.52-1.79.92A98.17,98.17,0,0,1,98,65.72a76.73,76.73,0,0,1-8.9,3.55l-.33,57.16h16.83a11.63,11.63,0,0,1-.13-1.17.43.43,0,0,0-.32-.43l-1-.41a2.65,2.65,0,0,1-.68-.37.93.93,0,0,1,.83,0c.27.08.52.19.79.28s.27,0,.25-.21c-.13-1.23-.25-2.46-.36-3.7l-.24-.24-1.33-.48-.22-.19.32-.19c.24.05.48.13.72.2.68.21.71.21.63-.51-.09-1.05-.2-2.09-.29-3.14a.59.59,0,0,0-.52-.59,12.45,12.45,0,0,1-1.68-.5c.74-.47,1.39.12,2.08,0,0-.79-.11-1.62-.16-2.45,0-.47-.08-1-.1-1.42,0-.22-.07-.3-.29-.34a6.56,6.56,0,0,1-1.52-.34l-.31-.15-.24-.24.43-.11a5.77,5.77,0,0,0,1.42.34c.3,0,.4,0,.37-.36-.06-.71-.08-1.42-.11-2.13,0-.2-.08-.24-.27-.24a11.27,11.27,0,0,1-2.32-.1,8.76,8.76,0,0,1-3.79-1.71c-.51-.4-.56-.4-1.1-.06l-.51.3-.28,0,.08-.4c.21-.16.43-.31.65-.46l.06-.29c-.52-.74-1-1.49-1.53-2.24l-.41-.15a3.82,3.82,0,0,1-1.61-.15.8.8,0,0,1,.78-.3,2.66,2.66,0,0,0,.69,0l.21-.28c-.15-.9-.29-1.8-.45-2.71l-.32-.38-1.19-.67-.13-.29.33-.06,1.07.5.23-.14a1.31,1.31,0,0,0-.51-1.44l-.2-.31h.43l.41.11-.06-.54c-.22-.29-.45-.59-.68-.87a.44.44,0,0,1,0-.55c.31.33.6.63.88,1h.35c.2-.2.55-.34.6-.55s-.32-.42-.48-.64l-.38-.49c-.18-.27-.11-.45.2-.56h.06c.4,0,.53-.21.55-.6s.15-.43.5-.37.43.23.62.1l.32-.53.12-.2.37.41c.2.3.38.29.66.09s.52-.26.74.22l.09.23c.08.31.21.51.59.46.22,0,.4.33.35.64a1.14,1.14,0,0,1-.29.58l-.51.52v.3l.2.24c.42.47.42.47.9.09a.52.52,0,0,1,.46-.14,3.4,3.4,0,0,1-.49.74l-.08.45c.24.79.46,1.57.68,2.37.05.2.13.26.33.19l1-.33h.22v.27l-.29.24-.88.33a.32.32,0,0,0-.25.39h0v.06c.19.71.37,1.42.55,2.15.06.24.17.33.41.24a4.11,4.11,0,0,1,.57-.17h.3l-.13.39c-.22.11-.44.19-.69.29a4,4,0,0,0,2,1.42c-.06-.55-.11-1.07-.17-1.58a10.58,10.58,0,0,1-.15-1.13.7.7,0,0,0-.53-.7,4.28,4.28,0,0,1-1.26-.64.7.7,0,0,1,.74,0l.62.24.2-.17c-.08-1.07-.15-2.15-.22-3.22l-.22-.29-1.34-.94a1.69,1.69,0,0,1-.55-.58c.88,0,1.39.73,2.17,1.08V94.59a5.78,5.78,0,0,1,.16-1.44.85.85,0,0,0-.29-.93c-.54-.48-1.05-1-1.57-1.48l-.1-.3h.37l1.31,1.14.41.34.65-1.38c.18-.39.35-.78.53-1.16v-.5c-.36-.53-.69-1.08-1-1.61v-.33l.29.14a13.28,13.28,0,0,1,1.19,1.5l.39.06c.5-.34,1-.66,1.57-1l-.51-.34a2.15,2.15,0,0,1-.92-1.34c-.06-.2,0-.24.17-.28a2.27,2.27,0,0,1,.9,0c.26,0,.37,0,.31-.33s-.12-.8-.19-1.2c0-.23.07-.31.27-.33a1.15,1.15,0,0,1,.72.19l.59.35c.08-.32.17-.61.24-.9l.29-.23a.92.92,0,0,1,.71.34,3.24,3.24,0,0,1,.54,1l.3.08c.35-.3.71-.58,1.08-.87s.31-.23.38.15a4.9,4.9,0,0,1,0,1.43c0,.23,0,.35.27.28h.1c.51,0,.68.15.57.67a1.53,1.53,0,0,1-.34.64c-.12.16-.24.31-.4.5l1.16.3.25-.17c.28-.46.55-.92.82-1.38l.18-.25.27-.19.07.44c-.17.29-.36.57-.54.85l-.33.53c-.07.15-.34.26-.15.48.32.4.49.45.85.31l.32-.13v.4c-.24.24-.12.46,0,.69.19.45.39.89.56,1.35.09.26.22.28.43.17s.71-.37,1.1-.53c.15-.06.4-.26.51,0s-.17.34-.36.43c-.43.2-.86.41-1.29.59-.16.07-.22.13-.17.33.28,1.09.53,2.18.78,3.28,0,.25.14.25.35.18.59-.26,1.2-.48,1.81-.68.12,0,.28-.18.35,0s0,.32-.23.4c-.59.21-1.17.45-1.76.65a.33.33,0,0,0-.27.39.13.13,0,0,0,0,.06c.1.71.19,1.45.26,2.17,0,.26.12.3.34.22l1.26-.38c.1,0,.24-.15.31.06l-.16.37-1,.3c-.71.21-.71.21-.76.92-.05.91-.08,1.83-.15,2.74,0,.29.08.31.31.24l.59-.19a.34.34,0,0,1,.45.16l-.29.28-1,.32-.24.28c-.15,1.07-.29,2.14-.49,3.19-.08.42-.08.84-.19,1.25,0,.2,0,.24.21.21a5.77,5.77,0,0,1,.58-.08l.24.18-.2.25h-.1c-.81.21-.82.21-.93,1s-.15,1.36-.24,2c0,.19,0,.27.24.26a4.45,4.45,0,0,1,.73,0c.4.06.55-.13.67-.48a11.68,11.68,0,0,0,.48-3,17,17,0,0,1,.29-2.93,4.11,4.11,0,0,1,1.76-2.69l.11-.14c-.28-.12-.57-.24-.84-.37a1.34,1.34,0,0,1-.71-.9c-.1-.38,0-.6.44-.66s.4-.12.4-.39V100c.14-.61.26-.67.85-.4.24.1.36.09.51-.14s.44-.38.72,0l.26.37c.13.31.3.31.59.19.62-.29.64-.27.93.36.11.24.24.48.54.51s.22.19.2.34a2.44,2.44,0,0,1-1,1.75c-.1.07-.41.06-.22.34.33.48.36.5.67.29a15.74,15.74,0,0,1,1.42-1l.31,0-.1.46-.87.57c-.62.41-.63.41-.43,1.15.15.55.33,1.09.45,1.64a.4.4,0,0,0,.44.36h1.17a1.6,1.6,0,0,1,.68.12l.19.15-.15.22h-.37a4.63,4.63,0,0,0-1.66,0c-.2,0-.27.12-.26.32v2.71c0,.24,0,.31.29.3h1.7c.15,0,.3,0,.28.2s-.06.31-.3.31h-1.87a.29.29,0,0,0-.34.23h0c-.22.7-.45,1.39-.71,2.07-.09.24,0,.33.19.42.35.14.69.31,1,.47l.22.24-.34.16a2.69,2.69,0,0,1-1.09-.42c-.21-.12-.32-.12-.48.09-.55.72-1.12,1.44-1.71,2.13-.24.27-.16.4.09.56a3.4,3.4,0,0,1,1,.76l.11.17a1.59,1.59,0,0,1-1.15-.45,1,1,0,0,0-1.31-.16.23.23,0,0,0-.07.07,9.42,9.42,0,0,1-.88.49l-.16.23.33.68.18.57-.39-.13a5,5,0,0,1-.45-.74c-.09-.18-.18-.24-.38-.16-.9.31-1.82.6-2.73.9l-.23.25q-.1,1.35-.24,2.7c0,.24.06.26.24.19a7.14,7.14,0,0,1,1.57-.42h.23l.32.14c0,.2-.12.26-.27.3l-1,.24c-.33.08-.59.15-.88.2s-.26.13-.28.32c-.07.8-.14,1.59-.22,2.39,0,.19,0,.23.22.25.54,0,1.08,0,1.66,0a.89.89,0,0,1-.77.41h-.86a.81.81,0,0,0-.47.16h20.81V43.75A4.07,4.07,0,0,0,132.88,44.27Z" transform="translate(0 0)"/><path id="Trazado_522" data-name="Trazado 522" class="cls-1" d="M24.9,60.51c-3.23-2.24-6.29-4.66-9.45-7A15.7,15.7,0,0,0,14,53c-.59-.32-1.45-.67-1.57-1.12a2.68,2.68,0,0,0-1.79-1.75c-3.08-1.33-5.34-.85-8.46-2.14A2.75,2.75,0,0,1,.66,46.83L0,46.72l.65,79.7H40.29l.3-58.3A59.65,59.65,0,0,1,24.9,60.51ZM33,105.25l.26-.11-.14.21-.08.14a42.12,42.12,0,0,0-2.05,3.8c-.4.81-.82,1.66-1.26,2.45a32.47,32.47,0,0,1-2.39,3.74h0l-.27,0H27l-.23,0-.48.13-.13.05-.34.13-.14,0-.47.21h0l-.45.23-.13.08-.32.2-.13.09-.39.27h0l-.42.35-.12.1-.31.28-.07.06c.2-.5.42-1,.68-1.61s.59-1.24.86-1.76.4-.74.6-1.07a22.74,22.74,0,0,1,6.09-7,13.93,13.93,0,0,1,1.9-1.12Zm-3.4-12.78-.05.15-.07.2c-.15.49-.31,1-.47,1.6l-.05.16c-.47,1.71-.89,3.49-1.28,5.21-.31,1.32-.63,2.7-1,4-.8,3.1-1.84,6.37-3.16,10v-7.52c0-.56,0-1.12.05-1.69a11.39,11.39,0,0,0,0-1.31v-1.19a28.76,28.76,0,0,1,6.24-10.76,2.41,2.41,0,0,1-.21,1.15ZM19.16,97.69v-.44a108.08,108.08,0,0,1,6.74-26.9A243,243,0,0,0,22.69,102c-.1,2.55-.16,5.11-.2,7.64v6.3l-.08.17-.12.29-.1.24-.11.23-.1.24-.09.22-.1.27-.07.18h0c-.07.17-.14.36-.21.55l-.19.47v.11l-.15.4-.08.23-.11.34-.09.26-.08.25h0l-.16-.17a8.3,8.3,0,0,0-.64-.69l-.21-.21-.28-.28-.09-.09-.15-1.06c-.3-2.43-.5-4.9-.58-7.41a90.87,90.87,0,0,1,.48-12.78Zm-3.42-13a44.82,44.82,0,0,0,.75,5.65c.34,1.8.76,3.58,1.17,5.31.16.69.32,1.39.47,2.08v.13L18,99.68V100c-.06.63-.1,1.26-.14,1.89v.4c0,.64-.07,1.28-.09,1.91v.26c0,.61,0,1.22,0,1.83v2.52c0,.62,0,1.25,0,1.87V111c0,.62.06,1.24.1,1.86V113c0,.64.09,1.27.14,1.9v.19A56.58,56.58,0,0,1,16,108v-.21l-.12-.6a60.54,60.54,0,0,1-.84-6,64.23,64.23,0,0,1,.64-16.5ZM12.66,105a32.11,32.11,0,0,1,2.38,3.3l.08.38c.05.22.09.43.14.65l.1.45.15.62.12.47.15.6.12.47.17.59v.13h0c-.24-.34-.49-.67-.74-1l-.19-.23-.71-.89-.06-.07c-.26-.31-.53-.61-.79-.91l-.21-.22c-.23-.26-.47-.52-.71-.76l-.08-.09-.09-.19c-1-2.24-2.09-4.55-3.29-6.67A24.83,24.83,0,0,1,12.63,105Zm-6.29,2.49c-.68-.89-1.35-1.75-2-2.55l-.12-.16-1.09-1.28h.1a7,7,0,0,1,1,.25,22.32,22.32,0,0,1,2.93,1.57,26.6,26.6,0,0,1,4.63,3.77,34.18,34.18,0,0,1,4.51,5.66c.34.53.69,1.1,1,1.69s.55,1,.82,1.49h0l-.1-.08-.43-.3-.18-.12-.39-.25-.16-.1-.55-.3h-.08l-.48-.23-.18-.08-.4-.17L15,116.2l-.57-.2-.58-.16h-.19l-.4-.08H13l-.35-.06h-.48l-1-1.44-1-1.33-1.42-2-.39-.54c-.63-.87-1.26-1.72-1.86-2.52ZM19.89,122l-.24.48h0l-.2.48-.05.11-.16.46h0l-.12.43V124l-.07.41v.85l-2,.06a10.4,10.4,0,0,1-1.35-.83,26.56,26.56,0,0,1-3.13-2.87c-.48-.5-1-1-1.5-1.5a12,12,0,0,0-4-2.76,9.73,9.73,0,0,1,7.15-.5c.39.13.78.27,1.16.44a12.89,12.89,0,0,1,3.3,2.21A15.83,15.83,0,0,1,20,120.83l.38.4h0l-.29.53ZM33,118.86h0a7.5,7.5,0,0,0-4.51,1.9c-.61.5-1.2,1.06-1.64,1.49l-.71.71a30.13,30.13,0,0,1-2.42,2.24l-3.69.11a7.29,7.29,0,0,1,1.35-3.82c.13-.24.26-.44.38-.62l.26-.4a9,9,0,0,1,5-3.88c.22,0,.45-.09.68-.12h.71a6.83,6.83,0,0,1,3.92,1.31A9.29,9.29,0,0,1,33.65,119a5.38,5.38,0,0,0-.69-.07Zm-.4-2.15h0l-.38-.24-.11-.06-.29-.15-.12-.06-.31-.15h-.08l-.39-.15h-.12l-.29-.1h-.13l-.3-.07H30l-.39-.08h-.48a12.49,12.49,0,0,1,1.92-1,7.63,7.63,0,0,1,6.58,0,16.7,16.7,0,0,0-5,2.25Z" transform="translate(0 0)"/></g></svg>