<svg id="Layer_1" data-name="Layer 1" xmlns="http://www.w3.org/2000/svg" width="28" height="28" viewBox="0 0 28 28"><defs><style>.cls-1{fill:#f7a120;}.cls-2{fill:#fff;}</style></defs><g id="Group_778-3" data-name="Group 778-3"><circle id="Ellipse_57-3" data-name="Ellipse 57-3" class="cls-1" cx="14" cy="14" r="14"/><g id="_2" data-name=" 2"><g id="Grupo_1601-2" data-name="Grupo 1601-2"><path id="Trazado_1244-2" data-name="Trazado 1244-2" class="cls-2" d="M14.74,21.71v1.6H13.51V21.72A5.13,5.13,0,0,1,9,19l1.32-1.21A3.89,3.89,0,0,0,13.65,20V14.56l-.83-.37c-1.77-.82-3.18-1.8-3.18-4a4.09,4.09,0,0,1,4.11-4V4.72H15V6.19a4.58,4.58,0,0,1,3.58,2.06L17.48,9.51a3.54,3.54,0,0,0-2.61-1.7v5.11l1.33.62A4.17,4.17,0,0,1,19,17.46,4.42,4.42,0,0,1,14.74,21.71ZM11.57,10.05c0,1.27,1,1.84,1.8,2.26l.35.17V7.8A2.2,2.2,0,0,0,11.57,10Zm3.8,5.22L14.83,15v5a2.42,2.42,0,0,0,2.22-2.36,2.5,2.5,0,0,0-1.68-2.43Z"/></g></g></g></svg>