<?xml version="1.0" encoding="utf-8"?>
<!-- Generator: Adobe Illustrator 26.0.1, SVG Export Plug-In . SVG Version: 6.00 Build 0)  -->
<svg version="1.1" id="Layer_1" xmlns="http://www.w3.org/2000/svg" xmlns:xlink="http://www.w3.org/1999/xlink" x="0px" y="0px"
	 viewBox="0 0 152.3 155.8" style="enable-background:new 0 0 152.3 155.8;" xml:space="preserve">
<style type="text/css">
	.st0{fill:#FFFFFF;}
	.st1{fill:#D80361;}
	.st2{clip-path:url(#SVGID_00000088851948721994803890000002540536732623691170_);}
	.st3{fill:#E7A166;}
	.st4{fill:#C58B59;}
	.st5{fill:#F4E3C3;}
	.st6{fill:#FDD7B2;}
	.st7{fill:#B9784F;}
	.st8{fill:#945735;}
	.st9{fill:#E6AE82;}
	.st10{fill:#8A623F;}
	.st11{fill:#B0B3B4;}
	.st12{fill:#CDCFD0;}
	.st13{fill:#4FBFD7;}
</style>
<g id="padre">
	<path id="Rectángulo_260" class="st0" d="M30,0h92.2c16.6,0,30,14.4,30,32.3v91.3c0,17.8-13.4,32.3-30,32.3H30
		c-16.6,0-30-14.4-30-32.3V32.3C0,14.4,13.4,0,30,0z"/>
	<g id="Grupo_1288">
		<path id="Rectángulo_124-4" class="st1" d="M120.9,17.3h12.8c4.6,0,8.4,3.7,8.4,8.4l0,0c0,4.6-3.7,8.4-8.4,8.4h-12.8
			c-4.6,0-8.3-3.7-8.3-8.4l0,0C112.6,21.1,116.3,17.3,120.9,17.3z"/>
		<circle id="Elipse_54-12" class="st0" cx="133.8" cy="25.7" r="4.5"/>
	</g>
	<g id="Grupo_725">
		<g>
			<defs>
				<rect id="SVGID_1_" x="41.5" y="17.2" width="67.7" height="116.1"/>
			</defs>
			<clipPath id="SVGID_00000037690504045607082540000012553623054248512909_">
				<use xlink:href="#SVGID_1_"  style="overflow:visible;"/>
			</clipPath>
			<g style="clip-path:url(#SVGID_00000037690504045607082540000012553623054248512909_);">
				<g id="Grupo_725-2">
					<path id="Trazado_152" class="st3" d="M82.5,67.3v-7H69.2v7c0,0.6-0.4,1-1,1c0,0,0,0-0.1,0h-9.2v24.1h33.8V68.3h-9.2
						C83,68.4,82.6,67.9,82.5,67.3C82.5,67.4,82.5,67.4,82.5,67.3"/>
					<path id="Trazado_153" class="st4" d="M92.8,68.3h-9.2c-0.6,0-1-0.4-1.1-1v-7h-7.3v32.1h17.5L92.8,68.3z"/>
					<path id="Trazado_154" class="st5" d="M64,68.3h-2.5l9.7,33h4V76C69.3,75.9,64,74,64,68.3"/>
					<path id="Trazado_155" class="st6" d="M90.2,68.3h-3.6c0,5.9-4.5,7.7-10.7,7.7h-0.6v25.3h5.2L90.2,68.3z"/>
					<path id="Trazado_156" class="st7" d="M64,68.3h-7.1c-8.5,0-15.5,6.5-15.5,14.6v44c9.9,5.5,21.5,6.2,33.8,6.3V76
						C69.2,75.9,64,74,64,68.3"/>
					<path id="Trazado_157" class="st8" d="M93.7,68.3h-7.1c0,5.9-4.5,7.7-10.7,7.7h-0.6v57.2h0.6c12.1,0,23.4-0.5,33.3-5.7V82.9
						C109.1,74.9,102.2,68.3,93.7,68.3"/>
					<path id="Trazado_158" class="st5" d="M53.2,84.7c-5.4-0.1-9.9,4.1-10.1,9.5h5c0-2.8,2.3-5.1,5.1-5.1c2.8,0,5.1,2.3,5.1,5.1v38
						c1.5,0.2,3.3,0.5,5,0.6V94.2C63.1,88.8,58.6,84.5,53.2,84.7"/>
					<path id="Trazado_159" class="st3" d="M53.7,46.5c2.8-0.2,5.2,2,5.3,4.8c0.2,2.8-2,5.2-4.8,5.3c-0.2,0-0.4,0-0.6,0
						c-2.8,0.2-5.2-2-5.3-4.8s2-5.2,4.8-5.3l0,0H53.7"/>
					<path id="Trazado_160" class="st4" d="M96.9,46.5c2.8,0.2,4.8,2.6,4.7,5.3c-0.2,2.8-2.6,4.8-5.3,4.7c-2.6-0.2-4.7-2.3-4.7-5
						C91.6,48.7,94,46.4,96.9,46.5"/>
					<path id="Trazado_161" class="st3" d="M75.9,72.5h-1.2c-11.1,0-20.1-8.5-20.1-19V36.2c0-10.5,9-19,20.1-19h1.2
						c11.1,0,20.1,8.5,20.1,19v17.3C96,64,87,72.5,75.9,72.5"/>
					<path id="Trazado_162" class="st4" d="M75.9,17.2h-0.6v55.3h0.6C87,72.5,96,64,96,53.5V36.2C96,25.7,87,17.2,75.9,17.2"/>
					<path id="Trazado_163" class="st9" d="M85.5,36.5c-0.3,0-0.5-0.1-0.7-0.2c-5.3-4-12.5-4-17.8,0c-0.5,0.4-1.2,0.3-1.6-0.2
						c-0.4-0.4-0.4-1,0-1.4c0,0,0,0,0.1-0.1l0.1,0c6.1-4.6,14.6-4.6,20.7,0c0.5,0.3,0.6,0.9,0.3,1.4c0,0,0,0-0.1,0.1v0.1
						C86.2,36.4,85.9,36.5,85.5,36.5"/>
					<path id="Trazado_164" class="st9" d="M87.5,32.1c-0.3,0-0.5-0.1-0.7-0.2c-6.5-4.9-15.4-4.9-21.9,0c-0.5,0.4-1.2,0.3-1.6-0.2
						c-0.4-0.4-0.4-1,0-1.4c0,0,0,0,0.1-0.1l0.1-0.1c7.3-5.5,17.5-5.5,24.8,0c0.5,0.3,0.6,0.9,0.3,1.4c0,0,0,0-0.1,0.1v0.1
						C88.2,32,87.9,32.1,87.5,32.1"/>
					<path id="Trazado_165" class="st10" d="M86.2,34.6c-3-2.2-6.6-3.5-10.3-3.5c-0.2,0-0.4,0-0.6,0v2.2h0.6c3.2,0,6.3,1,8.9,3
						c0.5,0.4,1.2,0.3,1.6-0.2c0.4-0.4,0.4-1,0-1.4C86.3,34.7,86.3,34.7,86.2,34.6L86.2,34.6"/>
					<path id="Trazado_166" class="st10" d="M88.2,30.2c-3.6-2.7-7.9-4.1-12.4-4.1h-0.6v2.1h0.6c4,0,7.8,1.3,11,3.7
						c0.5,0.4,1.2,0.3,1.6-0.2c0.4-0.4,0.4-1,0-1.4c0,0,0,0-0.1,0L88.2,30.2"/>
					<path id="Trazado_167" class="st11" d="M100.9,47.7c3.3,0.1,6.1-2.3,6.6-5.6c0.1-1.2-0.2-2.5-0.8-3.5c0.6-0.9,0.9-1.9,0.9-3
						c-0.1-3.4-3-6.2-6.4-6.1c0,0,0,0,0,0c-0.1-3.4-2.9-6-6.3-6c-3.5-0.1-6.4,2.7-6.5,6.1l0,0v6.5c0.2,6.5,5.6,11.6,12.1,11.5
						L100.9,47.7z"/>
					<path id="Trazado_168" class="st12" d="M82.6,72.8c0,0,16.6-1.6,14.7-28.6c0,0-3.9,12.9-13,14.2c-0.9-2.3-3.1-3.8-5.5-3.8h-7
						c-2.5,0-4.7,1.5-5.6,3.8c-9.1-1.3-13-14.2-13-14.2c-1.9,27,14.6,28.6,14.6,28.6H82.6z M80.4,64.4H70.1c-1.2,0-2.2-2.4-2.2-3.6
						l0,0c0-1.2,1-2.2,2.2-2.2h10.2c1.2,0,2.2,0.9,2.2,2.2C82.6,62,81.6,64.4,80.4,64.4"/>
					<path id="Trazado_169" class="st11" d="M97.3,44.2c0,0-3.9,12.9-13.1,14.2c-0.9-2.3-3.1-3.8-5.5-3.8h-3.6v4h5.2
						c1.2,0,2.2,1,2.2,2.2c0,1.2-1,3.6-2.2,3.6h-5.2v8.4h7.5C82.6,72.8,99.2,71.2,97.3,44.2"/>
					<path id="Trazado_170" class="st12" d="M50.8,47.7c-3.3,0.1-6.2-2.3-6.6-5.6c-0.1-1.2,0.2-2.5,0.8-3.5c-0.6-0.9-0.9-1.9-0.9-3
						c0.1-3.4,3-6.2,6.4-6.1c0.1-3.4,2.9-6.1,6.3-6.1c3.5-0.1,6.4,2.7,6.5,6.2l0,0v6.5c-0.2,6.5-5.6,11.6-12.1,11.5L50.8,47.7z"/>
				</g>
			</g>
		</g>
	</g>
	<path class="st13" d="M51.3,139.2c1,1,1.6,2.4,1.5,3.8c0.1,1.4-0.5,2.9-1.6,3.8c-1.4,0.9-3,1.3-4.6,1.2h-1.8v3.9h-3.1v-14h4.9
		C48.3,137.8,50,138.3,51.3,139.2z M49,144.7c0.4-0.5,0.6-1.2,0.6-1.8c0.1-0.7-0.2-1.3-0.7-1.7c-0.7-0.4-1.5-0.6-2.3-0.5h-1.8v4.7
		h2.1C47.7,145.4,48.4,145.2,49,144.7L49,144.7z"/>
	<path class="st13" d="M64.4,152l-1.3-3h-5.8l-1.3,3h-3.3l6-14h3l6,14H64.4z M60.2,142.1l-1.8,4.1h3.5L60.2,142.1z"/>
	<path class="st13" d="M80,139.8c1.4,1.3,2.1,3.2,2,5.1c0.1,1.9-0.6,3.8-2,5.2c-1.3,1.3-3.3,1.9-6,1.9h-4.7v-14h4.9
		C76.3,137.8,78.4,138.5,80,139.8z M77.7,148.1c0.8-0.8,1.2-2,1.2-3.1c0.1-1.2-0.3-2.3-1.2-3.2c-1-0.8-2.3-1.2-3.5-1.1h-1.7v8.5h2
		C75.6,149.3,76.8,148.9,77.7,148.1z"/>
	<path class="st13" d="M96,142.6c0,2.2-0.9,3.7-2.7,4.3l3.5,5h-3.8l-3.1-4.5h-2.2v4.5h-3.1v-14H90c2.2,0,3.7,0.4,4.7,1.1
		C95.7,140,96.2,141.3,96,142.6z M92.2,144.3c0.4-0.4,0.6-1,0.6-1.6c0.1-0.6-0.2-1.2-0.6-1.6c-0.6-0.3-1.4-0.5-2.1-0.4h-2.3v4.1h2.3
		C90.9,144.9,91.6,144.7,92.2,144.3z"/>
	<path class="st13" d="M109.3,138v2.8h-7v2.9h6.3v2.7h-6.3v2.9h7.2v2.8H99.2v-14L109.3,138z"/>
</g>
</svg>
