<svg id="Layer_1" data-name="Layer 1" xmlns="http://www.w3.org/2000/svg" width="28" height="28" viewBox="0 0 28 28"><defs><style>.cls-1{fill:#3acce1;}.cls-2{fill:#fff;}</style></defs><g id="Group_778-8" data-name="Group 778-8"><circle id="Ellipse_57-8" data-name="Ellipse 57-8" class="cls-1" cx="14" cy="14" r="14"/><g id="Grupo_1607-4" data-name="Grupo 1607-4"><g id="Grupo_1604-4" data-name="Grupo 1604-4"><g id="Grupo_1603-4" data-name="Grupo 1603-4"><path id="Trazado_1246-4" data-name="Trazado 1246-4" class="cls-2" d="M18,16.48,14.53,13.9V8.67a.94.94,0,0,0-.94-1h0a.93.93,0,0,0-.94.92v5.74a.91.91,0,0,0,.37.75L16.81,18a.93.93,0,0,0,1.31-.16l0,0A1,1,0,0,0,18,16.48Z"/></g></g><g id="Grupo_1606-4" data-name="Grupo 1606-4"><g id="Grupo_1605-4" data-name="Grupo 1605-4"><path id="Trazado_1247-4" data-name="Trazado 1247-4" class="cls-2" d="M14,4.42a9.55,9.55,0,1,0,.06,0Zm0,17.69a8.07,8.07,0,1,1,.09,0Z"/></g></g></g></g></svg>