<svg id="Layer_1" data-name="Layer 1" xmlns="http://www.w3.org/2000/svg" xmlns:xlink="http://www.w3.org/1999/xlink" viewBox="0 0 100 100"><defs><style>.cls-1{fill:#fff;}.cls-2{fill:#313133;}.cls-3{fill:#e0e1e3;}.cls-4{fill:#248332;}.cls-23,.cls-5{fill:#1a1818;}.cls-5{isolation:isolate;opacity:0.3;}.cls-6{fill:url(#linear-gradient);}.cls-7{fill:#e50019;}.cls-8{fill:#ffc739;}.cls-9{fill:#35ae8a;}.cls-10{fill:#009cd5;}.cls-11{fill:#5f202a;}.cls-12{fill:#a7c84d;}.cls-13{fill:#73303f;}.cls-14{fill:#642c36;}.cls-15{fill:#ffd942;}.cls-16{fill:#fca263;}.cls-17{fill:#883949;}.cls-18{fill:none;stroke:#1a1818;stroke-linecap:round;stroke-linejoin:round;stroke-width:0.25px;stroke-dasharray:1 1;}.cls-19{fill:#6d6f72;}.cls-20{fill:#464749;}.cls-21{fill:#3eb8ed;}.cls-22{fill:#aeb0b3;}</style><linearGradient id="linear-gradient" x1="-446.67" y1="43.58" x2="-446.67" y2="43.92" gradientTransform="matrix(59.75, 0, 0, -57.23, 26756.48, 2750.63)" gradientUnits="userSpaceOnUse"><stop offset="0" stop-color="#ea4c5c"/><stop offset="1" stop-color="#e71a2f"/></linearGradient></defs><rect id="Rectángulo_292-2" data-name="Rectángulo 292-2" class="cls-1" x="2.5" y="2.5" width="95" height="95" rx="15.73"/><path class="cls-2" d="M20.27,70.7a1.88,1.88,0,0,1-1.2,2l1.6,2.3h-1.8l-1.4-2h-1v2h-1.4V68.59h2.41a3.1,3.1,0,0,1,2.1.51A2,2,0,0,1,20.27,70.7Zm-1.7.8a1.14,1.14,0,0,0,.3-.8.91.91,0,0,0-.3-.7,1.8,1.8,0,0,0-1-.2h-1v1.9h1A1.23,1.23,0,0,0,18.57,71.5Z"/><path class="cls-2" d="M50.6,70.7a1.88,1.88,0,0,1-1.2,2L51,75H49.2l-1.4-2h-1v2H45.4V68.59h2.4a3.1,3.1,0,0,1,2.1.51A2,2,0,0,1,50.6,70.7Zm-1.7.8a1.14,1.14,0,0,0,.3-.8.91.91,0,0,0-.3-.7,1.8,1.8,0,0,0-1-.2h-1v1.9h1A1.23,1.23,0,0,0,48.9,71.5Z"/><path class="cls-2" d="M26.28,68.59V69.9H23.07v1.3H26v1.2h-2.9v1.3h3.31V75H21.67V68.59Z"/><path class="cls-2" d="M32.08,69.2a2.09,2.09,0,0,1,.7,1.8,1.81,1.81,0,0,1-.7,1.7,3.14,3.14,0,0,1-2.1.5h-.9V75h-1.5V68.59h2.2A4.14,4.14,0,0,1,32.08,69.2Zm-1,2.5a.78.78,0,0,0,.2-.8,1.14,1.14,0,0,0-.3-.8,1.8,1.8,0,0,0-1-.2h-.8V72h1a1.61,1.61,0,0,0,.9-.3Z"/><path class="cls-2" d="M38,75l-.6-1.4H34.78l-.6,1.4h-1.5l2.8-6.41h1.31L39.59,75Zm-1.9-4.5-.81,1.9h1.61Z"/><path class="cls-2" d="M42.49,69.9V75h-1.4V69.9h-1.8V68.69h5V69.9Z"/><path class="cls-2" d="M52,68.59h1.4V75H52Z"/><path class="cls-2" d="M59.61,75,59,73.6h-2.7l-.6,1.4H54.2L57,68.59h1.4L61.21,75Zm-2-4.5-.8,1.9h1.6Z"/><path class="cls-2" d="M64.72,73.7a2.14,2.14,0,0,0,1.7-.8l.9.9a3.39,3.39,0,0,1-4.81.5l-.2-.2a3,3,0,0,1-1-2.3,3.1,3.1,0,0,1,1-2.4,3.51,3.51,0,0,1,2.41-1,3.23,3.23,0,0,1,2.6,1.21l-.9,1a2.14,2.14,0,0,0-1.7-.8,2.39,2.39,0,0,0-1.41.5,2,2,0,0,0-.6,1.4,2.39,2.39,0,0,0,.5,1.4A1.66,1.66,0,0,0,64.72,73.7Z"/><path class="cls-2" d="M68.52,68.59h1.4V75h-1.4Z"/><path class="cls-2" d="M76.83,74.1a3.45,3.45,0,0,1-4.81,0,3.32,3.32,0,0,1,0-4.7,3.43,3.43,0,0,1,4.81,0A3.32,3.32,0,0,1,76.83,74.1Zm-.5-2.3a2.69,2.69,0,0,0-.5-1.5,1.61,1.61,0,0,0-1.3-.6,1.63,1.63,0,0,0-1.31.6,2,2,0,0,0-.6,1.5,1.82,1.82,0,0,0,.6,1.4,1.63,1.63,0,0,0,1.31.6,1.61,1.61,0,0,0,1.3-.6,1.55,1.55,0,0,0,.5-1.4ZM75.13,68h-1.3l1.2-1.6,1.4.6Z"/><path class="cls-2" d="M83.54,68.59h1.4V75h-1.4l-3-4v4H79V68.59h1.3l3.11,4.11V68.59Z"/><path class="cls-2" d="M30.48,85.11l-.6-1.4h-2.7l-.6,1.4H25.07l2.81-6.4h1.4l2.8,6.4Zm-1.9-4.5-.8,1.8h1.6Z"/><path class="cls-2" d="M40.89,81.11l-1.7,3.5h-.8l-1.7-3.5v4H35.28v-6.4h1.91l1.6,3.5,1.7-3.5h1.9v6.4H41v-4Z"/><path class="cls-2" d="M48.5,78.71V80H45.3v1.3h2.9v1.2H45.3v1.3h3.3v1.3H43.79v-6.4ZM46.7,78H45.4l1.2-1.6L48,77Z"/><path class="cls-2" d="M53.4,78.71h1.71l-2,3.1,2.21,3.3H53.6L52.2,83l-1.4,2.1H49.1l2.2-3.3-2-3.1H51l1.2,1.9Z"/><path class="cls-2" d="M56.21,78.71h1.4v6.4h-1.4Z"/><path class="cls-2" d="M62.11,83.81a2.14,2.14,0,0,0,1.7-.8l.91.9a3.38,3.38,0,0,1-4.81.4c-.1,0-.1-.1-.2-.1a3,3,0,0,1-1-2.3,3.1,3.1,0,0,1,1-2.4,3,3,0,0,1,2.4-.9,3.26,3.26,0,0,1,2.61,1.2l-.91,1a2.14,2.14,0,0,0-1.7-.8,2.39,2.39,0,0,0-1.4.5,1.93,1.93,0,0,0,0,2.8A2.39,2.39,0,0,0,62.11,83.81Z"/><path class="cls-2" d="M71,84.21a3.44,3.44,0,0,1-4.8,0,3.32,3.32,0,0,1,0-4.7,3.42,3.42,0,0,1,4.8,0A3.32,3.32,0,0,1,71,84.21Zm-.4-2.4a1.82,1.82,0,0,0-.6-1.4,1.71,1.71,0,0,0-2.6,0,1.87,1.87,0,0,0-.5,1.4,1.82,1.82,0,0,0,.6,1.4,1.71,1.71,0,0,0,2.6,0A2,2,0,0,0,70.62,81.81Z"/><g id="Grupo_1515" data-name="Grupo 1515"><g id="Grupo_1514" data-name="Grupo 1514"><path id="Trazado_1110" data-name="Trazado 1110" class="cls-3" d="M22.47,15.14h1.4A10.33,10.33,0,0,1,29,16.54l3.7,2.1h3.51a2.5,2.5,0,0,0,1.8-.8,2.34,2.34,0,0,1,1.8-.8h0a2,2,0,0,1,1.6.7l2.5,2.5a1.76,1.76,0,0,1,.6,1.31,1.9,1.9,0,0,0,.5,1.3l.51.5a1.57,1.57,0,0,0,2.2,0h0c.1-.1.2-.3.3-.4a1.89,1.89,0,0,1,2.6-.9,2,2,0,0,1,.9.9l2.9,6.1a1.66,1.66,0,0,0,1.51.9,1.67,1.67,0,0,1,1.7,1.61h0v8.1A18.59,18.59,0,0,0,60,48.87h0A5.28,5.28,0,0,0,67.22,51l1.9-1a2.09,2.09,0,0,0,1-1.71,2,2,0,0,1,2-2h3.71a1.32,1.32,0,0,1,1.3,1.3,1.27,1.27,0,0,1-.1.6l-1.8,7.11a3.79,3.79,0,0,1-3.41,2.1,2,2,0,0,0-2,2h0a2,2,0,0,1-.6,1.4l-1.4,1.4a1.75,1.75,0,0,1-2.5,0h0a1.76,1.76,0,0,0-2.51,0h0a3.46,3.46,0,0,1-4.2.5L43.49,53.78a1.61,1.61,0,0,1-.6-2.1h0c.1-.1.1-.2.2-.3a1.58,1.58,0,0,0,0-2.21h0l-4.3-4.4a6.2,6.2,0,0,1-1.8-4.4A6.25,6.25,0,0,0,35.18,36l-3.4-3.4a2.74,2.74,0,0,1-.8-1.91,2.79,2.79,0,0,0-1.5-2.4l-1.9-.9a1.69,1.69,0,0,0-2.21.8h0a1.68,1.68,0,0,0,.3,1.9l5,5a3.63,3.63,0,0,1,1.1,2.6,1.69,1.69,0,0,1-1.7,1.7h0a1.66,1.66,0,0,1-1.2-.5l-6.51-6.5a5.1,5.1,0,0,1-1.5-3.61V16.94a1.53,1.53,0,0,1,1.6-1.8Z"/><path id="Trazado_1111" data-name="Trazado 1111" class="cls-4" d="M28.68,38.86a1.85,1.85,0,0,0,2.5.1,1.54,1.54,0,0,0,.5-1.3,3.63,3.63,0,0,0-1.1-2.6l-4.91-5a1.66,1.66,0,0,1-.5-1.2,1.69,1.69,0,0,1,1.71-1.7h0a1.45,1.45,0,0,1,.7.2l1.9.9a2.67,2.67,0,0,1,1.5,2.4,2.74,2.74,0,0,0,.8,1.91l3.4,3.4A6.18,6.18,0,0,1,37,40.37a6.47,6.47,0,0,0,1.8,4.4l.7.7V16.94a2.44,2.44,0,0,0-1.5.8,2.43,2.43,0,0,1-1.8.9H32.68L29,16.54a11.16,11.16,0,0,0-5.11-1.4h-1.4a1.79,1.79,0,0,0-1.8,1.8h0V28.75a4.78,4.78,0,0,0,1.5,3.61Z"/><path id="Trazado_1112" data-name="Trazado 1112" class="cls-5" d="M24.87,15.14c-.3,0-.6-.1-1-.1h-1.4a1.79,1.79,0,0,0-1.8,1.8h0V28.65a4.78,4.78,0,0,0,1.5,3.61l6.51,6.5a1.85,1.85,0,0,0,2.5.1,1.54,1.54,0,0,0,.5-1.3,3.63,3.63,0,0,0-1.1-2.6l-4.91-5a1.66,1.66,0,0,1-.5-1.2,1.69,1.69,0,0,1,1.71-1.7h0a1.45,1.45,0,0,1,.7.2l1.9.9a2.67,2.67,0,0,1,1.5,2.4,2.74,2.74,0,0,0,.8,1.91l3.4,3.4A6.17,6.17,0,0,1,37,40.26a6.47,6.47,0,0,0,1.8,4.41l4.3,4.3a1.58,1.58,0,0,1,0,2.21h0a1.57,1.57,0,0,0,0,2.2h0c.1.1.2.2.3.2l15.12,8.91a3.48,3.48,0,0,0,4.2-.5,1.76,1.76,0,0,1,2.51,0h0a1.75,1.75,0,0,0,2.5,0h0l1.4-1.4a2.18,2.18,0,0,0,.5-.8s-10.41,1.6-24.43-15.52S24.87,15.14,24.87,15.14Z"/><path id="Trazado_1113" data-name="Trazado 1113" class="cls-6" d="M75.83,46.17H72a2,2,0,0,0-2,2,2,2,0,0,1-1,1.71l-1.9,1a7.83,7.83,0,0,1-2.5.7,5.54,5.54,0,0,1-4.71-2.81h0a24.3,24.3,0,0,1-1.6-3.7V62.49l.2.1a3.48,3.48,0,0,0,4.2-.5,1.76,1.76,0,0,1,2.51,0,1.75,1.75,0,0,0,2.5,0h0l1.4-1.4a2,2,0,0,0,.6-1.4,2,2,0,0,1,2-2h0a3.68,3.68,0,0,0,3.41-2.1l1.8-7.11a1.32,1.32,0,0,0-.6-1.7.76.76,0,0,0-.5-.2Z"/><path id="Trazado_1114" data-name="Trazado 1114" class="cls-7" d="M75.83,46.17H72a2,2,0,0,0-2,2,2,2,0,0,1-1,1.71l-1.9,1a7.83,7.83,0,0,1-2.5.7,5.54,5.54,0,0,1-4.71-2.81h0a24.3,24.3,0,0,1-1.6-3.7V62.49l.2.1a3.48,3.48,0,0,0,4.2-.5,1.76,1.76,0,0,1,2.51,0,1.75,1.75,0,0,0,2.5,0h0l1.4-1.4a2,2,0,0,0,.6-1.4,2,2,0,0,1,2-2h0a3.68,3.68,0,0,0,3.41-2.1l1.8-7.11a1.32,1.32,0,0,0-.6-1.7.76.76,0,0,0-.5-.2Z"/><g id="Grupo_1513" data-name="Grupo 1513"><path id="Trazado_1115" data-name="Trazado 1115" class="cls-8" d="M49.9,39.76l-1,.5v.51h.5Z"/><g id="Grupo_1511" data-name="Grupo 1511"><path id="Trazado_1116" data-name="Trazado 1116" class="cls-9" d="M48.9,42.07a.22.22,0,0,1-.2-.2h0v-1a.22.22,0,0,1,.2-.2h0a.22.22,0,0,1,.2.2h0v1A.22.22,0,0,1,48.9,42.07Z"/><path id="Trazado_1117" data-name="Trazado 1117" class="cls-9" d="M48.9,41.07A3.83,3.83,0,0,1,46.2,40a.28.28,0,0,1,.4-.4,3.3,3.3,0,0,0,4.7,0,.19.19,0,0,1,.3,0h0a.3.3,0,0,1,0,.4h0A3.83,3.83,0,0,1,48.9,41.07Z"/></g><path id="Trazado_1118" data-name="Trazado 1118" class="cls-10" d="M48.9,42.07a3.45,3.45,0,0,1-1.8-.5l.3-.4a2.89,2.89,0,0,0,3.1,0l.3.4A4.49,4.49,0,0,1,48.9,42.07Z"/><path id="Trazado_1119" data-name="Trazado 1119" class="cls-11" d="M48.5,38.66l-.6.9-.1.2,1.5-.3Z"/><path id="Trazado_1120" data-name="Trazado 1120" class="cls-12" d="M47.3,40.06a1.91,1.91,0,0,1-1.7-1.8l.5-.1c.2,1,.8,1.4,1.2,1.4a.37.37,0,0,0,.3-.1c.1-.1,0-.1-.3-.2a.52.52,0,0,1-.4-.2c-.5-.5.2-1.1.5-1.4l.1-.1c-.1-.1-.1-.1-.2-.1a.56.56,0,0,1-.6-.5.83.83,0,0,1,.3-.8l.2.5c-.1,0-.1.1-.1.2s0,.1.2.1a.84.84,0,0,1,.7.4.66.66,0,0,1-.2.7c-.3.3-.5.5-.4.6s.1.1.2.1.7.2.6.8a.8.8,0,0,1-.9.5Z"/><path id="Trazado_1121" data-name="Trazado 1121" class="cls-13" d="M49.4,37.26a1.06,1.06,0,0,0-.5-1.5h0s3.5-.5,3,4.1h0a4,4,0,0,1-1-1.2l-1.5-.9v-.5Z"/><path id="Trazado_1122" data-name="Trazado 1122" class="cls-11" d="M48.9,38.26l2.5,1.5-1,.5-1.5-1.5Z"/><path id="Trazado_1123" data-name="Trazado 1123" class="cls-14" d="M47.9,36.76h0a.47.47,0,0,1,.5.5h0a1.06,1.06,0,0,0-.2,1.2l.1.2a.22.22,0,0,0,.2.2l1.4,1.4v-.7a5.42,5.42,0,0,0-.6-2.5h0a1.6,1.6,0,0,0-1.4-.8h-.1C47.9,36.26,47.9,36.76,47.9,36.76Z"/><path id="Trazado_1124" data-name="Trazado 1124" class="cls-8" d="M47.9,36.26l-.5.5v.5l.8-.4c.1,0,.1-.1.1-.2h0v-.1Z"/><path id="Trazado_1125" data-name="Trazado 1125" class="cls-12" d="M48.9,43.07a4.28,4.28,0,0,1-4.31-4.31h.5a3.81,3.81,0,1,0,7.61,0h.5A4.27,4.27,0,0,1,48.9,43.07Z"/><g id="Grupo_1512" data-name="Grupo 1512"><circle id="Elipse_113" data-name="Elipse 113" class="cls-15" cx="45.09" cy="40.26" r="0.3"/><circle id="Elipse_114" data-name="Elipse 114" class="cls-15" cx="45.9" cy="41.47" r="0.3"/><circle id="Elipse_115" data-name="Elipse 115" class="cls-15" cx="47.1" cy="42.47" r="0.3"/><circle id="Elipse_116" data-name="Elipse 116" class="cls-15" cx="52.7" cy="40.26" r="0.3"/><circle id="Elipse_117" data-name="Elipse 117" class="cls-15" cx="52" cy="41.47" r="0.3"/><circle id="Elipse_118" data-name="Elipse 118" class="cls-15" cx="50.7" cy="42.47" r="0.3"/></g><path id="Trazado_1126" data-name="Trazado 1126" class="cls-16" d="M49.1,42.37h-.5a.47.47,0,0,1-.5-.5h0a.47.47,0,0,1,.5-.5h.5a.47.47,0,0,1,.5.5h0C49.7,42.17,49.4,42.37,49.1,42.37Z"/><path id="Trazado_1127" data-name="Trazado 1127" class="cls-17" d="M50.9,38.66a2.34,2.34,0,0,0,1,1.2h0c.5-4.6-3-4.1-3-4.1C51.4,35.76,50.9,38.66,50.9,38.66Z"/></g></g></g><path id="Trazado_1128" data-name="Trazado 1128" class="cls-18" d="M61.31,31.76s-11.91,9.41-5,21.72"/><g id="Grupo_1518" data-name="Grupo 1518"><g id="Grupo_1516" data-name="Grupo 1516"><path id="Trazado_1129" data-name="Trazado 1129" class="cls-19" d="M81.73,23.65l1.71,3.1c.1.1.1.3-.1.5h0a1.84,1.84,0,0,1-2.21-.3l-1.8-2.3Z"/><path id="Trazado_1130" data-name="Trazado 1130" class="cls-19" d="M81.23,22.45l-1-3.41c0-.2-.2-.3-.4-.3h-.2a1.4,1.4,0,0,0-1.1,1.5l.3,3.11Z"/></g><path id="Trazado_1131" data-name="Trazado 1131" class="cls-20" d="M80.53,26.05l2.1-.8-.9-1.6-2.3.9Z"/><g id="Grupo_1517" data-name="Grupo 1517"><path id="Trazado_1132" data-name="Trazado 1132" class="cls-20" d="M77.73,31.26h0a.93.93,0,0,1-.4,1.2l-1.8.9a2.66,2.66,0,0,1-1.2.3c-.1,0-.2,0-.2-.1l-.51-1.3c0-.1,0-.2.1-.2a2.15,2.15,0,0,1,1-.6,14.2,14.2,0,0,1,1.9-.71A.83.83,0,0,1,77.73,31.26Z"/><path id="Trazado_1133" data-name="Trazado 1133" class="cls-20" d="M73,19.74h0a.93.93,0,0,1-.4,1.2l-1.8.91a5.27,5.27,0,0,1-1.2.3c-.1,0-.2,0-.2-.1l-.6-1.31c0-.1,0-.2.1-.2a2.07,2.07,0,0,1,1-.6,13.05,13.05,0,0,1,1.9-.7A.88.88,0,0,1,73,19.74Z"/></g><path id="Trazado_1134" data-name="Trazado 1134" class="cls-19" d="M74.93,26.45l-4.51,1.8,8.51,7.21a.66.66,0,0,0,.6.1l1.2-.5a.69.69,0,0,0,.3-.9h0a.1.1,0,0,0-.1-.1Z"/><path id="Trazado_1135" data-name="Trazado 1135" class="cls-20" d="M72.32,30l4-1.6-1.4-1.8-4.51,1.8Z"/><path id="Trazado_1136" data-name="Trazado 1136" class="cls-19" d="M74.33,25.05,69.82,27l1.1-11.11a.66.66,0,0,1,.4-.5l1.2-.5a.72.72,0,0,1,.9.5h0v.2Z"/><path id="Trazado_1137" data-name="Trazado 1137" class="cls-19" d="M66.42,27.05,74,24c1.3-.5,2.6-.9,3.9-1.3l3.4-.9a1.32,1.32,0,0,1,1.7.6h0a1.36,1.36,0,0,1-.8,1.6l-3,1.7a25.28,25.28,0,0,1-3.7,1.8l-7.61,3.1a8.57,8.57,0,0,1-3.2.71c-.91,0-1.81-.1-2-.61s.3-1.3,1-1.9A9.67,9.67,0,0,1,66.42,27.05Z"/><path id="Trazado_1138" data-name="Trazado 1138" class="cls-20" d="M62.61,30.65a.66.66,0,0,0,.5.41,4.05,4.05,0,0,1,1-1.31,10.19,10.19,0,0,1,2.81-1.7L74.53,25a29.72,29.72,0,0,1,3.9-1.3l3.4-.9a2,2,0,0,1,1.3.1.64.64,0,0,0,0-.6h0a1.47,1.47,0,0,0-1.7-.6l-3.4.9a29.72,29.72,0,0,0-3.9,1.3L66.52,27a10.19,10.19,0,0,0-2.81,1.7C63,29.35,62.41,30.15,62.61,30.65Z"/><path id="Trazado_1139" data-name="Trazado 1139" class="cls-21" d="M65.62,28l.3-.1a6.44,6.44,0,0,1,1.1,2.7l-.3.1c-.2.1-.3,0-.5-.1h0a3.1,3.1,0,0,1-.9-2.2h0C65.32,28.15,65.42,28.05,65.62,28Z"/><path id="Trazado_1140" data-name="Trazado 1140" class="cls-22" d="M82.33,22.45c.1,0,.1.1.2.1s0,.3-.2.4h0l-3.2,1.3c-.1.1-.3,0-.4-.1a.4.4,0,0,1,.2-.4l3.2-1.3Z"/></g><g id="Grupo_1519" data-name="Grupo 1519"><path id="Trazado_1141" data-name="Trazado 1141" class="cls-23" d="M54.91,55.18l.6-.7,1.3,1.1,1.1-1.3.7.6-1.1,1.3,1.3,1.1-.6.7L57,57l-1.2,1.2-.7-.6,1.1-1.3Z"/></g></svg>