<?xml version="1.0" encoding="utf-8"?>
<!-- Generator: Adobe Illustrator 26.0.1, SVG Export Plug-In . SVG Version: 6.00 Build 0)  -->
<svg version="1.1" id="Layer_1" xmlns="http://www.w3.org/2000/svg" xmlns:xlink="http://www.w3.org/1999/xlink" x="0px" y="0px"
	 viewBox="0 0 283.5 283.5" style="enable-background:new 0 0 283.5 283.5;" xml:space="preserve">
<style type="text/css">
	.st0{fill:#CC001E;}
	.st1{fill:#AD0A1C;}
	.st2{fill:#F8CA43;}
	.st3{fill:#E7A166;}
	.st4{fill:#34646C;}
	.st5{fill:#20303F;}
	.st6{fill:#C58B59;}
</style>
<g>
	<path id="Path_752" class="st0" d="M220,117.7l-4.1,4.1l-73.7,73.7l-73.7-73.7l-4.1-4.1C43.7,97.8,43,64.9,62.9,44.1
		s52.9-21.5,73.6-1.5c0.5,0.5,1.1,1,1.6,1.6l4.1,4.1l4.1-4.1c19.8-20.8,52.8-21.7,73.6-1.8s21.7,52.8,1.8,73.6
		c-0.1,0.1-0.1,0.2-0.2,0.2C221,116.7,220.5,117.2,220,117.7"/>
	<path id="Path_753" class="st1" d="M220,44.1c-11.2-11.3-26.9-16.8-42.6-14.9c28.6,3.2,49.2,28.9,46,57.4
		c-1.3,11.8-6.6,22.7-14.9,31.1l-4.1,4.1l-67.9,67.9l5.8,5.8l73.7-73.7l4.1-4.1C240.3,97.4,240.3,64.5,220,44.1"/>
	<path id="Path_754" class="st2" d="M177.3,134.9h-0.2c-1.8-0.1-3.3-1.4-3.7-3.1L165.1,93l-3.8,15.1c-0.4,1.8-2,3-3.8,3h-20.9
		l-3.1,9.2c-0.6,1.6-2.1,2.7-3.8,2.7c-1.7,0-3.2-1.2-3.7-2.9l-4.2-14.7l-8,26.7c-0.5,1.7-2.2,2.9-4,2.8c-1.8-0.1-3.3-1.4-3.7-3.1
		L97.7,93l-3.8,15.1c-0.4,1.8-2,3-3.8,3H30.6c-2.2,0-4-1.7-4-3.9s1.7-4,3.9-4c0,0,0.1,0,0.1,0H87l7.2-28.7c0.4-1.8,2.1-3.1,3.9-3
		c1.8,0,3.4,1.3,3.8,3.1l8.7,40.4l7.5-24.9c0.4-1.7,2-2.9,3.8-2.8c1.8,0,3.3,1.2,3.8,2.9l4.4,15.5c0.6-1.5,2.1-2.5,3.7-2.5h20.7
		l7.2-28.7c0.5-2.1,2.7-3.4,4.8-2.9c1.5,0.4,2.6,1.5,2.9,3l8.7,40.4l7.5-24.9c0.5-1.7,2-2.8,3.8-2.8h0c1.8,0,3.3,1.2,3.8,2.9
		l4.4,15.5c0.6-1.5,2.1-2.5,3.7-2.5h51.5c2.2,0,4,1.7,4,3.9c0,2.2-1.7,4-3.9,4c0,0-0.1,0-0.1,0H204l-3.1,9.2
		c-0.6,1.6-2.1,2.7-3.8,2.7c-1.7,0-3.2-1.2-3.7-2.9l-4.2-14.7l-8,26.7C180.6,133.8,179.1,134.9,177.3,134.9"/>
	<path id="Path_755" class="st3" d="M79.4,185.9l-18.1-18.1c-3.9-3.9-7-8.5-9.2-13.5l-8.9-20.7c-1.9-4.4-7-6.5-11.4-4.6
		c-4.4,1.9-6.5,7-4.6,11.4c0,0.1,0.1,0.1,0.1,0.2L43,174.7c1.9,4.2,4.5,8,7.8,11.3l28.7,28.7h38.4v-11.3c0.1-8.5-2.6-16.8-7.8-23.5
		c-2.9-3.8-6.9-6.7-11.4-8.4c-8.8-3.7-16.9-8.9-24-15.3c-5.7-4.7-14-4.3-19.2,0.9"/>
	<path id="Path_756" class="st3" d="M203.8,185.9l18.1-18.1c3.9-3.9,7-8.5,9.2-13.5l8.9-20.7c1.9-4.4,7-6.4,11.4-4.5
		c4.4,1.9,6.4,7,4.5,11.4c0,0.1,0,0.1-0.1,0.2l-15.5,34.2c-1.9,4.2-4.5,8-7.8,11.3l-28.7,28.7h-38.4v-11.3
		c-0.1-8.5,2.6-16.8,7.8-23.5c2.9-3.8,6.9-6.7,11.4-8.4c8.8-3.7,16.9-8.9,24-15.3c5.7-4.7,14-4.3,19.2,0.9"/>
	<path id="Path_757" class="st4" d="M205.1,254.3h-43.6c-2.2,0-4-1.8-4-4c0,0,0,0,0,0v-31.7c0-2.2,1.8-4,4-4l0,0h43.6
		c2.2,0,4,1.8,4,4l0,0v31.7C209,252.5,207.2,254.3,205.1,254.3C205.1,254.3,205.1,254.3,205.1,254.3"/>
	<path id="Path_758" class="st5" d="M177.3,238.5h-4c-2.2,0-3.9-1.8-3.9-4c0-2.1,1.8-3.9,3.9-3.9h4c2.2,0,4,1.7,4,3.9
		c0,2.2-1.7,4-3.9,4C177.4,238.5,177.3,238.5,177.3,238.5"/>
	<path id="Path_759" class="st4" d="M78.2,214.7h43.6c2.2,0,4,1.8,4,4c0,0,0,0,0,0v31.7c0,2.2-1.8,4-4,4c0,0,0,0,0,0H78.2
		c-2.2,0-4-1.8-4-4v-31.7C74.2,216.4,76,214.7,78.2,214.7C78.2,214.7,78.2,214.7,78.2,214.7"/>
	<path id="Path_760" class="st5" d="M109.9,238.5h-4c-2.2,0-3.9-1.8-3.9-4c0-2.1,1.8-3.9,3.9-3.9h4c2.2,0,4,1.7,4,3.9
		c0,2.2-1.7,4-3.9,4C110,238.5,109.9,238.5,109.9,238.5"/>
	<path id="Path_761" class="st6" d="M85.8,186.9c-1.6,1.5-4.1,1.5-5.6,0L62,168.8c-2.6-2.6-5-5.6-6.9-8.8c-0.4-0.6-0.7-1.1-1-1.7
		l1.5-1.4c1.4-1.4,3.1-2.5,5-3.2c1.8,3.5,4.2,6.7,7,9.5l18.1,18.1C87.3,182.8,87.3,185.3,85.8,186.9"/>
	<path id="Path_762" class="st6" d="M197.8,186.9c1.6,1.5,4.1,1.5,5.6,0l18.1-18.1c2.6-2.6,5-5.6,6.9-8.8c0.4-0.6,0.7-1.1,1-1.7
		l-1.5-1.4c-1.4-1.4-3.1-2.5-5-3.2c-1.8,3.5-4.2,6.7-7,9.5l-18.1,18.1C196.2,182.8,196.2,185.3,197.8,186.9"/>
</g>
</svg>
