<?xml version="1.0" encoding="utf-8"?>
<!-- Generator: Adobe Illustrator 26.0.1, SVG Export Plug-In . SVG Version: 6.00 Build 0)  -->
<svg version="1.1" id="Layer_1" xmlns="http://www.w3.org/2000/svg" xmlns:xlink="http://www.w3.org/1999/xlink" x="0px" y="0px"
	 viewBox="0 0 100 100" style="enable-background:new 0 0 100 100;" xml:space="preserve">
<style type="text/css">
	.st0{fill:#FFFFFF;}
	.st1{fill:#313133;}
	.st2{fill:#CC001E;}
	.st3{fill:#AD0A1C;}
	.st4{fill:#EFEFEF;}
	.st5{fill:#E7A166;}
	.st6{fill:#34646C;}
	.st7{fill:#203040;}
	.st8{fill:#C58B59;}
</style>
<path id="Rectángulo_293-2" class="st0" d="M18.2,2.5h63.5c8.7,0,15.7,7,15.7,15.7v63.5c0,8.7-7,15.7-15.7,15.7H18.2
	c-8.7,0-15.7-7-15.7-15.7V18.2C2.5,9.5,9.5,2.5,18.2,2.5z"/>
<g id="Grupo_1565">
	<g id="_SEGURO_MÉDICO">
		<g>
			<path class="st1" d="M30.6,70.1c-0.1,0.1-0.2,0.3-0.2,0.4c0,0.2,0.1,0.3,0.2,0.4c0.4,0.2,0.8,0.3,1.2,0.4c0.5,0.1,1,0.3,1.4,0.7
				c0.3,0.3,0.5,0.8,0.5,1.3c0,0.5-0.2,1.1-0.6,1.4c-0.5,0.4-1.1,0.6-1.7,0.5c-1,0-2-0.4-2.7-1.1l0.9-1c0.5,0.5,1.2,0.8,1.9,0.9
				c0.2,0,0.4,0,0.6-0.2c0.1-0.1,0.2-0.3,0.2-0.5c0-0.2-0.1-0.4-0.3-0.5c-0.3-0.2-0.6-0.3-0.9-0.3c-0.6-0.1-1.1-0.3-1.6-0.7
				c-0.3-0.4-0.5-0.8-0.4-1.3c0-0.5,0.2-1.1,0.6-1.4c0.5-0.3,1-0.5,1.6-0.5c0.4,0,0.9,0.1,1.3,0.2c0.4,0.1,0.8,0.3,1.1,0.6l-0.7,1
				c-0.5-0.4-1.1-0.6-1.7-0.6C31,69.8,30.8,69.9,30.6,70.1z"/>
			<path class="st1" d="M39.5,68.8v1.3h-3.2v1.3h2.8v1.2h-2.8v1.3h3.3v1.2H35v-6.4H39.5z"/>
			<path class="st1" d="M45.1,71.9h1.4v2.3c-0.7,0.7-1.6,1.1-2.6,1.1c-0.9,0-1.7-0.3-2.4-0.9c-1.3-1.3-1.3-3.4,0-4.7
				c0.6-0.6,1.5-1,2.3-1c0.9,0,1.7,0.3,2.4,0.9l-0.7,1.1c-0.2-0.2-0.5-0.4-0.8-0.5C44.5,70,44.2,70,44,70c-0.5,0-1,0.2-1.4,0.6
				C42.2,70.9,42,71.4,42,72c0,0.5,0.2,1.1,0.5,1.4c0.3,0.3,0.8,0.5,1.3,0.5c0.4,0,0.9-0.1,1.2-0.3L45.1,71.9z"/>
			<path class="st1" d="M49.5,73.5c0.2,0.3,0.6,0.5,1,0.4c0.4,0,0.8-0.1,1-0.4c0.2-0.4,0.4-0.8,0.3-1.2v-3.5h1.4v3.6
				c0.1,0.8-0.2,1.6-0.8,2.1c-1.1,1-2.8,1-3.9,0c-0.5-0.6-0.8-1.3-0.8-2.1v-3.6h1.4v3.5C49.1,72.7,49.2,73.2,49.5,73.5z"/>
			<path class="st1" d="M59.8,70.9c0.1,0.9-0.4,1.7-1.2,2l1.6,2.3h-1.8l-1.4-2h-1v2h-1.4v-6.4H57c0.7-0.1,1.5,0.1,2.1,0.5
				C59.6,69.7,59.8,70.3,59.8,70.9z M58.1,71.7c0.2-0.2,0.3-0.5,0.3-0.8c0-0.3-0.1-0.5-0.3-0.7c-0.3-0.2-0.7-0.2-1-0.2H56v1.9h1
				C57.4,72,57.8,71.9,58.1,71.7z"/>
			<path class="st1" d="M66.5,74.3c-1.3,1.3-3.4,1.3-4.8,0c-1.3-1.3-1.3-3.4,0-4.7c1.3-1.3,3.4-1.3,4.8,0
				C67.8,70.9,67.8,73,66.5,74.3z M66.1,71.9c0-0.5-0.2-1.1-0.6-1.5c-0.3-0.4-0.8-0.6-1.3-0.6c-0.5,0-1,0.2-1.3,0.6
				c-0.4,0.4-0.6,0.9-0.5,1.5c0,0.5,0.2,1.1,0.5,1.4c0.3,0.4,0.8,0.6,1.3,0.6c0.5,0,1-0.2,1.3-0.6C65.9,73,66.1,72.5,66.1,71.9z"/>
		</g>
		<g>
			<path class="st1" d="M35.3,81.2l-1.7,3.5h-0.8L31,81.2v4h-1.5v-6.4h1.9l1.6,3.5l1.7-3.5h1.9v6.4h-1.4V81.2z"/>
			<path class="st1" d="M42.8,78.8v1.3h-3.2v1.3h2.9v1.2h-2.9V84H43v1.3h-4.7v-6.4H42.8z M41.1,78.2h-1.3l1.2-1.6l1.4,0.6L41.1,78.2
				z"/>
			<path class="st1" d="M49.1,79.7c0.6,0.6,1,1.4,0.9,2.3c0,0.9-0.3,1.7-0.9,2.3c-0.8,0.6-1.7,0.9-2.7,0.9h-2.2v-6.4h2.2
				C47.4,78.8,48.4,79.1,49.1,79.7z M48,83.5c0.4-0.4,0.6-0.9,0.5-1.4c0-0.5-0.2-1.1-0.5-1.5c-0.4-0.4-1-0.6-1.6-0.5h-0.8V84h0.9
				C47,84,47.6,83.8,48,83.5z"/>
			<path class="st1" d="M51.2,78.8h1.4v6.4h-1.4V78.8z"/>
			<path class="st1" d="M57.2,84c0.7,0,1.3-0.3,1.7-0.8l0.9,0.9c-0.6,0.8-1.6,1.2-2.6,1.2c-0.9,0-1.8-0.3-2.4-0.9
				c-1.3-1.3-1.3-3.4,0-4.7c0.6-0.6,1.5-1,2.4-1c1,0,2,0.4,2.6,1.2l-0.9,1c-0.4-0.5-1-0.8-1.7-0.8c-0.5,0-1,0.2-1.4,0.5
				c-0.4,0.4-0.6,0.9-0.6,1.4c0,0.5,0.2,1,0.5,1.4C56.2,83.8,56.7,84,57.2,84z"/>
			<path class="st1" d="M66.1,84.3c-1.3,1.3-3.4,1.3-4.8,0c-1.3-1.3-1.3-3.4,0-4.7c1.3-1.3,3.4-1.3,4.8,0
				C67.4,80.9,67.4,83.1,66.1,84.3z M65.7,82c0-0.5-0.2-1.1-0.6-1.5c-0.3-0.4-0.8-0.6-1.3-0.6c-0.5,0-1,0.2-1.3,0.6
				c-0.7,0.8-0.7,2.1,0,2.9c0.3,0.4,0.8,0.6,1.3,0.6c0.5,0,1-0.2,1.3-0.6C65.5,83.1,65.7,82.5,65.7,82z"/>
		</g>
	</g>
	<g id="healthcare-covid19-coronavirus-hand-hearth">
		<g id="Grupo_1505">
			<path id="Trazado_1105" class="st2" d="M66.5,33.4l-0.9,0.9L50.3,49.7L34.9,34.3L34,33.4c-4.3-4.2-4.5-11-0.3-15.4c0,0,0,0,0,0
				l0,0c4.2-4.3,11-4.5,15.4-0.3c0,0,0,0,0,0l0,0c0.1,0.1,0.2,0.2,0.3,0.3l0.9,0.9l0.9-0.9c4.2-4.3,11-4.5,15.4-0.3c0,0,0,0,0,0l0,0
				c4.3,4.2,4.5,11,0.3,15.4c0,0,0,0,0,0l0,0L66.5,33.4z"/>
			<path id="Trazado_1106" class="st3" d="M66.5,18.1c-2.3-2.4-5.6-3.5-8.9-3.1c6,0.7,10.3,6,9.6,12c0,0,0,0,0,0l0,0
				c-0.3,2.5-1.4,4.7-3.1,6.5l-0.9,0.9L49,48.5l1.2,1.2l15.4-15.4l0.9-0.9C70.8,29.2,70.8,22.3,66.5,18.1z"/>
			<path id="Trazado_1107" class="st4" d="M52.7,37.6v-4.8h4.8v-4.8h-4.8v-4.8h-4.8v4.8H43v4.8h4.8v4.8H52.7z"/>
		</g>
		<g id="Grupo_1506">
			<path id="Shape-2" class="st5" d="M36.8,48L33,44.1c-0.8-0.8-1.5-1.8-2-2.9l-1.9-4.4c-0.4-0.9-1.5-1.4-2.4-0.9
				c-0.9,0.4-1.4,1.5-0.9,2.4l3.3,7.2c0.4,0.9,1,1.7,1.7,2.4l6.1,6.1H45v-2.4c0-1.8-0.6-3.6-1.7-5c-0.6-0.8-1.5-1.4-2.4-1.8
				c-1.9-0.8-3.6-1.9-5.1-3.2c-1.2-1-3-0.9-4.1,0.2"/>
			<path id="Shape-3" class="st5" d="M63.2,48l3.8-3.9c0.8-0.8,1.5-1.8,2-2.9l1.9-4.4c0.4-0.9,1.5-1.4,2.4-0.9
				c0.3,0.1,0.6,0.4,0.8,0.7c0.3,0.5,0.4,1.2,0.1,1.8l-3.3,7.2c-0.4,0.9-1,1.7-1.7,2.4l-6.1,6.1H55v-2.4c0-1.8,0.5-3.6,1.7-5
				c0.6-0.8,1.5-1.4,2.4-1.8c1.9-0.8,3.6-1.9,5.1-3.2c1.2-1,3-0.9,4.1,0.2"/>
			<path id="Rectangle-path-2" class="st6" d="M55,54.1h7.7c0.9,0,1.6,0.7,1.6,1.6v5.2c0,0.9-0.7,1.6-1.6,1.6H55
				c-0.9,0-1.6-0.7-1.6-1.6v-5.2C53.4,54.8,54.1,54.1,55,54.1z"/>
			<path id="Shape-4" class="st7" d="M57.6,59.1h-0.8c-0.5,0-0.8-0.4-0.8-0.8s0.4-0.8,0.8-0.8h0.8c0.5,0,0.8,0.4,0.8,0.8l0,0l0,0
				C58.4,58.7,58,59.1,57.6,59.1z"/>
			<path id="Rectangle-path-3" class="st6" d="M37.3,54.1H45c0.9,0,1.6,0.7,1.6,1.6v5.2c0,0.9-0.7,1.6-1.6,1.6h-7.7
				c-0.9,0-1.6-0.7-1.6-1.6v-5.2C35.7,54.8,36.4,54.1,37.3,54.1z"/>
			<path id="Shape-5" class="st7" d="M43.3,59.1h-0.8c-0.5,0-0.8-0.4-0.8-0.8l0,0c0-0.5,0.4-0.8,0.8-0.8h0.8c0.5,0,0.8,0.4,0.8,0.8
				S43.7,59.1,43.3,59.1z"/>
			<path id="Shape-6" class="st8" d="M38.2,48.2c-0.3,0.3-0.9,0.3-1.2,0c0,0,0,0,0,0l-3.8-3.8c-0.6-0.6-1.1-1.2-1.5-1.9
				c-0.1-0.1-0.1-0.2-0.2-0.4l0.3-0.3c0.3-0.3,0.7-0.5,1.1-0.7c0.4,0.7,0.9,1.4,1.5,2l3.8,3.9C38.5,47.3,38.5,47.9,38.2,48.2z"/>
			<path id="Shape-7" class="st8" d="M61.9,48.2c0.3,0.3,0.9,0.3,1.2,0l3.8-3.8c0.6-0.6,1.1-1.2,1.5-1.9l0.2-0.4l-0.3-0.3
				c-0.3-0.3-0.7-0.5-1.1-0.7c-0.4,0.7-0.9,1.4-1.5,2L61.9,47C61.6,47.3,61.6,47.8,61.9,48.2z"/>
		</g>
	</g>
</g>
</svg>
