<svg id="Layer_1" data-name="Layer 1" xmlns="http://www.w3.org/2000/svg" width="100" height="100" viewBox="0 0 100 100"><defs><style>.cls-1{fill:#fff;}.cls-2{fill:#cc001e;}.cls-3{fill:#ad0a1c;}.cls-4{fill:#f8ca43;}.cls-5{fill:#ffcc9c;}.cls-6{fill:#34646c;}.cls-7{fill:#203040;}.cls-8{fill:#ec7e5e;}.cls-9{isolation:isolate;}.cls-10{fill:#313133;}</style></defs><rect id="Rectángulo_292-2" data-name="Rectángulo 292-2" class="cls-1" x="2.5" y="2.5" width="95" height="95" rx="15.73"/><g id="Grupo_1566" data-name="Grupo 1566"><g id="Page-1"><g id="_034---Life-Insurance" data-name=" 034---Life-Insurance"><g id="Grupo_1508" data-name="Grupo 1508"><path id="Trazado_1108" data-name="Trazado 1108" class="cls-2" d="M66.71,33.74l-.87.87L50.13,50.32,34.42,34.61l-.88-.87A11.12,11.12,0,0,1,33.21,18h0a11.13,11.13,0,0,1,15.71-.33h0l.33.34.88.88L51,18a11.11,11.11,0,0,1,16,15.36C66.94,33.52,66.83,33.63,66.71,33.74Z"/><path id="Trazado_1109" data-name="Trazado 1109" class="cls-3" d="M66.71,18a11,11,0,0,0-9.09-3.18,11.09,11.09,0,0,1,9.81,12.25h0a11.12,11.12,0,0,1-3.18,6.63l-.88.88L48.89,49.09l1.24,1.23L65.84,34.61l.87-.87A11.11,11.11,0,0,0,66.71,18Z"/><path id="Shape-8" class="cls-4" d="M57.61,37.4h0a.84.84,0,0,1-.8-.66L55,28.46l-.81,3.23a.84.84,0,0,1-.82.64H48.92l-.66,2a.89.89,0,0,1-.82.58.84.84,0,0,1-.79-.62l-.9-3.14L44,36.8a.85.85,0,0,1-1.64-.06l-1.77-8.28-.81,3.23a.85.85,0,0,1-.82.64H26.32a.85.85,0,1,1,0-1.69h12l1.53-6.13a.84.84,0,0,1,.84-.64.85.85,0,0,1,.81.67l1.85,8.62L45,27.86a.79.79,0,0,1,.82-.6.83.83,0,0,1,.8.61l1,3.3a.83.83,0,0,1,.78-.53h4.41l1.53-6.13a.87.87,0,0,1,.84-.64.85.85,0,0,1,.81.67l1.85,8.62,1.59-5.3a.85.85,0,0,1,.81-.6h0a.84.84,0,0,1,.81.61l.95,3.3a.83.83,0,0,1,.78-.53h11a.85.85,0,1,1,0,1.69H63.3l-.66,2a.89.89,0,0,1-.82.58.85.85,0,0,1-.79-.61l-.9-3.15L58.42,36.8A.82.82,0,0,1,57.61,37.4Z"/></g><g id="Grupo_1509" data-name="Grupo 1509"><path id="Shape-9" class="cls-5" d="M36.73,48.28l-3.86-3.87a9.23,9.23,0,0,1-1.95-2.88L29,37.11a1.85,1.85,0,1,0-3.38,1.5L29,45.9a8.12,8.12,0,0,0,1.66,2.4l6.11,6.12h8.2V52a8,8,0,0,0-1.67-5,5.29,5.29,0,0,0-2.43-1.79,18,18,0,0,1-5.12-3.26,3,3,0,0,0-4.09.19"/><path id="Shape-10" class="cls-5" d="M63.26,48.28l3.87-3.87a9.23,9.23,0,0,0,2-2.88L71,37.11a1.85,1.85,0,1,1,3.38,1.5L71,45.9a8.12,8.12,0,0,1-1.66,2.4l-6.12,6.12H55.07V52a8.08,8.08,0,0,1,1.67-5,5.29,5.29,0,0,1,2.43-1.79,18,18,0,0,0,5.12-3.26,3,3,0,0,1,4.09.19"/><rect id="Rectangle-path-4" class="cls-6" x="53.38" y="54.42" width="11" height="8.46" rx="1.61"/><path id="Shape-11" class="cls-7" d="M57.61,59.49h-.84a.85.85,0,1,1,0-1.69h.84a.85.85,0,1,1,0,1.69Z"/><rect id="Rectangle-path-5" class="cls-6" x="35.62" y="54.42" width="11" height="8.46" rx="1.61"/><path id="Shape-12" class="cls-7" d="M43.23,59.49h-.84a.85.85,0,1,1,0-1.69h.84a.85.85,0,1,1,0,1.69Z"/><path id="Shape-13" class="cls-8" d="M38.09,48.49a.85.85,0,0,1-1.2,0L33,44.62a10.27,10.27,0,0,1-1.47-1.87l-.21-.37.32-.29a2.94,2.94,0,0,1,1.08-.69,8.46,8.46,0,0,0,1.48,2l3.87,3.86A.85.85,0,0,1,38.09,48.49Z"/><path id="Shape-14" class="cls-8" d="M62,48.49a.86.86,0,0,0,1.21,0L67,44.62a9.85,9.85,0,0,0,1.47-1.87,2.71,2.71,0,0,0,.21-.37l-.32-.29a2.9,2.9,0,0,0-1.07-.69,8.24,8.24,0,0,1-1.49,2L62,47.29A.85.85,0,0,0,62,48.49Z"/></g></g></g><g id="_SEGURO_DE_VIDA" data-name=" SEGURO DE VIDA" class="cls-9"><g class="cls-9"><path class="cls-10" d="M30.62,70.22a.56.56,0,0,0-.2.44.48.48,0,0,0,.25.44,4.56,4.56,0,0,0,1.16.39,3.31,3.31,0,0,1,1.41.67,1.69,1.69,0,0,1,.5,1.31,1.75,1.75,0,0,1-.64,1.39,2.62,2.62,0,0,1-1.7.53,3.87,3.87,0,0,1-2.72-1.12l.84-1a3,3,0,0,0,1.91.9,1,1,0,0,0,.62-.17.52.52,0,0,0,.22-.45.54.54,0,0,0-.24-.46,3.32,3.32,0,0,0-.94-.34A4.25,4.25,0,0,1,29.46,72,1.63,1.63,0,0,1,29,70.69a1.66,1.66,0,0,1,.65-1.4,2.63,2.63,0,0,1,1.63-.49,3.83,3.83,0,0,1,1.28.22,3.35,3.35,0,0,1,1.11.62l-.72,1a2.81,2.81,0,0,0-1.72-.63A.83.83,0,0,0,30.62,70.22Z"/><path class="cls-10" d="M39.55,68.94v1.27H36.37v1.31h2.86v1.22H36.37v1.32h3.28v1.26H35V68.94Z"/><path class="cls-10" d="M45.06,72.07h1.43v2.26a3.33,3.33,0,0,1-2.63,1.06,3.23,3.23,0,0,1-2.35-.93,3.13,3.13,0,0,1-1-2.35,3.28,3.28,0,0,1,3.32-3.31,3.46,3.46,0,0,1,2.38.9l-.73,1.07a3,3,0,0,0-.79-.52,2.21,2.21,0,0,0-.78-.14,1.86,1.86,0,0,0-1.37.55A2,2,0,0,0,42,72.12a2,2,0,0,0,.54,1.44,1.69,1.69,0,0,0,1.27.55,2.43,2.43,0,0,0,1.23-.29Z"/><path class="cls-10" d="M49.45,73.67a1.24,1.24,0,0,0,1.91,0,1.91,1.91,0,0,0,.35-1.21V68.94h1.42v3.57a2.85,2.85,0,0,1-.76,2.13,2.69,2.69,0,0,1-2,.74,2.73,2.73,0,0,1-2-.74,2.85,2.85,0,0,1-.77-2.13V68.94h1.42v3.52A1.86,1.86,0,0,0,49.45,73.67Z"/><path class="cls-10" d="M59.78,71.06a1.88,1.88,0,0,1-1.21,2l1.61,2.28H58.43l-1.41-2H56v2H54.61V68.94H57a3.49,3.49,0,0,1,2.12.5A2,2,0,0,1,59.78,71.06Zm-1.71.76a1,1,0,0,0,.26-.76.79.79,0,0,0-.27-.7,1.73,1.73,0,0,0-1-.19H56v1.88h1A1.61,1.61,0,0,0,58.07,71.82Z"/><path class="cls-10" d="M66.54,74.44a3.48,3.48,0,0,1-4.76,0,3.33,3.33,0,0,1,0-4.7,3.48,3.48,0,0,1,4.76,0,3.33,3.33,0,0,1,0,4.7Zm-.48-2.35a2.07,2.07,0,0,0-.55-1.45,1.73,1.73,0,0,0-1.34-.6,1.76,1.76,0,0,0-1.35.6,2.11,2.11,0,0,0-.55,1.45,2.08,2.08,0,0,0,.55,1.45,1.76,1.76,0,0,0,1.35.6,1.73,1.73,0,0,0,1.34-.6A2,2,0,0,0,66.06,72.09Z"/></g><g class="cls-9"><path class="cls-10" d="M34.65,79.84a3,3,0,0,1,.91,2.33,3.11,3.11,0,0,1-.89,2.35,3.72,3.72,0,0,1-2.71.87H29.78V79H32A3.78,3.78,0,0,1,34.65,79.84Zm-1,3.79a1.84,1.84,0,0,0,.52-1.43,1.9,1.9,0,0,0-.52-1.44A2.24,2.24,0,0,0,32,80.25h-.8v3.88h.91A2.11,2.11,0,0,0,33.61,83.63Z"/><path class="cls-10" d="M41.39,79v1.27H38.22v1.31h2.85V82.8H38.22v1.33h3.27v1.26H36.8V79Z"/><path class="cls-10" d="M47.52,83.07,49.15,79h1.54l-2.56,6.38H46.92L44.36,79H45.9Z"/><path class="cls-10" d="M51.45,79h1.42v6.38H51.45Z"/><path class="cls-10" d="M59.31,79.84a3,3,0,0,1,.91,2.33,3.14,3.14,0,0,1-.89,2.35,3.74,3.74,0,0,1-2.71.87H54.44V79h2.25A3.78,3.78,0,0,1,59.31,79.84Zm-1.05,3.79a1.85,1.85,0,0,0,.53-1.43,1.9,1.9,0,0,0-.53-1.44,2.22,2.22,0,0,0-1.61-.51h-.79v3.88h.9A2.11,2.11,0,0,0,58.26,83.63Z"/><path class="cls-10" d="M65.81,85.39,65.22,84H62.55L62,85.39H60.44L63.2,79h1.37l2.76,6.38Zm-1.92-4.48-.8,1.85h1.59Z"/></g></g></g></svg>