<svg id="Layer_1" data-name="Layer 1" xmlns="http://www.w3.org/2000/svg" viewBox="0 0 100 100"><defs><style>.cls-1{fill:#fff;}.cls-2{isolation:isolate;}.cls-3{fill:#313133;}.cls-4{fill:#733514;}.cls-5{fill:#9f4a20;}.cls-6{fill:#d67243;}.cls-7{fill:#8abb2a;}.cls-8{fill:#5a7f1c;}.cls-9{fill:#e0007a;}.cls-10{fill:#8b004e;}.cls-11{fill:#fe9d2b;}.cls-12{fill:#c57c22;}.cls-13{fill:#009cdc;}.cls-14{fill:#006790;}.cls-15{fill:#ffedbc;}</style></defs><rect id="Rectángulo_292-2" data-name="Rectángulo 292-2" class="cls-1" x="2.5" y="2.5" width="95" height="95" rx="15.73"/><g id="Grupo_1562" data-name="Grupo 1562"><g id="SERVICIOS_FUNERARIOS" data-name="SERVICIOS FUNERARIOS" class="cls-2"><g class="cls-2"><path class="cls-3" d="M25.66,69.55a.56.56,0,0,0-.2.45.49.49,0,0,0,.25.44,4.41,4.41,0,0,0,1.16.39,3.21,3.21,0,0,1,1.4.67,1.65,1.65,0,0,1,.51,1.31,1.73,1.73,0,0,1-.65,1.39,2.59,2.59,0,0,1-1.69.53,3.91,3.91,0,0,1-2.73-1.12l.85-1a3,3,0,0,0,1.91.9.92.92,0,0,0,.61-.17.56.56,0,0,0,0-.91,3,3,0,0,0-.94-.34,4.25,4.25,0,0,1-1.63-.69,1.9,1.9,0,0,1,.14-2.73,2.61,2.61,0,0,1,1.63-.49,4.13,4.13,0,0,1,1.28.21,3.75,3.75,0,0,1,1.11.62l-.72,1a2.88,2.88,0,0,0-1.72-.62A.89.89,0,0,0,25.66,69.55Z"/><path class="cls-3" d="M34.59,68.28v1.27H31.41v1.31h2.86v1.22H31.41V73.4h3.28v1.26H30V68.28Z"/><path class="cls-3" d="M41.13,70.4a1.89,1.89,0,0,1-1.21,2l1.61,2.28H39.78l-1.42-2h-1v2H36V68.28h2.41a3.49,3.49,0,0,1,2.12.5A1.94,1.94,0,0,1,41.13,70.4Zm-1.72.76a1,1,0,0,0,.27-.76.77.77,0,0,0-.28-.7,1.7,1.7,0,0,0-.95-.2H37.38v1.89h1A1.55,1.55,0,0,0,39.41,71.16Z"/><path class="cls-3" d="M44.82,72.34l1.63-4.06H48l-2.57,6.38h-1.2l-2.56-6.38H43.2Z"/><path class="cls-3" d="M48.75,68.28h1.42v6.38H48.75Z"/><path class="cls-3" d="M54.67,73.4a2.09,2.09,0,0,0,1.71-.83l.91.94a3.44,3.44,0,0,1-5,.29,3.13,3.13,0,0,1-1-2.35,3.2,3.2,0,0,1,1-2.37,3.26,3.26,0,0,1,2.37-.94,3.36,3.36,0,0,1,2.63,1.19l-.89,1a2.06,2.06,0,0,0-1.67-.84,2,2,0,0,0-1.38.53,1.82,1.82,0,0,0-.57,1.41,1.92,1.92,0,0,0,.54,1.43A1.79,1.79,0,0,0,54.67,73.4Z"/><path class="cls-3" d="M58.42,68.28h1.42v6.38H58.42Z"/><path class="cls-3" d="M66.77,73.78a3.48,3.48,0,0,1-4.76,0,3.33,3.33,0,0,1,0-4.7,3.48,3.48,0,0,1,4.76,0,3.33,3.33,0,0,1,0,4.7Zm-.48-2.35A2,2,0,0,0,65.74,70a1.81,1.81,0,0,0-2.69,0,2.19,2.19,0,0,0,0,2.9,1.81,1.81,0,0,0,2.69,0A2,2,0,0,0,66.29,71.43Z"/><path class="cls-3" d="M70.38,69.55a.57.57,0,0,0-.21.45.51.51,0,0,0,.25.44,4.72,4.72,0,0,0,1.16.39A3.2,3.2,0,0,1,73,71.5a1.64,1.64,0,0,1,.5,1.31,1.72,1.72,0,0,1-.64,1.39,2.59,2.59,0,0,1-1.69.53,3.91,3.91,0,0,1-2.73-1.12l.85-1a3,3,0,0,0,1.91.9.94.94,0,0,0,.61-.17.56.56,0,0,0,0-.91,3,3,0,0,0-.94-.34,4.18,4.18,0,0,1-1.63-.69,1.9,1.9,0,0,1,.14-2.73A2.61,2.61,0,0,1,71,68.14a4,4,0,0,1,1.27.21,3.68,3.68,0,0,1,1.12.62l-.72,1a2.88,2.88,0,0,0-1.72-.62A.87.87,0,0,0,70.38,69.55Z"/></g><g class="cls-2"><path class="cls-3" d="M23.88,78.35V79.6H20.93V81h2.81v1.25H20.93v2.5H19.5V78.35Z"/><path class="cls-3" d="M26.77,83.08a1.27,1.27,0,0,0,1.92,0A1.93,1.93,0,0,0,29,81.87V78.35h1.42v3.56A2.82,2.82,0,0,1,29.69,84a2.94,2.94,0,0,1-3.92,0A2.81,2.81,0,0,1,25,81.91V78.35h1.42v3.52A1.93,1.93,0,0,0,26.77,83.08Z"/><path class="cls-3" d="M36.4,78.35h1.42v6.37H36.4l-3-4v4H31.94V78.35h1.33l3.13,4.1Z"/><path class="cls-3" d="M44,78.35v1.27H40.81v1.31h2.86v1.21H40.81v1.33h3.28v1.25h-4.7V78.35Z"/><path class="cls-3" d="M50.53,80.46a1.87,1.87,0,0,1-1.21,2l1.61,2.28H49.18l-1.42-2h-1v2H45.36V78.35h2.41a3.46,3.46,0,0,1,2.13.5A1.93,1.93,0,0,1,50.53,80.46Zm-1.72.76a1,1,0,0,0,.27-.75.83.83,0,0,0-.27-.71,1.77,1.77,0,0,0-1-.19H46.78v1.89h1A1.48,1.48,0,0,0,48.81,81.22Z"/><path class="cls-3" d="M56.53,84.72l-.59-1.37H53.27l-.6,1.37H51.16l2.75-6.37h1.38l2.76,6.37Zm-1.92-4.47L53.8,82.1h1.6Z"/><path class="cls-3" d="M64,80.46a1.87,1.87,0,0,1-1.22,2l1.62,2.28H62.61l-1.42-2h-1v2H58.78V78.35H61.2a3.42,3.42,0,0,1,2.12.5A1.9,1.9,0,0,1,64,80.46Zm-1.72.76a1,1,0,0,0,.27-.75.8.8,0,0,0-.28-.71,1.71,1.71,0,0,0-.95-.19H60.21v1.89h1A1.5,1.5,0,0,0,62.24,81.22Z"/><path class="cls-3" d="M65.42,78.35h1.42v6.37H65.42Z"/><path class="cls-3" d="M73.77,83.84a3.46,3.46,0,0,1-4.76,0,3.32,3.32,0,0,1,0-4.69,3.46,3.46,0,0,1,4.76,0,3.32,3.32,0,0,1,0,4.69Zm-.48-2.34A2.09,2.09,0,0,0,72.74,80a1.73,1.73,0,0,0-1.34-.6,1.76,1.76,0,0,0-1.35.6,2.14,2.14,0,0,0-.55,1.46A2.09,2.09,0,0,0,70.05,83a1.76,1.76,0,0,0,1.35.6,1.73,1.73,0,0,0,1.34-.6A2,2,0,0,0,73.29,81.5Z"/><path class="cls-3" d="M77.38,79.62a.53.53,0,0,0-.2.45.5.5,0,0,0,.25.44,4.41,4.41,0,0,0,1.16.39,3.21,3.21,0,0,1,1.4.67,1.64,1.64,0,0,1,.51,1.3,1.72,1.72,0,0,1-.65,1.39,2.54,2.54,0,0,1-1.69.54,4,4,0,0,1-2.73-1.12l.85-1a3,3,0,0,0,1.91.9,1,1,0,0,0,.61-.17.54.54,0,0,0,.23-.46.52.52,0,0,0-.24-.45,2.79,2.79,0,0,0-.94-.34,4.25,4.25,0,0,1-1.63-.69,1.92,1.92,0,0,1,.14-2.74A2.67,2.67,0,0,1,78,78.2a3.77,3.77,0,0,1,1.27.22,3.48,3.48,0,0,1,1.12.62l-.72,1a2.83,2.83,0,0,0-1.72-.63A.87.87,0,0,0,77.38,79.62Z"/></g></g><g id="Grupo_1476" data-name="Grupo 1476"><g id="Grupo_1473" data-name="Grupo 1473"><g id="Grupo_1469" data-name="Grupo 1469"><path id="Trazado_1027" data-name="Trazado 1027" class="cls-4" d="M31.13,30.19a3.76,3.76,0,0,0-.53,2l21.8,1,21.8-1a3.77,3.77,0,0,0-.54-2l-21.27-1Z"/><path id="Trazado_1028" data-name="Trazado 1028" class="cls-5" d="M73.66,30.19a3.86,3.86,0,0,0-3.34-1.91H34.48a3.87,3.87,0,0,0-3.35,1.91Z"/><path id="Trazado_1029" data-name="Trazado 1029" class="cls-6" d="M27.9,34.16l-.53,2,25,1,25-1-.52-2-24.5-1Z"/><path id="Trazado_1030" data-name="Trazado 1030" class="cls-6" d="M76.9,34.16l-.18-.69A1.78,1.78,0,0,0,75,32.16H29.78a1.77,1.77,0,0,0-1.7,1.31l-.18.69Z"/><path id="Trazado_1031" data-name="Trazado 1031" class="cls-6" d="M27.37,40.74v2l25,1,25-1v-2l-25-1Z"/><path id="Trazado_1032" data-name="Trazado 1032" class="cls-6" d="M77.42,42.71h-50V55l25,1,25-1Z"/><path id="Trazado_1033" data-name="Trazado 1033" class="cls-5" d="M27,39.73H77.81c.82,0,1.7-1.08,1.7-2.28a1.76,1.76,0,0,0-1.7-1.32H27a1.77,1.77,0,0,0-1.71,1.32C25.38,38.61,26.17,39.73,27,39.73Z"/><path id="Trazado_1034" data-name="Trazado 1034" class="cls-5" d="M25.26,56.29c0,1.12.81,2.28,1.61,2.28H77.93c.8,0,1.61-1.14,1.61-2.28A1.65,1.65,0,0,0,77.93,55H26.87A1.64,1.64,0,0,0,25.26,56.29Z"/><g id="Grupo_1468" data-name="Grupo 1468"><path id="Trazado_1035" data-name="Trazado 1035" class="cls-4" d="M77.93,57.61H26.87a1.63,1.63,0,0,1-1.61-1.32,1.86,1.86,0,0,0,0,.33v1.32a1.64,1.64,0,0,0,1.65,1.64H77.93a1.63,1.63,0,0,0,1.64-1.64V56.62a1.84,1.84,0,0,0,0-.33A1.64,1.64,0,0,1,77.93,57.61Z"/><path id="Trazado_1036" data-name="Trazado 1036" class="cls-4" d="M77.81,38.77H27a1.76,1.76,0,0,1-1.71-1.32,2.32,2.32,0,0,0-.06.44V39A1.76,1.76,0,0,0,27,40.74H77.81A1.76,1.76,0,0,0,79.57,39h0V37.89a2.28,2.28,0,0,0,0-.44,1.77,1.77,0,0,1-1.71,1.32Z"/></g></g><g id="Grupo_1472" data-name="Grupo 1472"><path id="Trazado_1037" data-name="Trazado 1037" class="cls-7" d="M64.08,16.43a3.63,3.63,0,0,1-.8,2.38,3.79,3.79,0,0,1-4.09.35,3.41,3.41,0,0,1,.87-2.1c1.32-1.33,4-.81,4-.81l0,.18Z"/><path id="Trazado_1038" data-name="Trazado 1038" class="cls-8" d="M63.24,18.27a3.26,3.26,0,0,0,.84-1.84c.09.63.28,2.7-.84,3.81-1.32,1.33-4,.81-4,.81a6.65,6.65,0,0,1-.06-1.89c1.17.06,3.15,0,4.05-.89Z"/><path id="Trazado_1039" data-name="Trazado 1039" class="cls-9" d="M45.89,18.81a2,2,0,0,0,1.32,1.79.5.5,0,0,1,.35.21,1.86,1.86,0,0,0,2.59.33,2.42,2.42,0,0,0,.32-.32.54.54,0,0,1,.36-.21,2,2,0,0,0,1.32-1.79h0a1.8,1.8,0,0,0-.66-2.47,1.76,1.76,0,0,0-.9-.24,1.81,1.81,0,0,0-2.47-.67,1.9,1.9,0,0,0-.66.66,1.81,1.81,0,0,0-1.81,1.81,1.92,1.92,0,0,0,.24.9Z"/><path id="Trazado_1040" data-name="Trazado 1040" class="cls-10" d="M50.83,19.65a.58.58,0,0,0-.36.21,1.85,1.85,0,0,1-2.59.32,3.34,3.34,0,0,1-.32-.33.53.53,0,0,0-.35-.21,1.81,1.81,0,0,1-1.32-.83,1.8,1.8,0,0,0,1.56,2.71,1.8,1.8,0,0,0,3.13,0,1.8,1.8,0,0,0,1.81-1.8,1.82,1.82,0,0,0-.24-.91,1.81,1.81,0,0,1-1.32.83Z"/><path id="Trazado_1041" data-name="Trazado 1041" class="cls-11" d="M52.64,18.81A2,2,0,0,0,54,20.6a.5.5,0,0,1,.35.21,1.85,1.85,0,0,0,2.58.33,2,2,0,0,0,.33-.32.52.52,0,0,1,.36-.21,2,2,0,0,0,1.32-1.79h0a1.8,1.8,0,0,0-.66-2.47,1.76,1.76,0,0,0-.9-.24,1.81,1.81,0,0,0-2.47-.67,1.9,1.9,0,0,0-.66.66,1.81,1.81,0,0,0-1.81,1.81,1.92,1.92,0,0,0,.24.9Z"/><path id="Trazado_1042" data-name="Trazado 1042" class="cls-12" d="M57.58,19.65a.56.56,0,0,0-.36.21,1.86,1.86,0,0,1-2.59.32,2.5,2.5,0,0,1-.32-.33.53.53,0,0,0-.35-.21,1.81,1.81,0,0,1-1.32-.83,1.8,1.8,0,0,0,1.56,2.71,1.8,1.8,0,0,0,3.13,0,1.81,1.81,0,0,0,1.57-2.71,1.81,1.81,0,0,1-1.32.83Z"/><path id="Trazado_1043" data-name="Trazado 1043" class="cls-7" d="M66.67,21.57a3.28,3.28,0,0,1-.73,2.21,3.69,3.69,0,0,1-3.56.62l-.22-1.71a2.28,2.28,0,0,1,.38-.5c1.36-1.36,4.1-.83,4.1-.83l0,.22Z"/><g id="Grupo_1470" data-name="Grupo 1470"><path id="Trazado_1044" data-name="Trazado 1044" class="cls-8" d="M62.38,24.4a4.55,4.55,0,0,0,3.43-.91,3.35,3.35,0,0,0,.86-1.92c.09.67.27,2.76-.86,3.89a4.59,4.59,0,0,1-3.49.91l-.52-1.72Z"/></g><path id="Trazado_1045" data-name="Trazado 1045" class="cls-7" d="M38.12,21.57a3.28,3.28,0,0,0,.73,2.21,3.67,3.67,0,0,0,3.55.62l.23-1.71a2.28,2.28,0,0,0-.38-.5c-1.36-1.36-4.1-.83-4.1-.83A1.4,1.4,0,0,0,38.12,21.57Z"/><g id="Grupo_1471" data-name="Grupo 1471"><path id="Trazado_1046" data-name="Trazado 1046" class="cls-8" d="M42.4,24.4A4.54,4.54,0,0,1,39,23.49a3.29,3.29,0,0,1-.86-1.92c-.1.67-.27,2.76.86,3.89a4.59,4.59,0,0,0,3.49.91L43,24.65Z"/></g><path id="Trazado_1047" data-name="Trazado 1047" class="cls-11" d="M42.52,24.66a2,2,0,0,0,1.32,1.79.5.5,0,0,1,.35.21,1.85,1.85,0,0,0,2.59.32,1.94,1.94,0,0,0,.32-.32.56.56,0,0,1,.36-.21,2,2,0,0,0,1.32-1.78h0a1.8,1.8,0,0,0-.66-2.47,1.77,1.77,0,0,0-.9-.25,1.81,1.81,0,0,0-2.47-.66,1.9,1.9,0,0,0-.66.66,1.81,1.81,0,0,0-1.81,1.8,1.86,1.86,0,0,0,.24.9Z"/><path id="Trazado_1048" data-name="Trazado 1048" class="cls-13" d="M49.27,24.66a2,2,0,0,0,1.32,1.79.5.5,0,0,1,.35.21,1.85,1.85,0,0,0,2.59.32,1.94,1.94,0,0,0,.32-.32.58.58,0,0,1,.36-.21,2,2,0,0,0,1.32-1.78h0a1.81,1.81,0,0,0-.65-2.47A1.83,1.83,0,0,0,54,22a1.81,1.81,0,0,0-3.13,0,1.8,1.8,0,0,0-1.8,1.8,1.85,1.85,0,0,0,.23.9Z"/><path id="Trazado_1049" data-name="Trazado 1049" class="cls-14" d="M54.21,25.5a.5.5,0,0,0-.36.21,1.84,1.84,0,0,1-2.59.31,1.94,1.94,0,0,1-.32-.32.53.53,0,0,0-.36-.21,1.82,1.82,0,0,1-1.31-.83,1.81,1.81,0,0,0,.66,2.47,1.76,1.76,0,0,0,.9.24A1.81,1.81,0,0,0,53.3,28a1.9,1.9,0,0,0,.66-.66,1.81,1.81,0,0,0,1.81-1.81,1.78,1.78,0,0,0-.24-.9,1.84,1.84,0,0,1-1.32.83Z"/><path id="Trazado_1050" data-name="Trazado 1050" class="cls-7" d="M40.72,16.43a3.63,3.63,0,0,0,.8,2.38,3.81,3.81,0,0,0,4.1.35,3.47,3.47,0,0,0-.87-2.1c-1.33-1.33-4-.81-4-.81s0,.07,0,.18Z"/><path id="Trazado_1051" data-name="Trazado 1051" class="cls-12" d="M47.46,25.5a.54.54,0,0,0-.36.21,1.84,1.84,0,0,1-2.59.31,2.42,2.42,0,0,1-.32-.32.53.53,0,0,0-.35-.21,1.84,1.84,0,0,1-1.32-.83,1.8,1.8,0,0,0,1.56,2.71,1.81,1.81,0,0,0,2.47.67,1.9,1.9,0,0,0,.66-.66A1.81,1.81,0,0,0,49,25.57a1.78,1.78,0,0,0-.24-.9,1.84,1.84,0,0,1-1.32.83Z"/><path id="Trazado_1052" data-name="Trazado 1052" class="cls-9" d="M56,24.66a2,2,0,0,0,1.31,1.79.54.54,0,0,1,.36.21,1.83,1.83,0,0,0,2.58.32,1.62,1.62,0,0,0,.32-.32.58.58,0,0,1,.36-.21,2,2,0,0,0,1.33-1.78h0A1.82,1.82,0,0,0,60.71,22a1.8,1.8,0,0,0-2.46-.66,1.74,1.74,0,0,0-.66.66,1.81,1.81,0,0,0-1.81,1.8,1.76,1.76,0,0,0,.24.9Z"/><path id="Trazado_1053" data-name="Trazado 1053" class="cls-10" d="M61,25.5a.54.54,0,0,0-.36.21A1.83,1.83,0,0,1,58,26a1.62,1.62,0,0,1-.32-.32.58.58,0,0,0-.36-.21A1.82,1.82,0,0,1,56,24.66a1.8,1.8,0,0,0,.66,2.47,1.76,1.76,0,0,0,.9.24A1.8,1.8,0,0,0,60,28a1.84,1.84,0,0,0,.67-.66,1.81,1.81,0,0,0,1.81-1.81,1.78,1.78,0,0,0-.24-.9A1.86,1.86,0,0,1,61,25.5Z"/><path id="Trazado_1054" data-name="Trazado 1054" class="cls-8" d="M41.56,18.27a3.32,3.32,0,0,1-.84-1.84c-.08.63-.28,2.7.84,3.81,1.33,1.33,4,.81,4,.81a7,7,0,0,0,.07-1.89C44.44,19.22,42.46,19.17,41.56,18.27Z"/></g></g><g id="Grupo_1475" data-name="Grupo 1475"><g id="Grupo_1474" data-name="Grupo 1474"><path id="Trazado_1055" data-name="Trazado 1055" class="cls-15" d="M46.53,24.64a.89.89,0,1,0-.89.89A.89.89,0,0,0,46.53,24.64Z"/><path id="Trazado_1056" data-name="Trazado 1056" class="cls-15" d="M49,19.67a.89.89,0,1,0-.89-.89A.89.89,0,0,0,49,19.67Z"/><circle id="Elipse_105" data-name="Elipse 105" class="cls-15" cx="55.78" cy="18.78" r="0.89"/><path id="Trazado_1057" data-name="Trazado 1057" class="cls-15" d="M52.4,25.53a.89.89,0,1,0-.89-.89A.89.89,0,0,0,52.4,25.53Z"/><path id="Trazado_1058" data-name="Trazado 1058" class="cls-15" d="M59.16,25.53a.89.89,0,1,0-.89-.89h0A.89.89,0,0,0,59.16,25.53Z"/></g><path id="Trazado_1059" data-name="Trazado 1059" class="cls-11" d="M47.27,48.11H57.52v.65a.83.83,0,0,0,1.65,0v-.65H69.42v.65a.83.83,0,0,0,1.65,0v-.65h1.12a.83.83,0,0,0,0-1.65H71.07V45.8a.84.84,0,0,0-.84-.81.83.83,0,0,0-.81.81v.66H59.17V45.8a.83.83,0,0,0-1.65,0v.66H47.27V45.8a.82.82,0,0,0-1.64,0v.66H35.38V45.8a.83.83,0,0,0-1.65,0v.66H32.61a.83.83,0,0,0,0,1.65h1.12v.65a.83.83,0,0,0,1.65,0v-.65H45.63v.65a.82.82,0,0,0,.84.81.81.81,0,0,0,.8-.81v-.65Z"/></g></g></g></svg>