<svg id="Layer_1" data-name="Layer 1" xmlns="http://www.w3.org/2000/svg" width="100" height="100" viewBox="0 0 100 100"><defs><style>.cls-1{fill:#fff;}.cls-2{isolation:isolate;}.cls-3{fill:#313133;}.cls-4{fill:#15baf2;}</style></defs><rect id="Rectángulo_297-2" data-name="Rectángulo 297-2" class="cls-1" x="2.5" y="2.5" width="95" height="95" rx="15.73"/><g id="Grupo_1564" data-name="Grupo 1564"><g id="SERVICIOS_DE_SALUD" data-name="SERVICIOS DE SALUD" class="cls-2"><g class="cls-2"><path class="cls-3" d="M25.78,70.81a.56.56,0,0,0-.2.44.47.47,0,0,0,.24.42,4.67,4.67,0,0,0,1.12.38,3,3,0,0,1,1.36.65A1.56,1.56,0,0,1,28.79,74a1.68,1.68,0,0,1-.62,1.34,2.51,2.51,0,0,1-1.64.51,3.79,3.79,0,0,1-2.63-1.08l.82-1a2.92,2.92,0,0,0,1.84.87.94.94,0,0,0,.59-.17.5.5,0,0,0,.22-.44.53.53,0,0,0-.23-.44,3.42,3.42,0,0,0-.91-.33,4,4,0,0,1-1.57-.66,1.57,1.57,0,0,1-.5-1.29,1.6,1.6,0,0,1,.63-1.35,2.53,2.53,0,0,1,1.58-.47,3.79,3.79,0,0,1,1.23.21,3.19,3.19,0,0,1,1.07.6l-.69,1a2.71,2.71,0,0,0-1.66-.61A.87.87,0,0,0,25.78,70.81Z"/><path class="cls-3" d="M34.4,69.59v1.22H31.33v1.27h2.76v1.17H31.33v1.28H34.5v1.21H30V69.59Z"/><path class="cls-3" d="M40.71,71.63a1.81,1.81,0,0,1-1.17,1.91l1.56,2.2H39.41l-1.36-2h-1v2H35.72V69.59h2.33a3.38,3.38,0,0,1,2.05.48A1.86,1.86,0,0,1,40.71,71.63Zm-1.65.73a.92.92,0,0,0,.25-.73.76.76,0,0,0-.26-.68,1.74,1.74,0,0,0-.93-.18h-1v1.82h1A1.49,1.49,0,0,0,39.06,72.36Z"/><path class="cls-3" d="M44.28,73.51l1.57-3.92h1.49l-2.48,6.15H43.7l-2.47-6.15h1.48Z"/><path class="cls-3" d="M48.07,69.59h1.37v6.15H48.07Z"/><path class="cls-3" d="M53.79,74.53a2,2,0,0,0,1.65-.8l.88.9a3.19,3.19,0,0,1-2.47,1.18,3.23,3.23,0,0,1-2.34-.89,3.26,3.26,0,0,1,0-4.56,3.15,3.15,0,0,1,2.29-.91,3.25,3.25,0,0,1,2.54,1.15l-.86,1a2,2,0,0,0-1.62-.81,1.9,1.9,0,0,0-1.32.5A1.77,1.77,0,0,0,52,72.63,1.86,1.86,0,0,0,52.53,74,1.72,1.72,0,0,0,53.79,74.53Z"/><path class="cls-3" d="M57.41,69.59h1.37v6.15H57.41Z"/><path class="cls-3" d="M65.47,74.89a3.35,3.35,0,0,1-4.59,0,3.2,3.2,0,0,1,0-4.53,3.35,3.35,0,0,1,4.59,0,3.2,3.2,0,0,1,0,4.53ZM65,72.63a2,2,0,0,0-.53-1.41,1.75,1.75,0,0,0-2.6,0,2,2,0,0,0-.53,1.41,2,2,0,0,0,.53,1.4,1.75,1.75,0,0,0,2.6,0A2,2,0,0,0,65,72.63Z"/><path class="cls-3" d="M69,70.81a.53.53,0,0,0-.2.44.47.47,0,0,0,.24.42,4.34,4.34,0,0,0,1.12.38,3.09,3.09,0,0,1,1.36.65A1.59,1.59,0,0,1,72,74a1.65,1.65,0,0,1-.62,1.34,2.48,2.48,0,0,1-1.63.51,3.77,3.77,0,0,1-2.63-1.08l.82-1a2.89,2.89,0,0,0,1.84.87.94.94,0,0,0,.59-.17.52.52,0,0,0,.22-.44.53.53,0,0,0-.23-.44,3.73,3.73,0,0,0-.91-.33,3.94,3.94,0,0,1-1.57-.66,1.57,1.57,0,0,1-.5-1.29A1.6,1.6,0,0,1,68,69.92a2.5,2.5,0,0,1,1.57-.47,3.89,3.89,0,0,1,1.24.21,3.29,3.29,0,0,1,1.07.6l-.7,1a2.66,2.66,0,0,0-1.65-.61A.87.87,0,0,0,69,70.81Z"/></g><g class="cls-2"><path class="cls-3" d="M30.83,80.14a2.93,2.93,0,0,1,.88,2.25,3,3,0,0,1-.86,2.27,3.62,3.62,0,0,1-2.62.83H26.12V79.34H28.3A3.66,3.66,0,0,1,30.83,80.14Zm-1,3.66a1.77,1.77,0,0,0,.51-1.38,1.87,1.87,0,0,0-.51-1.4,2.21,2.21,0,0,0-1.56-.48H27.5v3.74h.87A2,2,0,0,0,29.82,83.8Z"/><path class="cls-3" d="M37.34,79.34v1.22H34.27v1.27H37V83H34.27v1.28h3.16v1.21H32.9V79.34Z"/><path class="cls-3" d="M42.42,80.57a.53.53,0,0,0-.19.43.5.5,0,0,0,.24.43,4.46,4.46,0,0,0,1.12.37,3.14,3.14,0,0,1,1.36.65,1.59,1.59,0,0,1,.48,1.26,1.66,1.66,0,0,1-.62,1.34,2.49,2.49,0,0,1-1.63.52,3.8,3.8,0,0,1-2.64-1.09l.82-1a2.94,2.94,0,0,0,1.84.87,1,1,0,0,0,.6-.16.54.54,0,0,0,.21-.44.48.48,0,0,0-.23-.44,2.84,2.84,0,0,0-.9-.33,4.06,4.06,0,0,1-1.58-.67A1.57,1.57,0,0,1,40.81,81a1.6,1.6,0,0,1,.63-1.35A2.57,2.57,0,0,1,43,79.2a3.79,3.79,0,0,1,1.23.21,3.34,3.34,0,0,1,1.08.6l-.7,1A2.75,2.75,0,0,0,43,80.4.85.85,0,0,0,42.42,80.57Z"/><path class="cls-3" d="M50.92,85.49l-.57-1.33H47.77l-.58,1.33H45.73l2.66-6.15h1.33l2.66,6.15Zm-1.86-4.32L48.28,83h1.55Z"/><path class="cls-3" d="M53.09,85.49V79.34h1.38v4.93h2.62v1.22Z"/><path class="cls-3" d="M59.59,83.9a1.12,1.12,0,0,0,.93.43,1.1,1.1,0,0,0,.92-.43,1.78,1.78,0,0,0,.34-1.16v-3.4h1.37v3.44a2.72,2.72,0,0,1-.74,2.06,2.84,2.84,0,0,1-3.79,0,2.7,2.7,0,0,1-.74-2V79.34h1.37v3.4A1.84,1.84,0,0,0,59.59,83.9Z"/><path class="cls-3" d="M69.28,80.14a2.89,2.89,0,0,1,.88,2.25,3,3,0,0,1-.86,2.27,3.6,3.6,0,0,1-2.62.83h-2.1V79.34h2.17A3.64,3.64,0,0,1,69.28,80.14Zm-1,3.66a1.77,1.77,0,0,0,.51-1.38,1.87,1.87,0,0,0-.51-1.4,2.16,2.16,0,0,0-1.55-.48H66v3.74h.88A2,2,0,0,0,68.27,83.8Z"/></g></g><g id="Grupo_1503" data-name="Grupo 1503"><path id="Trazado_1103" data-name="Trazado 1103" class="cls-4" d="M25,40A25.58,25.58,0,1,1,50.53,65.58,25.58,25.58,0,0,1,25,40Z"/><path id="Trazado_1104" data-name="Trazado 1104" class="cls-1" d="M58.09,24.41c-1.25-1-2.12-.78-3.37,1.45a3,3,0,0,1-3,1.62v-.3A2.85,2.85,0,1,0,48,25.87a2.87,2.87,0,0,0,1.31,1.31v.3a3,3,0,0,1-3-1.61c-1.25-2.23-2.12-2.48-3.37-1.45s-6.21,6.94-12.25,6.4a4,4,0,0,0,4.46,2.12,4,4,0,0,0,4.57.54,3.35,3.35,0,0,0,3.81.12,3.3,3.3,0,0,0,3.6.18,3.32,3.32,0,0,0,2.21.56l.07,6.84L49,41.1s-2-.43-4.16-1-4.32-1.42-4.65-1.86a.35.35,0,0,1,.13-.08,3.43,3.43,0,0,1,.86-.27A19,19,0,0,1,44,37.57a14.63,14.63,0,0,1,2.46,0A1.48,1.48,0,0,0,48,36.53s0-.06,0-.09c-.07-.83-.71-.87-1.23-1a5.92,5.92,0,0,0-1.54-.06c-1.88.15-7.65-.33-8.38,2.71a1.55,1.55,0,0,1,0,.22c.24,2.64,5.72,3.79,9.69,4.58a5.38,5.38,0,0,0-2.36,3.67c-.14,1.66,1.18,3.23,4.23,5-2.32,1.64-3.84,3.18-3.72,5,.21,1.52,1.55,3.55,4.18,4.83h0S47.07,58.64,47,57.1c-.13-.9.38-2.23,2.63-3.82l.06,5.62h0a.85.85,0,1,0,1.7,0h0l.07-5.47C53.49,55,54,56.23,53.84,57.09c-.12,1.54-2,4.35-2,4.35h0s0,0,0,0c2.63-1.28,4-3.3,4.18-4.82.13-1.86-1.39-3.4-3.71-5,3.05-1.76,4.36-3.33,4.23-5a5.38,5.38,0,0,0-2.36-3.67c4-.79,9.45-1.94,9.69-4.58a1.55,1.55,0,0,1,0-.22c-.73-3-6.51-2.57-8.38-2.71a5.92,5.92,0,0,0-1.54.06c-.52.09-1.16.13-1.23,1,0,0,0,.08,0,.09a1.49,1.49,0,0,0,1.51,1.06,14.43,14.43,0,0,1,2.45,0,17.73,17.73,0,0,1,2.82.28,3.19,3.19,0,0,1,.86.27.44.44,0,0,1,.15.08c-.33.45-2.59,1.33-4.65,1.87s-4.17,1-4.17,1l-.15,0,.08-6.79a3.33,3.33,0,0,0,2.23-.56,3.31,3.31,0,0,0,3.59-.18,3.35,3.35,0,0,0,3.81-.12,4,4,0,0,0,4.57-.54,4,4,0,0,0,4.47-2.12C64.3,31.36,59.34,25.44,58.09,24.41ZM46.82,47.12c0-.59-.16-2,2.65-3l.07,5.65-1.68-1.07c-.76-.47-1.11-1.1-1-1.53Zm6.11,1.53-1.45.92.07-5.41c2.58,1,2.38,2.38,2.42,3s-.28,1.06-1,1.53Z"/></g></g></svg>