<?xml version="1.0" encoding="utf-8"?>
<!-- Generator: Adobe Illustrator 26.0.1, SVG Export Plug-In . SVG Version: 6.00 Build 0)  -->
<svg version="1.1" id="Layer_1" xmlns="http://www.w3.org/2000/svg" xmlns:xlink="http://www.w3.org/1999/xlink" x="0px" y="0px"
	 viewBox="0 0 152.3 155.8" style="enable-background:new 0 0 152.3 155.8;" xml:space="preserve">
<style type="text/css">
	.st0{fill:#FFFFFF;}
	.st1{fill:#706E6E;}
	.st2{fill:#4FBFD7;}
	.st3{fill:#E7A166;}
	.st4{fill:#E6AE81;}
	.st5{fill:#154C66;}
	.st6{fill:#804327;}
	.st7{fill:#FACDA2;}
	.st8{fill:#D1D1D0;}
	.st9{fill:#C4C0BE;}
	.st10{fill:#A09F9E;}
	.st11{fill:#6C3115;}
	.st12{fill:#C58B59;}
	.st13{fill:#BD181E;}
	.st14{fill:#A51B20;}
	.st15{fill:#96191D;}
</style>
<g id="tiutlar">
	<path id="Rectángulo_260" class="st0" d="M30,0h92.2c16.6,0,30,14.4,30,32.3v91.3c0,17.8-13.4,32.3-30,32.3H30
		c-16.6,0-30-14.4-30-32.3V32.3C0,14.4,13.4,0,30,0z"/>
	<g id="Grupo_1288">
		<path id="Rectángulo_124-4" class="st1" d="M120.9,17.3h12.8c4.6,0,8.4,3.7,8.4,8.4l0,0c0,4.6-3.7,8.4-8.4,8.4h-12.8
			c-4.6,0-8.3-3.7-8.3-8.4l0,0C112.6,21.1,116.3,17.3,120.9,17.3z"/>
		<circle id="Elipse_54-12" class="st0" cx="120.9" cy="25.7" r="4.5"/>
	</g>
	<path class="st2" d="M39.6,140.7V152h-3.1v-11.3h-4V138h11v2.7H39.6z"/>
	<path class="st2" d="M45.8,138h3.1v14h-3.1V138z"/>
	<path class="st2" d="M58.3,140.7V152h-3.1v-11.3h-3.9V138h11v2.7H58.3z"/>
	<path class="st2" d="M68.2,148.4c0.5,0.7,1.3,1,2.1,1c0.8,0,1.6-0.3,2.1-1c0.5-0.8,0.8-1.7,0.8-2.6V138h3.1v7.8
		c0.1,1.7-0.5,3.4-1.7,4.7c-2.5,2.2-6.2,2.2-8.6,0c-1.2-1.2-1.8-2.9-1.7-4.7V138h3.1v7.7C67.4,146.7,67.7,147.6,68.2,148.4z"/>
	<path class="st2" d="M79.6,152v-14h3.1v11.2h6v2.8L79.6,152z"/>
	<path class="st2" d="M100.9,152l-1.3-3h-5.9l-1.3,3h-3.3l6-14h3l6,14H100.9z M96.7,142.1l-1.8,4.1h3.5L96.7,142.1z"/>
	<path class="st2" d="M117.2,142.6c0,2.2-0.9,3.7-2.7,4.3l3.5,5h-3.8l-3.1-4.5H109v4.5h-3.1v-14h5.3c2.2,0,3.7,0.4,4.7,1.1
		C116.8,140,117.3,141.3,117.2,142.6z M113.4,144.3c0.4-0.4,0.6-1,0.6-1.6c0.1-0.6-0.2-1.2-0.6-1.6c-0.6-0.3-1.4-0.5-2.1-0.4h-2.3
		v4.1h2.3C112,144.9,112.8,144.7,113.4,144.3z"/>
	<g id="Group_722">
		<path id="Path_115" class="st3" d="M81.6,72.6V66H69v6.6c0,0.6-0.4,1-1,1l-8.7,0.3v22.5h32.1V73.6h-8.7
			C82.1,73.6,81.6,73.1,81.6,72.6L81.6,72.6"/>
		<path id="Path_116" class="st4" d="M91.3,73.6h-8.7c-0.6,0-1-0.4-1-1V66H75v30.4h16.3L91.3,73.6z"/>
		<path id="Path_117" class="st5" d="M92.7,73.6H86c0,5.6-10.8,8.9-10.8,8.9s-10.7-3.2-10.7-8.9h-6.7c-7.9-0.2-14.4,6-14.7,13.9
			v39.4c20.6,8.1,43.6,8.1,64.3,0V87.5C107.2,79.6,100.6,73.4,92.7,73.6"/>
		<path id="Path_120" class="st6" d="M75.3,47.3H50.4v-6.5c0-13.8,12-23.5,24.9-23.5L75.3,47.3z"/>
		<path id="Path_121" class="st7" d="M101.4,50.4c-0.4,3-3.1,5.2-6.2,4.9v-9.8C98.3,45.1,101,47.3,101.4,50.4"/>
		<path id="Path_122" class="st3" d="M49.2,50.4c0.4,3,3.2,5.2,6.2,4.9v-9.8C52.3,45.1,49.6,47.3,49.2,50.4"/>
		<path id="Path_123" class="st3" d="M90.6,37.6c-0.1-1.5-1.4-2.7-3-2.6c0,0,0,0,0,0h-0.3l-1,0.2c-7.6,1-15.4,0.9-23-0.1
			c-1.5-0.3-2.9,0.6-3.3,2.1c0,0.1,0,0.2,0,0.3c0,2.4-1.2,4.5-3.2,5.8c-0.4,0.3-0.9,0.5-1.4,0.7c0,11.5-0.2,12.2,0.5,14.9
			c0.7,2.4,1.8,4.7,3.5,6.6c9.3,10.9,28.7,8.8,34.4-4.2c1.9-4.3,1.4-7.5,1.4-17.3C92.5,43.1,90.7,40.5,90.6,37.6"/>
		<path id="Path_125" class="st8" d="M74.7,80.7l-2-1.5v15.3c0,1.1,0.9,1.9,1.9,1.9c0,0,0,0,0.1,0l0,0V80.7z"/>
		<path id="Path_128" class="st9" d="M79.6,85.2c0.4,0.2,0.8,0.2,1.1,0.1L79.6,85.2z"/>
		<path id="Path_129" class="st8" d="M67.8,73.6l6.9,7.1l-4.3,4.1c-0.8,0.8-2.1,0.7-2.8-0.1c0,0,0,0,0,0l0,0l-0.1-0.1l-5.9-11
			L67.8,73.6z"/>
		<path id="Path_130" class="st10" d="M71.9,83.4l2.8-2.7l-6.9-7.1h-3.2L71.9,83.4z"/>
	</g>
	<g id="Group_723-2">
		<path id="Path_132" class="st11" d="M74.8,17.3c2.6,0,5.1,0.2,7.6,0.7c11,0.7,20.1,14.6,19.4,22.6c0,7.6,0.1-0.8-1.6,30.1
			c0,1.8-1.5,3.1-3.2,3.1H75.1"/>
		<path id="Path_133" class="st7" d="M74.9,96.4h16.3v-23h-8.7c-0.6,0-1-0.4-1-1l0,0"/>
		<path id="Path_133-2" class="st7" d="M81.4,72.4v-6.7h-6.5"/>
		<path id="Path_134" class="st12" d="M91.2,73.4h-8.7c-0.6,0-1-0.4-1-1l0,0v-6.6h-6.6v30.6h16.4V73.4z"/>
		<path id="Path_136" class="st13" d="M92.6,73.4h-6.8c0,5.6,0,8-11,8l0.1,51.5H75c11,0,22-2,32.2-6.1V87.3
			C107,79.4,100.5,73.2,92.6,73.4"/>
		<path id="Path_137" class="st14" d="M93.7,73.4h-7.9c-3.1,4.9-4.8,8-11,8C74.8,81.4,93.7,98.4,93.7,73.4"/>
		<path id="Path_140" class="st15" d="M82.7,77.9c3.3,1.7,8.2,3.5,10.7,0.4c-2,18.8-18.6,3.1-18.6,3.1
			C78.1,81.4,80.1,79.5,82.7,77.9"/>
		<path id="Path_141" class="st12" d="M93.2,45.6c1.1,0,2,0.9,2,2V49c0.2,2.8-0.1,5.7-0.9,8.4c-1.1,3.5-3.2,6.6-6,8.9
			c-3.9,3.3-9,5.7-13.6,5.7l0.1-36.1C82.8,35.9,86.8,45.5,93.2,45.6"/>
	</g>
</g>
</svg>
