<svg id="Layer_1" data-name="Layer 1" xmlns="http://www.w3.org/2000/svg" xmlns:xlink="http://www.w3.org/1999/xlink" width="95.74" height="78.69" viewBox="0 0 95.74 78.69"><defs><style>.cls-1{fill:none;}.cls-2{clip-path:url(#clip-path);}.cls-3{fill:url(#linear-gradient);}.cls-4{clip-path:url(#clip-path-2);}.cls-5{fill:url(#linear-gradient-2);}.cls-6{clip-path:url(#clip-path-3);}.cls-7{fill:url(#linear-gradient-3);}.cls-8{clip-path:url(#clip-path-4);}.cls-9{fill:url(#linear-gradient-4);}.cls-10{fill:#4c440f;}</style><clipPath id="clip-path" transform="translate(-32.23 23.54)"><path class="cls-1" d="M75.15,25.43a5.14,5.14,0,1,0,6.37-3.51,5.38,5.38,0,0,0-1.44-.2,5.15,5.15,0,0,0-4.93,3.71"/></clipPath><linearGradient id="linear-gradient" x1="-63.38" y1="-411.01" x2="-63.18" y2="-411.01" gradientTransform="translate(-138501.3 21371.2) rotate(90) scale(337.17)" gradientUnits="userSpaceOnUse"><stop offset="0" stop-color="#d8d3c3"/><stop offset="0.3" stop-color="#d8d3c3"/><stop offset="0.36" stop-color="#b4ae95"/><stop offset="0.44" stop-color="#8f8865"/><stop offset="0.5" stop-color="#726b40"/><stop offset="0.57" stop-color="#5d5525"/><stop offset="0.62" stop-color="#504915"/><stop offset="0.66" stop-color="#4c440f"/><stop offset="1" stop-color="#4c440f"/></linearGradient><clipPath id="clip-path-2" transform="translate(-32.23 23.54)"><path class="cls-1" d="M50,27.12A33.65,33.65,0,0,1,110.22,27,31.39,31.39,0,0,0,50,27.12"/></clipPath><linearGradient id="linear-gradient-2" x1="-63.51" y1="-410.85" x2="-63.31" y2="-410.85" gradientTransform="translate(-84691.21 13105.8) rotate(90) scale(206.33)" gradientUnits="userSpaceOnUse"><stop offset="0" stop-color="#d8d3c3"/><stop offset="0.15" stop-color="#b8b29a"/><stop offset="0.36" stop-color="#928b68"/><stop offset="0.55" stop-color="#736c42"/><stop offset="0.73" stop-color="#5e5626"/><stop offset="0.88" stop-color="#514915"/><stop offset="1" stop-color="#4c440f"/></linearGradient><clipPath id="clip-path-3" transform="translate(-32.23 23.54)"><path class="cls-1" d="M62,22a22.51,22.51,0,0,1,39.15,9.49,21,21,0,0,0-16-19.38,21.39,21.39,0,0,0-5-.61A20.91,20.91,0,0,0,62,22"/></clipPath><linearGradient id="linear-gradient-3" x1="-63.67" y1="-410.33" x2="-63.48" y2="-410.33" gradientTransform="translate(-56533.92 8795.9) rotate(90) scale(137.98)" xlink:href="#linear-gradient-2"/><clipPath id="clip-path-4" transform="translate(-32.23 23.54)"><path class="cls-1" d="M73.76,17.79a13.84,13.84,0,0,0-9.51,13.68A14.88,14.88,0,0,1,89.5,23.05a13.86,13.86,0,0,0-15.74-5.26"/></clipPath><linearGradient id="linear-gradient-4" x1="-64.55" y1="-410.9" x2="-64.35" y2="-410.9" gradientTransform="translate(-37408.43 5904.17) rotate(90) scale(91.23)" xlink:href="#linear-gradient-2"/></defs><g class="cls-2"><rect class="cls-3" x="72.3" y="19.44" width="15.59" height="15.43" transform="translate(-33.6 73.42) rotate(-34.32)"/></g><g class="cls-4"><rect class="cls-5" x="48.86" y="-10.5" width="62.5" height="52.62" transform="translate(-27.21 71.43) rotate(-34.3)"/></g><g class="cls-6"><rect class="cls-7" x="59.72" y="5.24" width="43.67" height="32.45" transform="translate(-34.58 53.5) rotate(-20.53)"/></g><g class="cls-8"><rect class="cls-9" x="63.28" y="9.78" width="26.93" height="29.01" transform="translate(-21.4 94.02) rotate(-52.59)"/></g><polygon class="cls-10" points="5.58 67.09 5.31 67.09 0 78.32 1.25 78.32 3 74.62 3.52 73.54 5.44 69.47 7.36 73.54 7.84 74.62 9.61 78.32 10.82 78.32 5.58 67.09"/><polygon class="cls-10" points="19.14 78.32 19.14 67.09 19.38 67.09 26.86 75.69 26.86 67.09 27.97 67.09 27.97 78.32 27.71 78.32 20.3 69.81 20.3 78.32 19.14 78.32"/><polygon class="cls-10" points="37.27 67.09 43.71 67.09 43.71 68.19 38.4 68.19 38.4 71.7 43.67 71.7 43.67 72.8 38.4 72.8 38.4 77.22 43.67 77.22 43.67 78.32 37.27 78.32 37.27 67.09"/><polygon class="cls-10" points="51.71 78.32 53.32 67.09 53.5 67.09 58.06 76.3 62.59 67.09 62.77 67.09 64.39 78.32 63.28 78.32 62.17 70.28 58.2 78.32 57.92 78.32 53.9 70.22 52.79 78.32 51.71 78.32"/><polygon class="cls-10" points="73.17 67.09 79.61 67.09 79.61 68.19 74.29 68.19 74.29 71.7 79.56 71.7 79.56 72.8 74.29 72.8 74.29 77.22 79.56 77.22 79.56 78.32 73.17 78.32 73.17 67.09"/><polygon class="cls-10" points="87.52 67.09 88.83 67.09 91.52 71.46 94.23 67.09 95.52 67.09 92.17 72.51 95.75 78.32 94.43 78.32 91.52 73.58 88.59 78.32 87.28 78.32 90.86 72.52 87.52 67.09"/></svg>