<?xml version="1.0" encoding="utf-8"?>
<!-- Generator: Adobe Illustrator 24.0.1, SVG Export Plug-In . SVG Version: 6.00 Build 0)  -->
<svg version="1.1" id="Layer_1" xmlns="http://www.w3.org/2000/svg" xmlns:xlink="http://www.w3.org/1999/xlink" x="0px" y="0px"
	 width="848.6px" height="196.4px" viewBox="0 0 848.6 196.4" style="enable-background:new 0 0 848.6 196.4;" xml:space="preserve"
	>
<title>Asset 1</title>
<g id="Layer_2_1_">
	<g id="Layer_1-2">
		<path d="M791.1,129.5h-89.6v-21.3h89.6V129.5z M701.5,73.2h89.6v20.7h-89.6V73.2z M784.4,144.1c15.9,0,23.2-6.6,23.2-17.9v-10
			c0-3.2-1.2-4.6-3.4-6.6l-10.2-8.8l10.3-8.8c2.3-2,3.4-3.5,3.4-6.6v-8.8c0-11.3-7.3-17.9-23.2-17.9h-99v85.4H784.4z M617.9,129.5
			h-89.6v-21.3h89.6V129.5z M528.3,73.2h89.6v20.7h-89.6V73.2z M611.2,144.1c15.9,0,23.2-6.6,23.2-17.9v-10c0-3.2-1.1-4.6-3.4-6.6
			l-10.2-8.8L631,92c2.3-2,3.4-3.5,3.4-6.6v-8.8c0-11.3-7.3-17.9-23.2-17.9h-99v85.4H611.2z M440.6,58.7v70.1h-84.8V58.7h-16.1v65.9
			c0,12.1,7.3,19.5,21.8,19.5h73.3c14.5,0,21.8-7.4,21.8-19.5V58.7H440.6z M182.2,93.6V58.7h-16.1v85.4h16.1v-35.5h86v35.5h16.1
			V58.7h-16.1v34.9H182.2z M119.2,73.9V58.7H24.7c-14.5,0-21.8,7.4-21.8,19.5v46.3c0,12.1,7.3,19.5,21.8,19.5h94.5v-15.3H19.3V73.9
			H119.2z"/>
		<path d="M840.5,59.5c1.4,0.6,2.6,1.4,3.7,2.5c1.1,1.1,1.9,2.3,2.5,3.7c0.6,1.4,0.9,3,0.9,4.6c0,1.6-0.3,3.2-0.9,4.6
			c-0.6,1.4-1.4,2.6-2.5,3.7c-1.1,1-2.3,1.9-3.7,2.5c-3,1.2-6.2,1.2-9.2,0c-1.4-0.6-2.7-1.4-3.7-2.5c-1-1-1.9-2.3-2.4-3.7
			c-0.6-1.5-0.9-3-0.9-4.6c0-1.6,0.3-3.1,0.9-4.6c0.6-1.4,1.4-2.6,2.4-3.7c1.1-1.1,2.3-1.9,3.7-2.5
			C834.3,58.3,837.6,58.3,840.5,59.5z M832,61.1c-2.4,1-4.2,2.9-5.2,5.3c-0.5,1.2-0.7,2.6-0.7,3.9c0,1.3,0.2,2.7,0.7,3.9
			c0.5,1.2,1.2,2.3,2.1,3.2c1.8,1.9,4.4,2.9,7,2.9c2.6,0,5.1-1,7-2.9c0.9-0.9,1.6-2,2.1-3.2c0.5-1.2,0.8-2.6,0.8-3.9
			c0-1.3-0.2-2.7-0.8-3.9c-0.5-1.2-1.2-2.2-2.1-3.2c-0.9-0.9-1.9-1.6-3.1-2.1C837.3,60,834.5,60,832,61.1L832,61.1z M831.7,77V63.5
			h5.2c1.2-0.1,2.4,0.2,3.3,1c0.7,0.7,1.1,1.7,1,2.8c0,0.5-0.1,1-0.3,1.5c-0.2,0.4-0.4,0.8-0.7,1.2c-0.3,0.3-0.7,0.5-1.1,0.7
			c-0.4,0.2-0.9,0.3-1.3,0.4l4,6h-1.9l-3.8-6h-2.8v6L831.7,77z M837,69.5c0.4,0,0.9-0.1,1.3-0.3c0.4-0.1,0.7-0.4,0.9-0.7
			c0.3-0.4,0.4-0.9,0.3-1.3c0-0.4-0.1-0.8-0.3-1.2c-0.2-0.3-0.4-0.5-0.7-0.7c-0.3-0.2-0.7-0.3-1-0.4c-0.4-0.1-0.8-0.1-1.2-0.1h-3
			v4.6h2.2C836,69.6,836.5,69.6,837,69.5L837,69.5z"/>
	</g>
</g>
</svg>
