<?xml version="1.0" encoding="utf-8"?>
<!-- Generator: Adobe Illustrator 26.0.1, SVG Export Plug-In . SVG Version: 6.00 Build 0)  -->
<svg version="1.1" id="Layer_1" xmlns="http://www.w3.org/2000/svg" xmlns:xlink="http://www.w3.org/1999/xlink" x="0px" y="0px"
	 viewBox="0 0 193 193" style="enable-background:new 0 0 193 193;" xml:space="preserve">
<style type="text/css">
	.st0{fill:#155185;}
	.st1{fill:#F1893B;}
</style>
<g id="surface1">
	<path class="st0" d="M62.2,112.9v1.5h121.5v-1.5H62.2"/>
	<path class="st1" d="M23.7,65.6V81H8.6l5.1,7.6h4.9c7,0,12.7-5.7,12.7-12.7v-5.1L23.7,65.6"/>
	<path class="st1" d="M58.1,80.8H42.8V65.7l-7.6,5.1v4.9c0,7,5.7,12.7,12.7,12.7H53L58.1,80.8"/>
	<path class="st1" d="M42.9,115.3V99.9H58l-5.1-7.6h-4.9c-7,0-12.7,5.7-12.7,12.7v5.1L42.9,115.3"/>
	<path class="st1" d="M8.5,100.1h15.3v15.1l7.6-5.1v-4.9c0-7-5.7-12.7-12.7-12.7h-5.1L8.5,100.1"/>
	<path class="st1" d="M39.2,90.5c0,3.3-2.7,5.9-5.9,5.9c-3.3,0-5.9-2.7-5.9-5.9s2.7-5.9,5.9-5.9C36.6,84.5,39.2,87.2,39.2,90.5"/>
	<path class="st0" d="M92.8,102.7c0,1.9,0.3,3.2,1.2,3.7c0.2,0.2,0.2,0.6-0.1,0.8c-0.6,0-1.5,0.2-2.5,0.4c-3.2,0.8-7.1,1.4-10.1,1.4
		c-6.2,0-12.1-1.7-16-5.8c-3.1-3.2-4.6-7.7-4.6-12.1c0-4.5,1.5-9,4.8-12.4c3.7-4,9.4-6.3,16.6-6.3c2.4,0,5.1,0.4,6.9,0.8
		c1.2,0.3,2.7,0.5,3.3,0.5c0.1,1.6,0.4,4.3,0.7,8.4c-0.3,0.5-1.4,0.6-1.7,0.1c-1.1-5.1-4.8-7.7-10-7.7c-9.2,0-13.6,6.7-13.6,15.7
		c0,4.2,0.9,8.8,3.7,12.2c2.8,3.4,7,4.5,10,4.5c2.5,0,4-0.4,4.6-1.2c0.3-0.5,0.5-1.4,0.5-3.3v-1.9c0-3.8-0.1-4.1-3.5-4.7l-1.9-0.3
		c-0.4-0.4-0.4-1.3,0.1-1.5c2,0.1,4.5,0.2,8.1,0.2c2.3,0,4.1-0.1,6.3-0.2c0.5,0.3,0.6,1.2,0.1,1.5l-0.9,0.2c-1.9,0.3-2.2,0.7-2.2,4
		V102.7"/>
	<path class="st0" d="M132.1,99.2c0,1.6,0,8.1,0.2,9.3c-0.4,0.6-1.1,0.8-1.8,0.7c-0.8-1.1-2.3-2.9-6.1-7.3l-12.2-14.1
		c-3.3-3.9-5-5.9-5.9-6.7c-0.2,0-0.2,0.6-0.2,3.4v10.3c0,4,0.1,8.8,0.9,10.4c0.5,0.8,1.4,1.2,2.7,1.3l1.1,0.2
		c0.5,0.4,0.4,1.4-0.1,1.5c-1.9-0.1-4-0.2-5.9-0.2c-2.2,0-3.6,0.1-5.4,0.2c-0.4-0.3-0.5-1.2-0.1-1.5l1.1-0.3c1-0.2,1.9-0.4,2.3-1.2
		c0.7-1.6,0.7-6.2,0.7-10.4V82.3c0-4.1,0.1-5-1.7-6.5c-0.6-0.5-2-0.9-2.8-1.1l-0.8-0.2c-0.4-0.3-0.3-1.4,0.2-1.5
		c2,0.2,4.8,0.2,6.1,0.2c1.1,0,2.3-0.1,3.6-0.2c0.9,2.3,6.6,8.9,8.4,11l5.2,5.7c2.2,2.4,7,8.1,7.5,8.4c0.2-0.2,0.2-0.4,0.2-1.3V86.5
		c0-4-0.1-8.8-1-10.4c-0.5-0.8-1.3-1.2-2.6-1.3l-1.2-0.2c-0.5-0.4-0.4-1.4,0.1-1.5c2,0.1,3.9,0.2,6,0.2c2.2,0,3.6-0.1,5.5-0.2
		c0.4,0.3,0.5,1.2,0.1,1.5l-1.2,0.3c-1,0.2-1.9,0.4-2.2,1.2c-0.7,1.6-0.7,6.3-0.7,10.4V99.2"/>
	<path class="st0" d="M144.1,81.1c0-4.8-0.1-5.7-2.2-5.9L140,75c-0.4-0.4-0.4-1.3,0.1-1.5c3.6-0.4,6.8-0.5,11.5-0.5
		c4.9,0,8.5,0.7,10.9,2.1c2.7,1.6,4.4,4.4,4.4,7.9c0,8.1-7.5,10.3-11.7,10.3c-0.5,0-0.9,0-1.3-0.1c-0.4-0.3-0.4-1-0.2-1.3
		c4.7-1,6.5-4.5,6.5-8.8c0-4.3-2.7-8.1-7.4-8.1c-2.6,0-2.7,0.2-2.7,2.2v23.1c0,5.6,0.5,5.8,2.9,6l1.9,0.2c0.3,0.4,0.3,1.3-0.1,1.5
		c-3.1-0.1-5.4-0.2-7.7-0.2s-4.6,0.1-6.7,0.2c-0.4-0.2-0.5-1.2-0.1-1.5l0.8-0.1c2.4-0.3,2.9-0.5,2.9-6.1V81.1"/>
	<path class="st0" d="M172.2,76.7V74h1.2c0.2,0,0.4,0,0.6,0.1c0.1,0.1,0.2,0.1,0.3,0.3c0.1,0.1,0.1,0.3,0.1,0.4
		c0,0.2-0.1,0.4-0.2,0.5c-0.1,0.1-0.3,0.2-0.6,0.3c0.1,0,0.2,0.1,0.2,0.1c0.1,0.1,0.2,0.2,0.3,0.4l0.5,0.7h-0.5l-0.4-0.6
		c-0.1-0.2-0.2-0.3-0.3-0.4c-0.1-0.1-0.1-0.1-0.2-0.2c-0.1,0-0.1-0.1-0.2-0.1c0,0-0.1,0-0.2,0h-0.4v1.2H172.2z M172.6,75.2h0.8
		c0.2,0,0.3,0,0.4-0.1c0.1,0,0.2-0.1,0.2-0.2c0-0.1,0.1-0.2,0.1-0.2c0-0.1,0-0.2-0.1-0.3c-0.1-0.1-0.2-0.1-0.4-0.1h-0.9V75.2"/>
	<path class="st0" d="M170.6,75.4c0,1.5,1.2,2.8,2.8,2.8s2.8-1.2,2.8-2.8s-1.2-2.8-2.8-2.8S170.6,73.8,170.6,75.4z M170.9,75.4
		c0-1.4,1.1-2.5,2.5-2.5s2.5,1.1,2.5,2.5s-1.1,2.5-2.5,2.5S170.9,76.7,170.9,75.4"/>
	<path class="st0" d="M68.9,123.4c0,0.4,0.1,0.7,0.3,0.8c0,0,0,0.1,0,0.2c-0.1,0-0.3,0-0.6,0.1c-0.7,0.2-1.6,0.3-2.3,0.3
		c-1.4,0-2.7-0.4-3.6-1.3c-0.7-0.7-1-1.7-1-2.7c0-1,0.3-2,1.1-2.7c0.8-0.9,2.1-1.4,3.7-1.4c0.5,0,1.1,0.1,1.5,0.2
		c0.3,0.1,0.6,0.1,0.7,0.1c0,0.4,0.1,0.9,0.1,1.8c-0.1,0.1-0.3,0.1-0.4,0c-0.3-1.1-1.1-1.7-2.2-1.7c-2,0-3,1.5-3,3.4
		c0,0.9,0.2,1.9,0.8,2.7c0.6,0.7,1.6,1,2.2,1c0.6,0,0.9-0.1,1-0.3c0.1-0.1,0.1-0.3,0.1-0.7v-0.4c0-0.8,0-0.9-0.8-1l-0.4-0.1
		c-0.1-0.1-0.1-0.3,0-0.3c0.5,0,1,0,1.8,0c0.5,0,0.9,0,1.4,0c0.1,0.1,0.1,0.3,0,0.3l-0.2,0c-0.4,0.1-0.5,0.2-0.5,0.9V123.4"/>
	<path class="st0" d="M70.7,121.5c0-0.5,0-0.7-0.3-0.8l-0.1-0.1c0,0,0-0.2,0-0.3c0.5-0.2,1.1-0.4,1.5-0.6c0.1,0,0.1,0,0.2,0.1
		c0,0.2,0,0.4,0,0.5c0,0.1,0,0.1,0.1,0.1c0.4-0.3,0.7-0.6,1.1-0.6c0.4,0,0.6,0.3,0.6,0.6c0,0.5-0.3,0.7-0.6,0.7
		c-0.1,0-0.2,0-0.3-0.1c-0.3-0.2-0.5-0.2-0.6-0.2c-0.3,0-0.3,0.3-0.3,0.8v1.6c0,0.9,0,1,0.5,1l0.5,0c0.1,0.1,0.1,0.3,0,0.3
		c-0.7,0-1.1,0-1.5,0c-0.4,0-0.8,0-1.2,0c-0.1,0-0.1-0.3,0-0.3l0.2,0c0.4-0.1,0.4-0.2,0.4-1V121.5"/>
	<path class="st0" d="M79,122.9c0,0.6,0,1.2,0.3,1.2c0.2,0,0.3,0,0.5-0.1c0.1,0.1,0.1,0.3,0,0.4c-0.5,0.1-1.4,0.2-1.9,0.4
		c-0.1,0-0.1-0.1-0.1-0.1c0-0.1,0-0.3,0-0.4c0-0.1,0-0.1-0.1-0.1c-0.5,0.3-1,0.6-1.6,0.6c-1,0-1.4-0.6-1.4-1.5v-1.8
		c0-0.8-0.1-0.9-0.3-1l-0.2,0c-0.1-0.1-0.1-0.3,0-0.3c0.7,0,1.4-0.1,1.6-0.2c0.1,0,0.1,0.1,0.1,0.1c0,0.1,0,0.4,0,1v1.8
		c0,0.7,0.1,1.3,0.9,1.3c0.3,0,0.6-0.1,0.8-0.3c0.1-0.1,0.1-0.2,0.1-0.6v-1.8c0-0.7-0.1-0.8-0.5-0.9l-0.2-0.1
		c-0.1-0.1-0.1-0.3,0-0.3c0.8,0,1.6-0.1,1.8-0.2c0.1,0,0.1,0.1,0.1,0.1c0,0.2,0,0.6,0,1V122.9"/>
	<path class="st0" d="M80.7,121.5c0-0.5,0-0.6-0.3-0.8l-0.1-0.1c-0.1-0.1-0.1-0.2,0-0.3c0.5-0.1,1.2-0.5,1.5-0.7
		c0.1,0,0.2,0,0.2,0.1c0,0.2-0.1,0.3-0.1,0.5c0,0.1,0,0.1,0.1,0.1c0.1-0.1,0.8-0.5,1.4-0.5c1.3,0,2,1,2,2.2c0,1.6-1.1,2.8-2.8,2.8
		c-0.1,0-0.4,0-0.5,0c-0.1,0-0.2,0.1-0.2,0.3v1.1c0,0.9,0,1,0.5,1l0.4,0c0.1,0.1,0.1,0.3,0,0.3c-0.6,0-1.1,0-1.5,0
		c-0.4,0-0.8,0-1.3,0c-0.1,0-0.1-0.3,0-0.3l0.3,0c0.4,0,0.4-0.2,0.4-1V121.5z M81.9,123.3c0,0.4,0.1,0.5,0.4,0.7
		c0.2,0.1,0.4,0.2,0.6,0.2c0.8,0,1.2-0.8,1.2-1.9c0-1.1-0.6-1.9-1.5-1.9c-0.3,0-0.5,0.1-0.6,0.2c-0.1,0.1-0.1,0.3-0.1,0.8V123.3"/>
	<path class="st0" d="M91.2,122.3c0,1.7-1.2,2.5-2.5,2.5c-1.3,0-2.5-0.8-2.5-2.4c0-1.6,1.2-2.5,2.5-2.5
		C90,119.9,91.2,120.8,91.2,122.3z M88.8,124.3c0.8,0,1-1,1-1.9c0-1-0.3-2.1-1.2-2.1c-0.6,0-1.1,0.6-1.1,1.9
		C87.5,123.3,87.9,124.3,88.8,124.3"/>
	<path class="st0" d="M102.1,122.6c0,0.4,0,1.8,0,2c-0.1,0.1-0.3,0.2-0.4,0.2c-0.2-0.2-0.5-0.6-1.4-1.6l-2.7-3.1
		c-0.7-0.9-1.1-1.3-1.3-1.5c0,0,0,0.1,0,0.7v2.3c0,0.9,0,1.9,0.2,2.3c0.1,0.2,0.3,0.3,0.6,0.3l0.3,0c0.1,0.1,0.1,0.3,0,0.3
		c-0.4,0-0.9,0-1.3,0c-0.5,0-0.8,0-1.2,0c-0.1-0.1-0.1-0.3,0-0.3l0.3-0.1c0.2,0,0.4-0.1,0.5-0.3c0.1-0.4,0.1-1.4,0.1-2.3v-2.8
		c0-0.9,0-1.1-0.4-1.4c-0.1-0.1-0.5-0.2-0.6-0.2l-0.2,0c-0.1-0.1-0.1-0.3,0-0.3c0.4,0.1,1.1,0,1.4,0c0.2,0,0.5,0,0.8,0
		c0.2,0.5,1.5,2,1.9,2.4l1.2,1.3c0.5,0.5,1.6,1.8,1.7,1.8c0,0,0-0.1,0-0.3v-2.3c0-0.9,0-1.9-0.2-2.3c-0.1-0.2-0.3-0.3-0.6-0.3
		l-0.3,0c-0.1-0.1-0.1-0.3,0-0.3c0.4,0,0.9,0,1.3,0c0.5,0,0.8,0,1.2,0c0.1,0.1,0.1,0.3,0,0.3l-0.3,0.1c-0.2,0.1-0.4,0.1-0.5,0.3
		c-0.2,0.4-0.2,1.4-0.2,2.3V122.6"/>
	<path class="st0" d="M107.1,123.1c0,0.7,0.1,1,0.6,1c0.2,0,0.4-0.1,0.4-0.1c0.1,0,0.1,0.1,0.1,0.2c-0.2,0.3-0.8,0.5-1.2,0.5
		c-0.3,0-0.6-0.1-0.8-0.3c-0.1-0.1-0.1-0.1-0.2-0.1s-0.1,0.1-0.3,0.2c-0.2,0.1-0.6,0.3-1,0.3c-0.8,0-1.2-0.5-1.2-1.1
		c0-0.4,0.2-0.8,1-1.1c0.4-0.1,0.8-0.3,1.3-0.5c0.2-0.1,0.3-0.2,0.3-0.3l0-0.3c0-0.6-0.1-1.1-0.7-1.1c-0.3,0-0.6,0.2-0.6,0.5
		c0,0.2-0.1,0.3-0.2,0.4c-0.2,0.1-0.5,0.2-0.7,0.2c-0.1,0-0.2-0.1-0.2-0.2c0-0.1,0.1-0.4,0.5-0.7c0.4-0.3,1.2-0.7,1.8-0.7
		c0.9,0,1.5,0.4,1.4,1.5L107.1,123.1z M105.9,122.7c0-0.1,0-0.2-0.1-0.2c-0.1,0-0.3,0.1-0.5,0.1c-0.3,0.1-0.6,0.3-0.6,0.8
		c0,0.3,0.2,0.7,0.6,0.7c0.4,0,0.5-0.3,0.6-0.6L105.9,122.7"/>
	<path class="st0" d="M112.2,120c0.2,0.1,0.2,0.3,0.2,0.6c0,0.4-0.2,0.5-0.3,0.5c-0.1,0-0.1,0-0.2-0.1c-0.3-0.3-0.6-0.7-1.1-0.7
		c-0.7,0-1.3,0.6-1.3,1.7c0,0.9,0.6,1.8,1.7,1.8c0.8,0,1-0.3,1.3-0.6c0.1,0,0.2,0.1,0.2,0.2c-0.4,0.9-1.3,1.3-2,1.3
		c-0.6,0-1.2-0.2-1.6-0.6c-0.4-0.4-0.7-1-0.7-1.7c0-1.4,1-2.6,2.9-2.6C111.5,119.9,111.9,119.9,112.2,120"/>
	<path class="st0" d="M114.9,123.2c0,0.9,0,1,0.4,1l0.2,0c0.1,0.1,0.1,0.3,0,0.3c-0.4,0-0.8,0-1.2,0c-0.4,0-0.8,0-1.2,0
		c-0.1,0-0.1-0.3,0-0.3l0.2,0c0.4-0.1,0.4-0.2,0.4-1v-1.7c0-0.5,0-0.7-0.3-0.8l-0.1-0.1c0,0,0-0.2,0-0.3c0.6-0.2,1.2-0.4,1.5-0.6
		c0.1,0,0.1,0,0.2,0.1c0,0.4,0,0.9,0,1.4V123.2z M113.5,118.1c0-0.4,0.3-0.7,0.7-0.7s0.7,0.3,0.7,0.7s-0.3,0.7-0.7,0.7
		S113.5,118.5,113.5,118.1"/>
	<path class="st0" d="M121.1,122.3c0,1.7-1.2,2.5-2.5,2.5c-1.3,0-2.4-0.8-2.4-2.4c0-1.6,1.2-2.5,2.5-2.5
		C119.9,119.9,121.1,120.8,121.1,122.3z M118.7,124.3c0.8,0,1-1,1-1.9c0-1-0.3-2.1-1.2-2.1c-0.6,0-1.1,0.6-1.1,1.9
		C117.5,123.3,117.8,124.3,118.7,124.3"/>
	<path class="st0" d="M123.7,123.2c0,0.9,0,1,0.4,1.1l0.2,0c0.1,0.1,0.1,0.3,0,0.3c-0.4,0-0.8,0-1.2,0c-0.4,0-0.8,0-1.3,0
		c-0.1,0-0.1-0.3,0-0.3l0.3,0c0.4-0.1,0.4-0.2,0.4-1v-1.7c0-0.5,0-0.7-0.3-0.8l-0.1-0.1c0,0,0-0.2,0-0.3c0.5-0.1,1.1-0.4,1.5-0.6
		c0.1,0,0.1,0,0.1,0.1c0,0.2,0,0.4,0,0.5c0,0.1,0,0.1,0.1,0.1c0.5-0.3,0.9-0.6,1.6-0.6c0.9,0,1.4,0.7,1.4,1.6v1.8c0,0.9,0,1,0.4,1
		l0.3,0c0.1,0.1,0.1,0.3,0,0.3c-0.5,0-0.9,0-1.3,0c-0.4,0-0.8,0-1.2,0c-0.1,0-0.1-0.3,0-0.3l0.2,0c0.4-0.1,0.4-0.2,0.4-1.1v-1.6
		c0-0.6-0.2-1.1-0.9-1.1c-0.4,0-0.7,0.2-0.8,0.4c-0.2,0.2-0.2,0.3-0.2,0.7V123.2"/>
	<path class="st0" d="M131.6,123.1c0,0.7,0.1,1,0.6,1c0.2,0,0.4-0.1,0.4-0.1c0.1,0,0.1,0.1,0.1,0.2c-0.2,0.3-0.8,0.5-1.2,0.5
		c-0.3,0-0.6-0.1-0.8-0.3c-0.1-0.1-0.1-0.1-0.2-0.1s-0.1,0.1-0.3,0.2c-0.2,0.1-0.6,0.3-1,0.3c-0.8,0-1.2-0.5-1.2-1.1
		c0-0.4,0.2-0.8,1-1.1c0.4-0.1,0.9-0.3,1.3-0.5c0.2-0.1,0.3-0.2,0.3-0.3l0-0.3c0-0.6-0.1-1.1-0.7-1.1c-0.3,0-0.6,0.2-0.6,0.5
		c0,0.2-0.1,0.3-0.2,0.4c-0.2,0.1-0.5,0.2-0.7,0.2c-0.2,0-0.2-0.1-0.2-0.2c0-0.1,0.1-0.4,0.5-0.7c0.4-0.3,1.2-0.7,1.8-0.7
		c0.9,0,1.5,0.4,1.4,1.5L131.6,123.1z M130.5,122.7c0-0.1,0-0.2-0.1-0.2c-0.1,0-0.3,0.1-0.5,0.1c-0.3,0.1-0.6,0.3-0.6,0.8
		c0,0.3,0.2,0.7,0.7,0.7c0.4,0,0.5-0.3,0.6-0.6L130.5,122.7"/>
	<path class="st0" d="M133.4,118.2c0-0.8,0-0.8-0.3-1l-0.1-0.1c-0.1,0-0.1-0.2,0-0.3c0.5-0.1,1.1-0.4,1.5-0.6c0.1,0,0.1,0,0.2,0.1
		c0,0.5,0,1.2,0,1.7v5.1c0,0.9,0,1,0.4,1l0.3,0c0.1,0.1,0.1,0.3,0,0.3c-0.5,0-0.9,0-1.3,0c-0.4,0-0.8,0-1.3,0c-0.1,0-0.1-0.3,0-0.3
		l0.2,0c0.4-0.1,0.4-0.2,0.4-1V118.2"/>
	<path class="st0" d="M139.7,118.7c0-1.1,0-1.2-0.5-1.3l-0.4,0c-0.1-0.1-0.1-0.3,0-0.3c0.8-0.1,1.5-0.1,2.6-0.1
		c1.1,0,1.9,0.2,2.4,0.5c0.6,0.4,1,1,1,1.7c0,1.8-1.7,2.3-2.6,2.3c-0.1,0-0.2,0-0.3,0c-0.1-0.1-0.1-0.2,0-0.3c1.1-0.2,1.4-1,1.4-1.9
		c0-0.9-0.6-1.8-1.7-1.8c-0.6,0-0.6,0-0.6,0.5v5.1c0,1.2,0.1,1.3,0.7,1.3l0.4,0c0.1,0.1,0.1,0.3,0,0.3c-0.7,0-1.2,0-1.7,0
		s-1,0-1.5,0c-0.1,0-0.1-0.3,0-0.3l0.2,0c0.5-0.1,0.6-0.1,0.6-1.3V118.7"/>
	<path class="st0" d="M145.9,121.5c0-0.5,0-0.7-0.3-0.8l-0.1-0.1c0,0,0-0.2,0-0.3c0.5-0.2,1.1-0.4,1.5-0.6c0.1,0,0.1,0,0.2,0.1
		c0,0.2,0,0.4,0,0.5c0,0.1,0,0.1,0.1,0.1c0.4-0.3,0.8-0.6,1.1-0.6c0.4,0,0.6,0.3,0.6,0.6c0,0.5-0.3,0.7-0.6,0.7
		c-0.1,0-0.2,0-0.3-0.1c-0.3-0.2-0.5-0.2-0.6-0.2c-0.3,0-0.3,0.3-0.3,0.8v1.6c0,0.9,0,1,0.5,1l0.5,0c0.1,0.1,0.1,0.3,0,0.3
		c-0.7,0-1.1,0-1.5,0c-0.4,0-0.8,0-1.2,0c-0.1,0-0.1-0.3,0-0.3l0.2,0c0.4-0.1,0.4-0.2,0.4-1V121.5"/>
	<path class="st0" d="M154.2,122.3c0,1.7-1.2,2.5-2.5,2.5c-1.3,0-2.5-0.8-2.5-2.4c0-1.6,1.2-2.5,2.5-2.5
		C153,119.9,154.2,120.8,154.2,122.3z M151.8,124.3c0.8,0,1-1,1-1.9c0-1-0.3-2.1-1.2-2.1c-0.6,0-1.1,0.6-1.1,1.9
		C150.5,123.3,150.9,124.3,151.8,124.3"/>
	<path class="st0" d="M157.8,123.3c-0.2,0.4-0.4,1-0.5,1.4c0,0-0.1,0.1-0.2,0.1s-0.2,0-0.2-0.1c-0.1-0.3-0.3-0.8-0.4-1.1
		c-0.3-0.6-0.9-2-1.1-2.5c-0.2-0.5-0.4-0.6-0.7-0.7l-0.2,0c-0.1-0.1-0.1-0.3,0-0.3c0.4,0,0.8,0,1.2,0c0.5,0,0.9,0,1.3,0
		c0.1,0,0.1,0.3,0,0.3l-0.2,0c-0.2,0-0.3,0.1-0.3,0.1c0,0.1,0,0.2,0.1,0.4c0.2,0.4,0.8,1.9,0.9,2.2c0.3-0.6,0.6-1.3,0.9-2
		c0.1-0.3,0.2-0.4,0.2-0.5c0-0.1-0.1-0.1-0.2-0.1l-0.3-0.1c-0.1-0.1-0.1-0.3,0-0.3c0.4,0,0.6,0,1,0c0.3,0,0.6,0,0.8,0
		c0.1,0,0.1,0.3,0,0.3l-0.2,0c-0.4,0.1-0.5,0.2-0.9,0.9L157.8,123.3"/>
	<path class="st0" d="M161.7,123.2c0,0.9,0,1,0.4,1l0.2,0c0.1,0.1,0.1,0.3,0,0.3c-0.4,0-0.8,0-1.3,0c-0.4,0-0.8,0-1.2,0
		c-0.1,0-0.1-0.3,0-0.3l0.2,0c0.4-0.1,0.4-0.2,0.4-1v-1.7c0-0.5,0-0.7-0.3-0.8l-0.1-0.1c0,0,0-0.2,0-0.3c0.6-0.2,1.2-0.4,1.5-0.6
		c0.1,0,0.1,0,0.2,0.1c0,0.4,0,0.9,0,1.4V123.2z M160.4,118.1c0-0.4,0.3-0.7,0.7-0.7s0.7,0.3,0.7,0.7s-0.3,0.7-0.7,0.7
		S160.4,118.5,160.4,118.1"/>
	<path class="st0" d="M164.8,123.2c0,0.9,0.1,1,0.4,1.1l0.2,0c0.1,0.1,0.1,0.3,0,0.3c-0.4,0-0.8,0-1.2,0c-0.4,0-0.8,0-1.3,0
		c-0.1,0-0.1-0.3,0-0.3l0.3,0c0.4-0.1,0.4-0.2,0.4-1v-1.7c0-0.5,0-0.7-0.3-0.8l-0.1-0.1c0,0,0-0.2,0-0.3c0.5-0.1,1.1-0.4,1.5-0.6
		c0.1,0,0.1,0,0.1,0.1c0,0.2,0,0.4,0,0.5c0,0.1,0,0.1,0.1,0.1c0.5-0.3,0.9-0.6,1.6-0.6c0.9,0,1.4,0.7,1.4,1.6v1.8c0,0.9,0,1,0.4,1
		l0.3,0c0.1,0.1,0.1,0.3,0,0.3c-0.5,0-0.9,0-1.3,0c-0.4,0-0.8,0-1.2,0c-0.1,0-0.1-0.3,0-0.3l0.2,0c0.4-0.1,0.4-0.2,0.4-1.1v-1.6
		c0-0.6-0.2-1.1-0.9-1.1c-0.4,0-0.6,0.2-0.8,0.4c-0.2,0.2-0.2,0.3-0.2,0.7V123.2"/>
	<path class="st0" d="M173,120c0.2,0.1,0.2,0.3,0.2,0.6c0,0.4-0.2,0.5-0.3,0.5c-0.1,0-0.1,0-0.2-0.1c-0.3-0.3-0.6-0.7-1.1-0.7
		c-0.7,0-1.3,0.6-1.3,1.7c0,0.9,0.6,1.8,1.7,1.8c0.8,0,1-0.3,1.3-0.6c0.1,0,0.2,0.1,0.2,0.2c-0.4,0.9-1.3,1.3-2,1.3
		c-0.6,0-1.2-0.2-1.6-0.6c-0.4-0.4-0.7-1-0.7-1.7c0-1.4,1-2.6,2.9-2.6C172.3,119.9,172.6,119.9,173,120"/>
	<path class="st0" d="M175.6,123.2c0,0.9,0.1,1,0.4,1l0.2,0c0.1,0.1,0.1,0.3,0,0.3c-0.4,0-0.8,0-1.3,0c-0.4,0-0.8,0-1.2,0
		c-0.1,0-0.1-0.3,0-0.3l0.2,0c0.4-0.1,0.4-0.2,0.4-1v-1.7c0-0.5,0-0.7-0.3-0.8l-0.1-0.1c0,0,0-0.2,0-0.3c0.6-0.2,1.2-0.4,1.5-0.6
		c0.1,0,0.1,0,0.2,0.1c0,0.4,0,0.9,0,1.4V123.2z M174.3,118.1c0-0.4,0.3-0.7,0.7-0.7c0.4,0,0.7,0.3,0.7,0.7s-0.3,0.7-0.7,0.7
		C174.6,118.8,174.3,118.5,174.3,118.1"/>
	<path class="st0" d="M180.5,123.1c0,0.7,0.1,1,0.6,1c0.2,0,0.4-0.1,0.4-0.1c0.1,0,0.1,0.1,0.1,0.2c-0.2,0.3-0.8,0.5-1.2,0.5
		c-0.3,0-0.6-0.1-0.8-0.3c-0.1-0.1-0.1-0.1-0.2-0.1c-0.1,0-0.1,0.1-0.3,0.2c-0.2,0.1-0.6,0.3-1,0.3c-0.8,0-1.2-0.5-1.2-1.1
		c0-0.4,0.2-0.8,1-1.1c0.4-0.1,0.9-0.3,1.3-0.5c0.2-0.1,0.3-0.2,0.3-0.3l0-0.3c0-0.6-0.1-1.1-0.7-1.1c-0.3,0-0.6,0.2-0.6,0.5
		c0,0.2-0.1,0.3-0.2,0.4c-0.2,0.1-0.5,0.2-0.7,0.2c-0.1,0-0.2-0.1-0.2-0.2c0-0.1,0.1-0.4,0.5-0.7c0.4-0.3,1.2-0.7,1.8-0.7
		c0.9,0,1.5,0.4,1.4,1.5L180.5,123.1z M179.3,122.7c0-0.1,0-0.2-0.1-0.2c-0.1,0-0.3,0.1-0.5,0.1c-0.3,0.1-0.6,0.3-0.6,0.8
		c0,0.3,0.2,0.7,0.7,0.7c0.4,0,0.5-0.3,0.6-0.6L179.3,122.7"/>
	<path class="st0" d="M182.3,118.2c0-0.8,0-0.8-0.3-1l-0.1-0.1c-0.1,0-0.1-0.2,0-0.3c0.5-0.1,1.1-0.4,1.5-0.6c0.1,0,0.1,0,0.2,0.1
		c0,0.5,0,1.2,0,1.7v5.1c0,0.9,0,1,0.4,1l0.3,0c0.1,0.1,0.1,0.3,0,0.3c-0.5,0-0.9,0-1.3,0c-0.4,0-0.8,0-1.3,0c-0.1,0-0.1-0.3,0-0.3
		l0.2,0c0.4-0.1,0.4-0.2,0.4-1V118.2"/>
</g>
</svg>
