<svg id="Layer_1" data-name="Layer 1" xmlns="http://www.w3.org/2000/svg" width="180.29" height="54.6" viewBox="0 0 180.29 54.6"><defs><style>.cls-1{fill:#003f9b;}.cls-2{fill:#003897;}.cls-3{fill:#9dd51c;}</style></defs><path class="cls-1" d="M61.66,49.32l.76-.91a2.67,2.67,0,0,0,1.74.71c.53,0,.84-.21.84-.55v0c0-.32-.2-.49-1.17-.74-1.18-.3-1.94-.63-1.94-1.79h0a1.83,1.83,0,0,1,2-1.76A3.33,3.33,0,0,1,66.1,45l-.66,1a2.76,2.76,0,0,0-1.52-.58c-.49,0-.75.23-.75.51v0c0,.38.25.51,1.26.76,1.18.31,1.85.74,1.85,1.76h0c0,1.16-.89,1.81-2.14,1.81a3.73,3.73,0,0,1-2.48-.93" transform="translate(-9.85 -2.34)"/><path class="cls-1" d="M71.2,44.29h1.18l2.51,5.88H73.54L73,48.86H70.54L70,50.17H68.7Zm1.35,3.44-.78-1.9L71,47.73Z" transform="translate(-9.85 -2.34)"/><polygon class="cls-1" points="67.86 41.99 69.14 41.99 69.14 46.66 72.06 46.66 72.06 47.83 67.86 47.83 67.86 41.99"/><path class="cls-1" d="M84.54,47.67V44.33h1.29v3.3c0,.95.47,1.45,1.26,1.45s1.26-.48,1.26-1.4V44.33h1.28v3.3a2.35,2.35,0,0,1-2.56,2.63,2.31,2.31,0,0,1-2.53-2.59" transform="translate(-9.85 -2.34)"/><path class="cls-1" d="M92.87,44.33h2.27a2.91,2.91,0,0,1,3.11,2.9v0a2.93,2.93,0,0,1-3.11,2.92H92.87ZM95.14,49a1.66,1.66,0,0,0,1.76-1.74v0a1.68,1.68,0,0,0-1.76-1.76h-1V49Z" transform="translate(-9.85 -2.34)"/><rect class="cls-1" x="95.95" y="41.99" width="1.28" height="5.84"/><polygon class="cls-1" points="100.62 41.99 101.8 41.99 104.54 45.59 104.54 41.99 105.81 41.99 105.81 47.83 104.71 47.83 101.89 44.12 101.89 47.83 100.62 47.83 100.62 41.99"/><polygon class="cls-1" points="110.49 43.18 108.72 43.18 108.72 41.99 113.55 41.99 113.55 43.18 111.78 43.18 111.78 47.83 110.49 47.83 110.49 43.18"/><polygon class="cls-1" points="116.47 41.99 120.87 41.99 120.87 43.14 117.74 43.14 117.74 44.32 120.49 44.32 120.49 45.46 117.74 45.46 117.74 46.69 120.91 46.69 120.91 47.83 116.47 47.83 116.47 41.99"/><polygon class="cls-1" points="123.98 41.99 125.26 41.99 125.26 46.66 128.17 46.66 128.17 47.83 123.98 47.83 123.98 41.99"/><rect class="cls-1" x="131.13" y="41.99" width="1.28" height="5.84"/><path class="cls-1" d="M145.39,47.27v0a3,3,0,0,1,3.06-3,3.21,3.21,0,0,1,2.3.8l-.81,1a2.14,2.14,0,0,0-1.53-.6,1.76,1.76,0,0,0-1.68,1.82v0a1.75,1.75,0,0,0,1.77,1.85,2.06,2.06,0,0,0,1.21-.35v-.83h-1.29V46.81H151v2.53a3.77,3.77,0,0,1-2.49.93,2.92,2.92,0,0,1-3.07-3" transform="translate(-9.85 -2.34)"/><polygon class="cls-1" points="144.26 41.99 148.66 41.99 148.66 43.14 145.54 43.14 145.54 44.32 148.29 44.32 148.29 45.46 145.54 45.46 145.54 46.69 148.71 46.69 148.71 47.83 144.26 47.83 144.26 41.99"/><polygon class="cls-1" points="151.78 41.99 152.96 41.99 155.7 45.59 155.7 41.99 156.96 41.99 156.96 47.83 155.87 47.83 153.04 44.12 153.04 47.83 151.78 47.83 151.78 41.99"/><polygon class="cls-1" points="161.65 43.18 159.87 43.18 159.87 41.99 164.71 41.99 164.71 43.18 162.94 43.18 162.94 47.83 161.65 47.83 161.65 43.18"/><polygon class="cls-1" points="167.62 41.99 172.03 41.99 172.03 43.14 168.9 43.14 168.9 44.32 171.65 44.32 171.65 45.46 168.9 45.46 168.9 46.69 172.07 46.69 172.07 47.83 167.62 47.83 167.62 41.99"/><rect class="cls-1" x="174.95" y="46.5" width="1.35" height="1.33"/><path class="cls-2" d="M61.74,28.92h-.43a.39.39,0,0,1-.33-.17L54.54,20a.41.41,0,0,0-.75.25v15a.41.41,0,0,1-.42.41h-3.5a.41.41,0,0,1-.42-.41V13.07a.42.42,0,0,1,.42-.42h4.36a.42.42,0,0,1,.34.17l6.72,9.24a.41.41,0,0,0,.67,0l6.72-9.24a.42.42,0,0,1,.34-.17h4.32a.42.42,0,0,1,.42.42V35.2a.41.41,0,0,1-.42.41H69.85a.41.41,0,0,1-.42-.41v-15a.42.42,0,0,0-.75-.26l-6.6,8.8a.41.41,0,0,1-.34.17" transform="translate(-9.85 -2.34)"/><path class="cls-2" d="M98,25.81C98,32.6,93.81,36.07,88,36.07c-5.51,0-10.2-3.34-10.2-10.26V13a.38.38,0,0,1,.38-.38h3.54a.38.38,0,0,1,.38.38V25.81c0,4.13,2.36,6.33,5.93,6.33s5.61-2.4,5.61-6.33V13a.38.38,0,0,1,.38-.38h3.54A.38.38,0,0,1,98,13Z" transform="translate(-9.85 -2.34)"/><path class="cls-2" d="M100.86,16.18V13a.38.38,0,0,1,.37-.38h18.15a.38.38,0,0,1,.37.38v3.18a.37.37,0,0,1-.37.37h-6.53a.38.38,0,0,0-.38.38V35.2a.38.38,0,0,1-.38.38h-3.57a.38.38,0,0,1-.38-.38V16.93a.38.38,0,0,0-.38-.38h-6.53a.37.37,0,0,1-.37-.37" transform="translate(-9.85 -2.34)"/><path class="cls-2" d="M143.21,25.81c0,6.79-4.17,10.26-9.94,10.26-5.51,0-10.21-3.34-10.21-10.26V13a.38.38,0,0,1,.38-.38H127a.38.38,0,0,1,.38.38V25.81c0,4.13,2.36,6.33,5.94,6.33s5.61-2.4,5.61-6.33V13a.38.38,0,0,1,.38-.38h3.54a.38.38,0,0,1,.38.38Z" transform="translate(-9.85 -2.34)"/><path class="cls-2" d="M167.58,25.81c0,6.79-4.17,10.26-9.94,10.26-5.51,0-10.2-3.34-10.2-10.26V13a.38.38,0,0,1,.37-.38h3.55a.37.37,0,0,1,.37.38V25.81c0,4.13,2.37,6.33,5.94,6.33s5.61-2.4,5.61-6.33V13a.38.38,0,0,1,.38-.38h3.54a.38.38,0,0,1,.38.38Z" transform="translate(-9.85 -2.34)"/><path class="cls-2" d="M180.54,15.6c-3.22,0-4.76,1.35-4.76,3,0,2,2.36,2.56,5.12,2.89,4.79.59,9.25,1.84,9.25,7.32,0,5.11-4.53,7.31-9.65,7.31-4.56,0-8.09-1.36-9.85-5.29a.4.4,0,0,1,.18-.52l2.9-1.5a.39.39,0,0,1,.54.17c1.12,2.27,3.65,3.27,6.3,3.27s5.28-.95,5.28-3.44c0-2.17-2.26-3.05-5.31-3.38-4.7-.56-9-1.81-9-7,0-4.72,4.66-6.66,8.89-6.69,3.45,0,7,.95,8.84,4.2a.4.4,0,0,1-.18.55L186.3,18a.4.4,0,0,1-.51-.12,6.83,6.83,0,0,0-5.25-2.28" transform="translate(-9.85 -2.34)"/><path class="cls-3" d="M45,42.29a3.69,3.69,0,0,0-2.51,2.5,3.87,3.87,0,0,0-.09,1.87,1,1,0,0,1-.41,1l-4.09,2.73a.16.16,0,0,0,0,.22l0,.07C32.47,54,26.21,57.1,19.78,54.57a8.2,8.2,0,0,1-5.3-7.81,13.21,13.21,0,0,1,4.44-9.33,18.46,18.46,0,0,1,2.56-1.93.12.12,0,0,1,.18.1v7.52a.41.41,0,0,0,.41.41H34.22a.41.41,0,0,0,.41-.41V26a.41.41,0,0,1,.41-.41H46a.42.42,0,0,0,.42-.42V13a.41.41,0,0,0-.42-.41H35a.42.42,0,0,1-.41-.42V2.71a.42.42,0,0,0-.18-.34.18.18,0,0,0-.26.06C31.34,6.77,33.1,9.24,31.1,19.84,29.35,29.16,21.75,34,19.8,35.06a.05.05,0,0,1-.06-.08c1.54-1.28,7-6.27,8.07-13.17,1.21-8,.5-14-5.73-19.42a.18.18,0,0,0-.23,0,.39.39,0,0,0-.19.34v9.45a.42.42,0,0,1-.41.42h-11a.41.41,0,0,0-.42.41V25.13a.42.42,0,0,0,.42.42h11a.41.41,0,0,1,.41.41V29.9c0,1.17-1.27,2.65-2,3.4l-.48.47h0c-.32.31-.63.62-.94.94a23.21,23.21,0,0,0-3.8,4.81,13.26,13.26,0,0,0-1.09,11.06c2.62,6.7,11.67,7.6,17.52,5a72.69,72.69,0,0,0,7.67-4l0,.07a.15.15,0,0,0,.22.05l3.63-2.42a1.77,1.77,0,0,1,1.84-.07,3.81,3.81,0,0,0,2.86.35,4.07,4.07,0,0,0,2.64-2.64A3.8,3.8,0,0,0,45,42.29m1.26,5.94a2.31,2.31,0,1,1,2.16-2.16,2.31,2.31,0,0,1-2.16,2.16" transform="translate(-9.85 -2.34)"/></svg>