<svg id="Layer_1" data-name="Layer 1" xmlns="http://www.w3.org/2000/svg" viewBox="0 0 512 512"><defs><style>.cls-1{fill:#f0f0f0;}.cls-2{fill:#933a4a;opacity:0.22;}.cls-3{fill:#d80027;}</style></defs><path class="cls-1" d="M233.7,211.54q-11.08,0-22.18,0,11.08,22.22,22.21,44.39c-14.88-7.28-29.56-15-44.48-22.15,0,7.41,0,14.82,0,22.23-7.33,3.8-14.84,7.26-22.1,11.18,14.79,7.45,29.75,14.64,44.36,22.43-3.88,7.23-7.35,14.66-11.13,21.93,14.84.12,29.67,0,44.5.06q0,16.69,0,33.38h22.25q0-16.68,0-33.36c14.82-.12,29.64.08,44.47-.1-3.65-7.4-7.56-14.7-11-22.2,14.83-7.26,29.53-14.77,44.29-22.14-7.21-4-14.75-7.41-22.05-11.24,0-7.42,0-14.83,0-22.24-14.86,7.33-29.56,15-44.5,22.18,7.44-14.76,14.8-29.56,22.2-44.34-7.4,0-14.79,0-22.19,0-7.46-11.13-14.85-22.31-22.31-33.45-7.45,11.14-14.83,22.33-22.3,33.45M253.16,0h5.72A257.57,257.57,0,0,1,367.43,25.36c-.28,141.21-.05,282.42-.13,423.63.06,12.55-.14,25.1.11,37.65A260.28,260.28,0,0,1,262.71,512h-9.55a258.12,258.12,0,0,1-108.57-25.4c.23-97.21,0-194.42.1-291.63-.08-56.53.16-113.06-.12-169.58A258.09,258.09,0,0,1,253.16,0"/><path class="cls-2" d="M142.32,485.58l.29.14-.29-.14m-2.15-1.06.43.22-.43-.22m-2-1,.54.28-.54-.28m237.15-.78.77-.42-.77.42m1.66-.89.75-.41-.75.41m-242.8-.44.54.3-.54-.3m-6.88-3.93.32.18-.32-.18m262.05-2.81.3-.19-.3.19m-267.19-.22.51.32-.51-.32m359.21-96.61.28-.52-.28.52m2.05-3.95.29-.55-.29.55m4.1-8.17.27-.59-.27.59M24.14,365l.28.6-.28-.6m464.19-1,.36-.77-.36.77m-465-.72c.08.18.25.54.34.72-.09-.18-.26-.54-.34-.72m466.73-3,1-2.24-1,2.24M21,358c.24.57.73,1.7,1,2.26-.24-.56-.73-1.69-1-2.26M493,353.25l1-2.29-1,2.29M18,351l1,2.3L18,351m476.49-1.28c0-.09.1-.27.14-.36,0,.09-.1.27-.14.36m-477.11-.34.12.33-.12-.33m478.8-4.12c.21-.58.64-1.72.86-2.29-.22.57-.65,1.71-.86,2.29M15,343c.23.56.67,1.7.9,2.27-.23-.57-.67-1.71-.9-2.27m-.56-1.68.12.35-.12-.35m484.13-2.7c0-.07.08-.22.1-.29s-.07.22-.1.29m-485.15-.26.12.36-.12-.36m486.13-2.64.17-.53-.17.53m1.66-5.54.93-2.21-.93,2.21M9.91,328c.23.56.69,1.67.91,2.23-.22-.56-.68-1.67-.91-2.23M502,327.13a3.09,3.09,0,0,1,1-3.19q1,2.19-1,3.19M9,324a3.19,3.19,0,0,1,1.06,3.2A2.12,2.12,0,0,1,9,324m496.19-8.66A3.18,3.18,0,0,1,506,312q1.08,2.18-.89,3.29m.83-4.05a5.36,5.36,0,0,1,1.08-4.23c.57,1.47.68,3.54-1.08,4.23M5,307.09a5,5,0,0,1,1,4.2c-1.73-.74-1.57-2.76-1-4.2m502-.85a5.25,5.25,0,0,1,1.07-4.2c.51,1.44.74,3.58-1.07,4.2M4,302.06a5.86,5.86,0,0,1,1,4.3c-1.83-.66-1.56-2.84-1-4.3m504-1c-.43-1.77.42-3.45,1.06-5,.51,1.64,1.08,4.32-1.06,5M3,296c.6,1.64,1.42,3.37,1,5.16-2.19-.73-1.51-3.49-1-5.16M0,270.79a4,4,0,0,1,.64,4.73L0,275.24v-4.45m0-34.38L.66,236A3.63,3.63,0,0,1,0,240.58v-4.17m511.12-1.74H512v6.57a8.24,8.24,0,0,1-.88-6.58M2,223c-.42-2-1.34-5.05,1-6.12C3.44,219,2.58,221,2,223m505.89-12.07c2.13.76,1.57,3.42,1.06,5.08-.64-1.61-1.48-3.31-1.06-5.08m-505,5c-.52-1.72-1-4.08,1-5.1.56,1.77-.19,3.53-1,5.1M507,205.7c1.79.67,1.58,2.79,1.06,4.25A5.44,5.44,0,0,1,507,205.7m-1-4.95c1.77.69,1.63,2.77,1.06,4.24a5.48,5.48,0,0,1-1.06-4.24m-.84-4.09q2,1.16.9,3.39a3.45,3.45,0,0,1-.9-3.39M8.94,188c-.68-1.47-.32-2.54,1.06-3.2A3.16,3.16,0,0,1,8.94,188m1-4,.88-2.24L9.9,184m3.45-10.42c0-.07.08-.22.1-.3,0,.08-.08.23-.1.3m482.8-6.85L497,169l-.88-2.28m-480.8,1.19c.07-.18.21-.54.27-.73-.06.19-.2.55-.27.73m479.14-5.61c0,.08.1.26.14.35,0-.09-.11-.27-.14-.35m-477.16.45c.06-.16.19-.48.26-.64-.07.16-.2.48-.26.64m475.7-4c.25.57.73,1.71,1,2.29-.24-.58-.72-1.72-1-2.29m-5.6-12.58.28.59-.28-.59m-4.11-8.24.4.76-.4-.76m-1-1.85.49.94-.49-.94m-.85-1.65.29.55-.29-.55m-451.21.31.31-.57-.31.57m447.13-7.56c.07.14.23.41.31.54-.08-.13-.24-.4-.31-.54m-3-5,.32.52-.32-.52M42.3,114.75l.36-.54-.36.54m2.1-3.11c0-.07.14-.21.19-.28s-.15.21-.19.28M65.21,85.13A147,147,0,0,1,85.08,65.25c-6.85,6.41-13.49,13-19.87,19.88M407.28,49.29l.49.35-.49-.35m-6.91-4.89.28.2-.28-.2m-3.11-2.11.53.36-.53-.36M122.2,37.59l.54-.34-.54.34m4.94-3,.54-.32-.54.32M377,30.2l.55.29L377,30.2m-242.86.45.57-.31-.57.31M375.3,29.29l.71.38-.71-.38m-237.17-.7.73-.39-.73.39m1.75-.94.69-.37-.69.37m2.37-1.21.34-.16-.34.16"/><path class="cls-3" d="M233.7,211.54c7.47-11.12,14.85-22.31,22.3-33.45,7.45,11.14,14.85,22.32,22.31,33.45,7.4,0,14.79,0,22.19,0-7.4,14.78-14.76,29.58-22.2,44.34,14.93-7.19,29.64-14.85,44.5-22.18,0,7.41,0,14.82,0,22.24,7.3,3.83,14.84,7.24,22.05,11.24-14.76,7.37-29.47,14.88-44.29,22.14,3.45,7.5,7.35,14.8,11,22.2-14.83.18-29.65,0-44.47.1q0,16.68,0,33.36H244.86q0-16.69,0-33.38c-14.83-.05-29.66.06-44.5-.06,3.78-7.27,7.25-14.7,11.13-21.93-14.61-7.79-29.57-15-44.36-22.43,7.26-3.92,14.77-7.38,22.1-11.18,0-7.41,0-14.82,0-22.23,14.92,7.18,29.6,14.87,44.48,22.15q-11.13-22.19-22.21-44.39,11.08,0,22.18,0M367.42,25.36c2.68,1.2,5.31,2.5,7.88,3.92l.71.38,1,.53.55.29c6.72,3.67,13.3,7.58,19.68,11.8l.53.36,2.58,1.75.28.2c2.22,1.54,4.45,3.08,6.63,4.69l.49.35a255.75,255.75,0,0,1,66.65,72.54l.32.52c.92,1.47,1.82,3,2.69,4.48.07.14.23.41.31.54,1.3,2.21,2.57,4.44,3.77,6.71l.29.55.56,1.1.49.94.47.91.4.76c1.33,2.45,2.55,4.95,3.71,7.48l.28.59q2.81,5.92,5.32,12c.25.57.73,1.71,1,2.29l.49,1.29c0,.08.1.26.14.35.5,1.36,1,2.71,1.52,4.07L497,169a235.06,235.06,0,0,1,8.12,27.63,3.45,3.45,0,0,0,.9,3.39l-.06.7a5.48,5.48,0,0,0,1.06,4.24l-.06.71a5.44,5.44,0,0,0,1.06,4.25l-.13,1c-.42,1.77.42,3.47,1.06,5.08a141.16,141.16,0,0,1,2.14,18.67,8.24,8.24,0,0,0,.88,6.58v31.45c-1.45,7.7-1.4,15.63-3,23.33-.64,1.59-1.49,3.27-1.06,5l.14,1a5.25,5.25,0,0,0-1.07,4.2l.07.79a5.36,5.36,0,0,0-1.08,4.23l.06.76a3.18,3.18,0,0,0-.89,3.29c-.52,2.92-1.35,5.77-2.12,8.63a3.09,3.09,0,0,0-1,3.19l.11.87-.93,2.21c-.46,1.68-1,3.35-1.49,5l-.17.53-.88,2.61c0,.07-.07.22-.1.29-.51,1.42-1,2.86-1.49,4.3-.22.57-.65,1.71-.86,2.29-.52,1.36-1.05,2.72-1.55,4.1,0,.09-.1.27-.14.36L494,351l-1,2.29q-1,2.38-2,4.77l-1,2.24c-.45,1-.91,2-1.36,2.95l-.36.77-.52,1.12-.27.59c-1.21,2.57-2.47,5.11-3.81,7.62l-.29.55-1.77,3.43-.28.52a255.49,255.49,0,0,1-91.72,96.64l-.3.19c-3.75,2.46-7.69,4.61-11.62,6.77l-.75.41-.89.47-.77.42c-2.59,1.42-5.24,2.73-7.93,3.94-.25-12.55-.05-25.1-.11-37.65.08-141.21-.16-282.42.12-423.63m-224.83.91,2-.88c.28,56.52,0,113.05.12,169.58-.06,97.21.13,194.42-.1,291.63l-2-.89-.29-.14-1.72-.84-.43-.22-1.44-.75-.54-.28c-1.16-.6-2.31-1.2-3.45-1.81l-.54-.3c-2.22-1.19-4.41-2.43-6.56-3.75l-.32-.18c-1.56-.89-3.11-1.78-4.63-2.71l-.51-.32A257,257,0,0,1,24.42,365.62l-.28-.6-.48-1c-.09-.18-.26-.54-.34-.72l-1.39-3c-.24-.56-.73-1.69-1-2.26-.67-1.58-1.35-3.16-2-4.74L18,351l-.5-1.29-.12-.33c-.51-1.35-1-2.71-1.52-4.06-.23-.57-.67-1.71-.9-2.27l-.44-1.33-.12-.35c-.22-.65-.67-1.95-.9-2.6l-.12-.36c-.92-2.69-1.79-5.4-2.55-8.14-.22-.56-.68-1.67-.91-2.23l.11-.85A3.19,3.19,0,0,0,9,324c-1.12-4.2-2.32-8.39-3-12.68a5,5,0,0,0-1-4.2l0-.73a5.86,5.86,0,0,0-1-4.3l.11-.92c.37-1.79-.45-3.52-1-5.16A178,178,0,0,1,.64,275.51,4,4,0,0,0,0,270.78V240.57A3.63,3.63,0,0,0,.66,236,123.1,123.1,0,0,1,2,223c.55-2,1.41-4,1-6.12L3,215.93c.77-1.57,1.52-3.33,1-5.1a197.86,197.86,0,0,1,5-22.81,3.16,3.16,0,0,0,1.06-3.2L9.9,184l.88-2.24c.79-2.75,1.66-5.47,2.57-8.18,0-.07.08-.22.1-.3q.95-2.68,1.9-5.36c.07-.18.21-.54.27-.73.56-1.48,1.12-3,1.71-4.43.06-.16.19-.48.26-.64a245.54,245.54,0,0,1,12.71-27.4l.31-.57c3.56-6.67,7.53-13.12,11.69-19.42l.36-.54,1.74-2.57c0-.07.14-.21.19-.28A251.67,251.67,0,0,1,65.21,85.12c6.38-6.87,13-13.47,19.87-19.88A254.91,254.91,0,0,1,122.2,37.58l.54-.34c1.44-.9,2.92-1.77,4.4-2.63l.54-.32c2.13-1.27,4.31-2.47,6.49-3.65l.57-.31c1.13-.59,2.26-1.18,3.39-1.75l.73-.39,1-.55.69-.37,1.68-.84.34-.16"/></svg>