<svg id="Layer_1" data-name="Layer 1" xmlns="http://www.w3.org/2000/svg" viewBox="0 0 512 512"><defs><style>.cls-1{fill:#f0f0f0;}.cls-2{fill:#6da544;}.cls-3{fill:#de1724;}.cls-4{fill:#f5f5f5;}.cls-5{fill:#84404c;}.cls-6{fill:#c9cf65;}.cls-7{fill:#00bdae;}</style></defs><path class="cls-1" d="M253.18,0h5.7a257.77,257.77,0,0,1,108.5,25.33c-.26,135.88,0,271.77-.11,407.66.07,17.89-.14,35.78.1,53.67A260.23,260.23,0,0,1,262.72,512H249.35A262.92,262.92,0,0,1,182,501.1c-12.86-3.75-25.23-8.93-37.4-14.47.24-87.2,0-174.4.11-261.6-.07-66.56.13-133.12-.11-199.68A258.57,258.57,0,0,1,253.18,0"/><path class="cls-2" d="M12.19,177c21.05-65.75,70-122,132.4-151.69.24,66.56,0,133.12.11,199.68-.07,87.2.13,174.4-.11,261.6C89.71,460.5,45.1,413.78,20.93,358.05a252.25,252.25,0,0,1-19.3-71.51c-.83-5-.69-10-1.63-14.94V234.75l.8,2.57C1.54,216.83,6,196.57,12.19,177"/><path class="cls-3" d="M367.38,25.33C413,47.13,451.66,83.12,477.22,126.74c19.57,33.64,31.84,71.81,34,110.73l.74-2v37.25l-.64,3.13a253.68,253.68,0,0,1-38.69,116.79,256.24,256.24,0,0,1-105.3,94c-.24-17.89,0-35.78-.1-53.67.07-135.89-.15-271.78.11-407.66"/><path class="cls-4" d="M271.22,261.88c2.13,2.17,4.27,4.33,6.45,6.45a75.6,75.6,0,0,1-11.54,3.88c.85-1.76,1.69-3.53,2.54-5.3l2.55,2.52v-7.55M243,261.57a156.35,156.35,0,0,1,16-3.7c2.88,1.5,4.78,4.38,7.19,6.53-3.31,1.65-6.62,3.29-9.95,4.87-.1,1.28-.2,2.55-.31,3.83a51.78,51.78,0,0,1-25.42-6.82c4.65.17,9.42-1,12.53-4.71m24.16-28.21c5.91,3.63,12,6.95,18,10.52,1.8,1,2.37,3.07,3.32,4.74a30.28,30.28,0,0,0,7.33,9.56,8.42,8.42,0,0,0-5.36,1.4q-10-6-20-12a88.82,88.82,0,0,0-3.28-14.24M238.83,221c2.3-1.16,4.61-2.29,7-3.25a17.4,17.4,0,0,1,2.58,6c-2.14,2.63-4,5.68-4.25,9.16-.55,5,1.94,9.59,4.52,13.66-1.43,2.29-2.9,4.56-4.37,6.84-2-5.25-7.76-6.76-12.42-8.71,1.05-6.59,9.32-9,10.32-15.67.66-3.19-1.63-5.72-3.38-8.07m-47.52,25.63a63.49,63.49,0,0,0,2.29,16.91c.85,2.52.58,5.21,1.07,7.78,1.19,1.78,3.05,3.06,3.94,5.07,2.42,5.12,6.44,9.29,8.42,14.63,2.26,1.34,4.7,2.45,6.56,4.37,4.09,4,9.42,6.31,13.4,10.41,5.52.66,10.51,3.29,16,4.22a65.11,65.11,0,0,0,36.94-3.23c2.25-.88,5.3.14,6.91-2.07,2.5-3.25,6.42-4.81,9.46-7.45,2.38-2,4.61-4.35,7.67-5.34,3.33-1.05,2.43-5.29,4.51-7.48,3.22-3.64,4.29-8.86,8.33-11.77,2.76-2.07.47-5.75,1.49-8.5a64.32,64.32,0,0,0,2.42-17.56q-3.81,0-7.61,0c-.24,6.9-.95,14.05-4.17,20.27-2,6.32-5.25,12.45-10.29,16.85-4.4,6-10.4,11.29-17.71,13.15-1.36.87-2.45,2.13-3.94,2.78a57.19,57.19,0,0,1-41,.35c-2.35-.7-3.45-3.54-6-3.69-4.63-.56-8-4.12-11.54-6.79-2-1.39-2.68-3.9-4.26-5.65-5.58-3.81-9.21-10.24-10.39-16.81-4.31-5.82-4.38-13.51-4.85-20.45q-3.81-.06-7.62,0m64.75-45.67c3.42,2.19,7,4.74,8.38,8.74,1.95,4.71.85,9.9-.79,14.52a24.32,24.32,0,0,0-22.72-15.77c-2.59,2.53-5.15,5.11-7.68,7.7-.07.75-.22,2.24-.29,3-1.34-.41-2.67-.8-4-1.17.34-1.28.67-2.56,1-3.84-1.08-2.1-2.15-4.2-3.25-6.29-5.69,2.9-7.09,11.44-2.45,15.88,2.81,3,7.41,1.92,10.6,4.22-4.17,5.14-11.27,9.72-10.55,17.18,1,6.26,7.73,8,12.65,10.17-.11,4-5.26,3.59-8,2.54-8.39-3-12.59-11.92-14.1-20.14-2.49.33-5,.7-7.45,1.17,1.16,7.07,3.83,14.11,8.76,19.44-2,1.43-3,4.5-.87,6.28a60.08,60.08,0,0,0,36.79,16.23l.09,3.93a10.86,10.86,0,0,0-5.77,2.63,47.32,47.32,0,0,1-13.52-5.78q-2.19,3.1-4.2,6.34a54.14,54.14,0,0,0,16.23,6.9c2.6,6.06,9.76,5.16,15.13,4.89,3.15.14,5.5-2.38,6.95-4.89a53.83,53.83,0,0,0,16.27-6.93q-2.08-3.18-4.21-6.31a48.6,48.6,0,0,1-13.55,5.78,10.89,10.89,0,0,0-5.77-2.63c0-1.3,0-2.61.08-3.91a60.26,60.26,0,0,0,36.81-16.26c1.68-1.42,1.38-4,.05-5.57,1.64,1.08,3.4,2,5.11,3,.2-7,1.23-14,.16-21-.86-11.7-5.2-23.85-14.53-31.43-8.62-7.22-20.42-9.6-31.41-8.61"/><path class="cls-5" d="M256.06,200.92c11-1,22.79,1.39,31.41,8.61,9.33,7.58,13.67,19.73,14.53,31.43,1.07,7,0,14-.16,21-1.71-1-3.47-1.91-5.11-3l-1-.78a30.28,30.28,0,0,1-7.33-9.56c-.95-1.67-1.52-3.77-3.32-4.74-5.95-3.57-12.05-6.89-18-10.52a88.82,88.82,0,0,1,3.28,14.24q10,6,20,12c1.22.76,2.44,1.52,3.66,2.3-5.06,2.56-10.14,5.08-15.21,7.61l-1.19-1.16c-2.18-2.12-4.32-4.28-6.45-6.45v7.55l-2.55-2.52c-.85-.84-1.69-1.67-2.52-2.51-2.41-2.15-4.31-5-7.19-6.53a156.35,156.35,0,0,0-16,3.7,25.72,25.72,0,0,0,1.31-8.16c1.47-2.28,2.94-4.55,4.37-6.84-2.58-4.07-5.07-8.68-4.52-13.66.23-3.48,2.11-6.53,4.25-9.16a17.4,17.4,0,0,0-2.58-6c.22-1.08,1.43-2.19.77-3.28-1.51-2.33-3.74-4.06-5.67-6a24.32,24.32,0,0,1,22.72,15.77c1.64-4.62,2.74-9.81.79-14.52-1.41-4-5-6.55-8.38-8.74"/><path class="cls-6" d="M246.46,287.33a10.86,10.86,0,0,1,5.77-2.63,56.1,56.1,0,0,1,7.56,0,10.89,10.89,0,0,1,5.77,2.63c1.76,2.09,1.91,4.87,1.49,7.46-1.45,2.51-3.8,5-6.95,4.89-5.37.27-12.53,1.17-15.13-4.89-.42-2.59-.27-5.37,1.49-7.46m9.74-18.06c3.33-1.58,6.64-3.22,9.95-4.87.83.84,1.67,1.67,2.52,2.51-.85,1.77-1.69,3.54-2.54,5.3a43.42,43.42,0,0,1-10.24.89c.11-1.28.21-2.55.31-3.83m-64.89-22.68q3.81,0,7.62,0c.47,6.94.54,14.63,4.85,20.45,1.18,6.57,4.81,13,10.39,16.81,1.58,1.75,2.22,4.26,4.26,5.65,3.54,2.67,6.91,6.23,11.54,6.79,2.58.15,3.68,3,6,3.69a57.19,57.19,0,0,0,41-.35c1.49-.65,2.58-1.91,3.94-2.78,7.31-1.86,13.31-7.19,17.71-13.15,5-4.4,8.31-10.53,10.29-16.85,3.22-6.22,3.93-13.37,4.17-20.27q3.8,0,7.61,0a64.32,64.32,0,0,1-2.42,17.56c-1,2.75,1.27,6.43-1.49,8.5-4,2.91-5.11,8.13-8.33,11.77-2.08,2.19-1.18,6.43-4.51,7.48-3.06,1-5.29,3.31-7.67,5.34-3,2.64-7,4.2-9.46,7.45-1.61,2.21-4.66,1.19-6.91,2.07A65.11,65.11,0,0,1,243,310c-5.46-.93-10.45-3.56-16-4.22-4-4.1-9.31-6.44-13.4-10.41-1.86-1.92-4.3-3-6.56-4.37-2-5.34-6-9.51-8.42-14.63-.89-2-2.75-3.29-3.94-5.07-.49-2.57-.22-5.26-1.07-7.78a63.49,63.49,0,0,1-2.29-16.91m32.95-22.91c-4.64-4.44-3.24-13,2.45-15.88,1.1,2.09,2.17,4.19,3.25,6.29-.34,1.28-.67,2.56-1,3.84,1.34.37,2.67.76,4,1.17.07-.75.22-2.24.29-3,2.53-2.59,5.09-5.17,7.68-7.7,1.93,2,4.16,3.69,5.67,6,.66,1.09-.55,2.2-.77,3.28-2.39,1-4.7,2.09-7,3.25,1.75,2.35,4,4.88,3.38,8.07-1,6.66-9.27,9.08-10.32,15.67,4.66,2,10.43,3.46,12.42,8.71a25.72,25.72,0,0,1-1.31,8.16c-3.11,3.68-7.88,4.88-12.53,4.71a28.58,28.58,0,0,1-14.25-8c-4.93-5.33-7.6-12.37-8.76-19.44,2.47-.47,5-.84,7.45-1.17,1.51,8.22,5.71,17.13,14.1,20.14,2.69,1,7.84,1.48,8-2.54-4.92-2.18-11.69-3.91-12.65-10.17-.72-7.46,6.38-12,10.55-17.18-3.19-2.3-7.79-1.22-10.6-4.22"/><path class="cls-7" d="M265.56,287.33a48.6,48.6,0,0,0,13.55-5.78q2.13,3.13,4.21,6.31a53.83,53.83,0,0,1-16.27,6.93c.42-2.59.27-5.37-1.49-7.46m-36.82.56q2-3.24,4.2-6.34a47.32,47.32,0,0,0,13.52,5.78c-1.76,2.09-1.91,4.87-1.49,7.46a54.14,54.14,0,0,1-16.23-6.9m61.67-28.31a8.42,8.42,0,0,1,5.36-1.4l1,.78c1.33,1.54,1.63,4.15-.05,5.57a60.26,60.26,0,0,1-36.81,16.26c0,1.3-.06,2.61-.08,3.91a56.1,56.1,0,0,0-7.56,0l-.09-3.93a60.08,60.08,0,0,1-36.79-16.23c-2.09-1.78-1.1-4.85.87-6.28a28.58,28.58,0,0,0,14.25,8,51.78,51.78,0,0,0,25.42,6.82,43.42,43.42,0,0,0,10.24-.89,75.6,75.6,0,0,0,11.54-3.88l1.19,1.16c5.07-2.53,10.15-5.05,15.21-7.61-1.22-.78-2.44-1.54-3.66-2.3"/></svg>