<svg id="Layer_1" data-name="Layer 1" xmlns="http://www.w3.org/2000/svg" viewBox="0 0 512 512"><defs><style>.cls-1{fill:#e33426;}.cls-2{fill:#283991;}.cls-3{fill:#efeff0;}</style></defs><path class="cls-1" d="M109.94,466.12c83.35-.27,166.71,0,250.06-.16,13.93.18,27.89-.39,41.8.29a254.66,254.66,0,0,1-119.7,44.27c-8.39,1.29-16.9.74-25.33,1.48h-4.56c-4.74-.13-9.47-.37-14.19-.8-45.77-2.9-90.45-19-128.08-45.08M28.37,373q161.79-.11,323.59,0c3.36-.16,6.66.86,10,.71,5.31-1.26,10.65.61,16,.07a104.11,104.11,0,0,1,25,0c4,.27,8-1,12-.7,5.39-.44,10.71,1.47,16,.06a40.16,40.16,0,0,0,14-.09c3.33.83,6.65.46,10,.22,6,1.54,12-1.07,18,.05,3.32.73,6.88-.3,10,1.38-2,2.83-3.46,6-5.19,9A259.45,259.45,0,0,1,452.44,420Q256,420,59.5,420A260.59,260.59,0,0,1,28.37,373m-27.2-93.1q254.82-.06,509.64-.06a252.86,252.86,0,0,1-8.87,46.92q-246,.07-491.91,0a256.44,256.44,0,0,1-8.86-46.85m249.55-93.34c83.89,0,167.76-.13,251.65,0a255.67,255.67,0,0,1,8.52,47.05q-79.42.16-158.85,0-175.5.09-351,0l0-.48c59.65.11,119.29,0,178.93.05,23.6-.14,47.24.27,70.82-.21-.19-15.48,0-31-.08-46.44m0-93.26q101.43.09,202.84,0a261.42,261.42,0,0,1,30.79,47.08c-77.88.18-155.75-.06-233.63,0q0-23.52,0-47M238.93,0h33c2.22,1.22,4.78,1.1,7.22,1.22A255,255,0,0,1,403.59,47c-50.95.41-101.92-.07-152.87.08.09-15.6-.2-31.21.15-46.81C247.24,0,243.62.4,240,.31L238.93,0"/><path class="cls-2" d="M49.51,104.74l1.33-.74q-1.85,5.32-3.55,10.69c-1.56-.07-3.13-.16-4.68-.28,2.26-3.24,4.36-6.63,6.9-9.67m171.22,83.33c-1.15,3.8-2.45,7.56-3.61,11.37-4.06.14-8.12,0-12.18,0,2.76,3,6.56,4.87,9.71,7.45-1.16,4-2.8,7.82-3.64,11.9,3.28-2.49,6.62-4.89,10-7.3,3.34,2.42,6.69,4.83,10,7.32-.9-4.08-2.51-7.94-3.67-11.94,3.2-2.54,6.91-4.49,9.73-7.46-4.06.09-8.12.11-12.19,0-1.49-3.72-2-8.06-4.1-11.39M132.17,199.5c-4.1.06-8.22-.14-12.32.09,3.21,2.58,6.63,4.86,9.93,7.32-1.24,4-2.7,7.91-3.77,12q5-3.7,10.08-7.36c3.3,2.38,6.61,4.75,9.83,7.22-.59-4.09-2.44-7.86-3.5-11.84,3.1-2.58,7-4.38,9.6-7.44-4,0-8.06.12-12.08,0-1.15-3.81-2.47-7.56-3.59-11.38-2.2,3.32-2.59,7.74-4.18,11.44m-84.84,0c-4.12.05-8.24,0-12.36,0,3.13,2.7,6.63,4.91,9.93,7.39-1.09,4-2.87,7.79-3.54,11.87,3.22-2.49,6.56-4.84,9.84-7.26,3.45,2.42,6.76,5,10.28,7.35-1.4-4-2.66-8-3.94-12,3.07-2.58,7-4.31,9.51-7.43-4,0-8,.15-12-.05-1.07-3.82-2.5-7.52-3.51-11.36-2.26,3.26-2.63,7.73-4.19,11.43M178.27,166.9c-1.12,3.79-2.46,7.51-3.56,11.31-4.23.15-8.46,0-12.68.09,3.34,2.61,7.08,4.76,10.18,7.66-1.36,3.8-2.64,7.63-3.72,11.52,3.42-2.19,6.54-4.81,9.92-7,3.52,1.93,6.6,4.83,10.05,7-.77-3.91-2.48-7.55-3.44-11.4,2.68-3.12,6.8-5,10-7.75-4.09,0-8.19-.12-12.28.1-2-3.59-2.13-8.14-4.45-11.49m-84.83-.2c-1.14,3.87-2.46,7.68-3.64,11.54-4,.09-8,0-12,0,2.59,3.14,6.62,4.75,9.54,7.6q-2,5.73-3.77,11.58c3.55-2.18,6.68-5,10.23-7.16,3.24,2.57,6.67,4.87,10,7.39-1-4.17-3-8.08-3.58-12.33,3.43-2.17,6.65-4.65,9.9-7.08-4.11,0-8.21-.09-12.31.09-1.84-3.73-2.25-8.05-4.34-11.67m127.1-20.34c-1.2,3.52-2.29,7.1-3.44,10.65-4.16.13-8.33,0-12.49.1,3.26,2.62,6.8,4.86,10.07,7.46-1.32,3.85-2.61,7.71-3.78,11.61,3.53-2.11,6.68-4.76,10-7.11,3.41,2.32,6.56,5,10.1,7.14q-1.77-5.85-3.8-11.61c3.19-2.66,6.81-4.78,10-7.48-4.11-.13-8.23,0-12.35-.07-1.17-3.65-2.42-7.27-3.48-11l-.85.26m-84.84,0c-1.28,3.5-2.32,7.1-3.48,10.64-4.11.08-8.23-.05-12.34.1,3.12,2.64,6.58,4.86,9.88,7.27-1.16,3.94-2.55,7.82-3.76,11.75,3.56-2,6.7-4.72,10-7.08,3.42,2.3,6.61,5,10.09,7.18-1.09-3.94-2.42-7.81-3.75-11.68,3.24-2.61,6.79-4.8,10-7.45-4.13-.12-8.26,0-12.38-.07-1.18-3.68-2.45-7.33-3.51-11l-.79.38M47.28,157.08c-4.12,0-8.25-.08-12.37,0,3.21,2.54,6.58,4.89,10,7.23-1.08,4-2.51,7.82-3.74,11.74,3.76-1.85,6.66-5.07,10.39-7a94,94,0,0,0,9.73,7c-1.13-3.86-2.35-7.69-3.74-11.46,3.13-2.77,6.82-4.82,10-7.58-4.12-.08-8.24,0-12.36,0-1.24-4-2.66-7.9-3.75-11.92-1.65,3.88-2.65,8-4.08,12m127.39-21.27c-4,.09-8,0-12,.09,2.79,2.9,6.43,4.83,9.58,7.32-1.22,3.95-2.53,7.88-3.84,11.81,3.72-1.91,6.65-5.37,10.43-6.93,3.4,2.15,6.37,4.93,9.9,6.88-1.3-3.92-2.66-7.83-3.79-11.8,3.28-2.42,6.71-4.64,9.83-7.27-4.12-.16-8.24,0-12.35-.11-1.12-3.83-2.53-7.57-3.56-11.43-2.1,3.23-2.71,7.69-4.15,11.44m-84.9,0c-4.06.07-8.12-.06-12.17.1a99.64,99.64,0,0,0,9.65,7.17c-1,4-2.49,7.95-3.79,11.9a94,94,0,0,0,9.92-7.07c3.72,2,6.82,5,10.43,7.2-1.25-4-2.58-7.92-3.84-11.89,3.24-2.5,6.83-4.57,9.82-7.36-4.11-.09-8.21.06-12.31-.1-1.15-3.87-2.45-7.69-3.68-11.53-1.84,3.64-2.62,7.75-4,11.58m131-32.7c-1.3,3.86-2.26,7.85-3.89,11.59-3.92-.18-7.83,0-11.74-.16,2.5,3.12,6.42,4.89,9.52,7.45-1.16,4-2.72,7.87-3.69,11.92,3.36-2.42,6.66-4.9,10-7.28q5,3.64,10,7.33c-1-4.05-2.53-8-3.73-12,3.13-2.57,7-4.4,9.6-7.46-3.89,0-7.78.16-11.66,0-2.29-3.34-2.14-8.12-4.48-11.47M132.3,114.5c-4.08.28-8.17.06-12.26.09,2.85,2.92,6.53,4.89,9.73,7.42-1.14,4-2.82,7.86-3.6,12,3.2-2.56,6.58-4.88,9.86-7.32,3.31,2.29,6.6,4.62,9.72,7.16-.22-4.11-2.41-7.86-3.32-11.85,3.09-2.53,7-4.3,9.46-7.41-3.9.14-7.8,0-11.7.15-1.59-3.77-2.62-7.74-3.87-11.62-2,3.4-2.64,7.66-4,11.41m42.41-21.16c-4.22.15-8.44,0-12.66,0,3.34,2.57,6.84,4.92,10.16,7.52-1.24,3.9-2.65,7.76-3.73,11.72,3.5-2.28,6.69-5,10.21-7.21,3.19,2.49,6.48,4.86,9.82,7.16-1-4-2.44-7.78-3.66-11.66,3.3-2.62,6.83-4.93,10.14-7.54-4.12.08-8.23-.07-12.35.13-1.59-3.75-2.61-7.71-3.89-11.58-2,3.43-2.67,7.64-4,11.41M93.44,81.86c-1.11,3.82-2.51,7.56-3.54,11.4-4,.34-8,.07-12,.11,2.44,3.22,6.48,4.83,9.45,7.55-1.3,3.89-2.61,7.78-3.79,11.7,3.5-2.24,6.72-4.88,10.16-7.21q4.94,3.68,10,7.27c-1-4-2.41-7.85-3.71-11.74,3.25-2.66,6.87-4.84,10.06-7.59-4.11.11-8.22,0-12.33.12-1.67-3.78-2.19-8-4.25-11.61M220.6,61.24c-1.16,3.62-2.34,7.23-3.47,10.86-4.09.22-8.18,0-12.27.1,2.94,2.89,6.65,4.86,9.82,7.51-1.31,3.85-2.62,7.7-3.77,11.61,3.53-2.14,6.68-4.84,10.11-7.13,3.33,2.39,6.53,5,10,7.16-1.16-3.91-2.46-7.77-3.78-11.63,3.18-2.65,6.85-4.7,9.88-7.53-4.11-.1-8.24.16-12.35-.12-1.11-3.61-2.29-7.22-3.47-10.82h-.72m-84.88.23c-1.3,3.51-2.3,7.15-3.52,10.7-4.06,0-8.12,0-12.18,0,2.85,2.94,6.62,4.87,9.77,7.5-1.27,3.89-2.62,7.76-3.77,11.7,3.47-2.2,6.69-4.78,10-7.18,3.42,2.3,6.57,5,10.1,7.14-1.14-3.92-2.47-7.78-3.76-11.65,3.21-2.42,6.46-4.77,9.74-7.09-3.83-1-8.13-.07-12.14-.41-1.19-3.71-2.46-7.39-3.53-11.13l-.74.42m42.66-22.18c-1.16,3.89-2.53,7.71-3.67,11.61-4.16.17-8.31,0-12.46.14,3.17,2.54,6.51,4.85,9.83,7.2-.88,4-2.46,7.87-3.69,11.81,3.71-1.94,6.72-5,10.31-7.07a105.82,105.82,0,0,0,10,7.13c-1.24-4-2.75-7.83-3.74-11.85,3.33-2.34,6.69-4.68,9.88-7.22-4.17-.19-8.35.07-12.51-.18-1.24-3.87-2.17-7.9-3.93-11.57m42.39-21.1c-1.2,3.88-2.41,7.76-3.77,11.58-4,0-7.94,0-11.91,0,2.59,3,6.4,4.87,9.54,7.37-1.12,4-2.7,7.88-3.69,11.93,3.38-2.39,6.65-4.91,10.05-7.26,3.36,2.4,6.67,4.87,10,7.29-1-4-2.57-7.94-3.71-12,3.11-2.52,7-4.35,9.5-7.41-4,.06-7.94,0-11.91.05-1.55-3.78-2.12-8.06-4.13-11.57M198.43,6.51C212.06,3.18,226,1.62,240,.31c3.63.09,7.25-.3,10.88-.08-.35,15.6-.06,31.21-.15,46.81q0,23.15,0,46.29,0,23.53,0,47.05,0,23.12,0,46.21c.05,15.48-.11,31,.08,46.44-23.58.48-47.22.07-70.82.21-59.64,0-119.28.06-178.93-.05a235.45,235.45,0,0,1,7.48-43c3.57,2.34,7,5,10.42,7.46-1.22-4-2.57-8-3.86-12,3.37-2.48,6.8-4.87,10.12-7.42-4.25,0-8.5,0-12.74,0l.28-2.45a246.44,246.44,0,0,1,26.47-56.07l.9-1.18c1.69,1.07,3.19,2.37,4.8,3.54-1.36,3.93-2.62,7.9-3.84,11.87,3.38-2.43,6.75-4.9,10.11-7.36,3.46,2.42,6.76,5,10.3,7.33-1.42-3.94-2.66-7.94-4-11.93,3.27-2.44,6.68-4.69,9.84-7.29-4.11-.25-8.23,0-12.34-.18-1.21-4-2.54-8.07-3.9-12.08A231.29,231.29,0,0,1,84.75,65.7c-.36,1.5-.76,3-1.1,4.51C87,67.84,90.3,65.52,93.47,63c3.56,2.2,6.69,5,10.31,7.15-1.24-3.93-2.6-7.82-3.79-11.76,3.35-2.42,6.75-4.78,10-7.34-2-.26-4.56.59-6.31-.64l1.14-1A254.49,254.49,0,0,1,126.7,35c1,.72,2,1.44,3.07,2.14-1.19,4-2.7,7.9-3.7,12,3.34-2.43,6.65-4.89,10-7.3,3.4,2.39,6.71,4.9,10.11,7.28-1.13-4-2.6-8-3.73-12,3.26-2.36,6.73-4.47,9.65-7.24-3.89-.28-7.8.19-11.68-.18l-1.25-1.35-1,.36a254.38,254.38,0,0,1,60.3-22.14"/><path class="cls-3" d="M59.5,420q196.47-.1,392.94.06a260.09,260.09,0,0,1-50.64,46.23c-13.91-.68-27.87-.11-41.8-.29-83.35.18-166.71-.11-250.06.16A261,261,0,0,1,59.5,420M10,326.78q246,.06,491.91,0c-4.44,16.07-11.09,31.4-18.17,46.45-4.93,0-9.86,0-14.77-.31-10.33.67-20.67-.18-31,.32-7.33-.31-14.66.07-22-.3-12.34.63-24.67-.42-37,.27-9-.12-18,0-27-.22q-161.79,0-323.59,0A257.6,257.6,0,0,1,10,326.78M1,233.67q175.5.17,351,0,79.41.1,158.85,0c.68,6.85.87,13.72,1.11,20.58v4.55c-.29,7.05-.53,14.1-1.19,21.12q-254.82-.06-509.64.06-1-11-1.17-22.1v-3.72c.11-6.83.52-13.64,1-20.44m219.7-45.6c2.15,3.33,2.61,7.67,4.1,11.39,4.07.08,8.13.06,12.19,0-2.82,3-6.53,4.92-9.73,7.46,1.16,4,2.77,7.86,3.67,11.94-3.3-2.49-6.65-4.9-10-7.32-3.34,2.41-6.68,4.81-10,7.3.84-4.08,2.48-7.92,3.64-11.9-3.15-2.58-7-4.45-9.71-7.45,4.06,0,8.12.12,12.18,0,1.16-3.81,2.46-7.57,3.61-11.37M132.17,199.5c1.59-3.7,2-8.12,4.18-11.44,1.12,3.82,2.44,7.57,3.59,11.38,4,.13,8.05.05,12.08,0-2.63,3.06-6.5,4.86-9.6,7.44,1.06,4,2.91,7.75,3.5,11.84-3.22-2.47-6.53-4.84-9.83-7.22Q131,215.16,126,218.87c1.07-4.05,2.53-8,3.77-12-3.3-2.46-6.72-4.74-9.93-7.32,4.1-.23,8.22,0,12.32-.09m-84.84,0c1.56-3.7,1.93-8.17,4.19-11.43,1,3.84,2.44,7.54,3.51,11.36,4,.2,8,.05,12,.05-2.53,3.12-6.44,4.85-9.51,7.43,1.28,4,2.54,8,3.94,12-3.52-2.32-6.83-4.93-10.28-7.35-3.28,2.42-6.62,4.77-9.84,7.26.67-4.08,2.45-7.89,3.54-11.87-3.3-2.48-6.8-4.69-9.93-7.39,4.12,0,8.24,0,12.36,0m-38.8-9.25q1.94-7.24,4.22-14.4l-.28,2.45c4.24,0,8.49,0,12.74,0-3.32,2.55-6.75,4.94-10.12,7.42,1.29,4,2.64,8,3.86,12-3.47-2.49-6.85-5.12-10.42-7.46M178.27,166.9c2.32,3.35,2.42,7.9,4.45,11.49,4.09-.22,8.19-.08,12.28-.1-3.18,2.72-7.3,4.63-10,7.75,1,3.85,2.67,7.49,3.44,11.4-3.45-2.18-6.53-5.08-10.05-7-3.38,2.24-6.5,4.86-9.92,7,1.08-3.89,2.36-7.72,3.72-11.52-3.1-2.9-6.84-5.05-10.18-7.66,4.22-.07,8.45.06,12.68-.09,1.1-3.8,2.44-7.52,3.56-11.31m-84.83-.2c2.09,3.62,2.5,7.94,4.34,11.67,4.1-.18,8.2-.07,12.31-.09-3.25,2.43-6.47,4.91-9.9,7.08.59,4.25,2.61,8.16,3.58,12.33-3.28-2.52-6.71-4.82-10-7.39-3.55,2.19-6.68,5-10.23,7.16q1.74-5.85,3.77-11.58c-2.92-2.85-7-4.46-9.54-7.6,4,0,8,.05,12,0,1.18-3.86,2.5-7.67,3.64-11.54m127.1-20.34.85-.26c1.06,3.68,2.31,7.3,3.48,11,4.12,0,8.24-.06,12.35.07-3.16,2.7-6.78,4.82-10,7.48q2,5.76,3.8,11.61c-3.54-2.14-6.69-4.82-10.1-7.14-3.37,2.35-6.52,5-10,7.11,1.17-3.9,2.46-7.76,3.78-11.61-3.27-2.6-6.81-4.84-10.07-7.46,4.16-.13,8.33,0,12.49-.1,1.15-3.55,2.24-7.13,3.44-10.65m-84.84,0,.79-.38c1.06,3.71,2.33,7.36,3.51,11,4.12,0,8.25-.05,12.38.07-3.21,2.65-6.76,4.84-10,7.45,1.33,3.87,2.66,7.74,3.75,11.68-3.48-2.23-6.67-4.88-10.09-7.18-3.34,2.36-6.48,5-10,7.08,1.21-3.93,2.6-7.81,3.76-11.75-3.3-2.41-6.76-4.63-9.88-7.27,4.11-.15,8.23,0,12.34-.1,1.16-3.54,2.2-7.14,3.48-10.64M47.28,157.08c1.43-4,2.43-8.07,4.08-12,1.09,4,2.51,7.94,3.75,11.92,4.12,0,8.24,0,12.36,0-3.15,2.76-6.84,4.81-10,7.58,1.39,3.77,2.61,7.6,3.74,11.46a94,94,0,0,1-9.73-7c-3.73,1.9-6.63,5.12-10.39,7,1.23-3.92,2.66-7.78,3.74-11.74-3.37-2.34-6.74-4.69-10-7.23,4.12-.12,8.25-.05,12.37,0m203.44-16.7c77.88-.06,155.75.18,233.63,0a266.06,266.06,0,0,1,18,46.19c-83.89-.11-167.76.06-251.65,0q0-23.1,0-46.21m-76.05-4.57c1.44-3.75,2.05-8.21,4.15-11.44,1,3.86,2.44,7.6,3.56,11.43,4.11.11,8.23-.05,12.35.11-3.12,2.63-6.55,4.85-9.83,7.27,1.13,4,2.49,7.88,3.79,11.8-3.53-1.95-6.5-4.73-9.9-6.88-3.78,1.56-6.71,5-10.43,6.93,1.31-3.93,2.62-7.86,3.84-11.81-3.15-2.49-6.79-4.42-9.58-7.32,4-.13,8,0,12-.09m-84.9,0c1.41-3.83,2.19-7.94,4-11.58,1.23,3.84,2.53,7.66,3.68,11.53,4.1.16,8.2,0,12.31.1-3,2.79-6.58,4.86-9.82,7.36,1.26,4,2.59,7.92,3.84,11.89-3.61-2.21-6.71-5.19-10.43-7.2A94,94,0,0,1,83.46,155c1.3-4,2.81-7.86,3.79-11.9a99.64,99.64,0,0,1-9.65-7.17c4.05-.16,8.11,0,12.17-.1m131-32.7c2.34,3.35,2.19,8.13,4.48,11.47,3.88.13,7.77,0,11.66,0-2.65,3.06-6.47,4.89-9.6,7.46,1.2,4,2.71,7.9,3.73,12q-5-3.69-10-7.33c-3.38,2.38-6.68,4.86-10,7.28,1-4,2.53-7.93,3.69-11.92-3.1-2.56-7-4.33-9.52-7.45,3.91.16,7.82,0,11.74.16,1.63-3.74,2.59-7.73,3.89-11.59M132.3,114.5c1.38-3.75,2-8,4-11.41,1.25,3.88,2.28,7.85,3.87,11.62,3.9-.18,7.8,0,11.7-.15-2.47,3.11-6.37,4.88-9.46,7.41.91,4,3.1,7.74,3.32,11.85-3.12-2.54-6.41-4.87-9.72-7.16-3.28,2.44-6.66,4.76-9.86,7.32.78-4.11,2.46-8,3.6-12-3.2-2.53-6.88-4.5-9.73-7.42,4.09,0,8.18.19,12.26-.09m-82.79-9.76a22.74,22.74,0,0,1,1.63-2.26c1.36,4,2.69,8,3.9,12.08,4.11.16,8.23-.07,12.34.18-3.16,2.6-6.57,4.85-9.84,7.29,1.29,4,2.53,8,4,11.93-3.54-2.29-6.84-4.91-10.3-7.33-3.36,2.46-6.73,4.93-10.11,7.36,1.22-4,2.48-7.94,3.84-11.87-1.61-1.17-3.11-2.47-4.8-3.54l-.9,1.18c1.12-1.79,2.24-3.57,3.39-5.35,1.55.12,3.12.21,4.68.28Q49,109.32,50.84,104l-1.33.74m125.2-11.4c1.37-3.77,2-8,4-11.41,1.28,3.87,2.3,7.83,3.89,11.58,4.12-.2,8.23-.05,12.35-.13-3.31,2.61-6.84,4.92-10.14,7.54,1.22,3.88,2.7,7.7,3.66,11.66-3.34-2.3-6.63-4.67-9.82-7.16-3.52,2.23-6.71,4.93-10.21,7.21,1.08-4,2.49-7.82,3.73-11.72-3.32-2.6-6.82-5-10.16-7.52,4.22,0,8.44.1,12.66,0M93.44,81.86c2.06,3.59,2.58,7.83,4.25,11.61,4.11-.12,8.22,0,12.33-.12-3.19,2.75-6.81,4.93-10.06,7.59,1.3,3.89,2.7,7.76,3.71,11.74q-5-3.6-10-7.27c-3.44,2.33-6.66,5-10.16,7.21,1.18-3.92,2.49-7.81,3.79-11.7-3-2.72-7-4.33-9.45-7.55,4,0,8,.23,12-.11,1-3.84,2.43-7.58,3.54-11.4M220.6,61.24h.72c1.18,3.6,2.36,7.21,3.47,10.82,4.11.28,8.24,0,12.35.12-3,2.83-6.7,4.88-9.88,7.53,1.32,3.86,2.62,7.72,3.78,11.63-3.49-2.17-6.69-4.77-10-7.16-3.43,2.29-6.58,5-10.11,7.13,1.15-3.91,2.46-7.76,3.77-11.61-3.17-2.65-6.88-4.62-9.82-7.51,4.09-.1,8.18.12,12.27-.1,1.13-3.63,2.31-7.24,3.47-10.86m-84.88.23.74-.42c1.07,3.74,2.34,7.42,3.53,11.13,4,.34,8.31-.61,12.14.41-3.28,2.32-6.53,4.67-9.74,7.09,1.29,3.87,2.62,7.73,3.76,11.65-3.53-2.15-6.68-4.84-10.1-7.14-3.34,2.4-6.56,5-10,7.18,1.15-3.94,2.5-7.81,3.77-11.7-3.15-2.63-6.92-4.56-9.77-7.5,4.06,0,8.12,0,12.18,0,1.22-3.55,2.22-7.19,3.52-10.7m-51,4.23a253.62,253.62,0,0,1,20.07-16.34l-1.14,1c1.75,1.23,4.28.38,6.31.64-3.25,2.56-6.65,4.92-10,7.34,1.19,3.94,2.55,7.83,3.79,11.76C100.16,68,97,65.17,93.47,63c-3.17,2.55-6.52,4.87-9.82,7.24.34-1.51.74-3,1.1-4.51M250.72,47c51-.15,101.92.33,152.87-.08a263.13,263.13,0,0,1,50,46.34q-101.43,0-202.84,0,0-23.14,0-46.29m-72.34-7.75c1.76,3.67,2.69,7.7,3.93,11.57,4.16.25,8.34,0,12.51.18-3.19,2.54-6.55,4.88-9.88,7.22,1,4,2.5,7.9,3.74,11.85a105.82,105.82,0,0,1-10-7.13c-3.59,2.12-6.6,5.13-10.31,7.07,1.23-3.94,2.81-7.78,3.69-11.81-3.32-2.35-6.66-4.66-9.83-7.2,4.15-.17,8.3,0,12.46-.14,1.14-3.9,2.51-7.72,3.67-11.61M126.7,35c3.8-2.13,7.6-4.25,11.43-6.33l1-.36,1.25,1.35c3.88.37,7.79-.1,11.68.18-2.92,2.77-6.39,4.88-9.65,7.24,1.13,4,2.6,7.95,3.73,12-3.4-2.38-6.71-4.89-10.11-7.28-3.35,2.41-6.66,4.87-10,7.3,1-4,2.51-8,3.7-12-1-.7-2.06-1.42-3.07-2.14m94.07-16.79c2,3.51,2.58,7.79,4.13,11.57,4,0,7.94,0,11.91-.05-2.52,3.06-6.39,4.89-9.5,7.41,1.14,4,2.69,7.9,3.71,12-3.36-2.42-6.67-4.89-10-7.29-3.4,2.35-6.67,4.87-10.05,7.26,1-4,2.57-7.92,3.69-11.93-3.14-2.5-6.95-4.34-9.54-7.37,4,0,7.94,0,11.91,0,1.36-3.82,2.57-7.7,3.77-11.58"/></svg>